<?xml version="1.0" encoding="utf-8" standalone="no"?>
<!DOCTYPE svg PUBLIC "-//W3C//DTD SVG 1.1//EN"
  "http://www.w3.org/Graphics/SVG/1.1/DTD/svg11.dtd">
<!-- Created with matplotlib (http://matplotlib.org/) -->
<svg height="345pt" version="1.1" viewBox="0 0 460 345" width="460pt" xmlns="http://www.w3.org/2000/svg" xmlns:xlink="http://www.w3.org/1999/xlink">
 <defs>
  <style type="text/css">
*{stroke-linecap:butt;stroke-linejoin:round;}
  </style>
 </defs>
 <g id="figure_1">
  <g id="patch_1">
   <path d="M 0 345.6 
L 460.8 345.6 
L 460.8 0 
L 0 0 
z
" style="fill:#ffffff;"/>
  </g>
  <g id="axes_1">
   <g id="patch_2">
    <path d="M 55.82 300.76 
L 447.84 300.76 
L 447.84 27.6 
L 55.82 27.6 
z
" style="fill:#eaeaf2;"/>
   </g>
   <g id="matplotlib.axis_1">
    <g id="xtick_1">
     <g id="line2d_1">
      <path clip-path="url(#p0499e4c38a)" d="M 55.82 300.76 
L 55.82 27.6 
" style="fill:none;stroke:#ffffff;stroke-linecap:round;"/>
     </g>
     <g id="line2d_2"/>
     <g id="text_1">
      <!-- 0.00 -->
      <defs>
       <path d="M 31.78125 66.40625 
Q 24.171875 66.40625 20.328125 58.90625 
Q 16.5 51.421875 16.5 36.375 
Q 16.5 21.390625 20.328125 13.890625 
Q 24.171875 6.390625 31.78125 6.390625 
Q 39.453125 6.390625 43.28125 13.890625 
Q 47.125 21.390625 47.125 36.375 
Q 47.125 51.421875 43.28125 58.90625 
Q 39.453125 66.40625 31.78125 66.40625 
z
M 31.78125 74.21875 
Q 44.046875 74.21875 50.515625 64.515625 
Q 56.984375 54.828125 56.984375 36.375 
Q 56.984375 17.96875 50.515625 8.265625 
Q 44.046875 -1.421875 31.78125 -1.421875 
Q 19.53125 -1.421875 13.0625 8.265625 
Q 6.59375 17.96875 6.59375 36.375 
Q 6.59375 54.828125 13.0625 64.515625 
Q 19.53125 74.21875 31.78125 74.21875 
z
" id="DejaVuSans-30"/>
       <path d="M 10.6875 12.40625 
L 21 12.40625 
L 21 0 
L 10.6875 0 
z
" id="DejaVuSans-2e"/>
      </defs>
      <g style="fill:#262626;" transform="translate(44.687188 315.358437)scale(0.1 -0.1)">
       <use xlink:href="#DejaVuSans-30"/>
       <use x="63.623047" xlink:href="#DejaVuSans-2e"/>
       <use x="95.410156" xlink:href="#DejaVuSans-30"/>
       <use x="159.033203" xlink:href="#DejaVuSans-30"/>
      </g>
     </g>
    </g>
    <g id="xtick_2">
     <g id="line2d_3">
      <path clip-path="url(#p0499e4c38a)" d="M 105.948432 300.76 
L 105.948432 27.6 
" style="fill:none;stroke:#ffffff;stroke-linecap:round;"/>
     </g>
     <g id="line2d_4"/>
     <g id="text_2">
      <!-- 0.25 -->
      <defs>
       <path d="M 19.1875 8.296875 
L 53.609375 8.296875 
L 53.609375 0 
L 7.328125 0 
L 7.328125 8.296875 
Q 12.9375 14.109375 22.625 23.890625 
Q 32.328125 33.6875 34.8125 36.53125 
Q 39.546875 41.84375 41.421875 45.53125 
Q 43.3125 49.21875 43.3125 52.78125 
Q 43.3125 58.59375 39.234375 62.25 
Q 35.15625 65.921875 28.609375 65.921875 
Q 23.96875 65.921875 18.8125 64.3125 
Q 13.671875 62.703125 7.8125 59.421875 
L 7.8125 69.390625 
Q 13.765625 71.78125 18.9375 73 
Q 24.125 74.21875 28.421875 74.21875 
Q 39.75 74.21875 46.484375 68.546875 
Q 53.21875 62.890625 53.21875 53.421875 
Q 53.21875 48.921875 51.53125 44.890625 
Q 49.859375 40.875 45.40625 35.40625 
Q 44.1875 33.984375 37.640625 27.21875 
Q 31.109375 20.453125 19.1875 8.296875 
z
" id="DejaVuSans-32"/>
       <path d="M 10.796875 72.90625 
L 49.515625 72.90625 
L 49.515625 64.59375 
L 19.828125 64.59375 
L 19.828125 46.734375 
Q 21.96875 47.46875 24.109375 47.828125 
Q 26.265625 48.1875 28.421875 48.1875 
Q 40.625 48.1875 47.75 41.5 
Q 54.890625 34.8125 54.890625 23.390625 
Q 54.890625 11.625 47.5625 5.09375 
Q 40.234375 -1.421875 26.90625 -1.421875 
Q 22.3125 -1.421875 17.546875 -0.640625 
Q 12.796875 0.140625 7.71875 1.703125 
L 7.71875 11.625 
Q 12.109375 9.234375 16.796875 8.0625 
Q 21.484375 6.890625 26.703125 6.890625 
Q 35.15625 6.890625 40.078125 11.328125 
Q 45.015625 15.765625 45.015625 23.390625 
Q 45.015625 31 40.078125 35.4375 
Q 35.15625 39.890625 26.703125 39.890625 
Q 22.75 39.890625 18.8125 39.015625 
Q 14.890625 38.140625 10.796875 36.28125 
z
" id="DejaVuSans-35"/>
      </defs>
      <g style="fill:#262626;" transform="translate(94.815619 315.358437)scale(0.1 -0.1)">
       <use xlink:href="#DejaVuSans-30"/>
       <use x="63.623047" xlink:href="#DejaVuSans-2e"/>
       <use x="95.410156" xlink:href="#DejaVuSans-32"/>
       <use x="159.033203" xlink:href="#DejaVuSans-35"/>
      </g>
     </g>
    </g>
    <g id="xtick_3">
     <g id="line2d_5">
      <path clip-path="url(#p0499e4c38a)" d="M 156.076863 300.76 
L 156.076863 27.6 
" style="fill:none;stroke:#ffffff;stroke-linecap:round;"/>
     </g>
     <g id="line2d_6"/>
     <g id="text_3">
      <!-- 0.50 -->
      <g style="fill:#262626;" transform="translate(144.944051 315.358437)scale(0.1 -0.1)">
       <use xlink:href="#DejaVuSans-30"/>
       <use x="63.623047" xlink:href="#DejaVuSans-2e"/>
       <use x="95.410156" xlink:href="#DejaVuSans-35"/>
       <use x="159.033203" xlink:href="#DejaVuSans-30"/>
      </g>
     </g>
    </g>
    <g id="xtick_4">
     <g id="line2d_7">
      <path clip-path="url(#p0499e4c38a)" d="M 206.205295 300.76 
L 206.205295 27.6 
" style="fill:none;stroke:#ffffff;stroke-linecap:round;"/>
     </g>
     <g id="line2d_8"/>
     <g id="text_4">
      <!-- 0.75 -->
      <defs>
       <path d="M 8.203125 72.90625 
L 55.078125 72.90625 
L 55.078125 68.703125 
L 28.609375 0 
L 18.3125 0 
L 43.21875 64.59375 
L 8.203125 64.59375 
z
" id="DejaVuSans-37"/>
      </defs>
      <g style="fill:#262626;" transform="translate(195.072482 315.358437)scale(0.1 -0.1)">
       <use xlink:href="#DejaVuSans-30"/>
       <use x="63.623047" xlink:href="#DejaVuSans-2e"/>
       <use x="95.410156" xlink:href="#DejaVuSans-37"/>
       <use x="159.033203" xlink:href="#DejaVuSans-35"/>
      </g>
     </g>
    </g>
    <g id="xtick_5">
     <g id="line2d_9">
      <path clip-path="url(#p0499e4c38a)" d="M 256.333726 300.76 
L 256.333726 27.6 
" style="fill:none;stroke:#ffffff;stroke-linecap:round;"/>
     </g>
     <g id="line2d_10"/>
     <g id="text_5">
      <!-- 1.00 -->
      <defs>
       <path d="M 12.40625 8.296875 
L 28.515625 8.296875 
L 28.515625 63.921875 
L 10.984375 60.40625 
L 10.984375 69.390625 
L 28.421875 72.90625 
L 38.28125 72.90625 
L 38.28125 8.296875 
L 54.390625 8.296875 
L 54.390625 0 
L 12.40625 0 
z
" id="DejaVuSans-31"/>
      </defs>
      <g style="fill:#262626;" transform="translate(245.200914 315.358437)scale(0.1 -0.1)">
       <use xlink:href="#DejaVuSans-31"/>
       <use x="63.623047" xlink:href="#DejaVuSans-2e"/>
       <use x="95.410156" xlink:href="#DejaVuSans-30"/>
       <use x="159.033203" xlink:href="#DejaVuSans-30"/>
      </g>
     </g>
    </g>
    <g id="xtick_6">
     <g id="line2d_11">
      <path clip-path="url(#p0499e4c38a)" d="M 306.462158 300.76 
L 306.462158 27.6 
" style="fill:none;stroke:#ffffff;stroke-linecap:round;"/>
     </g>
     <g id="line2d_12"/>
     <g id="text_6">
      <!-- 1.25 -->
      <g style="fill:#262626;" transform="translate(295.329345 315.358437)scale(0.1 -0.1)">
       <use xlink:href="#DejaVuSans-31"/>
       <use x="63.623047" xlink:href="#DejaVuSans-2e"/>
       <use x="95.410156" xlink:href="#DejaVuSans-32"/>
       <use x="159.033203" xlink:href="#DejaVuSans-35"/>
      </g>
     </g>
    </g>
    <g id="xtick_7">
     <g id="line2d_13">
      <path clip-path="url(#p0499e4c38a)" d="M 356.590589 300.76 
L 356.590589 27.6 
" style="fill:none;stroke:#ffffff;stroke-linecap:round;"/>
     </g>
     <g id="line2d_14"/>
     <g id="text_7">
      <!-- 1.50 -->
      <g style="fill:#262626;" transform="translate(345.457777 315.358437)scale(0.1 -0.1)">
       <use xlink:href="#DejaVuSans-31"/>
       <use x="63.623047" xlink:href="#DejaVuSans-2e"/>
       <use x="95.410156" xlink:href="#DejaVuSans-35"/>
       <use x="159.033203" xlink:href="#DejaVuSans-30"/>
      </g>
     </g>
    </g>
    <g id="xtick_8">
     <g id="line2d_15">
      <path clip-path="url(#p0499e4c38a)" d="M 406.719021 300.76 
L 406.719021 27.6 
" style="fill:none;stroke:#ffffff;stroke-linecap:round;"/>
     </g>
     <g id="line2d_16"/>
     <g id="text_8">
      <!-- 1.75 -->
      <g style="fill:#262626;" transform="translate(395.586208 315.358437)scale(0.1 -0.1)">
       <use xlink:href="#DejaVuSans-31"/>
       <use x="63.623047" xlink:href="#DejaVuSans-2e"/>
       <use x="95.410156" xlink:href="#DejaVuSans-37"/>
       <use x="159.033203" xlink:href="#DejaVuSans-35"/>
      </g>
     </g>
    </g>
    <g id="text_9">
     <!-- Time (seconds) -->
     <defs>
      <path d="M -0.296875 72.90625 
L 61.375 72.90625 
L 61.375 64.59375 
L 35.5 64.59375 
L 35.5 0 
L 25.59375 0 
L 25.59375 64.59375 
L -0.296875 64.59375 
z
" id="DejaVuSans-54"/>
      <path d="M 9.421875 54.6875 
L 18.40625 54.6875 
L 18.40625 0 
L 9.421875 0 
z
M 9.421875 75.984375 
L 18.40625 75.984375 
L 18.40625 64.59375 
L 9.421875 64.59375 
z
" id="DejaVuSans-69"/>
      <path d="M 52 44.1875 
Q 55.375 50.25 60.0625 53.125 
Q 64.75 56 71.09375 56 
Q 79.640625 56 84.28125 50.015625 
Q 88.921875 44.046875 88.921875 33.015625 
L 88.921875 0 
L 79.890625 0 
L 79.890625 32.71875 
Q 79.890625 40.578125 77.09375 44.375 
Q 74.3125 48.1875 68.609375 48.1875 
Q 61.625 48.1875 57.5625 43.546875 
Q 53.515625 38.921875 53.515625 30.90625 
L 53.515625 0 
L 44.484375 0 
L 44.484375 32.71875 
Q 44.484375 40.625 41.703125 44.40625 
Q 38.921875 48.1875 33.109375 48.1875 
Q 26.21875 48.1875 22.15625 43.53125 
Q 18.109375 38.875 18.109375 30.90625 
L 18.109375 0 
L 9.078125 0 
L 9.078125 54.6875 
L 18.109375 54.6875 
L 18.109375 46.1875 
Q 21.1875 51.21875 25.484375 53.609375 
Q 29.78125 56 35.6875 56 
Q 41.65625 56 45.828125 52.96875 
Q 50 49.953125 52 44.1875 
z
" id="DejaVuSans-6d"/>
      <path d="M 56.203125 29.59375 
L 56.203125 25.203125 
L 14.890625 25.203125 
Q 15.484375 15.921875 20.484375 11.0625 
Q 25.484375 6.203125 34.421875 6.203125 
Q 39.59375 6.203125 44.453125 7.46875 
Q 49.3125 8.734375 54.109375 11.28125 
L 54.109375 2.78125 
Q 49.265625 0.734375 44.1875 -0.34375 
Q 39.109375 -1.421875 33.890625 -1.421875 
Q 20.796875 -1.421875 13.15625 6.1875 
Q 5.515625 13.8125 5.515625 26.8125 
Q 5.515625 40.234375 12.765625 48.109375 
Q 20.015625 56 32.328125 56 
Q 43.359375 56 49.78125 48.890625 
Q 56.203125 41.796875 56.203125 29.59375 
z
M 47.21875 32.234375 
Q 47.125 39.59375 43.09375 43.984375 
Q 39.0625 48.390625 32.421875 48.390625 
Q 24.90625 48.390625 20.390625 44.140625 
Q 15.875 39.890625 15.1875 32.171875 
z
" id="DejaVuSans-65"/>
      <path id="DejaVuSans-20"/>
      <path d="M 31 75.875 
Q 24.46875 64.65625 21.28125 53.65625 
Q 18.109375 42.671875 18.109375 31.390625 
Q 18.109375 20.125 21.3125 9.0625 
Q 24.515625 -2 31 -13.1875 
L 23.1875 -13.1875 
Q 15.875 -1.703125 12.234375 9.375 
Q 8.59375 20.453125 8.59375 31.390625 
Q 8.59375 42.28125 12.203125 53.3125 
Q 15.828125 64.359375 23.1875 75.875 
z
" id="DejaVuSans-28"/>
      <path d="M 44.28125 53.078125 
L 44.28125 44.578125 
Q 40.484375 46.53125 36.375 47.5 
Q 32.28125 48.484375 27.875 48.484375 
Q 21.1875 48.484375 17.84375 46.4375 
Q 14.5 44.390625 14.5 40.28125 
Q 14.5 37.15625 16.890625 35.375 
Q 19.28125 33.59375 26.515625 31.984375 
L 29.59375 31.296875 
Q 39.15625 29.25 43.1875 25.515625 
Q 47.21875 21.78125 47.21875 15.09375 
Q 47.21875 7.46875 41.1875 3.015625 
Q 35.15625 -1.421875 24.609375 -1.421875 
Q 20.21875 -1.421875 15.453125 -0.5625 
Q 10.6875 0.296875 5.421875 2 
L 5.421875 11.28125 
Q 10.40625 8.6875 15.234375 7.390625 
Q 20.0625 6.109375 24.8125 6.109375 
Q 31.15625 6.109375 34.5625 8.28125 
Q 37.984375 10.453125 37.984375 14.40625 
Q 37.984375 18.0625 35.515625 20.015625 
Q 33.0625 21.96875 24.703125 23.78125 
L 21.578125 24.515625 
Q 13.234375 26.265625 9.515625 29.90625 
Q 5.8125 33.546875 5.8125 39.890625 
Q 5.8125 47.609375 11.28125 51.796875 
Q 16.75 56 26.8125 56 
Q 31.78125 56 36.171875 55.265625 
Q 40.578125 54.546875 44.28125 53.078125 
z
" id="DejaVuSans-73"/>
      <path d="M 48.78125 52.59375 
L 48.78125 44.1875 
Q 44.96875 46.296875 41.140625 47.34375 
Q 37.3125 48.390625 33.40625 48.390625 
Q 24.65625 48.390625 19.8125 42.84375 
Q 14.984375 37.3125 14.984375 27.296875 
Q 14.984375 17.28125 19.8125 11.734375 
Q 24.65625 6.203125 33.40625 6.203125 
Q 37.3125 6.203125 41.140625 7.25 
Q 44.96875 8.296875 48.78125 10.40625 
L 48.78125 2.09375 
Q 45.015625 0.34375 40.984375 -0.53125 
Q 36.96875 -1.421875 32.421875 -1.421875 
Q 20.0625 -1.421875 12.78125 6.34375 
Q 5.515625 14.109375 5.515625 27.296875 
Q 5.515625 40.671875 12.859375 48.328125 
Q 20.21875 56 33.015625 56 
Q 37.15625 56 41.109375 55.140625 
Q 45.0625 54.296875 48.78125 52.59375 
z
" id="DejaVuSans-63"/>
      <path d="M 30.609375 48.390625 
Q 23.390625 48.390625 19.1875 42.75 
Q 14.984375 37.109375 14.984375 27.296875 
Q 14.984375 17.484375 19.15625 11.84375 
Q 23.34375 6.203125 30.609375 6.203125 
Q 37.796875 6.203125 41.984375 11.859375 
Q 46.1875 17.53125 46.1875 27.296875 
Q 46.1875 37.015625 41.984375 42.703125 
Q 37.796875 48.390625 30.609375 48.390625 
z
M 30.609375 56 
Q 42.328125 56 49.015625 48.375 
Q 55.71875 40.765625 55.71875 27.296875 
Q 55.71875 13.875 49.015625 6.21875 
Q 42.328125 -1.421875 30.609375 -1.421875 
Q 18.84375 -1.421875 12.171875 6.21875 
Q 5.515625 13.875 5.515625 27.296875 
Q 5.515625 40.765625 12.171875 48.375 
Q 18.84375 56 30.609375 56 
z
" id="DejaVuSans-6f"/>
      <path d="M 54.890625 33.015625 
L 54.890625 0 
L 45.90625 0 
L 45.90625 32.71875 
Q 45.90625 40.484375 42.875 44.328125 
Q 39.84375 48.1875 33.796875 48.1875 
Q 26.515625 48.1875 22.3125 43.546875 
Q 18.109375 38.921875 18.109375 30.90625 
L 18.109375 0 
L 9.078125 0 
L 9.078125 54.6875 
L 18.109375 54.6875 
L 18.109375 46.1875 
Q 21.34375 51.125 25.703125 53.5625 
Q 30.078125 56 35.796875 56 
Q 45.21875 56 50.046875 50.171875 
Q 54.890625 44.34375 54.890625 33.015625 
z
" id="DejaVuSans-6e"/>
      <path d="M 45.40625 46.390625 
L 45.40625 75.984375 
L 54.390625 75.984375 
L 54.390625 0 
L 45.40625 0 
L 45.40625 8.203125 
Q 42.578125 3.328125 38.25 0.953125 
Q 33.9375 -1.421875 27.875 -1.421875 
Q 17.96875 -1.421875 11.734375 6.484375 
Q 5.515625 14.40625 5.515625 27.296875 
Q 5.515625 40.1875 11.734375 48.09375 
Q 17.96875 56 27.875 56 
Q 33.9375 56 38.25 53.625 
Q 42.578125 51.265625 45.40625 46.390625 
z
M 14.796875 27.296875 
Q 14.796875 17.390625 18.875 11.75 
Q 22.953125 6.109375 30.078125 6.109375 
Q 37.203125 6.109375 41.296875 11.75 
Q 45.40625 17.390625 45.40625 27.296875 
Q 45.40625 37.203125 41.296875 42.84375 
Q 37.203125 48.484375 30.078125 48.484375 
Q 22.953125 48.484375 18.875 42.84375 
Q 14.796875 37.203125 14.796875 27.296875 
z
" id="DejaVuSans-64"/>
      <path d="M 8.015625 75.875 
L 15.828125 75.875 
Q 23.140625 64.359375 26.78125 53.3125 
Q 30.421875 42.28125 30.421875 31.390625 
Q 30.421875 20.453125 26.78125 9.375 
Q 23.140625 -1.703125 15.828125 -13.1875 
L 8.015625 -13.1875 
Q 14.5 -2 17.703125 9.0625 
Q 20.90625 20.125 20.90625 31.390625 
Q 20.90625 42.671875 17.703125 53.65625 
Q 14.5 64.65625 8.015625 75.875 
z
" id="DejaVuSans-29"/>
     </defs>
     <g style="fill:#262626;" transform="translate(209.682813 329.796406)scale(0.11 -0.11)">
      <use xlink:href="#DejaVuSans-54"/>
      <use x="61.037109" xlink:href="#DejaVuSans-69"/>
      <use x="88.820312" xlink:href="#DejaVuSans-6d"/>
      <use x="186.232422" xlink:href="#DejaVuSans-65"/>
      <use x="247.755859" xlink:href="#DejaVuSans-20"/>
      <use x="279.542969" xlink:href="#DejaVuSans-28"/>
      <use x="318.556641" xlink:href="#DejaVuSans-73"/>
      <use x="370.65625" xlink:href="#DejaVuSans-65"/>
      <use x="432.179688" xlink:href="#DejaVuSans-63"/>
      <use x="487.160156" xlink:href="#DejaVuSans-6f"/>
      <use x="548.341797" xlink:href="#DejaVuSans-6e"/>
      <use x="611.720703" xlink:href="#DejaVuSans-64"/>
      <use x="675.197266" xlink:href="#DejaVuSans-73"/>
      <use x="727.296875" xlink:href="#DejaVuSans-29"/>
     </g>
    </g>
   </g>
   <g id="matplotlib.axis_2">
    <g id="ytick_1">
     <g id="line2d_17">
      <path clip-path="url(#p0499e4c38a)" d="M 55.82 267.788382 
L 447.84 267.788382 
" style="fill:none;stroke:#ffffff;stroke-linecap:round;"/>
     </g>
     <g id="line2d_18"/>
     <g id="text_10">
      <!-- −20 -->
      <defs>
       <path d="M 10.59375 35.5 
L 73.1875 35.5 
L 73.1875 27.203125 
L 10.59375 27.203125 
z
" id="DejaVuSans-2212"/>
      </defs>
      <g style="fill:#262626;" transform="translate(27.715313 271.587601)scale(0.1 -0.1)">
       <use xlink:href="#DejaVuSans-2212"/>
       <use x="83.789062" xlink:href="#DejaVuSans-32"/>
       <use x="147.412109" xlink:href="#DejaVuSans-30"/>
      </g>
     </g>
    </g>
    <g id="ytick_2">
     <g id="line2d_19">
      <path clip-path="url(#p0499e4c38a)" d="M 55.82 225.770966 
L 447.84 225.770966 
" style="fill:none;stroke:#ffffff;stroke-linecap:round;"/>
     </g>
     <g id="line2d_20"/>
     <g id="text_11">
      <!-- −10 -->
      <g style="fill:#262626;" transform="translate(27.715313 229.570185)scale(0.1 -0.1)">
       <use xlink:href="#DejaVuSans-2212"/>
       <use x="83.789062" xlink:href="#DejaVuSans-31"/>
       <use x="147.412109" xlink:href="#DejaVuSans-30"/>
      </g>
     </g>
    </g>
    <g id="ytick_3">
     <g id="line2d_21">
      <path clip-path="url(#p0499e4c38a)" d="M 55.82 183.75355 
L 447.84 183.75355 
" style="fill:none;stroke:#ffffff;stroke-linecap:round;"/>
     </g>
     <g id="line2d_22"/>
     <g id="text_12">
      <!-- 0 -->
      <g style="fill:#262626;" transform="translate(42.4575 187.552769)scale(0.1 -0.1)">
       <use xlink:href="#DejaVuSans-30"/>
      </g>
     </g>
    </g>
    <g id="ytick_4">
     <g id="line2d_23">
      <path clip-path="url(#p0499e4c38a)" d="M 55.82 141.736135 
L 447.84 141.736135 
" style="fill:none;stroke:#ffffff;stroke-linecap:round;"/>
     </g>
     <g id="line2d_24"/>
     <g id="text_13">
      <!-- 10 -->
      <g style="fill:#262626;" transform="translate(36.095 145.535353)scale(0.1 -0.1)">
       <use xlink:href="#DejaVuSans-31"/>
       <use x="63.623047" xlink:href="#DejaVuSans-30"/>
      </g>
     </g>
    </g>
    <g id="ytick_5">
     <g id="line2d_25">
      <path clip-path="url(#p0499e4c38a)" d="M 55.82 99.718719 
L 447.84 99.718719 
" style="fill:none;stroke:#ffffff;stroke-linecap:round;"/>
     </g>
     <g id="line2d_26"/>
     <g id="text_14">
      <!-- 20 -->
      <g style="fill:#262626;" transform="translate(36.095 103.517938)scale(0.1 -0.1)">
       <use xlink:href="#DejaVuSans-32"/>
       <use x="63.623047" xlink:href="#DejaVuSans-30"/>
      </g>
     </g>
    </g>
    <g id="ytick_6">
     <g id="line2d_27">
      <path clip-path="url(#p0499e4c38a)" d="M 55.82 57.701303 
L 447.84 57.701303 
" style="fill:none;stroke:#ffffff;stroke-linecap:round;"/>
     </g>
     <g id="line2d_28"/>
     <g id="text_15">
      <!-- 30 -->
      <defs>
       <path d="M 40.578125 39.3125 
Q 47.65625 37.796875 51.625 33 
Q 55.609375 28.21875 55.609375 21.1875 
Q 55.609375 10.40625 48.1875 4.484375 
Q 40.765625 -1.421875 27.09375 -1.421875 
Q 22.515625 -1.421875 17.65625 -0.515625 
Q 12.796875 0.390625 7.625 2.203125 
L 7.625 11.71875 
Q 11.71875 9.328125 16.59375 8.109375 
Q 21.484375 6.890625 26.8125 6.890625 
Q 36.078125 6.890625 40.9375 10.546875 
Q 45.796875 14.203125 45.796875 21.1875 
Q 45.796875 27.640625 41.28125 31.265625 
Q 36.765625 34.90625 28.71875 34.90625 
L 20.21875 34.90625 
L 20.21875 43.015625 
L 29.109375 43.015625 
Q 36.375 43.015625 40.234375 45.921875 
Q 44.09375 48.828125 44.09375 54.296875 
Q 44.09375 59.90625 40.109375 62.90625 
Q 36.140625 65.921875 28.71875 65.921875 
Q 24.65625 65.921875 20.015625 65.03125 
Q 15.375 64.15625 9.8125 62.3125 
L 9.8125 71.09375 
Q 15.4375 72.65625 20.34375 73.4375 
Q 25.25 74.21875 29.59375 74.21875 
Q 40.828125 74.21875 47.359375 69.109375 
Q 53.90625 64.015625 53.90625 55.328125 
Q 53.90625 49.265625 50.4375 45.09375 
Q 46.96875 40.921875 40.578125 39.3125 
z
" id="DejaVuSans-33"/>
      </defs>
      <g style="fill:#262626;" transform="translate(36.095 61.500522)scale(0.1 -0.1)">
       <use xlink:href="#DejaVuSans-33"/>
       <use x="63.623047" xlink:href="#DejaVuSans-30"/>
      </g>
     </g>
    </g>
    <g id="text_16">
     <!-- Tilt (degrees) -->
     <defs>
      <path d="M 9.421875 75.984375 
L 18.40625 75.984375 
L 18.40625 0 
L 9.421875 0 
z
" id="DejaVuSans-6c"/>
      <path d="M 18.3125 70.21875 
L 18.3125 54.6875 
L 36.8125 54.6875 
L 36.8125 47.703125 
L 18.3125 47.703125 
L 18.3125 18.015625 
Q 18.3125 11.328125 20.140625 9.421875 
Q 21.96875 7.515625 27.59375 7.515625 
L 36.8125 7.515625 
L 36.8125 0 
L 27.59375 0 
Q 17.1875 0 13.234375 3.875 
Q 9.28125 7.765625 9.28125 18.015625 
L 9.28125 47.703125 
L 2.6875 47.703125 
L 2.6875 54.6875 
L 9.28125 54.6875 
L 9.28125 70.21875 
z
" id="DejaVuSans-74"/>
      <path d="M 45.40625 27.984375 
Q 45.40625 37.75 41.375 43.109375 
Q 37.359375 48.484375 30.078125 48.484375 
Q 22.859375 48.484375 18.828125 43.109375 
Q 14.796875 37.75 14.796875 27.984375 
Q 14.796875 18.265625 18.828125 12.890625 
Q 22.859375 7.515625 30.078125 7.515625 
Q 37.359375 7.515625 41.375 12.890625 
Q 45.40625 18.265625 45.40625 27.984375 
z
M 54.390625 6.78125 
Q 54.390625 -7.171875 48.1875 -13.984375 
Q 42 -20.796875 29.203125 -20.796875 
Q 24.46875 -20.796875 20.265625 -20.09375 
Q 16.0625 -19.390625 12.109375 -17.921875 
L 12.109375 -9.1875 
Q 16.0625 -11.328125 19.921875 -12.34375 
Q 23.78125 -13.375 27.78125 -13.375 
Q 36.625 -13.375 41.015625 -8.765625 
Q 45.40625 -4.15625 45.40625 5.171875 
L 45.40625 9.625 
Q 42.625 4.78125 38.28125 2.390625 
Q 33.9375 0 27.875 0 
Q 17.828125 0 11.671875 7.65625 
Q 5.515625 15.328125 5.515625 27.984375 
Q 5.515625 40.671875 11.671875 48.328125 
Q 17.828125 56 27.875 56 
Q 33.9375 56 38.28125 53.609375 
Q 42.625 51.21875 45.40625 46.390625 
L 45.40625 54.6875 
L 54.390625 54.6875 
z
" id="DejaVuSans-67"/>
      <path d="M 41.109375 46.296875 
Q 39.59375 47.171875 37.8125 47.578125 
Q 36.03125 48 33.890625 48 
Q 26.265625 48 22.1875 43.046875 
Q 18.109375 38.09375 18.109375 28.8125 
L 18.109375 0 
L 9.078125 0 
L 9.078125 54.6875 
L 18.109375 54.6875 
L 18.109375 46.1875 
Q 20.953125 51.171875 25.484375 53.578125 
Q 30.03125 56 36.53125 56 
Q 37.453125 56 38.578125 55.875 
Q 39.703125 55.765625 41.0625 55.515625 
z
" id="DejaVuSans-72"/>
     </defs>
     <g style="fill:#262626;" transform="translate(21.427656 201.048906)rotate(-90)scale(0.11 -0.11)">
      <use xlink:href="#DejaVuSans-54"/>
      <use x="61.037109" xlink:href="#DejaVuSans-69"/>
      <use x="88.820312" xlink:href="#DejaVuSans-6c"/>
      <use x="116.603516" xlink:href="#DejaVuSans-74"/>
      <use x="155.8125" xlink:href="#DejaVuSans-20"/>
      <use x="187.599609" xlink:href="#DejaVuSans-28"/>
      <use x="226.613281" xlink:href="#DejaVuSans-64"/>
      <use x="290.089844" xlink:href="#DejaVuSans-65"/>
      <use x="351.613281" xlink:href="#DejaVuSans-67"/>
      <use x="415.089844" xlink:href="#DejaVuSans-72"/>
      <use x="456.171875" xlink:href="#DejaVuSans-65"/>
      <use x="517.695312" xlink:href="#DejaVuSans-65"/>
      <use x="579.21875" xlink:href="#DejaVuSans-73"/>
      <use x="631.318359" xlink:href="#DejaVuSans-29"/>
     </g>
    </g>
   </g>
   <g id="line2d_29">
    <path clip-path="url(#p0499e4c38a)" d="M 55.82 189.429775 
L 56.211628 191.196809 
L 56.603257 192.06052 
L 56.994885 185.078375 
L 57.386513 185.655107 
L 57.778142 188.448834 
L 58.16977 188.75206 
L 58.953027 177.560975 
L 59.344655 180.521031 
L 59.736284 176.945582 
L 60.127912 167.000528 
L 60.51954 161.985957 
L 61.694426 133.293332 
L 62.086054 118.845918 
L 62.477682 110.143405 
L 62.869311 106.388589 
L 63.260939 104.078433 
L 64.044196 93.386808 
L 64.435824 91.09863 
L 64.827453 101.419393 
L 65.219081 152.411526 
L 65.610709 178.980254 
L 66.002338 176.244732 
L 66.785594 167.139701 
L 67.568851 162.994817 
L 67.96048 155.56055 
L 68.352108 144.763232 
L 69.918621 89.932363 
L 70.31025 81.551755 
L 70.701878 77.931808 
L 71.093506 66.893706 
L 71.485135 64.160517 
L 71.876763 65.993896 
L 72.268392 57.910816 
L 72.66002 56.552667 
L 73.051648 60.947098 
L 73.443277 63.997977 
L 73.834905 68.877928 
L 74.226533 76.78948 
L 74.618162 71.879452 
L 75.401419 92.060913 
L 75.793047 91.925986 
L 76.576304 102.155812 
L 76.967932 118.031212 
L 77.35956 116.540392 
L 77.751189 110.118631 
L 78.142817 107.055295 
L 78.534446 112.924343 
L 78.926074 127.631973 
L 79.317702 113.20055 
L 79.709331 107.123712 
L 80.100959 107.850322 
L 80.492587 126.784182 
L 81.275844 145.67458 
L 81.667473 151.404256 
L 82.059101 144.556297 
L 82.450729 140.449473 
L 82.842358 140.560905 
L 83.233986 158.274178 
L 83.625614 156.597993 
L 84.017243 169.155451 
L 84.408871 175.725662 
L 84.8005 155.891991 
L 85.192128 172.664604 
L 85.975385 155.932567 
L 86.367013 174.982253 
L 86.758641 177.54187 
L 87.15027 232.195579 
L 87.541898 239.897301 
L 87.933526 152.196842 
L 88.325155 137.918588 
L 88.716783 143.983758 
L 89.50004 171.270914 
L 89.891668 177.663541 
L 90.283297 188.825785 
L 90.674925 189.240641 
L 91.066553 177.492885 
L 91.458182 181.761797 
L 91.84981 179.84393 
L 92.241439 174.19143 
L 92.633067 180.002543 
L 93.024695 179.109989 
L 93.416324 172.733473 
L 93.807952 178.564227 
L 94.19958 181.055043 
L 95.374466 190.899155 
L 95.766094 197.107583 
L 96.157722 186.998997 
L 96.549351 202.217519 
L 96.940979 206.437898 
L 97.332607 201.643812 
L 97.724236 194.861557 
L 98.507493 198.940162 
L 98.899121 196.433431 
L 99.290749 184.052609 
L 99.682378 188.312764 
L 100.074006 180.316465 
L 100.857263 193.982382 
L 101.248891 193.107713 
L 101.640519 197.245361 
L 102.032148 193.968998 
L 102.815405 180.646037 
L 103.207033 186.864186 
L 103.598661 197.362052 
L 104.381918 193.140942 
L 104.773546 194.716662 
L 105.165175 191.934266 
L 105.556803 190.158932 
L 105.948432 187.104421 
L 106.34006 186.387934 
L 106.731688 190.864877 
L 107.123317 183.3542 
L 107.514945 184.137713 
L 107.906573 185.480337 
L 108.298202 189.406448 
L 108.68983 181.068307 
L 109.473087 202.301521 
L 109.864715 199.166297 
L 110.647972 216.019966 
L 111.0396 211.680852 
L 111.431229 222.363578 
L 111.822857 227.579234 
L 112.214486 231.262816 
L 112.606114 237.06128 
L 112.997742 233.58772 
L 113.389371 240.276805 
L 114.172627 248.1476 
L 114.564256 237.998537 
L 114.955884 252.735568 
L 115.347512 257.546021 
L 115.739141 253.971261 
L 116.130769 248.351717 
L 116.522398 248.685319 
L 116.914026 251.470663 
L 117.305654 260.666883 
L 118.088911 266.557144 
L 118.480539 267.940789 
L 118.872168 276.918847 
L 119.263796 281.60442 
L 119.655425 281.463659 
L 120.047053 238.033628 
L 120.438681 166.880465 
L 121.221938 172.386846 
L 121.613566 173.160509 
L 122.005195 175.619604 
L 122.396823 178.996916 
L 124.354965 240.374371 
L 124.746593 249.286803 
L 125.921479 281.720316 
L 126.313107 283.331936 
L 126.704735 282.393447 
L 127.096364 281.152848 
L 127.487992 280.938019 
L 127.87962 282.565829 
L 128.271249 272.135681 
L 129.054505 295.373031 
L 129.446134 297.484749 
L 129.837762 300.76 
L 130.229391 294.245321 
L 130.621019 280.036433 
L 131.012647 277.218473 
L 131.404276 272.632604 
L 131.795904 272.204534 
L 132.187532 270.175209 
L 132.579161 261.139556 
L 132.970789 268.140667 
L 133.362418 263.678465 
L 133.754046 245.557694 
L 134.145674 281.544553 
L 134.537303 275.86124 
L 134.928931 273.833508 
L 135.320559 271.025443 
L 135.712188 260.002885 
L 136.103816 252.239904 
L 136.495445 239.764834 
L 136.887073 242.257308 
L 137.278701 224.008547 
L 137.67033 250.717459 
L 138.061958 247.118791 
L 138.453586 254.631291 
L 138.845215 244.033759 
L 140.0201 188.405867 
L 140.411728 215.371719 
L 140.803357 179.824157 
L 141.194985 187.234707 
L 141.586613 180.851727 
L 141.978242 218.534723 
L 142.36987 193.508872 
L 142.761499 205.227328 
L 143.153127 188.32944 
L 143.544755 154.71436 
L 143.936384 215.768614 
L 144.71964 175.051452 
L 145.111269 182.962348 
L 145.502897 204.112958 
L 145.894525 197.511414 
L 146.286154 179.736241 
L 146.677782 181.436319 
L 147.069411 176.327947 
L 147.461039 189.203861 
L 147.852667 193.249909 
L 148.635924 206.069322 
L 149.027552 206.61242 
L 149.419181 190.637108 
L 149.810809 179.803266 
L 150.202438 178.43415 
L 150.594066 180.634645 
L 150.985694 164.050041 
L 151.377323 141.890666 
L 151.768951 139.33377 
L 152.160579 135.530339 
L 152.552208 133.446038 
L 152.943836 135.252378 
L 153.335465 116.557992 
L 153.727093 127.946776 
L 154.118721 117.404349 
L 154.51035 120.241886 
L 154.901978 90.767014 
L 155.293606 87.840162 
L 155.685235 78.306961 
L 156.076863 92.283453 
L 156.86012 33.866062 
L 157.251748 27.6 
L 157.643377 53.37351 
L 158.035005 92.469425 
L 158.426633 80.011521 
L 158.818262 62.514857 
L 159.20989 81.292925 
L 159.601518 80.249789 
L 159.993147 81.843738 
L 160.384775 97.979573 
L 160.776404 80.303581 
L 161.55966 90.087494 
L 161.951289 94.315705 
L 162.342917 83.674213 
L 162.734545 112.103438 
L 163.126174 122.661188 
L 163.517802 129.009785 
L 163.909431 130.215134 
L 164.301059 121.284497 
L 164.692687 107.380191 
L 165.084316 106.812961 
L 165.475944 106.027761 
L 165.867572 101.67623 
L 166.259201 99.907119 
L 166.650829 97.266668 
L 167.042458 108.385763 
L 167.434086 106.67378 
L 167.825714 98.440561 
L 168.217343 104.466737 
L 168.608971 99.248003 
L 169.000599 99.266119 
L 169.392228 100.405834 
L 169.783856 93.586706 
L 170.175485 96.036394 
L 170.567113 89.988406 
L 170.958741 88.207587 
L 171.35037 91.196862 
L 171.741998 88.18585 
L 172.133626 82.842446 
L 172.916883 78.562618 
L 173.308511 79.474059 
L 174.483397 166.650211 
L 174.875025 169.417505 
L 175.266653 161.594974 
L 175.658282 150.333539 
L 176.441538 118.814712 
L 176.833167 108.022444 
L 177.224795 100.397337 
L 177.616424 89.190225 
L 178.008052 84.531686 
L 178.39968 78.536665 
L 178.791309 79.770857 
L 179.182937 73.390595 
L 179.574565 71.1566 
L 179.966194 73.700699 
L 180.357822 71.796606 
L 180.749451 67.19762 
L 181.141079 75.09842 
L 181.532707 68.903171 
L 182.707592 79.439429 
L 183.099221 76.098187 
L 183.490849 75.550214 
L 183.882478 77.962761 
L 184.274106 72.602997 
L 184.665734 73.705169 
L 185.057363 73.983752 
L 185.448991 86.91981 
L 185.840619 93.040887 
L 186.232248 104.614608 
L 186.623876 106.217238 
L 187.015504 126.738168 
L 187.407133 120.776869 
L 187.798761 134.429539 
L 188.19039 134.780091 
L 188.582018 124.021403 
L 188.973646 119.315753 
L 189.365275 123.194618 
L 189.756903 135.671606 
L 190.148531 136.687644 
L 190.54016 148.272936 
L 190.931788 145.450581 
L 191.323417 161.718515 
L 191.715045 138.780938 
L 192.106673 137.713683 
L 192.498302 143.311886 
L 192.88993 152.930444 
L 193.281558 157.462238 
L 193.673187 151.438348 
L 194.064815 166.147784 
L 194.456444 173.455701 
L 194.848072 164.443683 
L 195.2397 170.314476 
L 195.631329 163.026766 
L 196.022957 178.91683 
L 196.414585 166.904973 
L 196.806214 170.488194 
L 197.197842 164.066731 
L 197.589471 165.285338 
L 197.981099 173.402652 
L 198.372727 158.498316 
L 198.764356 168.36801 
L 199.155984 160.799165 
L 199.939241 159.052895 
L 200.722498 166.677561 
L 201.114126 173.023643 
L 201.897383 199.269766 
L 202.289011 198.116809 
L 202.680639 196.097623 
L 203.072268 170.116354 
L 203.463896 177.672939 
L 203.855524 191.562085 
L 204.247153 168.197474 
L 204.638781 164.560941 
L 205.422038 178.862335 
L 205.813666 188.764271 
L 206.596923 183.381461 
L 206.988551 187.937742 
L 207.38018 258.23915 
L 207.771808 192.775505 
L 208.163437 207.179845 
L 208.555065 202.479328 
L 208.946693 205.873116 
L 209.338322 235.460707 
L 209.72995 232.262728 
L 210.121578 119.380507 
L 210.513207 111.643603 
L 210.904835 137.247034 
L 211.296464 146.381197 
L 212.862977 203.204912 
L 213.254605 199.125983 
L 213.646234 209.510631 
L 214.037862 207.252596 
L 214.429491 204.298361 
L 214.821119 203.36885 
L 215.212747 198.121211 
L 215.604376 206.406448 
L 215.996004 205.035998 
L 216.387632 206.807815 
L 216.779261 215.622781 
L 217.170889 215.35315 
L 217.562517 229.371147 
L 217.954146 230.419692 
L 218.345774 221.363636 
L 218.737403 218.366478 
L 219.129031 210.220544 
L 219.520659 209.548692 
L 219.912288 209.639735 
L 220.303916 216.301537 
L 220.695544 230.835743 
L 221.087173 219.858404 
L 221.478801 219.697245 
L 221.87043 217.788837 
L 222.262058 220.816575 
L 222.653686 222.426845 
L 223.045315 227.22842 
L 223.828571 209.994718 
L 224.2202 212.77102 
L 224.611828 219.394897 
L 225.003457 219.108816 
L 225.395085 222.440411 
L 226.178342 209.300255 
L 226.56997 209.476131 
L 226.961598 211.092374 
L 227.353227 220.756524 
L 227.744855 215.487352 
L 228.136484 218.128275 
L 228.528112 231.039028 
L 228.91974 234.380445 
L 229.311369 228.325169 
L 229.702997 238.95588 
L 230.486254 222.83175 
L 230.877882 220.610777 
L 231.26951 215.923988 
L 231.661139 205.236749 
L 232.052767 208.334746 
L 232.444396 208.489484 
L 232.836024 207.306156 
L 233.227652 201.242857 
L 233.619281 201.656139 
L 234.010909 206.541301 
L 234.794166 209.349255 
L 235.185794 209.922086 
L 235.577423 210.857709 
L 235.969051 214.682897 
L 236.360679 225.418531 
L 237.143936 224.396412 
L 237.535564 226.995611 
L 237.927193 225.500051 
L 238.318821 222.877553 
L 238.71045 215.204665 
L 239.102078 183.063567 
L 239.493706 171.5131 
L 239.885335 171.486586 
L 240.276963 172.034679 
L 241.06022 171.815219 
L 241.843477 172.331485 
L 242.235105 171.799854 
L 242.626733 172.348947 
L 243.018362 171.704304 
L 243.40999 172.168151 
L 243.801618 173.039836 
L 244.584875 179.634912 
L 245.368132 190.350204 
L 246.151389 207.554082 
L 246.543017 217.834227 
L 247.326274 228.860726 
L 247.717902 227.484064 
L 248.10953 227.107748 
L 248.501159 228.153054 
L 248.892787 226.266336 
L 249.284416 225.061736 
L 249.676044 230.107621 
L 250.067672 225.833453 
L 250.459301 231.930329 
L 251.242557 228.527583 
L 251.634186 230.067217 
L 252.025814 229.430638 
L 252.417443 235.208997 
L 252.809071 238.904074 
L 253.200699 235.888691 
L 253.592328 242.431993 
L 253.983956 241.659152 
L 254.375584 240.423333 
L 254.767213 241.372005 
L 255.158841 242.957777 
L 255.55047 240.937522 
L 255.942098 244.342409 
L 256.333726 236.783174 
L 256.725355 224.836707 
L 257.116983 219.54742 
L 257.508611 226.615199 
L 257.90024 224.736361 
L 258.291868 213.405862 
L 258.683497 222.21138 
L 259.466753 207.365533 
L 259.858382 190.423009 
L 260.641638 226.079715 
L 261.033267 214.298149 
L 261.424895 228.123726 
L 261.816523 219.070898 
L 262.59978 210.108631 
L 262.991409 217.980483 
L 263.774665 197.020628 
L 264.166294 198.635899 
L 264.557922 201.087251 
L 264.94955 205.859702 
L 265.341179 198.407364 
L 265.732807 183.121019 
L 266.124436 178.428835 
L 266.516064 175.137467 
L 266.907692 170.830213 
L 267.299321 191.617704 
L 267.690949 198.892086 
L 268.082577 202.485377 
L 268.474206 182.019841 
L 268.865834 146.615492 
L 269.257463 166.801293 
L 269.649091 199.8648 
L 270.040719 174.482288 
L 270.432348 181.985346 
L 270.823976 201.421563 
L 271.215604 186.978428 
L 271.607233 190.228298 
L 271.998861 168.794949 
L 272.39049 186.421108 
L 272.782118 253.287592 
L 273.173746 229.918746 
L 273.565375 230.5549 
L 274.348631 194.122387 
L 274.74026 201.542189 
L 275.131888 194.819884 
L 275.523516 190.894611 
L 275.915145 192.725996 
L 276.306773 202.434027 
L 276.698402 193.124206 
L 277.09003 212.733173 
L 278.264915 189.436331 
L 278.656543 184.793466 
L 279.048172 188.430593 
L 279.831429 174.806766 
L 280.223057 169.433159 
L 280.614685 157.828069 
L 281.006314 160.88543 
L 281.397942 159.200451 
L 281.78957 152.692792 
L 282.181199 148.860785 
L 282.572827 148.244076 
L 282.964456 149.365632 
L 283.747712 136.354789 
L 284.139341 132.631149 
L 284.530969 142.386955 
L 284.922597 139.547123 
L 285.314226 134.352713 
L 285.705854 141.601231 
L 286.097483 143.146055 
L 286.489111 138.707546 
L 286.880739 131.365065 
L 287.272368 134.341311 
L 287.663996 129.117156 
L 288.055624 127.3769 
L 288.447253 113.238207 
L 288.838881 125.620084 
L 289.230509 126.790559 
L 289.622138 123.6981 
L 290.013766 132.228002 
L 290.405395 136.554046 
L 290.797023 138.672989 
L 291.188651 162.033734 
L 291.58028 157.466687 
L 291.971908 158.653975 
L 292.363536 170.375066 
L 292.755165 166.089028 
L 293.146793 169.152602 
L 293.538422 165.734742 
L 293.93005 156.981492 
L 294.321678 160.857111 
L 294.713307 162.345947 
L 295.104935 179.014095 
L 295.496563 171.030941 
L 295.888192 169.832395 
L 296.27982 163.259187 
L 296.671449 151.583539 
L 297.454705 179.085657 
L 297.846334 182.250974 
L 298.237962 178.549466 
L 298.62959 159.882622 
L 299.021219 170.725282 
L 299.412847 172.386895 
L 299.804476 153.966651 
L 300.196104 148.013232 
L 300.587732 135.381032 
L 300.979361 155.033594 
L 301.370989 167.100874 
L 301.762617 166.273594 
L 302.154246 150.432098 
L 302.545874 154.742205 
L 302.937502 146.329713 
L 303.329131 144.496952 
L 303.720759 144.278951 
L 304.112388 142.988368 
L 304.504016 143.790953 
L 304.895644 131.000521 
L 305.287273 125.168529 
L 305.678901 115.156935 
L 306.070529 112.589586 
L 306.462158 129.547941 
L 306.853786 133.109211 
L 307.245415 121.553186 
L 307.637043 117.459677 
L 308.028671 114.637356 
L 308.4203 116.409023 
L 308.811928 115.560986 
L 309.203556 107.456881 
L 309.595185 113.161619 
L 309.986813 114.68678 
L 310.378442 104.638204 
L 311.553327 113.29311 
L 311.944955 111.804864 
L 312.336583 112.343994 
L 312.728212 113.174336 
L 313.11984 115.399069 
L 313.511469 109.105662 
L 313.903097 115.824397 
L 314.294725 112.780208 
L 314.686354 110.872863 
L 315.077982 104.933466 
L 315.46961 104.641824 
L 315.861239 101.667406 
L 316.644496 108.549123 
L 317.036124 104.305101 
L 317.427752 105.205509 
L 317.819381 107.55688 
L 318.211009 113.646386 
L 318.994266 175.205143 
L 319.385894 175.556106 
L 319.777522 172.167274 
L 320.169151 171.35841 
L 320.560779 171.151154 
L 321.344036 167.927961 
L 321.735664 163.015091 
L 322.518921 145.319882 
L 322.910549 136.464643 
L 323.302178 130.510267 
L 323.693806 121.833275 
L 324.085435 120.019871 
L 324.477063 114.218503 
L 324.868691 111.950242 
L 325.651948 98.860021 
L 326.043576 97.368512 
L 326.435205 98.835222 
L 326.826833 94.937751 
L 327.61009 102.210211 
L 328.001718 100.815299 
L 328.393347 107.434389 
L 328.784975 96.96277 
L 329.176603 93.893896 
L 329.568232 95.98761 
L 329.95986 85.53994 
L 330.351489 91.208042 
L 330.743117 94.28465 
L 331.134745 79.343266 
L 331.526374 88.637759 
L 331.918002 91.509671 
L 332.30963 95.261248 
L 332.701259 103.886931 
L 333.092887 118.929872 
L 333.484515 117.531544 
L 333.876144 110.143691 
L 334.267772 109.59229 
L 334.659401 108.306385 
L 335.442657 122.149163 
L 335.834286 132.863193 
L 336.225914 131.898339 
L 337.009171 151.75362 
L 337.400799 126.736208 
L 337.792428 119.43552 
L 338.184056 126.856389 
L 338.575684 154.906532 
L 338.967313 145.776296 
L 339.358941 146.85837 
L 339.750569 159.154619 
L 340.142198 163.764531 
L 340.533826 166.65574 
L 340.925455 148.483476 
L 341.317083 150.249668 
L 341.708711 162.463896 
L 342.10034 183.816293 
L 342.491968 157.940377 
L 342.883596 162.074179 
L 343.275225 169.482926 
L 343.666853 166.647514 
L 344.058482 156.240276 
L 344.45011 163.837922 
L 345.233367 145.13912 
L 345.624995 125.045868 
L 346.016623 131.695302 
L 346.408252 121.924622 
L 346.79988 137.178693 
L 347.191508 137.688879 
L 347.583137 135.0924 
L 347.974765 136.569889 
L 348.366394 133.486427 
L 348.758022 138.375397 
L 349.541279 128.626374 
L 349.932907 133.794296 
L 350.324535 122.656067 
L 350.716164 131.869747 
L 351.107792 135.062865 
L 351.499421 137.17089 
L 351.891049 151.735695 
L 352.282677 162.131541 
L 352.674306 152.106097 
L 353.065934 157.061056 
L 353.457562 170.558159 
L 353.849191 174.716148 
L 354.240819 157.885881 
L 354.632448 168.39819 
L 355.024076 175.594838 
L 355.415704 180.39145 
L 355.807333 191.012863 
L 356.590589 198.811414 
L 356.982218 210.112955 
L 357.373846 193.631841 
L 357.765475 183.500869 
L 358.548731 145.604517 
L 358.94036 163.282638 
L 359.331988 188.213553 
L 359.723616 176.028508 
L 360.115245 186.587763 
L 360.506873 181.457802 
L 360.898501 181.666847 
L 361.29013 191.171334 
L 361.681758 193.056278 
L 362.073387 190.034677 
L 362.465015 193.351061 
L 362.856643 201.18714 
L 363.6399 185.643358 
L 364.031528 184.132175 
L 364.423157 167.749592 
L 364.814785 168.963035 
L 365.206414 172.4109 
L 365.598042 191.703687 
L 365.98967 195.358489 
L 366.381299 193.976687 
L 366.772927 204.697322 
L 367.164555 203.92466 
L 367.556184 207.139207 
L 367.947812 207.076104 
L 368.339441 202.82113 
L 368.731069 208.559118 
L 369.122697 204.698076 
L 369.514326 211.157162 
L 369.905954 207.207413 
L 370.689211 228.008651 
L 371.080839 227.202162 
L 371.472468 224.449306 
L 371.864096 223.284257 
L 372.255724 220.9618 
L 372.647353 209.874911 
L 373.038981 188.362001 
L 373.822238 182.339328 
L 374.213866 182.770183 
L 374.605495 182.915181 
L 374.997123 184.506848 
L 375.388751 191.642872 
L 375.78038 179.418622 
L 376.172008 181.154547 
L 376.563636 180.018961 
L 377.346893 171.970192 
L 377.738521 180.776984 
L 378.13015 184.372582 
L 378.521778 167.87194 
L 378.913407 161.041141 
L 379.305035 173.924083 
L 379.696663 170.083316 
L 380.088292 170.94623 
L 380.47992 170.55914 
L 380.871548 179.353246 
L 381.263177 182.668847 
L 381.654805 183.624293 
L 382.046434 189.134093 
L 382.438062 177.012015 
L 382.82969 178.043465 
L 383.221319 190.456341 
L 383.612947 197.973442 
L 384.004575 196.482527 
L 384.396204 202.788111 
L 384.787832 206.673172 
L 385.179461 216.614032 
L 385.571089 212.167113 
L 385.962717 212.313575 
L 386.354346 215.583778 
L 386.745974 227.259467 
L 387.137602 251.378212 
L 387.529231 218.199205 
L 387.920859 222.490089 
L 388.312488 219.603976 
L 388.704116 226.064409 
L 389.095744 247.17244 
L 389.487373 227.351957 
L 389.879001 219.923223 
L 390.270629 231.618076 
L 391.053886 246.654854 
L 391.445514 245.429877 
L 391.837143 242.986873 
L 392.228771 249.519695 
L 393.012028 249.133007 
L 393.403656 262.704898 
L 393.795285 257.832976 
L 394.186913 248.597808 
L 394.578541 245.799888 
L 394.97017 239.839415 
L 395.361798 243.708417 
L 395.753427 242.278709 
L 396.145055 230.404336 
L 396.536683 228.830222 
L 396.928312 230.714184 
L 397.31994 229.460825 
L 397.711568 231.385888 
L 398.103197 231.371483 
L 398.494825 223.904966 
L 398.886454 168.528161 
L 399.66971 171.262006 
L 400.061339 171.158092 
L 400.452967 171.663269 
L 400.844595 171.924339 
L 401.236224 171.935788 
L 402.019481 173.994802 
L 402.411109 177.110149 
L 402.802737 183.75355 
L 403.585994 205.308203 
L 404.369251 218.091091 
L 404.760879 218.976479 
L 405.152507 217.861214 
L 405.544136 222.828741 
L 405.935764 220.370606 
L 406.327393 222.460919 
L 406.719021 219.465822 
L 407.110649 225.742349 
L 407.502278 230.138698 
L 407.893906 221.552695 
L 408.285534 235.12749 
L 408.677163 236.946234 
L 409.068791 225.840009 
L 409.46042 231.914945 
L 409.852048 234.266918 
L 410.243676 230.622548 
L 410.635305 232.533573 
L 411.026933 216.873638 
L 411.81019 227.915756 
L 412.201818 228.112507 
L 412.593447 227.473016 
L 412.985075 231.859939 
L 413.376703 232.969345 
L 413.768332 231.769249 
L 415.726474 211.155536 
L 416.118102 207.974734 
L 416.50973 207.479315 
L 416.901359 208.342266 
L 417.292987 208.893207 
L 417.684615 210.434236 
L 418.076244 210.052404 
L 418.467872 213.020439 
L 418.8595 207.986322 
L 419.251129 205.080987 
L 419.642757 213.020735 
L 420.034386 207.869903 
L 420.426014 196.09651 
L 420.817642 188.879037 
L 421.209271 195.105126 
L 421.600899 189.389041 
L 421.992527 194.06566 
L 422.384156 191.224439 
L 422.775784 193.818438 
L 423.167413 191.828292 
L 423.559041 188.050931 
L 423.950669 179.82469 
L 424.342298 182.616195 
L 424.733926 192.745305 
L 425.125554 182.721111 
L 425.517183 186.704276 
L 425.908811 187.226533 
L 426.30044 191.025649 
L 426.692068 183.876003 
L 427.083696 195.872193 
L 427.475325 196.936967 
L 428.258581 189.186265 
L 428.65021 180.403982 
L 429.041838 178.921071 
L 429.433467 184.065554 
L 429.825095 179.59682 
L 430.216723 184.405436 
L 430.608352 180.061867 
L 430.99998 180.528433 
L 431.391608 191.327307 
L 431.783237 193.721729 
L 432.174865 202.97942 
L 433.34975 186.508616 
L 433.741379 176.494543 
L 434.133007 185.5995 
L 434.524635 179.586081 
L 434.916264 171.325425 
L 435.307892 171.995608 
L 435.69952 165.34913 
L 436.091149 146.093192 
L 436.482777 149.28286 
L 436.874406 150.26849 
L 437.266034 140.532033 
L 437.657662 176.961708 
L 438.049291 186.233373 
L 438.440919 169.938738 
L 438.832547 168.324294 
L 439.224176 154.961782 
L 439.615804 167.181246 
L 440.007433 148.755439 
L 440.399061 176.610668 
L 440.790689 179.166963 
L 441.182318 216.073281 
L 441.573946 206.919716 
L 441.965574 179.240853 
L 442.357203 179.966742 
L 442.748831 177.673526 
L 443.14046 180.920664 
L 443.532088 193.634037 
L 443.923716 197.646009 
L 444.315345 186.084396 
L 444.706973 178.901088 
L 445.098601 182.229083 
L 445.49023 167.357753 
L 445.881858 168.364496 
L 446.273487 170.686146 
L 447.056743 178.155907 
L 447.448372 187.794246 
L 447.84 175.869345 
L 447.84 175.869345 
" style="fill:none;stroke:#4c72b0;stroke-linecap:round;stroke-width:1.75;"/>
   </g>
   <g id="patch_3">
    <path d="M 55.82 300.76 
L 55.82 27.6 
" style="fill:none;"/>
   </g>
   <g id="patch_4">
    <path d="M 447.84 300.76 
L 447.84 27.6 
" style="fill:none;"/>
   </g>
   <g id="patch_5">
    <path d="M 55.82 300.76 
L 447.84 300.76 
" style="fill:none;"/>
   </g>
   <g id="patch_6">
    <path d="M 55.82 27.6 
L 447.84 27.6 
" style="fill:none;"/>
   </g>
   <g id="text_17">
    <!-- Planar motion -->
    <defs>
     <path d="M 19.671875 64.796875 
L 19.671875 37.40625 
L 32.078125 37.40625 
Q 38.96875 37.40625 42.71875 40.96875 
Q 46.484375 44.53125 46.484375 51.125 
Q 46.484375 57.671875 42.71875 61.234375 
Q 38.96875 64.796875 32.078125 64.796875 
z
M 9.8125 72.90625 
L 32.078125 72.90625 
Q 44.34375 72.90625 50.609375 67.359375 
Q 56.890625 61.8125 56.890625 51.125 
Q 56.890625 40.328125 50.609375 34.8125 
Q 44.34375 29.296875 32.078125 29.296875 
L 19.671875 29.296875 
L 19.671875 0 
L 9.8125 0 
z
" id="DejaVuSans-50"/>
     <path d="M 34.28125 27.484375 
Q 23.390625 27.484375 19.1875 25 
Q 14.984375 22.515625 14.984375 16.5 
Q 14.984375 11.71875 18.140625 8.90625 
Q 21.296875 6.109375 26.703125 6.109375 
Q 34.1875 6.109375 38.703125 11.40625 
Q 43.21875 16.703125 43.21875 25.484375 
L 43.21875 27.484375 
z
M 52.203125 31.203125 
L 52.203125 0 
L 43.21875 0 
L 43.21875 8.296875 
Q 40.140625 3.328125 35.546875 0.953125 
Q 30.953125 -1.421875 24.3125 -1.421875 
Q 15.921875 -1.421875 10.953125 3.296875 
Q 6 8.015625 6 15.921875 
Q 6 25.140625 12.171875 29.828125 
Q 18.359375 34.515625 30.609375 34.515625 
L 43.21875 34.515625 
L 43.21875 35.40625 
Q 43.21875 41.609375 39.140625 45 
Q 35.0625 48.390625 27.6875 48.390625 
Q 23 48.390625 18.546875 47.265625 
Q 14.109375 46.140625 10.015625 43.890625 
L 10.015625 52.203125 
Q 14.9375 54.109375 19.578125 55.046875 
Q 24.21875 56 28.609375 56 
Q 40.484375 56 46.34375 49.84375 
Q 52.203125 43.703125 52.203125 31.203125 
z
" id="DejaVuSans-61"/>
    </defs>
    <g style="fill:#262626;" transform="translate(210.007188 21.6)scale(0.12 -0.12)">
     <use xlink:href="#DejaVuSans-50"/>
     <use x="60.302734" xlink:href="#DejaVuSans-6c"/>
     <use x="88.085938" xlink:href="#DejaVuSans-61"/>
     <use x="149.365234" xlink:href="#DejaVuSans-6e"/>
     <use x="212.744141" xlink:href="#DejaVuSans-61"/>
     <use x="274.023438" xlink:href="#DejaVuSans-72"/>
     <use x="315.136719" xlink:href="#DejaVuSans-20"/>
     <use x="346.923828" xlink:href="#DejaVuSans-6d"/>
     <use x="444.335938" xlink:href="#DejaVuSans-6f"/>
     <use x="505.517578" xlink:href="#DejaVuSans-74"/>
     <use x="544.726562" xlink:href="#DejaVuSans-69"/>
     <use x="572.509766" xlink:href="#DejaVuSans-6f"/>
     <use x="633.691406" xlink:href="#DejaVuSans-6e"/>
    </g>
   </g>
  </g>
 </g>
 <defs>
  <clipPath id="p0499e4c38a">
   <rect height="273.16" width="392.02" x="55.82" y="27.6"/>
  </clipPath>
 </defs>
</svg>
