<?xml version="1.0" encoding="utf-8" standalone="no"?>
<!DOCTYPE svg PUBLIC "-//W3C//DTD SVG 1.1//EN"
  "http://www.w3.org/Graphics/SVG/1.1/DTD/svg11.dtd">
<!-- Created with matplotlib (http://matplotlib.org/) -->
<svg height="345pt" version="1.1" viewBox="0 0 460 345" width="460pt" xmlns="http://www.w3.org/2000/svg" xmlns:xlink="http://www.w3.org/1999/xlink">
 <defs>
  <style type="text/css">
*{stroke-linecap:butt;stroke-linejoin:round;}
  </style>
 </defs>
 <g id="figure_1">
  <g id="patch_1">
   <path d="M 0 345.6 
L 460.8 345.6 
L 460.8 0 
L 0 0 
z
" style="fill:#ffffff;"/>
  </g>
  <g id="axes_1">
   <g id="patch_2">
    <path d="M 63.38 300.76 
L 447.84 300.76 
L 447.84 27.6 
L 63.38 27.6 
z
" style="fill:#eaeaf2;"/>
   </g>
   <g id="matplotlib.axis_1">
    <g id="xtick_1">
     <g id="line2d_1">
      <path clip-path="url(#p14b8bffc8a)" d="M 129.406261 300.76 
L 129.406261 27.6 
" style="fill:none;stroke:#ffffff;stroke-linecap:round;"/>
     </g>
     <g id="line2d_2"/>
     <g id="text_1">
      <!-- 0.5 -->
      <defs>
       <path d="M 31.78125 66.40625 
Q 24.171875 66.40625 20.328125 58.90625 
Q 16.5 51.421875 16.5 36.375 
Q 16.5 21.390625 20.328125 13.890625 
Q 24.171875 6.390625 31.78125 6.390625 
Q 39.453125 6.390625 43.28125 13.890625 
Q 47.125 21.390625 47.125 36.375 
Q 47.125 51.421875 43.28125 58.90625 
Q 39.453125 66.40625 31.78125 66.40625 
z
M 31.78125 74.21875 
Q 44.046875 74.21875 50.515625 64.515625 
Q 56.984375 54.828125 56.984375 36.375 
Q 56.984375 17.96875 50.515625 8.265625 
Q 44.046875 -1.421875 31.78125 -1.421875 
Q 19.53125 -1.421875 13.0625 8.265625 
Q 6.59375 17.96875 6.59375 36.375 
Q 6.59375 54.828125 13.0625 64.515625 
Q 19.53125 74.21875 31.78125 74.21875 
z
" id="DejaVuSans-30"/>
       <path d="M 10.6875 12.40625 
L 21 12.40625 
L 21 0 
L 10.6875 0 
z
" id="DejaVuSans-2e"/>
       <path d="M 10.796875 72.90625 
L 49.515625 72.90625 
L 49.515625 64.59375 
L 19.828125 64.59375 
L 19.828125 46.734375 
Q 21.96875 47.46875 24.109375 47.828125 
Q 26.265625 48.1875 28.421875 48.1875 
Q 40.625 48.1875 47.75 41.5 
Q 54.890625 34.8125 54.890625 23.390625 
Q 54.890625 11.625 47.5625 5.09375 
Q 40.234375 -1.421875 26.90625 -1.421875 
Q 22.3125 -1.421875 17.546875 -0.640625 
Q 12.796875 0.140625 7.71875 1.703125 
L 7.71875 11.625 
Q 12.109375 9.234375 16.796875 8.0625 
Q 21.484375 6.890625 26.703125 6.890625 
Q 35.15625 6.890625 40.078125 11.328125 
Q 45.015625 15.765625 45.015625 23.390625 
Q 45.015625 31 40.078125 35.4375 
Q 35.15625 39.890625 26.703125 39.890625 
Q 22.75 39.890625 18.8125 39.015625 
Q 14.890625 38.140625 10.796875 36.28125 
z
" id="DejaVuSans-35"/>
      </defs>
      <g style="fill:#262626;" transform="translate(121.454698 315.358437)scale(0.1 -0.1)">
       <use xlink:href="#DejaVuSans-30"/>
       <use x="63.623047" xlink:href="#DejaVuSans-2e"/>
       <use x="95.410156" xlink:href="#DejaVuSans-35"/>
      </g>
     </g>
    </g>
    <g id="xtick_2">
     <g id="line2d_3">
      <path clip-path="url(#p14b8bffc8a)" d="M 195.952414 300.76 
L 195.952414 27.6 
" style="fill:none;stroke:#ffffff;stroke-linecap:round;"/>
     </g>
     <g id="line2d_4"/>
     <g id="text_2">
      <!-- 1.0 -->
      <defs>
       <path d="M 12.40625 8.296875 
L 28.515625 8.296875 
L 28.515625 63.921875 
L 10.984375 60.40625 
L 10.984375 69.390625 
L 28.421875 72.90625 
L 38.28125 72.90625 
L 38.28125 8.296875 
L 54.390625 8.296875 
L 54.390625 0 
L 12.40625 0 
z
" id="DejaVuSans-31"/>
      </defs>
      <g style="fill:#262626;" transform="translate(188.000851 315.358437)scale(0.1 -0.1)">
       <use xlink:href="#DejaVuSans-31"/>
       <use x="63.623047" xlink:href="#DejaVuSans-2e"/>
       <use x="95.410156" xlink:href="#DejaVuSans-30"/>
      </g>
     </g>
    </g>
    <g id="xtick_3">
     <g id="line2d_5">
      <path clip-path="url(#p14b8bffc8a)" d="M 262.498567 300.76 
L 262.498567 27.6 
" style="fill:none;stroke:#ffffff;stroke-linecap:round;"/>
     </g>
     <g id="line2d_6"/>
     <g id="text_3">
      <!-- 1.5 -->
      <g style="fill:#262626;" transform="translate(254.547004 315.358437)scale(0.1 -0.1)">
       <use xlink:href="#DejaVuSans-31"/>
       <use x="63.623047" xlink:href="#DejaVuSans-2e"/>
       <use x="95.410156" xlink:href="#DejaVuSans-35"/>
      </g>
     </g>
    </g>
    <g id="xtick_4">
     <g id="line2d_7">
      <path clip-path="url(#p14b8bffc8a)" d="M 329.044719 300.76 
L 329.044719 27.6 
" style="fill:none;stroke:#ffffff;stroke-linecap:round;"/>
     </g>
     <g id="line2d_8"/>
     <g id="text_4">
      <!-- 2.0 -->
      <defs>
       <path d="M 19.1875 8.296875 
L 53.609375 8.296875 
L 53.609375 0 
L 7.328125 0 
L 7.328125 8.296875 
Q 12.9375 14.109375 22.625 23.890625 
Q 32.328125 33.6875 34.8125 36.53125 
Q 39.546875 41.84375 41.421875 45.53125 
Q 43.3125 49.21875 43.3125 52.78125 
Q 43.3125 58.59375 39.234375 62.25 
Q 35.15625 65.921875 28.609375 65.921875 
Q 23.96875 65.921875 18.8125 64.3125 
Q 13.671875 62.703125 7.8125 59.421875 
L 7.8125 69.390625 
Q 13.765625 71.78125 18.9375 73 
Q 24.125 74.21875 28.421875 74.21875 
Q 39.75 74.21875 46.484375 68.546875 
Q 53.21875 62.890625 53.21875 53.421875 
Q 53.21875 48.921875 51.53125 44.890625 
Q 49.859375 40.875 45.40625 35.40625 
Q 44.1875 33.984375 37.640625 27.21875 
Q 31.109375 20.453125 19.1875 8.296875 
z
" id="DejaVuSans-32"/>
      </defs>
      <g style="fill:#262626;" transform="translate(321.093157 315.358437)scale(0.1 -0.1)">
       <use xlink:href="#DejaVuSans-32"/>
       <use x="63.623047" xlink:href="#DejaVuSans-2e"/>
       <use x="95.410156" xlink:href="#DejaVuSans-30"/>
      </g>
     </g>
    </g>
    <g id="xtick_5">
     <g id="line2d_9">
      <path clip-path="url(#p14b8bffc8a)" d="M 395.590872 300.76 
L 395.590872 27.6 
" style="fill:none;stroke:#ffffff;stroke-linecap:round;"/>
     </g>
     <g id="line2d_10"/>
     <g id="text_5">
      <!-- 2.5 -->
      <g style="fill:#262626;" transform="translate(387.63931 315.358437)scale(0.1 -0.1)">
       <use xlink:href="#DejaVuSans-32"/>
       <use x="63.623047" xlink:href="#DejaVuSans-2e"/>
       <use x="95.410156" xlink:href="#DejaVuSans-35"/>
      </g>
     </g>
    </g>
    <g id="text_6">
     <!-- Time (seconds) -->
     <defs>
      <path d="M -0.296875 72.90625 
L 61.375 72.90625 
L 61.375 64.59375 
L 35.5 64.59375 
L 35.5 0 
L 25.59375 0 
L 25.59375 64.59375 
L -0.296875 64.59375 
z
" id="DejaVuSans-54"/>
      <path d="M 9.421875 54.6875 
L 18.40625 54.6875 
L 18.40625 0 
L 9.421875 0 
z
M 9.421875 75.984375 
L 18.40625 75.984375 
L 18.40625 64.59375 
L 9.421875 64.59375 
z
" id="DejaVuSans-69"/>
      <path d="M 52 44.1875 
Q 55.375 50.25 60.0625 53.125 
Q 64.75 56 71.09375 56 
Q 79.640625 56 84.28125 50.015625 
Q 88.921875 44.046875 88.921875 33.015625 
L 88.921875 0 
L 79.890625 0 
L 79.890625 32.71875 
Q 79.890625 40.578125 77.09375 44.375 
Q 74.3125 48.1875 68.609375 48.1875 
Q 61.625 48.1875 57.5625 43.546875 
Q 53.515625 38.921875 53.515625 30.90625 
L 53.515625 0 
L 44.484375 0 
L 44.484375 32.71875 
Q 44.484375 40.625 41.703125 44.40625 
Q 38.921875 48.1875 33.109375 48.1875 
Q 26.21875 48.1875 22.15625 43.53125 
Q 18.109375 38.875 18.109375 30.90625 
L 18.109375 0 
L 9.078125 0 
L 9.078125 54.6875 
L 18.109375 54.6875 
L 18.109375 46.1875 
Q 21.1875 51.21875 25.484375 53.609375 
Q 29.78125 56 35.6875 56 
Q 41.65625 56 45.828125 52.96875 
Q 50 49.953125 52 44.1875 
z
" id="DejaVuSans-6d"/>
      <path d="M 56.203125 29.59375 
L 56.203125 25.203125 
L 14.890625 25.203125 
Q 15.484375 15.921875 20.484375 11.0625 
Q 25.484375 6.203125 34.421875 6.203125 
Q 39.59375 6.203125 44.453125 7.46875 
Q 49.3125 8.734375 54.109375 11.28125 
L 54.109375 2.78125 
Q 49.265625 0.734375 44.1875 -0.34375 
Q 39.109375 -1.421875 33.890625 -1.421875 
Q 20.796875 -1.421875 13.15625 6.1875 
Q 5.515625 13.8125 5.515625 26.8125 
Q 5.515625 40.234375 12.765625 48.109375 
Q 20.015625 56 32.328125 56 
Q 43.359375 56 49.78125 48.890625 
Q 56.203125 41.796875 56.203125 29.59375 
z
M 47.21875 32.234375 
Q 47.125 39.59375 43.09375 43.984375 
Q 39.0625 48.390625 32.421875 48.390625 
Q 24.90625 48.390625 20.390625 44.140625 
Q 15.875 39.890625 15.1875 32.171875 
z
" id="DejaVuSans-65"/>
      <path id="DejaVuSans-20"/>
      <path d="M 31 75.875 
Q 24.46875 64.65625 21.28125 53.65625 
Q 18.109375 42.671875 18.109375 31.390625 
Q 18.109375 20.125 21.3125 9.0625 
Q 24.515625 -2 31 -13.1875 
L 23.1875 -13.1875 
Q 15.875 -1.703125 12.234375 9.375 
Q 8.59375 20.453125 8.59375 31.390625 
Q 8.59375 42.28125 12.203125 53.3125 
Q 15.828125 64.359375 23.1875 75.875 
z
" id="DejaVuSans-28"/>
      <path d="M 44.28125 53.078125 
L 44.28125 44.578125 
Q 40.484375 46.53125 36.375 47.5 
Q 32.28125 48.484375 27.875 48.484375 
Q 21.1875 48.484375 17.84375 46.4375 
Q 14.5 44.390625 14.5 40.28125 
Q 14.5 37.15625 16.890625 35.375 
Q 19.28125 33.59375 26.515625 31.984375 
L 29.59375 31.296875 
Q 39.15625 29.25 43.1875 25.515625 
Q 47.21875 21.78125 47.21875 15.09375 
Q 47.21875 7.46875 41.1875 3.015625 
Q 35.15625 -1.421875 24.609375 -1.421875 
Q 20.21875 -1.421875 15.453125 -0.5625 
Q 10.6875 0.296875 5.421875 2 
L 5.421875 11.28125 
Q 10.40625 8.6875 15.234375 7.390625 
Q 20.0625 6.109375 24.8125 6.109375 
Q 31.15625 6.109375 34.5625 8.28125 
Q 37.984375 10.453125 37.984375 14.40625 
Q 37.984375 18.0625 35.515625 20.015625 
Q 33.0625 21.96875 24.703125 23.78125 
L 21.578125 24.515625 
Q 13.234375 26.265625 9.515625 29.90625 
Q 5.8125 33.546875 5.8125 39.890625 
Q 5.8125 47.609375 11.28125 51.796875 
Q 16.75 56 26.8125 56 
Q 31.78125 56 36.171875 55.265625 
Q 40.578125 54.546875 44.28125 53.078125 
z
" id="DejaVuSans-73"/>
      <path d="M 48.78125 52.59375 
L 48.78125 44.1875 
Q 44.96875 46.296875 41.140625 47.34375 
Q 37.3125 48.390625 33.40625 48.390625 
Q 24.65625 48.390625 19.8125 42.84375 
Q 14.984375 37.3125 14.984375 27.296875 
Q 14.984375 17.28125 19.8125 11.734375 
Q 24.65625 6.203125 33.40625 6.203125 
Q 37.3125 6.203125 41.140625 7.25 
Q 44.96875 8.296875 48.78125 10.40625 
L 48.78125 2.09375 
Q 45.015625 0.34375 40.984375 -0.53125 
Q 36.96875 -1.421875 32.421875 -1.421875 
Q 20.0625 -1.421875 12.78125 6.34375 
Q 5.515625 14.109375 5.515625 27.296875 
Q 5.515625 40.671875 12.859375 48.328125 
Q 20.21875 56 33.015625 56 
Q 37.15625 56 41.109375 55.140625 
Q 45.0625 54.296875 48.78125 52.59375 
z
" id="DejaVuSans-63"/>
      <path d="M 30.609375 48.390625 
Q 23.390625 48.390625 19.1875 42.75 
Q 14.984375 37.109375 14.984375 27.296875 
Q 14.984375 17.484375 19.15625 11.84375 
Q 23.34375 6.203125 30.609375 6.203125 
Q 37.796875 6.203125 41.984375 11.859375 
Q 46.1875 17.53125 46.1875 27.296875 
Q 46.1875 37.015625 41.984375 42.703125 
Q 37.796875 48.390625 30.609375 48.390625 
z
M 30.609375 56 
Q 42.328125 56 49.015625 48.375 
Q 55.71875 40.765625 55.71875 27.296875 
Q 55.71875 13.875 49.015625 6.21875 
Q 42.328125 -1.421875 30.609375 -1.421875 
Q 18.84375 -1.421875 12.171875 6.21875 
Q 5.515625 13.875 5.515625 27.296875 
Q 5.515625 40.765625 12.171875 48.375 
Q 18.84375 56 30.609375 56 
z
" id="DejaVuSans-6f"/>
      <path d="M 54.890625 33.015625 
L 54.890625 0 
L 45.90625 0 
L 45.90625 32.71875 
Q 45.90625 40.484375 42.875 44.328125 
Q 39.84375 48.1875 33.796875 48.1875 
Q 26.515625 48.1875 22.3125 43.546875 
Q 18.109375 38.921875 18.109375 30.90625 
L 18.109375 0 
L 9.078125 0 
L 9.078125 54.6875 
L 18.109375 54.6875 
L 18.109375 46.1875 
Q 21.34375 51.125 25.703125 53.5625 
Q 30.078125 56 35.796875 56 
Q 45.21875 56 50.046875 50.171875 
Q 54.890625 44.34375 54.890625 33.015625 
z
" id="DejaVuSans-6e"/>
      <path d="M 45.40625 46.390625 
L 45.40625 75.984375 
L 54.390625 75.984375 
L 54.390625 0 
L 45.40625 0 
L 45.40625 8.203125 
Q 42.578125 3.328125 38.25 0.953125 
Q 33.9375 -1.421875 27.875 -1.421875 
Q 17.96875 -1.421875 11.734375 6.484375 
Q 5.515625 14.40625 5.515625 27.296875 
Q 5.515625 40.1875 11.734375 48.09375 
Q 17.96875 56 27.875 56 
Q 33.9375 56 38.25 53.625 
Q 42.578125 51.265625 45.40625 46.390625 
z
M 14.796875 27.296875 
Q 14.796875 17.390625 18.875 11.75 
Q 22.953125 6.109375 30.078125 6.109375 
Q 37.203125 6.109375 41.296875 11.75 
Q 45.40625 17.390625 45.40625 27.296875 
Q 45.40625 37.203125 41.296875 42.84375 
Q 37.203125 48.484375 30.078125 48.484375 
Q 22.953125 48.484375 18.875 42.84375 
Q 14.796875 37.203125 14.796875 27.296875 
z
" id="DejaVuSans-64"/>
      <path d="M 8.015625 75.875 
L 15.828125 75.875 
Q 23.140625 64.359375 26.78125 53.3125 
Q 30.421875 42.28125 30.421875 31.390625 
Q 30.421875 20.453125 26.78125 9.375 
Q 23.140625 -1.703125 15.828125 -13.1875 
L 8.015625 -13.1875 
Q 14.5 -2 17.703125 9.0625 
Q 20.90625 20.125 20.90625 31.390625 
Q 20.90625 42.671875 17.703125 53.65625 
Q 14.5 64.65625 8.015625 75.875 
z
" id="DejaVuSans-29"/>
     </defs>
     <g style="fill:#262626;" transform="translate(213.462813 329.796406)scale(0.11 -0.11)">
      <use xlink:href="#DejaVuSans-54"/>
      <use x="61.037109" xlink:href="#DejaVuSans-69"/>
      <use x="88.820312" xlink:href="#DejaVuSans-6d"/>
      <use x="186.232422" xlink:href="#DejaVuSans-65"/>
      <use x="247.755859" xlink:href="#DejaVuSans-20"/>
      <use x="279.542969" xlink:href="#DejaVuSans-28"/>
      <use x="318.556641" xlink:href="#DejaVuSans-73"/>
      <use x="370.65625" xlink:href="#DejaVuSans-65"/>
      <use x="432.179688" xlink:href="#DejaVuSans-63"/>
      <use x="487.160156" xlink:href="#DejaVuSans-6f"/>
      <use x="548.341797" xlink:href="#DejaVuSans-6e"/>
      <use x="611.720703" xlink:href="#DejaVuSans-64"/>
      <use x="675.197266" xlink:href="#DejaVuSans-73"/>
      <use x="727.296875" xlink:href="#DejaVuSans-29"/>
     </g>
    </g>
   </g>
   <g id="matplotlib.axis_2">
    <g id="ytick_1">
     <g id="line2d_11">
      <path clip-path="url(#p14b8bffc8a)" d="M 63.38 243.813085 
L 447.84 243.813085 
" style="fill:none;stroke:#ffffff;stroke-linecap:round;"/>
     </g>
     <g id="line2d_12"/>
     <g id="text_7">
      <!-- 21.45 -->
      <defs>
       <path d="M 37.796875 64.3125 
L 12.890625 25.390625 
L 37.796875 25.390625 
z
M 35.203125 72.90625 
L 47.609375 72.90625 
L 47.609375 25.390625 
L 58.015625 25.390625 
L 58.015625 17.1875 
L 47.609375 17.1875 
L 47.609375 0 
L 37.796875 0 
L 37.796875 17.1875 
L 4.890625 17.1875 
L 4.890625 26.703125 
z
" id="DejaVuSans-34"/>
      </defs>
      <g style="fill:#262626;" transform="translate(27.751875 247.612303)scale(0.1 -0.1)">
       <use xlink:href="#DejaVuSans-32"/>
       <use x="63.623047" xlink:href="#DejaVuSans-31"/>
       <use x="127.246094" xlink:href="#DejaVuSans-2e"/>
       <use x="159.033203" xlink:href="#DejaVuSans-34"/>
       <use x="222.65625" xlink:href="#DejaVuSans-35"/>
      </g>
     </g>
    </g>
    <g id="ytick_2">
     <g id="line2d_13">
      <path clip-path="url(#p14b8bffc8a)" d="M 63.38 185.940203 
L 447.84 185.940203 
" style="fill:none;stroke:#ffffff;stroke-linecap:round;"/>
     </g>
     <g id="line2d_14"/>
     <g id="text_8">
      <!-- 21.50 -->
      <g style="fill:#262626;" transform="translate(27.751875 189.739422)scale(0.1 -0.1)">
       <use xlink:href="#DejaVuSans-32"/>
       <use x="63.623047" xlink:href="#DejaVuSans-31"/>
       <use x="127.246094" xlink:href="#DejaVuSans-2e"/>
       <use x="159.033203" xlink:href="#DejaVuSans-35"/>
       <use x="222.65625" xlink:href="#DejaVuSans-30"/>
      </g>
     </g>
    </g>
    <g id="ytick_3">
     <g id="line2d_15">
      <path clip-path="url(#p14b8bffc8a)" d="M 63.38 128.067322 
L 447.84 128.067322 
" style="fill:none;stroke:#ffffff;stroke-linecap:round;"/>
     </g>
     <g id="line2d_16"/>
     <g id="text_9">
      <!-- 21.55 -->
      <g style="fill:#262626;" transform="translate(27.751875 131.866541)scale(0.1 -0.1)">
       <use xlink:href="#DejaVuSans-32"/>
       <use x="63.623047" xlink:href="#DejaVuSans-31"/>
       <use x="127.246094" xlink:href="#DejaVuSans-2e"/>
       <use x="159.033203" xlink:href="#DejaVuSans-35"/>
       <use x="222.65625" xlink:href="#DejaVuSans-35"/>
      </g>
     </g>
    </g>
    <g id="ytick_4">
     <g id="line2d_17">
      <path clip-path="url(#p14b8bffc8a)" d="M 63.38 70.194441 
L 447.84 70.194441 
" style="fill:none;stroke:#ffffff;stroke-linecap:round;"/>
     </g>
     <g id="line2d_18"/>
     <g id="text_10">
      <!-- 21.60 -->
      <defs>
       <path d="M 33.015625 40.375 
Q 26.375 40.375 22.484375 35.828125 
Q 18.609375 31.296875 18.609375 23.390625 
Q 18.609375 15.53125 22.484375 10.953125 
Q 26.375 6.390625 33.015625 6.390625 
Q 39.65625 6.390625 43.53125 10.953125 
Q 47.40625 15.53125 47.40625 23.390625 
Q 47.40625 31.296875 43.53125 35.828125 
Q 39.65625 40.375 33.015625 40.375 
z
M 52.59375 71.296875 
L 52.59375 62.3125 
Q 48.875 64.0625 45.09375 64.984375 
Q 41.3125 65.921875 37.59375 65.921875 
Q 27.828125 65.921875 22.671875 59.328125 
Q 17.53125 52.734375 16.796875 39.40625 
Q 19.671875 43.65625 24.015625 45.921875 
Q 28.375 48.1875 33.59375 48.1875 
Q 44.578125 48.1875 50.953125 41.515625 
Q 57.328125 34.859375 57.328125 23.390625 
Q 57.328125 12.15625 50.6875 5.359375 
Q 44.046875 -1.421875 33.015625 -1.421875 
Q 20.359375 -1.421875 13.671875 8.265625 
Q 6.984375 17.96875 6.984375 36.375 
Q 6.984375 53.65625 15.1875 63.9375 
Q 23.390625 74.21875 37.203125 74.21875 
Q 40.921875 74.21875 44.703125 73.484375 
Q 48.484375 72.75 52.59375 71.296875 
z
" id="DejaVuSans-36"/>
      </defs>
      <g style="fill:#262626;" transform="translate(27.751875 73.993659)scale(0.1 -0.1)">
       <use xlink:href="#DejaVuSans-32"/>
       <use x="63.623047" xlink:href="#DejaVuSans-31"/>
       <use x="127.246094" xlink:href="#DejaVuSans-2e"/>
       <use x="159.033203" xlink:href="#DejaVuSans-36"/>
       <use x="222.65625" xlink:href="#DejaVuSans-30"/>
      </g>
     </g>
    </g>
    <g id="text_11">
     <!-- CPU usage (%) -->
     <defs>
      <path d="M 64.40625 67.28125 
L 64.40625 56.890625 
Q 59.421875 61.53125 53.78125 63.8125 
Q 48.140625 66.109375 41.796875 66.109375 
Q 29.296875 66.109375 22.65625 58.46875 
Q 16.015625 50.828125 16.015625 36.375 
Q 16.015625 21.96875 22.65625 14.328125 
Q 29.296875 6.6875 41.796875 6.6875 
Q 48.140625 6.6875 53.78125 8.984375 
Q 59.421875 11.28125 64.40625 15.921875 
L 64.40625 5.609375 
Q 59.234375 2.09375 53.4375 0.328125 
Q 47.65625 -1.421875 41.21875 -1.421875 
Q 24.65625 -1.421875 15.125 8.703125 
Q 5.609375 18.84375 5.609375 36.375 
Q 5.609375 53.953125 15.125 64.078125 
Q 24.65625 74.21875 41.21875 74.21875 
Q 47.75 74.21875 53.53125 72.484375 
Q 59.328125 70.75 64.40625 67.28125 
z
" id="DejaVuSans-43"/>
      <path d="M 19.671875 64.796875 
L 19.671875 37.40625 
L 32.078125 37.40625 
Q 38.96875 37.40625 42.71875 40.96875 
Q 46.484375 44.53125 46.484375 51.125 
Q 46.484375 57.671875 42.71875 61.234375 
Q 38.96875 64.796875 32.078125 64.796875 
z
M 9.8125 72.90625 
L 32.078125 72.90625 
Q 44.34375 72.90625 50.609375 67.359375 
Q 56.890625 61.8125 56.890625 51.125 
Q 56.890625 40.328125 50.609375 34.8125 
Q 44.34375 29.296875 32.078125 29.296875 
L 19.671875 29.296875 
L 19.671875 0 
L 9.8125 0 
z
" id="DejaVuSans-50"/>
      <path d="M 8.6875 72.90625 
L 18.609375 72.90625 
L 18.609375 28.609375 
Q 18.609375 16.890625 22.84375 11.734375 
Q 27.09375 6.59375 36.625 6.59375 
Q 46.09375 6.59375 50.34375 11.734375 
Q 54.59375 16.890625 54.59375 28.609375 
L 54.59375 72.90625 
L 64.5 72.90625 
L 64.5 27.390625 
Q 64.5 13.140625 57.4375 5.859375 
Q 50.390625 -1.421875 36.625 -1.421875 
Q 22.796875 -1.421875 15.734375 5.859375 
Q 8.6875 13.140625 8.6875 27.390625 
z
" id="DejaVuSans-55"/>
      <path d="M 8.5 21.578125 
L 8.5 54.6875 
L 17.484375 54.6875 
L 17.484375 21.921875 
Q 17.484375 14.15625 20.5 10.265625 
Q 23.53125 6.390625 29.59375 6.390625 
Q 36.859375 6.390625 41.078125 11.03125 
Q 45.3125 15.671875 45.3125 23.6875 
L 45.3125 54.6875 
L 54.296875 54.6875 
L 54.296875 0 
L 45.3125 0 
L 45.3125 8.40625 
Q 42.046875 3.421875 37.71875 1 
Q 33.40625 -1.421875 27.6875 -1.421875 
Q 18.265625 -1.421875 13.375 4.4375 
Q 8.5 10.296875 8.5 21.578125 
z
M 31.109375 56 
z
" id="DejaVuSans-75"/>
      <path d="M 34.28125 27.484375 
Q 23.390625 27.484375 19.1875 25 
Q 14.984375 22.515625 14.984375 16.5 
Q 14.984375 11.71875 18.140625 8.90625 
Q 21.296875 6.109375 26.703125 6.109375 
Q 34.1875 6.109375 38.703125 11.40625 
Q 43.21875 16.703125 43.21875 25.484375 
L 43.21875 27.484375 
z
M 52.203125 31.203125 
L 52.203125 0 
L 43.21875 0 
L 43.21875 8.296875 
Q 40.140625 3.328125 35.546875 0.953125 
Q 30.953125 -1.421875 24.3125 -1.421875 
Q 15.921875 -1.421875 10.953125 3.296875 
Q 6 8.015625 6 15.921875 
Q 6 25.140625 12.171875 29.828125 
Q 18.359375 34.515625 30.609375 34.515625 
L 43.21875 34.515625 
L 43.21875 35.40625 
Q 43.21875 41.609375 39.140625 45 
Q 35.0625 48.390625 27.6875 48.390625 
Q 23 48.390625 18.546875 47.265625 
Q 14.109375 46.140625 10.015625 43.890625 
L 10.015625 52.203125 
Q 14.9375 54.109375 19.578125 55.046875 
Q 24.21875 56 28.609375 56 
Q 40.484375 56 46.34375 49.84375 
Q 52.203125 43.703125 52.203125 31.203125 
z
" id="DejaVuSans-61"/>
      <path d="M 45.40625 27.984375 
Q 45.40625 37.75 41.375 43.109375 
Q 37.359375 48.484375 30.078125 48.484375 
Q 22.859375 48.484375 18.828125 43.109375 
Q 14.796875 37.75 14.796875 27.984375 
Q 14.796875 18.265625 18.828125 12.890625 
Q 22.859375 7.515625 30.078125 7.515625 
Q 37.359375 7.515625 41.375 12.890625 
Q 45.40625 18.265625 45.40625 27.984375 
z
M 54.390625 6.78125 
Q 54.390625 -7.171875 48.1875 -13.984375 
Q 42 -20.796875 29.203125 -20.796875 
Q 24.46875 -20.796875 20.265625 -20.09375 
Q 16.0625 -19.390625 12.109375 -17.921875 
L 12.109375 -9.1875 
Q 16.0625 -11.328125 19.921875 -12.34375 
Q 23.78125 -13.375 27.78125 -13.375 
Q 36.625 -13.375 41.015625 -8.765625 
Q 45.40625 -4.15625 45.40625 5.171875 
L 45.40625 9.625 
Q 42.625 4.78125 38.28125 2.390625 
Q 33.9375 0 27.875 0 
Q 17.828125 0 11.671875 7.65625 
Q 5.515625 15.328125 5.515625 27.984375 
Q 5.515625 40.671875 11.671875 48.328125 
Q 17.828125 56 27.875 56 
Q 33.9375 56 38.28125 53.609375 
Q 42.625 51.21875 45.40625 46.390625 
L 45.40625 54.6875 
L 54.390625 54.6875 
z
" id="DejaVuSans-67"/>
      <path d="M 72.703125 32.078125 
Q 68.453125 32.078125 66.03125 28.46875 
Q 63.625 24.859375 63.625 18.40625 
Q 63.625 12.0625 66.03125 8.421875 
Q 68.453125 4.78125 72.703125 4.78125 
Q 76.859375 4.78125 79.265625 8.421875 
Q 81.6875 12.0625 81.6875 18.40625 
Q 81.6875 24.8125 79.265625 28.4375 
Q 76.859375 32.078125 72.703125 32.078125 
z
M 72.703125 38.28125 
Q 80.421875 38.28125 84.953125 32.90625 
Q 89.5 27.546875 89.5 18.40625 
Q 89.5 9.28125 84.9375 3.921875 
Q 80.375 -1.421875 72.703125 -1.421875 
Q 64.890625 -1.421875 60.34375 3.921875 
Q 55.8125 9.28125 55.8125 18.40625 
Q 55.8125 27.59375 60.375 32.9375 
Q 64.9375 38.28125 72.703125 38.28125 
z
M 22.3125 68.015625 
Q 18.109375 68.015625 15.6875 64.375 
Q 13.28125 60.75 13.28125 54.390625 
Q 13.28125 47.953125 15.671875 44.328125 
Q 18.0625 40.71875 22.3125 40.71875 
Q 26.5625 40.71875 28.96875 44.328125 
Q 31.390625 47.953125 31.390625 54.390625 
Q 31.390625 60.6875 28.953125 64.34375 
Q 26.515625 68.015625 22.3125 68.015625 
z
M 66.40625 74.21875 
L 74.21875 74.21875 
L 28.609375 -1.421875 
L 20.796875 -1.421875 
z
M 22.3125 74.21875 
Q 30.03125 74.21875 34.609375 68.875 
Q 39.203125 63.53125 39.203125 54.390625 
Q 39.203125 45.171875 34.640625 39.84375 
Q 30.078125 34.515625 22.3125 34.515625 
Q 14.546875 34.515625 10.03125 39.859375 
Q 5.515625 45.21875 5.515625 54.390625 
Q 5.515625 63.484375 10.046875 68.84375 
Q 14.59375 74.21875 22.3125 74.21875 
z
" id="DejaVuSans-25"/>
     </defs>
     <g style="fill:#262626;" transform="translate(21.464219 204.972812)rotate(-90)scale(0.11 -0.11)">
      <use xlink:href="#DejaVuSans-43"/>
      <use x="69.824219" xlink:href="#DejaVuSans-50"/>
      <use x="130.126953" xlink:href="#DejaVuSans-55"/>
      <use x="203.320312" xlink:href="#DejaVuSans-20"/>
      <use x="235.107422" xlink:href="#DejaVuSans-75"/>
      <use x="298.486328" xlink:href="#DejaVuSans-73"/>
      <use x="350.585938" xlink:href="#DejaVuSans-61"/>
      <use x="411.865234" xlink:href="#DejaVuSans-67"/>
      <use x="475.341797" xlink:href="#DejaVuSans-65"/>
      <use x="536.865234" xlink:href="#DejaVuSans-20"/>
      <use x="568.652344" xlink:href="#DejaVuSans-28"/>
      <use x="607.666016" xlink:href="#DejaVuSans-25"/>
      <use x="702.685547" xlink:href="#DejaVuSans-29"/>
     </g>
    </g>
   </g>
   <g id="line2d_19">
    <path clip-path="url(#p14b8bffc8a)" d="M 63.38 157.235254 
L 63.639946 247.979932 
L 63.899892 158.16122 
L 64.159838 219.274983 
L 64.419784 204.459525 
L 64.67973 110.010983 
L 65.459567 218.349017 
L 65.719513 248.905898 
L 66.239405 132.234169 
L 66.499351 62.786712 
L 66.759297 156.309288 
L 67.019243 133.160136 
L 67.279189 203.533559 
L 67.539135 209.089356 
L 67.79908 204.459525 
L 68.059026 241.498169 
L 68.318972 230.386576 
L 68.578918 233.164475 
L 68.838864 166.494915 
L 69.09881 164.642983 
L 69.358756 130.382237 
L 69.618702 122.048542 
L 69.878648 173.902644 
L 70.138594 119.270644 
L 70.39854 131.308203 
L 70.918431 163.717017 
L 71.178377 122.974508 
L 71.438323 255.387661 
L 71.698269 300.76 
L 71.958215 237.794305 
L 72.218161 223.904814 
L 72.478107 282.240678 
L 72.738053 284.09261 
L 72.997999 222.978847 
L 73.257945 195.199864 
L 73.51789 246.128 
L 73.777836 274.832949 
L 74.037782 279.46278 
L 74.297728 253.535729 
L 74.557674 160.939119 
L 74.81762 196.125831 
L 75.077566 287.796475 
L 75.337512 241.498169 
L 75.597458 234.090441 
L 75.857404 247.053966 
L 76.11735 285.944542 
L 76.377295 129.456271 
L 76.897187 285.018576 
L 77.157133 196.125831 
L 77.417079 275.758915 
L 77.677025 290.574373 
L 77.936971 166.494915 
L 78.196917 256.313627 
L 78.456863 163.717017 
L 78.716809 180.384407 
L 78.976755 110.936949 
L 79.2367 223.904814 
L 79.756592 262.79539 
L 80.016538 131.308203 
L 80.276484 184.088271 
L 80.53643 160.013153 
L 80.796376 161.865085 
L 81.056322 185.940203 
L 81.316268 159.087186 
L 81.576214 201.681627 
L 81.83616 159.087186 
L 82.096105 216.497085 
L 82.615997 151.679458 
L 82.875943 194.273898 
L 83.135889 209.089356 
L 83.395835 130.382237 
L 83.655781 174.82861 
L 83.915727 163.717017 
L 84.175673 176.680542 
L 84.435619 237.794305 
L 84.695565 204.459525 
L 85.215456 95.195525 
L 85.475402 121.122576 
L 85.735348 208.16339 
L 85.995294 126.678373 
L 86.25524 208.16339 
L 86.515186 127.604339 
L 86.775132 165.568949 
L 87.035078 172.976678 
L 87.55497 143.345763 
L 87.814915 108.159051 
L 88.074861 135.938034 
L 88.334807 110.010983 
L 88.594753 141.493831 
L 88.854699 123.900475 
L 89.114645 137.789966 
L 89.374591 219.274983 
L 89.894483 102.603254 
L 90.154429 163.717017 
L 90.67432 78.528136 
L 90.934266 122.974508 
L 91.194212 93.343593 
L 91.454158 117.418712 
L 91.714104 182.236339 
L 92.233996 84.083932 
L 92.753888 130.382237 
L 93.013834 147.049627 
L 93.27378 76.676203 
L 93.533725 148.901559 
L 93.793671 165.568949 
L 94.053617 171.124746 
L 94.313563 154.457356 
L 94.573509 105.381153 
L 94.833455 202.607593 
L 95.093401 84.083932 
L 95.353347 137.789966 
L 95.613293 148.901559 
L 95.873239 175.754576 
L 96.133185 163.717017 
L 96.39313 122.974508 
L 96.653076 178.532475 
L 96.913022 160.013153 
L 97.172968 126.678373 
L 97.432914 178.532475 
L 97.69286 204.459525 
L 97.952806 210.015322 
L 98.212752 130.382237 
L 98.472698 215.571119 
L 98.732644 156.309288 
L 98.99259 191.496 
L 99.252535 197.051797 
L 99.512481 211.867254 
L 99.772427 210.015322 
L 100.032373 143.345763 
L 100.292319 197.051797 
L 100.552265 80.380068 
L 100.812211 76.676203 
L 101.072157 193.347932 
L 101.332103 200.755661 
L 102.111941 137.789966 
L 102.631832 172.976678 
L 102.891778 167.420881 
L 103.151724 145.197695 
L 103.41167 176.680542 
L 103.671616 248.905898 
L 103.931562 168.346847 
L 104.191508 132.234169 
L 104.7114 234.090441 
L 104.971346 156.309288 
L 105.231291 200.755661 
L 105.491237 132.234169 
L 105.751183 200.755661 
L 106.011129 93.343593 
L 106.531021 184.088271 
L 106.790967 161.865085 
L 107.050913 165.568949 
L 107.310859 127.604339 
L 107.570805 119.270644 
L 107.830751 219.274983 
L 108.090696 158.16122 
L 108.350642 215.571119 
L 108.610588 143.345763 
L 108.870534 147.049627 
L 109.13048 217.423051 
L 109.390426 189.644068 
L 109.650372 134.086102 
L 110.170264 241.498169 
L 110.43021 180.384407 
L 110.690156 213.719186 
L 110.950101 121.122576 
L 111.210047 206.311458 
L 111.469993 161.865085 
L 111.729939 234.090441 
L 111.989885 178.532475 
L 112.249831 180.384407 
L 112.509777 160.013153 
L 112.769723 215.571119 
L 113.029669 109.085017 
L 113.289615 254.461695 
L 113.809506 139.641898 
L 114.069452 210.015322 
L 114.329398 172.050712 
L 114.589344 171.124746 
L 115.109236 174.82861 
L 115.369182 82.232 
L 115.889074 230.386576 
L 116.14902 211.867254 
L 116.408966 108.159051 
L 116.668911 128.530305 
L 116.928857 65.56461 
L 117.448749 172.050712 
L 117.708695 115.56678 
L 117.968641 150.753492 
L 118.228587 141.493831 
L 118.488533 113.714847 
L 118.748479 115.56678 
L 119.008425 124.826441 
L 119.268371 117.418712 
L 119.528316 82.232 
L 119.788262 145.197695 
L 120.048208 119.270644 
L 120.308154 163.717017 
L 120.5681 115.56678 
L 120.828046 95.195525 
L 121.087992 101.677288 
L 121.347938 113.714847 
L 121.607884 174.82861 
L 121.86783 132.234169 
L 122.127776 134.086102 
L 122.387721 85.935864 
L 122.647667 141.493831 
L 122.907613 169.272814 
L 123.167559 130.382237 
L 123.427505 180.384407 
L 123.687451 132.234169 
L 123.947397 110.010983 
L 124.207343 152.605424 
L 124.467289 135.938034 
L 124.727235 132.234169 
L 124.987181 141.493831 
L 125.247126 110.010983 
L 125.507072 121.122576 
L 125.767018 167.420881 
L 126.026964 97.047458 
L 126.28691 193.347932 
L 126.546856 117.418712 
L 126.806802 111.862915 
L 127.066748 128.530305 
L 127.326694 95.195525 
L 128.366477 184.088271 
L 128.886369 84.083932 
L 129.146315 56.304949 
L 129.406261 187.792136 
L 129.666207 154.457356 
L 129.926153 82.232 
L 130.186099 85.935864 
L 130.446045 198.903729 
L 130.705991 206.311458 
L 130.965936 204.459525 
L 131.485828 117.418712 
L 132.00572 224.83078 
L 132.265666 137.789966 
L 132.525612 226.682712 
L 132.785558 144.271729 
L 133.045504 171.124746 
L 133.30545 156.309288 
L 133.565396 184.088271 
L 133.825341 226.682712 
L 134.085287 198.903729 
L 134.345233 115.56678 
L 134.605179 158.16122 
L 134.865125 158.16122 
L 135.125071 156.309288 
L 135.385017 156.309288 
L 135.644963 184.088271 
L 135.904909 172.976678 
L 136.164855 172.976678 
L 136.424801 211.867254 
L 136.684746 165.568949 
L 136.944692 248.905898 
L 137.204638 171.124746 
L 137.464584 217.423051 
L 137.72453 115.56678 
L 137.984476 195.199864 
L 138.244422 224.83078 
L 138.504368 213.719186 
L 138.764314 122.974508 
L 139.02426 193.347932 
L 139.284206 191.496 
L 139.544151 248.905898 
L 139.804097 226.682712 
L 140.064043 172.976678 
L 140.323989 219.274983 
L 140.583935 147.049627 
L 140.843881 221.126915 
L 141.103827 187.792136 
L 141.363773 180.384407 
L 141.623719 215.571119 
L 141.883665 97.973424 
L 142.143611 172.976678 
L 142.403556 154.457356 
L 142.663502 176.680542 
L 142.923448 141.493831 
L 143.183394 130.382237 
L 143.44334 193.347932 
L 143.703286 222.978847 
L 143.963232 165.568949 
L 144.223178 182.236339 
L 144.483124 119.270644 
L 144.74307 122.974508 
L 145.003016 248.905898 
L 145.262961 219.274983 
L 145.522907 102.603254 
L 146.042799 224.83078 
L 146.302745 156.309288 
L 146.562691 217.423051 
L 146.822637 206.311458 
L 147.082583 158.16122 
L 147.342529 228.534644 
L 147.602475 180.384407 
L 147.862421 185.940203 
L 148.382312 108.159051 
L 148.902204 193.347932 
L 149.16215 232.238508 
L 149.422096 98.89939 
L 149.941988 228.534644 
L 150.201934 216.497085 
L 150.46188 222.978847 
L 150.721826 134.086102 
L 150.981771 134.086102 
L 151.241717 173.902644 
L 151.501663 87.787797 
L 151.761609 111.862915 
L 152.021555 210.015322 
L 152.541447 235.016407 
L 153.061339 100.751322 
L 153.581231 198.903729 
L 153.841176 158.16122 
L 154.101122 171.124746 
L 154.361068 161.865085 
L 154.621014 120.19661 
L 154.88096 165.568949 
L 155.140906 161.865085 
L 155.400852 132.234169 
L 155.660798 200.755661 
L 155.920744 154.457356 
L 156.18069 215.571119 
L 156.440636 161.865085 
L 156.700581 160.013153 
L 156.960527 185.940203 
L 157.480419 134.086102 
L 158.000311 213.719186 
L 158.520203 134.086102 
L 158.780149 182.236339 
L 159.040095 172.976678 
L 159.300041 202.607593 
L 159.559986 150.753492 
L 159.819932 185.940203 
L 160.079878 165.568949 
L 160.339824 169.272814 
L 160.59977 180.384407 
L 160.859716 198.903729 
L 161.119662 163.717017 
L 161.379608 180.384407 
L 161.639554 87.787797 
L 161.8995 191.496 
L 162.159446 176.680542 
L 162.419391 232.238508 
L 162.679337 123.900475 
L 162.939283 227.608678 
L 163.199229 85.935864 
L 163.459175 172.976678 
L 163.979067 143.345763 
L 164.239013 221.126915 
L 164.498959 121.122576 
L 164.758905 134.086102 
L 165.018851 97.047458 
L 165.538742 193.347932 
L 165.798688 145.197695 
L 166.058634 219.274983 
L 166.31858 185.940203 
L 166.578526 195.199864 
L 166.838472 115.56678 
L 167.098418 176.680542 
L 167.358364 169.272814 
L 167.878256 82.232 
L 168.138201 202.607593 
L 168.398147 161.865085 
L 168.658093 218.349017 
L 168.918039 174.82861 
L 169.177985 185.940203 
L 169.697877 132.234169 
L 169.957823 135.938034 
L 170.217769 165.568949 
L 170.477715 176.680542 
L 170.737661 197.051797 
L 171.257552 108.159051 
L 171.517498 126.678373 
L 171.777444 191.496 
L 172.03739 56.304949 
L 172.297336 148.901559 
L 172.817228 148.901559 
L 173.077174 119.270644 
L 173.33712 167.420881 
L 173.597066 163.717017 
L 174.116957 119.270644 
L 174.376903 158.16122 
L 174.636849 148.901559 
L 174.896795 91.491661 
L 175.156741 165.568949 
L 175.416687 104.455186 
L 175.936579 145.197695 
L 176.196525 204.459525 
L 176.456471 160.013153 
L 176.716416 139.641898 
L 176.976362 169.272814 
L 177.236308 117.418712 
L 177.496254 154.457356 
L 177.7562 159.087186 
L 178.016146 101.677288 
L 178.276092 143.345763 
L 178.536038 135.938034 
L 178.795984 163.717017 
L 179.05593 128.530305 
L 179.315876 135.938034 
L 179.575822 134.086102 
L 179.835767 115.56678 
L 180.095713 122.974508 
L 180.355659 156.309288 
L 180.615605 154.457356 
L 180.875551 102.603254 
L 181.135497 180.384407 
L 181.395443 189.644068 
L 181.655389 204.459525 
L 181.915335 198.903729 
L 182.175281 143.345763 
L 182.435227 156.309288 
L 182.695172 215.571119 
L 182.955118 150.753492 
L 183.215064 161.865085 
L 183.47501 161.865085 
L 183.734956 163.717017 
L 183.994902 134.086102 
L 184.254848 154.457356 
L 184.514794 128.530305 
L 184.77474 126.678373 
L 185.034686 134.086102 
L 185.294632 63.712678 
L 185.554577 156.309288 
L 186.074469 58.156881 
L 186.334415 147.049627 
L 186.594361 98.89939 
L 186.854307 172.976678 
L 187.634145 120.19661 
L 187.894091 158.16122 
L 188.413982 91.491661 
L 188.673928 80.380068 
L 188.933874 152.605424 
L 189.19382 161.865085 
L 189.453766 115.56678 
L 189.713712 111.862915 
L 189.973658 89.639729 
L 190.233604 101.677288 
L 190.49355 85.935864 
L 190.753496 95.195525 
L 191.273387 152.605424 
L 191.533333 152.605424 
L 192.053225 108.159051 
L 192.313171 132.234169 
L 192.573117 124.826441 
L 192.833063 152.605424 
L 193.093009 124.826441 
L 193.352955 128.530305 
L 193.612901 163.717017 
L 193.872847 108.159051 
L 194.132792 126.678373 
L 194.392738 111.862915 
L 194.652684 148.901559 
L 194.91263 121.122576 
L 195.172576 147.049627 
L 195.432522 128.530305 
L 195.692468 180.384407 
L 195.952414 102.603254 
L 196.21236 158.16122 
L 196.472306 91.491661 
L 196.732252 208.16339 
L 196.992197 89.639729 
L 197.252143 84.083932 
L 197.512089 137.789966 
L 197.772035 139.641898 
L 198.031981 222.978847 
L 198.291927 217.423051 
L 198.551873 153.53139 
L 198.811819 212.79322 
L 199.071765 174.82861 
L 199.331711 211.867254 
L 199.591657 161.865085 
L 199.851602 139.641898 
L 200.111548 158.16122 
L 200.371494 235.942373 
L 200.63144 106.307119 
L 200.891386 230.386576 
L 201.151332 184.088271 
L 201.411278 189.644068 
L 201.671224 160.013153 
L 201.93117 150.753492 
L 202.191116 152.605424 
L 202.451062 213.719186 
L 202.711007 134.086102 
L 203.230899 235.942373 
L 203.490845 119.270644 
L 203.750791 160.013153 
L 204.010737 154.457356 
L 204.270683 234.090441 
L 204.530629 128.530305 
L 204.790575 156.309288 
L 205.050521 204.459525 
L 205.310467 134.086102 
L 205.570412 176.680542 
L 205.830358 178.532475 
L 206.090304 189.644068 
L 206.35025 187.792136 
L 206.610196 228.534644 
L 206.870142 250.757831 
L 207.130088 226.682712 
L 207.390034 137.789966 
L 207.64998 202.607593 
L 207.909926 137.789966 
L 208.169872 210.015322 
L 208.429817 206.311458 
L 208.689763 210.015322 
L 208.949709 166.494915 
L 209.209655 224.83078 
L 209.469601 163.717017 
L 209.729547 221.126915 
L 209.989493 160.013153 
L 210.249439 156.309288 
L 210.509385 208.16339 
L 210.769331 167.420881 
L 211.029277 68.342508 
L 211.289222 193.347932 
L 211.549168 191.496 
L 211.809114 258.165559 
L 212.329006 152.605424 
L 212.848898 187.792136 
L 213.108844 230.386576 
L 213.36879 171.124746 
L 213.628736 185.014237 
L 213.888682 221.126915 
L 214.148627 198.903729 
L 214.408573 139.641898 
L 214.668519 167.420881 
L 214.928465 243.350102 
L 215.188411 161.865085 
L 215.448357 158.16122 
L 215.708303 197.051797 
L 216.228195 152.605424 
L 216.488141 126.678373 
L 216.748087 121.122576 
L 217.008032 149.827525 
L 217.267978 193.347932 
L 217.527924 147.049627 
L 217.78787 172.976678 
L 218.047816 99.825356 
L 218.307762 178.532475 
L 218.567708 217.423051 
L 218.827654 163.717017 
L 219.0876 184.088271 
L 219.347546 152.605424 
L 219.607492 200.755661 
L 219.867437 176.680542 
L 220.127383 135.938034 
L 220.387329 191.496 
L 220.647275 204.459525 
L 220.907221 160.013153 
L 221.167167 143.345763 
L 221.427113 221.126915 
L 221.687059 243.350102 
L 222.206951 156.309288 
L 222.466897 234.090441 
L 222.726842 111.862915 
L 222.986788 204.459525 
L 223.246734 193.347932 
L 223.50668 171.124746 
L 223.766626 114.640814 
L 224.286518 176.680542 
L 224.546464 167.420881 
L 224.80641 147.049627 
L 225.066356 213.719186 
L 225.326302 230.386576 
L 225.586247 183.162305 
L 225.846193 226.682712 
L 226.106139 218.349017 
L 226.366085 158.16122 
L 226.626031 217.423051 
L 226.885977 72.972339 
L 227.145923 208.16339 
L 227.405869 157.235254 
L 227.665815 163.717017 
L 227.925761 128.530305 
L 228.185707 211.867254 
L 228.445652 148.901559 
L 228.705598 198.903729 
L 228.965544 130.382237 
L 229.22549 180.384407 
L 229.485436 195.199864 
L 229.745382 165.568949 
L 230.005328 204.459525 
L 230.265274 128.530305 
L 230.52522 167.420881 
L 230.785166 148.901559 
L 231.045112 115.56678 
L 231.305057 182.236339 
L 231.565003 172.976678 
L 231.824949 219.274983 
L 232.084895 139.641898 
L 232.344841 172.976678 
L 232.604787 117.418712 
L 232.864733 215.571119 
L 233.124679 140.567864 
L 233.384625 224.83078 
L 233.644571 189.644068 
L 233.904517 230.386576 
L 234.164462 158.16122 
L 234.424408 187.792136 
L 234.684354 158.16122 
L 234.9443 219.274983 
L 235.204246 163.717017 
L 235.464192 182.236339 
L 235.724138 174.82861 
L 235.984084 193.347932 
L 236.24403 221.126915 
L 236.503976 176.680542 
L 236.763922 167.420881 
L 237.023867 203.533559 
L 237.283813 172.976678 
L 237.543759 215.571119 
L 237.803705 222.978847 
L 238.063651 160.013153 
L 238.323597 150.753492 
L 238.583543 172.976678 
L 238.843489 158.16122 
L 239.103435 100.751322 
L 239.363381 178.532475 
L 239.623327 176.680542 
L 239.883272 98.89939 
L 240.143218 172.050712 
L 240.403164 169.272814 
L 240.66311 228.534644 
L 240.923056 154.457356 
L 241.183002 163.717017 
L 241.442948 104.455186 
L 241.702894 187.792136 
L 241.96284 126.678373 
L 242.222786 171.124746 
L 242.482732 184.088271 
L 242.742677 145.197695 
L 243.002623 208.16339 
L 243.262569 184.088271 
L 243.522515 130.382237 
L 243.782461 191.496 
L 244.042407 167.420881 
L 244.302353 219.274983 
L 244.562299 139.641898 
L 244.822245 210.941288 
L 245.082191 200.755661 
L 245.342137 172.976678 
L 245.602082 228.534644 
L 245.862028 162.791051 
L 246.121974 198.903729 
L 246.38192 191.496 
L 246.641866 160.013153 
L 246.901812 165.568949 
L 247.161758 147.049627 
L 247.421704 180.384407 
L 247.68165 154.457356 
L 247.941596 148.901559 
L 248.461487 202.607593 
L 248.981379 161.865085 
L 249.241325 172.976678 
L 249.501271 132.234169 
L 249.761217 152.605424 
L 250.021163 221.126915 
L 250.281109 202.607593 
L 250.541055 132.234169 
L 250.801001 158.16122 
L 251.060947 210.015322 
L 251.320892 160.013153 
L 251.580838 148.901559 
L 251.840784 193.347932 
L 252.10073 215.571119 
L 252.360676 161.865085 
L 252.620622 73.898305 
L 252.880568 154.457356 
L 253.140514 160.013153 
L 253.40046 147.049627 
L 253.920352 204.459525 
L 254.180297 213.719186 
L 254.440243 237.794305 
L 254.700189 171.124746 
L 254.960135 139.641898 
L 255.220081 135.938034 
L 255.480027 161.865085 
L 255.739973 160.013153 
L 255.999919 163.717017 
L 256.259865 221.126915 
L 256.779757 148.901559 
L 257.039703 184.088271 
L 257.299648 197.051797 
L 257.559594 145.197695 
L 257.81954 239.646237 
L 258.079486 202.607593 
L 258.339432 123.900475 
L 258.599378 147.049627 
L 258.859324 181.310373 
L 259.11927 174.82861 
L 259.379216 137.789966 
L 259.639162 176.680542 
L 259.899108 191.496 
L 260.159053 113.714847 
L 260.678945 189.644068 
L 260.938891 204.459525 
L 261.198837 141.493831 
L 261.458783 146.123661 
L 261.718729 130.382237 
L 261.978675 221.126915 
L 262.238621 172.976678 
L 262.758513 200.755661 
L 263.018458 171.124746 
L 263.278404 197.977763 
L 263.53835 198.903729 
L 263.798296 189.644068 
L 264.058242 158.16122 
L 264.318188 185.940203 
L 264.578134 228.534644 
L 264.83808 176.680542 
L 265.098026 263.721356 
L 265.357972 171.124746 
L 265.617918 193.347932 
L 265.877863 189.644068 
L 266.397755 219.274983 
L 266.657701 217.423051 
L 267.177593 154.457356 
L 267.437539 243.350102 
L 267.697485 204.459525 
L 267.957431 222.052881 
L 268.217377 202.607593 
L 268.477323 113.714847 
L 268.997214 226.682712 
L 269.25716 158.16122 
L 269.777052 222.978847 
L 270.036998 215.571119 
L 270.296944 202.607593 
L 270.55689 228.534644 
L 270.816836 163.717017 
L 271.076782 182.236339 
L 271.336728 211.867254 
L 271.596673 134.086102 
L 271.856619 132.234169 
L 272.116565 208.16339 
L 272.376511 147.975593 
L 272.636457 167.420881 
L 272.896403 108.159051 
L 273.676241 226.682712 
L 273.936187 237.794305 
L 274.196133 235.942373 
L 274.456078 178.532475 
L 274.716024 186.866169 
L 274.97597 122.974508 
L 275.235916 134.086102 
L 275.495862 195.199864 
L 275.755808 137.789966 
L 276.015754 178.532475 
L 276.2757 161.865085 
L 276.535646 202.607593 
L 276.795592 150.753492 
L 277.055538 143.345763 
L 277.315483 226.682712 
L 277.575429 226.682712 
L 277.835375 202.607593 
L 278.095321 167.420881 
L 278.355267 160.013153 
L 278.615213 169.272814 
L 278.875159 113.714847 
L 279.135105 104.455186 
L 279.395051 141.493831 
L 279.654997 115.56678 
L 279.914943 139.641898 
L 280.174888 108.159051 
L 280.434834 174.82861 
L 280.69478 158.16122 
L 280.954726 204.459525 
L 281.214672 130.382237 
L 281.474618 176.680542 
L 281.99451 102.603254 
L 282.254456 106.307119 
L 282.514402 126.678373 
L 282.774348 78.528136 
L 283.034293 139.641898 
L 283.294239 169.272814 
L 283.554185 110.010983 
L 283.814131 106.307119 
L 284.074077 104.455186 
L 284.334023 130.382237 
L 284.593969 134.086102 
L 284.853915 141.493831 
L 285.113861 172.976678 
L 285.373807 176.680542 
L 285.633753 52.601085 
L 285.893698 152.605424 
L 286.153644 110.936949 
L 286.41359 139.641898 
L 286.673536 97.047458 
L 286.933482 111.862915 
L 287.193428 85.935864 
L 287.453374 134.086102 
L 287.71332 116.492746 
L 287.973266 125.752407 
L 288.233212 148.901559 
L 288.493158 82.232 
L 288.753103 180.384407 
L 289.013049 93.343593 
L 289.272995 117.418712 
L 289.532941 126.678373 
L 289.792887 67.416542 
L 290.052833 126.678373 
L 290.572725 150.753492 
L 290.832671 160.013153 
L 291.092617 187.792136 
L 291.612508 67.416542 
L 291.872454 124.826441 
L 292.1324 126.678373 
L 292.392346 184.088271 
L 292.652292 158.16122 
L 292.912238 158.16122 
L 293.172184 122.974508 
L 293.43213 154.457356 
L 293.692076 152.605424 
L 293.952022 128.530305 
L 294.211968 154.457356 
L 294.471913 152.605424 
L 294.731859 195.199864 
L 294.991805 128.530305 
L 295.251751 197.051797 
L 295.511697 122.974508 
L 295.771643 124.826441 
L 296.031589 145.197695 
L 296.291535 219.274983 
L 296.551481 160.013153 
L 296.811427 165.568949 
L 297.071373 156.309288 
L 297.331318 185.940203 
L 297.85121 98.89939 
L 298.111156 145.197695 
L 298.371102 167.420881 
L 298.631048 178.532475 
L 298.890994 158.16122 
L 299.15094 150.753492 
L 299.410886 187.792136 
L 299.670832 117.418712 
L 300.450669 184.088271 
L 300.710615 154.457356 
L 300.970561 97.047458 
L 301.230507 100.751322 
L 301.490453 224.83078 
L 301.750399 141.493831 
L 302.010345 221.126915 
L 302.270291 145.197695 
L 302.530237 130.382237 
L 302.790183 154.457356 
L 303.050128 156.309288 
L 303.310074 169.272814 
L 303.57002 169.272814 
L 303.829966 178.532475 
L 304.089912 172.976678 
L 304.609804 128.530305 
L 304.86975 164.642983 
L 305.129696 104.455186 
L 305.389642 76.676203 
L 305.649588 163.717017 
L 306.169479 54.453017 
L 306.429425 206.311458 
L 306.689371 102.603254 
L 306.949317 47.045288 
L 307.209263 117.418712 
L 307.469209 108.159051 
L 307.729155 176.680542 
L 307.989101 167.420881 
L 308.249047 148.901559 
L 308.508993 147.049627 
L 308.768938 178.532475 
L 309.028884 67.416542 
L 309.28883 117.418712 
L 309.548776 139.641898 
L 309.808722 135.938034 
L 310.068668 84.083932 
L 310.328614 163.717017 
L 310.58856 143.345763 
L 310.848506 27.6 
L 311.108452 135.938034 
L 311.368398 111.862915 
L 311.628343 186.866169 
L 311.888289 89.639729 
L 312.148235 132.234169 
L 312.408181 111.862915 
L 312.668127 101.677288 
L 312.928073 167.420881 
L 313.188019 110.010983 
L 313.447965 167.420881 
L 313.707911 95.195525 
L 314.227803 180.384407 
L 314.487748 109.085017 
L 314.747694 119.270644 
L 315.00764 67.416542 
L 315.267586 67.416542 
L 315.527532 122.974508 
L 315.787478 111.862915 
L 316.047424 145.197695 
L 316.30737 106.307119 
L 316.567316 110.010983 
L 316.827262 202.607593 
L 317.087208 113.714847 
L 317.347153 111.862915 
L 317.867045 158.16122 
L 318.126991 122.974508 
L 318.386937 108.159051 
L 318.906829 156.309288 
L 319.166775 52.601085 
L 319.426721 154.457356 
L 319.686667 135.938034 
L 319.946613 75.750237 
L 320.206558 140.567864 
L 320.466504 127.604339 
L 320.72645 122.048542 
L 320.986396 105.381153 
L 321.246342 123.900475 
L 321.506288 159.087186 
L 321.766234 137.789966 
L 322.02618 167.420881 
L 322.286126 176.680542 
L 322.546072 134.086102 
L 322.806018 124.826441 
L 323.065963 176.680542 
L 323.325909 176.680542 
L 323.585855 193.347932 
L 323.845801 50.749153 
L 324.105747 78.528136 
L 324.365693 184.088271 
L 324.625639 204.459525 
L 324.885585 154.457356 
L 325.145531 130.382237 
L 325.405477 180.384407 
L 325.665423 156.309288 
L 325.925368 211.867254 
L 326.185314 211.867254 
L 326.44526 124.826441 
L 326.705206 145.197695 
L 326.965152 60.008814 
L 327.225098 100.751322 
L 327.485044 119.270644 
L 327.74499 204.459525 
L 328.004936 198.903729 
L 328.264882 190.570034 
L 328.524828 154.457356 
L 328.784773 91.491661 
L 329.044719 178.532475 
L 329.304665 141.493831 
L 329.564611 121.122576 
L 329.824557 169.272814 
L 330.344449 111.862915 
L 330.604395 113.714847 
L 330.864341 141.493831 
L 331.124287 97.973424 
L 331.384233 139.641898 
L 331.644178 130.382237 
L 331.904124 171.124746 
L 332.16407 132.234169 
L 332.424016 155.383322 
L 332.683962 76.676203 
L 332.943908 195.199864 
L 333.203854 213.719186 
L 333.4638 163.717017 
L 333.723746 202.607593 
L 334.243638 191.496 
L 334.503584 135.938034 
L 334.763529 145.197695 
L 335.023475 202.607593 
L 335.283421 197.051797 
L 335.543367 204.459525 
L 335.803313 100.751322 
L 336.063259 231.312542 
L 336.323205 145.197695 
L 336.843097 161.865085 
L 337.103043 161.865085 
L 337.362989 174.82861 
L 337.622934 167.420881 
L 337.88288 176.680542 
L 338.142826 135.012068 
L 338.402772 120.19661 
L 338.662718 160.939119 
L 338.922664 171.124746 
L 339.18261 204.459525 
L 339.442556 174.82861 
L 339.702502 128.530305 
L 339.962448 165.568949 
L 340.222394 122.974508 
L 340.482339 149.827525 
L 340.742285 156.309288 
L 341.002231 189.644068 
L 341.262177 143.345763 
L 341.522123 172.976678 
L 341.782069 119.270644 
L 342.301961 206.311458 
L 342.561907 160.013153 
L 342.821853 197.051797 
L 343.081799 100.751322 
L 343.60169 195.199864 
L 343.861636 158.16122 
L 344.121582 213.719186 
L 344.381528 158.16122 
L 344.641474 217.423051 
L 344.90142 217.423051 
L 345.161366 168.346847 
L 345.681258 195.199864 
L 345.941204 126.678373 
L 346.201149 158.16122 
L 346.461095 97.047458 
L 346.721041 152.605424 
L 346.980987 180.384407 
L 347.240933 226.682712 
L 347.500879 167.420881 
L 347.760825 224.83078 
L 348.020771 176.680542 
L 348.540663 224.83078 
L 348.800609 171.124746 
L 349.060554 172.976678 
L 349.3205 234.090441 
L 349.580446 152.605424 
L 349.840392 135.938034 
L 350.100338 178.532475 
L 350.360284 124.826441 
L 350.62023 178.532475 
L 351.140122 143.345763 
L 351.400068 213.719186 
L 351.660014 154.457356 
L 351.919959 224.83078 
L 352.179905 165.568949 
L 352.439851 211.867254 
L 352.699797 184.088271 
L 352.959743 172.976678 
L 353.219689 126.678373 
L 353.479635 182.236339 
L 353.739581 206.311458 
L 353.999527 184.088271 
L 354.259473 148.901559 
L 354.519419 227.608678 
L 354.779364 224.83078 
L 355.03931 113.714847 
L 355.299256 134.086102 
L 355.559202 219.274983 
L 355.819148 232.238508 
L 356.079094 226.682712 
L 356.33904 145.197695 
L 356.598986 176.680542 
L 356.858932 122.974508 
L 357.118878 171.124746 
L 357.378824 122.974508 
L 357.898715 172.976678 
L 358.158661 156.309288 
L 358.418607 163.717017 
L 358.678553 202.607593 
L 358.938499 182.236339 
L 359.198445 139.641898 
L 359.458391 213.719186 
L 359.978283 141.493831 
L 360.75812 182.236339 
L 361.018066 174.82861 
L 361.278012 172.976678 
L 361.537958 163.717017 
L 361.797904 200.755661 
L 362.05785 148.901559 
L 362.317796 137.789966 
L 362.577742 117.418712 
L 363.097634 185.940203 
L 363.357579 97.047458 
L 363.617525 245.202034 
L 363.877471 228.534644 
L 364.137417 224.83078 
L 364.397363 232.238508 
L 364.917255 197.051797 
L 365.177201 97.047458 
L 365.437147 210.015322 
L 365.697093 169.272814 
L 365.957039 165.568949 
L 366.216984 158.16122 
L 366.47693 130.382237 
L 366.736876 193.347932 
L 366.996822 129.456271 
L 367.256768 200.755661 
L 367.516714 160.013153 
L 367.77666 182.236339 
L 368.036606 137.789966 
L 368.296552 171.124746 
L 368.556498 158.16122 
L 369.076389 172.976678 
L 369.336335 235.942373 
L 369.596281 176.680542 
L 369.856227 67.416542 
L 370.116173 202.607593 
L 370.376119 187.792136 
L 370.636065 182.236339 
L 370.896011 185.940203 
L 371.155957 210.015322 
L 371.415903 128.530305 
L 371.675849 204.459525 
L 371.935794 152.605424 
L 372.19574 156.309288 
L 372.455686 148.901559 
L 372.715632 100.751322 
L 372.975578 216.497085 
L 373.235524 191.496 
L 373.49547 121.122576 
L 373.755416 163.717017 
L 374.015362 134.086102 
L 374.275308 174.82861 
L 374.535254 193.347932 
L 374.795199 187.792136 
L 375.055145 122.048542 
L 375.315091 200.755661 
L 375.575037 180.384407 
L 375.834983 178.532475 
L 376.094929 198.903729 
L 376.354875 132.234169 
L 376.614821 98.89939 
L 376.874767 248.905898 
L 377.134713 213.719186 
L 377.394659 106.307119 
L 377.91455 254.461695 
L 378.174496 198.903729 
L 378.434442 222.978847 
L 378.694388 163.717017 
L 378.954334 185.940203 
L 379.21428 163.717017 
L 379.474226 217.423051 
L 379.734172 161.865085 
L 379.994118 148.901559 
L 380.254064 221.126915 
L 380.773955 113.714847 
L 381.033901 212.79322 
L 381.293847 191.496 
L 381.553793 200.755661 
L 381.813739 222.978847 
L 382.073685 213.719186 
L 382.333631 215.571119 
L 382.593577 141.493831 
L 382.853523 182.236339 
L 383.113469 160.013153 
L 383.373414 167.420881 
L 383.63336 209.089356 
L 383.893306 95.195525 
L 384.153252 158.16122 
L 384.413198 165.568949 
L 384.673144 141.493831 
L 384.93309 230.386576 
L 385.193036 193.347932 
L 385.452982 178.532475 
L 385.712928 132.234169 
L 385.972874 154.457356 
L 386.232819 197.051797 
L 386.492765 122.974508 
L 387.012657 230.386576 
L 387.272603 219.274983 
L 387.532549 60.008814 
L 387.792495 228.534644 
L 388.052441 167.420881 
L 388.312387 135.938034 
L 388.572333 193.347932 
L 388.832279 160.013153 
L 389.092224 176.680542 
L 389.35217 206.311458 
L 389.612116 160.013153 
L 390.132008 115.56678 
L 390.391954 154.457356 
L 390.6519 176.680542 
L 390.911846 145.197695 
L 391.171792 160.013153 
L 391.431738 208.16339 
L 391.691684 172.976678 
L 391.951629 154.457356 
L 392.211575 158.16122 
L 392.471521 175.754576 
L 392.731467 239.646237 
L 392.991413 154.457356 
L 393.251359 163.717017 
L 393.511305 198.903729 
L 394.031197 143.345763 
L 394.291143 139.641898 
L 394.551089 187.792136 
L 394.811034 137.789966 
L 395.07098 213.719186 
L 395.330926 187.792136 
L 395.590872 174.82861 
L 395.850818 150.753492 
L 396.110764 156.309288 
L 396.37071 128.530305 
L 396.630656 156.309288 
L 396.890602 158.16122 
L 397.150548 201.681627 
L 397.410494 141.493831 
L 397.670439 182.236339 
L 397.930385 248.905898 
L 398.190331 161.865085 
L 398.450277 150.753492 
L 398.710223 219.274983 
L 399.230115 163.717017 
L 399.490061 185.940203 
L 399.750007 165.568949 
L 400.009953 102.603254 
L 400.269899 97.047458 
L 400.78979 258.165559 
L 401.309682 152.605424 
L 401.569628 161.865085 
L 401.829574 191.496 
L 402.08952 189.644068 
L 402.349466 135.938034 
L 402.609412 132.234169 
L 402.869358 160.013153 
L 403.129304 132.234169 
L 403.389249 210.015322 
L 403.649195 200.755661 
L 403.909141 237.794305 
L 404.169087 132.234169 
L 404.429033 185.940203 
L 404.688979 163.717017 
L 405.208871 198.903729 
L 405.468817 143.345763 
L 405.728763 126.678373 
L 405.988709 185.940203 
L 406.248654 202.607593 
L 406.5086 186.866169 
L 406.768546 204.459525 
L 407.288438 189.644068 
L 407.548384 145.197695 
L 407.80833 160.013153 
L 408.068276 256.313627 
L 408.328222 200.755661 
L 408.588168 210.015322 
L 408.848114 185.940203 
L 409.108059 147.049627 
L 409.368005 250.757831 
L 409.627951 141.493831 
L 409.887897 202.607593 
L 410.407789 145.197695 
L 410.667735 184.088271 
L 410.927681 141.493831 
L 411.187627 143.345763 
L 411.447573 128.530305 
L 411.707519 161.865085 
L 411.967465 171.124746 
L 412.22741 134.086102 
L 412.487356 210.015322 
L 412.747302 145.197695 
L 413.007248 143.345763 
L 413.267194 200.755661 
L 413.52714 169.272814 
L 413.787086 158.16122 
L 414.047032 211.867254 
L 414.306978 158.16122 
L 414.566924 163.717017 
L 414.82687 163.717017 
L 415.086815 149.827525 
L 415.346761 184.088271 
L 415.606707 161.865085 
L 415.866653 156.309288 
L 416.126599 160.013153 
L 416.386545 217.423051 
L 416.646491 210.015322 
L 416.906437 198.903729 
L 417.166383 122.974508 
L 417.426329 154.457356 
L 417.686275 221.126915 
L 417.94622 201.681627 
L 418.206166 206.311458 
L 418.726058 191.496 
L 418.986004 184.088271 
L 419.24595 197.051797 
L 419.505896 135.938034 
L 419.765842 169.272814 
L 420.025788 135.938034 
L 420.285734 143.345763 
L 420.54568 217.423051 
L 420.805625 178.532475 
L 421.065571 110.010983 
L 421.325517 150.753492 
L 421.585463 258.165559 
L 421.845409 110.010983 
L 422.105355 230.386576 
L 422.365301 122.048542 
L 422.625247 172.976678 
L 422.885193 135.938034 
L 423.145139 147.049627 
L 423.405085 215.571119 
L 423.66503 179.458441 
L 423.924976 248.905898 
L 424.184922 104.455186 
L 424.444868 148.901559 
L 424.704814 156.309288 
L 424.96476 202.607593 
L 425.224706 184.088271 
L 425.484652 252.609763 
L 425.744598 193.347932 
L 426.004544 185.940203 
L 426.26449 191.496 
L 426.524435 148.901559 
L 426.784381 172.976678 
L 427.044327 102.603254 
L 427.304273 198.903729 
L 427.564219 217.423051 
L 427.824165 154.457356 
L 428.084111 126.678373 
L 428.344057 141.493831 
L 428.604003 148.901559 
L 428.863949 161.865085 
L 429.123895 197.051797 
L 429.38384 164.642983 
L 429.643786 182.236339 
L 429.903732 84.083932 
L 430.163678 182.236339 
L 430.423624 142.419797 
L 430.68357 227.608678 
L 430.943516 204.459525 
L 431.203462 126.678373 
L 431.463408 193.347932 
L 431.723354 177.606508 
L 431.9833 213.719186 
L 432.503191 148.901559 
L 432.763137 200.755661 
L 433.023083 121.122576 
L 433.283029 97.047458 
L 433.542975 128.530305 
L 433.802921 77.602169 
L 434.062867 119.270644 
L 434.322813 137.789966 
L 434.582759 124.826441 
L 434.842705 191.496 
L 435.10265 213.719186 
L 435.362596 215.571119 
L 435.622542 210.015322 
L 436.142434 156.309288 
L 436.40238 152.605424 
L 436.662326 239.646237 
L 436.922272 200.755661 
L 437.182218 130.382237 
L 437.70211 148.901559 
L 437.962055 113.714847 
L 438.222001 95.195525 
L 438.481947 198.903729 
L 438.741893 171.124746 
L 439.001839 121.122576 
L 439.261785 191.496 
L 439.521731 163.717017 
L 439.781677 200.755661 
L 440.041623 219.274983 
L 440.301569 217.423051 
L 440.561515 176.680542 
L 440.82146 237.794305 
L 441.081406 137.789966 
L 441.341352 158.16122 
L 441.601298 135.938034 
L 441.861244 174.82861 
L 442.12119 252.609763 
L 442.381136 184.088271 
L 442.641082 210.015322 
L 443.160974 185.940203 
L 443.42092 165.568949 
L 443.940811 204.459525 
L 444.200757 154.457356 
L 444.460703 194.273898 
L 444.720649 124.826441 
L 444.980595 230.386576 
L 445.240541 187.792136 
L 445.500487 189.644068 
L 445.760433 167.420881 
L 446.020379 213.719186 
L 446.280325 124.826441 
L 446.54027 232.238508 
L 446.800216 180.384407 
L 447.060162 174.82861 
L 447.320108 182.236339 
L 447.580054 150.753492 
L 447.84 180.384407 
L 447.84 180.384407 
" style="fill:none;stroke:#4c72b0;stroke-linecap:round;stroke-width:1.75;"/>
   </g>
   <g id="patch_3">
    <path d="M 63.38 300.76 
L 63.38 27.6 
" style="fill:none;"/>
   </g>
   <g id="patch_4">
    <path d="M 447.84 300.76 
L 447.84 27.6 
" style="fill:none;"/>
   </g>
   <g id="patch_5">
    <path d="M 63.38 300.76 
L 447.84 300.76 
" style="fill:none;"/>
   </g>
   <g id="patch_6">
    <path d="M 63.38 27.6 
L 447.84 27.6 
" style="fill:none;"/>
   </g>
   <g id="text_12">
    <!-- CPU monitor -->
    <defs>
     <path d="M 18.3125 70.21875 
L 18.3125 54.6875 
L 36.8125 54.6875 
L 36.8125 47.703125 
L 18.3125 47.703125 
L 18.3125 18.015625 
Q 18.3125 11.328125 20.140625 9.421875 
Q 21.96875 7.515625 27.59375 7.515625 
L 36.8125 7.515625 
L 36.8125 0 
L 27.59375 0 
Q 17.1875 0 13.234375 3.875 
Q 9.28125 7.765625 9.28125 18.015625 
L 9.28125 47.703125 
L 2.6875 47.703125 
L 2.6875 54.6875 
L 9.28125 54.6875 
L 9.28125 70.21875 
z
" id="DejaVuSans-74"/>
     <path d="M 41.109375 46.296875 
Q 39.59375 47.171875 37.8125 47.578125 
Q 36.03125 48 33.890625 48 
Q 26.265625 48 22.1875 43.046875 
Q 18.109375 38.09375 18.109375 28.8125 
L 18.109375 0 
L 9.078125 0 
L 9.078125 54.6875 
L 18.109375 54.6875 
L 18.109375 46.1875 
Q 20.953125 51.171875 25.484375 53.578125 
Q 30.03125 56 36.53125 56 
Q 37.453125 56 38.578125 55.875 
Q 39.703125 55.765625 41.0625 55.515625 
z
" id="DejaVuSans-72"/>
    </defs>
    <g style="fill:#262626;" transform="translate(218.029375 21.6)scale(0.12 -0.12)">
     <use xlink:href="#DejaVuSans-43"/>
     <use x="69.824219" xlink:href="#DejaVuSans-50"/>
     <use x="130.126953" xlink:href="#DejaVuSans-55"/>
     <use x="203.320312" xlink:href="#DejaVuSans-20"/>
     <use x="235.107422" xlink:href="#DejaVuSans-6d"/>
     <use x="332.519531" xlink:href="#DejaVuSans-6f"/>
     <use x="393.701172" xlink:href="#DejaVuSans-6e"/>
     <use x="457.080078" xlink:href="#DejaVuSans-69"/>
     <use x="484.863281" xlink:href="#DejaVuSans-74"/>
     <use x="524.072266" xlink:href="#DejaVuSans-6f"/>
     <use x="585.253906" xlink:href="#DejaVuSans-72"/>
    </g>
   </g>
  </g>
 </g>
 <defs>
  <clipPath id="p14b8bffc8a">
   <rect height="273.16" width="384.46" x="63.38" y="27.6"/>
  </clipPath>
 </defs>
</svg>
