<?xml version="1.0" encoding="utf-8" standalone="no"?>
<!DOCTYPE svg PUBLIC "-//W3C//DTD SVG 1.1//EN"
  "http://www.w3.org/Graphics/SVG/1.1/DTD/svg11.dtd">
<!-- Created with matplotlib (http://matplotlib.org/) -->
<svg height="345pt" version="1.1" viewBox="0 0 460 345" width="460pt" xmlns="http://www.w3.org/2000/svg" xmlns:xlink="http://www.w3.org/1999/xlink">
 <defs>
  <style type="text/css">
*{stroke-linecap:butt;stroke-linejoin:round;}
  </style>
 </defs>
 <g id="figure_1">
  <g id="patch_1">
   <path d="M 0 345.6 
L 460.8 345.6 
L 460.8 0 
L 0 0 
z
" style="fill:#ffffff;"/>
  </g>
  <g id="axes_1">
   <g id="patch_2">
    <path d="M 49.52 142.886299 
L 447.84 142.886299 
L 447.84 41.472 
L 49.52 41.472 
z
" style="fill:#eaeaf2;"/>
   </g>
   <g id="matplotlib.axis_1">
    <g id="xtick_1">
     <g id="line2d_1">
      <path clip-path="url(#pd9eb9ae4a7)" d="M 49.52 142.886299 
L 49.52 41.472 
" style="fill:none;stroke:#ffffff;stroke-linecap:round;"/>
     </g>
     <g id="line2d_2"/>
     <g id="text_1">
      <!-- 0.0 -->
      <defs>
       <path d="M 31.78125 66.40625 
Q 24.171875 66.40625 20.328125 58.90625 
Q 16.5 51.421875 16.5 36.375 
Q 16.5 21.390625 20.328125 13.890625 
Q 24.171875 6.390625 31.78125 6.390625 
Q 39.453125 6.390625 43.28125 13.890625 
Q 47.125 21.390625 47.125 36.375 
Q 47.125 51.421875 43.28125 58.90625 
Q 39.453125 66.40625 31.78125 66.40625 
z
M 31.78125 74.21875 
Q 44.046875 74.21875 50.515625 64.515625 
Q 56.984375 54.828125 56.984375 36.375 
Q 56.984375 17.96875 50.515625 8.265625 
Q 44.046875 -1.421875 31.78125 -1.421875 
Q 19.53125 -1.421875 13.0625 8.265625 
Q 6.59375 17.96875 6.59375 36.375 
Q 6.59375 54.828125 13.0625 64.515625 
Q 19.53125 74.21875 31.78125 74.21875 
z
" id="DejaVuSans-30"/>
       <path d="M 10.6875 12.40625 
L 21 12.40625 
L 21 0 
L 10.6875 0 
z
" id="DejaVuSans-2e"/>
      </defs>
      <g style="fill:#262626;" transform="translate(41.568438 157.484737)scale(0.1 -0.1)">
       <use xlink:href="#DejaVuSans-30"/>
       <use x="63.623047" xlink:href="#DejaVuSans-2e"/>
       <use x="95.410156" xlink:href="#DejaVuSans-30"/>
      </g>
     </g>
    </g>
    <g id="xtick_2">
     <g id="line2d_3">
      <path clip-path="url(#pd9eb9ae4a7)" d="M 110.036273 142.886299 
L 110.036273 41.472 
" style="fill:none;stroke:#ffffff;stroke-linecap:round;"/>
     </g>
     <g id="line2d_4"/>
     <g id="text_2">
      <!-- 0.2 -->
      <defs>
       <path d="M 19.1875 8.296875 
L 53.609375 8.296875 
L 53.609375 0 
L 7.328125 0 
L 7.328125 8.296875 
Q 12.9375 14.109375 22.625 23.890625 
Q 32.328125 33.6875 34.8125 36.53125 
Q 39.546875 41.84375 41.421875 45.53125 
Q 43.3125 49.21875 43.3125 52.78125 
Q 43.3125 58.59375 39.234375 62.25 
Q 35.15625 65.921875 28.609375 65.921875 
Q 23.96875 65.921875 18.8125 64.3125 
Q 13.671875 62.703125 7.8125 59.421875 
L 7.8125 69.390625 
Q 13.765625 71.78125 18.9375 73 
Q 24.125 74.21875 28.421875 74.21875 
Q 39.75 74.21875 46.484375 68.546875 
Q 53.21875 62.890625 53.21875 53.421875 
Q 53.21875 48.921875 51.53125 44.890625 
Q 49.859375 40.875 45.40625 35.40625 
Q 44.1875 33.984375 37.640625 27.21875 
Q 31.109375 20.453125 19.1875 8.296875 
z
" id="DejaVuSans-32"/>
      </defs>
      <g style="fill:#262626;" transform="translate(102.08471 157.484737)scale(0.1 -0.1)">
       <use xlink:href="#DejaVuSans-30"/>
       <use x="63.623047" xlink:href="#DejaVuSans-2e"/>
       <use x="95.410156" xlink:href="#DejaVuSans-32"/>
      </g>
     </g>
    </g>
    <g id="xtick_3">
     <g id="line2d_5">
      <path clip-path="url(#pd9eb9ae4a7)" d="M 170.552546 142.886299 
L 170.552546 41.472 
" style="fill:none;stroke:#ffffff;stroke-linecap:round;"/>
     </g>
     <g id="line2d_6"/>
     <g id="text_3">
      <!-- 0.4 -->
      <defs>
       <path d="M 37.796875 64.3125 
L 12.890625 25.390625 
L 37.796875 25.390625 
z
M 35.203125 72.90625 
L 47.609375 72.90625 
L 47.609375 25.390625 
L 58.015625 25.390625 
L 58.015625 17.1875 
L 47.609375 17.1875 
L 47.609375 0 
L 37.796875 0 
L 37.796875 17.1875 
L 4.890625 17.1875 
L 4.890625 26.703125 
z
" id="DejaVuSans-34"/>
      </defs>
      <g style="fill:#262626;" transform="translate(162.600983 157.484737)scale(0.1 -0.1)">
       <use xlink:href="#DejaVuSans-30"/>
       <use x="63.623047" xlink:href="#DejaVuSans-2e"/>
       <use x="95.410156" xlink:href="#DejaVuSans-34"/>
      </g>
     </g>
    </g>
    <g id="xtick_4">
     <g id="line2d_7">
      <path clip-path="url(#pd9eb9ae4a7)" d="M 231.068819 142.886299 
L 231.068819 41.472 
" style="fill:none;stroke:#ffffff;stroke-linecap:round;"/>
     </g>
     <g id="line2d_8"/>
     <g id="text_4">
      <!-- 0.6 -->
      <defs>
       <path d="M 33.015625 40.375 
Q 26.375 40.375 22.484375 35.828125 
Q 18.609375 31.296875 18.609375 23.390625 
Q 18.609375 15.53125 22.484375 10.953125 
Q 26.375 6.390625 33.015625 6.390625 
Q 39.65625 6.390625 43.53125 10.953125 
Q 47.40625 15.53125 47.40625 23.390625 
Q 47.40625 31.296875 43.53125 35.828125 
Q 39.65625 40.375 33.015625 40.375 
z
M 52.59375 71.296875 
L 52.59375 62.3125 
Q 48.875 64.0625 45.09375 64.984375 
Q 41.3125 65.921875 37.59375 65.921875 
Q 27.828125 65.921875 22.671875 59.328125 
Q 17.53125 52.734375 16.796875 39.40625 
Q 19.671875 43.65625 24.015625 45.921875 
Q 28.375 48.1875 33.59375 48.1875 
Q 44.578125 48.1875 50.953125 41.515625 
Q 57.328125 34.859375 57.328125 23.390625 
Q 57.328125 12.15625 50.6875 5.359375 
Q 44.046875 -1.421875 33.015625 -1.421875 
Q 20.359375 -1.421875 13.671875 8.265625 
Q 6.984375 17.96875 6.984375 36.375 
Q 6.984375 53.65625 15.1875 63.9375 
Q 23.390625 74.21875 37.203125 74.21875 
Q 40.921875 74.21875 44.703125 73.484375 
Q 48.484375 72.75 52.59375 71.296875 
z
" id="DejaVuSans-36"/>
      </defs>
      <g style="fill:#262626;" transform="translate(223.117256 157.484737)scale(0.1 -0.1)">
       <use xlink:href="#DejaVuSans-30"/>
       <use x="63.623047" xlink:href="#DejaVuSans-2e"/>
       <use x="95.410156" xlink:href="#DejaVuSans-36"/>
      </g>
     </g>
    </g>
    <g id="xtick_5">
     <g id="line2d_9">
      <path clip-path="url(#pd9eb9ae4a7)" d="M 291.585092 142.886299 
L 291.585092 41.472 
" style="fill:none;stroke:#ffffff;stroke-linecap:round;"/>
     </g>
     <g id="line2d_10"/>
     <g id="text_5">
      <!-- 0.8 -->
      <defs>
       <path d="M 31.78125 34.625 
Q 24.75 34.625 20.71875 30.859375 
Q 16.703125 27.09375 16.703125 20.515625 
Q 16.703125 13.921875 20.71875 10.15625 
Q 24.75 6.390625 31.78125 6.390625 
Q 38.8125 6.390625 42.859375 10.171875 
Q 46.921875 13.96875 46.921875 20.515625 
Q 46.921875 27.09375 42.890625 30.859375 
Q 38.875 34.625 31.78125 34.625 
z
M 21.921875 38.8125 
Q 15.578125 40.375 12.03125 44.71875 
Q 8.5 49.078125 8.5 55.328125 
Q 8.5 64.0625 14.71875 69.140625 
Q 20.953125 74.21875 31.78125 74.21875 
Q 42.671875 74.21875 48.875 69.140625 
Q 55.078125 64.0625 55.078125 55.328125 
Q 55.078125 49.078125 51.53125 44.71875 
Q 48 40.375 41.703125 38.8125 
Q 48.828125 37.15625 52.796875 32.3125 
Q 56.78125 27.484375 56.78125 20.515625 
Q 56.78125 9.90625 50.3125 4.234375 
Q 43.84375 -1.421875 31.78125 -1.421875 
Q 19.734375 -1.421875 13.25 4.234375 
Q 6.78125 9.90625 6.78125 20.515625 
Q 6.78125 27.484375 10.78125 32.3125 
Q 14.796875 37.15625 21.921875 38.8125 
z
M 18.3125 54.390625 
Q 18.3125 48.734375 21.84375 45.5625 
Q 25.390625 42.390625 31.78125 42.390625 
Q 38.140625 42.390625 41.71875 45.5625 
Q 45.3125 48.734375 45.3125 54.390625 
Q 45.3125 60.0625 41.71875 63.234375 
Q 38.140625 66.40625 31.78125 66.40625 
Q 25.390625 66.40625 21.84375 63.234375 
Q 18.3125 60.0625 18.3125 54.390625 
z
" id="DejaVuSans-38"/>
      </defs>
      <g style="fill:#262626;" transform="translate(283.633529 157.484737)scale(0.1 -0.1)">
       <use xlink:href="#DejaVuSans-30"/>
       <use x="63.623047" xlink:href="#DejaVuSans-2e"/>
       <use x="95.410156" xlink:href="#DejaVuSans-38"/>
      </g>
     </g>
    </g>
    <g id="xtick_6">
     <g id="line2d_11">
      <path clip-path="url(#pd9eb9ae4a7)" d="M 352.101365 142.886299 
L 352.101365 41.472 
" style="fill:none;stroke:#ffffff;stroke-linecap:round;"/>
     </g>
     <g id="line2d_12"/>
     <g id="text_6">
      <!-- 1.0 -->
      <defs>
       <path d="M 12.40625 8.296875 
L 28.515625 8.296875 
L 28.515625 63.921875 
L 10.984375 60.40625 
L 10.984375 69.390625 
L 28.421875 72.90625 
L 38.28125 72.90625 
L 38.28125 8.296875 
L 54.390625 8.296875 
L 54.390625 0 
L 12.40625 0 
z
" id="DejaVuSans-31"/>
      </defs>
      <g style="fill:#262626;" transform="translate(344.149802 157.484737)scale(0.1 -0.1)">
       <use xlink:href="#DejaVuSans-31"/>
       <use x="63.623047" xlink:href="#DejaVuSans-2e"/>
       <use x="95.410156" xlink:href="#DejaVuSans-30"/>
      </g>
     </g>
    </g>
    <g id="xtick_7">
     <g id="line2d_13">
      <path clip-path="url(#pd9eb9ae4a7)" d="M 412.617638 142.886299 
L 412.617638 41.472 
" style="fill:none;stroke:#ffffff;stroke-linecap:round;"/>
     </g>
     <g id="line2d_14"/>
     <g id="text_7">
      <!-- 1.2 -->
      <g style="fill:#262626;" transform="translate(404.666075 157.484737)scale(0.1 -0.1)">
       <use xlink:href="#DejaVuSans-31"/>
       <use x="63.623047" xlink:href="#DejaVuSans-2e"/>
       <use x="95.410156" xlink:href="#DejaVuSans-32"/>
      </g>
     </g>
    </g>
    <g id="text_8">
     <!-- Time (seconds) -->
     <defs>
      <path d="M -0.296875 72.90625 
L 61.375 72.90625 
L 61.375 64.59375 
L 35.5 64.59375 
L 35.5 0 
L 25.59375 0 
L 25.59375 64.59375 
L -0.296875 64.59375 
z
" id="DejaVuSans-54"/>
      <path d="M 9.421875 54.6875 
L 18.40625 54.6875 
L 18.40625 0 
L 9.421875 0 
z
M 9.421875 75.984375 
L 18.40625 75.984375 
L 18.40625 64.59375 
L 9.421875 64.59375 
z
" id="DejaVuSans-69"/>
      <path d="M 52 44.1875 
Q 55.375 50.25 60.0625 53.125 
Q 64.75 56 71.09375 56 
Q 79.640625 56 84.28125 50.015625 
Q 88.921875 44.046875 88.921875 33.015625 
L 88.921875 0 
L 79.890625 0 
L 79.890625 32.71875 
Q 79.890625 40.578125 77.09375 44.375 
Q 74.3125 48.1875 68.609375 48.1875 
Q 61.625 48.1875 57.5625 43.546875 
Q 53.515625 38.921875 53.515625 30.90625 
L 53.515625 0 
L 44.484375 0 
L 44.484375 32.71875 
Q 44.484375 40.625 41.703125 44.40625 
Q 38.921875 48.1875 33.109375 48.1875 
Q 26.21875 48.1875 22.15625 43.53125 
Q 18.109375 38.875 18.109375 30.90625 
L 18.109375 0 
L 9.078125 0 
L 9.078125 54.6875 
L 18.109375 54.6875 
L 18.109375 46.1875 
Q 21.1875 51.21875 25.484375 53.609375 
Q 29.78125 56 35.6875 56 
Q 41.65625 56 45.828125 52.96875 
Q 50 49.953125 52 44.1875 
z
" id="DejaVuSans-6d"/>
      <path d="M 56.203125 29.59375 
L 56.203125 25.203125 
L 14.890625 25.203125 
Q 15.484375 15.921875 20.484375 11.0625 
Q 25.484375 6.203125 34.421875 6.203125 
Q 39.59375 6.203125 44.453125 7.46875 
Q 49.3125 8.734375 54.109375 11.28125 
L 54.109375 2.78125 
Q 49.265625 0.734375 44.1875 -0.34375 
Q 39.109375 -1.421875 33.890625 -1.421875 
Q 20.796875 -1.421875 13.15625 6.1875 
Q 5.515625 13.8125 5.515625 26.8125 
Q 5.515625 40.234375 12.765625 48.109375 
Q 20.015625 56 32.328125 56 
Q 43.359375 56 49.78125 48.890625 
Q 56.203125 41.796875 56.203125 29.59375 
z
M 47.21875 32.234375 
Q 47.125 39.59375 43.09375 43.984375 
Q 39.0625 48.390625 32.421875 48.390625 
Q 24.90625 48.390625 20.390625 44.140625 
Q 15.875 39.890625 15.1875 32.171875 
z
" id="DejaVuSans-65"/>
      <path id="DejaVuSans-20"/>
      <path d="M 31 75.875 
Q 24.46875 64.65625 21.28125 53.65625 
Q 18.109375 42.671875 18.109375 31.390625 
Q 18.109375 20.125 21.3125 9.0625 
Q 24.515625 -2 31 -13.1875 
L 23.1875 -13.1875 
Q 15.875 -1.703125 12.234375 9.375 
Q 8.59375 20.453125 8.59375 31.390625 
Q 8.59375 42.28125 12.203125 53.3125 
Q 15.828125 64.359375 23.1875 75.875 
z
" id="DejaVuSans-28"/>
      <path d="M 44.28125 53.078125 
L 44.28125 44.578125 
Q 40.484375 46.53125 36.375 47.5 
Q 32.28125 48.484375 27.875 48.484375 
Q 21.1875 48.484375 17.84375 46.4375 
Q 14.5 44.390625 14.5 40.28125 
Q 14.5 37.15625 16.890625 35.375 
Q 19.28125 33.59375 26.515625 31.984375 
L 29.59375 31.296875 
Q 39.15625 29.25 43.1875 25.515625 
Q 47.21875 21.78125 47.21875 15.09375 
Q 47.21875 7.46875 41.1875 3.015625 
Q 35.15625 -1.421875 24.609375 -1.421875 
Q 20.21875 -1.421875 15.453125 -0.5625 
Q 10.6875 0.296875 5.421875 2 
L 5.421875 11.28125 
Q 10.40625 8.6875 15.234375 7.390625 
Q 20.0625 6.109375 24.8125 6.109375 
Q 31.15625 6.109375 34.5625 8.28125 
Q 37.984375 10.453125 37.984375 14.40625 
Q 37.984375 18.0625 35.515625 20.015625 
Q 33.0625 21.96875 24.703125 23.78125 
L 21.578125 24.515625 
Q 13.234375 26.265625 9.515625 29.90625 
Q 5.8125 33.546875 5.8125 39.890625 
Q 5.8125 47.609375 11.28125 51.796875 
Q 16.75 56 26.8125 56 
Q 31.78125 56 36.171875 55.265625 
Q 40.578125 54.546875 44.28125 53.078125 
z
" id="DejaVuSans-73"/>
      <path d="M 48.78125 52.59375 
L 48.78125 44.1875 
Q 44.96875 46.296875 41.140625 47.34375 
Q 37.3125 48.390625 33.40625 48.390625 
Q 24.65625 48.390625 19.8125 42.84375 
Q 14.984375 37.3125 14.984375 27.296875 
Q 14.984375 17.28125 19.8125 11.734375 
Q 24.65625 6.203125 33.40625 6.203125 
Q 37.3125 6.203125 41.140625 7.25 
Q 44.96875 8.296875 48.78125 10.40625 
L 48.78125 2.09375 
Q 45.015625 0.34375 40.984375 -0.53125 
Q 36.96875 -1.421875 32.421875 -1.421875 
Q 20.0625 -1.421875 12.78125 6.34375 
Q 5.515625 14.109375 5.515625 27.296875 
Q 5.515625 40.671875 12.859375 48.328125 
Q 20.21875 56 33.015625 56 
Q 37.15625 56 41.109375 55.140625 
Q 45.0625 54.296875 48.78125 52.59375 
z
" id="DejaVuSans-63"/>
      <path d="M 30.609375 48.390625 
Q 23.390625 48.390625 19.1875 42.75 
Q 14.984375 37.109375 14.984375 27.296875 
Q 14.984375 17.484375 19.15625 11.84375 
Q 23.34375 6.203125 30.609375 6.203125 
Q 37.796875 6.203125 41.984375 11.859375 
Q 46.1875 17.53125 46.1875 27.296875 
Q 46.1875 37.015625 41.984375 42.703125 
Q 37.796875 48.390625 30.609375 48.390625 
z
M 30.609375 56 
Q 42.328125 56 49.015625 48.375 
Q 55.71875 40.765625 55.71875 27.296875 
Q 55.71875 13.875 49.015625 6.21875 
Q 42.328125 -1.421875 30.609375 -1.421875 
Q 18.84375 -1.421875 12.171875 6.21875 
Q 5.515625 13.875 5.515625 27.296875 
Q 5.515625 40.765625 12.171875 48.375 
Q 18.84375 56 30.609375 56 
z
" id="DejaVuSans-6f"/>
      <path d="M 54.890625 33.015625 
L 54.890625 0 
L 45.90625 0 
L 45.90625 32.71875 
Q 45.90625 40.484375 42.875 44.328125 
Q 39.84375 48.1875 33.796875 48.1875 
Q 26.515625 48.1875 22.3125 43.546875 
Q 18.109375 38.921875 18.109375 30.90625 
L 18.109375 0 
L 9.078125 0 
L 9.078125 54.6875 
L 18.109375 54.6875 
L 18.109375 46.1875 
Q 21.34375 51.125 25.703125 53.5625 
Q 30.078125 56 35.796875 56 
Q 45.21875 56 50.046875 50.171875 
Q 54.890625 44.34375 54.890625 33.015625 
z
" id="DejaVuSans-6e"/>
      <path d="M 45.40625 46.390625 
L 45.40625 75.984375 
L 54.390625 75.984375 
L 54.390625 0 
L 45.40625 0 
L 45.40625 8.203125 
Q 42.578125 3.328125 38.25 0.953125 
Q 33.9375 -1.421875 27.875 -1.421875 
Q 17.96875 -1.421875 11.734375 6.484375 
Q 5.515625 14.40625 5.515625 27.296875 
Q 5.515625 40.1875 11.734375 48.09375 
Q 17.96875 56 27.875 56 
Q 33.9375 56 38.25 53.625 
Q 42.578125 51.265625 45.40625 46.390625 
z
M 14.796875 27.296875 
Q 14.796875 17.390625 18.875 11.75 
Q 22.953125 6.109375 30.078125 6.109375 
Q 37.203125 6.109375 41.296875 11.75 
Q 45.40625 17.390625 45.40625 27.296875 
Q 45.40625 37.203125 41.296875 42.84375 
Q 37.203125 48.484375 30.078125 48.484375 
Q 22.953125 48.484375 18.875 42.84375 
Q 14.796875 37.203125 14.796875 27.296875 
z
" id="DejaVuSans-64"/>
      <path d="M 8.015625 75.875 
L 15.828125 75.875 
Q 23.140625 64.359375 26.78125 53.3125 
Q 30.421875 42.28125 30.421875 31.390625 
Q 30.421875 20.453125 26.78125 9.375 
Q 23.140625 -1.703125 15.828125 -13.1875 
L 8.015625 -13.1875 
Q 14.5 -2 17.703125 9.0625 
Q 20.90625 20.125 20.90625 31.390625 
Q 20.90625 42.671875 17.703125 53.65625 
Q 14.5 64.65625 8.015625 75.875 
z
" id="DejaVuSans-29"/>
     </defs>
     <g style="fill:#262626;" transform="translate(206.532813 171.922705)scale(0.11 -0.11)">
      <use xlink:href="#DejaVuSans-54"/>
      <use x="61.037109" xlink:href="#DejaVuSans-69"/>
      <use x="88.820312" xlink:href="#DejaVuSans-6d"/>
      <use x="186.232422" xlink:href="#DejaVuSans-65"/>
      <use x="247.755859" xlink:href="#DejaVuSans-20"/>
      <use x="279.542969" xlink:href="#DejaVuSans-28"/>
      <use x="318.556641" xlink:href="#DejaVuSans-73"/>
      <use x="370.65625" xlink:href="#DejaVuSans-65"/>
      <use x="432.179688" xlink:href="#DejaVuSans-63"/>
      <use x="487.160156" xlink:href="#DejaVuSans-6f"/>
      <use x="548.341797" xlink:href="#DejaVuSans-6e"/>
      <use x="611.720703" xlink:href="#DejaVuSans-64"/>
      <use x="675.197266" xlink:href="#DejaVuSans-73"/>
      <use x="727.296875" xlink:href="#DejaVuSans-29"/>
     </g>
    </g>
   </g>
   <g id="matplotlib.axis_2">
    <g id="ytick_1">
     <g id="line2d_15">
      <path clip-path="url(#pd9eb9ae4a7)" d="M 49.52 135.335044 
L 447.84 135.335044 
" style="fill:none;stroke:#ffffff;stroke-linecap:round;"/>
     </g>
     <g id="line2d_16"/>
     <g id="text_9">
      <!-- −5 -->
      <defs>
       <path d="M 10.59375 35.5 
L 73.1875 35.5 
L 73.1875 27.203125 
L 10.59375 27.203125 
z
" id="DejaVuSans-2212"/>
       <path d="M 10.796875 72.90625 
L 49.515625 72.90625 
L 49.515625 64.59375 
L 19.828125 64.59375 
L 19.828125 46.734375 
Q 21.96875 47.46875 24.109375 47.828125 
Q 26.265625 48.1875 28.421875 48.1875 
Q 40.625 48.1875 47.75 41.5 
Q 54.890625 34.8125 54.890625 23.390625 
Q 54.890625 11.625 47.5625 5.09375 
Q 40.234375 -1.421875 26.90625 -1.421875 
Q 22.3125 -1.421875 17.546875 -0.640625 
Q 12.796875 0.140625 7.71875 1.703125 
L 7.71875 11.625 
Q 12.109375 9.234375 16.796875 8.0625 
Q 21.484375 6.890625 26.703125 6.890625 
Q 35.15625 6.890625 40.078125 11.328125 
Q 45.015625 15.765625 45.015625 23.390625 
Q 45.015625 31 40.078125 35.4375 
Q 35.15625 39.890625 26.703125 39.890625 
Q 22.75 39.890625 18.8125 39.015625 
Q 14.890625 38.140625 10.796875 36.28125 
z
" id="DejaVuSans-35"/>
      </defs>
      <g style="fill:#262626;" transform="translate(27.777813 139.134262)scale(0.1 -0.1)">
       <use xlink:href="#DejaVuSans-2212"/>
       <use x="83.789062" xlink:href="#DejaVuSans-35"/>
      </g>
     </g>
    </g>
    <g id="ytick_2">
     <g id="line2d_17">
      <path clip-path="url(#pd9eb9ae4a7)" d="M 49.52 104.161154 
L 447.84 104.161154 
" style="fill:none;stroke:#ffffff;stroke-linecap:round;"/>
     </g>
     <g id="line2d_18"/>
     <g id="text_10">
      <!-- 0 -->
      <g style="fill:#262626;" transform="translate(36.1575 107.960373)scale(0.1 -0.1)">
       <use xlink:href="#DejaVuSans-30"/>
      </g>
     </g>
    </g>
    <g id="ytick_3">
     <g id="line2d_19">
      <path clip-path="url(#pd9eb9ae4a7)" d="M 49.52 72.987264 
L 447.84 72.987264 
" style="fill:none;stroke:#ffffff;stroke-linecap:round;"/>
     </g>
     <g id="line2d_20"/>
     <g id="text_11">
      <!-- 5 -->
      <g style="fill:#262626;" transform="translate(36.1575 76.786483)scale(0.1 -0.1)">
       <use xlink:href="#DejaVuSans-35"/>
      </g>
     </g>
    </g>
    <g id="ytick_4">
     <g id="line2d_21">
      <path clip-path="url(#pd9eb9ae4a7)" d="M 49.52 41.813375 
L 447.84 41.813375 
" style="fill:none;stroke:#ffffff;stroke-linecap:round;"/>
     </g>
     <g id="line2d_22"/>
     <g id="text_12">
      <!-- 10 -->
      <g style="fill:#262626;" transform="translate(29.795 45.612593)scale(0.1 -0.1)">
       <use xlink:href="#DejaVuSans-31"/>
       <use x="63.623047" xlink:href="#DejaVuSans-30"/>
      </g>
     </g>
    </g>
    <g id="text_13">
     <!-- Tilt (degrees) -->
     <defs>
      <path d="M 9.421875 75.984375 
L 18.40625 75.984375 
L 18.40625 0 
L 9.421875 0 
z
" id="DejaVuSans-6c"/>
      <path d="M 18.3125 70.21875 
L 18.3125 54.6875 
L 36.8125 54.6875 
L 36.8125 47.703125 
L 18.3125 47.703125 
L 18.3125 18.015625 
Q 18.3125 11.328125 20.140625 9.421875 
Q 21.96875 7.515625 27.59375 7.515625 
L 36.8125 7.515625 
L 36.8125 0 
L 27.59375 0 
Q 17.1875 0 13.234375 3.875 
Q 9.28125 7.765625 9.28125 18.015625 
L 9.28125 47.703125 
L 2.6875 47.703125 
L 2.6875 54.6875 
L 9.28125 54.6875 
L 9.28125 70.21875 
z
" id="DejaVuSans-74"/>
      <path d="M 45.40625 27.984375 
Q 45.40625 37.75 41.375 43.109375 
Q 37.359375 48.484375 30.078125 48.484375 
Q 22.859375 48.484375 18.828125 43.109375 
Q 14.796875 37.75 14.796875 27.984375 
Q 14.796875 18.265625 18.828125 12.890625 
Q 22.859375 7.515625 30.078125 7.515625 
Q 37.359375 7.515625 41.375 12.890625 
Q 45.40625 18.265625 45.40625 27.984375 
z
M 54.390625 6.78125 
Q 54.390625 -7.171875 48.1875 -13.984375 
Q 42 -20.796875 29.203125 -20.796875 
Q 24.46875 -20.796875 20.265625 -20.09375 
Q 16.0625 -19.390625 12.109375 -17.921875 
L 12.109375 -9.1875 
Q 16.0625 -11.328125 19.921875 -12.34375 
Q 23.78125 -13.375 27.78125 -13.375 
Q 36.625 -13.375 41.015625 -8.765625 
Q 45.40625 -4.15625 45.40625 5.171875 
L 45.40625 9.625 
Q 42.625 4.78125 38.28125 2.390625 
Q 33.9375 0 27.875 0 
Q 17.828125 0 11.671875 7.65625 
Q 5.515625 15.328125 5.515625 27.984375 
Q 5.515625 40.671875 11.671875 48.328125 
Q 17.828125 56 27.875 56 
Q 33.9375 56 38.28125 53.609375 
Q 42.625 51.21875 45.40625 46.390625 
L 45.40625 54.6875 
L 54.390625 54.6875 
z
" id="DejaVuSans-67"/>
      <path d="M 41.109375 46.296875 
Q 39.59375 47.171875 37.8125 47.578125 
Q 36.03125 48 33.890625 48 
Q 26.265625 48 22.1875 43.046875 
Q 18.109375 38.09375 18.109375 28.8125 
L 18.109375 0 
L 9.078125 0 
L 9.078125 54.6875 
L 18.109375 54.6875 
L 18.109375 46.1875 
Q 20.953125 51.171875 25.484375 53.578125 
Q 30.03125 56 36.53125 56 
Q 37.453125 56 38.578125 55.875 
Q 39.703125 55.765625 41.0625 55.515625 
z
" id="DejaVuSans-72"/>
     </defs>
     <g style="fill:#262626;" transform="translate(21.490156 129.048056)rotate(-90)scale(0.11 -0.11)">
      <use xlink:href="#DejaVuSans-54"/>
      <use x="61.037109" xlink:href="#DejaVuSans-69"/>
      <use x="88.820312" xlink:href="#DejaVuSans-6c"/>
      <use x="116.603516" xlink:href="#DejaVuSans-74"/>
      <use x="155.8125" xlink:href="#DejaVuSans-20"/>
      <use x="187.599609" xlink:href="#DejaVuSans-28"/>
      <use x="226.613281" xlink:href="#DejaVuSans-64"/>
      <use x="290.089844" xlink:href="#DejaVuSans-65"/>
      <use x="351.613281" xlink:href="#DejaVuSans-67"/>
      <use x="415.089844" xlink:href="#DejaVuSans-72"/>
      <use x="456.171875" xlink:href="#DejaVuSans-65"/>
      <use x="517.695312" xlink:href="#DejaVuSans-65"/>
      <use x="579.21875" xlink:href="#DejaVuSans-73"/>
      <use x="631.318359" xlink:href="#DejaVuSans-29"/>
     </g>
    </g>
   </g>
   <g id="line2d_23">
    <path clip-path="url(#pd9eb9ae4a7)" d="M 49.52 140.318883 
L 50.110979 140.519996 
L 50.701958 140.560545 
L 51.292938 140.161102 
L 51.883917 140.605184 
L 52.474896 142.844044 
L 53.065875 142.886299 
L 53.656855 142.531121 
L 54.247834 141.647181 
L 54.838813 140.126817 
L 55.429792 139.212152 
L 57.20273 135.90416 
L 57.793709 135.658952 
L 58.384688 135.2804 
L 58.975668 135.285068 
L 59.566647 136.551504 
L 60.157626 135.79683 
L 60.748605 136.0465 
L 61.339585 134.608603 
L 61.930564 132.557002 
L 63.112522 126.838363 
L 63.703501 125.472618 
L 64.294481 123.253666 
L 65.476439 116.642035 
L 66.067418 114.395352 
L 67.840356 104.443404 
L 69.022315 100.498974 
L 70.795252 91.339977 
L 74.932107 77.49924 
L 77.296024 69.036554 
L 78.477982 65.650872 
L 80.25092 60.326808 
L 83.796795 52.270453 
L 85.569733 47.631015 
L 86.751691 44.930431 
L 87.93365 42.889532 
L 88.524629 42.241102 
L 89.115608 41.799925 
L 89.706588 41.563722 
L 90.297567 41.472 
L 90.888546 41.646751 
L 91.479525 42.009371 
L 93.252463 43.492088 
L 93.843442 43.779658 
L 95.025401 43.942981 
L 95.61638 43.616555 
L 96.207359 44.04631 
L 96.798338 44.852426 
L 100.344214 53.211649 
L 102.708131 56.954139 
L 105.072047 62.384156 
L 106.844985 65.759906 
L 107.435964 67.183993 
L 108.026944 68.916811 
L 110.390861 77.094948 
L 111.572819 79.899666 
L 112.163798 80.765698 
L 112.754777 81.425712 
L 113.936736 82.271893 
L 115.709674 83.43676 
L 116.891632 84.758863 
L 118.073591 86.619436 
L 119.255549 88.791739 
L 119.846528 90.27171 
L 121.028487 91.741512 
L 122.210445 92.758746 
L 123.392404 93.475806 
L 123.983383 93.893193 
L 125.165341 95.213222 
L 126.3473 96.9925 
L 127.529258 99.109469 
L 129.893175 104.578889 
L 132.257092 110.62955 
L 132.848071 111.782644 
L 133.43905 112.456027 
L 134.03003 112.893741 
L 134.621009 112.945982 
L 135.211988 112.448957 
L 136.984926 112.932141 
L 137.575905 113.432096 
L 138.166884 114.096278 
L 138.757864 113.554719 
L 139.348843 114.056029 
L 140.530801 113.724384 
L 141.12178 115.116055 
L 141.71276 114.214576 
L 142.303739 114.669449 
L 142.894718 114.780096 
L 143.485697 113.768467 
L 144.076677 114.500307 
L 144.667656 113.548997 
L 145.258635 113.644435 
L 147.031573 113.046386 
L 147.622552 113.329916 
L 148.213531 112.441134 
L 148.80451 113.547528 
L 149.39549 112.617896 
L 150.577448 110.014763 
L 151.168427 108.77008 
L 151.759407 108.494055 
L 152.350386 107.031594 
L 152.941365 106.527837 
L 153.532344 105.823514 
L 154.123323 105.458036 
L 154.714303 105.905202 
L 155.305282 105.184196 
L 156.48724 105.218913 
L 157.07822 103.589441 
L 157.669199 103.874181 
L 158.851157 101.81447 
L 159.442136 100.533434 
L 160.033116 100.014129 
L 160.624095 100.447193 
L 161.215074 100.144045 
L 161.806053 99.600002 
L 162.397033 98.033029 
L 162.988012 97.041923 
L 163.578991 96.630385 
L 164.16997 94.716541 
L 165.351929 92.945784 
L 165.942908 92.796086 
L 167.715846 91.244435 
L 168.306825 91.24627 
L 168.897804 90.394059 
L 169.488783 89.933035 
L 170.079763 88.780655 
L 170.670742 88.798807 
L 171.261721 88.251692 
L 171.8527 87.338381 
L 172.44368 87.33028 
L 173.034659 86.846195 
L 173.625638 85.826584 
L 174.216617 84.444286 
L 174.807596 84.869994 
L 175.398576 83.63332 
L 175.989555 83.497281 
L 176.580534 83.520842 
L 177.171513 82.909685 
L 178.353472 82.822963 
L 178.944451 82.688744 
L 179.53543 82.332983 
L 180.126409 81.242515 
L 180.717389 80.856155 
L 181.308368 81.0772 
L 181.899347 80.706777 
L 183.081306 80.188283 
L 183.672285 80.154689 
L 184.263264 80.667065 
L 184.854243 80.729676 
L 185.445223 80.18183 
L 186.627181 80.129945 
L 187.21816 80.005748 
L 187.809139 79.461741 
L 189.582077 78.465857 
L 190.173056 79.382653 
L 190.764036 79.875222 
L 191.945994 79.25939 
L 192.536973 78.812955 
L 193.127953 78.763214 
L 193.718932 79.110942 
L 194.90089 79.232735 
L 195.491869 79.710148 
L 196.082849 79.622258 
L 196.673828 80.632952 
L 197.264807 80.800274 
L 197.855786 81.41591 
L 198.446766 81.474514 
L 200.219703 81.996325 
L 200.810682 81.826702 
L 201.401662 81.442974 
L 201.992641 82.07481 
L 202.58362 81.910511 
L 203.174599 82.390085 
L 203.765579 83.595883 
L 204.356558 84.341635 
L 205.538516 84.242873 
L 206.129496 83.991422 
L 206.720475 84.214701 
L 207.311454 84.133469 
L 207.902433 84.41252 
L 208.493412 85.061694 
L 210.26635 86.339133 
L 210.857329 87.248947 
L 211.448309 88.393542 
L 212.039288 88.161556 
L 212.630267 89.279843 
L 213.812226 88.86627 
L 215.585163 89.070266 
L 216.767122 90.100773 
L 217.358101 91.440531 
L 217.94908 91.112473 
L 218.540059 90.030306 
L 219.131039 91.126321 
L 219.722018 90.481619 
L 220.903976 90.702381 
L 221.494955 90.57366 
L 222.085935 91.028658 
L 222.676914 91.234633 
L 223.267893 92.644033 
L 223.858872 92.51847 
L 225.040831 93.804314 
L 226.222789 92.655316 
L 226.813769 91.915619 
L 227.404748 93.821277 
L 227.995727 93.255792 
L 228.586706 95.375675 
L 229.177685 93.969663 
L 229.768665 94.19391 
L 230.359644 93.057972 
L 230.950623 93.02235 
L 231.541602 92.839669 
L 232.132582 92.803169 
L 232.723561 93.746483 
L 233.31454 94.040605 
L 233.905519 94.797218 
L 234.496499 94.691833 
L 235.087478 94.770828 
L 235.678457 95.071719 
L 236.860415 94.116924 
L 237.451395 93.217004 
L 238.042374 93.018892 
L 238.633353 95.556072 
L 239.224332 94.339857 
L 239.815312 94.233091 
L 240.406291 93.233394 
L 240.99727 93.6208 
L 241.588249 92.450307 
L 242.179228 92.537211 
L 242.770208 93.342467 
L 243.361187 93.541122 
L 243.952166 92.968022 
L 244.543145 91.999391 
L 245.134125 91.663501 
L 245.725104 91.077456 
L 246.316083 90.744639 
L 246.907062 91.045358 
L 247.498042 91.678584 
L 248.089021 92.49654 
L 248.68 91.556905 
L 249.270979 92.022011 
L 249.861958 90.445421 
L 251.043917 88.347979 
L 251.634896 88.074311 
L 252.225875 88.544087 
L 252.816855 87.502243 
L 253.407834 88.112536 
L 253.998813 88.177134 
L 254.589792 87.971705 
L 255.771751 88.044416 
L 256.36273 87.913182 
L 256.953709 89.709759 
L 257.544688 88.741097 
L 258.135668 88.049628 
L 258.726647 87.627057 
L 259.317626 88.185919 
L 259.908605 87.390355 
L 260.499585 86.80307 
L 261.090564 87.457244 
L 261.681543 86.587778 
L 262.863501 84.383128 
L 263.454481 84.095488 
L 264.04546 83.662629 
L 264.636439 83.770817 
L 265.227418 83.740447 
L 265.818398 84.210242 
L 266.409377 84.939286 
L 267.000356 84.545277 
L 267.591335 84.548768 
L 268.182315 84.056202 
L 268.773294 84.326084 
L 269.364273 84.291236 
L 269.955252 84.72019 
L 270.546231 83.248058 
L 271.137211 82.748619 
L 271.72819 81.687231 
L 272.319169 81.142744 
L 272.910148 81.023794 
L 273.501128 81.390846 
L 274.092107 82.946187 
L 274.683086 82.39063 
L 275.274065 83.06214 
L 275.865045 82.5888 
L 277.047003 82.062916 
L 277.637982 82.556164 
L 278.228961 82.752753 
L 278.819941 84.78714 
L 279.41092 84.333565 
L 280.001899 83.639745 
L 280.592878 83.479791 
L 281.183858 82.694858 
L 281.774837 83.125844 
L 282.365816 82.528667 
L 282.956795 84.663782 
L 283.547774 83.69551 
L 284.138754 83.094396 
L 284.729733 83.930122 
L 285.320712 83.325174 
L 285.911691 84.636873 
L 286.502671 84.555813 
L 287.09365 86.130559 
L 287.684629 87.176553 
L 288.275608 86.269503 
L 288.866588 86.987833 
L 289.457567 86.904247 
L 290.048546 85.93274 
L 290.639525 86.254338 
L 291.230504 85.614474 
L 291.821484 87.030197 
L 292.412463 86.23586 
L 293.003442 87.110852 
L 293.594421 87.064066 
L 294.185401 86.737664 
L 294.77638 89.340636 
L 295.367359 89.705206 
L 295.958338 90.776083 
L 296.549318 90.46872 
L 297.140297 89.836639 
L 297.731276 91.154915 
L 298.322255 90.677 
L 298.913234 90.704055 
L 299.504214 90.463143 
L 300.095193 90.373836 
L 300.686172 91.481381 
L 301.277151 90.803706 
L 301.868131 90.7131 
L 302.45911 90.211349 
L 303.641068 91.008693 
L 304.232047 91.514171 
L 304.823027 94.058971 
L 305.414006 93.433475 
L 306.004985 94.352593 
L 306.595964 94.334118 
L 307.186944 93.929846 
L 307.777923 93.744541 
L 308.368902 94.63081 
L 309.550861 91.44506 
L 310.14184 91.182931 
L 310.732819 90.40799 
L 311.323798 90.985426 
L 311.914777 91.32094 
L 312.505757 93.608637 
L 313.096736 93.080415 
L 313.687715 92.810402 
L 314.278694 93.856106 
L 314.869674 93.148905 
L 315.460653 93.652425 
L 316.051632 93.395026 
L 316.642611 94.108001 
L 317.233591 93.376971 
L 317.82457 93.250188 
L 318.415549 92.251023 
L 320.188487 92.522601 
L 320.779466 93.292356 
L 321.370445 92.59842 
L 321.961424 92.665893 
L 322.552404 93.15151 
L 323.143383 92.776191 
L 323.734362 95.37408 
L 324.325341 94.216621 
L 324.91632 92.811481 
L 325.5073 92.909926 
L 326.689258 90.528144 
L 327.280237 92.845662 
L 327.871217 91.987189 
L 328.462196 92.705047 
L 329.053175 92.597669 
L 329.644154 92.660937 
L 330.235134 92.134419 
L 330.826113 93.932968 
L 331.417092 92.407287 
L 332.008071 91.28263 
L 332.59905 89.858474 
L 333.19003 89.61142 
L 333.781009 88.91911 
L 334.371988 89.489406 
L 334.962967 88.522404 
L 335.553947 88.313047 
L 336.144926 87.228308 
L 336.735905 86.881755 
L 337.326884 87.662342 
L 337.917864 88.054889 
L 338.508843 87.323472 
L 339.099822 86.76919 
L 339.690801 86.647505 
L 340.28178 85.368783 
L 340.87276 84.908901 
L 342.645697 81.93358 
L 343.236677 81.660414 
L 343.827656 81.96812 
L 344.418635 84.184011 
L 345.009614 83.513583 
L 345.600593 83.152458 
L 346.191573 82.291772 
L 347.373531 81.088743 
L 347.96451 81.479659 
L 348.55549 80.531857 
L 349.146469 80.477438 
L 349.737448 79.875046 
L 350.919407 81.235484 
L 351.510386 80.568982 
L 352.692344 79.800727 
L 353.874303 79.28479 
L 354.465282 79.854785 
L 355.056261 79.574222 
L 355.64724 78.786222 
L 357.420178 77.614303 
L 358.011157 78.818021 
L 358.602136 78.382483 
L 359.193116 78.63172 
L 360.375074 79.970271 
L 360.966053 80.858104 
L 362.148012 79.536952 
L 362.738991 79.081007 
L 363.32997 78.815675 
L 363.92095 79.483188 
L 364.511929 81.070802 
L 365.693887 80.981717 
L 366.284866 81.266537 
L 366.875846 81.006439 
L 367.466825 81.706085 
L 368.057804 82.045287 
L 368.648783 82.179409 
L 369.239763 82.69146 
L 369.830742 82.563598 
L 370.421721 82.611298 
L 371.0127 82.21247 
L 371.60368 82.914436 
L 372.194659 82.427232 
L 372.785638 82.20369 
L 373.376617 82.519681 
L 373.967596 83.549704 
L 374.558576 86.102428 
L 375.740534 85.853014 
L 376.331513 85.846906 
L 376.922493 85.689033 
L 377.513472 85.257689 
L 378.104451 86.055967 
L 378.69543 85.816657 
L 379.286409 86.383756 
L 379.877389 86.607658 
L 380.468368 86.522217 
L 381.059347 87.639037 
L 381.650326 87.576475 
L 382.241306 87.148019 
L 382.832285 88.350691 
L 383.423264 87.912479 
L 384.014243 88.719811 
L 384.605223 89.728964 
L 385.196202 88.918483 
L 385.787181 88.85917 
L 386.37816 88.270731 
L 387.560119 89.758587 
L 388.151098 90.120156 
L 388.742077 90.010552 
L 389.333056 91.060211 
L 391.105994 91.743264 
L 391.696973 90.802212 
L 392.287953 91.40252 
L 392.878932 90.542579 
L 393.469911 91.582494 
L 394.06089 93.159858 
L 394.651869 92.37625 
L 395.833828 91.777008 
L 396.424807 92.748146 
L 397.015786 92.672054 
L 397.606766 91.851285 
L 398.197745 91.935344 
L 398.788724 91.78099 
L 399.379703 92.201373 
L 399.970682 94.352868 
L 400.561662 92.883361 
L 401.152641 92.687319 
L 401.74362 91.993932 
L 402.334599 92.372035 
L 402.925579 93.360177 
L 403.516558 94.100715 
L 404.107537 93.62055 
L 405.289496 91.493675 
L 405.880475 91.895388 
L 406.471454 91.020848 
L 407.062433 92.161445 
L 407.653412 92.034962 
L 408.244392 92.618406 
L 408.835371 92.934688 
L 409.42635 91.703913 
L 410.017329 92.049259 
L 410.608309 90.187272 
L 411.199288 90.036401 
L 411.790267 91.242021 
L 412.381246 89.759311 
L 413.563205 88.446459 
L 414.154184 89.949557 
L 414.745163 89.694102 
L 415.336142 89.752308 
L 416.518101 89.128153 
L 417.10908 88.546192 
L 417.700059 86.698761 
L 418.291039 85.227767 
L 418.882018 84.354731 
L 420.063976 86.548128 
L 420.654955 85.477196 
L 421.836914 85.176163 
L 422.427893 85.656137 
L 423.018872 84.740146 
L 424.200831 82.323984 
L 424.79181 82.423385 
L 425.382789 83.136255 
L 425.973769 81.887893 
L 426.564748 81.215005 
L 427.155727 81.333404 
L 427.746706 82.05106 
L 428.337685 82.300123 
L 428.928665 81.892092 
L 429.519644 80.457927 
L 430.110623 79.769124 
L 430.701602 79.368845 
L 431.292582 78.766184 
L 431.883561 78.515777 
L 432.47454 78.742222 
L 433.065519 78.648921 
L 433.656499 80.043109 
L 434.838457 79.442946 
L 435.429436 78.305608 
L 436.020415 78.226988 
L 436.611395 78.323422 
L 437.793353 77.275265 
L 438.384332 77.567003 
L 438.975312 79.323152 
L 439.566291 79.34547 
L 440.15727 79.136138 
L 440.748249 78.619623 
L 441.339228 79.651476 
L 441.930208 79.981643 
L 443.112166 78.016597 
L 443.703145 77.595264 
L 444.294125 78.152357 
L 444.885104 79.61732 
L 445.476083 79.64325 
L 446.067062 80.19805 
L 446.658042 80.109277 
L 447.249021 82.193614 
L 447.249021 82.193614 
" style="fill:none;stroke:#4c72b0;stroke-linecap:round;stroke-width:1.75;"/>
   </g>
   <g id="line2d_24">
    <path clip-path="url(#pd9eb9ae4a7)" d="M 49.52 79.222042 
L 447.84 79.222042 
" style="fill:none;stroke:#55a868;stroke-linecap:round;stroke-width:1.75;"/>
   </g>
   <g id="patch_3">
    <path d="M 49.52 142.886299 
L 49.52 41.472 
" style="fill:none;"/>
   </g>
   <g id="patch_4">
    <path d="M 447.84 142.886299 
L 447.84 41.472 
" style="fill:none;"/>
   </g>
   <g id="patch_5">
    <path d="M 49.52 142.886299 
L 447.84 142.886299 
" style="fill:none;"/>
   </g>
   <g id="patch_6">
    <path d="M 49.52 41.472 
L 447.84 41.472 
" style="fill:none;"/>
   </g>
   <g id="text_14">
    <!-- y(t), process variable -->
    <defs>
     <path d="M 32.171875 -5.078125 
Q 28.375 -14.84375 24.75 -17.8125 
Q 21.140625 -20.796875 15.09375 -20.796875 
L 7.90625 -20.796875 
L 7.90625 -13.28125 
L 13.1875 -13.28125 
Q 16.890625 -13.28125 18.9375 -11.515625 
Q 21 -9.765625 23.484375 -3.21875 
L 25.09375 0.875 
L 2.984375 54.6875 
L 12.5 54.6875 
L 29.59375 11.921875 
L 46.6875 54.6875 
L 56.203125 54.6875 
z
" id="DejaVuSans-79"/>
     <path d="M 11.71875 12.40625 
L 22.015625 12.40625 
L 22.015625 4 
L 14.015625 -11.625 
L 7.71875 -11.625 
L 11.71875 4 
z
" id="DejaVuSans-2c"/>
     <path d="M 18.109375 8.203125 
L 18.109375 -20.796875 
L 9.078125 -20.796875 
L 9.078125 54.6875 
L 18.109375 54.6875 
L 18.109375 46.390625 
Q 20.953125 51.265625 25.265625 53.625 
Q 29.59375 56 35.59375 56 
Q 45.5625 56 51.78125 48.09375 
Q 58.015625 40.1875 58.015625 27.296875 
Q 58.015625 14.40625 51.78125 6.484375 
Q 45.5625 -1.421875 35.59375 -1.421875 
Q 29.59375 -1.421875 25.265625 0.953125 
Q 20.953125 3.328125 18.109375 8.203125 
z
M 48.6875 27.296875 
Q 48.6875 37.203125 44.609375 42.84375 
Q 40.53125 48.484375 33.40625 48.484375 
Q 26.265625 48.484375 22.1875 42.84375 
Q 18.109375 37.203125 18.109375 27.296875 
Q 18.109375 17.390625 22.1875 11.75 
Q 26.265625 6.109375 33.40625 6.109375 
Q 40.53125 6.109375 44.609375 11.75 
Q 48.6875 17.390625 48.6875 27.296875 
z
" id="DejaVuSans-70"/>
     <path d="M 2.984375 54.6875 
L 12.5 54.6875 
L 29.59375 8.796875 
L 46.6875 54.6875 
L 56.203125 54.6875 
L 35.6875 0 
L 23.484375 0 
z
" id="DejaVuSans-76"/>
     <path d="M 34.28125 27.484375 
Q 23.390625 27.484375 19.1875 25 
Q 14.984375 22.515625 14.984375 16.5 
Q 14.984375 11.71875 18.140625 8.90625 
Q 21.296875 6.109375 26.703125 6.109375 
Q 34.1875 6.109375 38.703125 11.40625 
Q 43.21875 16.703125 43.21875 25.484375 
L 43.21875 27.484375 
z
M 52.203125 31.203125 
L 52.203125 0 
L 43.21875 0 
L 43.21875 8.296875 
Q 40.140625 3.328125 35.546875 0.953125 
Q 30.953125 -1.421875 24.3125 -1.421875 
Q 15.921875 -1.421875 10.953125 3.296875 
Q 6 8.015625 6 15.921875 
Q 6 25.140625 12.171875 29.828125 
Q 18.359375 34.515625 30.609375 34.515625 
L 43.21875 34.515625 
L 43.21875 35.40625 
Q 43.21875 41.609375 39.140625 45 
Q 35.0625 48.390625 27.6875 48.390625 
Q 23 48.390625 18.546875 47.265625 
Q 14.109375 46.140625 10.015625 43.890625 
L 10.015625 52.203125 
Q 14.9375 54.109375 19.578125 55.046875 
Q 24.21875 56 28.609375 56 
Q 40.484375 56 46.34375 49.84375 
Q 52.203125 43.703125 52.203125 31.203125 
z
" id="DejaVuSans-61"/>
     <path d="M 48.6875 27.296875 
Q 48.6875 37.203125 44.609375 42.84375 
Q 40.53125 48.484375 33.40625 48.484375 
Q 26.265625 48.484375 22.1875 42.84375 
Q 18.109375 37.203125 18.109375 27.296875 
Q 18.109375 17.390625 22.1875 11.75 
Q 26.265625 6.109375 33.40625 6.109375 
Q 40.53125 6.109375 44.609375 11.75 
Q 48.6875 17.390625 48.6875 27.296875 
z
M 18.109375 46.390625 
Q 20.953125 51.265625 25.265625 53.625 
Q 29.59375 56 35.59375 56 
Q 45.5625 56 51.78125 48.09375 
Q 58.015625 40.1875 58.015625 27.296875 
Q 58.015625 14.40625 51.78125 6.484375 
Q 45.5625 -1.421875 35.59375 -1.421875 
Q 29.59375 -1.421875 25.265625 0.953125 
Q 20.953125 3.328125 18.109375 8.203125 
L 18.109375 0 
L 9.078125 0 
L 9.078125 75.984375 
L 18.109375 75.984375 
z
" id="DejaVuSans-62"/>
    </defs>
    <g style="fill:#262626;" transform="translate(184.980625 35.472)scale(0.12 -0.12)">
     <use xlink:href="#DejaVuSans-79"/>
     <use x="59.179688" xlink:href="#DejaVuSans-28"/>
     <use x="98.193359" xlink:href="#DejaVuSans-74"/>
     <use x="137.402344" xlink:href="#DejaVuSans-29"/>
     <use x="176.416016" xlink:href="#DejaVuSans-2c"/>
     <use x="208.203125" xlink:href="#DejaVuSans-20"/>
     <use x="239.990234" xlink:href="#DejaVuSans-70"/>
     <use x="303.466797" xlink:href="#DejaVuSans-72"/>
     <use x="344.548828" xlink:href="#DejaVuSans-6f"/>
     <use x="405.730469" xlink:href="#DejaVuSans-63"/>
     <use x="460.710938" xlink:href="#DejaVuSans-65"/>
     <use x="522.234375" xlink:href="#DejaVuSans-73"/>
     <use x="574.333984" xlink:href="#DejaVuSans-73"/>
     <use x="626.433594" xlink:href="#DejaVuSans-20"/>
     <use x="658.220703" xlink:href="#DejaVuSans-76"/>
     <use x="717.400391" xlink:href="#DejaVuSans-61"/>
     <use x="778.679688" xlink:href="#DejaVuSans-72"/>
     <use x="819.792969" xlink:href="#DejaVuSans-69"/>
     <use x="847.576172" xlink:href="#DejaVuSans-61"/>
     <use x="908.855469" xlink:href="#DejaVuSans-62"/>
     <use x="972.332031" xlink:href="#DejaVuSans-6c"/>
     <use x="1000.115234" xlink:href="#DejaVuSans-65"/>
    </g>
   </g>
   <g id="legend_1">
    <g id="line2d_25">
     <path d="M 365.736875 54.570437 
L 385.736875 54.570437 
" style="fill:none;stroke:#55a868;stroke-linecap:round;stroke-width:1.75;"/>
    </g>
    <g id="line2d_26"/>
    <g id="text_15">
     <!-- Set point -->
     <defs>
      <path d="M 53.515625 70.515625 
L 53.515625 60.890625 
Q 47.90625 63.578125 42.921875 64.890625 
Q 37.9375 66.21875 33.296875 66.21875 
Q 25.25 66.21875 20.875 63.09375 
Q 16.5 59.96875 16.5 54.203125 
Q 16.5 49.359375 19.40625 46.890625 
Q 22.3125 44.4375 30.421875 42.921875 
L 36.375 41.703125 
Q 47.40625 39.59375 52.65625 34.296875 
Q 57.90625 29 57.90625 20.125 
Q 57.90625 9.515625 50.796875 4.046875 
Q 43.703125 -1.421875 29.984375 -1.421875 
Q 24.8125 -1.421875 18.96875 -0.25 
Q 13.140625 0.921875 6.890625 3.21875 
L 6.890625 13.375 
Q 12.890625 10.015625 18.65625 8.296875 
Q 24.421875 6.59375 29.984375 6.59375 
Q 38.421875 6.59375 43.015625 9.90625 
Q 47.609375 13.234375 47.609375 19.390625 
Q 47.609375 24.75 44.3125 27.78125 
Q 41.015625 30.8125 33.5 32.328125 
L 27.484375 33.5 
Q 16.453125 35.6875 11.515625 40.375 
Q 6.59375 45.0625 6.59375 53.421875 
Q 6.59375 63.09375 13.40625 68.65625 
Q 20.21875 74.21875 32.171875 74.21875 
Q 37.3125 74.21875 42.625 73.28125 
Q 47.953125 72.359375 53.515625 70.515625 
z
" id="DejaVuSans-53"/>
     </defs>
     <g style="fill:#262626;" transform="translate(393.736875 58.070437)scale(0.1 -0.1)">
      <use xlink:href="#DejaVuSans-53"/>
      <use x="63.476562" xlink:href="#DejaVuSans-65"/>
      <use x="125" xlink:href="#DejaVuSans-74"/>
      <use x="164.208984" xlink:href="#DejaVuSans-20"/>
      <use x="195.996094" xlink:href="#DejaVuSans-70"/>
      <use x="259.472656" xlink:href="#DejaVuSans-6f"/>
      <use x="320.654297" xlink:href="#DejaVuSans-69"/>
      <use x="348.4375" xlink:href="#DejaVuSans-6e"/>
      <use x="411.816406" xlink:href="#DejaVuSans-74"/>
     </g>
    </g>
   </g>
  </g>
  <g id="axes_2">
   <g id="patch_7">
    <path d="M 49.52 300.76 
L 447.84 300.76 
L 447.84 199.345701 
L 49.52 199.345701 
z
" style="fill:#eaeaf2;"/>
   </g>
   <g id="matplotlib.axis_3">
    <g id="xtick_8">
     <g id="line2d_27">
      <path clip-path="url(#p6d7a8cdfd4)" d="M 49.52 300.76 
L 49.52 199.345701 
" style="fill:none;stroke:#ffffff;stroke-linecap:round;"/>
     </g>
     <g id="line2d_28"/>
     <g id="text_16">
      <!-- 0.0 -->
      <g style="fill:#262626;" transform="translate(41.568438 315.358437)scale(0.1 -0.1)">
       <use xlink:href="#DejaVuSans-30"/>
       <use x="63.623047" xlink:href="#DejaVuSans-2e"/>
       <use x="95.410156" xlink:href="#DejaVuSans-30"/>
      </g>
     </g>
    </g>
    <g id="xtick_9">
     <g id="line2d_29">
      <path clip-path="url(#p6d7a8cdfd4)" d="M 110.126193 300.76 
L 110.126193 199.345701 
" style="fill:none;stroke:#ffffff;stroke-linecap:round;"/>
     </g>
     <g id="line2d_30"/>
     <g id="text_17">
      <!-- 0.2 -->
      <g style="fill:#262626;" transform="translate(102.174631 315.358437)scale(0.1 -0.1)">
       <use xlink:href="#DejaVuSans-30"/>
       <use x="63.623047" xlink:href="#DejaVuSans-2e"/>
       <use x="95.410156" xlink:href="#DejaVuSans-32"/>
      </g>
     </g>
    </g>
    <g id="xtick_10">
     <g id="line2d_31">
      <path clip-path="url(#p6d7a8cdfd4)" d="M 170.732386 300.76 
L 170.732386 199.345701 
" style="fill:none;stroke:#ffffff;stroke-linecap:round;"/>
     </g>
     <g id="line2d_32"/>
     <g id="text_18">
      <!-- 0.4 -->
      <g style="fill:#262626;" transform="translate(162.780824 315.358437)scale(0.1 -0.1)">
       <use xlink:href="#DejaVuSans-30"/>
       <use x="63.623047" xlink:href="#DejaVuSans-2e"/>
       <use x="95.410156" xlink:href="#DejaVuSans-34"/>
      </g>
     </g>
    </g>
    <g id="xtick_11">
     <g id="line2d_33">
      <path clip-path="url(#p6d7a8cdfd4)" d="M 231.338579 300.76 
L 231.338579 199.345701 
" style="fill:none;stroke:#ffffff;stroke-linecap:round;"/>
     </g>
     <g id="line2d_34"/>
     <g id="text_19">
      <!-- 0.6 -->
      <g style="fill:#262626;" transform="translate(223.387017 315.358437)scale(0.1 -0.1)">
       <use xlink:href="#DejaVuSans-30"/>
       <use x="63.623047" xlink:href="#DejaVuSans-2e"/>
       <use x="95.410156" xlink:href="#DejaVuSans-36"/>
      </g>
     </g>
    </g>
    <g id="xtick_12">
     <g id="line2d_35">
      <path clip-path="url(#p6d7a8cdfd4)" d="M 291.944773 300.76 
L 291.944773 199.345701 
" style="fill:none;stroke:#ffffff;stroke-linecap:round;"/>
     </g>
     <g id="line2d_36"/>
     <g id="text_20">
      <!-- 0.8 -->
      <g style="fill:#262626;" transform="translate(283.99321 315.358437)scale(0.1 -0.1)">
       <use xlink:href="#DejaVuSans-30"/>
       <use x="63.623047" xlink:href="#DejaVuSans-2e"/>
       <use x="95.410156" xlink:href="#DejaVuSans-38"/>
      </g>
     </g>
    </g>
    <g id="xtick_13">
     <g id="line2d_37">
      <path clip-path="url(#p6d7a8cdfd4)" d="M 352.550966 300.76 
L 352.550966 199.345701 
" style="fill:none;stroke:#ffffff;stroke-linecap:round;"/>
     </g>
     <g id="line2d_38"/>
     <g id="text_21">
      <!-- 1.0 -->
      <g style="fill:#262626;" transform="translate(344.599403 315.358437)scale(0.1 -0.1)">
       <use xlink:href="#DejaVuSans-31"/>
       <use x="63.623047" xlink:href="#DejaVuSans-2e"/>
       <use x="95.410156" xlink:href="#DejaVuSans-30"/>
      </g>
     </g>
    </g>
    <g id="xtick_14">
     <g id="line2d_39">
      <path clip-path="url(#p6d7a8cdfd4)" d="M 413.157159 300.76 
L 413.157159 199.345701 
" style="fill:none;stroke:#ffffff;stroke-linecap:round;"/>
     </g>
     <g id="line2d_40"/>
     <g id="text_22">
      <!-- 1.2 -->
      <g style="fill:#262626;" transform="translate(405.205596 315.358437)scale(0.1 -0.1)">
       <use xlink:href="#DejaVuSans-31"/>
       <use x="63.623047" xlink:href="#DejaVuSans-2e"/>
       <use x="95.410156" xlink:href="#DejaVuSans-32"/>
      </g>
     </g>
    </g>
    <g id="text_23">
     <!-- Time (seconds) -->
     <g style="fill:#262626;" transform="translate(206.532813 329.796406)scale(0.11 -0.11)">
      <use xlink:href="#DejaVuSans-54"/>
      <use x="61.037109" xlink:href="#DejaVuSans-69"/>
      <use x="88.820312" xlink:href="#DejaVuSans-6d"/>
      <use x="186.232422" xlink:href="#DejaVuSans-65"/>
      <use x="247.755859" xlink:href="#DejaVuSans-20"/>
      <use x="279.542969" xlink:href="#DejaVuSans-28"/>
      <use x="318.556641" xlink:href="#DejaVuSans-73"/>
      <use x="370.65625" xlink:href="#DejaVuSans-65"/>
      <use x="432.179688" xlink:href="#DejaVuSans-63"/>
      <use x="487.160156" xlink:href="#DejaVuSans-6f"/>
      <use x="548.341797" xlink:href="#DejaVuSans-6e"/>
      <use x="611.720703" xlink:href="#DejaVuSans-64"/>
      <use x="675.197266" xlink:href="#DejaVuSans-73"/>
      <use x="727.296875" xlink:href="#DejaVuSans-29"/>
     </g>
    </g>
   </g>
   <g id="matplotlib.axis_4">
    <g id="ytick_5">
     <g id="line2d_41">
      <path clip-path="url(#p6d7a8cdfd4)" d="M 49.52 287.428325 
L 447.84 287.428325 
" style="fill:none;stroke:#ffffff;stroke-linecap:round;"/>
     </g>
     <g id="line2d_42"/>
     <g id="text_24">
      <!-- 0 -->
      <g style="fill:#262626;" transform="translate(36.1575 291.227544)scale(0.1 -0.1)">
       <use xlink:href="#DejaVuSans-30"/>
      </g>
     </g>
    </g>
    <g id="ytick_6">
     <g id="line2d_43">
      <path clip-path="url(#p6d7a8cdfd4)" d="M 49.52 265.718216 
L 447.84 265.718216 
" style="fill:none;stroke:#ffffff;stroke-linecap:round;"/>
     </g>
     <g id="line2d_44"/>
     <g id="text_25">
      <!-- 10 -->
      <g style="fill:#262626;" transform="translate(29.795 269.517434)scale(0.1 -0.1)">
       <use xlink:href="#DejaVuSans-31"/>
       <use x="63.623047" xlink:href="#DejaVuSans-30"/>
      </g>
     </g>
    </g>
    <g id="ytick_7">
     <g id="line2d_45">
      <path clip-path="url(#p6d7a8cdfd4)" d="M 49.52 244.008106 
L 447.84 244.008106 
" style="fill:none;stroke:#ffffff;stroke-linecap:round;"/>
     </g>
     <g id="line2d_46"/>
     <g id="text_26">
      <!-- 20 -->
      <g style="fill:#262626;" transform="translate(29.795 247.807325)scale(0.1 -0.1)">
       <use xlink:href="#DejaVuSans-32"/>
       <use x="63.623047" xlink:href="#DejaVuSans-30"/>
      </g>
     </g>
    </g>
    <g id="ytick_8">
     <g id="line2d_47">
      <path clip-path="url(#p6d7a8cdfd4)" d="M 49.52 222.297997 
L 447.84 222.297997 
" style="fill:none;stroke:#ffffff;stroke-linecap:round;"/>
     </g>
     <g id="line2d_48"/>
     <g id="text_27">
      <!-- 30 -->
      <defs>
       <path d="M 40.578125 39.3125 
Q 47.65625 37.796875 51.625 33 
Q 55.609375 28.21875 55.609375 21.1875 
Q 55.609375 10.40625 48.1875 4.484375 
Q 40.765625 -1.421875 27.09375 -1.421875 
Q 22.515625 -1.421875 17.65625 -0.515625 
Q 12.796875 0.390625 7.625 2.203125 
L 7.625 11.71875 
Q 11.71875 9.328125 16.59375 8.109375 
Q 21.484375 6.890625 26.8125 6.890625 
Q 36.078125 6.890625 40.9375 10.546875 
Q 45.796875 14.203125 45.796875 21.1875 
Q 45.796875 27.640625 41.28125 31.265625 
Q 36.765625 34.90625 28.71875 34.90625 
L 20.21875 34.90625 
L 20.21875 43.015625 
L 29.109375 43.015625 
Q 36.375 43.015625 40.234375 45.921875 
Q 44.09375 48.828125 44.09375 54.296875 
Q 44.09375 59.90625 40.109375 62.90625 
Q 36.140625 65.921875 28.71875 65.921875 
Q 24.65625 65.921875 20.015625 65.03125 
Q 15.375 64.15625 9.8125 62.3125 
L 9.8125 71.09375 
Q 15.4375 72.65625 20.34375 73.4375 
Q 25.25 74.21875 29.59375 74.21875 
Q 40.828125 74.21875 47.359375 69.109375 
Q 53.90625 64.015625 53.90625 55.328125 
Q 53.90625 49.265625 50.4375 45.09375 
Q 46.96875 40.921875 40.578125 39.3125 
z
" id="DejaVuSans-33"/>
      </defs>
      <g style="fill:#262626;" transform="translate(29.795 226.097215)scale(0.1 -0.1)">
       <use xlink:href="#DejaVuSans-33"/>
       <use x="63.623047" xlink:href="#DejaVuSans-30"/>
      </g>
     </g>
    </g>
    <g id="ytick_9">
     <g id="line2d_49">
      <path clip-path="url(#p6d7a8cdfd4)" d="M 49.52 200.587887 
L 447.84 200.587887 
" style="fill:none;stroke:#ffffff;stroke-linecap:round;"/>
     </g>
     <g id="line2d_50"/>
     <g id="text_28">
      <!-- 40 -->
      <g style="fill:#262626;" transform="translate(29.795 204.387106)scale(0.1 -0.1)">
       <use xlink:href="#DejaVuSans-34"/>
       <use x="63.623047" xlink:href="#DejaVuSans-30"/>
      </g>
     </g>
    </g>
    <g id="text_29">
     <!-- Duty cycle (%) -->
     <defs>
      <path d="M 19.671875 64.796875 
L 19.671875 8.109375 
L 31.59375 8.109375 
Q 46.6875 8.109375 53.6875 14.9375 
Q 60.6875 21.78125 60.6875 36.53125 
Q 60.6875 51.171875 53.6875 57.984375 
Q 46.6875 64.796875 31.59375 64.796875 
z
M 9.8125 72.90625 
L 30.078125 72.90625 
Q 51.265625 72.90625 61.171875 64.09375 
Q 71.09375 55.28125 71.09375 36.53125 
Q 71.09375 17.671875 61.125 8.828125 
Q 51.171875 0 30.078125 0 
L 9.8125 0 
z
" id="DejaVuSans-44"/>
      <path d="M 8.5 21.578125 
L 8.5 54.6875 
L 17.484375 54.6875 
L 17.484375 21.921875 
Q 17.484375 14.15625 20.5 10.265625 
Q 23.53125 6.390625 29.59375 6.390625 
Q 36.859375 6.390625 41.078125 11.03125 
Q 45.3125 15.671875 45.3125 23.6875 
L 45.3125 54.6875 
L 54.296875 54.6875 
L 54.296875 0 
L 45.3125 0 
L 45.3125 8.40625 
Q 42.046875 3.421875 37.71875 1 
Q 33.40625 -1.421875 27.6875 -1.421875 
Q 18.265625 -1.421875 13.375 4.4375 
Q 8.5 10.296875 8.5 21.578125 
z
M 31.109375 56 
z
" id="DejaVuSans-75"/>
      <path d="M 72.703125 32.078125 
Q 68.453125 32.078125 66.03125 28.46875 
Q 63.625 24.859375 63.625 18.40625 
Q 63.625 12.0625 66.03125 8.421875 
Q 68.453125 4.78125 72.703125 4.78125 
Q 76.859375 4.78125 79.265625 8.421875 
Q 81.6875 12.0625 81.6875 18.40625 
Q 81.6875 24.8125 79.265625 28.4375 
Q 76.859375 32.078125 72.703125 32.078125 
z
M 72.703125 38.28125 
Q 80.421875 38.28125 84.953125 32.90625 
Q 89.5 27.546875 89.5 18.40625 
Q 89.5 9.28125 84.9375 3.921875 
Q 80.375 -1.421875 72.703125 -1.421875 
Q 64.890625 -1.421875 60.34375 3.921875 
Q 55.8125 9.28125 55.8125 18.40625 
Q 55.8125 27.59375 60.375 32.9375 
Q 64.9375 38.28125 72.703125 38.28125 
z
M 22.3125 68.015625 
Q 18.109375 68.015625 15.6875 64.375 
Q 13.28125 60.75 13.28125 54.390625 
Q 13.28125 47.953125 15.671875 44.328125 
Q 18.0625 40.71875 22.3125 40.71875 
Q 26.5625 40.71875 28.96875 44.328125 
Q 31.390625 47.953125 31.390625 54.390625 
Q 31.390625 60.6875 28.953125 64.34375 
Q 26.515625 68.015625 22.3125 68.015625 
z
M 66.40625 74.21875 
L 74.21875 74.21875 
L 28.609375 -1.421875 
L 20.796875 -1.421875 
z
M 22.3125 74.21875 
Q 30.03125 74.21875 34.609375 68.875 
Q 39.203125 63.53125 39.203125 54.390625 
Q 39.203125 45.171875 34.640625 39.84375 
Q 30.078125 34.515625 22.3125 34.515625 
Q 14.546875 34.515625 10.03125 39.859375 
Q 5.515625 45.21875 5.515625 54.390625 
Q 5.515625 63.484375 10.046875 68.84375 
Q 14.59375 74.21875 22.3125 74.21875 
z
" id="DejaVuSans-25"/>
     </defs>
     <g style="fill:#262626;" transform="translate(23.507344 290.414257)rotate(-90)scale(0.11 -0.11)">
      <use xlink:href="#DejaVuSans-44"/>
      <use x="77.001953" xlink:href="#DejaVuSans-75"/>
      <use x="140.380859" xlink:href="#DejaVuSans-74"/>
      <use x="179.589844" xlink:href="#DejaVuSans-79"/>
      <use x="238.769531" xlink:href="#DejaVuSans-20"/>
      <use x="270.556641" xlink:href="#DejaVuSans-63"/>
      <use x="325.537109" xlink:href="#DejaVuSans-79"/>
      <use x="384.716797" xlink:href="#DejaVuSans-63"/>
      <use x="439.697266" xlink:href="#DejaVuSans-6c"/>
      <use x="467.480469" xlink:href="#DejaVuSans-65"/>
      <use x="529.003906" xlink:href="#DejaVuSans-20"/>
      <use x="560.791016" xlink:href="#DejaVuSans-28"/>
      <use x="599.804688" xlink:href="#DejaVuSans-25"/>
      <use x="694.824219" xlink:href="#DejaVuSans-29"/>
     </g>
    </g>
   </g>
   <g id="line2d_51">
    <path clip-path="url(#p6d7a8cdfd4)" d="M 49.52 287.428325 
L 50.111857 243.074422 
L 50.703715 242.211855 
L 51.295572 241.661145 
L 51.887429 240.516947 
L 52.479287 238.092381 
L 53.071144 237.196994 
L 53.663001 236.583223 
L 54.254859 236.349716 
L 54.846716 236.580101 
L 55.438574 236.401108 
L 57.214146 236.348933 
L 58.989718 234.487358 
L 59.581575 232.825599 
L 60.173432 232.581636 
L 60.76529 231.634838 
L 61.357147 231.882851 
L 61.949004 232.586166 
L 63.132719 235.237406 
L 63.724577 235.559437 
L 64.316434 236.505846 
L 65.500149 240.04733 
L 66.092006 241.133539 
L 67.867578 246.901027 
L 69.051293 249.04304 
L 70.826865 254.806339 
L 72.602437 258.617992 
L 73.194294 260.071109 
L 73.786152 261.171444 
L 77.337296 270.327082 
L 78.52101 273.029161 
L 80.296582 277.440585 
L 83.255869 283.553383 
L 87.990728 294.628053 
L 89.174443 296.398901 
L 90.358158 297.652975 
L 90.950015 298.042371 
L 92.13373 298.429347 
L 93.317444 298.740406 
L 93.909302 299.022222 
L 95.093016 299.869198 
L 95.684874 300.580831 
L 96.276731 300.76 
L 96.868588 300.6661 
L 98.052303 299.546097 
L 99.827875 297.643654 
L 101.01159 296.960125 
L 101.603447 296.76583 
L 102.195305 296.446883 
L 102.787162 295.928271 
L 105.154591 293.167507 
L 106.930163 291.41307 
L 107.522021 290.585049 
L 108.113878 289.518451 
L 111.073165 283.047124 
L 111.665022 282.148047 
L 112.848737 281.034309 
L 114.624309 280.079071 
L 115.808024 279.40134 
L 116.991738 278.340003 
L 118.175453 276.856217 
L 119.359168 275.098748 
L 119.951025 273.91777 
L 121.726597 271.991488 
L 124.685884 269.49188 
L 125.869599 267.968396 
L 127.645171 265.066349 
L 129.420743 261.356598 
L 131.196315 257.075254 
L 132.971887 252.946517 
L 134.155602 251.262682 
L 134.747459 250.767589 
L 135.339316 250.661776 
L 137.114889 248.957897 
L 138.298603 247.207484 
L 138.890461 247.117647 
L 139.482318 246.294719 
L 140.666033 245.585423 
L 141.25789 244.128006 
L 141.849747 244.27985 
L 142.441605 243.480914 
L 143.033462 242.920197 
L 143.625319 243.154817 
L 144.217177 242.165296 
L 144.809034 242.360895 
L 145.400892 241.826217 
L 147.176464 240.855408 
L 147.768321 240.19402 
L 148.360178 240.361143 
L 148.952036 239.123733 
L 149.543893 239.316899 
L 150.727608 240.275967 
L 151.319465 240.740878 
L 151.911322 240.53495 
L 152.50318 241.175174 
L 153.095037 241.154587 
L 153.686895 241.283258 
L 154.278752 241.180926 
L 154.870609 240.506566 
L 155.462467 240.655553 
L 156.646181 239.923928 
L 157.238039 240.727284 
L 157.829896 240.193671 
L 159.013611 240.999491 
L 159.605468 241.601753 
L 160.197325 241.680591 
L 160.789183 241.090293 
L 161.38104 241.016831 
L 161.972897 241.118535 
L 162.564755 241.95394 
L 163.156612 242.401779 
L 163.74847 242.451593 
L 164.340327 243.573676 
L 165.524042 244.420818 
L 166.115899 244.340433 
L 167.891471 244.907241 
L 168.483328 244.742409 
L 169.075186 245.183942 
L 169.667043 245.359318 
L 170.2589 246.031842 
L 170.850758 245.888936 
L 171.442615 246.147139 
L 172.034473 246.672787 
L 172.62633 246.568143 
L 173.218187 246.801565 
L 173.810045 247.42181 
L 174.401902 248.313438 
L 174.993759 247.940141 
L 175.585617 248.741387 
L 176.177474 248.777976 
L 176.769331 248.703094 
L 177.361189 249.078558 
L 178.544903 249.040071 
L 179.136761 249.08639 
L 179.728618 249.291836 
L 180.320475 250.023774 
L 180.912333 250.270616 
L 181.50419 250.091442 
L 182.687905 250.473075 
L 183.279762 250.660113 
L 183.87162 250.670825 
L 184.463477 250.294338 
L 185.055334 250.230229 
L 185.647192 250.598702 
L 186.830906 250.609352 
L 187.422764 250.685188 
L 188.014621 251.060782 
L 189.790193 251.768761 
L 190.382051 251.128103 
L 190.973908 250.776181 
L 192.157623 251.199388 
L 192.74948 251.515858 
L 193.341337 251.556736 
L 193.933195 251.316086 
L 195.116909 251.232356 
L 195.708767 250.893238 
L 196.300624 250.949004 
L 196.892481 250.225949 
L 197.484339 250.087955 
L 198.076196 249.629372 
L 199.259911 249.401805 
L 200.443626 249.088913 
L 201.035483 249.171615 
L 201.62734 249.408638 
L 202.219198 248.929813 
L 202.811055 249.007665 
L 203.402912 248.63059 
L 203.99477 247.731354 
L 204.586627 247.142363 
L 205.770342 247.073388 
L 206.362199 247.183632 
L 206.954056 246.960226 
L 207.545914 246.949993 
L 208.137771 246.685058 
L 208.729629 246.153531 
L 210.505201 244.992485 
L 211.097058 244.24969 
L 211.688915 243.327824 
L 212.280773 243.367787 
L 212.87263 242.452188 
L 214.648202 242.316406 
L 215.240059 242.207928 
L 215.831917 241.935556 
L 217.015632 240.929407 
L 217.607489 239.83018 
L 218.199346 239.896912 
L 218.791204 240.503541 
L 219.383061 239.578333 
L 219.974918 239.874163 
L 221.158633 239.408846 
L 221.75049 239.344086 
L 222.342348 238.866624 
L 222.934205 238.559785 
L 223.526062 237.395682 
L 224.11792 237.302273 
L 225.301634 236.018284 
L 226.485349 236.444969 
L 227.077207 236.787455 
L 227.669064 235.26174 
L 228.260921 235.464666 
L 228.852779 233.768618 
L 229.444636 234.5472 
L 230.036493 234.18738 
L 230.628351 234.790276 
L 232.403923 234.410059 
L 232.99578 233.555554 
L 233.587637 233.149163 
L 234.179495 232.410385 
L 234.771352 232.273361 
L 235.36321 232.006851 
L 235.955067 231.581719 
L 237.138782 231.834377 
L 237.730639 232.270734 
L 238.322496 232.221037 
L 238.914354 230.231923 
L 239.506211 230.873286 
L 240.098068 230.743463 
L 240.689926 231.24909 
L 241.281783 230.783436 
L 241.87364 231.418659 
L 242.465498 231.177026 
L 243.057355 230.424163 
L 243.649212 230.091049 
L 244.24107 230.303198 
L 244.832927 230.803978 
L 245.424785 230.868673 
L 246.016642 231.115547 
L 246.608499 231.190594 
L 247.200357 230.820348 
L 248.384071 229.459721 
L 248.975929 229.946326 
L 249.567786 229.448314 
L 250.159643 230.393624 
L 250.751501 230.912353 
L 251.343358 231.590395 
L 251.935215 231.660577 
L 252.527073 231.206614 
L 253.11893 231.819547 
L 253.710788 231.273599 
L 254.302645 231.106806 
L 254.894502 231.130855 
L 256.078217 230.840088 
L 256.670074 230.813269 
L 257.261932 229.419445 
L 257.853789 229.964558 
L 258.445646 230.326044 
L 259.037504 230.50601 
L 259.629361 229.994877 
L 260.813076 230.743696 
L 261.404933 230.176099 
L 261.99679 230.681428 
L 263.180505 232.061886 
L 264.36422 232.436965 
L 265.547935 232.259444 
L 266.139792 231.864418 
L 266.731649 231.27893 
L 267.323507 231.480921 
L 267.915364 231.406036 
L 268.507221 231.683313 
L 269.099079 231.425938 
L 269.690936 231.381255 
L 270.282793 231.007742 
L 270.874651 231.978195 
L 271.466508 232.278052 
L 272.058366 232.98369 
L 272.650223 233.336757 
L 273.24208 233.395089 
L 273.833938 233.109967 
L 274.425795 231.976144 
L 275.017652 232.31994 
L 275.60951 231.800059 
L 276.201367 232.08391 
L 277.385082 232.369488 
L 277.976939 231.980627 
L 278.568796 231.795692 
L 279.160654 230.303211 
L 279.752511 230.54956 
L 280.344368 230.972667 
L 280.936226 231.026143 
L 281.528083 231.525552 
L 282.119941 231.172303 
L 282.711798 231.543215 
L 283.303655 229.982261 
L 283.895513 230.595731 
L 284.48737 230.961687 
L 285.079227 230.315633 
L 285.671085 230.681117 
L 286.262942 229.693978 
L 286.854799 229.67788 
L 287.446657 228.48723 
L 288.038514 227.650586 
L 288.630371 228.186408 
L 289.222229 227.580521 
L 289.814086 227.53424 
L 290.405944 228.119533 
L 290.997801 227.79991 
L 291.589658 228.158581 
L 292.181516 227.066431 
L 292.773373 227.524224 
L 293.36523 226.807555 
L 293.957088 226.733466 
L 294.548945 226.858553 
L 295.140802 224.908162 
L 295.73266 224.51168 
L 296.324517 223.608736 
L 296.916374 223.669821 
L 297.508232 223.965641 
L 298.100089 222.885248 
L 298.691947 223.06227 
L 299.283804 222.887247 
L 300.467519 222.812634 
L 301.059376 221.87457 
L 301.651233 222.188979 
L 302.243091 222.095777 
L 302.834948 222.295729 
L 304.61052 220.906214 
L 305.202377 218.932155 
L 305.794235 219.174467 
L 306.386092 218.328564 
L 306.977949 218.135884 
L 307.569807 218.217369 
L 308.161664 218.148876 
L 308.753522 217.322079 
L 309.937236 219.185337 
L 310.529094 219.205207 
L 311.120951 219.592741 
L 311.712808 219.030598 
L 312.304666 218.632369 
L 312.896523 216.843485 
L 313.48838 217.02285 
L 314.080238 217.026059 
L 314.672095 216.098755 
L 315.263952 216.401828 
L 315.85581 215.854883 
L 316.447667 215.841367 
L 317.039525 215.142362 
L 317.631382 215.458925 
L 318.223239 215.356413 
L 318.815097 215.875025 
L 320.590669 215.14845 
L 321.182526 214.420989 
L 321.774383 214.722315 
L 322.366241 214.492464 
L 322.958098 213.964807 
L 323.549955 214.041821 
L 324.141813 212.012902 
L 324.73367 212.615024 
L 325.325527 213.408752 
L 325.917385 213.154004 
L 327.1011 214.490608 
L 327.692957 212.691333 
L 328.284814 213.115559 
L 328.876672 212.432237 
L 329.468529 212.325085 
L 330.060386 212.09823 
L 330.652244 212.289267 
L 331.244101 210.836628 
L 331.835958 211.719793 
L 332.427816 212.338983 
L 333.019673 213.186116 
L 333.61153 213.216849 
L 334.203388 213.567089 
L 334.795245 213.03027 
L 335.387103 213.577202 
L 335.97896 213.599349 
L 336.570817 214.245882 
L 337.162675 214.383042 
L 337.754532 213.724617 
L 338.346389 213.331098 
L 339.530104 214.013631 
L 340.121961 213.997371 
L 340.713819 214.804292 
L 341.305676 215.047206 
L 343.081248 216.970105 
L 343.673105 217.127174 
L 344.264963 216.875525 
L 344.85682 215.264848 
L 345.448678 215.673377 
L 346.040535 215.871408 
L 347.22425 216.84243 
L 347.816107 217.208438 
L 348.407964 216.905488 
L 348.999822 217.547738 
L 349.591679 217.568565 
L 350.183536 217.979197 
L 351.367251 216.986429 
L 351.959108 217.432272 
L 353.142823 217.946692 
L 354.326538 218.300795 
L 354.918395 217.895235 
L 355.510253 218.085838 
L 356.10211 218.64054 
L 357.877682 219.509322 
L 358.469539 218.676527 
L 359.061397 218.99126 
L 359.653254 218.825715 
L 360.836969 217.883 
L 361.428826 217.242445 
L 362.612541 218.146101 
L 363.204398 218.46555 
L 363.796256 218.655862 
L 364.388113 218.187438 
L 364.97997 217.056649 
L 366.163685 217.070838 
L 366.755542 216.844675 
L 367.3474 217.001537 
L 367.939257 216.480505 
L 368.531114 216.205874 
L 369.122972 216.072247 
L 369.714829 215.668453 
L 370.306686 215.712049 
L 370.898544 215.632732 
L 371.490401 215.869804 
L 372.082259 215.33072 
L 372.674116 215.626424 
L 373.265973 215.741546 
L 373.857831 215.476627 
L 374.449688 214.700433 
L 375.041545 212.829082 
L 376.22526 212.821052 
L 377.408975 212.757179 
L 378.000832 212.975474 
L 378.592689 212.326586 
L 379.184547 212.403548 
L 379.776404 211.911192 
L 380.368262 211.654801 
L 380.960119 211.615009 
L 381.551976 210.722748 
L 382.143834 210.652683 
L 382.735691 210.843254 
L 383.327548 209.881523 
L 383.919406 210.06849 
L 385.10312 208.531345 
L 385.694978 208.963898 
L 386.286835 208.874119 
L 386.878692 209.160829 
L 388.062407 207.847771 
L 388.654264 207.447737 
L 389.246122 207.377322 
L 389.837979 206.4853 
L 391.613551 205.510674 
L 392.205409 206.008524 
L 392.797266 205.424783 
L 393.389123 205.869682 
L 393.980981 204.977336 
L 394.572838 203.689252 
L 395.164695 204.056043 
L 396.34841 204.127965 
L 396.940267 203.267666 
L 397.532125 203.137714 
L 398.123982 203.537534 
L 398.71584 203.306066 
L 399.307697 203.24273 
L 399.899554 202.77342 
L 400.491412 201.069269 
L 401.083269 201.906845 
L 401.675126 201.860215 
L 402.266984 202.169383 
L 402.858841 201.727202 
L 404.042556 200.128624 
L 404.634413 200.267169 
L 405.818128 201.401134 
L 406.409985 200.948989 
L 407.001842 201.397556 
L 407.5937 200.42722 
L 408.185557 200.341025 
L 408.777415 199.75249 
L 409.369272 199.345701 
L 409.961129 200.03306 
L 410.552987 199.618086 
L 411.144844 200.765659 
L 411.736701 200.723629 
L 412.328559 199.720521 
L 412.920416 200.609781 
L 414.104131 201.263418 
L 414.695988 200.070716 
L 415.287845 200.106173 
L 415.879703 199.922408 
L 417.063418 200.083178 
L 417.655275 200.361645 
L 418.83899 202.489272 
L 419.430847 203.02745 
L 420.614562 201.314868 
L 421.206419 201.975596 
L 422.390134 202.021418 
L 422.981991 201.599637 
L 423.573848 202.162492 
L 424.757563 203.744332 
L 425.349421 203.631565 
L 425.941278 203.081863 
L 426.533135 203.914995 
L 427.124993 204.356496 
L 427.71685 204.245326 
L 428.308707 203.707058 
L 428.900565 203.491732 
L 429.492422 203.739583 
L 430.084279 204.721546 
L 430.676137 205.1938 
L 431.267994 205.470566 
L 431.859851 205.896468 
L 432.451709 206.080465 
L 433.043566 205.929291 
L 433.635423 206.002067 
L 434.227281 205.019948 
L 435.410996 205.428109 
L 436.002853 206.232636 
L 436.59471 206.300921 
L 437.186568 206.245984 
L 438.370282 207.022559 
L 438.96214 206.841894 
L 439.553997 205.617502 
L 440.145854 205.600285 
L 440.737712 205.747235 
L 441.329569 206.115138 
L 441.921426 205.390699 
L 442.513284 205.150431 
L 443.696999 206.539423 
L 444.288856 206.85497 
L 444.880713 206.481554 
L 445.472571 205.45595 
L 446.064428 205.432159 
L 446.656285 205.032507 
L 447.248143 205.082255 
L 447.84 203.590266 
L 447.84 203.590266 
" style="fill:none;stroke:#4c72b0;stroke-linecap:round;stroke-width:1.75;"/>
   </g>
   <g id="patch_8">
    <path d="M 49.52 300.76 
L 49.52 199.345701 
" style="fill:none;"/>
   </g>
   <g id="patch_9">
    <path d="M 447.84 300.76 
L 447.84 199.345701 
" style="fill:none;"/>
   </g>
   <g id="patch_10">
    <path d="M 49.52 300.76 
L 447.84 300.76 
" style="fill:none;"/>
   </g>
   <g id="patch_11">
    <path d="M 49.52 199.345701 
L 447.84 199.345701 
" style="fill:none;"/>
   </g>
   <g id="text_30">
    <!-- u(t), control variable -->
    <g style="fill:#262626;" transform="translate(186.98875 193.345701)scale(0.12 -0.12)">
     <use xlink:href="#DejaVuSans-75"/>
     <use x="63.378906" xlink:href="#DejaVuSans-28"/>
     <use x="102.392578" xlink:href="#DejaVuSans-74"/>
     <use x="141.601562" xlink:href="#DejaVuSans-29"/>
     <use x="180.615234" xlink:href="#DejaVuSans-2c"/>
     <use x="212.402344" xlink:href="#DejaVuSans-20"/>
     <use x="244.189453" xlink:href="#DejaVuSans-63"/>
     <use x="299.169922" xlink:href="#DejaVuSans-6f"/>
     <use x="360.351562" xlink:href="#DejaVuSans-6e"/>
     <use x="423.730469" xlink:href="#DejaVuSans-74"/>
     <use x="462.939453" xlink:href="#DejaVuSans-72"/>
     <use x="504.021484" xlink:href="#DejaVuSans-6f"/>
     <use x="565.203125" xlink:href="#DejaVuSans-6c"/>
     <use x="592.986328" xlink:href="#DejaVuSans-20"/>
     <use x="624.773438" xlink:href="#DejaVuSans-76"/>
     <use x="683.953125" xlink:href="#DejaVuSans-61"/>
     <use x="745.232422" xlink:href="#DejaVuSans-72"/>
     <use x="786.345703" xlink:href="#DejaVuSans-69"/>
     <use x="814.128906" xlink:href="#DejaVuSans-61"/>
     <use x="875.408203" xlink:href="#DejaVuSans-62"/>
     <use x="938.884766" xlink:href="#DejaVuSans-6c"/>
     <use x="966.667969" xlink:href="#DejaVuSans-65"/>
    </g>
   </g>
  </g>
  <g id="text_31">
   <!-- Moving forward -->
   <defs>
    <path d="M 9.8125 72.90625 
L 24.515625 72.90625 
L 43.109375 23.296875 
L 61.8125 72.90625 
L 76.515625 72.90625 
L 76.515625 0 
L 66.890625 0 
L 66.890625 64.015625 
L 48.09375 14.015625 
L 38.1875 14.015625 
L 19.390625 64.015625 
L 19.390625 0 
L 9.8125 0 
z
" id="DejaVuSans-4d"/>
    <path d="M 37.109375 75.984375 
L 37.109375 68.5 
L 28.515625 68.5 
Q 23.6875 68.5 21.796875 66.546875 
Q 19.921875 64.59375 19.921875 59.515625 
L 19.921875 54.6875 
L 34.71875 54.6875 
L 34.71875 47.703125 
L 19.921875 47.703125 
L 19.921875 0 
L 10.890625 0 
L 10.890625 47.703125 
L 2.296875 47.703125 
L 2.296875 54.6875 
L 10.890625 54.6875 
L 10.890625 58.5 
Q 10.890625 67.625 15.140625 71.796875 
Q 19.390625 75.984375 28.609375 75.984375 
z
" id="DejaVuSans-66"/>
    <path d="M 4.203125 54.6875 
L 13.1875 54.6875 
L 24.421875 12.015625 
L 35.59375 54.6875 
L 46.1875 54.6875 
L 57.421875 12.015625 
L 68.609375 54.6875 
L 77.59375 54.6875 
L 63.28125 0 
L 52.6875 0 
L 40.921875 44.828125 
L 29.109375 0 
L 18.5 0 
z
" id="DejaVuSans-77"/>
   </defs>
   <g style="fill:#262626;" transform="translate(174.36825 17.85375)scale(0.144 -0.144)">
    <use xlink:href="#DejaVuSans-4d"/>
    <use x="86.279297" xlink:href="#DejaVuSans-6f"/>
    <use x="147.460938" xlink:href="#DejaVuSans-76"/>
    <use x="206.640625" xlink:href="#DejaVuSans-69"/>
    <use x="234.423828" xlink:href="#DejaVuSans-6e"/>
    <use x="297.802734" xlink:href="#DejaVuSans-67"/>
    <use x="361.279297" xlink:href="#DejaVuSans-20"/>
    <use x="393.066406" xlink:href="#DejaVuSans-66"/>
    <use x="428.271484" xlink:href="#DejaVuSans-6f"/>
    <use x="489.453125" xlink:href="#DejaVuSans-72"/>
    <use x="530.566406" xlink:href="#DejaVuSans-77"/>
    <use x="612.353516" xlink:href="#DejaVuSans-61"/>
    <use x="673.632812" xlink:href="#DejaVuSans-72"/>
    <use x="714.730469" xlink:href="#DejaVuSans-64"/>
   </g>
  </g>
 </g>
 <defs>
  <clipPath id="pd9eb9ae4a7">
   <rect height="101.414299" width="398.32" x="49.52" y="41.472"/>
  </clipPath>
  <clipPath id="p6d7a8cdfd4">
   <rect height="101.414299" width="398.32" x="49.52" y="199.345701"/>
  </clipPath>
 </defs>
</svg>
