<?xml version="1.0" encoding="utf-8" standalone="no"?>
<!DOCTYPE svg PUBLIC "-//W3C//DTD SVG 1.1//EN"
  "http://www.w3.org/Graphics/SVG/1.1/DTD/svg11.dtd">
<!-- Created with matplotlib (http://matplotlib.org/) -->
<svg height="345pt" version="1.1" viewBox="0 0 460 345" width="460pt" xmlns="http://www.w3.org/2000/svg" xmlns:xlink="http://www.w3.org/1999/xlink">
 <defs>
  <style type="text/css">
*{stroke-linecap:butt;stroke-linejoin:round;}
  </style>
 </defs>
 <g id="figure_1">
  <g id="patch_1">
   <path d="M 0 345.6 
L 460.8 345.6 
L 460.8 0 
L 0 0 
z
" style="fill:#ffffff;"/>
  </g>
  <g id="axes_1">
   <g id="patch_2">
    <path d="M 50.69 150.136401 
L 447.84 150.136401 
L 447.84 41.472 
L 50.69 41.472 
z
" style="fill:#eaeaf2;"/>
   </g>
   <g id="matplotlib.axis_1">
    <g id="xtick_1">
     <g id="line2d_1">
      <path clip-path="url(#pdb9cc842b4)" d="M 50.69 150.136401 
L 50.69 41.472 
" style="fill:none;stroke:#ffffff;stroke-linecap:round;"/>
     </g>
     <g id="line2d_2"/>
     <g id="text_1">
      <!-- 0.0 -->
      <defs>
       <path d="M 31.78125 66.40625 
Q 24.171875 66.40625 20.328125 58.90625 
Q 16.5 51.421875 16.5 36.375 
Q 16.5 21.390625 20.328125 13.890625 
Q 24.171875 6.390625 31.78125 6.390625 
Q 39.453125 6.390625 43.28125 13.890625 
Q 47.125 21.390625 47.125 36.375 
Q 47.125 51.421875 43.28125 58.90625 
Q 39.453125 66.40625 31.78125 66.40625 
z
M 31.78125 74.21875 
Q 44.046875 74.21875 50.515625 64.515625 
Q 56.984375 54.828125 56.984375 36.375 
Q 56.984375 17.96875 50.515625 8.265625 
Q 44.046875 -1.421875 31.78125 -1.421875 
Q 19.53125 -1.421875 13.0625 8.265625 
Q 6.59375 17.96875 6.59375 36.375 
Q 6.59375 54.828125 13.0625 64.515625 
Q 19.53125 74.21875 31.78125 74.21875 
z
" id="DejaVuSans-30"/>
       <path d="M 10.6875 12.40625 
L 21 12.40625 
L 21 0 
L 10.6875 0 
z
" id="DejaVuSans-2e"/>
      </defs>
      <g style="fill:#262626;" transform="translate(42.738438 164.734839)scale(0.1 -0.1)">
       <use xlink:href="#DejaVuSans-30"/>
       <use x="63.623047" xlink:href="#DejaVuSans-2e"/>
       <use x="95.410156" xlink:href="#DejaVuSans-30"/>
      </g>
     </g>
    </g>
    <g id="xtick_2">
     <g id="line2d_3">
      <path clip-path="url(#pdb9cc842b4)" d="M 121.196519 150.136401 
L 121.196519 41.472 
" style="fill:none;stroke:#ffffff;stroke-linecap:round;"/>
     </g>
     <g id="line2d_4"/>
     <g id="text_2">
      <!-- 0.5 -->
      <defs>
       <path d="M 10.796875 72.90625 
L 49.515625 72.90625 
L 49.515625 64.59375 
L 19.828125 64.59375 
L 19.828125 46.734375 
Q 21.96875 47.46875 24.109375 47.828125 
Q 26.265625 48.1875 28.421875 48.1875 
Q 40.625 48.1875 47.75 41.5 
Q 54.890625 34.8125 54.890625 23.390625 
Q 54.890625 11.625 47.5625 5.09375 
Q 40.234375 -1.421875 26.90625 -1.421875 
Q 22.3125 -1.421875 17.546875 -0.640625 
Q 12.796875 0.140625 7.71875 1.703125 
L 7.71875 11.625 
Q 12.109375 9.234375 16.796875 8.0625 
Q 21.484375 6.890625 26.703125 6.890625 
Q 35.15625 6.890625 40.078125 11.328125 
Q 45.015625 15.765625 45.015625 23.390625 
Q 45.015625 31 40.078125 35.4375 
Q 35.15625 39.890625 26.703125 39.890625 
Q 22.75 39.890625 18.8125 39.015625 
Q 14.890625 38.140625 10.796875 36.28125 
z
" id="DejaVuSans-35"/>
      </defs>
      <g style="fill:#262626;" transform="translate(113.244956 164.734839)scale(0.1 -0.1)">
       <use xlink:href="#DejaVuSans-30"/>
       <use x="63.623047" xlink:href="#DejaVuSans-2e"/>
       <use x="95.410156" xlink:href="#DejaVuSans-35"/>
      </g>
     </g>
    </g>
    <g id="xtick_3">
     <g id="line2d_5">
      <path clip-path="url(#pdb9cc842b4)" d="M 191.703037 150.136401 
L 191.703037 41.472 
" style="fill:none;stroke:#ffffff;stroke-linecap:round;"/>
     </g>
     <g id="line2d_6"/>
     <g id="text_3">
      <!-- 1.0 -->
      <defs>
       <path d="M 12.40625 8.296875 
L 28.515625 8.296875 
L 28.515625 63.921875 
L 10.984375 60.40625 
L 10.984375 69.390625 
L 28.421875 72.90625 
L 38.28125 72.90625 
L 38.28125 8.296875 
L 54.390625 8.296875 
L 54.390625 0 
L 12.40625 0 
z
" id="DejaVuSans-31"/>
      </defs>
      <g style="fill:#262626;" transform="translate(183.751475 164.734839)scale(0.1 -0.1)">
       <use xlink:href="#DejaVuSans-31"/>
       <use x="63.623047" xlink:href="#DejaVuSans-2e"/>
       <use x="95.410156" xlink:href="#DejaVuSans-30"/>
      </g>
     </g>
    </g>
    <g id="xtick_4">
     <g id="line2d_7">
      <path clip-path="url(#pdb9cc842b4)" d="M 262.209556 150.136401 
L 262.209556 41.472 
" style="fill:none;stroke:#ffffff;stroke-linecap:round;"/>
     </g>
     <g id="line2d_8"/>
     <g id="text_4">
      <!-- 1.5 -->
      <g style="fill:#262626;" transform="translate(254.257994 164.734839)scale(0.1 -0.1)">
       <use xlink:href="#DejaVuSans-31"/>
       <use x="63.623047" xlink:href="#DejaVuSans-2e"/>
       <use x="95.410156" xlink:href="#DejaVuSans-35"/>
      </g>
     </g>
    </g>
    <g id="xtick_5">
     <g id="line2d_9">
      <path clip-path="url(#pdb9cc842b4)" d="M 332.716075 150.136401 
L 332.716075 41.472 
" style="fill:none;stroke:#ffffff;stroke-linecap:round;"/>
     </g>
     <g id="line2d_10"/>
     <g id="text_5">
      <!-- 2.0 -->
      <defs>
       <path d="M 19.1875 8.296875 
L 53.609375 8.296875 
L 53.609375 0 
L 7.328125 0 
L 7.328125 8.296875 
Q 12.9375 14.109375 22.625 23.890625 
Q 32.328125 33.6875 34.8125 36.53125 
Q 39.546875 41.84375 41.421875 45.53125 
Q 43.3125 49.21875 43.3125 52.78125 
Q 43.3125 58.59375 39.234375 62.25 
Q 35.15625 65.921875 28.609375 65.921875 
Q 23.96875 65.921875 18.8125 64.3125 
Q 13.671875 62.703125 7.8125 59.421875 
L 7.8125 69.390625 
Q 13.765625 71.78125 18.9375 73 
Q 24.125 74.21875 28.421875 74.21875 
Q 39.75 74.21875 46.484375 68.546875 
Q 53.21875 62.890625 53.21875 53.421875 
Q 53.21875 48.921875 51.53125 44.890625 
Q 49.859375 40.875 45.40625 35.40625 
Q 44.1875 33.984375 37.640625 27.21875 
Q 31.109375 20.453125 19.1875 8.296875 
z
" id="DejaVuSans-32"/>
      </defs>
      <g style="fill:#262626;" transform="translate(324.764512 164.734839)scale(0.1 -0.1)">
       <use xlink:href="#DejaVuSans-32"/>
       <use x="63.623047" xlink:href="#DejaVuSans-2e"/>
       <use x="95.410156" xlink:href="#DejaVuSans-30"/>
      </g>
     </g>
    </g>
    <g id="xtick_6">
     <g id="line2d_11">
      <path clip-path="url(#pdb9cc842b4)" d="M 403.222594 150.136401 
L 403.222594 41.472 
" style="fill:none;stroke:#ffffff;stroke-linecap:round;"/>
     </g>
     <g id="line2d_12"/>
     <g id="text_6">
      <!-- 2.5 -->
      <g style="fill:#262626;" transform="translate(395.271031 164.734839)scale(0.1 -0.1)">
       <use xlink:href="#DejaVuSans-32"/>
       <use x="63.623047" xlink:href="#DejaVuSans-2e"/>
       <use x="95.410156" xlink:href="#DejaVuSans-35"/>
      </g>
     </g>
    </g>
    <g id="text_7">
     <!-- Time (seconds) -->
     <defs>
      <path d="M -0.296875 72.90625 
L 61.375 72.90625 
L 61.375 64.59375 
L 35.5 64.59375 
L 35.5 0 
L 25.59375 0 
L 25.59375 64.59375 
L -0.296875 64.59375 
z
" id="DejaVuSans-54"/>
      <path d="M 9.421875 54.6875 
L 18.40625 54.6875 
L 18.40625 0 
L 9.421875 0 
z
M 9.421875 75.984375 
L 18.40625 75.984375 
L 18.40625 64.59375 
L 9.421875 64.59375 
z
" id="DejaVuSans-69"/>
      <path d="M 52 44.1875 
Q 55.375 50.25 60.0625 53.125 
Q 64.75 56 71.09375 56 
Q 79.640625 56 84.28125 50.015625 
Q 88.921875 44.046875 88.921875 33.015625 
L 88.921875 0 
L 79.890625 0 
L 79.890625 32.71875 
Q 79.890625 40.578125 77.09375 44.375 
Q 74.3125 48.1875 68.609375 48.1875 
Q 61.625 48.1875 57.5625 43.546875 
Q 53.515625 38.921875 53.515625 30.90625 
L 53.515625 0 
L 44.484375 0 
L 44.484375 32.71875 
Q 44.484375 40.625 41.703125 44.40625 
Q 38.921875 48.1875 33.109375 48.1875 
Q 26.21875 48.1875 22.15625 43.53125 
Q 18.109375 38.875 18.109375 30.90625 
L 18.109375 0 
L 9.078125 0 
L 9.078125 54.6875 
L 18.109375 54.6875 
L 18.109375 46.1875 
Q 21.1875 51.21875 25.484375 53.609375 
Q 29.78125 56 35.6875 56 
Q 41.65625 56 45.828125 52.96875 
Q 50 49.953125 52 44.1875 
z
" id="DejaVuSans-6d"/>
      <path d="M 56.203125 29.59375 
L 56.203125 25.203125 
L 14.890625 25.203125 
Q 15.484375 15.921875 20.484375 11.0625 
Q 25.484375 6.203125 34.421875 6.203125 
Q 39.59375 6.203125 44.453125 7.46875 
Q 49.3125 8.734375 54.109375 11.28125 
L 54.109375 2.78125 
Q 49.265625 0.734375 44.1875 -0.34375 
Q 39.109375 -1.421875 33.890625 -1.421875 
Q 20.796875 -1.421875 13.15625 6.1875 
Q 5.515625 13.8125 5.515625 26.8125 
Q 5.515625 40.234375 12.765625 48.109375 
Q 20.015625 56 32.328125 56 
Q 43.359375 56 49.78125 48.890625 
Q 56.203125 41.796875 56.203125 29.59375 
z
M 47.21875 32.234375 
Q 47.125 39.59375 43.09375 43.984375 
Q 39.0625 48.390625 32.421875 48.390625 
Q 24.90625 48.390625 20.390625 44.140625 
Q 15.875 39.890625 15.1875 32.171875 
z
" id="DejaVuSans-65"/>
      <path id="DejaVuSans-20"/>
      <path d="M 31 75.875 
Q 24.46875 64.65625 21.28125 53.65625 
Q 18.109375 42.671875 18.109375 31.390625 
Q 18.109375 20.125 21.3125 9.0625 
Q 24.515625 -2 31 -13.1875 
L 23.1875 -13.1875 
Q 15.875 -1.703125 12.234375 9.375 
Q 8.59375 20.453125 8.59375 31.390625 
Q 8.59375 42.28125 12.203125 53.3125 
Q 15.828125 64.359375 23.1875 75.875 
z
" id="DejaVuSans-28"/>
      <path d="M 44.28125 53.078125 
L 44.28125 44.578125 
Q 40.484375 46.53125 36.375 47.5 
Q 32.28125 48.484375 27.875 48.484375 
Q 21.1875 48.484375 17.84375 46.4375 
Q 14.5 44.390625 14.5 40.28125 
Q 14.5 37.15625 16.890625 35.375 
Q 19.28125 33.59375 26.515625 31.984375 
L 29.59375 31.296875 
Q 39.15625 29.25 43.1875 25.515625 
Q 47.21875 21.78125 47.21875 15.09375 
Q 47.21875 7.46875 41.1875 3.015625 
Q 35.15625 -1.421875 24.609375 -1.421875 
Q 20.21875 -1.421875 15.453125 -0.5625 
Q 10.6875 0.296875 5.421875 2 
L 5.421875 11.28125 
Q 10.40625 8.6875 15.234375 7.390625 
Q 20.0625 6.109375 24.8125 6.109375 
Q 31.15625 6.109375 34.5625 8.28125 
Q 37.984375 10.453125 37.984375 14.40625 
Q 37.984375 18.0625 35.515625 20.015625 
Q 33.0625 21.96875 24.703125 23.78125 
L 21.578125 24.515625 
Q 13.234375 26.265625 9.515625 29.90625 
Q 5.8125 33.546875 5.8125 39.890625 
Q 5.8125 47.609375 11.28125 51.796875 
Q 16.75 56 26.8125 56 
Q 31.78125 56 36.171875 55.265625 
Q 40.578125 54.546875 44.28125 53.078125 
z
" id="DejaVuSans-73"/>
      <path d="M 48.78125 52.59375 
L 48.78125 44.1875 
Q 44.96875 46.296875 41.140625 47.34375 
Q 37.3125 48.390625 33.40625 48.390625 
Q 24.65625 48.390625 19.8125 42.84375 
Q 14.984375 37.3125 14.984375 27.296875 
Q 14.984375 17.28125 19.8125 11.734375 
Q 24.65625 6.203125 33.40625 6.203125 
Q 37.3125 6.203125 41.140625 7.25 
Q 44.96875 8.296875 48.78125 10.40625 
L 48.78125 2.09375 
Q 45.015625 0.34375 40.984375 -0.53125 
Q 36.96875 -1.421875 32.421875 -1.421875 
Q 20.0625 -1.421875 12.78125 6.34375 
Q 5.515625 14.109375 5.515625 27.296875 
Q 5.515625 40.671875 12.859375 48.328125 
Q 20.21875 56 33.015625 56 
Q 37.15625 56 41.109375 55.140625 
Q 45.0625 54.296875 48.78125 52.59375 
z
" id="DejaVuSans-63"/>
      <path d="M 30.609375 48.390625 
Q 23.390625 48.390625 19.1875 42.75 
Q 14.984375 37.109375 14.984375 27.296875 
Q 14.984375 17.484375 19.15625 11.84375 
Q 23.34375 6.203125 30.609375 6.203125 
Q 37.796875 6.203125 41.984375 11.859375 
Q 46.1875 17.53125 46.1875 27.296875 
Q 46.1875 37.015625 41.984375 42.703125 
Q 37.796875 48.390625 30.609375 48.390625 
z
M 30.609375 56 
Q 42.328125 56 49.015625 48.375 
Q 55.71875 40.765625 55.71875 27.296875 
Q 55.71875 13.875 49.015625 6.21875 
Q 42.328125 -1.421875 30.609375 -1.421875 
Q 18.84375 -1.421875 12.171875 6.21875 
Q 5.515625 13.875 5.515625 27.296875 
Q 5.515625 40.765625 12.171875 48.375 
Q 18.84375 56 30.609375 56 
z
" id="DejaVuSans-6f"/>
      <path d="M 54.890625 33.015625 
L 54.890625 0 
L 45.90625 0 
L 45.90625 32.71875 
Q 45.90625 40.484375 42.875 44.328125 
Q 39.84375 48.1875 33.796875 48.1875 
Q 26.515625 48.1875 22.3125 43.546875 
Q 18.109375 38.921875 18.109375 30.90625 
L 18.109375 0 
L 9.078125 0 
L 9.078125 54.6875 
L 18.109375 54.6875 
L 18.109375 46.1875 
Q 21.34375 51.125 25.703125 53.5625 
Q 30.078125 56 35.796875 56 
Q 45.21875 56 50.046875 50.171875 
Q 54.890625 44.34375 54.890625 33.015625 
z
" id="DejaVuSans-6e"/>
      <path d="M 45.40625 46.390625 
L 45.40625 75.984375 
L 54.390625 75.984375 
L 54.390625 0 
L 45.40625 0 
L 45.40625 8.203125 
Q 42.578125 3.328125 38.25 0.953125 
Q 33.9375 -1.421875 27.875 -1.421875 
Q 17.96875 -1.421875 11.734375 6.484375 
Q 5.515625 14.40625 5.515625 27.296875 
Q 5.515625 40.1875 11.734375 48.09375 
Q 17.96875 56 27.875 56 
Q 33.9375 56 38.25 53.625 
Q 42.578125 51.265625 45.40625 46.390625 
z
M 14.796875 27.296875 
Q 14.796875 17.390625 18.875 11.75 
Q 22.953125 6.109375 30.078125 6.109375 
Q 37.203125 6.109375 41.296875 11.75 
Q 45.40625 17.390625 45.40625 27.296875 
Q 45.40625 37.203125 41.296875 42.84375 
Q 37.203125 48.484375 30.078125 48.484375 
Q 22.953125 48.484375 18.875 42.84375 
Q 14.796875 37.203125 14.796875 27.296875 
z
" id="DejaVuSans-64"/>
      <path d="M 8.015625 75.875 
L 15.828125 75.875 
Q 23.140625 64.359375 26.78125 53.3125 
Q 30.421875 42.28125 30.421875 31.390625 
Q 30.421875 20.453125 26.78125 9.375 
Q 23.140625 -1.703125 15.828125 -13.1875 
L 8.015625 -13.1875 
Q 14.5 -2 17.703125 9.0625 
Q 20.90625 20.125 20.90625 31.390625 
Q 20.90625 42.671875 17.703125 53.65625 
Q 14.5 64.65625 8.015625 75.875 
z
" id="DejaVuSans-29"/>
     </defs>
     <g style="fill:#262626;" transform="translate(207.117813 179.172808)scale(0.11 -0.11)">
      <use xlink:href="#DejaVuSans-54"/>
      <use x="61.037109" xlink:href="#DejaVuSans-69"/>
      <use x="88.820312" xlink:href="#DejaVuSans-6d"/>
      <use x="186.232422" xlink:href="#DejaVuSans-65"/>
      <use x="247.755859" xlink:href="#DejaVuSans-20"/>
      <use x="279.542969" xlink:href="#DejaVuSans-28"/>
      <use x="318.556641" xlink:href="#DejaVuSans-73"/>
      <use x="370.65625" xlink:href="#DejaVuSans-65"/>
      <use x="432.179688" xlink:href="#DejaVuSans-63"/>
      <use x="487.160156" xlink:href="#DejaVuSans-6f"/>
      <use x="548.341797" xlink:href="#DejaVuSans-6e"/>
      <use x="611.720703" xlink:href="#DejaVuSans-64"/>
      <use x="675.197266" xlink:href="#DejaVuSans-73"/>
      <use x="727.296875" xlink:href="#DejaVuSans-29"/>
     </g>
    </g>
   </g>
   <g id="matplotlib.axis_2">
    <g id="ytick_1">
     <g id="line2d_13">
      <path clip-path="url(#pdb9cc842b4)" d="M 50.69 135.513278 
L 447.84 135.513278 
" style="fill:none;stroke:#ffffff;stroke-linecap:round;"/>
     </g>
     <g id="line2d_14"/>
     <g id="text_8">
      <!-- 1.0 -->
      <g style="fill:#262626;" transform="translate(27.786875 139.312496)scale(0.1 -0.1)">
       <use xlink:href="#DejaVuSans-31"/>
       <use x="63.623047" xlink:href="#DejaVuSans-2e"/>
       <use x="95.410156" xlink:href="#DejaVuSans-30"/>
      </g>
     </g>
    </g>
    <g id="ytick_2">
     <g id="line2d_15">
      <path clip-path="url(#pdb9cc842b4)" d="M 50.69 110.079598 
L 447.84 110.079598 
" style="fill:none;stroke:#ffffff;stroke-linecap:round;"/>
     </g>
     <g id="line2d_16"/>
     <g id="text_9">
      <!-- 1.2 -->
      <g style="fill:#262626;" transform="translate(27.786875 113.878817)scale(0.1 -0.1)">
       <use xlink:href="#DejaVuSans-31"/>
       <use x="63.623047" xlink:href="#DejaVuSans-2e"/>
       <use x="95.410156" xlink:href="#DejaVuSans-32"/>
      </g>
     </g>
    </g>
    <g id="ytick_3">
     <g id="line2d_17">
      <path clip-path="url(#pdb9cc842b4)" d="M 50.69 84.645919 
L 447.84 84.645919 
" style="fill:none;stroke:#ffffff;stroke-linecap:round;"/>
     </g>
     <g id="line2d_18"/>
     <g id="text_10">
      <!-- 1.4 -->
      <defs>
       <path d="M 37.796875 64.3125 
L 12.890625 25.390625 
L 37.796875 25.390625 
z
M 35.203125 72.90625 
L 47.609375 72.90625 
L 47.609375 25.390625 
L 58.015625 25.390625 
L 58.015625 17.1875 
L 47.609375 17.1875 
L 47.609375 0 
L 37.796875 0 
L 37.796875 17.1875 
L 4.890625 17.1875 
L 4.890625 26.703125 
z
" id="DejaVuSans-34"/>
      </defs>
      <g style="fill:#262626;" transform="translate(27.786875 88.445138)scale(0.1 -0.1)">
       <use xlink:href="#DejaVuSans-31"/>
       <use x="63.623047" xlink:href="#DejaVuSans-2e"/>
       <use x="95.410156" xlink:href="#DejaVuSans-34"/>
      </g>
     </g>
    </g>
    <g id="ytick_4">
     <g id="line2d_19">
      <path clip-path="url(#pdb9cc842b4)" d="M 50.69 59.21224 
L 447.84 59.21224 
" style="fill:none;stroke:#ffffff;stroke-linecap:round;"/>
     </g>
     <g id="line2d_20"/>
     <g id="text_11">
      <!-- 1.6 -->
      <defs>
       <path d="M 33.015625 40.375 
Q 26.375 40.375 22.484375 35.828125 
Q 18.609375 31.296875 18.609375 23.390625 
Q 18.609375 15.53125 22.484375 10.953125 
Q 26.375 6.390625 33.015625 6.390625 
Q 39.65625 6.390625 43.53125 10.953125 
Q 47.40625 15.53125 47.40625 23.390625 
Q 47.40625 31.296875 43.53125 35.828125 
Q 39.65625 40.375 33.015625 40.375 
z
M 52.59375 71.296875 
L 52.59375 62.3125 
Q 48.875 64.0625 45.09375 64.984375 
Q 41.3125 65.921875 37.59375 65.921875 
Q 27.828125 65.921875 22.671875 59.328125 
Q 17.53125 52.734375 16.796875 39.40625 
Q 19.671875 43.65625 24.015625 45.921875 
Q 28.375 48.1875 33.59375 48.1875 
Q 44.578125 48.1875 50.953125 41.515625 
Q 57.328125 34.859375 57.328125 23.390625 
Q 57.328125 12.15625 50.6875 5.359375 
Q 44.046875 -1.421875 33.015625 -1.421875 
Q 20.359375 -1.421875 13.671875 8.265625 
Q 6.984375 17.96875 6.984375 36.375 
Q 6.984375 53.65625 15.1875 63.9375 
Q 23.390625 74.21875 37.203125 74.21875 
Q 40.921875 74.21875 44.703125 73.484375 
Q 48.484375 72.75 52.59375 71.296875 
z
" id="DejaVuSans-36"/>
      </defs>
      <g style="fill:#262626;" transform="translate(27.786875 63.011458)scale(0.1 -0.1)">
       <use xlink:href="#DejaVuSans-31"/>
       <use x="63.623047" xlink:href="#DejaVuSans-2e"/>
       <use x="95.410156" xlink:href="#DejaVuSans-36"/>
      </g>
     </g>
    </g>
    <g id="text_12">
     <!-- Angular rate (degrees / s) -->
     <defs>
      <path d="M 34.1875 63.1875 
L 20.796875 26.90625 
L 47.609375 26.90625 
z
M 28.609375 72.90625 
L 39.796875 72.90625 
L 67.578125 0 
L 57.328125 0 
L 50.6875 18.703125 
L 17.828125 18.703125 
L 11.1875 0 
L 0.78125 0 
z
" id="DejaVuSans-41"/>
      <path d="M 45.40625 27.984375 
Q 45.40625 37.75 41.375 43.109375 
Q 37.359375 48.484375 30.078125 48.484375 
Q 22.859375 48.484375 18.828125 43.109375 
Q 14.796875 37.75 14.796875 27.984375 
Q 14.796875 18.265625 18.828125 12.890625 
Q 22.859375 7.515625 30.078125 7.515625 
Q 37.359375 7.515625 41.375 12.890625 
Q 45.40625 18.265625 45.40625 27.984375 
z
M 54.390625 6.78125 
Q 54.390625 -7.171875 48.1875 -13.984375 
Q 42 -20.796875 29.203125 -20.796875 
Q 24.46875 -20.796875 20.265625 -20.09375 
Q 16.0625 -19.390625 12.109375 -17.921875 
L 12.109375 -9.1875 
Q 16.0625 -11.328125 19.921875 -12.34375 
Q 23.78125 -13.375 27.78125 -13.375 
Q 36.625 -13.375 41.015625 -8.765625 
Q 45.40625 -4.15625 45.40625 5.171875 
L 45.40625 9.625 
Q 42.625 4.78125 38.28125 2.390625 
Q 33.9375 0 27.875 0 
Q 17.828125 0 11.671875 7.65625 
Q 5.515625 15.328125 5.515625 27.984375 
Q 5.515625 40.671875 11.671875 48.328125 
Q 17.828125 56 27.875 56 
Q 33.9375 56 38.28125 53.609375 
Q 42.625 51.21875 45.40625 46.390625 
L 45.40625 54.6875 
L 54.390625 54.6875 
z
" id="DejaVuSans-67"/>
      <path d="M 8.5 21.578125 
L 8.5 54.6875 
L 17.484375 54.6875 
L 17.484375 21.921875 
Q 17.484375 14.15625 20.5 10.265625 
Q 23.53125 6.390625 29.59375 6.390625 
Q 36.859375 6.390625 41.078125 11.03125 
Q 45.3125 15.671875 45.3125 23.6875 
L 45.3125 54.6875 
L 54.296875 54.6875 
L 54.296875 0 
L 45.3125 0 
L 45.3125 8.40625 
Q 42.046875 3.421875 37.71875 1 
Q 33.40625 -1.421875 27.6875 -1.421875 
Q 18.265625 -1.421875 13.375 4.4375 
Q 8.5 10.296875 8.5 21.578125 
z
M 31.109375 56 
z
" id="DejaVuSans-75"/>
      <path d="M 9.421875 75.984375 
L 18.40625 75.984375 
L 18.40625 0 
L 9.421875 0 
z
" id="DejaVuSans-6c"/>
      <path d="M 34.28125 27.484375 
Q 23.390625 27.484375 19.1875 25 
Q 14.984375 22.515625 14.984375 16.5 
Q 14.984375 11.71875 18.140625 8.90625 
Q 21.296875 6.109375 26.703125 6.109375 
Q 34.1875 6.109375 38.703125 11.40625 
Q 43.21875 16.703125 43.21875 25.484375 
L 43.21875 27.484375 
z
M 52.203125 31.203125 
L 52.203125 0 
L 43.21875 0 
L 43.21875 8.296875 
Q 40.140625 3.328125 35.546875 0.953125 
Q 30.953125 -1.421875 24.3125 -1.421875 
Q 15.921875 -1.421875 10.953125 3.296875 
Q 6 8.015625 6 15.921875 
Q 6 25.140625 12.171875 29.828125 
Q 18.359375 34.515625 30.609375 34.515625 
L 43.21875 34.515625 
L 43.21875 35.40625 
Q 43.21875 41.609375 39.140625 45 
Q 35.0625 48.390625 27.6875 48.390625 
Q 23 48.390625 18.546875 47.265625 
Q 14.109375 46.140625 10.015625 43.890625 
L 10.015625 52.203125 
Q 14.9375 54.109375 19.578125 55.046875 
Q 24.21875 56 28.609375 56 
Q 40.484375 56 46.34375 49.84375 
Q 52.203125 43.703125 52.203125 31.203125 
z
" id="DejaVuSans-61"/>
      <path d="M 41.109375 46.296875 
Q 39.59375 47.171875 37.8125 47.578125 
Q 36.03125 48 33.890625 48 
Q 26.265625 48 22.1875 43.046875 
Q 18.109375 38.09375 18.109375 28.8125 
L 18.109375 0 
L 9.078125 0 
L 9.078125 54.6875 
L 18.109375 54.6875 
L 18.109375 46.1875 
Q 20.953125 51.171875 25.484375 53.578125 
Q 30.03125 56 36.53125 56 
Q 37.453125 56 38.578125 55.875 
Q 39.703125 55.765625 41.0625 55.515625 
z
" id="DejaVuSans-72"/>
      <path d="M 18.3125 70.21875 
L 18.3125 54.6875 
L 36.8125 54.6875 
L 36.8125 47.703125 
L 18.3125 47.703125 
L 18.3125 18.015625 
Q 18.3125 11.328125 20.140625 9.421875 
Q 21.96875 7.515625 27.59375 7.515625 
L 36.8125 7.515625 
L 36.8125 0 
L 27.59375 0 
Q 17.1875 0 13.234375 3.875 
Q 9.28125 7.765625 9.28125 18.015625 
L 9.28125 47.703125 
L 2.6875 47.703125 
L 2.6875 54.6875 
L 9.28125 54.6875 
L 9.28125 70.21875 
z
" id="DejaVuSans-74"/>
      <path d="M 25.390625 72.90625 
L 33.6875 72.90625 
L 8.296875 -9.28125 
L 0 -9.28125 
z
" id="DejaVuSans-2f"/>
     </defs>
     <g style="fill:#262626;" transform="translate(21.499219 166.622716)rotate(-90)scale(0.11 -0.11)">
      <use xlink:href="#DejaVuSans-41"/>
      <use x="68.408203" xlink:href="#DejaVuSans-6e"/>
      <use x="131.787109" xlink:href="#DejaVuSans-67"/>
      <use x="195.263672" xlink:href="#DejaVuSans-75"/>
      <use x="258.642578" xlink:href="#DejaVuSans-6c"/>
      <use x="286.425781" xlink:href="#DejaVuSans-61"/>
      <use x="347.705078" xlink:href="#DejaVuSans-72"/>
      <use x="388.818359" xlink:href="#DejaVuSans-20"/>
      <use x="420.605469" xlink:href="#DejaVuSans-72"/>
      <use x="461.71875" xlink:href="#DejaVuSans-61"/>
      <use x="522.998047" xlink:href="#DejaVuSans-74"/>
      <use x="562.207031" xlink:href="#DejaVuSans-65"/>
      <use x="623.730469" xlink:href="#DejaVuSans-20"/>
      <use x="655.517578" xlink:href="#DejaVuSans-28"/>
      <use x="694.53125" xlink:href="#DejaVuSans-64"/>
      <use x="758.007812" xlink:href="#DejaVuSans-65"/>
      <use x="819.53125" xlink:href="#DejaVuSans-67"/>
      <use x="883.007812" xlink:href="#DejaVuSans-72"/>
      <use x="924.089844" xlink:href="#DejaVuSans-65"/>
      <use x="985.613281" xlink:href="#DejaVuSans-65"/>
      <use x="1047.136719" xlink:href="#DejaVuSans-73"/>
      <use x="1099.236328" xlink:href="#DejaVuSans-20"/>
      <use x="1131.023438" xlink:href="#DejaVuSans-2f"/>
      <use x="1164.714844" xlink:href="#DejaVuSans-20"/>
      <use x="1196.501953" xlink:href="#DejaVuSans-73"/>
      <use x="1248.601562" xlink:href="#DejaVuSans-29"/>
     </g>
    </g>
   </g>
   <g id="line2d_21">
    <path clip-path="url(#pdb9cc842b4)" d="M 50.69 116.178776 
L 50.965416 114.23834 
L 51.240832 126.851173 
L 51.516248 76.399843 
L 51.791664 91.923329 
L 52.06708 100.65529 
L 52.342497 120.059647 
L 52.893329 62.816793 
L 53.168745 116.178776 
L 53.444161 83.191368 
L 53.719577 114.23834 
L 53.994993 86.102022 
L 54.270409 80.280715 
L 54.545825 111.327687 
L 54.821241 106.476597 
L 55.096657 98.714854 
L 55.372074 122.970301 
L 55.64749 113.268122 
L 55.922906 86.102022 
L 56.198322 84.161586 
L 56.473738 103.565944 
L 56.749154 100.65529 
L 57.02457 69.608318 
L 57.299986 81.250933 
L 57.575402 110.357469 
L 57.850818 89.982894 
L 58.126234 87.07224 
L 58.40165 104.536162 
L 58.677067 80.280715 
L 58.952483 74.459408 
L 59.227899 94.833983 
L 59.503315 89.012676 
L 60.054147 106.476597 
L 60.329563 100.65529 
L 60.604979 78.340279 
L 60.880395 69.608318 
L 61.155811 103.565944 
L 61.431227 88.042458 
L 61.706644 120.059647 
L 61.98206 106.476597 
L 62.257476 108.417033 
L 62.532892 112.297905 
L 62.808308 114.23834 
L 63.083724 141.404441 
L 63.35914 89.012676 
L 63.634556 118.119212 
L 63.909972 96.774419 
L 64.185388 122.970301 
L 64.460804 68.6381 
L 64.736221 89.982894 
L 65.011637 146.25553 
L 65.287053 56.995486 
L 65.562469 118.119212 
L 65.837885 133.642698 
L 66.113301 126.851173 
L 66.388717 98.714854 
L 66.664133 87.07224 
L 67.214965 125.880955 
L 67.490381 74.459408 
L 67.765798 122.000083 
L 68.041214 102.595726 
L 68.31663 107.446815 
L 68.592046 109.387251 
L 68.867462 85.131804 
L 69.142878 99.685072 
L 69.418294 121.029865 
L 69.69371 93.863765 
L 70.244542 80.280715 
L 70.519958 136.553351 
L 71.070791 91.923329 
L 71.346207 85.131804 
L 71.621623 74.459408 
L 71.897039 94.833983 
L 72.172455 78.340279 
L 72.447871 96.774419 
L 72.723287 63.787011 
L 72.998703 118.119212 
L 73.274119 110.357469 
L 73.549535 95.804201 
L 73.824951 101.625508 
L 74.100368 89.012676 
L 74.375784 97.744636 
L 74.6512 85.131804 
L 74.926616 85.131804 
L 75.202032 126.851173 
L 75.477448 117.148994 
L 75.752864 83.191368 
L 76.02828 110.357469 
L 76.303696 117.148994 
L 76.579112 68.6381 
L 76.854528 94.833983 
L 77.129945 102.595726 
L 77.405361 106.476597 
L 77.680777 103.565944 
L 77.956193 89.012676 
L 78.231609 127.82139 
L 78.507025 113.268122 
L 78.782441 135.583133 
L 79.057857 92.893547 
L 79.333273 117.148994 
L 79.608689 109.387251 
L 79.884105 82.221151 
L 80.159521 105.506379 
L 80.434938 108.417033 
L 80.710354 119.08943 
L 80.98577 87.07224 
L 81.261186 118.119212 
L 81.536602 89.012676 
L 82.087434 128.791608 
L 82.36285 82.221151 
L 82.638266 108.417033 
L 82.913682 119.08943 
L 83.189098 88.042458 
L 83.464515 70.578536 
L 83.739931 95.804201 
L 84.015347 106.476597 
L 84.290763 94.833983 
L 84.566179 108.417033 
L 84.841595 81.250933 
L 85.392427 101.625508 
L 85.667843 103.565944 
L 85.943259 113.268122 
L 86.218675 80.280715 
L 86.494092 89.012676 
L 86.769508 125.880955 
L 87.044924 109.387251 
L 87.32034 138.493787 
L 87.595756 92.893547 
L 87.871172 72.518972 
L 88.146588 105.506379 
L 88.422004 77.370061 
L 88.69742 73.48919 
L 88.972836 101.625508 
L 89.248252 87.07224 
L 89.523669 100.65529 
L 89.799085 96.774419 
L 90.074501 105.506379 
L 90.349917 122.000083 
L 90.625333 104.536162 
L 90.900749 129.761826 
L 91.176165 89.982894 
L 91.451581 75.429625 
L 91.726997 99.685072 
L 92.002413 95.804201 
L 92.277829 96.774419 
L 92.553245 63.787011 
L 92.828662 90.953111 
L 93.104078 103.565944 
L 93.379494 81.250933 
L 93.65491 89.012676 
L 93.930326 120.059647 
L 94.205742 94.833983 
L 94.481158 81.250933 
L 94.756574 110.357469 
L 95.03199 100.65529 
L 95.307406 106.476597 
L 95.582822 108.417033 
L 95.858239 90.953111 
L 96.133655 91.923329 
L 96.409071 71.548754 
L 96.684487 63.787011 
L 96.959903 93.863765 
L 97.235319 103.565944 
L 97.510735 84.161586 
L 97.786151 118.119212 
L 98.061567 101.625508 
L 98.336983 95.804201 
L 98.612399 100.65529 
L 98.887816 99.685072 
L 99.163232 105.506379 
L 99.438648 81.250933 
L 99.714064 91.923329 
L 99.98948 113.268122 
L 100.264896 84.161586 
L 100.540312 89.982894 
L 100.815728 109.387251 
L 101.091144 62.816793 
L 101.36656 105.506379 
L 101.641976 118.119212 
L 101.917393 73.48919 
L 102.192809 116.178776 
L 102.468225 117.148994 
L 102.743641 84.161586 
L 103.019057 106.476597 
L 103.294473 75.429625 
L 103.569889 99.685072 
L 103.845305 75.429625 
L 104.120721 86.102022 
L 104.396137 113.268122 
L 104.671553 102.595726 
L 104.946969 84.161586 
L 105.497802 111.327687 
L 105.773218 102.595726 
L 106.048634 79.310497 
L 106.32405 98.714854 
L 106.599466 64.757229 
L 106.874882 125.880955 
L 107.150298 95.804201 
L 107.425714 95.804201 
L 107.70113 91.923329 
L 107.976546 97.744636 
L 108.251963 117.148994 
L 108.527379 104.536162 
L 108.802795 105.506379 
L 109.078211 103.565944 
L 109.353627 100.65529 
L 109.629043 100.65529 
L 109.904459 94.833983 
L 110.179875 79.310497 
L 110.455291 122.970301 
L 110.730707 123.940519 
L 111.28154 102.595726 
L 111.556956 108.417033 
L 111.832372 111.327687 
L 112.107788 62.816793 
L 112.383204 65.727447 
L 112.65862 85.131804 
L 112.934036 121.029865 
L 113.209452 124.910737 
L 113.484868 97.744636 
L 113.760284 89.982894 
L 114.0357 96.774419 
L 114.311117 90.953111 
L 114.586533 102.595726 
L 114.861949 101.625508 
L 115.137365 95.804201 
L 115.412781 103.565944 
L 115.963613 98.714854 
L 116.239029 91.923329 
L 116.514445 129.761826 
L 116.789861 101.625508 
L 117.065277 94.833983 
L 117.340693 58.935922 
L 117.61611 106.476597 
L 117.891526 99.685072 
L 118.166942 97.744636 
L 118.442358 98.714854 
L 118.717774 98.714854 
L 118.99319 78.340279 
L 119.268606 90.953111 
L 119.544022 84.161586 
L 119.819438 98.714854 
L 120.094854 121.029865 
L 120.37027 59.90614 
L 120.645687 70.578536 
L 120.921103 101.625508 
L 121.196519 106.476597 
L 122.022767 87.07224 
L 122.298183 107.446815 
L 122.573599 112.297905 
L 122.849015 106.476597 
L 123.124431 77.370061 
L 123.399847 99.685072 
L 123.675264 82.221151 
L 124.226096 75.429625 
L 124.501512 135.583133 
L 124.776928 69.608318 
L 125.052344 41.472 
L 125.32776 102.595726 
L 125.603176 100.65529 
L 125.878592 81.250933 
L 126.429424 89.012676 
L 126.70484 110.357469 
L 126.980257 92.893547 
L 127.255673 88.042458 
L 127.531089 107.446815 
L 127.806505 103.565944 
L 128.081921 66.697665 
L 128.357337 63.787011 
L 128.632753 98.714854 
L 129.183585 115.208558 
L 129.459001 116.178776 
L 129.734417 116.178776 
L 130.009834 77.370061 
L 130.28525 88.042458 
L 130.560666 112.297905 
L 130.836082 104.536162 
L 131.111498 126.851173 
L 131.386914 98.714854 
L 131.66233 95.804201 
L 131.937746 79.310497 
L 132.213162 104.536162 
L 132.488578 88.042458 
L 132.763994 133.642698 
L 133.039411 59.90614 
L 133.314827 113.268122 
L 133.590243 130.732044 
L 133.865659 90.953111 
L 134.141075 71.548754 
L 134.416491 88.042458 
L 134.691907 118.119212 
L 134.967323 92.893547 
L 135.242739 87.07224 
L 135.518155 89.982894 
L 136.068988 105.506379 
L 136.344404 108.417033 
L 136.61982 85.131804 
L 136.895236 73.48919 
L 137.170652 138.493787 
L 137.721484 95.804201 
L 137.9969 98.714854 
L 138.272316 104.536162 
L 138.547732 104.536162 
L 138.823148 90.953111 
L 139.098564 110.357469 
L 139.373981 112.297905 
L 139.649397 116.178776 
L 139.924813 123.940519 
L 140.200229 122.970301 
L 140.475645 70.578536 
L 140.751061 111.327687 
L 141.026477 83.191368 
L 141.301893 72.518972 
L 141.577309 85.131804 
L 141.852725 77.370061 
L 142.128141 83.191368 
L 142.403558 105.506379 
L 142.678974 54.084832 
L 142.95439 84.161586 
L 143.229806 85.131804 
L 143.505222 144.315094 
L 143.780638 80.280715 
L 144.33147 124.910737 
L 144.606886 96.774419 
L 145.157718 115.208558 
L 145.433135 106.476597 
L 145.708551 113.268122 
L 145.983967 98.714854 
L 146.259383 68.6381 
L 146.534799 58.935922 
L 146.810215 101.625508 
L 147.085631 101.625508 
L 147.361047 110.357469 
L 147.636463 84.161586 
L 148.187295 71.548754 
L 148.738128 112.297905 
L 149.013544 90.953111 
L 149.28896 78.340279 
L 149.839792 94.833983 
L 150.115208 130.732044 
L 150.390624 70.578536 
L 150.66604 109.387251 
L 151.216872 88.042458 
L 151.492288 86.102022 
L 151.767705 136.553351 
L 152.043121 112.297905 
L 152.318537 111.327687 
L 152.593953 114.23834 
L 152.869369 79.310497 
L 153.144785 104.536162 
L 153.420201 105.506379 
L 153.971033 75.429625 
L 154.246449 100.65529 
L 154.521865 115.208558 
L 154.797282 63.787011 
L 155.072698 61.846575 
L 155.348114 103.565944 
L 155.62353 110.357469 
L 155.898946 104.536162 
L 156.174362 104.536162 
L 156.449778 85.131804 
L 156.725194 76.399843 
L 157.00061 104.536162 
L 157.276026 109.387251 
L 157.551442 100.65529 
L 157.826859 87.07224 
L 158.102275 91.923329 
L 158.377691 93.863765 
L 158.653107 93.863765 
L 158.928523 112.297905 
L 159.203939 74.459408 
L 159.479355 87.07224 
L 159.754771 90.953111 
L 160.030187 88.042458 
L 160.305603 99.685072 
L 160.581019 126.851173 
L 160.856436 70.578536 
L 161.407268 92.893547 
L 161.682684 111.327687 
L 161.9581 80.280715 
L 162.233516 115.208558 
L 162.508932 75.429625 
L 162.784348 65.727447 
L 163.610596 124.910737 
L 163.886012 81.250933 
L 164.161429 91.923329 
L 164.436845 90.953111 
L 164.712261 120.059647 
L 164.987677 119.08943 
L 165.263093 95.804201 
L 165.538509 89.012676 
L 165.813925 113.268122 
L 166.089341 102.595726 
L 166.364757 110.357469 
L 166.915589 77.370061 
L 167.191006 89.012676 
L 167.466422 121.029865 
L 167.741838 106.476597 
L 168.017254 101.625508 
L 168.568086 78.340279 
L 168.843502 94.833983 
L 169.118918 68.6381 
L 169.394334 96.774419 
L 169.66975 86.102022 
L 169.945166 99.685072 
L 170.220583 98.714854 
L 170.495999 98.714854 
L 170.771415 96.774419 
L 171.046831 85.131804 
L 171.322247 90.953111 
L 171.597663 104.536162 
L 171.873079 81.250933 
L 172.148495 93.863765 
L 172.423911 96.774419 
L 172.699327 87.07224 
L 172.974743 106.476597 
L 173.25016 95.804201 
L 173.525576 72.518972 
L 174.076408 111.327687 
L 174.351824 91.923329 
L 174.62724 110.357469 
L 174.902656 78.340279 
L 175.178072 94.833983 
L 175.453488 63.787011 
L 175.728904 82.221151 
L 176.00432 125.880955 
L 176.279736 94.833983 
L 176.555153 101.625508 
L 176.830569 114.23834 
L 177.656817 73.48919 
L 177.932233 106.476597 
L 178.207649 111.327687 
L 178.483065 90.953111 
L 178.758481 81.250933 
L 179.033897 87.07224 
L 179.309313 103.565944 
L 179.58473 102.595726 
L 179.860146 92.893547 
L 180.135562 105.506379 
L 180.410978 77.370061 
L 180.686394 111.327687 
L 180.96181 97.744636 
L 181.237226 107.446815 
L 181.512642 92.893547 
L 181.788058 112.297905 
L 182.063474 80.280715 
L 182.33889 108.417033 
L 182.614307 112.297905 
L 182.889723 78.340279 
L 183.165139 83.191368 
L 183.440555 90.953111 
L 183.991387 111.327687 
L 184.266803 82.221151 
L 184.542219 88.042458 
L 184.817635 82.221151 
L 185.093051 138.493787 
L 185.368467 116.178776 
L 185.643883 74.459408 
L 186.470132 110.357469 
L 187.020964 80.280715 
L 187.29638 111.327687 
L 187.571796 109.387251 
L 187.847212 90.953111 
L 188.122628 91.923329 
L 188.398044 84.161586 
L 188.67346 72.518972 
L 188.948877 116.178776 
L 189.224293 85.131804 
L 189.499709 100.65529 
L 189.775125 90.953111 
L 190.050541 89.982894 
L 190.325957 84.161586 
L 190.601373 85.131804 
L 190.876789 118.119212 
L 191.152205 105.506379 
L 191.427621 99.685072 
L 191.703037 85.131804 
L 191.978454 102.595726 
L 192.25387 98.714854 
L 192.529286 86.102022 
L 192.804702 95.804201 
L 193.080118 110.357469 
L 193.355534 93.863765 
L 193.63095 107.446815 
L 193.906366 84.161586 
L 194.181782 100.65529 
L 194.457198 107.446815 
L 194.732614 107.446815 
L 195.008031 85.131804 
L 195.283447 83.191368 
L 195.558863 150.136401 
L 196.109695 82.221151 
L 196.385111 87.07224 
L 196.660527 141.404441 
L 196.935943 78.340279 
L 197.211359 99.685072 
L 197.486775 102.595726 
L 197.762191 97.744636 
L 198.037607 99.685072 
L 198.313024 72.518972 
L 198.58844 89.012676 
L 198.863856 90.953111 
L 199.139272 82.221151 
L 199.414688 100.65529 
L 199.690104 95.804201 
L 199.96552 100.65529 
L 200.240936 85.131804 
L 200.516352 118.119212 
L 200.791768 102.595726 
L 201.067184 68.6381 
L 201.342601 104.536162 
L 201.618017 115.208558 
L 201.893433 89.982894 
L 202.168849 114.23834 
L 202.444265 99.685072 
L 202.719681 117.148994 
L 202.995097 76.399843 
L 203.270513 127.82139 
L 203.545929 84.161586 
L 203.821345 117.148994 
L 204.372178 80.280715 
L 204.647594 114.23834 
L 205.473842 88.042458 
L 205.749258 100.65529 
L 206.024674 126.851173 
L 206.575506 75.429625 
L 206.850922 128.791608 
L 207.126338 92.893547 
L 207.401755 104.536162 
L 207.677171 124.910737 
L 207.952587 108.417033 
L 208.228003 135.583133 
L 208.503419 48.263525 
L 208.778835 83.191368 
L 209.054251 83.191368 
L 209.329667 118.119212 
L 209.605083 85.131804 
L 209.880499 101.625508 
L 210.155915 88.042458 
L 210.431331 89.982894 
L 210.706748 82.221151 
L 210.982164 108.417033 
L 211.25758 92.893547 
L 211.532996 84.161586 
L 211.808412 114.23834 
L 212.083828 101.625508 
L 212.359244 106.476597 
L 212.63466 100.65529 
L 212.910076 121.029865 
L 213.185492 110.357469 
L 213.460908 69.608318 
L 213.736325 54.084832 
L 214.011741 120.059647 
L 214.287157 120.059647 
L 214.562573 123.940519 
L 215.113405 84.161586 
L 215.388821 93.863765 
L 215.664237 94.833983 
L 215.939653 83.191368 
L 216.215069 108.417033 
L 216.490485 90.953111 
L 216.765902 126.851173 
L 217.041318 103.565944 
L 217.316734 129.761826 
L 217.59215 61.846575 
L 217.867566 79.310497 
L 218.142982 147.225748 
L 218.418398 79.310497 
L 218.693814 110.357469 
L 218.96923 99.685072 
L 219.244646 98.714854 
L 219.520062 96.774419 
L 219.795479 107.446815 
L 220.070895 80.280715 
L 220.346311 95.804201 
L 220.621727 89.982894 
L 220.897143 122.000083 
L 221.172559 92.893547 
L 221.447975 123.940519 
L 221.723391 80.280715 
L 221.998807 71.548754 
L 222.274223 113.268122 
L 222.549639 100.65529 
L 222.825055 98.714854 
L 223.100472 89.982894 
L 223.375888 102.595726 
L 223.651304 97.744636 
L 223.92672 83.191368 
L 224.202136 114.23834 
L 224.477552 96.774419 
L 224.752968 97.744636 
L 225.028384 100.65529 
L 225.3038 106.476597 
L 225.579216 117.148994 
L 225.854632 81.250933 
L 226.130049 93.863765 
L 226.405465 83.191368 
L 226.680881 77.370061 
L 226.956297 134.612916 
L 227.231713 95.804201 
L 227.507129 112.297905 
L 227.782545 86.102022 
L 228.057961 99.685072 
L 228.333377 92.893547 
L 228.608793 130.732044 
L 228.884209 96.774419 
L 229.435042 123.940519 
L 229.710458 140.434223 
L 229.985874 150.136401 
L 230.26129 97.744636 
L 230.536706 89.982894 
L 230.812122 124.910737 
L 231.087538 52.144397 
L 231.362954 98.714854 
L 231.63837 125.880955 
L 231.913786 55.05505 
L 232.464619 113.268122 
L 232.740035 76.399843 
L 233.015451 114.23834 
L 233.290867 83.191368 
L 233.566283 105.506379 
L 233.841699 108.417033 
L 234.117115 74.459408 
L 234.392531 105.506379 
L 234.667947 87.07224 
L 234.943363 98.714854 
L 235.218779 101.625508 
L 235.494196 82.221151 
L 235.769612 79.310497 
L 236.045028 128.791608 
L 236.320444 93.863765 
L 236.59586 114.23834 
L 237.146692 82.221151 
L 237.422108 96.774419 
L 237.697524 78.340279 
L 237.97294 71.548754 
L 238.248356 100.65529 
L 238.523773 109.387251 
L 238.799189 105.506379 
L 239.074605 72.518972 
L 239.350021 84.161586 
L 239.625437 69.608318 
L 239.900853 124.910737 
L 240.176269 93.863765 
L 240.451685 92.893547 
L 240.727101 100.65529 
L 241.002517 84.161586 
L 241.277933 97.744636 
L 241.55335 95.804201 
L 241.828766 102.595726 
L 242.104182 101.625508 
L 242.379598 109.387251 
L 242.655014 76.399843 
L 242.93043 117.148994 
L 243.481262 67.667882 
L 243.756678 116.178776 
L 244.032094 103.565944 
L 244.30751 56.025268 
L 244.582926 70.578536 
L 244.858343 118.119212 
L 245.133759 104.536162 
L 245.409175 117.148994 
L 245.684591 118.119212 
L 245.960007 84.161586 
L 246.235423 104.536162 
L 246.786255 78.340279 
L 247.337087 132.67248 
L 247.612503 59.90614 
L 247.88792 83.191368 
L 248.163336 116.178776 
L 248.438752 89.982894 
L 248.714168 98.714854 
L 248.989584 101.625508 
L 249.540416 89.982894 
L 249.815832 102.595726 
L 250.091248 94.833983 
L 250.366664 94.833983 
L 250.64208 116.178776 
L 250.917497 84.161586 
L 251.192913 90.953111 
L 251.468329 106.476597 
L 251.743745 99.685072 
L 252.019161 106.476597 
L 252.294577 76.399843 
L 252.569993 63.787011 
L 252.845409 109.387251 
L 253.120825 109.387251 
L 253.396241 57.965704 
L 253.671657 102.595726 
L 253.947074 75.429625 
L 254.22249 88.042458 
L 254.497906 128.791608 
L 255.048738 75.429625 
L 255.324154 134.612916 
L 255.59957 110.357469 
L 255.874986 110.357469 
L 256.425818 69.608318 
L 256.701234 103.565944 
L 256.97665 83.191368 
L 257.527483 102.595726 
L 257.802899 77.370061 
L 258.078315 105.506379 
L 258.353731 69.608318 
L 258.629147 106.476597 
L 258.904563 100.65529 
L 259.179979 73.48919 
L 259.455395 110.357469 
L 260.006227 67.667882 
L 260.281644 103.565944 
L 260.55706 120.059647 
L 260.832476 76.399843 
L 261.107892 116.178776 
L 261.383308 109.387251 
L 261.658724 88.042458 
L 261.93414 98.714854 
L 262.209556 87.07224 
L 262.484972 99.685072 
L 262.760388 90.953111 
L 263.035804 115.208558 
L 263.311221 76.399843 
L 263.586637 107.446815 
L 263.862053 108.417033 
L 264.137469 90.953111 
L 264.412885 84.161586 
L 264.688301 72.518972 
L 264.963717 93.863765 
L 265.239133 71.548754 
L 265.514549 83.191368 
L 265.789965 107.446815 
L 266.065381 96.774419 
L 266.340798 105.506379 
L 266.616214 97.744636 
L 266.89163 106.476597 
L 267.167046 83.191368 
L 267.717878 120.059647 
L 267.993294 99.685072 
L 268.26871 106.476597 
L 268.544126 102.595726 
L 268.819542 79.310497 
L 269.094958 106.476597 
L 269.370374 81.250933 
L 269.645791 121.029865 
L 269.921207 131.702262 
L 270.196623 116.178776 
L 270.472039 71.548754 
L 270.747455 111.327687 
L 271.298287 91.923329 
L 271.573703 96.774419 
L 271.849119 107.446815 
L 272.124535 95.804201 
L 272.399951 90.953111 
L 272.675368 112.297905 
L 272.950784 101.625508 
L 273.2262 111.327687 
L 273.501616 68.6381 
L 273.777032 78.340279 
L 274.052448 83.191368 
L 274.327864 104.536162 
L 274.60328 107.446815 
L 274.878696 72.518972 
L 275.154112 124.910737 
L 275.429528 100.65529 
L 275.704945 91.923329 
L 276.255777 109.387251 
L 276.531193 85.131804 
L 276.806609 89.012676 
L 277.082025 118.119212 
L 277.357441 98.714854 
L 277.632857 111.327687 
L 277.908273 91.923329 
L 278.183689 95.804201 
L 278.459105 109.387251 
L 278.734521 109.387251 
L 279.009938 64.757229 
L 279.285354 107.446815 
L 279.56077 108.417033 
L 279.836186 61.846575 
L 280.111602 122.000083 
L 280.387018 110.357469 
L 280.662434 115.208558 
L 280.93785 75.429625 
L 281.213266 99.685072 
L 281.488682 89.012676 
L 282.314931 109.387251 
L 282.590347 101.625508 
L 283.141179 122.970301 
L 283.416595 101.625508 
L 283.967427 86.102022 
L 284.518259 112.297905 
L 284.793675 83.191368 
L 285.069092 111.327687 
L 285.344508 68.6381 
L 285.619924 126.851173 
L 285.89534 99.685072 
L 286.446172 119.08943 
L 286.721588 82.221151 
L 286.997004 99.685072 
L 287.27242 135.583133 
L 287.547836 69.608318 
L 287.823252 82.221151 
L 288.098669 76.399843 
L 288.374085 122.970301 
L 288.649501 84.161586 
L 288.924917 76.399843 
L 289.200333 82.221151 
L 289.475749 93.863765 
L 289.751165 94.833983 
L 290.026581 122.000083 
L 290.301997 82.221151 
L 290.852829 115.208558 
L 291.128245 79.310497 
L 291.403662 111.327687 
L 291.679078 97.744636 
L 291.954494 98.714854 
L 292.22991 120.059647 
L 292.505326 100.65529 
L 292.780742 125.880955 
L 293.056158 120.059647 
L 293.331574 91.923329 
L 293.60699 96.774419 
L 293.882406 80.280715 
L 294.157822 95.804201 
L 294.433239 95.804201 
L 294.708655 78.340279 
L 294.984071 118.119212 
L 295.259487 102.595726 
L 295.534903 78.340279 
L 295.810319 87.07224 
L 296.085735 136.553351 
L 296.361151 81.250933 
L 296.636567 87.07224 
L 296.911983 104.536162 
L 297.187399 102.595726 
L 297.462816 107.446815 
L 297.738232 98.714854 
L 298.013648 102.595726 
L 298.289064 77.370061 
L 298.56448 62.816793 
L 299.115312 101.625508 
L 299.390728 109.387251 
L 299.666144 83.191368 
L 299.94156 110.357469 
L 300.216976 104.536162 
L 300.492393 88.042458 
L 300.767809 90.953111 
L 301.043225 91.923329 
L 301.318641 96.774419 
L 301.594057 87.07224 
L 302.144889 113.268122 
L 302.420305 99.685072 
L 302.695721 125.880955 
L 302.971137 102.595726 
L 303.246553 113.268122 
L 303.521969 90.953111 
L 303.797386 124.910737 
L 304.348218 65.727447 
L 304.623634 115.208558 
L 304.89905 94.833983 
L 305.174466 110.357469 
L 305.449882 109.387251 
L 305.725298 79.310497 
L 306.000714 79.310497 
L 306.27613 80.280715 
L 306.826963 112.297905 
L 307.377795 97.744636 
L 307.653211 131.702262 
L 307.928627 104.536162 
L 308.204043 118.119212 
L 308.479459 116.178776 
L 308.754875 109.387251 
L 309.030291 89.012676 
L 309.305707 88.042458 
L 309.581123 75.429625 
L 309.85654 70.578536 
L 310.131956 104.536162 
L 310.407372 93.863765 
L 310.682788 123.940519 
L 310.958204 91.923329 
L 311.23362 84.161586 
L 311.509036 107.446815 
L 311.784452 84.161586 
L 312.059868 87.07224 
L 312.335284 88.042458 
L 312.6107 135.583133 
L 312.886117 134.612916 
L 313.436949 87.07224 
L 313.987781 122.000083 
L 314.263197 102.595726 
L 314.538613 91.923329 
L 314.814029 100.65529 
L 315.089445 120.059647 
L 315.364861 90.953111 
L 315.640277 90.953111 
L 315.915693 96.774419 
L 316.19111 105.506379 
L 316.466526 96.774419 
L 316.741942 123.940519 
L 317.017358 86.102022 
L 317.292774 73.48919 
L 317.843606 119.08943 
L 318.119022 77.370061 
L 318.394438 114.23834 
L 318.669854 74.459408 
L 318.94527 69.608318 
L 319.220687 73.48919 
L 319.496103 75.429625 
L 319.771519 88.042458 
L 320.046935 82.221151 
L 320.322351 121.029865 
L 320.873183 108.417033 
L 321.148599 115.208558 
L 321.699431 99.685072 
L 321.974847 85.131804 
L 322.250264 89.012676 
L 322.52568 121.029865 
L 322.801096 114.23834 
L 323.076512 73.48919 
L 323.351928 119.08943 
L 323.627344 94.833983 
L 323.90276 98.714854 
L 324.178176 108.417033 
L 324.453592 80.280715 
L 324.729008 118.119212 
L 325.004424 123.940519 
L 325.27984 89.982894 
L 325.555257 83.191368 
L 325.830673 109.387251 
L 326.381505 70.578536 
L 326.656921 99.685072 
L 326.932337 76.399843 
L 327.207753 118.119212 
L 327.483169 81.250933 
L 327.758585 106.476597 
L 328.034001 97.744636 
L 328.309417 61.846575 
L 328.584834 98.714854 
L 328.86025 72.518972 
L 329.135666 112.297905 
L 329.411082 110.357469 
L 329.686498 87.07224 
L 329.961914 99.685072 
L 330.23733 79.310497 
L 330.512746 96.774419 
L 330.788162 95.804201 
L 331.063578 84.161586 
L 331.338994 91.923329 
L 331.614411 92.893547 
L 331.889827 89.982894 
L 332.165243 90.953111 
L 332.440659 100.65529 
L 332.716075 96.774419 
L 332.991491 90.953111 
L 333.266907 116.178776 
L 333.542323 114.23834 
L 333.817739 109.387251 
L 334.093155 91.923329 
L 334.368571 102.595726 
L 334.643988 91.923329 
L 334.919404 128.791608 
L 335.470236 75.429625 
L 335.745652 123.940519 
L 336.021068 85.131804 
L 336.296484 72.518972 
L 336.5719 125.880955 
L 336.847316 89.982894 
L 337.122732 71.548754 
L 337.398148 115.208558 
L 337.948981 84.161586 
L 338.224397 81.250933 
L 338.499813 83.191368 
L 338.775229 99.685072 
L 339.050645 107.446815 
L 339.326061 145.285312 
L 339.601477 105.506379 
L 339.876893 91.923329 
L 340.152309 106.476597 
L 340.427725 54.084832 
L 340.703141 68.6381 
L 340.978558 103.565944 
L 341.253974 95.804201 
L 341.52939 116.178776 
L 341.804806 108.417033 
L 342.080222 89.982894 
L 342.355638 95.804201 
L 342.631054 97.744636 
L 342.90647 105.506379 
L 343.181886 97.744636 
L 343.457302 85.131804 
L 343.732718 99.685072 
L 344.008135 105.506379 
L 344.283551 100.65529 
L 344.558967 120.059647 
L 344.834383 85.131804 
L 345.109799 85.131804 
L 345.385215 117.148994 
L 345.660631 111.327687 
L 345.936047 109.387251 
L 346.211463 89.012676 
L 346.486879 92.893547 
L 346.762295 116.178776 
L 347.037712 89.982894 
L 347.313128 82.221151 
L 347.588544 103.565944 
L 347.86396 60.876357 
L 348.139376 94.833983 
L 348.414792 103.565944 
L 348.690208 69.608318 
L 348.965624 121.029865 
L 349.24104 79.310497 
L 349.516456 83.191368 
L 349.791872 118.119212 
L 350.067288 128.791608 
L 350.342705 89.012676 
L 350.618121 106.476597 
L 350.893537 110.357469 
L 351.168953 94.833983 
L 351.444369 129.761826 
L 351.719785 90.953111 
L 351.995201 90.953111 
L 352.270617 93.863765 
L 352.546033 63.787011 
L 352.821449 89.982894 
L 353.096865 105.506379 
L 353.372282 100.65529 
L 353.923114 83.191368 
L 354.19853 100.65529 
L 354.473946 72.518972 
L 354.749362 89.982894 
L 355.024778 122.970301 
L 355.300194 89.982894 
L 355.57561 127.82139 
L 355.851026 101.625508 
L 356.126442 100.65529 
L 356.401859 126.851173 
L 356.677275 105.506379 
L 356.952691 102.595726 
L 357.228107 92.893547 
L 357.503523 99.685072 
L 357.778939 92.893547 
L 358.054355 80.280715 
L 358.329771 84.161586 
L 358.605187 111.327687 
L 358.880603 105.506379 
L 359.156019 119.08943 
L 359.431436 114.23834 
L 359.706852 104.536162 
L 359.982268 123.940519 
L 360.257684 113.268122 
L 360.5331 68.6381 
L 360.808516 103.565944 
L 361.083932 95.804201 
L 361.359348 112.297905 
L 361.634764 95.804201 
L 361.91018 117.148994 
L 362.185596 71.548754 
L 362.461012 79.310497 
L 363.011845 133.642698 
L 363.562677 80.280715 
L 363.838093 81.250933 
L 364.113509 110.357469 
L 364.388925 97.744636 
L 364.664341 118.119212 
L 364.939757 91.923329 
L 365.215173 82.221151 
L 365.490589 100.65529 
L 365.766006 87.07224 
L 366.592254 117.148994 
L 366.86767 102.595726 
L 367.143086 104.536162 
L 367.418502 86.102022 
L 367.693918 95.804201 
L 367.969334 112.297905 
L 368.24475 94.833983 
L 368.520166 98.714854 
L 368.795583 126.851173 
L 369.070999 106.476597 
L 369.346415 105.506379 
L 369.897247 73.48919 
L 370.172663 96.774419 
L 370.448079 103.565944 
L 370.723495 93.863765 
L 370.998911 107.446815 
L 371.274327 88.042458 
L 371.549743 97.744636 
L 372.100576 70.578536 
L 372.375992 104.536162 
L 372.651408 85.131804 
L 372.926824 95.804201 
L 373.20224 92.893547 
L 373.477656 108.417033 
L 374.028488 90.953111 
L 374.303904 69.608318 
L 374.854736 109.387251 
L 375.130153 123.940519 
L 375.405569 125.880955 
L 375.680985 112.297905 
L 375.956401 131.702262 
L 376.231817 90.953111 
L 376.507233 106.476597 
L 376.782649 90.953111 
L 377.058065 113.268122 
L 377.333481 100.65529 
L 377.608897 117.148994 
L 377.884313 105.506379 
L 378.15973 79.310497 
L 378.435146 93.863765 
L 378.710562 99.685072 
L 378.985978 98.714854 
L 379.261394 70.578536 
L 379.812226 108.417033 
L 380.087642 115.208558 
L 380.363058 113.268122 
L 380.638474 138.493787 
L 380.91389 104.536162 
L 381.189307 109.387251 
L 381.464723 122.970301 
L 381.740139 84.161586 
L 382.015555 123.940519 
L 382.566387 92.893547 
L 382.841803 81.250933 
L 383.117219 85.131804 
L 383.392635 98.714854 
L 383.668051 85.131804 
L 383.943467 101.625508 
L 384.218883 125.880955 
L 384.769716 70.578536 
L 385.045132 113.268122 
L 385.320548 81.250933 
L 385.595964 116.178776 
L 385.87138 105.506379 
L 386.146796 117.148994 
L 386.422212 103.565944 
L 386.697628 114.23834 
L 386.973044 71.548754 
L 387.24846 100.65529 
L 387.523877 97.744636 
L 387.799293 91.923329 
L 388.074709 97.744636 
L 388.350125 90.953111 
L 388.625541 77.370061 
L 388.900957 77.370061 
L 389.176373 90.953111 
L 389.451789 97.744636 
L 390.002621 114.23834 
L 390.278037 87.07224 
L 390.553454 84.161586 
L 390.82887 86.102022 
L 391.104286 89.012676 
L 391.379702 86.102022 
L 391.655118 104.536162 
L 391.930534 47.293307 
L 392.20595 105.506379 
L 392.481366 116.178776 
L 392.756782 106.476597 
L 393.032198 122.970301 
L 393.307614 63.787011 
L 393.583031 65.727447 
L 393.858447 113.268122 
L 394.133863 65.727447 
L 394.409279 93.863765 
L 394.684695 90.953111 
L 394.960111 97.744636 
L 395.786359 138.493787 
L 396.061775 122.970301 
L 396.337191 73.48919 
L 396.612607 96.774419 
L 396.888024 89.982894 
L 397.16344 96.774419 
L 397.438856 120.059647 
L 397.714272 93.863765 
L 397.989688 102.595726 
L 398.265104 74.459408 
L 398.54052 91.923329 
L 398.815936 90.953111 
L 399.091352 128.791608 
L 399.642184 111.327687 
L 399.917601 132.67248 
L 400.193017 96.774419 
L 400.468433 101.625508 
L 400.743849 60.876357 
L 401.019265 113.268122 
L 401.294681 116.178776 
L 401.570097 64.757229 
L 401.845513 95.804201 
L 402.120929 87.07224 
L 402.396345 96.774419 
L 402.671761 100.65529 
L 403.222594 98.714854 
L 403.49801 133.642698 
L 403.773426 77.370061 
L 404.048842 119.08943 
L 404.324258 121.029865 
L 404.599674 108.417033 
L 404.87509 103.565944 
L 405.150506 92.893547 
L 405.425922 98.714854 
L 405.701338 114.23834 
L 405.976755 90.953111 
L 406.252171 102.595726 
L 406.527587 120.059647 
L 406.803003 112.297905 
L 407.353835 89.982894 
L 407.629251 64.757229 
L 407.904667 121.029865 
L 408.180083 130.732044 
L 408.455499 87.07224 
L 408.730915 121.029865 
L 409.006331 119.08943 
L 409.281748 123.940519 
L 409.557164 102.595726 
L 409.83258 126.851173 
L 410.107996 86.102022 
L 410.383412 78.340279 
L 410.658828 115.208558 
L 410.934244 81.250933 
L 411.20966 68.6381 
L 411.485076 98.714854 
L 411.760492 79.310497 
L 412.311325 106.476597 
L 412.586741 88.042458 
L 412.862157 107.446815 
L 413.412989 87.07224 
L 413.688405 89.012676 
L 413.963821 130.732044 
L 414.239237 86.102022 
L 414.514653 104.536162 
L 414.790069 97.744636 
L 415.065485 105.506379 
L 415.340902 109.387251 
L 415.616318 90.953111 
L 415.891734 87.07224 
L 416.16715 112.297905 
L 416.717982 93.863765 
L 416.993398 68.6381 
L 417.268814 108.417033 
L 417.54423 116.178776 
L 417.819646 46.323089 
L 418.095062 69.608318 
L 418.645895 99.685072 
L 418.921311 76.399843 
L 419.196727 71.548754 
L 419.472143 99.685072 
L 420.022975 89.012676 
L 420.298391 131.702262 
L 420.573807 132.67248 
L 420.849223 121.029865 
L 421.124639 101.625508 
L 421.400055 100.65529 
L 421.675472 85.131804 
L 421.950888 97.744636 
L 422.226304 99.685072 
L 422.50172 116.178776 
L 422.777136 82.221151 
L 423.052552 87.07224 
L 423.327968 85.131804 
L 423.603384 116.178776 
L 423.8788 84.161586 
L 424.154216 103.565944 
L 424.429632 88.042458 
L 424.705049 86.102022 
L 424.980465 86.102022 
L 425.255881 95.804201 
L 425.531297 86.102022 
L 425.806713 89.982894 
L 426.082129 87.07224 
L 426.357545 71.548754 
L 426.632961 118.119212 
L 426.908377 74.459408 
L 427.183793 110.357469 
L 427.459209 126.851173 
L 427.734626 83.191368 
L 428.010042 92.893547 
L 428.285458 113.268122 
L 428.560874 103.565944 
L 428.83629 82.221151 
L 429.111706 89.012676 
L 429.387122 111.327687 
L 429.662538 100.65529 
L 429.937954 125.880955 
L 430.21337 91.923329 
L 430.488786 115.208558 
L 430.764202 86.102022 
L 431.039619 93.863765 
L 431.315035 109.387251 
L 431.590451 104.536162 
L 431.865867 77.370061 
L 432.141283 118.119212 
L 432.416699 90.953111 
L 432.692115 119.08943 
L 432.967531 114.23834 
L 433.242947 79.310497 
L 433.518363 98.714854 
L 433.793779 80.280715 
L 434.069196 106.476597 
L 434.344612 87.07224 
L 434.620028 126.851173 
L 434.895444 121.029865 
L 435.446276 88.042458 
L 435.997108 120.059647 
L 436.272524 122.000083 
L 436.54794 144.315094 
L 436.823356 81.250933 
L 437.098773 103.565944 
L 437.374189 105.506379 
L 437.649605 92.893547 
L 437.925021 62.816793 
L 438.200437 131.702262 
L 438.475853 93.863765 
L 438.751269 76.399843 
L 439.302101 97.744636 
L 439.852933 74.459408 
L 440.12835 90.953111 
L 440.403766 89.982894 
L 440.679182 118.119212 
L 440.954598 107.446815 
L 441.230014 61.846575 
L 441.50543 102.595726 
L 441.780846 89.982894 
L 442.331678 113.268122 
L 442.607094 107.446815 
L 442.88251 110.357469 
L 443.157926 83.191368 
L 443.433343 72.518972 
L 443.708759 105.506379 
L 443.984175 75.429625 
L 444.259591 103.565944 
L 444.810423 95.804201 
L 445.085839 76.399843 
L 445.361255 126.851173 
L 445.636671 99.685072 
L 445.912087 143.344876 
L 446.187503 113.268122 
L 446.46292 100.65529 
L 446.738336 118.119212 
L 447.013752 105.506379 
L 447.564584 122.970301 
L 447.564584 122.970301 
" style="fill:none;stroke:#4c72b0;stroke-linecap:round;stroke-width:1.75;"/>
   </g>
   <g id="line2d_22">
    <path clip-path="url(#pdb9cc842b4)" d="M 50.69 98.125457 
L 447.84 98.125457 
" style="fill:none;stroke:#55a868;stroke-linecap:round;stroke-width:3;"/>
   </g>
   <g id="patch_3">
    <path d="M 50.69 150.136401 
L 50.69 41.472 
" style="fill:none;"/>
   </g>
   <g id="patch_4">
    <path d="M 447.84 150.136401 
L 447.84 41.472 
" style="fill:none;"/>
   </g>
   <g id="patch_5">
    <path d="M 50.69 150.136401 
L 447.84 150.136401 
" style="fill:none;"/>
   </g>
   <g id="patch_6">
    <path d="M 50.69 41.472 
L 447.84 41.472 
" style="fill:none;"/>
   </g>
   <g id="legend_1">
    <g id="line2d_23">
     <path d="M 390.375938 54.570437 
L 410.375938 54.570437 
" style="fill:none;stroke:#55a868;stroke-linecap:round;stroke-width:3;"/>
    </g>
    <g id="line2d_24"/>
    <g id="text_13">
     <!-- bias -->
     <defs>
      <path d="M 48.6875 27.296875 
Q 48.6875 37.203125 44.609375 42.84375 
Q 40.53125 48.484375 33.40625 48.484375 
Q 26.265625 48.484375 22.1875 42.84375 
Q 18.109375 37.203125 18.109375 27.296875 
Q 18.109375 17.390625 22.1875 11.75 
Q 26.265625 6.109375 33.40625 6.109375 
Q 40.53125 6.109375 44.609375 11.75 
Q 48.6875 17.390625 48.6875 27.296875 
z
M 18.109375 46.390625 
Q 20.953125 51.265625 25.265625 53.625 
Q 29.59375 56 35.59375 56 
Q 45.5625 56 51.78125 48.09375 
Q 58.015625 40.1875 58.015625 27.296875 
Q 58.015625 14.40625 51.78125 6.484375 
Q 45.5625 -1.421875 35.59375 -1.421875 
Q 29.59375 -1.421875 25.265625 0.953125 
Q 20.953125 3.328125 18.109375 8.203125 
L 18.109375 0 
L 9.078125 0 
L 9.078125 75.984375 
L 18.109375 75.984375 
z
" id="DejaVuSans-62"/>
     </defs>
     <g style="fill:#262626;" transform="translate(418.375938 58.070437)scale(0.1 -0.1)">
      <use xlink:href="#DejaVuSans-62"/>
      <use x="63.476562" xlink:href="#DejaVuSans-69"/>
      <use x="91.259766" xlink:href="#DejaVuSans-61"/>
      <use x="152.539062" xlink:href="#DejaVuSans-73"/>
     </g>
    </g>
   </g>
  </g>
  <g id="axes_2">
   <g id="patch_7">
    <path d="M 50.69 300.76 
L 447.84 300.76 
L 447.84 192.095599 
L 50.69 192.095599 
z
" style="fill:#eaeaf2;"/>
   </g>
   <g id="matplotlib.axis_3">
    <g id="xtick_7">
     <g id="line2d_25">
      <path clip-path="url(#pfbea36de93)" d="M 50.69 300.76 
L 50.69 192.095599 
" style="fill:none;stroke:#ffffff;stroke-linecap:round;"/>
     </g>
     <g id="line2d_26"/>
     <g id="text_14">
      <!-- 0.0 -->
      <g style="fill:#262626;" transform="translate(42.738438 315.358438)scale(0.1 -0.1)">
       <use xlink:href="#DejaVuSans-30"/>
       <use x="63.623047" xlink:href="#DejaVuSans-2e"/>
       <use x="95.410156" xlink:href="#DejaVuSans-30"/>
      </g>
     </g>
    </g>
    <g id="xtick_8">
     <g id="line2d_27">
      <path clip-path="url(#pfbea36de93)" d="M 121.245448 300.76 
L 121.245448 192.095599 
" style="fill:none;stroke:#ffffff;stroke-linecap:round;"/>
     </g>
     <g id="line2d_28"/>
     <g id="text_15">
      <!-- 0.5 -->
      <g style="fill:#262626;" transform="translate(113.293885 315.358438)scale(0.1 -0.1)">
       <use xlink:href="#DejaVuSans-30"/>
       <use x="63.623047" xlink:href="#DejaVuSans-2e"/>
       <use x="95.410156" xlink:href="#DejaVuSans-35"/>
      </g>
     </g>
    </g>
    <g id="xtick_9">
     <g id="line2d_29">
      <path clip-path="url(#pfbea36de93)" d="M 191.800895 300.76 
L 191.800895 192.095599 
" style="fill:none;stroke:#ffffff;stroke-linecap:round;"/>
     </g>
     <g id="line2d_30"/>
     <g id="text_16">
      <!-- 1.0 -->
      <g style="fill:#262626;" transform="translate(183.849333 315.358438)scale(0.1 -0.1)">
       <use xlink:href="#DejaVuSans-31"/>
       <use x="63.623047" xlink:href="#DejaVuSans-2e"/>
       <use x="95.410156" xlink:href="#DejaVuSans-30"/>
      </g>
     </g>
    </g>
    <g id="xtick_10">
     <g id="line2d_31">
      <path clip-path="url(#pfbea36de93)" d="M 262.356343 300.76 
L 262.356343 192.095599 
" style="fill:none;stroke:#ffffff;stroke-linecap:round;"/>
     </g>
     <g id="line2d_32"/>
     <g id="text_17">
      <!-- 1.5 -->
      <g style="fill:#262626;" transform="translate(254.40478 315.358438)scale(0.1 -0.1)">
       <use xlink:href="#DejaVuSans-31"/>
       <use x="63.623047" xlink:href="#DejaVuSans-2e"/>
       <use x="95.410156" xlink:href="#DejaVuSans-35"/>
      </g>
     </g>
    </g>
    <g id="xtick_11">
     <g id="line2d_33">
      <path clip-path="url(#pfbea36de93)" d="M 332.91179 300.76 
L 332.91179 192.095599 
" style="fill:none;stroke:#ffffff;stroke-linecap:round;"/>
     </g>
     <g id="line2d_34"/>
     <g id="text_18">
      <!-- 2.0 -->
      <g style="fill:#262626;" transform="translate(324.960228 315.358438)scale(0.1 -0.1)">
       <use xlink:href="#DejaVuSans-32"/>
       <use x="63.623047" xlink:href="#DejaVuSans-2e"/>
       <use x="95.410156" xlink:href="#DejaVuSans-30"/>
      </g>
     </g>
    </g>
    <g id="xtick_12">
     <g id="line2d_35">
      <path clip-path="url(#pfbea36de93)" d="M 403.467238 300.76 
L 403.467238 192.095599 
" style="fill:none;stroke:#ffffff;stroke-linecap:round;"/>
     </g>
     <g id="line2d_36"/>
     <g id="text_19">
      <!-- 2.5 -->
      <g style="fill:#262626;" transform="translate(395.515676 315.358438)scale(0.1 -0.1)">
       <use xlink:href="#DejaVuSans-32"/>
       <use x="63.623047" xlink:href="#DejaVuSans-2e"/>
       <use x="95.410156" xlink:href="#DejaVuSans-35"/>
      </g>
     </g>
    </g>
    <g id="text_20">
     <!-- Time (seconds) -->
     <g style="fill:#262626;" transform="translate(207.117813 329.796406)scale(0.11 -0.11)">
      <use xlink:href="#DejaVuSans-54"/>
      <use x="61.037109" xlink:href="#DejaVuSans-69"/>
      <use x="88.820312" xlink:href="#DejaVuSans-6d"/>
      <use x="186.232422" xlink:href="#DejaVuSans-65"/>
      <use x="247.755859" xlink:href="#DejaVuSans-20"/>
      <use x="279.542969" xlink:href="#DejaVuSans-28"/>
      <use x="318.556641" xlink:href="#DejaVuSans-73"/>
      <use x="370.65625" xlink:href="#DejaVuSans-65"/>
      <use x="432.179688" xlink:href="#DejaVuSans-63"/>
      <use x="487.160156" xlink:href="#DejaVuSans-6f"/>
      <use x="548.341797" xlink:href="#DejaVuSans-6e"/>
      <use x="611.720703" xlink:href="#DejaVuSans-64"/>
      <use x="675.197266" xlink:href="#DejaVuSans-73"/>
      <use x="727.296875" xlink:href="#DejaVuSans-29"/>
     </g>
    </g>
   </g>
   <g id="matplotlib.axis_4">
    <g id="ytick_5">
     <g id="line2d_37">
      <path clip-path="url(#pfbea36de93)" d="M 50.69 300.827131 
L 447.84 300.827131 
" style="fill:none;stroke:#ffffff;stroke-linecap:round;"/>
     </g>
     <g id="line2d_38"/>
     <g id="text_21">
      <!-- 0 -->
      <g style="fill:#262626;" transform="translate(37.3275 304.62635)scale(0.1 -0.1)">
       <use xlink:href="#DejaVuSans-30"/>
      </g>
     </g>
    </g>
    <g id="ytick_6">
     <g id="line2d_39">
      <path clip-path="url(#pfbea36de93)" d="M 50.69 270.992195 
L 447.84 270.992195 
" style="fill:none;stroke:#ffffff;stroke-linecap:round;"/>
     </g>
     <g id="line2d_40"/>
     <g id="text_22">
      <!-- 1 -->
      <g style="fill:#262626;" transform="translate(37.3275 274.791414)scale(0.1 -0.1)">
       <use xlink:href="#DejaVuSans-31"/>
      </g>
     </g>
    </g>
    <g id="ytick_7">
     <g id="line2d_41">
      <path clip-path="url(#pfbea36de93)" d="M 50.69 241.157259 
L 447.84 241.157259 
" style="fill:none;stroke:#ffffff;stroke-linecap:round;"/>
     </g>
     <g id="line2d_42"/>
     <g id="text_23">
      <!-- 2 -->
      <g style="fill:#262626;" transform="translate(37.3275 244.956478)scale(0.1 -0.1)">
       <use xlink:href="#DejaVuSans-32"/>
      </g>
     </g>
    </g>
    <g id="ytick_8">
     <g id="line2d_43">
      <path clip-path="url(#pfbea36de93)" d="M 50.69 211.322323 
L 447.84 211.322323 
" style="fill:none;stroke:#ffffff;stroke-linecap:round;"/>
     </g>
     <g id="line2d_44"/>
     <g id="text_24">
      <!-- 3 -->
      <defs>
       <path d="M 40.578125 39.3125 
Q 47.65625 37.796875 51.625 33 
Q 55.609375 28.21875 55.609375 21.1875 
Q 55.609375 10.40625 48.1875 4.484375 
Q 40.765625 -1.421875 27.09375 -1.421875 
Q 22.515625 -1.421875 17.65625 -0.515625 
Q 12.796875 0.390625 7.625 2.203125 
L 7.625 11.71875 
Q 11.71875 9.328125 16.59375 8.109375 
Q 21.484375 6.890625 26.8125 6.890625 
Q 36.078125 6.890625 40.9375 10.546875 
Q 45.796875 14.203125 45.796875 21.1875 
Q 45.796875 27.640625 41.28125 31.265625 
Q 36.765625 34.90625 28.71875 34.90625 
L 20.21875 34.90625 
L 20.21875 43.015625 
L 29.109375 43.015625 
Q 36.375 43.015625 40.234375 45.921875 
Q 44.09375 48.828125 44.09375 54.296875 
Q 44.09375 59.90625 40.109375 62.90625 
Q 36.140625 65.921875 28.71875 65.921875 
Q 24.65625 65.921875 20.015625 65.03125 
Q 15.375 64.15625 9.8125 62.3125 
L 9.8125 71.09375 
Q 15.4375 72.65625 20.34375 73.4375 
Q 25.25 74.21875 29.59375 74.21875 
Q 40.828125 74.21875 47.359375 69.109375 
Q 53.90625 64.015625 53.90625 55.328125 
Q 53.90625 49.265625 50.4375 45.09375 
Q 46.96875 40.921875 40.578125 39.3125 
z
" id="DejaVuSans-33"/>
      </defs>
      <g style="fill:#262626;" transform="translate(37.3275 215.121542)scale(0.1 -0.1)">
       <use xlink:href="#DejaVuSans-33"/>
      </g>
     </g>
    </g>
    <g id="text_25">
     <!-- Tilt (degrees) -->
     <g style="fill:#262626;" transform="translate(31.039844 283.296706)rotate(-90)scale(0.11 -0.11)">
      <use xlink:href="#DejaVuSans-54"/>
      <use x="61.037109" xlink:href="#DejaVuSans-69"/>
      <use x="88.820312" xlink:href="#DejaVuSans-6c"/>
      <use x="116.603516" xlink:href="#DejaVuSans-74"/>
      <use x="155.8125" xlink:href="#DejaVuSans-20"/>
      <use x="187.599609" xlink:href="#DejaVuSans-28"/>
      <use x="226.613281" xlink:href="#DejaVuSans-64"/>
      <use x="290.089844" xlink:href="#DejaVuSans-65"/>
      <use x="351.613281" xlink:href="#DejaVuSans-67"/>
      <use x="415.089844" xlink:href="#DejaVuSans-72"/>
      <use x="456.171875" xlink:href="#DejaVuSans-65"/>
      <use x="517.695312" xlink:href="#DejaVuSans-65"/>
      <use x="579.21875" xlink:href="#DejaVuSans-73"/>
      <use x="631.318359" xlink:href="#DejaVuSans-29"/>
     </g>
    </g>
   </g>
   <g id="line2d_45">
    <path clip-path="url(#pfbea36de93)" d="M 50.69 300.76 
L 54.824108 299.631224 
L 87.070153 290.941557 
L 88.448189 290.562779 
L 90.653046 289.962602 
L 92.30669 289.50958 
L 94.511548 288.878728 
L 99.19687 287.587237 
L 104.1578 286.195272 
L 109.11873 284.849099 
L 124.828341 280.513601 
L 126.481985 280.020567 
L 132.269736 278.44277 
L 138.333095 276.795619 
L 147.70374 274.218861 
L 151.837849 273.067411 
L 156.247564 271.8555 
L 164.515781 269.523258 
L 168.098675 268.571423 
L 182.43025 264.566245 
L 186.564358 263.425909 
L 203.652006 258.735641 
L 208.337328 257.515727 
L 209.990972 257.031584 
L 216.605545 255.219051 
L 219.361617 254.490393 
L 287.160992 235.888478 
L 288.814636 235.427898 
L 292.121922 234.512517 
L 295.429209 233.630036 
L 299.838924 232.393672 
L 306.17789 230.676723 
L 308.658355 230.032978 
L 315.548536 228.165762 
L 324.919181 225.59345 
L 326.848432 225.055958 
L 330.98254 223.889393 
L 335.667863 222.607683 
L 338.148328 221.921703 
L 342.558043 220.707569 
L 380.591839 210.383199 
L 382.796697 209.824368 
L 386.655198 208.770725 
L 389.686877 207.908693 
L 394.096593 206.670107 
L 395.750236 206.214417 
L 397.679486 205.710269 
L 406.498917 203.343351 
L 410.908633 202.196347 
L 415.593956 200.896409 
L 429.925531 196.906347 
L 432.681603 196.167018 
L 437.642533 194.874193 
L 447.84 192.095599 
L 447.84 192.095599 
" style="fill:none;stroke:#4c72b0;stroke-linecap:round;stroke-width:1.75;"/>
   </g>
   <g id="patch_8">
    <path d="M 50.69 300.76 
L 50.69 192.095599 
" style="fill:none;"/>
   </g>
   <g id="patch_9">
    <path d="M 447.84 300.76 
L 447.84 192.095599 
" style="fill:none;"/>
   </g>
   <g id="patch_10">
    <path d="M 50.69 300.76 
L 447.84 300.76 
" style="fill:none;"/>
   </g>
   <g id="patch_11">
    <path d="M 50.69 192.095599 
L 447.84 192.095599 
" style="fill:none;"/>
   </g>
  </g>
  <g id="text_26">
   <!-- Lying flat and still -->
   <defs>
    <path d="M 9.8125 72.90625 
L 19.671875 72.90625 
L 19.671875 8.296875 
L 55.171875 8.296875 
L 55.171875 0 
L 9.8125 0 
z
" id="DejaVuSans-4c"/>
    <path d="M 32.171875 -5.078125 
Q 28.375 -14.84375 24.75 -17.8125 
Q 21.140625 -20.796875 15.09375 -20.796875 
L 7.90625 -20.796875 
L 7.90625 -13.28125 
L 13.1875 -13.28125 
Q 16.890625 -13.28125 18.9375 -11.515625 
Q 21 -9.765625 23.484375 -3.21875 
L 25.09375 0.875 
L 2.984375 54.6875 
L 12.5 54.6875 
L 29.59375 11.921875 
L 46.6875 54.6875 
L 56.203125 54.6875 
z
" id="DejaVuSans-79"/>
    <path d="M 37.109375 75.984375 
L 37.109375 68.5 
L 28.515625 68.5 
Q 23.6875 68.5 21.796875 66.546875 
Q 19.921875 64.59375 19.921875 59.515625 
L 19.921875 54.6875 
L 34.71875 54.6875 
L 34.71875 47.703125 
L 19.921875 47.703125 
L 19.921875 0 
L 10.890625 0 
L 10.890625 47.703125 
L 2.296875 47.703125 
L 2.296875 54.6875 
L 10.890625 54.6875 
L 10.890625 58.5 
Q 10.890625 67.625 15.140625 71.796875 
Q 19.390625 75.984375 28.609375 75.984375 
z
" id="DejaVuSans-66"/>
   </defs>
   <g style="fill:#262626;" transform="translate(166.248 17.85375)scale(0.144 -0.144)">
    <use xlink:href="#DejaVuSans-4c"/>
    <use x="55.572266" xlink:href="#DejaVuSans-79"/>
    <use x="114.751953" xlink:href="#DejaVuSans-69"/>
    <use x="142.535156" xlink:href="#DejaVuSans-6e"/>
    <use x="205.914062" xlink:href="#DejaVuSans-67"/>
    <use x="269.390625" xlink:href="#DejaVuSans-20"/>
    <use x="301.177734" xlink:href="#DejaVuSans-66"/>
    <use x="336.382812" xlink:href="#DejaVuSans-6c"/>
    <use x="364.166016" xlink:href="#DejaVuSans-61"/>
    <use x="425.445312" xlink:href="#DejaVuSans-74"/>
    <use x="464.654297" xlink:href="#DejaVuSans-20"/>
    <use x="496.441406" xlink:href="#DejaVuSans-61"/>
    <use x="557.720703" xlink:href="#DejaVuSans-6e"/>
    <use x="621.099609" xlink:href="#DejaVuSans-64"/>
    <use x="684.576172" xlink:href="#DejaVuSans-20"/>
    <use x="716.363281" xlink:href="#DejaVuSans-73"/>
    <use x="768.462891" xlink:href="#DejaVuSans-74"/>
    <use x="807.671875" xlink:href="#DejaVuSans-69"/>
    <use x="835.455078" xlink:href="#DejaVuSans-6c"/>
    <use x="863.238281" xlink:href="#DejaVuSans-6c"/>
   </g>
  </g>
 </g>
 <defs>
  <clipPath id="pdb9cc842b4">
   <rect height="108.664401" width="397.15" x="50.69" y="41.472"/>
  </clipPath>
  <clipPath id="pfbea36de93">
   <rect height="108.664401" width="397.15" x="50.69" y="192.095599"/>
  </clipPath>
 </defs>
</svg>
