<?xml version="1.0" encoding="utf-8" standalone="no"?>
<!DOCTYPE svg PUBLIC "-//W3C//DTD SVG 1.1//EN"
  "http://www.w3.org/Graphics/SVG/1.1/DTD/svg11.dtd">
<!-- Created with matplotlib (http://matplotlib.org/) -->
<svg height="345pt" version="1.1" viewBox="0 0 460 345" width="460pt" xmlns="http://www.w3.org/2000/svg" xmlns:xlink="http://www.w3.org/1999/xlink">
 <defs>
  <style type="text/css">
*{stroke-linecap:butt;stroke-linejoin:round;}
  </style>
 </defs>
 <g id="figure_1">
  <g id="patch_1">
   <path d="M 0 345.6 
L 460.8 345.6 
L 460.8 0 
L 0 0 
z
" style="fill:#ffffff;"/>
  </g>
  <g id="axes_1">
   <g id="patch_2">
    <path d="M 77.87 150.007746 
L 447.84 150.007746 
L 447.84 41.472 
L 77.87 41.472 
z
" style="fill:#eaeaf2;"/>
   </g>
   <g id="matplotlib.axis_1">
    <g id="xtick_1">
     <g id="line2d_1">
      <path clip-path="url(#p0668243925)" d="M 77.87 150.007746 
L 77.87 41.472 
" style="fill:none;stroke:#ffffff;stroke-linecap:round;"/>
     </g>
     <g id="line2d_2"/>
     <g id="text_1">
      <!-- 0.0 -->
      <defs>
       <path d="M 31.78125 66.40625 
Q 24.171875 66.40625 20.328125 58.90625 
Q 16.5 51.421875 16.5 36.375 
Q 16.5 21.390625 20.328125 13.890625 
Q 24.171875 6.390625 31.78125 6.390625 
Q 39.453125 6.390625 43.28125 13.890625 
Q 47.125 21.390625 47.125 36.375 
Q 47.125 51.421875 43.28125 58.90625 
Q 39.453125 66.40625 31.78125 66.40625 
z
M 31.78125 74.21875 
Q 44.046875 74.21875 50.515625 64.515625 
Q 56.984375 54.828125 56.984375 36.375 
Q 56.984375 17.96875 50.515625 8.265625 
Q 44.046875 -1.421875 31.78125 -1.421875 
Q 19.53125 -1.421875 13.0625 8.265625 
Q 6.59375 17.96875 6.59375 36.375 
Q 6.59375 54.828125 13.0625 64.515625 
Q 19.53125 74.21875 31.78125 74.21875 
z
" id="DejaVuSans-30"/>
       <path d="M 10.6875 12.40625 
L 21 12.40625 
L 21 0 
L 10.6875 0 
z
" id="DejaVuSans-2e"/>
      </defs>
      <g style="fill:#262626;" transform="translate(69.918438 164.606184)scale(0.1 -0.1)">
       <use xlink:href="#DejaVuSans-30"/>
       <use x="63.623047" xlink:href="#DejaVuSans-2e"/>
       <use x="95.410156" xlink:href="#DejaVuSans-30"/>
      </g>
     </g>
    </g>
    <g id="xtick_2">
     <g id="line2d_3">
      <path clip-path="url(#p0668243925)" d="M 143.596801 150.007746 
L 143.596801 41.472 
" style="fill:none;stroke:#ffffff;stroke-linecap:round;"/>
     </g>
     <g id="line2d_4"/>
     <g id="text_2">
      <!-- 0.5 -->
      <defs>
       <path d="M 10.796875 72.90625 
L 49.515625 72.90625 
L 49.515625 64.59375 
L 19.828125 64.59375 
L 19.828125 46.734375 
Q 21.96875 47.46875 24.109375 47.828125 
Q 26.265625 48.1875 28.421875 48.1875 
Q 40.625 48.1875 47.75 41.5 
Q 54.890625 34.8125 54.890625 23.390625 
Q 54.890625 11.625 47.5625 5.09375 
Q 40.234375 -1.421875 26.90625 -1.421875 
Q 22.3125 -1.421875 17.546875 -0.640625 
Q 12.796875 0.140625 7.71875 1.703125 
L 7.71875 11.625 
Q 12.109375 9.234375 16.796875 8.0625 
Q 21.484375 6.890625 26.703125 6.890625 
Q 35.15625 6.890625 40.078125 11.328125 
Q 45.015625 15.765625 45.015625 23.390625 
Q 45.015625 31 40.078125 35.4375 
Q 35.15625 39.890625 26.703125 39.890625 
Q 22.75 39.890625 18.8125 39.015625 
Q 14.890625 38.140625 10.796875 36.28125 
z
" id="DejaVuSans-35"/>
      </defs>
      <g style="fill:#262626;" transform="translate(135.645238 164.606184)scale(0.1 -0.1)">
       <use xlink:href="#DejaVuSans-30"/>
       <use x="63.623047" xlink:href="#DejaVuSans-2e"/>
       <use x="95.410156" xlink:href="#DejaVuSans-35"/>
      </g>
     </g>
    </g>
    <g id="xtick_3">
     <g id="line2d_5">
      <path clip-path="url(#p0668243925)" d="M 209.323602 150.007746 
L 209.323602 41.472 
" style="fill:none;stroke:#ffffff;stroke-linecap:round;"/>
     </g>
     <g id="line2d_6"/>
     <g id="text_3">
      <!-- 1.0 -->
      <defs>
       <path d="M 12.40625 8.296875 
L 28.515625 8.296875 
L 28.515625 63.921875 
L 10.984375 60.40625 
L 10.984375 69.390625 
L 28.421875 72.90625 
L 38.28125 72.90625 
L 38.28125 8.296875 
L 54.390625 8.296875 
L 54.390625 0 
L 12.40625 0 
z
" id="DejaVuSans-31"/>
      </defs>
      <g style="fill:#262626;" transform="translate(201.372039 164.606184)scale(0.1 -0.1)">
       <use xlink:href="#DejaVuSans-31"/>
       <use x="63.623047" xlink:href="#DejaVuSans-2e"/>
       <use x="95.410156" xlink:href="#DejaVuSans-30"/>
      </g>
     </g>
    </g>
    <g id="xtick_4">
     <g id="line2d_7">
      <path clip-path="url(#p0668243925)" d="M 275.050402 150.007746 
L 275.050402 41.472 
" style="fill:none;stroke:#ffffff;stroke-linecap:round;"/>
     </g>
     <g id="line2d_8"/>
     <g id="text_4">
      <!-- 1.5 -->
      <g style="fill:#262626;" transform="translate(267.09884 164.606184)scale(0.1 -0.1)">
       <use xlink:href="#DejaVuSans-31"/>
       <use x="63.623047" xlink:href="#DejaVuSans-2e"/>
       <use x="95.410156" xlink:href="#DejaVuSans-35"/>
      </g>
     </g>
    </g>
    <g id="xtick_5">
     <g id="line2d_9">
      <path clip-path="url(#p0668243925)" d="M 340.777203 150.007746 
L 340.777203 41.472 
" style="fill:none;stroke:#ffffff;stroke-linecap:round;"/>
     </g>
     <g id="line2d_10"/>
     <g id="text_5">
      <!-- 2.0 -->
      <defs>
       <path d="M 19.1875 8.296875 
L 53.609375 8.296875 
L 53.609375 0 
L 7.328125 0 
L 7.328125 8.296875 
Q 12.9375 14.109375 22.625 23.890625 
Q 32.328125 33.6875 34.8125 36.53125 
Q 39.546875 41.84375 41.421875 45.53125 
Q 43.3125 49.21875 43.3125 52.78125 
Q 43.3125 58.59375 39.234375 62.25 
Q 35.15625 65.921875 28.609375 65.921875 
Q 23.96875 65.921875 18.8125 64.3125 
Q 13.671875 62.703125 7.8125 59.421875 
L 7.8125 69.390625 
Q 13.765625 71.78125 18.9375 73 
Q 24.125 74.21875 28.421875 74.21875 
Q 39.75 74.21875 46.484375 68.546875 
Q 53.21875 62.890625 53.21875 53.421875 
Q 53.21875 48.921875 51.53125 44.890625 
Q 49.859375 40.875 45.40625 35.40625 
Q 44.1875 33.984375 37.640625 27.21875 
Q 31.109375 20.453125 19.1875 8.296875 
z
" id="DejaVuSans-32"/>
      </defs>
      <g style="fill:#262626;" transform="translate(332.825641 164.606184)scale(0.1 -0.1)">
       <use xlink:href="#DejaVuSans-32"/>
       <use x="63.623047" xlink:href="#DejaVuSans-2e"/>
       <use x="95.410156" xlink:href="#DejaVuSans-30"/>
      </g>
     </g>
    </g>
    <g id="xtick_6">
     <g id="line2d_11">
      <path clip-path="url(#p0668243925)" d="M 406.504004 150.007746 
L 406.504004 41.472 
" style="fill:none;stroke:#ffffff;stroke-linecap:round;"/>
     </g>
     <g id="line2d_12"/>
     <g id="text_6">
      <!-- 2.5 -->
      <g style="fill:#262626;" transform="translate(398.552442 164.606184)scale(0.1 -0.1)">
       <use xlink:href="#DejaVuSans-32"/>
       <use x="63.623047" xlink:href="#DejaVuSans-2e"/>
       <use x="95.410156" xlink:href="#DejaVuSans-35"/>
      </g>
     </g>
    </g>
    <g id="text_7">
     <!-- Time (seconds) -->
     <defs>
      <path d="M -0.296875 72.90625 
L 61.375 72.90625 
L 61.375 64.59375 
L 35.5 64.59375 
L 35.5 0 
L 25.59375 0 
L 25.59375 64.59375 
L -0.296875 64.59375 
z
" id="DejaVuSans-54"/>
      <path d="M 9.421875 54.6875 
L 18.40625 54.6875 
L 18.40625 0 
L 9.421875 0 
z
M 9.421875 75.984375 
L 18.40625 75.984375 
L 18.40625 64.59375 
L 9.421875 64.59375 
z
" id="DejaVuSans-69"/>
      <path d="M 52 44.1875 
Q 55.375 50.25 60.0625 53.125 
Q 64.75 56 71.09375 56 
Q 79.640625 56 84.28125 50.015625 
Q 88.921875 44.046875 88.921875 33.015625 
L 88.921875 0 
L 79.890625 0 
L 79.890625 32.71875 
Q 79.890625 40.578125 77.09375 44.375 
Q 74.3125 48.1875 68.609375 48.1875 
Q 61.625 48.1875 57.5625 43.546875 
Q 53.515625 38.921875 53.515625 30.90625 
L 53.515625 0 
L 44.484375 0 
L 44.484375 32.71875 
Q 44.484375 40.625 41.703125 44.40625 
Q 38.921875 48.1875 33.109375 48.1875 
Q 26.21875 48.1875 22.15625 43.53125 
Q 18.109375 38.875 18.109375 30.90625 
L 18.109375 0 
L 9.078125 0 
L 9.078125 54.6875 
L 18.109375 54.6875 
L 18.109375 46.1875 
Q 21.1875 51.21875 25.484375 53.609375 
Q 29.78125 56 35.6875 56 
Q 41.65625 56 45.828125 52.96875 
Q 50 49.953125 52 44.1875 
z
" id="DejaVuSans-6d"/>
      <path d="M 56.203125 29.59375 
L 56.203125 25.203125 
L 14.890625 25.203125 
Q 15.484375 15.921875 20.484375 11.0625 
Q 25.484375 6.203125 34.421875 6.203125 
Q 39.59375 6.203125 44.453125 7.46875 
Q 49.3125 8.734375 54.109375 11.28125 
L 54.109375 2.78125 
Q 49.265625 0.734375 44.1875 -0.34375 
Q 39.109375 -1.421875 33.890625 -1.421875 
Q 20.796875 -1.421875 13.15625 6.1875 
Q 5.515625 13.8125 5.515625 26.8125 
Q 5.515625 40.234375 12.765625 48.109375 
Q 20.015625 56 32.328125 56 
Q 43.359375 56 49.78125 48.890625 
Q 56.203125 41.796875 56.203125 29.59375 
z
M 47.21875 32.234375 
Q 47.125 39.59375 43.09375 43.984375 
Q 39.0625 48.390625 32.421875 48.390625 
Q 24.90625 48.390625 20.390625 44.140625 
Q 15.875 39.890625 15.1875 32.171875 
z
" id="DejaVuSans-65"/>
      <path id="DejaVuSans-20"/>
      <path d="M 31 75.875 
Q 24.46875 64.65625 21.28125 53.65625 
Q 18.109375 42.671875 18.109375 31.390625 
Q 18.109375 20.125 21.3125 9.0625 
Q 24.515625 -2 31 -13.1875 
L 23.1875 -13.1875 
Q 15.875 -1.703125 12.234375 9.375 
Q 8.59375 20.453125 8.59375 31.390625 
Q 8.59375 42.28125 12.203125 53.3125 
Q 15.828125 64.359375 23.1875 75.875 
z
" id="DejaVuSans-28"/>
      <path d="M 44.28125 53.078125 
L 44.28125 44.578125 
Q 40.484375 46.53125 36.375 47.5 
Q 32.28125 48.484375 27.875 48.484375 
Q 21.1875 48.484375 17.84375 46.4375 
Q 14.5 44.390625 14.5 40.28125 
Q 14.5 37.15625 16.890625 35.375 
Q 19.28125 33.59375 26.515625 31.984375 
L 29.59375 31.296875 
Q 39.15625 29.25 43.1875 25.515625 
Q 47.21875 21.78125 47.21875 15.09375 
Q 47.21875 7.46875 41.1875 3.015625 
Q 35.15625 -1.421875 24.609375 -1.421875 
Q 20.21875 -1.421875 15.453125 -0.5625 
Q 10.6875 0.296875 5.421875 2 
L 5.421875 11.28125 
Q 10.40625 8.6875 15.234375 7.390625 
Q 20.0625 6.109375 24.8125 6.109375 
Q 31.15625 6.109375 34.5625 8.28125 
Q 37.984375 10.453125 37.984375 14.40625 
Q 37.984375 18.0625 35.515625 20.015625 
Q 33.0625 21.96875 24.703125 23.78125 
L 21.578125 24.515625 
Q 13.234375 26.265625 9.515625 29.90625 
Q 5.8125 33.546875 5.8125 39.890625 
Q 5.8125 47.609375 11.28125 51.796875 
Q 16.75 56 26.8125 56 
Q 31.78125 56 36.171875 55.265625 
Q 40.578125 54.546875 44.28125 53.078125 
z
" id="DejaVuSans-73"/>
      <path d="M 48.78125 52.59375 
L 48.78125 44.1875 
Q 44.96875 46.296875 41.140625 47.34375 
Q 37.3125 48.390625 33.40625 48.390625 
Q 24.65625 48.390625 19.8125 42.84375 
Q 14.984375 37.3125 14.984375 27.296875 
Q 14.984375 17.28125 19.8125 11.734375 
Q 24.65625 6.203125 33.40625 6.203125 
Q 37.3125 6.203125 41.140625 7.25 
Q 44.96875 8.296875 48.78125 10.40625 
L 48.78125 2.09375 
Q 45.015625 0.34375 40.984375 -0.53125 
Q 36.96875 -1.421875 32.421875 -1.421875 
Q 20.0625 -1.421875 12.78125 6.34375 
Q 5.515625 14.109375 5.515625 27.296875 
Q 5.515625 40.671875 12.859375 48.328125 
Q 20.21875 56 33.015625 56 
Q 37.15625 56 41.109375 55.140625 
Q 45.0625 54.296875 48.78125 52.59375 
z
" id="DejaVuSans-63"/>
      <path d="M 30.609375 48.390625 
Q 23.390625 48.390625 19.1875 42.75 
Q 14.984375 37.109375 14.984375 27.296875 
Q 14.984375 17.484375 19.15625 11.84375 
Q 23.34375 6.203125 30.609375 6.203125 
Q 37.796875 6.203125 41.984375 11.859375 
Q 46.1875 17.53125 46.1875 27.296875 
Q 46.1875 37.015625 41.984375 42.703125 
Q 37.796875 48.390625 30.609375 48.390625 
z
M 30.609375 56 
Q 42.328125 56 49.015625 48.375 
Q 55.71875 40.765625 55.71875 27.296875 
Q 55.71875 13.875 49.015625 6.21875 
Q 42.328125 -1.421875 30.609375 -1.421875 
Q 18.84375 -1.421875 12.171875 6.21875 
Q 5.515625 13.875 5.515625 27.296875 
Q 5.515625 40.765625 12.171875 48.375 
Q 18.84375 56 30.609375 56 
z
" id="DejaVuSans-6f"/>
      <path d="M 54.890625 33.015625 
L 54.890625 0 
L 45.90625 0 
L 45.90625 32.71875 
Q 45.90625 40.484375 42.875 44.328125 
Q 39.84375 48.1875 33.796875 48.1875 
Q 26.515625 48.1875 22.3125 43.546875 
Q 18.109375 38.921875 18.109375 30.90625 
L 18.109375 0 
L 9.078125 0 
L 9.078125 54.6875 
L 18.109375 54.6875 
L 18.109375 46.1875 
Q 21.34375 51.125 25.703125 53.5625 
Q 30.078125 56 35.796875 56 
Q 45.21875 56 50.046875 50.171875 
Q 54.890625 44.34375 54.890625 33.015625 
z
" id="DejaVuSans-6e"/>
      <path d="M 45.40625 46.390625 
L 45.40625 75.984375 
L 54.390625 75.984375 
L 54.390625 0 
L 45.40625 0 
L 45.40625 8.203125 
Q 42.578125 3.328125 38.25 0.953125 
Q 33.9375 -1.421875 27.875 -1.421875 
Q 17.96875 -1.421875 11.734375 6.484375 
Q 5.515625 14.40625 5.515625 27.296875 
Q 5.515625 40.1875 11.734375 48.09375 
Q 17.96875 56 27.875 56 
Q 33.9375 56 38.25 53.625 
Q 42.578125 51.265625 45.40625 46.390625 
z
M 14.796875 27.296875 
Q 14.796875 17.390625 18.875 11.75 
Q 22.953125 6.109375 30.078125 6.109375 
Q 37.203125 6.109375 41.296875 11.75 
Q 45.40625 17.390625 45.40625 27.296875 
Q 45.40625 37.203125 41.296875 42.84375 
Q 37.203125 48.484375 30.078125 48.484375 
Q 22.953125 48.484375 18.875 42.84375 
Q 14.796875 37.203125 14.796875 27.296875 
z
" id="DejaVuSans-64"/>
      <path d="M 8.015625 75.875 
L 15.828125 75.875 
Q 23.140625 64.359375 26.78125 53.3125 
Q 30.421875 42.28125 30.421875 31.390625 
Q 30.421875 20.453125 26.78125 9.375 
Q 23.140625 -1.703125 15.828125 -13.1875 
L 8.015625 -13.1875 
Q 14.5 -2 17.703125 9.0625 
Q 20.90625 20.125 20.90625 31.390625 
Q 20.90625 42.671875 17.703125 53.65625 
Q 14.5 64.65625 8.015625 75.875 
z
" id="DejaVuSans-29"/>
     </defs>
     <g style="fill:#262626;" transform="translate(220.707813 179.044152)scale(0.11 -0.11)">
      <use xlink:href="#DejaVuSans-54"/>
      <use x="61.037109" xlink:href="#DejaVuSans-69"/>
      <use x="88.820312" xlink:href="#DejaVuSans-6d"/>
      <use x="186.232422" xlink:href="#DejaVuSans-65"/>
      <use x="247.755859" xlink:href="#DejaVuSans-20"/>
      <use x="279.542969" xlink:href="#DejaVuSans-28"/>
      <use x="318.556641" xlink:href="#DejaVuSans-73"/>
      <use x="370.65625" xlink:href="#DejaVuSans-65"/>
      <use x="432.179688" xlink:href="#DejaVuSans-63"/>
      <use x="487.160156" xlink:href="#DejaVuSans-6f"/>
      <use x="548.341797" xlink:href="#DejaVuSans-6e"/>
      <use x="611.720703" xlink:href="#DejaVuSans-64"/>
      <use x="675.197266" xlink:href="#DejaVuSans-73"/>
      <use x="727.296875" xlink:href="#DejaVuSans-29"/>
     </g>
    </g>
   </g>
   <g id="matplotlib.axis_2">
    <g id="ytick_1">
     <g id="line2d_13">
      <path clip-path="url(#p0668243925)" d="M 77.87 148.865514 
L 447.84 148.865514 
" style="fill:none;stroke:#ffffff;stroke-linecap:round;"/>
     </g>
     <g id="line2d_14"/>
     <g id="text_8">
      <!-- −0.4 -->
      <defs>
       <path d="M 10.59375 35.5 
L 73.1875 35.5 
L 73.1875 27.203125 
L 10.59375 27.203125 
z
" id="DejaVuSans-2212"/>
       <path d="M 37.796875 64.3125 
L 12.890625 25.390625 
L 37.796875 25.390625 
z
M 35.203125 72.90625 
L 47.609375 72.90625 
L 47.609375 25.390625 
L 58.015625 25.390625 
L 58.015625 17.1875 
L 47.609375 17.1875 
L 47.609375 0 
L 37.796875 0 
L 37.796875 17.1875 
L 4.890625 17.1875 
L 4.890625 26.703125 
z
" id="DejaVuSans-34"/>
      </defs>
      <g style="fill:#262626;" transform="translate(46.587188 152.664733)scale(0.1 -0.1)">
       <use xlink:href="#DejaVuSans-2212"/>
       <use x="83.789062" xlink:href="#DejaVuSans-30"/>
       <use x="147.412109" xlink:href="#DejaVuSans-2e"/>
       <use x="179.199219" xlink:href="#DejaVuSans-34"/>
      </g>
     </g>
    </g>
    <g id="ytick_2">
     <g id="line2d_15">
      <path clip-path="url(#p0668243925)" d="M 77.87 123.461948 
L 447.84 123.461948 
" style="fill:none;stroke:#ffffff;stroke-linecap:round;"/>
     </g>
     <g id="line2d_16"/>
     <g id="text_9">
      <!-- −0.2 -->
      <g style="fill:#262626;" transform="translate(46.587188 127.261167)scale(0.1 -0.1)">
       <use xlink:href="#DejaVuSans-2212"/>
       <use x="83.789062" xlink:href="#DejaVuSans-30"/>
       <use x="147.412109" xlink:href="#DejaVuSans-2e"/>
       <use x="179.199219" xlink:href="#DejaVuSans-32"/>
      </g>
     </g>
    </g>
    <g id="ytick_3">
     <g id="line2d_17">
      <path clip-path="url(#p0668243925)" d="M 77.87 98.058381 
L 447.84 98.058381 
" style="fill:none;stroke:#ffffff;stroke-linecap:round;"/>
     </g>
     <g id="line2d_18"/>
     <g id="text_10">
      <!-- 0.0 -->
      <g style="fill:#262626;" transform="translate(54.966875 101.8576)scale(0.1 -0.1)">
       <use xlink:href="#DejaVuSans-30"/>
       <use x="63.623047" xlink:href="#DejaVuSans-2e"/>
       <use x="95.410156" xlink:href="#DejaVuSans-30"/>
      </g>
     </g>
    </g>
    <g id="ytick_4">
     <g id="line2d_19">
      <path clip-path="url(#p0668243925)" d="M 77.87 72.654814 
L 447.84 72.654814 
" style="fill:none;stroke:#ffffff;stroke-linecap:round;"/>
     </g>
     <g id="line2d_20"/>
     <g id="text_11">
      <!-- 0.2 -->
      <g style="fill:#262626;" transform="translate(54.966875 76.454033)scale(0.1 -0.1)">
       <use xlink:href="#DejaVuSans-30"/>
       <use x="63.623047" xlink:href="#DejaVuSans-2e"/>
       <use x="95.410156" xlink:href="#DejaVuSans-32"/>
      </g>
     </g>
    </g>
    <g id="ytick_5">
     <g id="line2d_21">
      <path clip-path="url(#p0668243925)" d="M 77.87 47.251248 
L 447.84 47.251248 
" style="fill:none;stroke:#ffffff;stroke-linecap:round;"/>
     </g>
     <g id="line2d_22"/>
     <g id="text_12">
      <!-- 0.4 -->
      <g style="fill:#262626;" transform="translate(54.966875 51.050467)scale(0.1 -0.1)">
       <use xlink:href="#DejaVuSans-30"/>
       <use x="63.623047" xlink:href="#DejaVuSans-2e"/>
       <use x="95.410156" xlink:href="#DejaVuSans-34"/>
      </g>
     </g>
    </g>
    <g id="text_13">
     <!-- Angular rate (degrees / s) -->
     <defs>
      <path d="M 34.1875 63.1875 
L 20.796875 26.90625 
L 47.609375 26.90625 
z
M 28.609375 72.90625 
L 39.796875 72.90625 
L 67.578125 0 
L 57.328125 0 
L 50.6875 18.703125 
L 17.828125 18.703125 
L 11.1875 0 
L 0.78125 0 
z
" id="DejaVuSans-41"/>
      <path d="M 45.40625 27.984375 
Q 45.40625 37.75 41.375 43.109375 
Q 37.359375 48.484375 30.078125 48.484375 
Q 22.859375 48.484375 18.828125 43.109375 
Q 14.796875 37.75 14.796875 27.984375 
Q 14.796875 18.265625 18.828125 12.890625 
Q 22.859375 7.515625 30.078125 7.515625 
Q 37.359375 7.515625 41.375 12.890625 
Q 45.40625 18.265625 45.40625 27.984375 
z
M 54.390625 6.78125 
Q 54.390625 -7.171875 48.1875 -13.984375 
Q 42 -20.796875 29.203125 -20.796875 
Q 24.46875 -20.796875 20.265625 -20.09375 
Q 16.0625 -19.390625 12.109375 -17.921875 
L 12.109375 -9.1875 
Q 16.0625 -11.328125 19.921875 -12.34375 
Q 23.78125 -13.375 27.78125 -13.375 
Q 36.625 -13.375 41.015625 -8.765625 
Q 45.40625 -4.15625 45.40625 5.171875 
L 45.40625 9.625 
Q 42.625 4.78125 38.28125 2.390625 
Q 33.9375 0 27.875 0 
Q 17.828125 0 11.671875 7.65625 
Q 5.515625 15.328125 5.515625 27.984375 
Q 5.515625 40.671875 11.671875 48.328125 
Q 17.828125 56 27.875 56 
Q 33.9375 56 38.28125 53.609375 
Q 42.625 51.21875 45.40625 46.390625 
L 45.40625 54.6875 
L 54.390625 54.6875 
z
" id="DejaVuSans-67"/>
      <path d="M 8.5 21.578125 
L 8.5 54.6875 
L 17.484375 54.6875 
L 17.484375 21.921875 
Q 17.484375 14.15625 20.5 10.265625 
Q 23.53125 6.390625 29.59375 6.390625 
Q 36.859375 6.390625 41.078125 11.03125 
Q 45.3125 15.671875 45.3125 23.6875 
L 45.3125 54.6875 
L 54.296875 54.6875 
L 54.296875 0 
L 45.3125 0 
L 45.3125 8.40625 
Q 42.046875 3.421875 37.71875 1 
Q 33.40625 -1.421875 27.6875 -1.421875 
Q 18.265625 -1.421875 13.375 4.4375 
Q 8.5 10.296875 8.5 21.578125 
z
M 31.109375 56 
z
" id="DejaVuSans-75"/>
      <path d="M 9.421875 75.984375 
L 18.40625 75.984375 
L 18.40625 0 
L 9.421875 0 
z
" id="DejaVuSans-6c"/>
      <path d="M 34.28125 27.484375 
Q 23.390625 27.484375 19.1875 25 
Q 14.984375 22.515625 14.984375 16.5 
Q 14.984375 11.71875 18.140625 8.90625 
Q 21.296875 6.109375 26.703125 6.109375 
Q 34.1875 6.109375 38.703125 11.40625 
Q 43.21875 16.703125 43.21875 25.484375 
L 43.21875 27.484375 
z
M 52.203125 31.203125 
L 52.203125 0 
L 43.21875 0 
L 43.21875 8.296875 
Q 40.140625 3.328125 35.546875 0.953125 
Q 30.953125 -1.421875 24.3125 -1.421875 
Q 15.921875 -1.421875 10.953125 3.296875 
Q 6 8.015625 6 15.921875 
Q 6 25.140625 12.171875 29.828125 
Q 18.359375 34.515625 30.609375 34.515625 
L 43.21875 34.515625 
L 43.21875 35.40625 
Q 43.21875 41.609375 39.140625 45 
Q 35.0625 48.390625 27.6875 48.390625 
Q 23 48.390625 18.546875 47.265625 
Q 14.109375 46.140625 10.015625 43.890625 
L 10.015625 52.203125 
Q 14.9375 54.109375 19.578125 55.046875 
Q 24.21875 56 28.609375 56 
Q 40.484375 56 46.34375 49.84375 
Q 52.203125 43.703125 52.203125 31.203125 
z
" id="DejaVuSans-61"/>
      <path d="M 41.109375 46.296875 
Q 39.59375 47.171875 37.8125 47.578125 
Q 36.03125 48 33.890625 48 
Q 26.265625 48 22.1875 43.046875 
Q 18.109375 38.09375 18.109375 28.8125 
L 18.109375 0 
L 9.078125 0 
L 9.078125 54.6875 
L 18.109375 54.6875 
L 18.109375 46.1875 
Q 20.953125 51.171875 25.484375 53.578125 
Q 30.03125 56 36.53125 56 
Q 37.453125 56 38.578125 55.875 
Q 39.703125 55.765625 41.0625 55.515625 
z
" id="DejaVuSans-72"/>
      <path d="M 18.3125 70.21875 
L 18.3125 54.6875 
L 36.8125 54.6875 
L 36.8125 47.703125 
L 18.3125 47.703125 
L 18.3125 18.015625 
Q 18.3125 11.328125 20.140625 9.421875 
Q 21.96875 7.515625 27.59375 7.515625 
L 36.8125 7.515625 
L 36.8125 0 
L 27.59375 0 
Q 17.1875 0 13.234375 3.875 
Q 9.28125 7.765625 9.28125 18.015625 
L 9.28125 47.703125 
L 2.6875 47.703125 
L 2.6875 54.6875 
L 9.28125 54.6875 
L 9.28125 70.21875 
z
" id="DejaVuSans-74"/>
      <path d="M 25.390625 72.90625 
L 33.6875 72.90625 
L 8.296875 -9.28125 
L 0 -9.28125 
z
" id="DejaVuSans-2f"/>
     </defs>
     <g style="fill:#262626;" transform="translate(40.299531 166.558389)rotate(-90)scale(0.11 -0.11)">
      <use xlink:href="#DejaVuSans-41"/>
      <use x="68.408203" xlink:href="#DejaVuSans-6e"/>
      <use x="131.787109" xlink:href="#DejaVuSans-67"/>
      <use x="195.263672" xlink:href="#DejaVuSans-75"/>
      <use x="258.642578" xlink:href="#DejaVuSans-6c"/>
      <use x="286.425781" xlink:href="#DejaVuSans-61"/>
      <use x="347.705078" xlink:href="#DejaVuSans-72"/>
      <use x="388.818359" xlink:href="#DejaVuSans-20"/>
      <use x="420.605469" xlink:href="#DejaVuSans-72"/>
      <use x="461.71875" xlink:href="#DejaVuSans-61"/>
      <use x="522.998047" xlink:href="#DejaVuSans-74"/>
      <use x="562.207031" xlink:href="#DejaVuSans-65"/>
      <use x="623.730469" xlink:href="#DejaVuSans-20"/>
      <use x="655.517578" xlink:href="#DejaVuSans-28"/>
      <use x="694.53125" xlink:href="#DejaVuSans-64"/>
      <use x="758.007812" xlink:href="#DejaVuSans-65"/>
      <use x="819.53125" xlink:href="#DejaVuSans-67"/>
      <use x="883.007812" xlink:href="#DejaVuSans-72"/>
      <use x="924.089844" xlink:href="#DejaVuSans-65"/>
      <use x="985.613281" xlink:href="#DejaVuSans-65"/>
      <use x="1047.136719" xlink:href="#DejaVuSans-73"/>
      <use x="1099.236328" xlink:href="#DejaVuSans-20"/>
      <use x="1131.023438" xlink:href="#DejaVuSans-2f"/>
      <use x="1164.714844" xlink:href="#DejaVuSans-20"/>
      <use x="1196.501953" xlink:href="#DejaVuSans-73"/>
      <use x="1248.601562" xlink:href="#DejaVuSans-29"/>
     </g>
    </g>
   </g>
   <g id="line2d_23">
    <path clip-path="url(#p0668243925)" d="M 77.87 116.090325 
L 78.126745 114.152187 
L 78.383491 126.750086 
L 78.640236 76.35849 
L 78.896981 91.863596 
L 79.153727 100.585219 
L 79.410472 119.966602 
L 79.923963 62.791522 
L 80.180708 116.090325 
L 80.437453 83.141974 
L 80.694198 114.152187 
L 80.950944 86.049181 
L 81.207689 80.234766 
L 81.464434 111.24498 
L 81.72118 106.399634 
L 81.977925 98.647081 
L 82.23467 122.87381 
L 82.491416 113.183118 
L 82.748161 86.049181 
L 83.004906 84.111043 
L 83.261652 103.492426 
L 83.518397 100.585219 
L 83.775142 69.575006 
L 84.031888 81.203836 
L 84.288633 110.275911 
L 84.545378 89.925458 
L 84.802124 87.018251 
L 85.058869 104.461496 
L 85.315614 80.234766 
L 85.572359 74.420352 
L 85.829105 94.770804 
L 86.08585 88.956389 
L 86.599341 106.399634 
L 86.856086 100.585219 
L 87.112831 78.296628 
L 87.369577 69.575006 
L 87.626322 103.492426 
L 87.883067 87.98732 
L 88.139813 119.966602 
L 88.396558 106.399634 
L 88.653303 108.337772 
L 88.910049 112.214049 
L 89.166794 114.152187 
L 89.423539 141.286124 
L 89.680285 88.956389 
L 89.93703 118.028464 
L 90.193775 96.708942 
L 90.45052 122.87381 
L 90.707266 68.605937 
L 90.964011 89.925458 
L 91.220756 146.13147 
L 91.477502 56.977107 
L 91.734247 118.028464 
L 91.990992 133.53357 
L 92.247738 126.750086 
L 92.504483 98.647081 
L 92.761228 87.018251 
L 93.274719 125.781017 
L 93.531464 74.420352 
L 93.78821 121.90474 
L 94.044955 102.523357 
L 94.3017 107.368703 
L 94.558446 109.306841 
L 94.815191 85.080112 
L 95.071936 99.61615 
L 95.328681 120.935671 
L 95.585427 93.801735 
L 96.098917 80.234766 
L 96.355663 136.440778 
L 96.869153 91.863596 
L 97.125899 85.080112 
L 97.382644 74.420352 
L 97.639389 94.770804 
L 97.896135 78.296628 
L 98.15288 96.708942 
L 98.409625 63.760591 
L 98.666371 118.028464 
L 98.923116 110.275911 
L 99.179861 95.739873 
L 99.436607 101.554288 
L 99.693352 88.956389 
L 99.950097 97.678011 
L 100.206842 85.080112 
L 100.463588 85.080112 
L 100.720333 126.750086 
L 100.977078 117.059395 
L 101.233824 83.141974 
L 101.490569 110.275911 
L 101.747314 117.059395 
L 102.00406 68.605937 
L 102.260805 94.770804 
L 102.51755 102.523357 
L 102.774296 106.399634 
L 103.031041 103.492426 
L 103.287786 88.956389 
L 103.544532 127.719155 
L 103.801277 113.183118 
L 104.058022 135.471709 
L 104.314768 92.832666 
L 104.571513 117.059395 
L 104.828258 109.306841 
L 105.085003 82.172905 
L 105.341749 105.430565 
L 105.598494 108.337772 
L 105.855239 118.997533 
L 106.111985 87.018251 
L 106.36873 118.028464 
L 106.625475 88.956389 
L 107.138966 128.688225 
L 107.395711 82.172905 
L 107.652457 108.337772 
L 107.909202 118.997533 
L 108.165947 87.98732 
L 108.422693 70.544075 
L 108.679438 95.739873 
L 108.936183 106.399634 
L 109.192929 94.770804 
L 109.449674 108.337772 
L 109.706419 81.203836 
L 110.21991 101.554288 
L 110.476655 103.492426 
L 110.7334 113.183118 
L 110.990146 80.234766 
L 111.246891 88.956389 
L 111.503636 125.781017 
L 111.760382 109.306841 
L 112.017127 138.378916 
L 112.273872 92.832666 
L 112.530618 72.482213 
L 112.787363 105.430565 
L 113.044108 77.327559 
L 113.300854 73.451282 
L 113.557599 101.554288 
L 113.814344 87.018251 
L 114.07109 100.585219 
L 114.327835 96.708942 
L 114.58458 105.430565 
L 114.841325 121.90474 
L 115.098071 104.461496 
L 115.354816 129.657294 
L 115.611561 89.925458 
L 115.868307 75.389421 
L 116.125052 99.61615 
L 116.381797 95.739873 
L 116.638543 96.708942 
L 116.895288 63.760591 
L 117.152033 90.894527 
L 117.408779 103.492426 
L 117.665524 81.203836 
L 117.922269 88.956389 
L 118.179015 119.966602 
L 118.43576 94.770804 
L 118.692505 81.203836 
L 118.949251 110.275911 
L 119.205996 100.585219 
L 119.462741 106.399634 
L 119.719486 108.337772 
L 119.976232 90.894527 
L 120.232977 91.863596 
L 120.489722 71.513144 
L 120.746468 63.760591 
L 121.003213 93.801735 
L 121.259958 103.492426 
L 121.516704 84.111043 
L 121.773449 118.028464 
L 122.030194 101.554288 
L 122.28694 95.739873 
L 122.543685 100.585219 
L 122.80043 99.61615 
L 123.057176 105.430565 
L 123.313921 81.203836 
L 123.570666 91.863596 
L 123.827412 113.183118 
L 124.084157 84.111043 
L 124.340902 89.925458 
L 124.597647 109.306841 
L 124.854393 62.791522 
L 125.111138 105.430565 
L 125.367883 118.028464 
L 125.624629 73.451282 
L 125.881374 116.090325 
L 126.138119 117.059395 
L 126.394865 84.111043 
L 126.65161 106.399634 
L 126.908355 75.389421 
L 127.165101 99.61615 
L 127.421846 75.389421 
L 127.678591 86.049181 
L 127.935337 113.183118 
L 128.192082 102.523357 
L 128.448827 84.111043 
L 128.962318 111.24498 
L 129.219063 102.523357 
L 129.475808 79.265697 
L 129.732554 98.647081 
L 129.989299 64.72966 
L 130.246044 125.781017 
L 130.50279 95.739873 
L 130.759535 95.739873 
L 131.01628 91.863596 
L 131.273026 97.678011 
L 131.529771 117.059395 
L 131.786516 104.461496 
L 132.043262 105.430565 
L 132.300007 103.492426 
L 132.556752 100.585219 
L 132.813498 100.585219 
L 133.070243 94.770804 
L 133.326988 79.265697 
L 133.583734 122.87381 
L 133.840479 123.842879 
L 134.353969 102.523357 
L 134.610715 108.337772 
L 134.86746 111.24498 
L 135.124205 62.791522 
L 135.380951 65.698729 
L 135.637696 85.080112 
L 135.894441 120.935671 
L 136.151187 124.811948 
L 136.407932 97.678011 
L 136.664677 89.925458 
L 136.921423 96.708942 
L 137.178168 90.894527 
L 137.434913 102.523357 
L 137.691659 101.554288 
L 137.948404 95.739873 
L 138.205149 103.492426 
L 138.71864 98.647081 
L 138.975385 91.863596 
L 139.23213 129.657294 
L 139.488876 101.554288 
L 139.745621 94.770804 
L 140.002366 58.915245 
L 140.259112 106.399634 
L 140.515857 99.61615 
L 140.772602 97.678011 
L 141.029348 98.647081 
L 141.286093 98.647081 
L 141.542838 78.296628 
L 141.799584 90.894527 
L 142.056329 84.111043 
L 142.313074 98.647081 
L 142.56982 120.935671 
L 142.826565 59.884314 
L 143.08331 70.544075 
L 143.340056 101.554288 
L 143.596801 106.399634 
L 144.367037 87.018251 
L 144.623782 107.368703 
L 144.880527 112.214049 
L 145.137273 106.399634 
L 145.394018 77.327559 
L 145.650763 99.61615 
L 145.907509 82.172905 
L 146.420999 75.389421 
L 146.677745 135.471709 
L 146.93449 69.575006 
L 147.191235 41.472 
L 147.447981 102.523357 
L 147.704726 100.585219 
L 147.961471 81.203836 
L 148.474962 88.956389 
L 148.731707 110.275911 
L 148.988452 92.832666 
L 149.245198 87.98732 
L 149.501943 107.368703 
L 149.758688 103.492426 
L 150.015434 66.667798 
L 150.272179 63.760591 
L 150.528924 98.647081 
L 151.042415 115.121256 
L 151.29916 116.090325 
L 151.555906 116.090325 
L 151.812651 77.327559 
L 152.069396 87.98732 
L 152.326142 112.214049 
L 152.582887 104.461496 
L 152.839632 126.750086 
L 153.096378 98.647081 
L 153.353123 95.739873 
L 153.609868 79.265697 
L 153.866613 104.461496 
L 154.123359 87.98732 
L 154.380104 133.53357 
L 154.636849 59.884314 
L 154.893595 113.183118 
L 155.15034 130.626363 
L 155.407085 90.894527 
L 155.663831 71.513144 
L 155.920576 87.98732 
L 156.177321 118.028464 
L 156.434067 92.832666 
L 156.690812 87.018251 
L 156.947557 89.925458 
L 157.461048 105.430565 
L 157.717793 108.337772 
L 157.974539 85.080112 
L 158.231284 73.451282 
L 158.488029 138.378916 
L 159.00152 95.739873 
L 159.258265 98.647081 
L 159.51501 104.461496 
L 159.771756 104.461496 
L 160.028501 90.894527 
L 160.285246 110.275911 
L 160.541992 112.214049 
L 160.798737 116.090325 
L 161.055482 123.842879 
L 161.312228 122.87381 
L 161.568973 70.544075 
L 161.825718 111.24498 
L 162.082464 83.141974 
L 162.339209 72.482213 
L 162.595954 85.080112 
L 162.8527 77.327559 
L 163.109445 83.141974 
L 163.36619 105.430565 
L 163.622935 54.069899 
L 163.879681 84.111043 
L 164.136426 85.080112 
L 164.393171 144.193331 
L 164.649917 80.234766 
L 165.163407 124.811948 
L 165.420153 96.708942 
L 165.933643 115.121256 
L 166.190389 106.399634 
L 166.447134 113.183118 
L 166.703879 98.647081 
L 166.960625 68.605937 
L 167.21737 58.915245 
L 167.474115 101.554288 
L 167.730861 101.554288 
L 167.987606 110.275911 
L 168.244351 84.111043 
L 168.757842 71.513144 
L 169.271332 112.214049 
L 169.784823 78.296628 
L 170.298314 94.770804 
L 170.555059 130.626363 
L 170.811804 70.544075 
L 171.06855 109.306841 
L 171.58204 87.98732 
L 171.838786 86.049181 
L 172.095531 136.440778 
L 172.352276 112.214049 
L 172.609022 111.24498 
L 172.865767 114.152187 
L 173.122512 79.265697 
L 173.379257 104.461496 
L 173.636003 105.430565 
L 174.149493 75.389421 
L 174.662984 115.121256 
L 174.919729 63.760591 
L 175.176475 61.822452 
L 175.43322 103.492426 
L 175.689965 110.275911 
L 175.946711 104.461496 
L 176.203456 104.461496 
L 176.460201 85.080112 
L 176.716947 76.35849 
L 176.973692 104.461496 
L 177.230437 109.306841 
L 177.487183 100.585219 
L 177.743928 87.018251 
L 178.000673 91.863596 
L 178.257418 93.801735 
L 178.514164 93.801735 
L 178.770909 112.214049 
L 179.027654 74.420352 
L 179.2844 87.018251 
L 179.541145 90.894527 
L 179.79789 87.98732 
L 180.054636 99.61615 
L 180.311381 126.750086 
L 180.568126 70.544075 
L 181.081617 92.832666 
L 181.338362 111.24498 
L 181.595108 80.234766 
L 181.851853 115.121256 
L 182.108598 75.389421 
L 182.365344 65.698729 
L 183.135579 124.811948 
L 183.392325 81.203836 
L 183.64907 91.863596 
L 183.905815 90.894527 
L 184.162561 119.966602 
L 184.419306 118.997533 
L 184.676051 95.739873 
L 184.932797 88.956389 
L 185.189542 113.183118 
L 185.446287 102.523357 
L 185.703033 110.275911 
L 186.216523 77.327559 
L 186.473269 88.956389 
L 186.730014 120.935671 
L 186.986759 106.399634 
L 187.243505 101.554288 
L 187.756995 78.296628 
L 188.01374 94.770804 
L 188.270486 68.605937 
L 188.527231 96.708942 
L 188.783976 86.049181 
L 189.040722 99.61615 
L 189.297467 98.647081 
L 189.554212 98.647081 
L 189.810958 96.708942 
L 190.067703 85.080112 
L 190.324448 90.894527 
L 190.581194 104.461496 
L 190.837939 81.203836 
L 191.094684 93.801735 
L 191.35143 96.708942 
L 191.608175 87.018251 
L 191.86492 106.399634 
L 192.121666 95.739873 
L 192.378411 72.482213 
L 192.891901 111.24498 
L 193.148647 91.863596 
L 193.405392 110.275911 
L 193.662137 78.296628 
L 193.918883 94.770804 
L 194.175628 63.760591 
L 194.432373 82.172905 
L 194.689119 125.781017 
L 194.945864 94.770804 
L 195.202609 101.554288 
L 195.459355 114.152187 
L 196.229591 73.451282 
L 196.486336 106.399634 
L 196.743081 111.24498 
L 196.999827 90.894527 
L 197.256572 81.203836 
L 197.513317 87.018251 
L 197.770062 103.492426 
L 198.026808 102.523357 
L 198.283553 92.832666 
L 198.540298 105.430565 
L 198.797044 77.327559 
L 199.053789 111.24498 
L 199.310534 97.678011 
L 199.56728 107.368703 
L 199.824025 92.832666 
L 200.08077 112.214049 
L 200.337516 80.234766 
L 200.594261 108.337772 
L 200.851006 112.214049 
L 201.107752 78.296628 
L 201.364497 83.141974 
L 201.621242 90.894527 
L 202.134733 111.24498 
L 202.391478 82.172905 
L 202.648223 87.98732 
L 202.904969 82.172905 
L 203.161714 138.378916 
L 203.418459 116.090325 
L 203.675205 74.420352 
L 204.445441 110.275911 
L 204.958931 80.234766 
L 205.215677 111.24498 
L 205.472422 109.306841 
L 205.729167 90.894527 
L 205.985913 91.863596 
L 206.242658 84.111043 
L 206.499403 72.482213 
L 206.756149 116.090325 
L 207.012894 85.080112 
L 207.269639 100.585219 
L 207.526384 90.894527 
L 207.78313 89.925458 
L 208.039875 84.111043 
L 208.29662 85.080112 
L 208.553366 118.028464 
L 208.810111 105.430565 
L 209.066856 99.61615 
L 209.323602 85.080112 
L 209.580347 102.523357 
L 209.837092 98.647081 
L 210.093838 86.049181 
L 210.350583 95.739873 
L 210.607328 110.275911 
L 210.864074 93.801735 
L 211.120819 107.368703 
L 211.377564 84.111043 
L 211.63431 100.585219 
L 211.891055 107.368703 
L 212.1478 107.368703 
L 212.404545 85.080112 
L 212.661291 83.141974 
L 212.918036 150.007746 
L 213.431527 82.172905 
L 213.688272 87.018251 
L 213.945017 141.286124 
L 214.201763 78.296628 
L 214.458508 99.61615 
L 214.715253 102.523357 
L 214.971999 97.678011 
L 215.228744 99.61615 
L 215.485489 72.482213 
L 215.742235 88.956389 
L 215.99898 90.894527 
L 216.255725 82.172905 
L 216.512471 100.585219 
L 216.769216 95.739873 
L 217.025961 100.585219 
L 217.282706 85.080112 
L 217.539452 118.028464 
L 217.796197 102.523357 
L 218.052942 68.605937 
L 218.309688 104.461496 
L 218.566433 115.121256 
L 218.823178 89.925458 
L 219.079924 114.152187 
L 219.336669 99.61615 
L 219.593414 117.059395 
L 219.85016 76.35849 
L 220.106905 127.719155 
L 220.36365 84.111043 
L 220.620396 117.059395 
L 221.133886 80.234766 
L 221.390632 114.152187 
L 222.160867 87.98732 
L 222.417613 100.585219 
L 222.674358 126.750086 
L 223.187849 75.389421 
L 223.444594 128.688225 
L 223.701339 92.832666 
L 223.958085 104.461496 
L 224.21483 124.811948 
L 224.471575 108.337772 
L 224.728321 135.471709 
L 224.985066 48.255484 
L 225.241811 83.141974 
L 225.498557 83.141974 
L 225.755302 118.028464 
L 226.012047 85.080112 
L 226.268793 101.554288 
L 226.525538 87.98732 
L 226.782283 89.925458 
L 227.039028 82.172905 
L 227.295774 108.337772 
L 227.552519 92.832666 
L 227.809264 84.111043 
L 228.06601 114.152187 
L 228.322755 101.554288 
L 228.5795 106.399634 
L 228.836246 100.585219 
L 229.092991 120.935671 
L 229.349736 110.275911 
L 229.606482 69.575006 
L 229.863227 54.069899 
L 230.119972 119.966602 
L 230.376718 119.966602 
L 230.633463 123.842879 
L 231.146954 84.111043 
L 231.403699 93.801735 
L 231.660444 94.770804 
L 231.917189 83.141974 
L 232.173935 108.337772 
L 232.43068 90.894527 
L 232.687425 126.750086 
L 232.944171 103.492426 
L 233.200916 129.657294 
L 233.457661 61.822452 
L 233.714407 79.265697 
L 233.971152 147.100539 
L 234.227897 79.265697 
L 234.484643 110.275911 
L 234.741388 99.61615 
L 234.998133 98.647081 
L 235.254879 96.708942 
L 235.511624 107.368703 
L 235.768369 80.234766 
L 236.025115 95.739873 
L 236.28186 89.925458 
L 236.538605 121.90474 
L 236.79535 92.832666 
L 237.052096 123.842879 
L 237.308841 80.234766 
L 237.565586 71.513144 
L 237.822332 113.183118 
L 238.079077 100.585219 
L 238.335822 98.647081 
L 238.592568 89.925458 
L 238.849313 102.523357 
L 239.106058 97.678011 
L 239.362804 83.141974 
L 239.619549 114.152187 
L 239.876294 96.708942 
L 240.13304 97.678011 
L 240.389785 100.585219 
L 240.64653 106.399634 
L 240.903276 117.059395 
L 241.160021 81.203836 
L 241.416766 93.801735 
L 241.673511 83.141974 
L 241.930257 77.327559 
L 242.187002 134.50264 
L 242.443747 95.739873 
L 242.700493 112.214049 
L 242.957238 86.049181 
L 243.213983 99.61615 
L 243.470729 92.832666 
L 243.727474 130.626363 
L 243.984219 96.708942 
L 244.49771 123.842879 
L 245.011201 150.007746 
L 245.267946 97.678011 
L 245.524691 89.925458 
L 245.781437 124.811948 
L 246.038182 52.131761 
L 246.551672 125.781017 
L 246.808418 55.038968 
L 247.321908 113.183118 
L 247.578654 76.35849 
L 247.835399 114.152187 
L 248.092144 83.141974 
L 248.34889 105.430565 
L 248.605635 108.337772 
L 248.86238 74.420352 
L 249.119126 105.430565 
L 249.375871 87.018251 
L 249.632616 98.647081 
L 249.889362 101.554288 
L 250.146107 82.172905 
L 250.402852 79.265697 
L 250.659598 128.688225 
L 250.916343 93.801735 
L 251.173088 114.152187 
L 251.686579 82.172905 
L 251.943324 96.708942 
L 252.200069 78.296628 
L 252.456815 71.513144 
L 252.71356 100.585219 
L 252.970305 109.306841 
L 253.227051 105.430565 
L 253.483796 72.482213 
L 253.740541 84.111043 
L 253.997287 69.575006 
L 254.254032 124.811948 
L 254.510777 93.801735 
L 254.767523 92.832666 
L 255.024268 100.585219 
L 255.281013 84.111043 
L 255.537759 97.678011 
L 255.794504 95.739873 
L 256.051249 102.523357 
L 256.307994 101.554288 
L 256.56474 109.306841 
L 256.821485 76.35849 
L 257.07823 117.059395 
L 257.591721 67.636867 
L 257.848466 116.090325 
L 258.105212 103.492426 
L 258.361957 56.008037 
L 258.618702 70.544075 
L 258.875448 118.028464 
L 259.132193 104.461496 
L 259.388938 117.059395 
L 259.645684 118.028464 
L 259.902429 84.111043 
L 260.159174 104.461496 
L 260.672665 78.296628 
L 261.186155 132.564501 
L 261.442901 59.884314 
L 261.956391 116.090325 
L 262.213137 89.925458 
L 262.469882 98.647081 
L 262.726627 101.554288 
L 263.240118 89.925458 
L 263.496863 102.523357 
L 263.753609 94.770804 
L 264.010354 94.770804 
L 264.267099 116.090325 
L 264.523845 84.111043 
L 264.78059 90.894527 
L 265.037335 106.399634 
L 265.29408 99.61615 
L 265.550826 106.399634 
L 265.807571 76.35849 
L 266.064316 63.760591 
L 266.321062 109.306841 
L 266.577807 109.306841 
L 266.834552 57.946176 
L 267.091298 102.523357 
L 267.348043 75.389421 
L 267.604788 87.98732 
L 267.861534 128.688225 
L 268.375024 75.389421 
L 268.63177 134.50264 
L 268.888515 110.275911 
L 269.14526 110.275911 
L 269.658751 69.575006 
L 269.915496 103.492426 
L 270.172241 83.141974 
L 270.685732 102.523357 
L 270.942477 77.327559 
L 271.199223 105.430565 
L 271.455968 69.575006 
L 271.712713 106.399634 
L 271.969459 100.585219 
L 272.226204 73.451282 
L 272.482949 110.275911 
L 272.99644 67.636867 
L 273.253185 103.492426 
L 273.509931 119.966602 
L 273.766676 76.35849 
L 274.023421 116.090325 
L 274.280167 109.306841 
L 274.536912 87.98732 
L 274.793657 98.647081 
L 275.050402 87.018251 
L 275.307148 99.61615 
L 275.563893 90.894527 
L 275.820638 115.121256 
L 276.077384 76.35849 
L 276.334129 107.368703 
L 276.590874 108.337772 
L 276.84762 90.894527 
L 277.104365 84.111043 
L 277.36111 72.482213 
L 277.617856 93.801735 
L 277.874601 71.513144 
L 278.131346 83.141974 
L 278.388092 107.368703 
L 278.644837 96.708942 
L 278.901582 105.430565 
L 279.158328 97.678011 
L 279.415073 106.399634 
L 279.671818 83.141974 
L 280.185309 119.966602 
L 280.442054 99.61615 
L 280.698799 106.399634 
L 280.955545 102.523357 
L 281.21229 79.265697 
L 281.469035 106.399634 
L 281.725781 81.203836 
L 281.982526 120.935671 
L 282.239271 131.595432 
L 282.496017 116.090325 
L 282.752762 71.513144 
L 283.009507 111.24498 
L 283.522998 91.863596 
L 283.779743 96.708942 
L 284.036489 107.368703 
L 284.293234 95.739873 
L 284.549979 90.894527 
L 284.806724 112.214049 
L 285.06347 101.554288 
L 285.320215 111.24498 
L 285.57696 68.605937 
L 285.833706 78.296628 
L 286.090451 83.141974 
L 286.347196 104.461496 
L 286.603942 107.368703 
L 286.860687 72.482213 
L 287.117432 124.811948 
L 287.374178 100.585219 
L 287.630923 91.863596 
L 288.144414 109.306841 
L 288.401159 85.080112 
L 288.657904 88.956389 
L 288.91465 118.028464 
L 289.171395 98.647081 
L 289.42814 111.24498 
L 289.684885 91.863596 
L 289.941631 95.739873 
L 290.198376 109.306841 
L 290.455121 109.306841 
L 290.711867 64.72966 
L 290.968612 107.368703 
L 291.225357 108.337772 
L 291.482103 61.822452 
L 291.738848 121.90474 
L 291.995593 110.275911 
L 292.252339 115.121256 
L 292.509084 75.389421 
L 292.765829 99.61615 
L 293.022575 88.956389 
L 293.792811 109.306841 
L 294.049556 101.554288 
L 294.563046 122.87381 
L 294.819792 101.554288 
L 295.333282 86.049181 
L 295.846773 112.214049 
L 296.103518 83.141974 
L 296.360264 111.24498 
L 296.617009 68.605937 
L 296.873754 126.750086 
L 297.1305 99.61615 
L 297.64399 118.997533 
L 297.900736 82.172905 
L 298.157481 99.61615 
L 298.414226 135.471709 
L 298.670972 69.575006 
L 298.927717 82.172905 
L 299.184462 76.35849 
L 299.441207 122.87381 
L 299.697953 84.111043 
L 299.954698 76.35849 
L 300.211443 82.172905 
L 300.468189 93.801735 
L 300.724934 94.770804 
L 300.981679 121.90474 
L 301.238425 82.172905 
L 301.751915 115.121256 
L 302.008661 79.265697 
L 302.265406 111.24498 
L 302.522151 97.678011 
L 302.778897 98.647081 
L 303.035642 119.966602 
L 303.292387 100.585219 
L 303.549133 125.781017 
L 303.805878 119.966602 
L 304.062623 91.863596 
L 304.319368 96.708942 
L 304.576114 80.234766 
L 304.832859 95.739873 
L 305.089604 95.739873 
L 305.34635 78.296628 
L 305.603095 118.028464 
L 305.85984 102.523357 
L 306.116586 78.296628 
L 306.373331 87.018251 
L 306.630076 136.440778 
L 306.886822 81.203836 
L 307.143567 87.018251 
L 307.400312 104.461496 
L 307.657058 102.523357 
L 307.913803 107.368703 
L 308.170548 98.647081 
L 308.427294 102.523357 
L 308.940784 62.791522 
L 309.454275 101.554288 
L 309.71102 109.306841 
L 309.967765 83.141974 
L 310.224511 110.275911 
L 310.481256 104.461496 
L 310.738001 87.98732 
L 310.994747 90.894527 
L 311.251492 91.863596 
L 311.508237 96.708942 
L 311.764983 87.018251 
L 312.278473 113.183118 
L 312.535219 99.61615 
L 312.791964 125.781017 
L 313.048709 102.523357 
L 313.305455 113.183118 
L 313.5622 90.894527 
L 313.818945 124.811948 
L 314.332436 65.698729 
L 314.589181 115.121256 
L 314.845926 94.770804 
L 315.102672 110.275911 
L 315.359417 109.306841 
L 315.616162 79.265697 
L 315.872908 79.265697 
L 316.129653 80.234766 
L 316.643144 112.214049 
L 317.156634 97.678011 
L 317.41338 131.595432 
L 317.670125 104.461496 
L 317.92687 118.028464 
L 318.183616 116.090325 
L 318.440361 109.306841 
L 318.697106 88.956389 
L 318.953851 87.98732 
L 319.210597 75.389421 
L 319.467342 70.544075 
L 319.724087 104.461496 
L 319.980833 93.801735 
L 320.237578 123.842879 
L 320.494323 91.863596 
L 320.751069 84.111043 
L 321.007814 107.368703 
L 321.264559 84.111043 
L 321.521305 87.018251 
L 321.77805 87.98732 
L 322.034795 135.471709 
L 322.291541 134.50264 
L 322.805031 87.018251 
L 323.318522 121.90474 
L 323.575267 102.523357 
L 323.832012 91.863596 
L 324.088758 100.585219 
L 324.345503 119.966602 
L 324.602248 90.894527 
L 324.858994 90.894527 
L 325.115739 96.708942 
L 325.372484 105.430565 
L 325.62923 96.708942 
L 325.885975 123.842879 
L 326.14272 86.049181 
L 326.399466 73.451282 
L 326.912956 118.997533 
L 327.169702 77.327559 
L 327.426447 114.152187 
L 327.683192 74.420352 
L 327.939938 69.575006 
L 328.196683 73.451282 
L 328.453428 75.389421 
L 328.710173 87.98732 
L 328.966919 82.172905 
L 329.223664 120.935671 
L 329.737155 108.337772 
L 329.9939 115.121256 
L 330.507391 99.61615 
L 330.764136 85.080112 
L 331.020881 88.956389 
L 331.277627 120.935671 
L 331.534372 114.152187 
L 331.791117 73.451282 
L 332.047863 118.997533 
L 332.304608 94.770804 
L 332.561353 98.647081 
L 332.818099 108.337772 
L 333.074844 80.234766 
L 333.331589 118.028464 
L 333.588334 123.842879 
L 333.84508 89.925458 
L 334.101825 83.141974 
L 334.35857 109.306841 
L 334.872061 70.544075 
L 335.128806 99.61615 
L 335.385552 76.35849 
L 335.642297 118.028464 
L 335.899042 81.203836 
L 336.155788 106.399634 
L 336.412533 97.678011 
L 336.669278 61.822452 
L 336.926024 98.647081 
L 337.182769 72.482213 
L 337.439514 112.214049 
L 337.69626 110.275911 
L 337.953005 87.018251 
L 338.20975 99.61615 
L 338.466495 79.265697 
L 338.723241 96.708942 
L 338.979986 95.739873 
L 339.236731 84.111043 
L 339.493477 91.863596 
L 339.750222 92.832666 
L 340.006967 89.925458 
L 340.263713 90.894527 
L 340.520458 100.585219 
L 340.777203 96.708942 
L 341.033949 90.894527 
L 341.290694 116.090325 
L 341.547439 114.152187 
L 341.804185 109.306841 
L 342.06093 91.863596 
L 342.317675 102.523357 
L 342.574421 91.863596 
L 342.831166 128.688225 
L 343.344656 75.389421 
L 343.601402 123.842879 
L 343.858147 85.080112 
L 344.114892 72.482213 
L 344.371638 125.781017 
L 344.628383 89.925458 
L 344.885128 71.513144 
L 345.141874 115.121256 
L 345.655364 84.111043 
L 345.91211 81.203836 
L 346.168855 83.141974 
L 346.4256 99.61615 
L 346.682346 107.368703 
L 346.939091 145.1624 
L 347.195836 105.430565 
L 347.452582 91.863596 
L 347.709327 106.399634 
L 347.966072 54.069899 
L 348.222817 68.605937 
L 348.479563 103.492426 
L 348.736308 95.739873 
L 348.993053 116.090325 
L 349.249799 108.337772 
L 349.506544 89.925458 
L 349.763289 95.739873 
L 350.020035 97.678011 
L 350.27678 105.430565 
L 350.533525 97.678011 
L 350.790271 85.080112 
L 351.047016 99.61615 
L 351.303761 105.430565 
L 351.560507 100.585219 
L 351.817252 119.966602 
L 352.073997 85.080112 
L 352.330743 85.080112 
L 352.587488 117.059395 
L 352.844233 111.24498 
L 353.100978 109.306841 
L 353.357724 88.956389 
L 353.614469 92.832666 
L 353.871214 116.090325 
L 354.12796 89.925458 
L 354.384705 82.172905 
L 354.64145 103.492426 
L 354.898196 60.853383 
L 355.154941 94.770804 
L 355.411686 103.492426 
L 355.668432 69.575006 
L 355.925177 120.935671 
L 356.181922 79.265697 
L 356.438668 83.141974 
L 356.695413 118.028464 
L 356.952158 128.688225 
L 357.208904 88.956389 
L 357.465649 106.399634 
L 357.722394 110.275911 
L 357.979139 94.770804 
L 358.235885 129.657294 
L 358.49263 90.894527 
L 358.749375 90.894527 
L 359.006121 93.801735 
L 359.262866 63.760591 
L 359.776357 105.430565 
L 360.033102 100.585219 
L 360.546593 83.141974 
L 360.803338 100.585219 
L 361.060083 72.482213 
L 361.316829 89.925458 
L 361.573574 122.87381 
L 361.830319 89.925458 
L 362.087065 127.719155 
L 362.34381 101.554288 
L 362.600555 100.585219 
L 362.8573 126.750086 
L 363.114046 105.430565 
L 363.370791 102.523357 
L 363.627536 92.832666 
L 363.884282 99.61615 
L 364.141027 92.832666 
L 364.397772 80.234766 
L 364.654518 84.111043 
L 364.911263 111.24498 
L 365.168008 105.430565 
L 365.424754 118.997533 
L 365.681499 114.152187 
L 365.938244 104.461496 
L 366.19499 123.842879 
L 366.451735 113.183118 
L 366.70848 68.605937 
L 366.965226 103.492426 
L 367.221971 95.739873 
L 367.478716 112.214049 
L 367.735461 95.739873 
L 367.992207 117.059395 
L 368.248952 71.513144 
L 368.505697 79.265697 
L 369.019188 133.53357 
L 369.532679 80.234766 
L 369.789424 81.203836 
L 370.046169 110.275911 
L 370.302915 97.678011 
L 370.55966 118.028464 
L 370.816405 91.863596 
L 371.073151 82.172905 
L 371.329896 100.585219 
L 371.586641 87.018251 
L 372.356877 117.059395 
L 372.613622 102.523357 
L 372.870368 104.461496 
L 373.127113 86.049181 
L 373.383858 95.739873 
L 373.640604 112.214049 
L 373.897349 94.770804 
L 374.154094 98.647081 
L 374.41084 126.750086 
L 374.667585 106.399634 
L 374.92433 105.430565 
L 375.437821 73.451282 
L 375.694566 96.708942 
L 375.951312 103.492426 
L 376.208057 93.801735 
L 376.464802 107.368703 
L 376.721548 87.98732 
L 376.978293 97.678011 
L 377.491783 70.544075 
L 377.748529 104.461496 
L 378.005274 85.080112 
L 378.262019 95.739873 
L 378.518765 92.832666 
L 378.77551 108.337772 
L 379.289001 90.894527 
L 379.545746 69.575006 
L 380.059237 109.306841 
L 380.315982 123.842879 
L 380.572727 125.781017 
L 380.829473 112.214049 
L 381.086218 131.595432 
L 381.342963 90.894527 
L 381.599709 106.399634 
L 381.856454 90.894527 
L 382.113199 113.183118 
L 382.369944 100.585219 
L 382.62669 117.059395 
L 382.883435 105.430565 
L 383.14018 79.265697 
L 383.396926 93.801735 
L 383.653671 99.61615 
L 383.910416 98.647081 
L 384.167162 70.544075 
L 384.680652 108.337772 
L 384.937398 115.121256 
L 385.194143 113.183118 
L 385.450888 138.378916 
L 385.707634 104.461496 
L 385.964379 109.306841 
L 386.221124 122.87381 
L 386.47787 84.111043 
L 386.734615 123.842879 
L 387.248105 92.832666 
L 387.504851 81.203836 
L 387.761596 85.080112 
L 388.018341 98.647081 
L 388.275087 85.080112 
L 388.531832 101.554288 
L 388.788577 125.781017 
L 389.302068 70.544075 
L 389.558813 113.183118 
L 389.815559 81.203836 
L 390.072304 116.090325 
L 390.329049 105.430565 
L 390.585795 117.059395 
L 390.84254 103.492426 
L 391.099285 114.152187 
L 391.356031 71.513144 
L 391.612776 100.585219 
L 391.869521 97.678011 
L 392.126266 91.863596 
L 392.383012 97.678011 
L 392.639757 90.894527 
L 392.896502 77.327559 
L 393.153248 77.327559 
L 393.409993 90.894527 
L 394.180229 114.152187 
L 394.436974 87.018251 
L 394.69372 84.111043 
L 394.950465 86.049181 
L 395.20721 88.956389 
L 395.463956 86.049181 
L 395.720701 104.461496 
L 395.977446 47.286415 
L 396.234192 105.430565 
L 396.490937 116.090325 
L 396.747682 106.399634 
L 397.004427 122.87381 
L 397.261173 63.760591 
L 397.517918 65.698729 
L 397.774663 113.183118 
L 398.031409 65.698729 
L 398.288154 93.801735 
L 398.544899 90.894527 
L 398.801645 97.678011 
L 399.571881 138.378916 
L 399.828626 122.87381 
L 400.085371 73.451282 
L 400.342117 96.708942 
L 400.598862 89.925458 
L 400.855607 96.708942 
L 401.112353 119.966602 
L 401.369098 93.801735 
L 401.625843 102.523357 
L 401.882588 74.420352 
L 402.139334 91.863596 
L 402.396079 90.894527 
L 402.652824 128.688225 
L 403.166315 111.24498 
L 403.42306 132.564501 
L 403.679806 96.708942 
L 403.936551 101.554288 
L 404.193296 60.853383 
L 404.450042 113.183118 
L 404.706787 116.090325 
L 404.963532 64.72966 
L 405.220278 95.739873 
L 405.477023 87.018251 
L 405.733768 96.708942 
L 405.990514 100.585219 
L 406.504004 98.647081 
L 406.760749 133.53357 
L 407.017495 77.327559 
L 407.27424 118.997533 
L 407.530985 120.935671 
L 407.787731 108.337772 
L 408.044476 103.492426 
L 408.301221 92.832666 
L 408.557967 98.647081 
L 408.814712 114.152187 
L 409.071457 90.894527 
L 409.328203 102.523357 
L 409.584948 119.966602 
L 409.841693 112.214049 
L 410.355184 89.925458 
L 410.611929 64.72966 
L 410.868675 120.935671 
L 411.12542 130.626363 
L 411.382165 87.018251 
L 411.63891 120.935671 
L 411.895656 118.997533 
L 412.152401 123.842879 
L 412.409146 102.523357 
L 412.665892 126.750086 
L 412.922637 86.049181 
L 413.179382 78.296628 
L 413.436128 115.121256 
L 413.692873 81.203836 
L 413.949618 68.605937 
L 414.206364 98.647081 
L 414.463109 79.265697 
L 414.9766 106.399634 
L 415.233345 87.98732 
L 415.49009 107.368703 
L 416.003581 87.018251 
L 416.260326 88.956389 
L 416.517071 130.626363 
L 416.773817 86.049181 
L 417.030562 104.461496 
L 417.287307 97.678011 
L 417.544053 105.430565 
L 417.800798 109.306841 
L 418.057543 90.894527 
L 418.314289 87.018251 
L 418.571034 112.214049 
L 419.084525 93.801735 
L 419.34127 68.605937 
L 419.598015 108.337772 
L 419.854761 116.090325 
L 420.111506 46.317346 
L 420.368251 69.575006 
L 420.881742 99.61615 
L 421.138487 76.35849 
L 421.395232 71.513144 
L 421.651978 99.61615 
L 422.165468 88.956389 
L 422.422214 131.595432 
L 422.678959 132.564501 
L 422.935704 120.935671 
L 423.19245 101.554288 
L 423.449195 100.585219 
L 423.70594 85.080112 
L 423.962686 97.678011 
L 424.219431 99.61615 
L 424.476176 116.090325 
L 424.732922 82.172905 
L 424.989667 87.018251 
L 425.246412 85.080112 
L 425.503158 116.090325 
L 425.759903 84.111043 
L 426.016648 103.492426 
L 426.273393 87.98732 
L 426.530139 86.049181 
L 426.786884 86.049181 
L 427.043629 95.739873 
L 427.300375 86.049181 
L 427.55712 89.925458 
L 427.813865 87.018251 
L 428.070611 71.513144 
L 428.327356 118.028464 
L 428.584101 74.420352 
L 428.840847 110.275911 
L 429.097592 126.750086 
L 429.354337 83.141974 
L 429.611083 92.832666 
L 429.867828 113.183118 
L 430.124573 103.492426 
L 430.381319 82.172905 
L 430.638064 88.956389 
L 430.894809 111.24498 
L 431.151554 100.585219 
L 431.4083 125.781017 
L 431.665045 91.863596 
L 431.92179 115.121256 
L 432.178536 86.049181 
L 432.435281 93.801735 
L 432.692026 109.306841 
L 432.948772 104.461496 
L 433.205517 77.327559 
L 433.462262 118.028464 
L 433.719008 90.894527 
L 433.975753 118.997533 
L 434.232498 114.152187 
L 434.489244 79.265697 
L 434.745989 98.647081 
L 435.002734 80.234766 
L 435.25948 106.399634 
L 435.516225 87.018251 
L 435.77297 126.750086 
L 436.029715 120.935671 
L 436.543206 87.98732 
L 437.056697 119.966602 
L 437.313442 121.90474 
L 437.570187 144.193331 
L 437.826933 81.203836 
L 438.083678 103.492426 
L 438.340423 105.430565 
L 438.597169 92.832666 
L 438.853914 62.791522 
L 439.110659 131.595432 
L 439.367405 93.801735 
L 439.62415 76.35849 
L 440.137641 97.678011 
L 440.651131 74.420352 
L 440.907876 90.894527 
L 441.164622 89.925458 
L 441.421367 118.028464 
L 441.678112 107.368703 
L 441.934858 61.822452 
L 442.191603 102.523357 
L 442.448348 89.925458 
L 442.961839 113.183118 
L 443.218584 107.368703 
L 443.47533 110.275911 
L 443.732075 83.141974 
L 443.98882 72.482213 
L 444.245566 105.430565 
L 444.502311 75.389421 
L 444.759056 103.492426 
L 445.272547 95.739873 
L 445.529292 76.35849 
L 445.786037 126.750086 
L 446.042783 99.61615 
L 446.299528 143.224262 
L 446.556273 113.183118 
L 446.813019 100.585219 
L 447.069764 118.028464 
L 447.326509 105.430565 
L 447.84 122.87381 
L 447.84 122.87381 
" style="fill:none;stroke:#4c72b0;stroke-linecap:round;stroke-width:1.75;"/>
   </g>
   <g id="patch_3">
    <path d="M 77.87 150.007746 
L 77.87 41.472 
" style="fill:none;"/>
   </g>
   <g id="patch_4">
    <path d="M 447.84 150.007746 
L 447.84 41.472 
" style="fill:none;"/>
   </g>
   <g id="patch_5">
    <path d="M 77.87 150.007746 
L 447.84 150.007746 
" style="fill:none;"/>
   </g>
   <g id="patch_6">
    <path d="M 77.87 41.472 
L 447.84 41.472 
" style="fill:none;"/>
   </g>
  </g>
  <g id="axes_2">
   <g id="patch_7">
    <path d="M 77.87 300.76 
L 447.84 300.76 
L 447.84 192.224254 
L 77.87 192.224254 
z
" style="fill:#eaeaf2;"/>
   </g>
   <g id="matplotlib.axis_3">
    <g id="xtick_7">
     <g id="line2d_24">
      <path clip-path="url(#paf7f154348)" d="M 77.87 300.76 
L 77.87 192.224254 
" style="fill:none;stroke:#ffffff;stroke-linecap:round;"/>
     </g>
     <g id="line2d_25"/>
     <g id="text_14">
      <!-- 0.0 -->
      <g style="fill:#262626;" transform="translate(69.918438 315.358437)scale(0.1 -0.1)">
       <use xlink:href="#DejaVuSans-30"/>
       <use x="63.623047" xlink:href="#DejaVuSans-2e"/>
       <use x="95.410156" xlink:href="#DejaVuSans-30"/>
      </g>
     </g>
    </g>
    <g id="xtick_8">
     <g id="line2d_26">
      <path clip-path="url(#paf7f154348)" d="M 143.596801 300.76 
L 143.596801 192.224254 
" style="fill:none;stroke:#ffffff;stroke-linecap:round;"/>
     </g>
     <g id="line2d_27"/>
     <g id="text_15">
      <!-- 0.5 -->
      <g style="fill:#262626;" transform="translate(135.645238 315.358437)scale(0.1 -0.1)">
       <use xlink:href="#DejaVuSans-30"/>
       <use x="63.623047" xlink:href="#DejaVuSans-2e"/>
       <use x="95.410156" xlink:href="#DejaVuSans-35"/>
      </g>
     </g>
    </g>
    <g id="xtick_9">
     <g id="line2d_28">
      <path clip-path="url(#paf7f154348)" d="M 209.323602 300.76 
L 209.323602 192.224254 
" style="fill:none;stroke:#ffffff;stroke-linecap:round;"/>
     </g>
     <g id="line2d_29"/>
     <g id="text_16">
      <!-- 1.0 -->
      <g style="fill:#262626;" transform="translate(201.372039 315.358437)scale(0.1 -0.1)">
       <use xlink:href="#DejaVuSans-31"/>
       <use x="63.623047" xlink:href="#DejaVuSans-2e"/>
       <use x="95.410156" xlink:href="#DejaVuSans-30"/>
      </g>
     </g>
    </g>
    <g id="xtick_10">
     <g id="line2d_30">
      <path clip-path="url(#paf7f154348)" d="M 275.050402 300.76 
L 275.050402 192.224254 
" style="fill:none;stroke:#ffffff;stroke-linecap:round;"/>
     </g>
     <g id="line2d_31"/>
     <g id="text_17">
      <!-- 1.5 -->
      <g style="fill:#262626;" transform="translate(267.09884 315.358437)scale(0.1 -0.1)">
       <use xlink:href="#DejaVuSans-31"/>
       <use x="63.623047" xlink:href="#DejaVuSans-2e"/>
       <use x="95.410156" xlink:href="#DejaVuSans-35"/>
      </g>
     </g>
    </g>
    <g id="xtick_11">
     <g id="line2d_32">
      <path clip-path="url(#paf7f154348)" d="M 340.777203 300.76 
L 340.777203 192.224254 
" style="fill:none;stroke:#ffffff;stroke-linecap:round;"/>
     </g>
     <g id="line2d_33"/>
     <g id="text_18">
      <!-- 2.0 -->
      <g style="fill:#262626;" transform="translate(332.825641 315.358437)scale(0.1 -0.1)">
       <use xlink:href="#DejaVuSans-32"/>
       <use x="63.623047" xlink:href="#DejaVuSans-2e"/>
       <use x="95.410156" xlink:href="#DejaVuSans-30"/>
      </g>
     </g>
    </g>
    <g id="xtick_12">
     <g id="line2d_34">
      <path clip-path="url(#paf7f154348)" d="M 406.504004 300.76 
L 406.504004 192.224254 
" style="fill:none;stroke:#ffffff;stroke-linecap:round;"/>
     </g>
     <g id="line2d_35"/>
     <g id="text_19">
      <!-- 2.5 -->
      <g style="fill:#262626;" transform="translate(398.552442 315.358437)scale(0.1 -0.1)">
       <use xlink:href="#DejaVuSans-32"/>
       <use x="63.623047" xlink:href="#DejaVuSans-2e"/>
       <use x="95.410156" xlink:href="#DejaVuSans-35"/>
      </g>
     </g>
    </g>
    <g id="text_20">
     <!-- Time (seconds) -->
     <g style="fill:#262626;" transform="translate(220.707813 329.796406)scale(0.11 -0.11)">
      <use xlink:href="#DejaVuSans-54"/>
      <use x="61.037109" xlink:href="#DejaVuSans-69"/>
      <use x="88.820312" xlink:href="#DejaVuSans-6d"/>
      <use x="186.232422" xlink:href="#DejaVuSans-65"/>
      <use x="247.755859" xlink:href="#DejaVuSans-20"/>
      <use x="279.542969" xlink:href="#DejaVuSans-28"/>
      <use x="318.556641" xlink:href="#DejaVuSans-73"/>
      <use x="370.65625" xlink:href="#DejaVuSans-65"/>
      <use x="432.179688" xlink:href="#DejaVuSans-63"/>
      <use x="487.160156" xlink:href="#DejaVuSans-6f"/>
      <use x="548.341797" xlink:href="#DejaVuSans-6e"/>
      <use x="611.720703" xlink:href="#DejaVuSans-64"/>
      <use x="675.197266" xlink:href="#DejaVuSans-73"/>
      <use x="727.296875" xlink:href="#DejaVuSans-29"/>
     </g>
    </g>
   </g>
   <g id="matplotlib.axis_4">
    <g id="ytick_6">
     <g id="line2d_36">
      <path clip-path="url(#paf7f154348)" d="M 77.87 297.37758 
L 447.84 297.37758 
" style="fill:none;stroke:#ffffff;stroke-linecap:round;"/>
     </g>
     <g id="line2d_37"/>
     <g id="text_21">
      <!-- −0.005 -->
      <g style="fill:#262626;" transform="translate(33.862188 301.176799)scale(0.1 -0.1)">
       <use xlink:href="#DejaVuSans-2212"/>
       <use x="83.789062" xlink:href="#DejaVuSans-30"/>
       <use x="147.412109" xlink:href="#DejaVuSans-2e"/>
       <use x="179.199219" xlink:href="#DejaVuSans-30"/>
       <use x="242.822266" xlink:href="#DejaVuSans-30"/>
       <use x="306.445312" xlink:href="#DejaVuSans-35"/>
      </g>
     </g>
    </g>
    <g id="ytick_7">
     <g id="line2d_38">
      <path clip-path="url(#paf7f154348)" d="M 77.87 256.638858 
L 447.84 256.638858 
" style="fill:none;stroke:#ffffff;stroke-linecap:round;"/>
     </g>
     <g id="line2d_39"/>
     <g id="text_22">
      <!-- 0.000 -->
      <g style="fill:#262626;" transform="translate(42.241875 260.438077)scale(0.1 -0.1)">
       <use xlink:href="#DejaVuSans-30"/>
       <use x="63.623047" xlink:href="#DejaVuSans-2e"/>
       <use x="95.410156" xlink:href="#DejaVuSans-30"/>
       <use x="159.033203" xlink:href="#DejaVuSans-30"/>
       <use x="222.65625" xlink:href="#DejaVuSans-30"/>
      </g>
     </g>
    </g>
    <g id="ytick_8">
     <g id="line2d_40">
      <path clip-path="url(#paf7f154348)" d="M 77.87 215.900136 
L 447.84 215.900136 
" style="fill:none;stroke:#ffffff;stroke-linecap:round;"/>
     </g>
     <g id="line2d_41"/>
     <g id="text_23">
      <!-- 0.005 -->
      <g style="fill:#262626;" transform="translate(42.241875 219.699354)scale(0.1 -0.1)">
       <use xlink:href="#DejaVuSans-30"/>
       <use x="63.623047" xlink:href="#DejaVuSans-2e"/>
       <use x="95.410156" xlink:href="#DejaVuSans-30"/>
       <use x="159.033203" xlink:href="#DejaVuSans-30"/>
       <use x="222.65625" xlink:href="#DejaVuSans-35"/>
      </g>
     </g>
    </g>
    <g id="text_24">
     <!-- Tilt (degrees) -->
     <g style="fill:#262626;" transform="translate(27.574531 283.361033)rotate(-90)scale(0.11 -0.11)">
      <use xlink:href="#DejaVuSans-54"/>
      <use x="61.037109" xlink:href="#DejaVuSans-69"/>
      <use x="88.820312" xlink:href="#DejaVuSans-6c"/>
      <use x="116.603516" xlink:href="#DejaVuSans-74"/>
      <use x="155.8125" xlink:href="#DejaVuSans-20"/>
      <use x="187.599609" xlink:href="#DejaVuSans-28"/>
      <use x="226.613281" xlink:href="#DejaVuSans-64"/>
      <use x="290.089844" xlink:href="#DejaVuSans-65"/>
      <use x="351.613281" xlink:href="#DejaVuSans-67"/>
      <use x="415.089844" xlink:href="#DejaVuSans-72"/>
      <use x="456.171875" xlink:href="#DejaVuSans-65"/>
      <use x="517.695312" xlink:href="#DejaVuSans-65"/>
      <use x="579.21875" xlink:href="#DejaVuSans-73"/>
      <use x="631.318359" xlink:href="#DejaVuSans-29"/>
     </g>
    </g>
   </g>
   <g id="line2d_42">
    <path clip-path="url(#paf7f154348)" d="M 77.87 258.898009 
L 78.126745 260.914339 
L 78.383491 264.509009 
L 78.640236 261.790315 
L 78.896981 261.014195 
L 79.153727 261.330773 
L 79.410472 264.075567 
L 79.667217 262.570982 
L 79.923963 258.152536 
L 80.180708 260.411688 
L 80.437453 258.54287 
L 80.694198 260.559199 
L 80.950944 259.054614 
L 81.207689 256.821564 
L 81.72118 259.518703 
L 81.977925 259.592459 
L 82.491416 264.596405 
L 83.004906 261.344413 
L 83.261652 262.025223 
L 83.518397 262.3418 
L 84.031888 256.661591 
L 84.288633 258.192277 
L 84.802124 255.790161 
L 85.058869 256.592382 
L 85.572359 251.397816 
L 85.829105 250.985928 
L 86.08585 249.845576 
L 86.342595 250.040742 
L 86.599341 251.085785 
L 86.856086 251.402362 
L 87.112831 248.92649 
L 87.369577 245.357921 
L 87.626322 246.038731 
L 87.883067 244.776967 
L 88.139813 247.521762 
L 88.653303 249.854669 
L 89.166794 253.644506 
L 89.423539 259.060339 
L 89.680285 257.919987 
L 89.93703 260.42196 
L 90.193775 260.252894 
L 90.45052 263.361921 
L 90.707266 259.67194 
L 90.964011 258.652998 
L 91.220756 264.675886 
L 91.477502 259.528975 
L 91.734247 262.030948 
L 92.247738 270.070165 
L 92.504483 270.143921 
L 92.761228 268.760747 
L 93.017974 270.412844 
L 93.274719 273.886103 
L 93.531464 270.924588 
L 93.78821 273.912204 
L 94.044955 274.471603 
L 94.558446 277.047332 
L 94.815191 275.421336 
L 95.071936 275.616503 
L 95.328681 278.482708 
L 95.585427 277.94941 
L 95.842172 276.444824 
L 96.098917 274.211774 
L 96.355663 279.020553 
L 96.612408 281.279704 
L 96.869153 280.503584 
L 97.125899 278.877588 
L 97.382644 275.916073 
L 97.639389 275.504185 
L 97.896135 273.028313 
L 98.15288 272.859247 
L 98.409625 268.562212 
L 98.923116 272.594871 
L 99.179861 272.304394 
L 99.436607 272.742383 
L 99.693352 271.60203 
L 99.950097 271.554375 
L 100.463588 268.302383 
L 100.977078 274.277615 
L 101.233824 272.408798 
L 101.490569 273.939484 
L 101.747314 276.320046 
L 102.00406 272.630065 
L 102.260805 272.218177 
L 102.51755 272.777577 
L 103.031041 274.503429 
L 103.287786 273.363077 
L 103.544532 277.079158 
L 103.801277 278.974077 
L 104.058022 283.661445 
L 104.314768 283.006736 
L 104.828258 286.796573 
L 105.085003 284.806344 
L 105.598494 287.017841 
L 105.855239 289.641224 
L 106.111985 288.25805 
L 106.36873 290.760023 
L 106.625475 289.61967 
L 106.882221 291.393178 
L 107.138966 295.23067 
L 107.395711 293.240442 
L 107.652457 294.528306 
L 107.909202 297.15169 
L 108.165947 295.889926 
L 108.422693 292.442767 
L 108.679438 292.15229 
L 108.936183 293.197333 
L 109.192929 292.785446 
L 109.449674 294.07331 
L 109.706419 291.96167 
L 109.963164 291.18555 
L 110.21991 291.623539 
L 110.476655 292.304349 
L 110.7334 294.199267 
L 110.990146 291.966217 
L 111.246891 290.825864 
L 111.503636 294.299124 
L 111.760382 295.708399 
L 112.017127 300.76 
L 112.273872 300.105291 
L 112.530618 296.900953 
L 112.787363 297.824585 
L 113.300854 292.144376 
L 113.557599 292.582364 
L 113.814344 291.19919 
L 114.07109 291.515768 
L 114.327835 291.346702 
L 114.58458 292.270333 
L 114.841325 295.25795 
L 115.098071 296.060171 
L 115.354816 300.019074 
L 115.611561 299.000132 
L 115.868307 296.160027 
L 116.125052 296.355194 
L 116.638543 295.895651 
L 116.895288 291.598617 
L 117.152033 290.701086 
L 117.408779 291.381896 
L 117.665524 289.270256 
L 117.922269 288.129903 
L 118.179015 290.874698 
L 118.43576 290.46281 
L 118.692505 288.351171 
L 118.949251 289.881857 
L 119.205996 290.198434 
L 119.719486 292.531342 
L 120.232977 290.85769 
L 120.746468 283.234907 
L 121.003213 282.701609 
L 121.259958 283.382419 
L 121.516704 281.635012 
L 121.773449 284.136985 
L 122.030194 284.574973 
L 122.28694 284.284497 
L 122.80043 284.796241 
L 123.057176 285.719873 
L 123.313921 283.608233 
L 123.570666 282.832113 
L 123.827412 284.727032 
L 124.340902 281.960683 
L 124.597647 283.369958 
L 124.854393 278.951512 
L 125.111138 279.875144 
L 125.367883 282.377117 
L 125.624629 279.294191 
L 126.138119 283.933904 
L 126.394865 282.186497 
L 126.65161 283.23154 
L 126.908355 280.391435 
L 127.165101 280.586602 
L 127.421846 277.746497 
L 127.678591 276.241912 
L 127.935337 278.13683 
L 128.192082 278.69623 
L 128.448827 276.948823 
L 128.705573 276.658346 
L 128.962318 278.310443 
L 129.219063 278.869842 
L 129.475808 276.515381 
L 129.732554 276.589137 
L 129.989299 272.413513 
L 130.246044 275.886772 
L 130.759535 275.305819 
L 131.01628 274.529699 
L 131.273026 274.482044 
L 131.529771 276.862606 
L 132.300007 279.269269 
L 132.813498 279.902424 
L 133.070243 279.490536 
L 133.326988 277.136075 
L 134.097224 285.127637 
L 134.353969 285.687036 
L 134.86746 288.626997 
L 135.380951 280.154339 
L 135.637696 278.528342 
L 136.151187 284.746397 
L 136.407932 284.698742 
L 136.664677 283.6798 
L 136.921423 283.510734 
L 137.178168 282.613203 
L 137.691659 283.610591 
L 137.948404 283.320114 
L 138.205149 284.000924 
L 138.461895 284.317502 
L 138.71864 284.391257 
L 138.975385 283.615137 
L 139.23213 287.57404 
L 139.488876 288.012029 
L 139.745621 287.600141 
L 140.002366 282.696052 
L 140.259112 283.741095 
L 140.515857 283.936261 
L 140.772602 283.888606 
L 141.286093 284.036118 
L 141.542838 281.560246 
L 141.799584 280.662715 
L 142.056329 278.915308 
L 142.313074 278.989064 
L 142.56982 281.855269 
L 143.08331 273.625432 
L 143.340056 274.06342 
L 143.596801 275.108463 
L 143.853546 275.30363 
L 144.110291 274.891742 
L 144.367037 273.508568 
L 144.623782 274.675021 
L 145.137273 277.493572 
L 145.394018 274.896289 
L 145.650763 275.091455 
L 146.164254 270.746765 
L 146.420999 267.906661 
L 146.677745 272.594029 
L 146.93449 269.025459 
L 147.191235 261.935975 
L 147.704726 262.811952 
L 148.218217 259.074316 
L 148.474962 257.933963 
L 148.731707 259.464649 
L 148.988452 258.80994 
L 149.245198 257.548176 
L 149.758688 259.39544 
L 150.272179 251.165603 
L 150.528924 251.239359 
L 150.78567 252.284401 
L 151.555906 258.940444 
L 151.812651 256.343161 
L 152.069396 255.081398 
L 152.326142 256.854905 
L 152.582887 257.657126 
L 152.839632 261.251797 
L 153.096378 261.325553 
L 153.353123 261.035076 
L 153.609868 258.680615 
L 153.866613 259.482836 
L 154.123359 258.221072 
L 154.380104 262.665619 
L 154.636849 257.88294 
L 154.893595 259.777859 
L 155.15034 263.858173 
L 155.407085 262.960642 
L 155.663831 259.634894 
L 155.920576 258.37313 
L 156.177321 260.875103 
L 156.434067 260.220394 
L 156.947557 257.818278 
L 157.204303 257.770623 
L 157.717793 259.982119 
L 157.974539 258.356123 
L 158.231284 255.273196 
L 158.488029 260.324797 
L 158.744774 262.098305 
L 159.00152 261.807828 
L 159.258265 261.881584 
L 159.771756 263.486026 
L 160.028501 262.588495 
L 160.541992 265.892689 
L 161.055482 271.382278 
L 161.312228 274.491305 
L 161.568973 271.044146 
L 161.825718 272.696243 
L 162.082464 270.827425 
L 162.339209 267.623088 
L 162.595954 265.997092 
L 163.109445 261.530991 
L 163.36619 262.454623 
L 163.622935 256.94348 
L 164.136426 253.570077 
L 164.393171 259.350143 
L 164.649917 257.117092 
L 164.906662 257.797902 
L 165.163407 261.149751 
L 165.420153 260.980685 
L 165.676898 261.904317 
L 165.933643 264.042057 
L 166.190389 265.0871 
L 166.447134 266.982019 
L 166.703879 267.055775 
L 167.21737 258.461705 
L 167.730861 259.337681 
L 167.987606 260.868368 
L 168.501096 256.645088 
L 168.757842 253.31934 
L 169.014587 252.54322 
L 169.271332 254.316728 
L 169.528078 253.419197 
L 169.784823 250.943325 
L 170.041568 249.681561 
L 170.298314 249.269674 
L 170.555059 253.349988 
L 170.811804 249.902829 
L 171.06855 251.312104 
L 171.325295 251.507271 
L 171.838786 248.740922 
L 172.095531 253.549701 
L 172.865767 258.991635 
L 173.122512 256.637174 
L 173.636003 258.363027 
L 173.892748 257.465496 
L 174.149493 254.625391 
L 174.406239 254.941969 
L 174.662984 257.079709 
L 175.176475 248.242818 
L 175.43322 248.923628 
L 175.689965 250.454314 
L 176.203456 252.058756 
L 176.460201 250.432759 
L 176.716947 247.714066 
L 176.973692 248.516287 
L 177.230437 249.925562 
L 177.487183 250.242139 
L 178.000673 248.082845 
L 178.514164 247.016248 
L 178.770909 248.789756 
L 179.027654 245.82824 
L 179.79789 242.285771 
L 180.054636 242.480938 
L 180.311381 246.075609 
L 180.824872 240.395399 
L 181.081617 239.74069 
L 181.338362 241.392787 
L 181.595108 239.159736 
L 181.851853 241.297477 
L 182.622089 232.655752 
L 182.878834 233.336562 
L 183.135579 236.688411 
L 183.392325 234.576771 
L 183.905815 232.90312 
L 184.419306 238.271299 
L 184.676051 237.980822 
L 184.932797 236.840469 
L 185.189542 238.735388 
L 185.446287 239.294787 
L 185.703033 240.825473 
L 185.959778 240.049353 
L 186.216523 237.45207 
L 186.473269 236.311717 
L 186.730014 239.177923 
L 186.986759 240.222966 
L 187.243505 240.660954 
L 187.50025 239.642012 
L 187.756995 237.16614 
L 188.01374 236.754252 
L 188.270486 233.064272 
L 188.527231 232.895206 
L 188.783976 231.390621 
L 189.297467 231.659543 
L 189.554212 231.733299 
L 189.810958 231.564233 
L 190.067703 229.938237 
L 190.324448 229.040706 
L 190.581194 229.842927 
L 190.837939 227.731287 
L 191.094684 227.197989 
L 191.35143 227.028923 
L 191.608175 225.645749 
L 191.86492 226.690791 
L 192.121666 226.400315 
L 192.378411 223.195977 
L 192.635156 222.78409 
L 192.891901 224.436187 
L 193.148647 223.660067 
L 193.405392 225.190753 
L 193.662137 222.714881 
L 193.918883 222.302993 
L 194.175628 218.005958 
L 194.432373 216.015729 
L 194.689119 219.488989 
L 194.945864 219.077102 
L 195.202609 219.51509 
L 195.459355 221.531419 
L 195.7161 221.847997 
L 195.972845 220.586233 
L 196.229591 217.503307 
L 196.486336 218.54835 
L 196.743081 220.200447 
L 196.999827 219.302916 
L 197.513317 215.808102 
L 198.026808 217.048311 
L 198.283553 216.393602 
L 198.540298 217.317234 
L 198.797044 214.719951 
L 199.053789 216.372047 
L 199.310534 216.324392 
L 199.56728 217.490846 
L 199.824025 216.836137 
L 200.08077 218.609644 
L 200.337516 216.376594 
L 200.851006 219.437966 
L 201.364497 215.093276 
L 201.621242 214.195745 
L 201.877988 214.876555 
L 202.134733 216.528652 
L 202.904969 211.286431 
L 203.161714 216.338032 
L 203.418459 218.597183 
L 203.675205 215.635668 
L 203.93195 214.009672 
L 204.188695 213.597784 
L 204.445441 215.12847 
L 204.702186 214.595172 
L 204.958931 212.362121 
L 205.472422 215.423494 
L 205.985913 213.749842 
L 206.242658 212.002436 
L 206.499403 208.798098 
L 206.756149 211.057249 
L 207.012894 209.431253 
L 207.269639 209.747831 
L 207.78313 207.831358 
L 208.29662 204.457955 
L 208.553366 206.959928 
L 208.810111 207.88356 
L 209.066856 208.078726 
L 209.323602 206.45273 
L 209.580347 207.012129 
L 209.837092 207.085885 
L 210.093838 205.5813 
L 210.350583 205.290823 
L 210.607328 206.821509 
L 210.864074 206.288211 
L 211.120819 207.454664 
L 211.377564 205.707257 
L 211.63431 206.023835 
L 212.1478 208.356742 
L 212.661291 204.861928 
L 212.918036 211.370459 
L 213.174781 213.872432 
L 213.688272 210.499029 
L 213.945017 215.914862 
L 214.201763 213.43899 
L 214.458508 213.634157 
L 214.715253 214.193556 
L 214.971999 214.145901 
L 215.228744 214.341068 
L 215.485489 211.136731 
L 215.99898 209.098847 
L 216.255725 207.108618 
L 216.512471 207.425196 
L 216.769216 207.134719 
L 217.025961 207.451297 
L 217.282706 205.8253 
L 217.539452 208.327273 
L 217.796197 208.886673 
L 218.052942 205.196692 
L 218.309688 205.998913 
L 218.566433 208.136653 
L 218.823178 207.117711 
L 219.079924 209.134041 
L 219.336669 209.329208 
L 219.593414 211.70977 
L 219.85016 208.991076 
L 220.106905 212.707157 
L 220.36365 210.95975 
L 220.620396 213.340312 
L 220.877141 213.171247 
L 221.133886 210.938196 
L 221.390632 212.954526 
L 221.647377 213.999568 
L 221.904122 214.194735 
L 222.160867 212.932971 
L 222.417613 213.249549 
L 222.674358 216.84422 
L 222.931103 217.403619 
L 223.187849 214.563514 
L 223.444594 218.401006 
L 223.701339 217.746297 
L 223.958085 218.548518 
L 224.21483 221.900367 
L 224.471575 223.188231 
L 224.728321 227.8756 
L 224.985066 221.635991 
L 225.498557 217.898355 
L 225.755302 220.400328 
L 226.012047 218.774332 
L 226.268793 219.212321 
L 227.039028 214.941386 
L 227.295774 216.229251 
L 227.552519 215.574542 
L 227.809264 213.827135 
L 228.06601 215.843464 
L 228.322755 216.281452 
L 228.5795 217.326495 
L 228.836246 217.643073 
L 229.092991 220.509278 
L 229.349736 222.039964 
L 229.606482 218.471394 
L 229.863227 212.960251 
L 230.633463 221.680278 
L 230.890208 222.60391 
L 231.146954 220.856503 
L 231.660444 219.911317 
L 231.917189 218.042499 
L 232.173935 219.330364 
L 232.43068 218.432833 
L 232.687425 222.027503 
L 232.944171 222.708313 
L 233.200916 226.667216 
L 233.457661 222.12736 
L 233.714407 219.772899 
L 233.971152 225.917197 
L 234.227897 223.562736 
L 234.484643 225.093422 
L 234.998133 225.362344 
L 235.254879 225.193279 
L 235.511624 226.359732 
L 235.768369 224.126682 
L 236.025115 223.836205 
L 236.28186 222.817263 
L 236.538605 225.804879 
L 236.79535 225.15017 
L 237.052096 228.380608 
L 237.308841 226.147558 
L 237.565586 222.82181 
L 237.822332 224.716728 
L 238.079077 225.033306 
L 238.335822 225.107062 
L 238.592568 224.08812 
L 238.849313 224.647519 
L 239.106058 224.599864 
L 239.362804 222.731046 
L 239.619549 224.747376 
L 240.13304 224.530655 
L 240.389785 224.847232 
L 240.64653 225.892275 
L 240.903276 228.272837 
L 241.160021 226.161197 
L 241.416766 225.627899 
L 241.930257 221.161798 
L 242.187002 225.727756 
L 242.443747 225.437279 
L 242.700493 227.210787 
L 242.957238 225.706201 
L 243.213983 225.901368 
L 243.470729 225.246659 
L 243.727474 229.326973 
L 243.984219 229.157907 
L 244.240965 230.445771 
L 244.49771 233.676209 
L 245.011201 245.479163 
L 245.267946 245.431508 
L 245.524691 244.412566 
L 245.781437 247.764415 
L 246.038182 242.01045 
L 246.294927 242.084206 
L 246.551672 245.557465 
L 246.808418 240.167733 
L 247.065163 239.148791 
L 247.321908 241.04371 
L 247.578654 238.325016 
L 247.835399 240.341345 
L 248.092144 238.472527 
L 248.605635 240.684024 
L 248.86238 237.722508 
L 249.119126 238.64614 
L 249.375871 237.262966 
L 249.632616 237.336721 
L 249.889362 237.77471 
L 250.402852 233.43002 
L 250.659598 237.267512 
L 250.916343 236.734214 
L 251.173088 238.750543 
L 251.429833 239.067121 
L 251.686579 237.076892 
L 251.943324 236.907826 
L 252.456815 231.106206 
L 252.71356 231.422784 
L 253.227051 233.755691 
L 253.483796 230.551353 
L 253.740541 228.803946 
L 253.997287 225.235377 
L 254.254032 228.587225 
L 254.767523 227.399218 
L 255.024268 227.715795 
L 255.281013 225.968388 
L 255.537759 225.920733 
L 255.794504 225.630257 
L 256.307994 226.627644 
L 256.56474 228.036919 
L 256.821485 225.318226 
L 257.07823 227.698788 
L 257.334976 226.437024 
L 257.591721 222.625633 
L 257.848466 224.884784 
L 258.105212 225.565594 
L 258.618702 216.850113 
L 258.875448 219.352086 
L 259.132193 220.154307 
L 259.645684 225.036842 
L 259.902429 223.289435 
L 260.159174 224.091656 
L 260.41592 223.436947 
L 260.672665 220.961075 
L 260.92941 221.641885 
L 261.186155 225.96502 
L 261.442901 221.182342 
L 261.699646 219.313524 
L 261.956391 221.572676 
L 262.213137 220.553734 
L 262.469882 220.627489 
L 262.726627 221.065478 
L 262.983373 220.65359 
L 263.240118 219.634648 
L 263.496863 220.194048 
L 264.010354 219.370273 
L 264.267099 221.629424 
L 264.523845 219.882017 
L 264.78059 218.984486 
L 265.037335 220.029528 
L 265.29408 220.224695 
L 265.550826 221.269738 
L 265.807571 218.551044 
L 266.064316 214.254009 
L 266.577807 217.072559 
L 266.834552 212.047059 
L 267.091298 212.606459 
L 267.348043 209.766354 
L 267.604788 208.50459 
L 267.861534 212.342083 
L 268.118279 212.537249 
L 268.375024 209.697145 
L 268.63177 214.263102 
L 269.14526 217.324474 
L 269.402006 216.184122 
L 269.658751 212.615552 
L 269.915496 213.296362 
L 270.172241 211.427544 
L 270.428987 211.015657 
L 270.685732 211.575056 
L 270.942477 208.977773 
L 271.199223 209.901405 
L 271.455968 206.332835 
L 271.712713 207.377878 
L 271.969459 207.694455 
L 272.226204 204.611529 
L 272.482949 206.142215 
L 272.739695 204.63763 
L 272.99644 200.826238 
L 273.253185 201.507048 
L 273.509931 204.251843 
L 273.766676 201.533149 
L 274.280167 205.201575 
L 274.536912 203.939812 
L 274.793657 204.013568 
L 275.050402 202.630393 
L 275.307148 202.82556 
L 275.563893 201.928029 
L 275.820638 204.065769 
L 276.077384 201.347075 
L 276.590874 203.801393 
L 276.84762 202.903862 
L 277.104365 201.156455 
L 277.36111 197.952118 
L 277.617856 197.41882 
L 277.874601 194.093072 
L 278.131346 192.224254 
L 278.388092 193.390707 
L 278.644837 193.221641 
L 278.901582 194.145273 
L 279.158328 194.097618 
L 279.415073 195.142661 
L 279.671818 193.273843 
L 279.928563 193.46901 
L 280.185309 196.213804 
L 280.442054 196.408971 
L 280.698799 197.454014 
L 280.955545 198.013413 
L 281.21229 195.658952 
L 281.469035 196.703994 
L 281.725781 194.592355 
L 281.982526 197.45856 
L 282.239271 201.660285 
L 282.496017 203.919436 
L 282.752762 200.593688 
L 283.009507 202.245785 
L 283.266253 202.683774 
L 283.522998 201.907653 
L 283.779743 201.738588 
L 284.036489 202.905041 
L 284.293234 202.614564 
L 284.549979 201.717033 
L 284.806724 203.490541 
L 285.06347 203.92853 
L 285.320215 205.580626 
L 285.833706 199.414774 
L 286.090451 197.545956 
L 286.603942 199.51463 
L 286.860687 196.310293 
L 287.117432 199.662142 
L 287.374178 199.97872 
L 287.630923 199.202599 
L 287.887668 199.397766 
L 288.144414 200.807041 
L 288.657904 198.040693 
L 288.91465 200.542665 
L 289.171395 200.616421 
L 289.42814 202.268518 
L 289.684885 201.492398 
L 289.941631 201.201921 
L 290.455121 204.020472 
L 290.711867 199.844848 
L 291.225357 202.299166 
L 291.482103 197.759309 
L 291.738848 200.746925 
L 292.252339 204.415352 
L 292.509084 201.575247 
L 292.765829 201.770414 
L 293.022575 200.630061 
L 293.27932 200.460995 
L 294.306301 205.24822 
L 294.563046 208.357247 
L 294.819792 208.795236 
L 295.076537 208.383348 
L 295.333282 206.878763 
L 295.590028 206.831108 
L 295.846773 208.604616 
L 296.103518 206.735798 
L 296.360264 208.387895 
L 296.617009 204.697914 
L 296.873754 208.292585 
L 297.1305 208.487751 
L 297.387245 210.139848 
L 297.64399 212.763232 
L 297.900736 210.773003 
L 298.157481 210.96817 
L 298.414226 215.655538 
L 298.670972 212.086968 
L 299.184462 207.378046 
L 299.441207 210.487073 
L 299.697953 208.739666 
L 300.211443 204.030744 
L 300.724934 203.085558 
L 300.981679 206.073174 
L 301.238425 204.082945 
L 301.49517 204.399523 
L 301.751915 206.537263 
L 302.008661 204.182802 
L 302.265406 205.834899 
L 302.522151 205.787244 
L 302.778897 205.861 
L 303.035642 208.605794 
L 303.292387 208.922372 
L 303.805878 215.140426 
L 304.062623 214.364306 
L 304.319368 214.19524 
L 304.576114 211.96219 
L 305.089604 211.381236 
L 305.34635 208.905364 
L 305.603095 211.407337 
L 305.85984 211.966736 
L 306.116586 209.490864 
L 306.373331 208.10769 
L 306.630076 212.916469 
L 307.143567 209.421655 
L 307.913803 211.949729 
L 308.170548 212.023485 
L 308.427294 212.582884 
L 308.684039 209.985601 
L 308.940784 205.567155 
L 309.197529 203.819748 
L 309.454275 204.257737 
L 309.71102 205.667012 
L 309.967765 203.798194 
L 310.224511 205.32888 
L 310.481256 206.131101 
L 310.994747 203.971806 
L 311.251492 203.195686 
L 311.508237 203.02662 
L 311.764983 201.643446 
L 312.021728 202.081434 
L 312.278473 203.976353 
L 312.535219 204.17152 
L 312.791964 207.644779 
L 313.048709 208.204179 
L 313.305455 210.099097 
L 313.5622 209.201566 
L 313.818945 212.553415 
L 314.07569 212.627171 
L 314.332436 208.572958 
L 314.589181 210.710698 
L 314.845926 210.298811 
L 315.359417 213.238772 
L 316.129653 206.296799 
L 316.386398 205.763501 
L 316.643144 207.537008 
L 316.899889 208.339229 
L 317.156634 208.291574 
L 317.41338 212.493299 
L 317.670125 213.29552 
L 318.183616 218.056644 
L 318.440361 219.465919 
L 318.953851 217.063803 
L 319.467342 210.77654 
L 319.724087 211.57876 
L 319.980833 211.045462 
L 320.237578 214.2759 
L 320.494323 213.49978 
L 320.751069 211.752373 
L 321.007814 212.918826 
L 321.521305 209.788245 
L 321.77805 208.526481 
L 322.291541 217.779807 
L 322.548286 218.82485 
L 322.805031 217.441675 
L 323.061777 218.001075 
L 323.318522 220.988691 
L 323.575267 221.54809 
L 323.832012 220.77197 
L 324.088758 221.088548 
L 324.345503 223.833342 
L 324.858994 222.03828 
L 325.115739 221.869214 
L 325.372484 222.792846 
L 325.62923 222.62378 
L 325.885975 225.854218 
L 326.14272 224.349633 
L 326.399466 221.266707 
L 326.656211 221.461873 
L 326.912956 224.085257 
L 327.169702 221.487974 
L 327.426447 223.504304 
L 328.710173 209.789424 
L 328.966919 207.799195 
L 329.480409 212.803141 
L 329.737155 214.091005 
L 330.250645 217.51661 
L 330.507391 217.711777 
L 331.020881 214.945428 
L 331.534372 219.827963 
L 331.791117 216.745036 
L 332.047863 219.36842 
L 332.304608 218.956533 
L 332.561353 219.030288 
L 332.818099 220.318153 
L 333.074844 218.085102 
L 333.588334 223.817513 
L 333.84508 222.798572 
L 334.101825 220.929754 
L 334.35857 222.339029 
L 334.615316 221.198676 
L 334.872061 217.751517 
L 335.128806 217.946684 
L 335.385552 215.22799 
L 335.642297 217.729963 
L 335.899042 215.618324 
L 336.155788 216.663366 
L 336.412533 216.615711 
L 336.669278 212.075855 
L 336.926024 212.14961 
L 337.182769 208.945273 
L 337.69626 212.249467 
L 337.953005 210.866293 
L 338.20975 211.061459 
L 338.466495 208.706998 
L 338.979986 208.247455 
L 339.236731 206.500048 
L 340.263713 203.152746 
L 340.520458 203.469324 
L 340.777203 203.300258 
L 341.033949 202.402727 
L 341.547439 206.678208 
L 341.804185 208.087483 
L 342.06093 207.311363 
L 342.317675 207.870762 
L 342.574421 207.094642 
L 342.831166 210.932134 
L 343.087911 211.127301 
L 343.344656 208.287196 
L 343.601402 211.517634 
L 343.858147 209.891638 
L 344.114892 206.687301 
L 344.371638 210.16056 
L 344.628383 209.141619 
L 344.885128 205.815871 
L 345.141874 207.953611 
L 345.398619 208.027367 
L 346.168855 202.299502 
L 346.4256 202.494669 
L 346.682346 203.661123 
L 346.939091 209.562599 
L 347.195836 210.486231 
L 347.452582 209.710111 
L 347.709327 210.755154 
L 348.222817 201.55403 
L 348.479563 202.23484 
L 348.736308 201.944363 
L 349.249799 205.491379 
L 349.506544 204.472437 
L 349.763289 204.18196 
L 350.020035 204.134305 
L 350.27678 205.057937 
L 350.533525 205.010282 
L 350.790271 203.384286 
L 351.047016 203.579452 
L 351.303761 204.503084 
L 351.560507 204.819662 
L 351.817252 207.564456 
L 352.330743 204.312464 
L 352.844233 208.345123 
L 353.100978 209.754398 
L 353.614469 207.959336 
L 353.871214 210.218487 
L 354.12796 209.199546 
L 354.384705 207.209317 
L 354.64145 207.890127 
L 354.898196 203.22886 
L 355.154941 202.816972 
L 355.411686 203.497782 
L 355.668432 199.929212 
L 355.925177 202.795418 
L 356.438668 198.572139 
L 356.695413 201.074112 
L 356.952158 204.911604 
L 357.208904 203.771251 
L 357.465649 204.816294 
L 357.722394 206.34698 
L 357.979139 205.935092 
L 358.235885 209.893995 
L 359.006121 207.565635 
L 359.262866 203.2686 
L 359.519611 202.249658 
L 359.776357 203.17329 
L 360.033102 203.489868 
L 360.289847 202.713747 
L 360.546593 200.84493 
L 360.803338 201.161507 
L 361.060083 197.95717 
L 361.316829 196.938228 
L 361.573574 200.047255 
L 361.830319 199.028313 
L 362.087065 202.744395 
L 362.600555 203.498961 
L 362.8573 207.093631 
L 363.370791 208.576662 
L 363.627536 207.921953 
L 363.884282 208.11712 
L 364.141027 207.462411 
L 364.654518 203.481953 
L 364.911263 205.13405 
L 365.168008 206.057682 
L 365.681499 210.697395 
L 365.938244 211.499616 
L 366.451735 216.624973 
L 366.70848 212.934992 
L 366.965226 213.615802 
L 367.221971 213.325325 
L 367.478716 215.098833 
L 367.735461 214.808357 
L 367.992207 217.188919 
L 368.505697 211.508709 
L 368.762443 213.160806 
L 369.019188 217.605353 
L 369.275933 218.164752 
L 369.789424 213.820062 
L 370.046169 215.350748 
L 370.302915 215.303093 
L 370.55966 217.805066 
L 370.816405 217.028946 
L 371.073151 215.038717 
L 371.329896 215.355295 
L 371.586641 213.97212 
L 371.843387 213.924465 
L 372.100132 215.455151 
L 372.356877 217.835713 
L 372.870368 219.197334 
L 373.127113 217.692748 
L 373.383858 217.402272 
L 373.640604 219.175779 
L 373.897349 218.763892 
L 374.154094 218.837648 
L 374.41084 222.432318 
L 374.92433 224.400993 
L 375.181076 223.26064 
L 375.437821 220.177714 
L 375.694566 220.008648 
L 375.951312 220.689458 
L 376.208057 220.156159 
L 376.464802 221.322613 
L 376.721548 220.060849 
L 376.978293 220.013194 
L 377.235038 218.387198 
L 377.491783 214.940039 
L 377.748529 215.74226 
L 378.005274 214.116264 
L 378.262019 213.825787 
L 378.518765 213.171078 
L 378.77551 214.458942 
L 379.032255 214.532698 
L 379.289001 213.635167 
L 379.545746 210.066598 
L 379.802491 209.533299 
L 380.059237 210.942574 
L 381.086218 223.621505 
L 381.342963 222.723974 
L 381.599709 223.769016 
L 381.856454 222.871485 
L 382.113199 224.766404 
L 382.369944 225.082982 
L 382.62669 227.463544 
L 382.883435 228.387175 
L 383.14018 226.032714 
L 383.396926 225.499416 
L 383.910416 225.768338 
L 384.167162 222.321179 
L 384.423907 221.059416 
L 384.680652 222.34728 
L 385.194143 226.379939 
L 385.450888 231.43154 
L 385.707634 232.233761 
L 385.964379 233.643036 
L 386.221124 236.752063 
L 386.47787 235.004656 
L 386.734615 238.235094 
L 386.99136 239.158726 
L 387.248105 238.504017 
L 387.761596 234.766381 
L 388.018341 234.840137 
L 388.275087 233.214141 
L 388.531832 233.652129 
L 388.788577 237.125389 
L 389.045323 236.47068 
L 389.302068 233.023521 
L 389.558813 234.918439 
L 389.815559 232.8068 
L 390.072304 235.065951 
L 390.329049 235.989583 
L 390.585795 238.370145 
L 390.84254 239.050955 
L 391.099285 241.067285 
L 391.356031 237.741536 
L 391.612776 238.058114 
L 391.869521 238.010459 
L 392.126266 237.234339 
L 392.383012 237.186684 
L 392.639757 236.289153 
L 393.153248 231.094587 
L 393.409993 230.197056 
L 393.666738 230.149401 
L 393.923484 231.315854 
L 394.180229 233.332184 
L 395.463956 226.052079 
L 395.720701 226.8543 
L 395.977446 220.493281 
L 396.234192 221.416913 
L 396.490937 223.676064 
L 396.747682 224.721106 
L 397.004427 227.830134 
L 397.517918 219.478886 
L 397.774663 221.373804 
L 398.031409 217.319591 
L 398.288154 216.786293 
L 398.544899 215.888762 
L 398.801645 215.841107 
L 399.05839 217.614614 
L 399.315135 220.48082 
L 399.828626 228.641448 
L 400.085371 225.558521 
L 400.342117 225.389456 
L 400.598862 224.370514 
L 400.855607 224.201448 
L 401.112353 226.946242 
L 401.369098 226.412944 
L 401.625843 226.972343 
L 401.882588 224.010828 
L 402.396079 222.337177 
L 402.90957 228.798053 
L 403.166315 230.45015 
L 403.42306 234.773285 
L 403.679806 234.604219 
L 403.936551 235.042208 
L 404.193296 230.38094 
L 404.706787 234.53501 
L 404.963532 230.359386 
L 405.220278 230.068909 
L 405.477023 228.685735 
L 405.733768 228.516669 
L 406.247259 229.028413 
L 406.504004 229.102169 
L 406.760749 233.546716 
L 407.017495 230.949433 
L 407.787731 237.726886 
L 408.044476 238.407696 
L 408.301221 237.752987 
L 408.557967 237.826743 
L 408.814712 239.843072 
L 409.071457 238.945541 
L 409.328203 239.504941 
L 409.841693 244.023243 
L 410.098439 244.339821 
L 410.355184 243.320879 
L 410.611929 239.145255 
L 411.12542 246.091774 
L 411.382165 244.7086 
L 412.152401 253.428627 
L 412.409146 253.988026 
L 412.665892 257.582697 
L 412.922637 256.078112 
L 413.179382 253.60224 
L 413.436128 255.73998 
L 413.692873 253.62834 
L 413.949618 249.93836 
L 414.206364 250.012116 
L 414.463109 247.657654 
L 414.719854 246.760123 
L 414.9766 247.805166 
L 415.233345 246.543402 
L 415.49009 247.709856 
L 415.746836 247.662201 
L 416.260326 245.138674 
L 416.517071 249.218988 
L 416.773817 247.714402 
L 417.030562 248.516623 
L 417.287307 248.468968 
L 417.544053 249.3926 
L 417.800798 250.801875 
L 418.057543 249.904344 
L 418.314289 248.52117 
L 418.571034 250.294678 
L 418.827779 250.975488 
L 419.084525 250.442189 
L 419.34127 246.752209 
L 419.598015 248.040073 
L 419.854761 250.299224 
L 420.111506 243.816794 
L 420.368251 240.248224 
L 420.624997 238.257996 
L 420.881742 238.453162 
L 421.395232 232.40872 
L 421.651978 232.603887 
L 421.908723 232.192 
L 422.165468 231.051647 
L 422.935704 242.442713 
L 423.449195 243.197279 
L 423.70594 241.571283 
L 423.962686 241.523628 
L 424.219431 241.718794 
L 424.476176 243.977946 
L 424.989667 240.604542 
L 425.246412 238.978546 
L 425.503158 241.237698 
L 425.759903 239.490291 
L 426.016648 240.171101 
L 427.813865 231.702988 
L 428.070611 228.37724 
L 428.327356 230.879213 
L 428.584101 227.917698 
L 428.840847 229.448384 
L 429.097592 233.043054 
L 429.354337 231.174236 
L 429.611083 230.519527 
L 429.867828 232.414446 
L 430.124573 233.095256 
L 430.638064 229.964675 
L 430.894809 231.616771 
L 431.151554 231.933349 
L 431.4083 235.406609 
L 431.665045 234.630489 
L 431.92179 236.768229 
L 432.178536 235.263644 
L 432.435281 234.730345 
L 432.948772 236.941841 
L 433.205517 234.344558 
L 433.462262 236.846531 
L 433.719008 235.949 
L 434.232498 240.588714 
L 434.489244 238.234252 
L 434.745989 238.308008 
L 435.002734 236.074958 
L 435.25948 237.12 
L 435.516225 235.736826 
L 436.029715 242.197702 
L 436.286461 242.999923 
L 436.543206 241.738159 
L 436.799951 242.54038 
L 437.313442 248.272791 
L 437.570187 254.052857 
L 437.826933 251.941218 
L 438.340423 253.54566 
L 438.597169 252.89095 
L 438.853914 248.472505 
L 439.110659 252.674229 
L 439.367405 252.140931 
L 439.62415 249.422237 
L 439.880895 248.160474 
L 440.137641 248.112819 
L 440.394386 246.608233 
L 440.651131 243.646718 
L 441.164622 241.730245 
L 441.421367 244.232218 
L 441.678112 245.398671 
L 441.934858 240.858815 
L 442.191603 241.418214 
L 442.448348 240.399272 
L 442.705094 241.201493 
L 443.218584 244.262865 
L 443.47533 245.793551 
L 443.732075 243.924734 
L 443.98882 240.720396 
L 444.245566 241.644028 
L 444.502311 238.803924 
L 444.759056 239.484734 
L 445.015802 239.558489 
L 445.272547 239.268013 
L 445.529292 236.549319 
L 445.786037 240.14399 
L 446.042783 240.339156 
L 446.299528 245.997811 
L 446.556273 247.89273 
L 446.813019 248.209307 
L 447.069764 250.71128 
L 447.326509 251.634912 
L 447.583255 253.529831 
L 447.84 256.638858 
L 447.84 256.638858 
" style="fill:none;stroke:#4c72b0;stroke-linecap:round;stroke-width:1.75;"/>
   </g>
   <g id="patch_8">
    <path d="M 77.87 300.76 
L 77.87 192.224254 
" style="fill:none;"/>
   </g>
   <g id="patch_9">
    <path d="M 447.84 300.76 
L 447.84 192.224254 
" style="fill:none;"/>
   </g>
   <g id="patch_10">
    <path d="M 77.87 300.76 
L 447.84 300.76 
" style="fill:none;"/>
   </g>
   <g id="patch_11">
    <path d="M 77.87 192.224254 
L 447.84 192.224254 
" style="fill:none;"/>
   </g>
  </g>
  <g id="text_25">
   <!-- Lying flat and still (calibrated) -->
   <defs>
    <path d="M 9.8125 72.90625 
L 19.671875 72.90625 
L 19.671875 8.296875 
L 55.171875 8.296875 
L 55.171875 0 
L 9.8125 0 
z
" id="DejaVuSans-4c"/>
    <path d="M 32.171875 -5.078125 
Q 28.375 -14.84375 24.75 -17.8125 
Q 21.140625 -20.796875 15.09375 -20.796875 
L 7.90625 -20.796875 
L 7.90625 -13.28125 
L 13.1875 -13.28125 
Q 16.890625 -13.28125 18.9375 -11.515625 
Q 21 -9.765625 23.484375 -3.21875 
L 25.09375 0.875 
L 2.984375 54.6875 
L 12.5 54.6875 
L 29.59375 11.921875 
L 46.6875 54.6875 
L 56.203125 54.6875 
z
" id="DejaVuSans-79"/>
    <path d="M 37.109375 75.984375 
L 37.109375 68.5 
L 28.515625 68.5 
Q 23.6875 68.5 21.796875 66.546875 
Q 19.921875 64.59375 19.921875 59.515625 
L 19.921875 54.6875 
L 34.71875 54.6875 
L 34.71875 47.703125 
L 19.921875 47.703125 
L 19.921875 0 
L 10.890625 0 
L 10.890625 47.703125 
L 2.296875 47.703125 
L 2.296875 54.6875 
L 10.890625 54.6875 
L 10.890625 58.5 
Q 10.890625 67.625 15.140625 71.796875 
Q 19.390625 75.984375 28.609375 75.984375 
z
" id="DejaVuSans-66"/>
    <path d="M 48.6875 27.296875 
Q 48.6875 37.203125 44.609375 42.84375 
Q 40.53125 48.484375 33.40625 48.484375 
Q 26.265625 48.484375 22.1875 42.84375 
Q 18.109375 37.203125 18.109375 27.296875 
Q 18.109375 17.390625 22.1875 11.75 
Q 26.265625 6.109375 33.40625 6.109375 
Q 40.53125 6.109375 44.609375 11.75 
Q 48.6875 17.390625 48.6875 27.296875 
z
M 18.109375 46.390625 
Q 20.953125 51.265625 25.265625 53.625 
Q 29.59375 56 35.59375 56 
Q 45.5625 56 51.78125 48.09375 
Q 58.015625 40.1875 58.015625 27.296875 
Q 58.015625 14.40625 51.78125 6.484375 
Q 45.5625 -1.421875 35.59375 -1.421875 
Q 29.59375 -1.421875 25.265625 0.953125 
Q 20.953125 3.328125 18.109375 8.203125 
L 18.109375 0 
L 9.078125 0 
L 9.078125 75.984375 
L 18.109375 75.984375 
z
" id="DejaVuSans-62"/>
   </defs>
   <g style="fill:#262626;" transform="translate(122.203125 17.85375)scale(0.144 -0.144)">
    <use xlink:href="#DejaVuSans-4c"/>
    <use x="55.572266" xlink:href="#DejaVuSans-79"/>
    <use x="114.751953" xlink:href="#DejaVuSans-69"/>
    <use x="142.535156" xlink:href="#DejaVuSans-6e"/>
    <use x="205.914062" xlink:href="#DejaVuSans-67"/>
    <use x="269.390625" xlink:href="#DejaVuSans-20"/>
    <use x="301.177734" xlink:href="#DejaVuSans-66"/>
    <use x="336.382812" xlink:href="#DejaVuSans-6c"/>
    <use x="364.166016" xlink:href="#DejaVuSans-61"/>
    <use x="425.445312" xlink:href="#DejaVuSans-74"/>
    <use x="464.654297" xlink:href="#DejaVuSans-20"/>
    <use x="496.441406" xlink:href="#DejaVuSans-61"/>
    <use x="557.720703" xlink:href="#DejaVuSans-6e"/>
    <use x="621.099609" xlink:href="#DejaVuSans-64"/>
    <use x="684.576172" xlink:href="#DejaVuSans-20"/>
    <use x="716.363281" xlink:href="#DejaVuSans-73"/>
    <use x="768.462891" xlink:href="#DejaVuSans-74"/>
    <use x="807.671875" xlink:href="#DejaVuSans-69"/>
    <use x="835.455078" xlink:href="#DejaVuSans-6c"/>
    <use x="863.238281" xlink:href="#DejaVuSans-6c"/>
    <use x="891.021484" xlink:href="#DejaVuSans-20"/>
    <use x="922.808594" xlink:href="#DejaVuSans-28"/>
    <use x="961.822266" xlink:href="#DejaVuSans-63"/>
    <use x="1016.802734" xlink:href="#DejaVuSans-61"/>
    <use x="1078.082031" xlink:href="#DejaVuSans-6c"/>
    <use x="1105.865234" xlink:href="#DejaVuSans-69"/>
    <use x="1133.648438" xlink:href="#DejaVuSans-62"/>
    <use x="1197.125" xlink:href="#DejaVuSans-72"/>
    <use x="1238.238281" xlink:href="#DejaVuSans-61"/>
    <use x="1299.517578" xlink:href="#DejaVuSans-74"/>
    <use x="1338.726562" xlink:href="#DejaVuSans-65"/>
    <use x="1400.25" xlink:href="#DejaVuSans-64"/>
    <use x="1463.726562" xlink:href="#DejaVuSans-29"/>
   </g>
  </g>
 </g>
 <defs>
  <clipPath id="p0668243925">
   <rect height="108.535746" width="369.97" x="77.87" y="41.472"/>
  </clipPath>
  <clipPath id="paf7f154348">
   <rect height="108.535746" width="369.97" x="77.87" y="192.224254"/>
  </clipPath>
 </defs>
</svg>
