<?xml version="1.0" encoding="utf-8" standalone="no"?>
<!DOCTYPE svg PUBLIC "-//W3C//DTD SVG 1.1//EN"
  "http://www.w3.org/Graphics/SVG/1.1/DTD/svg11.dtd">
<!-- Created with matplotlib (http://matplotlib.org/) -->
<svg height="345pt" version="1.1" viewBox="0 0 460 345" width="460pt" xmlns="http://www.w3.org/2000/svg" xmlns:xlink="http://www.w3.org/1999/xlink">
 <defs>
  <style type="text/css">
*{stroke-linecap:butt;stroke-linejoin:round;}
  </style>
 </defs>
 <g id="figure_1">
  <g id="patch_1">
   <path d="M 0 345.6 
L 460.8 345.6 
L 460.8 0 
L 0 0 
z
" style="fill:#ffffff;"/>
  </g>
  <g id="axes_1">
   <g id="patch_2">
    <path d="M 53.75 300.76 
L 447.84 300.76 
L 447.84 27.6 
L 53.75 27.6 
z
" style="fill:#eaeaf2;"/>
   </g>
   <g id="matplotlib.axis_1">
    <g id="xtick_1">
     <g id="line2d_1">
      <path clip-path="url(#pc950688426)" d="M 53.75 300.76 
L 53.75 27.6 
" style="fill:none;stroke:#ffffff;stroke-linecap:round;"/>
     </g>
     <g id="line2d_2"/>
     <g id="text_1">
      <!-- 0.0 -->
      <defs>
       <path d="M 31.78125 66.40625 
Q 24.171875 66.40625 20.328125 58.90625 
Q 16.5 51.421875 16.5 36.375 
Q 16.5 21.390625 20.328125 13.890625 
Q 24.171875 6.390625 31.78125 6.390625 
Q 39.453125 6.390625 43.28125 13.890625 
Q 47.125 21.390625 47.125 36.375 
Q 47.125 51.421875 43.28125 58.90625 
Q 39.453125 66.40625 31.78125 66.40625 
z
M 31.78125 74.21875 
Q 44.046875 74.21875 50.515625 64.515625 
Q 56.984375 54.828125 56.984375 36.375 
Q 56.984375 17.96875 50.515625 8.265625 
Q 44.046875 -1.421875 31.78125 -1.421875 
Q 19.53125 -1.421875 13.0625 8.265625 
Q 6.59375 17.96875 6.59375 36.375 
Q 6.59375 54.828125 13.0625 64.515625 
Q 19.53125 74.21875 31.78125 74.21875 
z
" id="DejaVuSans-30"/>
       <path d="M 10.6875 12.40625 
L 21 12.40625 
L 21 0 
L 10.6875 0 
z
" id="DejaVuSans-2e"/>
      </defs>
      <g style="fill:#262626;" transform="translate(45.798438 315.358437)scale(0.1 -0.1)">
       <use xlink:href="#DejaVuSans-30"/>
       <use x="63.623047" xlink:href="#DejaVuSans-2e"/>
       <use x="95.410156" xlink:href="#DejaVuSans-30"/>
      </g>
     </g>
    </g>
    <g id="xtick_2">
     <g id="line2d_3">
      <path clip-path="url(#pc950688426)" d="M 120.963218 300.76 
L 120.963218 27.6 
" style="fill:none;stroke:#ffffff;stroke-linecap:round;"/>
     </g>
     <g id="line2d_4"/>
     <g id="text_2">
      <!-- 0.5 -->
      <defs>
       <path d="M 10.796875 72.90625 
L 49.515625 72.90625 
L 49.515625 64.59375 
L 19.828125 64.59375 
L 19.828125 46.734375 
Q 21.96875 47.46875 24.109375 47.828125 
Q 26.265625 48.1875 28.421875 48.1875 
Q 40.625 48.1875 47.75 41.5 
Q 54.890625 34.8125 54.890625 23.390625 
Q 54.890625 11.625 47.5625 5.09375 
Q 40.234375 -1.421875 26.90625 -1.421875 
Q 22.3125 -1.421875 17.546875 -0.640625 
Q 12.796875 0.140625 7.71875 1.703125 
L 7.71875 11.625 
Q 12.109375 9.234375 16.796875 8.0625 
Q 21.484375 6.890625 26.703125 6.890625 
Q 35.15625 6.890625 40.078125 11.328125 
Q 45.015625 15.765625 45.015625 23.390625 
Q 45.015625 31 40.078125 35.4375 
Q 35.15625 39.890625 26.703125 39.890625 
Q 22.75 39.890625 18.8125 39.015625 
Q 14.890625 38.140625 10.796875 36.28125 
z
" id="DejaVuSans-35"/>
      </defs>
      <g style="fill:#262626;" transform="translate(113.011655 315.358437)scale(0.1 -0.1)">
       <use xlink:href="#DejaVuSans-30"/>
       <use x="63.623047" xlink:href="#DejaVuSans-2e"/>
       <use x="95.410156" xlink:href="#DejaVuSans-35"/>
      </g>
     </g>
    </g>
    <g id="xtick_3">
     <g id="line2d_5">
      <path clip-path="url(#pc950688426)" d="M 188.176436 300.76 
L 188.176436 27.6 
" style="fill:none;stroke:#ffffff;stroke-linecap:round;"/>
     </g>
     <g id="line2d_6"/>
     <g id="text_3">
      <!-- 1.0 -->
      <defs>
       <path d="M 12.40625 8.296875 
L 28.515625 8.296875 
L 28.515625 63.921875 
L 10.984375 60.40625 
L 10.984375 69.390625 
L 28.421875 72.90625 
L 38.28125 72.90625 
L 38.28125 8.296875 
L 54.390625 8.296875 
L 54.390625 0 
L 12.40625 0 
z
" id="DejaVuSans-31"/>
      </defs>
      <g style="fill:#262626;" transform="translate(180.224873 315.358437)scale(0.1 -0.1)">
       <use xlink:href="#DejaVuSans-31"/>
       <use x="63.623047" xlink:href="#DejaVuSans-2e"/>
       <use x="95.410156" xlink:href="#DejaVuSans-30"/>
      </g>
     </g>
    </g>
    <g id="xtick_4">
     <g id="line2d_7">
      <path clip-path="url(#pc950688426)" d="M 255.389654 300.76 
L 255.389654 27.6 
" style="fill:none;stroke:#ffffff;stroke-linecap:round;"/>
     </g>
     <g id="line2d_8"/>
     <g id="text_4">
      <!-- 1.5 -->
      <g style="fill:#262626;" transform="translate(247.438091 315.358437)scale(0.1 -0.1)">
       <use xlink:href="#DejaVuSans-31"/>
       <use x="63.623047" xlink:href="#DejaVuSans-2e"/>
       <use x="95.410156" xlink:href="#DejaVuSans-35"/>
      </g>
     </g>
    </g>
    <g id="xtick_5">
     <g id="line2d_9">
      <path clip-path="url(#pc950688426)" d="M 322.602871 300.76 
L 322.602871 27.6 
" style="fill:none;stroke:#ffffff;stroke-linecap:round;"/>
     </g>
     <g id="line2d_10"/>
     <g id="text_5">
      <!-- 2.0 -->
      <defs>
       <path d="M 19.1875 8.296875 
L 53.609375 8.296875 
L 53.609375 0 
L 7.328125 0 
L 7.328125 8.296875 
Q 12.9375 14.109375 22.625 23.890625 
Q 32.328125 33.6875 34.8125 36.53125 
Q 39.546875 41.84375 41.421875 45.53125 
Q 43.3125 49.21875 43.3125 52.78125 
Q 43.3125 58.59375 39.234375 62.25 
Q 35.15625 65.921875 28.609375 65.921875 
Q 23.96875 65.921875 18.8125 64.3125 
Q 13.671875 62.703125 7.8125 59.421875 
L 7.8125 69.390625 
Q 13.765625 71.78125 18.9375 73 
Q 24.125 74.21875 28.421875 74.21875 
Q 39.75 74.21875 46.484375 68.546875 
Q 53.21875 62.890625 53.21875 53.421875 
Q 53.21875 48.921875 51.53125 44.890625 
Q 49.859375 40.875 45.40625 35.40625 
Q 44.1875 33.984375 37.640625 27.21875 
Q 31.109375 20.453125 19.1875 8.296875 
z
" id="DejaVuSans-32"/>
      </defs>
      <g style="fill:#262626;" transform="translate(314.651309 315.358437)scale(0.1 -0.1)">
       <use xlink:href="#DejaVuSans-32"/>
       <use x="63.623047" xlink:href="#DejaVuSans-2e"/>
       <use x="95.410156" xlink:href="#DejaVuSans-30"/>
      </g>
     </g>
    </g>
    <g id="xtick_6">
     <g id="line2d_11">
      <path clip-path="url(#pc950688426)" d="M 389.816089 300.76 
L 389.816089 27.6 
" style="fill:none;stroke:#ffffff;stroke-linecap:round;"/>
     </g>
     <g id="line2d_12"/>
     <g id="text_6">
      <!-- 2.5 -->
      <g style="fill:#262626;" transform="translate(381.864527 315.358437)scale(0.1 -0.1)">
       <use xlink:href="#DejaVuSans-32"/>
       <use x="63.623047" xlink:href="#DejaVuSans-2e"/>
       <use x="95.410156" xlink:href="#DejaVuSans-35"/>
      </g>
     </g>
    </g>
    <g id="text_7">
     <!-- Time (seconds) -->
     <defs>
      <path d="M -0.296875 72.90625 
L 61.375 72.90625 
L 61.375 64.59375 
L 35.5 64.59375 
L 35.5 0 
L 25.59375 0 
L 25.59375 64.59375 
L -0.296875 64.59375 
z
" id="DejaVuSans-54"/>
      <path d="M 9.421875 54.6875 
L 18.40625 54.6875 
L 18.40625 0 
L 9.421875 0 
z
M 9.421875 75.984375 
L 18.40625 75.984375 
L 18.40625 64.59375 
L 9.421875 64.59375 
z
" id="DejaVuSans-69"/>
      <path d="M 52 44.1875 
Q 55.375 50.25 60.0625 53.125 
Q 64.75 56 71.09375 56 
Q 79.640625 56 84.28125 50.015625 
Q 88.921875 44.046875 88.921875 33.015625 
L 88.921875 0 
L 79.890625 0 
L 79.890625 32.71875 
Q 79.890625 40.578125 77.09375 44.375 
Q 74.3125 48.1875 68.609375 48.1875 
Q 61.625 48.1875 57.5625 43.546875 
Q 53.515625 38.921875 53.515625 30.90625 
L 53.515625 0 
L 44.484375 0 
L 44.484375 32.71875 
Q 44.484375 40.625 41.703125 44.40625 
Q 38.921875 48.1875 33.109375 48.1875 
Q 26.21875 48.1875 22.15625 43.53125 
Q 18.109375 38.875 18.109375 30.90625 
L 18.109375 0 
L 9.078125 0 
L 9.078125 54.6875 
L 18.109375 54.6875 
L 18.109375 46.1875 
Q 21.1875 51.21875 25.484375 53.609375 
Q 29.78125 56 35.6875 56 
Q 41.65625 56 45.828125 52.96875 
Q 50 49.953125 52 44.1875 
z
" id="DejaVuSans-6d"/>
      <path d="M 56.203125 29.59375 
L 56.203125 25.203125 
L 14.890625 25.203125 
Q 15.484375 15.921875 20.484375 11.0625 
Q 25.484375 6.203125 34.421875 6.203125 
Q 39.59375 6.203125 44.453125 7.46875 
Q 49.3125 8.734375 54.109375 11.28125 
L 54.109375 2.78125 
Q 49.265625 0.734375 44.1875 -0.34375 
Q 39.109375 -1.421875 33.890625 -1.421875 
Q 20.796875 -1.421875 13.15625 6.1875 
Q 5.515625 13.8125 5.515625 26.8125 
Q 5.515625 40.234375 12.765625 48.109375 
Q 20.015625 56 32.328125 56 
Q 43.359375 56 49.78125 48.890625 
Q 56.203125 41.796875 56.203125 29.59375 
z
M 47.21875 32.234375 
Q 47.125 39.59375 43.09375 43.984375 
Q 39.0625 48.390625 32.421875 48.390625 
Q 24.90625 48.390625 20.390625 44.140625 
Q 15.875 39.890625 15.1875 32.171875 
z
" id="DejaVuSans-65"/>
      <path id="DejaVuSans-20"/>
      <path d="M 31 75.875 
Q 24.46875 64.65625 21.28125 53.65625 
Q 18.109375 42.671875 18.109375 31.390625 
Q 18.109375 20.125 21.3125 9.0625 
Q 24.515625 -2 31 -13.1875 
L 23.1875 -13.1875 
Q 15.875 -1.703125 12.234375 9.375 
Q 8.59375 20.453125 8.59375 31.390625 
Q 8.59375 42.28125 12.203125 53.3125 
Q 15.828125 64.359375 23.1875 75.875 
z
" id="DejaVuSans-28"/>
      <path d="M 44.28125 53.078125 
L 44.28125 44.578125 
Q 40.484375 46.53125 36.375 47.5 
Q 32.28125 48.484375 27.875 48.484375 
Q 21.1875 48.484375 17.84375 46.4375 
Q 14.5 44.390625 14.5 40.28125 
Q 14.5 37.15625 16.890625 35.375 
Q 19.28125 33.59375 26.515625 31.984375 
L 29.59375 31.296875 
Q 39.15625 29.25 43.1875 25.515625 
Q 47.21875 21.78125 47.21875 15.09375 
Q 47.21875 7.46875 41.1875 3.015625 
Q 35.15625 -1.421875 24.609375 -1.421875 
Q 20.21875 -1.421875 15.453125 -0.5625 
Q 10.6875 0.296875 5.421875 2 
L 5.421875 11.28125 
Q 10.40625 8.6875 15.234375 7.390625 
Q 20.0625 6.109375 24.8125 6.109375 
Q 31.15625 6.109375 34.5625 8.28125 
Q 37.984375 10.453125 37.984375 14.40625 
Q 37.984375 18.0625 35.515625 20.015625 
Q 33.0625 21.96875 24.703125 23.78125 
L 21.578125 24.515625 
Q 13.234375 26.265625 9.515625 29.90625 
Q 5.8125 33.546875 5.8125 39.890625 
Q 5.8125 47.609375 11.28125 51.796875 
Q 16.75 56 26.8125 56 
Q 31.78125 56 36.171875 55.265625 
Q 40.578125 54.546875 44.28125 53.078125 
z
" id="DejaVuSans-73"/>
      <path d="M 48.78125 52.59375 
L 48.78125 44.1875 
Q 44.96875 46.296875 41.140625 47.34375 
Q 37.3125 48.390625 33.40625 48.390625 
Q 24.65625 48.390625 19.8125 42.84375 
Q 14.984375 37.3125 14.984375 27.296875 
Q 14.984375 17.28125 19.8125 11.734375 
Q 24.65625 6.203125 33.40625 6.203125 
Q 37.3125 6.203125 41.140625 7.25 
Q 44.96875 8.296875 48.78125 10.40625 
L 48.78125 2.09375 
Q 45.015625 0.34375 40.984375 -0.53125 
Q 36.96875 -1.421875 32.421875 -1.421875 
Q 20.0625 -1.421875 12.78125 6.34375 
Q 5.515625 14.109375 5.515625 27.296875 
Q 5.515625 40.671875 12.859375 48.328125 
Q 20.21875 56 33.015625 56 
Q 37.15625 56 41.109375 55.140625 
Q 45.0625 54.296875 48.78125 52.59375 
z
" id="DejaVuSans-63"/>
      <path d="M 30.609375 48.390625 
Q 23.390625 48.390625 19.1875 42.75 
Q 14.984375 37.109375 14.984375 27.296875 
Q 14.984375 17.484375 19.15625 11.84375 
Q 23.34375 6.203125 30.609375 6.203125 
Q 37.796875 6.203125 41.984375 11.859375 
Q 46.1875 17.53125 46.1875 27.296875 
Q 46.1875 37.015625 41.984375 42.703125 
Q 37.796875 48.390625 30.609375 48.390625 
z
M 30.609375 56 
Q 42.328125 56 49.015625 48.375 
Q 55.71875 40.765625 55.71875 27.296875 
Q 55.71875 13.875 49.015625 6.21875 
Q 42.328125 -1.421875 30.609375 -1.421875 
Q 18.84375 -1.421875 12.171875 6.21875 
Q 5.515625 13.875 5.515625 27.296875 
Q 5.515625 40.765625 12.171875 48.375 
Q 18.84375 56 30.609375 56 
z
" id="DejaVuSans-6f"/>
      <path d="M 54.890625 33.015625 
L 54.890625 0 
L 45.90625 0 
L 45.90625 32.71875 
Q 45.90625 40.484375 42.875 44.328125 
Q 39.84375 48.1875 33.796875 48.1875 
Q 26.515625 48.1875 22.3125 43.546875 
Q 18.109375 38.921875 18.109375 30.90625 
L 18.109375 0 
L 9.078125 0 
L 9.078125 54.6875 
L 18.109375 54.6875 
L 18.109375 46.1875 
Q 21.34375 51.125 25.703125 53.5625 
Q 30.078125 56 35.796875 56 
Q 45.21875 56 50.046875 50.171875 
Q 54.890625 44.34375 54.890625 33.015625 
z
" id="DejaVuSans-6e"/>
      <path d="M 45.40625 46.390625 
L 45.40625 75.984375 
L 54.390625 75.984375 
L 54.390625 0 
L 45.40625 0 
L 45.40625 8.203125 
Q 42.578125 3.328125 38.25 0.953125 
Q 33.9375 -1.421875 27.875 -1.421875 
Q 17.96875 -1.421875 11.734375 6.484375 
Q 5.515625 14.40625 5.515625 27.296875 
Q 5.515625 40.1875 11.734375 48.09375 
Q 17.96875 56 27.875 56 
Q 33.9375 56 38.25 53.625 
Q 42.578125 51.265625 45.40625 46.390625 
z
M 14.796875 27.296875 
Q 14.796875 17.390625 18.875 11.75 
Q 22.953125 6.109375 30.078125 6.109375 
Q 37.203125 6.109375 41.296875 11.75 
Q 45.40625 17.390625 45.40625 27.296875 
Q 45.40625 37.203125 41.296875 42.84375 
Q 37.203125 48.484375 30.078125 48.484375 
Q 22.953125 48.484375 18.875 42.84375 
Q 14.796875 37.203125 14.796875 27.296875 
z
" id="DejaVuSans-64"/>
      <path d="M 8.015625 75.875 
L 15.828125 75.875 
Q 23.140625 64.359375 26.78125 53.3125 
Q 30.421875 42.28125 30.421875 31.390625 
Q 30.421875 20.453125 26.78125 9.375 
Q 23.140625 -1.703125 15.828125 -13.1875 
L 8.015625 -13.1875 
Q 14.5 -2 17.703125 9.0625 
Q 20.90625 20.125 20.90625 31.390625 
Q 20.90625 42.671875 17.703125 53.65625 
Q 14.5 64.65625 8.015625 75.875 
z
" id="DejaVuSans-29"/>
     </defs>
     <g style="fill:#262626;" transform="translate(208.647813 329.796406)scale(0.11 -0.11)">
      <use xlink:href="#DejaVuSans-54"/>
      <use x="61.037109" xlink:href="#DejaVuSans-69"/>
      <use x="88.820312" xlink:href="#DejaVuSans-6d"/>
      <use x="186.232422" xlink:href="#DejaVuSans-65"/>
      <use x="247.755859" xlink:href="#DejaVuSans-20"/>
      <use x="279.542969" xlink:href="#DejaVuSans-28"/>
      <use x="318.556641" xlink:href="#DejaVuSans-73"/>
      <use x="370.65625" xlink:href="#DejaVuSans-65"/>
      <use x="432.179688" xlink:href="#DejaVuSans-63"/>
      <use x="487.160156" xlink:href="#DejaVuSans-6f"/>
      <use x="548.341797" xlink:href="#DejaVuSans-6e"/>
      <use x="611.720703" xlink:href="#DejaVuSans-64"/>
      <use x="675.197266" xlink:href="#DejaVuSans-73"/>
      <use x="727.296875" xlink:href="#DejaVuSans-29"/>
     </g>
    </g>
   </g>
   <g id="matplotlib.axis_2">
    <g id="ytick_1">
     <g id="line2d_13">
      <path clip-path="url(#pc950688426)" d="M 53.75 293.124968 
L 447.84 293.124968 
" style="fill:none;stroke:#ffffff;stroke-linecap:round;"/>
     </g>
     <g id="line2d_14"/>
     <g id="text_8">
      <!-- 0 -->
      <g style="fill:#262626;" transform="translate(40.3875 296.924187)scale(0.1 -0.1)">
       <use xlink:href="#DejaVuSans-30"/>
      </g>
     </g>
    </g>
    <g id="ytick_2">
     <g id="line2d_15">
      <path clip-path="url(#pc950688426)" d="M 53.75 240.290093 
L 447.84 240.290093 
" style="fill:none;stroke:#ffffff;stroke-linecap:round;"/>
     </g>
     <g id="line2d_16"/>
     <g id="text_9">
      <!-- 20 -->
      <g style="fill:#262626;" transform="translate(34.025 244.089312)scale(0.1 -0.1)">
       <use xlink:href="#DejaVuSans-32"/>
       <use x="63.623047" xlink:href="#DejaVuSans-30"/>
      </g>
     </g>
    </g>
    <g id="ytick_3">
     <g id="line2d_17">
      <path clip-path="url(#pc950688426)" d="M 53.75 187.455219 
L 447.84 187.455219 
" style="fill:none;stroke:#ffffff;stroke-linecap:round;"/>
     </g>
     <g id="line2d_18"/>
     <g id="text_10">
      <!-- 40 -->
      <defs>
       <path d="M 37.796875 64.3125 
L 12.890625 25.390625 
L 37.796875 25.390625 
z
M 35.203125 72.90625 
L 47.609375 72.90625 
L 47.609375 25.390625 
L 58.015625 25.390625 
L 58.015625 17.1875 
L 47.609375 17.1875 
L 47.609375 0 
L 37.796875 0 
L 37.796875 17.1875 
L 4.890625 17.1875 
L 4.890625 26.703125 
z
" id="DejaVuSans-34"/>
      </defs>
      <g style="fill:#262626;" transform="translate(34.025 191.254437)scale(0.1 -0.1)">
       <use xlink:href="#DejaVuSans-34"/>
       <use x="63.623047" xlink:href="#DejaVuSans-30"/>
      </g>
     </g>
    </g>
    <g id="ytick_4">
     <g id="line2d_19">
      <path clip-path="url(#pc950688426)" d="M 53.75 134.620344 
L 447.84 134.620344 
" style="fill:none;stroke:#ffffff;stroke-linecap:round;"/>
     </g>
     <g id="line2d_20"/>
     <g id="text_11">
      <!-- 60 -->
      <defs>
       <path d="M 33.015625 40.375 
Q 26.375 40.375 22.484375 35.828125 
Q 18.609375 31.296875 18.609375 23.390625 
Q 18.609375 15.53125 22.484375 10.953125 
Q 26.375 6.390625 33.015625 6.390625 
Q 39.65625 6.390625 43.53125 10.953125 
Q 47.40625 15.53125 47.40625 23.390625 
Q 47.40625 31.296875 43.53125 35.828125 
Q 39.65625 40.375 33.015625 40.375 
z
M 52.59375 71.296875 
L 52.59375 62.3125 
Q 48.875 64.0625 45.09375 64.984375 
Q 41.3125 65.921875 37.59375 65.921875 
Q 27.828125 65.921875 22.671875 59.328125 
Q 17.53125 52.734375 16.796875 39.40625 
Q 19.671875 43.65625 24.015625 45.921875 
Q 28.375 48.1875 33.59375 48.1875 
Q 44.578125 48.1875 50.953125 41.515625 
Q 57.328125 34.859375 57.328125 23.390625 
Q 57.328125 12.15625 50.6875 5.359375 
Q 44.046875 -1.421875 33.015625 -1.421875 
Q 20.359375 -1.421875 13.671875 8.265625 
Q 6.984375 17.96875 6.984375 36.375 
Q 6.984375 53.65625 15.1875 63.9375 
Q 23.390625 74.21875 37.203125 74.21875 
Q 40.921875 74.21875 44.703125 73.484375 
Q 48.484375 72.75 52.59375 71.296875 
z
" id="DejaVuSans-36"/>
      </defs>
      <g style="fill:#262626;" transform="translate(34.025 138.419563)scale(0.1 -0.1)">
       <use xlink:href="#DejaVuSans-36"/>
       <use x="63.623047" xlink:href="#DejaVuSans-30"/>
      </g>
     </g>
    </g>
    <g id="ytick_5">
     <g id="line2d_21">
      <path clip-path="url(#pc950688426)" d="M 53.75 81.785469 
L 447.84 81.785469 
" style="fill:none;stroke:#ffffff;stroke-linecap:round;"/>
     </g>
     <g id="line2d_22"/>
     <g id="text_12">
      <!-- 80 -->
      <defs>
       <path d="M 31.78125 34.625 
Q 24.75 34.625 20.71875 30.859375 
Q 16.703125 27.09375 16.703125 20.515625 
Q 16.703125 13.921875 20.71875 10.15625 
Q 24.75 6.390625 31.78125 6.390625 
Q 38.8125 6.390625 42.859375 10.171875 
Q 46.921875 13.96875 46.921875 20.515625 
Q 46.921875 27.09375 42.890625 30.859375 
Q 38.875 34.625 31.78125 34.625 
z
M 21.921875 38.8125 
Q 15.578125 40.375 12.03125 44.71875 
Q 8.5 49.078125 8.5 55.328125 
Q 8.5 64.0625 14.71875 69.140625 
Q 20.953125 74.21875 31.78125 74.21875 
Q 42.671875 74.21875 48.875 69.140625 
Q 55.078125 64.0625 55.078125 55.328125 
Q 55.078125 49.078125 51.53125 44.71875 
Q 48 40.375 41.703125 38.8125 
Q 48.828125 37.15625 52.796875 32.3125 
Q 56.78125 27.484375 56.78125 20.515625 
Q 56.78125 9.90625 50.3125 4.234375 
Q 43.84375 -1.421875 31.78125 -1.421875 
Q 19.734375 -1.421875 13.25 4.234375 
Q 6.78125 9.90625 6.78125 20.515625 
Q 6.78125 27.484375 10.78125 32.3125 
Q 14.796875 37.15625 21.921875 38.8125 
z
M 18.3125 54.390625 
Q 18.3125 48.734375 21.84375 45.5625 
Q 25.390625 42.390625 31.78125 42.390625 
Q 38.140625 42.390625 41.71875 45.5625 
Q 45.3125 48.734375 45.3125 54.390625 
Q 45.3125 60.0625 41.71875 63.234375 
Q 38.140625 66.40625 31.78125 66.40625 
Q 25.390625 66.40625 21.84375 63.234375 
Q 18.3125 60.0625 18.3125 54.390625 
z
" id="DejaVuSans-38"/>
      </defs>
      <g style="fill:#262626;" transform="translate(34.025 85.584688)scale(0.1 -0.1)">
       <use xlink:href="#DejaVuSans-38"/>
       <use x="63.623047" xlink:href="#DejaVuSans-30"/>
      </g>
     </g>
    </g>
    <g id="ytick_6">
     <g id="line2d_23">
      <path clip-path="url(#pc950688426)" d="M 53.75 28.950595 
L 447.84 28.950595 
" style="fill:none;stroke:#ffffff;stroke-linecap:round;"/>
     </g>
     <g id="line2d_24"/>
     <g id="text_13">
      <!-- 100 -->
      <g style="fill:#262626;" transform="translate(27.6625 32.749813)scale(0.1 -0.1)">
       <use xlink:href="#DejaVuSans-31"/>
       <use x="63.623047" xlink:href="#DejaVuSans-30"/>
       <use x="127.246094" xlink:href="#DejaVuSans-30"/>
      </g>
     </g>
    </g>
    <g id="text_14">
     <!-- Tilt (degrees) -->
     <defs>
      <path d="M 9.421875 75.984375 
L 18.40625 75.984375 
L 18.40625 0 
L 9.421875 0 
z
" id="DejaVuSans-6c"/>
      <path d="M 18.3125 70.21875 
L 18.3125 54.6875 
L 36.8125 54.6875 
L 36.8125 47.703125 
L 18.3125 47.703125 
L 18.3125 18.015625 
Q 18.3125 11.328125 20.140625 9.421875 
Q 21.96875 7.515625 27.59375 7.515625 
L 36.8125 7.515625 
L 36.8125 0 
L 27.59375 0 
Q 17.1875 0 13.234375 3.875 
Q 9.28125 7.765625 9.28125 18.015625 
L 9.28125 47.703125 
L 2.6875 47.703125 
L 2.6875 54.6875 
L 9.28125 54.6875 
L 9.28125 70.21875 
z
" id="DejaVuSans-74"/>
      <path d="M 45.40625 27.984375 
Q 45.40625 37.75 41.375 43.109375 
Q 37.359375 48.484375 30.078125 48.484375 
Q 22.859375 48.484375 18.828125 43.109375 
Q 14.796875 37.75 14.796875 27.984375 
Q 14.796875 18.265625 18.828125 12.890625 
Q 22.859375 7.515625 30.078125 7.515625 
Q 37.359375 7.515625 41.375 12.890625 
Q 45.40625 18.265625 45.40625 27.984375 
z
M 54.390625 6.78125 
Q 54.390625 -7.171875 48.1875 -13.984375 
Q 42 -20.796875 29.203125 -20.796875 
Q 24.46875 -20.796875 20.265625 -20.09375 
Q 16.0625 -19.390625 12.109375 -17.921875 
L 12.109375 -9.1875 
Q 16.0625 -11.328125 19.921875 -12.34375 
Q 23.78125 -13.375 27.78125 -13.375 
Q 36.625 -13.375 41.015625 -8.765625 
Q 45.40625 -4.15625 45.40625 5.171875 
L 45.40625 9.625 
Q 42.625 4.78125 38.28125 2.390625 
Q 33.9375 0 27.875 0 
Q 17.828125 0 11.671875 7.65625 
Q 5.515625 15.328125 5.515625 27.984375 
Q 5.515625 40.671875 11.671875 48.328125 
Q 17.828125 56 27.875 56 
Q 33.9375 56 38.28125 53.609375 
Q 42.625 51.21875 45.40625 46.390625 
L 45.40625 54.6875 
L 54.390625 54.6875 
z
" id="DejaVuSans-67"/>
      <path d="M 41.109375 46.296875 
Q 39.59375 47.171875 37.8125 47.578125 
Q 36.03125 48 33.890625 48 
Q 26.265625 48 22.1875 43.046875 
Q 18.109375 38.09375 18.109375 28.8125 
L 18.109375 0 
L 9.078125 0 
L 9.078125 54.6875 
L 18.109375 54.6875 
L 18.109375 46.1875 
Q 20.953125 51.171875 25.484375 53.578125 
Q 30.03125 56 36.53125 56 
Q 37.453125 56 38.578125 55.875 
Q 39.703125 55.765625 41.0625 55.515625 
z
" id="DejaVuSans-72"/>
     </defs>
     <g style="fill:#262626;" transform="translate(21.374844 201.048906)rotate(-90)scale(0.11 -0.11)">
      <use xlink:href="#DejaVuSans-54"/>
      <use x="61.037109" xlink:href="#DejaVuSans-69"/>
      <use x="88.820312" xlink:href="#DejaVuSans-6c"/>
      <use x="116.603516" xlink:href="#DejaVuSans-74"/>
      <use x="155.8125" xlink:href="#DejaVuSans-20"/>
      <use x="187.599609" xlink:href="#DejaVuSans-28"/>
      <use x="226.613281" xlink:href="#DejaVuSans-64"/>
      <use x="290.089844" xlink:href="#DejaVuSans-65"/>
      <use x="351.613281" xlink:href="#DejaVuSans-67"/>
      <use x="415.089844" xlink:href="#DejaVuSans-72"/>
      <use x="456.171875" xlink:href="#DejaVuSans-65"/>
      <use x="517.695312" xlink:href="#DejaVuSans-65"/>
      <use x="579.21875" xlink:href="#DejaVuSans-73"/>
      <use x="631.318359" xlink:href="#DejaVuSans-29"/>
     </g>
    </g>
   </g>
   <g id="line2d_25">
    <path clip-path="url(#pc950688426)" d="M 53.75 284.67583 
L 54.537655 272.311274 
L 55.062758 263.516233 
L 55.587861 266.221598 
L 56.112965 273.276819 
L 56.375516 274.029555 
L 57.163171 282.715231 
L 57.950826 284.154427 
L 58.213378 283.982022 
L 59.001033 285.132364 
L 59.263584 284.647441 
L 59.526136 285.054718 
L 59.788688 284.642985 
L 60.313791 284.904352 
L 60.576342 285.313275 
L 61.101446 284.946976 
L 61.626549 284.584377 
L 61.889101 283.909965 
L 62.414204 283.925475 
L 62.676755 284.062958 
L 62.939307 285.45411 
L 63.46441 283.481784 
L 63.989514 282.592133 
L 64.252065 281.604816 
L 64.514617 282.788561 
L 65.03972 281.804052 
L 65.564823 283.401707 
L 65.827375 285.144782 
L 66.089927 285.549295 
L 66.352478 286.699768 
L 66.877582 285.892687 
L 67.140133 284.869215 
L 67.402685 282.836105 
L 67.927788 281.641043 
L 68.19034 280.849828 
L 68.452891 281.587308 
L 68.715443 281.899833 
L 68.977995 281.495623 
L 69.503098 283.868743 
L 69.76565 284.624159 
L 70.028201 285.836608 
L 70.553304 290.256487 
L 70.815856 291.394976 
L 71.078408 291.178063 
L 72.128614 284.76838 
L 72.391166 285.226125 
L 72.653718 285.182645 
L 72.916269 285.612569 
L 73.178821 286.835169 
L 73.703924 286.859872 
L 73.966476 287.607614 
L 74.229027 287.823813 
L 74.491579 287.746923 
L 74.754131 288.588242 
L 75.016682 288.647676 
L 75.541785 288.143036 
L 76.066889 288.477957 
L 76.32944 287.911908 
L 76.591992 285.591231 
L 76.854544 286.716905 
L 77.117095 286.546476 
L 77.642199 284.494207 
L 77.90475 282.502037 
L 78.167302 281.531816 
L 78.429853 281.744744 
L 78.692405 281.299342 
L 78.954957 282.076205 
L 79.48006 286.484319 
L 79.742612 287.032664 
L 80.005163 289.067371 
L 80.267715 290.119505 
L 80.530266 290.379766 
L 80.792818 290.942031 
L 81.05537 290.581 
L 81.317921 290.795907 
L 81.580473 292.147935 
L 82.105576 288.918278 
L 82.368128 285.044673 
L 82.63068 285.599195 
L 83.155783 280.82021 
L 83.418334 279.657322 
L 83.680886 277.690061 
L 84.205989 282.261513 
L 84.468541 285.88914 
L 84.731093 286.716592 
L 84.993644 285.290676 
L 85.256196 286.024601 
L 85.518748 285.780484 
L 85.781299 286.153508 
L 86.043851 284.054976 
L 86.306402 283.22157 
L 86.568954 281.387807 
L 86.831506 280.570496 
L 87.881712 283.988123 
L 88.144264 283.252102 
L 88.406815 283.502672 
L 88.669367 282.289896 
L 88.931919 281.783297 
L 89.19447 281.762897 
L 89.457022 281.307888 
L 89.719574 282.515681 
L 89.982125 284.887161 
L 90.507229 286.805477 
L 90.76978 285.509772 
L 91.032332 281.701583 
L 91.557435 284.962053 
L 91.819987 286.276312 
L 92.082538 289.064947 
L 92.607642 286.810046 
L 92.870193 286.720045 
L 93.132745 286.983352 
L 93.395296 288.132848 
L 93.657848 291.44813 
L 94.182951 293.522031 
L 94.445503 293.526881 
L 94.708055 291.417047 
L 94.970606 290.325231 
L 96.283364 278.165607 
L 96.545916 278.879554 
L 96.808468 278.414285 
L 97.071019 279.413524 
L 97.333571 281.19029 
L 97.596123 280.34966 
L 97.858674 282.043145 
L 98.121226 282.848256 
L 98.383777 284.500045 
L 98.646329 282.429361 
L 98.908881 283.836575 
L 99.171432 283.429858 
L 99.433984 284.806946 
L 99.696536 283.425499 
L 100.221639 282.242645 
L 100.484191 282.47941 
L 100.746742 281.825946 
L 101.009294 280.640658 
L 101.271845 280.04793 
L 101.534397 280.337179 
L 101.796949 277.759088 
L 102.0595 276.49145 
L 102.322052 278.187041 
L 102.847155 279.37776 
L 103.109707 280.540647 
L 103.372258 281.088237 
L 103.63481 281.195075 
L 103.897362 280.634253 
L 104.159913 281.448429 
L 104.685017 282.05186 
L 105.21012 283.242663 
L 105.472672 282.706791 
L 105.735223 282.818239 
L 105.997775 283.73717 
L 106.260326 282.769119 
L 106.78543 283.687056 
L 107.310533 284.872131 
L 107.573085 285.489782 
L 107.835636 285.2025 
L 108.098188 286.384087 
L 108.36074 286.233391 
L 108.623291 285.815822 
L 108.885843 286.442852 
L 109.148394 280.942134 
L 109.410946 266.405138 
L 109.936049 272.459562 
L 110.723704 294.500242 
L 110.986256 298.400004 
L 111.248807 300.370742 
L 111.511359 300.76 
L 111.773911 299.238075 
L 112.036462 296.999824 
L 112.561566 294.755433 
L 112.824117 292.767892 
L 113.086669 291.89248 
L 114.136875 284.909046 
L 114.92453 282.223728 
L 115.187082 282.482249 
L 115.449634 281.279243 
L 115.974737 277.641095 
L 116.237288 274.706468 
L 116.49984 273.189574 
L 116.762392 274.001109 
L 117.024943 275.715583 
L 117.550047 281.732127 
L 118.07515 284.814407 
L 118.862805 290.06759 
L 119.125356 291.140323 
L 119.387908 290.765414 
L 119.65046 291.641389 
L 119.913011 291.547035 
L 120.175563 291.156001 
L 120.438115 292.035348 
L 120.700666 291.498588 
L 120.963218 291.579807 
L 121.225769 289.927425 
L 121.488321 289.336956 
L 121.750873 289.212359 
L 122.275976 283.392203 
L 122.538528 283.061961 
L 122.801079 281.729025 
L 123.063631 279.68076 
L 123.326183 274.796184 
L 123.588734 273.238938 
L 123.851286 269.811499 
L 124.113837 271.605773 
L 124.376389 274.534293 
L 124.901492 281.969193 
L 125.164044 284.567621 
L 125.426596 285.517113 
L 125.689147 285.703474 
L 126.21425 283.461255 
L 126.476802 283.274072 
L 126.739354 283.757752 
L 127.001905 283.150768 
L 127.264457 282.829106 
L 127.527009 281.903829 
L 127.78956 282.587496 
L 128.052112 282.493493 
L 128.314664 282.934134 
L 128.577215 282.628927 
L 128.839767 282.863709 
L 129.102318 282.349349 
L 129.889973 275.99694 
L 130.415077 280.108236 
L 130.677628 280.916175 
L 130.94018 281.316573 
L 131.202732 281.397816 
L 131.465283 281.860314 
L 131.727835 282.00682 
L 131.990386 282.636702 
L 132.51549 285.337279 
L 132.778041 284.952629 
L 133.303145 283.612402 
L 133.565696 282.562889 
L 133.828248 282.664767 
L 134.353351 281.171025 
L 134.615903 281.716428 
L 135.141006 279.169923 
L 135.403558 278.107721 
L 135.666109 278.303511 
L 135.928661 276.572614 
L 136.191213 276.725638 
L 136.453764 277.332393 
L 136.716316 277.282796 
L 136.978867 278.015407 
L 137.241419 276.901186 
L 137.503971 277.308907 
L 137.766522 277.115811 
L 138.029074 275.365308 
L 138.291626 274.933546 
L 138.554177 274.912435 
L 138.816729 274.661529 
L 139.07928 274.115764 
L 139.604384 274.050722 
L 140.129487 273.163043 
L 140.392039 273.178691 
L 140.65459 272.598607 
L 140.917142 272.917359 
L 141.704797 269.087727 
L 142.2299 265.762315 
L 142.492452 264.548193 
L 142.755003 264.727203 
L 143.280107 265.916459 
L 143.542658 264.592335 
L 143.80521 264.077263 
L 144.067761 263.278025 
L 144.330313 261.954216 
L 144.855416 261.296312 
L 145.117968 261.728955 
L 145.643071 261.917481 
L 145.905623 261.419967 
L 146.430726 259.713973 
L 146.693278 259.621955 
L 147.218381 258.107758 
L 147.480933 258.545146 
L 147.743484 259.521823 
L 148.006036 261.26348 
L 148.268588 263.793292 
L 148.793691 266.307393 
L 149.056243 266.284738 
L 149.318794 265.94112 
L 149.581346 266.041597 
L 149.843897 264.964172 
L 150.106449 263.208802 
L 151.419207 241.889046 
L 151.681759 239.942883 
L 151.94431 240.324122 
L 152.206862 242.222078 
L 152.731965 252.16424 
L 153.51962 275.268775 
L 154.044724 285.300989 
L 154.307275 288.327263 
L 154.569827 288.889804 
L 154.832378 286.138128 
L 155.09493 280.665997 
L 155.620033 262.068564 
L 156.67024 222.49053 
L 156.932791 217.073148 
L 157.195343 214.596078 
L 157.720446 212.200914 
L 157.982998 214.726652 
L 158.508101 223.195953 
L 158.770653 224.902467 
L 159.558308 216.05163 
L 160.083411 216.251878 
L 160.345963 214.945593 
L 160.608514 211.244221 
L 161.133618 191.528999 
L 161.921272 157.438378 
L 162.446376 142.266693 
L 162.708927 138.709615 
L 162.971479 138.38234 
L 163.496582 141.963978 
L 164.021686 150.301233 
L 165.334444 179.158392 
L 165.596995 179.505734 
L 165.859547 174.767434 
L 166.122099 167.439095 
L 166.909753 125.256127 
L 167.697408 76.025203 
L 168.222512 53.09409 
L 168.485063 46.896845 
L 169.010167 41.450171 
L 169.797821 50.667074 
L 170.322925 64.275681 
L 170.585476 69.389295 
L 171.373131 98.524628 
L 172.685889 121.986464 
L 172.948441 117.317217 
L 173.210993 108.158278 
L 174.261199 50.632001 
L 174.786302 36.069293 
L 175.311406 28.094626 
L 175.573957 29.149501 
L 176.099061 35.161317 
L 176.361612 41.280259 
L 176.886716 45.641511 
L 177.149267 45.155048 
L 177.411819 45.176568 
L 177.67437 47.27883 
L 178.199474 53.447855 
L 179.512232 83.396102 
L 180.037335 90.979334 
L 180.299887 91.432542 
L 180.562438 93.998782 
L 180.82499 94.583819 
L 181.087542 94.750933 
L 181.350093 94.073167 
L 181.612645 95.1062 
L 182.137748 91.872129 
L 182.4003 92.567735 
L 182.662851 94.272363 
L 183.187955 99.499062 
L 183.450506 99.674498 
L 183.713058 99.544156 
L 183.97561 95.635872 
L 184.238161 88.298886 
L 185.288368 41.794178 
L 185.813471 30.300637 
L 186.076023 28.046588 
L 186.338574 27.6 
L 186.601126 28.675832 
L 187.126229 35.135571 
L 187.388781 38.529837 
L 187.913884 48.826056 
L 188.438987 56.691853 
L 188.701539 59.146871 
L 189.226642 67.868279 
L 189.489194 69.487162 
L 189.751746 71.885182 
L 190.014297 72.460849 
L 190.5394 76.840275 
L 190.801952 77.841991 
L 191.064504 80.278191 
L 191.327055 80.142882 
L 191.589607 81.044637 
L 191.852159 80.878315 
L 192.377262 79.749627 
L 192.639813 78.360525 
L 193.164917 73.640794 
L 193.427468 72.267383 
L 194.477675 58.690243 
L 194.740227 56.378903 
L 195.527881 54.443468 
L 195.790433 53.750086 
L 196.052985 54.0048 
L 196.578088 59.85259 
L 197.628294 75.707089 
L 198.153398 81.019284 
L 198.415949 85.363003 
L 198.678501 85.959867 
L 198.941053 87.897626 
L 199.466156 94.487568 
L 200.253811 100.850888 
L 200.516362 100.776576 
L 200.778914 100.125404 
L 201.041466 98.46825 
L 201.829121 95.981763 
L 202.091672 95.384613 
L 202.616775 94.757638 
L 202.879327 93.313237 
L 203.141879 92.747322 
L 204.192085 83.684781 
L 205.767395 64.625536 
L 206.029947 63.786999 
L 206.55505 63.419459 
L 206.817602 64.358924 
L 207.342705 65.178004 
L 207.605256 64.754088 
L 207.867808 65.493528 
L 208.13036 65.14375 
L 208.392911 66.122664 
L 208.655463 68.557261 
L 208.918015 69.82431 
L 209.70567 78.350348 
L 210.230773 82.239203 
L 210.755876 87.057167 
L 211.018428 88.264787 
L 211.280979 90.290203 
L 211.543531 89.833066 
L 211.806083 90.437144 
L 212.068634 90.462229 
L 212.593738 88.224302 
L 212.856289 88.545616 
L 213.643944 84.363332 
L 213.906496 83.331375 
L 215.219254 74.684871 
L 215.744357 73.050671 
L 216.006909 73.151057 
L 216.26946 71.880493 
L 216.794564 71.077387 
L 217.057115 71.370193 
L 217.319667 71.234917 
L 217.582219 70.165504 
L 218.369873 74.122877 
L 218.632425 75.426653 
L 218.894977 74.960829 
L 219.157528 76.328128 
L 219.42008 76.120126 
L 219.682632 76.79942 
L 219.945183 79.371896 
L 220.99539 83.115896 
L 221.257941 82.119395 
L 221.520493 82.411074 
L 221.783045 82.299997 
L 222.308148 85.310943 
L 222.833251 89.127198 
L 223.095803 89.079042 
L 223.620906 88.210712 
L 223.883458 86.579266 
L 224.146009 83.781286 
L 224.408561 82.4999 
L 225.196216 75.245518 
L 225.458767 74.752956 
L 225.721319 71.957437 
L 225.983871 70.425808 
L 226.246422 67.23485 
L 226.508974 66.404001 
L 227.034077 58.313186 
L 228.084284 51.14015 
L 228.346835 50.797028 
L 228.609387 50.901774 
L 228.871939 51.494155 
L 229.13449 52.825856 
L 229.659594 57.636727 
L 229.922145 58.754851 
L 230.184697 61.85145 
L 230.972352 65.615262 
L 231.234903 66.593497 
L 231.497455 66.423508 
L 231.760007 67.709658 
L 232.022558 67.464469 
L 232.28511 67.907853 
L 232.547662 67.486019 
L 232.810213 68.366144 
L 233.072765 67.062073 
L 233.597868 70.653082 
L 233.86042 71.913693 
L 234.122971 70.985606 
L 234.385523 71.477789 
L 234.910626 68.794454 
L 235.173178 68.546041 
L 235.43573 67.618659 
L 235.698281 67.663514 
L 235.960833 68.371799 
L 236.223384 68.235576 
L 236.748488 72.476102 
L 237.011039 72.695053 
L 237.273591 73.132658 
L 237.536143 72.297618 
L 237.798694 73.392996 
L 238.061246 73.027487 
L 238.323797 72.340579 
L 238.848901 72.094389 
L 239.111452 71.701463 
L 239.374004 70.447053 
L 239.636556 69.832156 
L 240.424211 64.772043 
L 241.211865 57.250178 
L 241.736969 53.417894 
L 241.99952 52.97202 
L 242.262072 51.784034 
L 242.524624 51.707382 
L 242.787175 51.846943 
L 243.049727 49.909309 
L 243.312278 49.522492 
L 243.837382 48.450977 
L 244.099933 49.098549 
L 244.362485 49.128758 
L 245.15014 51.63456 
L 245.412692 51.477867 
L 245.675243 52.320206 
L 246.988001 64.2389 
L 247.250553 67.377674 
L 247.775656 69.448193 
L 248.038208 69.645809 
L 248.563311 68.673568 
L 248.825863 69.524314 
L 249.350966 69.800609 
L 249.613518 70.74289 
L 249.876069 70.361717 
L 250.138621 71.407011 
L 250.401173 69.319145 
L 250.926276 67.760314 
L 251.976482 60.362192 
L 253.026689 50.871467 
L 253.289241 49.008667 
L 253.551792 48.019977 
L 254.339447 46.611097 
L 254.601999 46.8083 
L 254.86455 46.508702 
L 255.127102 47.085866 
L 255.389654 46.452397 
L 255.652205 48.179027 
L 255.914757 47.690801 
L 256.43986 49.976055 
L 256.702412 50.461722 
L 256.964963 53.521819 
L 257.490067 55.696363 
L 257.752618 58.844875 
L 258.01517 59.395556 
L 258.540273 59.85824 
L 259.327928 64.101981 
L 259.59048 65.170132 
L 259.853031 64.57403 
L 260.115583 64.398604 
L 260.378135 65.512696 
L 260.640686 64.420316 
L 260.903238 64.422445 
L 261.165789 64.913483 
L 261.690893 63.610074 
L 261.953444 63.728878 
L 262.215996 62.275827 
L 263.003651 59.57343 
L 263.791306 55.840692 
L 264.053857 53.286724 
L 264.316409 52.846804 
L 264.578961 52.013114 
L 265.104064 48.226934 
L 265.366616 47.615453 
L 265.629167 47.613633 
L 265.891719 46.591675 
L 266.416822 48.983671 
L 266.679374 48.354943 
L 266.941925 50.753099 
L 267.204477 50.528645 
L 267.467029 53.180087 
L 267.992132 53.481694 
L 268.517235 57.037635 
L 269.829993 70.628472 
L 270.092545 72.075433 
L 270.355097 71.791524 
L 270.8802 73.027487 
L 271.405303 75.47682 
L 271.667855 74.535382 
L 271.930406 74.911852 
L 272.192958 76.294097 
L 272.45551 75.324641 
L 272.718061 76.30104 
L 272.980613 75.128854 
L 273.505716 74.036811 
L 275.343578 62.39311 
L 275.606129 61.446222 
L 276.393784 55.40384 
L 276.918887 52.888697 
L 277.181439 52.133552 
L 277.443991 50.512626 
L 277.706542 50.047964 
L 278.231646 47.876846 
L 278.494197 47.213287 
L 278.756749 47.109961 
L 279.0193 48.18082 
L 279.281852 47.190553 
L 279.544404 47.949526 
L 279.806955 47.313771 
L 280.069507 47.932896 
L 280.332059 47.200886 
L 280.59461 47.470619 
L 280.857162 48.680503 
L 281.382265 54.158001 
L 281.644817 55.057372 
L 282.432472 62.238536 
L 282.957575 64.864939 
L 283.220127 64.824723 
L 283.482678 66.44536 
L 284.270333 68.622139 
L 284.532885 67.814294 
L 284.795436 67.540623 
L 285.057988 67.892473 
L 285.32054 67.03827 
L 285.583091 66.827126 
L 285.845643 65.828773 
L 286.108195 65.514192 
L 286.370746 65.472833 
L 286.633298 65.059726 
L 287.158401 63.858775 
L 288.208608 56.951169 
L 288.733711 52.965682 
L 288.996262 50.969249 
L 289.258814 50.487119 
L 289.783917 49.257238 
L 290.046469 47.94613 
L 290.309021 47.612735 
L 290.571572 46.791709 
L 290.834124 47.42261 
L 291.096676 47.094696 
L 291.621779 48.337386 
L 291.88433 48.755784 
L 292.146882 48.114527 
L 292.671985 52.126924 
L 292.934537 52.75672 
L 294.772398 64.502802 
L 295.560053 68.340999 
L 295.822605 68.888222 
L 296.085157 70.561017 
L 296.347708 69.625582 
L 296.61026 71.284136 
L 296.872811 70.447021 
L 297.135363 70.085809 
L 297.397915 70.088351 
L 297.660466 69.314181 
L 297.923018 66.760674 
L 298.18557 66.034629 
L 299.235776 58.600075 
L 299.498328 57.892848 
L 299.760879 54.725618 
L 300.023431 53.695015 
L 300.285983 53.516181 
L 300.811086 50.606502 
L 301.073638 50.080316 
L 301.336189 50.663667 
L 301.598741 50.869348 
L 301.861292 52.786882 
L 302.123844 52.888647 
L 302.911499 54.258928 
L 303.436602 54.575214 
L 303.961706 53.679808 
L 304.224257 53.955418 
L 304.486809 53.680192 
L 304.74936 54.395111 
L 305.011912 56.203117 
L 305.274464 57.182739 
L 305.537015 59.753064 
L 305.799567 59.40429 
L 306.587222 65.065474 
L 306.849773 65.837141 
L 307.637428 66.84924 
L 307.89998 67.465005 
L 308.162532 66.203077 
L 308.425083 66.85089 
L 308.687635 67.926666 
L 308.950187 68.246539 
L 309.212738 67.615606 
L 309.47529 67.929326 
L 309.737841 68.658275 
L 310.000393 68.28331 
L 310.262945 68.59853 
L 310.525496 67.966908 
L 311.0506 64.837574 
L 311.313151 63.659705 
L 311.838254 59.689459 
L 312.888461 52.410218 
L 313.151013 52.332044 
L 313.676116 48.871433 
L 313.938668 48.981273 
L 314.201219 47.668783 
L 314.463771 45.513678 
L 314.726322 44.756284 
L 314.988874 45.040291 
L 315.251426 43.320962 
L 315.776529 42.429799 
L 316.039081 43.645955 
L 316.301632 43.543543 
L 316.564184 42.91671 
L 316.826736 45.711076 
L 317.089287 45.328664 
L 317.61439 49.59186 
L 317.876942 49.995508 
L 318.139494 51.91999 
L 318.402045 54.746431 
L 318.927149 56.965631 
L 319.1897 58.39554 
L 319.452252 60.658455 
L 319.714803 61.676887 
L 319.977355 62.090753 
L 320.239907 63.904663 
L 321.552665 65.976741 
L 321.815217 65.432226 
L 322.077768 66.910796 
L 322.34032 66.176124 
L 322.865423 65.910193 
L 323.127975 65.112962 
L 323.390526 65.38795 
L 323.653078 65.184241 
L 324.440733 63.082753 
L 324.703284 62.032535 
L 325.490939 57.845074 
L 326.016043 55.190128 
L 326.278594 53.348118 
L 326.803698 52.043921 
L 327.328801 50.386613 
L 327.591352 50.199333 
L 327.853904 49.244436 
L 328.116456 49.169684 
L 328.641559 48.015005 
L 328.904111 47.045304 
L 329.166662 47.542308 
L 329.429214 48.465273 
L 329.691765 47.924279 
L 329.954317 49.298497 
L 330.47942 50.907203 
L 331.267075 56.251107 
L 331.529627 55.755955 
L 332.05473 59.902891 
L 332.317282 60.776523 
L 332.579833 61.014518 
L 333.63004 64.509932 
L 333.892592 65.324987 
L 334.155143 65.388143 
L 334.680247 66.797549 
L 334.942798 66.108882 
L 335.20535 65.901235 
L 335.467901 66.75138 
L 335.730453 66.2967 
L 335.993005 66.675921 
L 336.255556 66.380478 
L 336.518108 65.683342 
L 336.78066 66.098161 
L 337.830866 60.947903 
L 338.093418 60.643467 
L 338.355969 58.002265 
L 338.618521 57.718601 
L 338.881073 56.527997 
L 339.143624 56.245374 
L 339.406176 55.683221 
L 339.668728 53.754514 
L 339.931279 52.876 
L 340.193831 53.08179 
L 340.456382 51.849467 
L 340.718934 51.689971 
L 340.981486 52.254926 
L 341.244037 51.029382 
L 341.506589 51.913232 
L 341.769141 51.356828 
L 342.031692 51.984441 
L 342.294244 51.476858 
L 342.556795 51.658777 
L 342.819347 52.029733 
L 343.081899 53.463093 
L 343.34445 53.968245 
L 343.607002 54.178227 
L 343.869554 55.332002 
L 344.132105 54.828872 
L 344.394657 55.582627 
L 345.182312 60.459293 
L 345.444863 61.123546 
L 345.969967 64.622732 
L 346.757622 67.608894 
L 347.020173 67.421244 
L 347.282725 67.878439 
L 347.545276 67.085933 
L 347.807828 67.740114 
L 348.07038 67.063181 
L 348.595483 66.810279 
L 348.858035 65.517267 
L 349.120586 65.204404 
L 349.383138 63.862517 
L 349.908241 62.769441 
L 350.433344 59.573363 
L 350.695896 59.282574 
L 350.958448 57.846232 
L 351.220999 55.119084 
L 351.483551 54.330596 
L 351.746103 52.504405 
L 352.271206 46.856232 
L 352.533757 46.995626 
L 352.796309 46.612162 
L 353.058861 44.096575 
L 353.321412 44.373406 
L 353.583964 44.220781 
L 353.846516 44.735593 
L 354.109067 44.66558 
L 355.684377 53.237857 
L 355.946929 56.161812 
L 356.20948 57.271615 
L 356.472032 57.843254 
L 356.734584 59.064276 
L 356.997135 59.546628 
L 357.259687 62.341853 
L 357.522239 62.635989 
L 358.047342 62.550257 
L 358.309893 62.730269 
L 358.572445 61.76123 
L 359.097548 63.372954 
L 359.3601 62.866804 
L 359.622652 63.243923 
L 359.885203 63.090982 
L 360.147755 62.176084 
L 360.410306 63.049933 
L 360.672858 62.531466 
L 360.93541 62.75262 
L 361.723065 60.665464 
L 361.985616 59.269326 
L 362.248168 58.999139 
L 362.51072 58.557087 
L 362.773271 58.336896 
L 363.035823 59.347487 
L 363.560926 57.387473 
L 363.823478 57.736165 
L 364.086029 58.526098 
L 364.348581 57.394112 
L 364.873684 57.106919 
L 365.136236 57.220319 
L 365.398787 56.971747 
L 365.661339 56.332783 
L 366.186442 54.112699 
L 366.448994 54.113294 
L 366.711546 52.788879 
L 366.974097 53.013245 
L 367.236649 52.002652 
L 367.499201 52.312807 
L 368.286855 49.785426 
L 368.811959 49.149783 
L 369.07451 49.103065 
L 369.337062 49.701738 
L 369.862165 50.181156 
L 370.124717 50.716068 
L 370.387268 52.159451 
L 370.64982 52.364101 
L 370.912372 54.21975 
L 371.174923 53.930992 
L 371.437475 54.406459 
L 371.700027 55.225709 
L 371.962578 55.368032 
L 372.22513 56.460998 
L 372.487682 56.490241 
L 373.012785 58.962044 
L 373.275336 59.499131 
L 373.537888 61.61762 
L 373.80044 62.109261 
L 374.062991 63.795246 
L 374.325543 63.868352 
L 374.588095 65.107463 
L 374.850646 65.476054 
L 375.113198 65.30894 
L 375.37575 65.951219 
L 375.638301 65.694906 
L 375.900853 64.716139 
L 376.163404 64.700736 
L 376.425956 64.242975 
L 376.688508 63.435289 
L 376.951059 63.477623 
L 377.476163 61.415047 
L 377.738714 60.828938 
L 378.788921 56.281314 
L 379.051472 56.207944 
L 379.314024 54.806399 
L 379.576576 54.062318 
L 379.839127 54.631916 
L 380.101679 54.315958 
L 380.364231 52.921304 
L 380.626782 53.443317 
L 380.889334 53.02127 
L 381.151885 53.863571 
L 381.414437 53.235839 
L 381.676989 53.830008 
L 381.93954 53.714459 
L 382.202092 53.744355 
L 382.464644 54.165097 
L 382.727195 54.977012 
L 382.989747 54.262708 
L 383.252298 54.692636 
L 383.51485 53.726362 
L 383.777402 53.766579 
L 384.039953 52.957242 
L 384.565057 53.658618 
L 384.827608 53.163214 
L 385.09016 52.168492 
L 385.352712 53.506986 
L 385.615263 53.579404 
L 385.877815 54.792929 
L 386.140366 54.719347 
L 386.402918 54.935162 
L 386.66547 56.017181 
L 386.928021 55.006012 
L 387.453125 55.97966 
L 387.715676 57.773231 
L 387.978228 58.209985 
L 388.240779 58.01443 
L 388.503331 59.278571 
L 388.765883 58.994251 
L 389.553538 61.127987 
L 389.816089 61.090367 
L 390.078641 61.47424 
L 390.341193 61.28553 
L 390.603744 61.261308 
L 390.866296 60.634011 
L 391.128847 60.997463 
L 391.391399 60.003301 
L 391.916502 60.552712 
L 392.179054 60.396298 
L 392.441606 59.827826 
L 392.704157 58.943646 
L 392.966709 58.995252 
L 393.22926 59.341124 
L 393.491812 59.405218 
L 393.754364 58.405314 
L 394.279467 59.684491 
L 394.542019 59.568525 
L 394.80457 60.602134 
L 395.067122 60.21076 
L 395.329674 60.756494 
L 395.592225 60.298543 
L 395.854777 61.615576 
L 396.117328 60.706309 
L 396.37988 61.317949 
L 396.642432 61.554847 
L 396.904983 60.963562 
L 397.167535 61.892441 
L 397.430087 61.64437 
L 397.692638 61.137165 
L 397.95519 61.275308 
L 398.217742 62.277819 
L 398.480293 61.362621 
L 398.742845 62.634161 
L 399.005396 62.233441 
L 399.267948 62.144114 
L 399.5305 62.274852 
L 399.793051 62.754541 
L 400.318155 60.971425 
L 400.843258 59.449087 
L 401.105809 59.965283 
L 401.368361 58.058447 
L 401.630913 57.97375 
L 401.893464 58.839985 
L 402.156016 58.923787 
L 402.418568 57.819436 
L 402.681119 57.361379 
L 402.943671 55.720361 
L 403.206223 56.036054 
L 403.468774 53.95941 
L 403.731326 54.669234 
L 403.993877 53.544074 
L 404.256429 53.685926 
L 404.518981 52.952906 
L 404.781532 52.923562 
L 405.044084 52.173923 
L 405.306636 51.963337 
L 405.569187 51.51453 
L 405.831739 52.968993 
L 406.09429 52.196265 
L 406.356842 52.162159 
L 406.619394 51.790761 
L 407.144497 53.345359 
L 407.407049 53.443762 
L 407.6696 54.389043 
L 408.194704 54.140051 
L 408.457255 55.332758 
L 408.719807 55.685054 
L 409.507462 58.11654 
L 409.770013 57.974406 
L 410.032565 58.678631 
L 410.295117 58.632032 
L 410.82022 60.615639 
L 411.607875 61.050273 
L 411.870426 61.784691 
L 412.132978 60.963512 
L 412.658081 61.64452 
L 413.183185 59.998276 
L 413.445736 60.174886 
L 413.708288 59.806112 
L 413.970839 59.700502 
L 414.233391 59.203138 
L 414.495943 59.720517 
L 414.758494 59.442686 
L 415.021046 61.228786 
L 415.283598 61.280597 
L 415.546149 61.814764 
L 416.071252 60.206818 
L 416.333804 59.615271 
L 416.596356 59.496619 
L 416.858907 58.561409 
L 417.121459 57.103347 
L 417.646562 55.886389 
L 417.909114 54.540178 
L 418.171666 56.028233 
L 418.434217 55.81975 
L 418.696769 55.857418 
L 419.221872 56.563979 
L 419.484424 56.359387 
L 419.746975 58.001365 
L 420.272079 56.652534 
L 420.53463 56.897236 
L 420.797182 56.648008 
L 421.059734 54.977836 
L 421.322285 55.973187 
L 421.584837 54.870954 
L 422.10994 55.261739 
L 422.372492 55.795201 
L 422.635043 55.8671 
L 422.897595 56.731606 
L 423.422698 59.133341 
L 423.68525 60.135699 
L 423.947801 59.637154 
L 424.210353 58.756406 
L 424.472905 60.541049 
L 424.735456 58.831796 
L 425.26056 59.173482 
L 425.523111 60.074248 
L 425.785663 58.670312 
L 426.048215 58.991471 
L 426.310766 59.790457 
L 426.573318 59.804048 
L 426.835869 59.307729 
L 427.098421 59.606427 
L 427.360973 58.49241 
L 427.623524 59.033493 
L 427.886076 57.577265 
L 428.148628 57.292747 
L 428.673731 57.192413 
L 428.936282 56.634914 
L 429.198834 56.533409 
L 429.461386 57.706832 
L 429.723937 56.995504 
L 429.986489 57.356703 
L 430.249041 57.32717 
L 430.774144 56.515226 
L 431.036696 56.916518 
L 431.299247 57.811441 
L 431.561799 57.682568 
L 431.82435 60.019936 
L 432.086902 59.889779 
L 432.612005 60.755993 
L 432.874557 60.745719 
L 433.39966 60.290643 
L 433.662212 60.291811 
L 433.924763 59.700652 
L 434.187315 59.877449 
L 434.712418 59.32005 
L 434.97497 59.908574 
L 435.237522 59.786856 
L 435.500073 59.496661 
L 435.762625 59.981478 
L 436.025177 60.805719 
L 436.287728 60.416227 
L 436.55028 59.738373 
L 436.812831 59.77771 
L 437.075383 59.65688 
L 437.337935 59.9199 
L 437.600486 59.362865 
L 437.863038 59.896604 
L 438.12559 60.018077 
L 438.388141 58.88899 
L 438.650693 59.647802 
L 438.913245 59.506434 
L 439.175796 59.939886 
L 439.700899 59.322253 
L 439.963451 60.158948 
L 440.226003 58.321208 
L 440.488554 58.161638 
L 440.751106 57.115769 
L 441.013658 57.192836 
L 441.276209 56.003257 
L 441.538761 55.510055 
L 441.801312 54.585813 
L 442.063864 54.437474 
L 442.326416 52.825897 
L 442.588967 52.82349 
L 442.851519 53.398233 
L 443.114071 53.289819 
L 443.639174 53.939469 
L 444.164277 55.970636 
L 444.426829 56.111553 
L 444.951932 57.865856 
L 445.214484 58.2454 
L 445.477035 60.086693 
L 445.739587 59.888034 
L 446.002139 60.35158 
L 446.26469 58.969531 
L 446.527242 60.066309 
L 447.052345 58.718773 
L 447.314897 58.265855 
L 447.577448 58.721068 
L 447.84 56.817076 
L 447.84 56.817076 
" style="fill:none;stroke:#4c72b0;stroke-linecap:round;stroke-width:1.75;"/>
   </g>
   <g id="line2d_26">
    <path clip-path="url(#pc950688426)" d="M 53.75 287.606638 
L 55.32531 287.644888 
L 59.001033 287.565121 
L 70.815856 287.697732 
L 71.866063 287.785106 
L 76.854544 287.791106 
L 78.167302 287.748844 
L 79.742612 287.669828 
L 83.155783 287.803754 
L 84.731093 287.625153 
L 86.306402 287.555087 
L 88.669367 287.236729 
L 91.032332 286.958449 
L 92.34509 286.959327 
L 93.657848 287.043128 
L 95.49571 287.324669 
L 97.071019 287.184539 
L 98.646329 287.22269 
L 101.534397 287.471145 
L 105.735223 287.053568 
L 109.148394 286.46329 
L 109.936049 286.030762 
L 110.461153 286.020441 
L 111.248807 286.341703 
L 112.561566 286.90924 
L 113.874324 287.185652 
L 115.187082 287.19338 
L 115.974737 287.063508 
L 118.337702 286.341736 
L 120.963218 285.921027 
L 122.013424 285.532077 
L 123.326183 284.659003 
L 124.638941 283.658814 
L 125.426596 283.477647 
L 128.314664 283.08043 
L 129.36487 282.799906 
L 133.828248 280.385734 
L 135.403558 279.377621 
L 136.453764 278.407888 
L 137.503971 277.176417 
L 138.554177 275.595631 
L 139.866935 273.136132 
L 141.442245 269.517767 
L 142.755003 265.872883 
L 144.067761 261.729146 
L 145.643071 255.953606 
L 147.743484 247.290678 
L 149.843897 238.892774 
L 151.156656 233.468268 
L 152.731965 226.709204 
L 153.51962 224.191222 
L 154.569827 221.666699 
L 155.357482 219.672215 
L 156.145137 216.910761 
L 159.295756 204.144659 
L 161.133618 197.075991 
L 161.921272 192.821865 
L 164.546789 177.499189 
L 166.647202 167.175514 
L 167.434857 161.682073 
L 168.747615 150.307058 
L 170.060373 139.618105 
L 171.11058 133.107255 
L 171.898235 129.549954 
L 173.998648 121.390443 
L 177.67437 102.659663 
L 178.724577 98.641541 
L 179.512232 96.487888 
L 180.562438 94.420922 
L 181.875197 92.474926 
L 182.925403 91.238059 
L 183.97561 90.192342 
L 184.500713 89.267595 
L 185.025816 87.810335 
L 187.651332 79.165513 
L 188.438987 77.50616 
L 189.226642 76.310994 
L 190.014297 75.483393 
L 190.801952 74.923752 
L 193.164917 73.643009 
L 193.952572 72.843121 
L 195.002778 71.307922 
L 196.578088 68.965922 
L 197.365743 68.303128 
L 198.153398 68.042142 
L 198.941053 68.126107 
L 199.728708 68.55718 
L 203.666982 71.525292 
L 204.192085 71.632174 
L 204.717189 71.562639 
L 205.504843 71.136303 
L 206.817602 69.95716 
L 209.443118 67.47718 
L 210.230773 67.145228 
L 211.018428 67.08037 
L 212.331186 67.364655 
L 215.219254 68.091259 
L 216.532012 68.052461 
L 217.84477 67.739798 
L 221.520493 66.650385 
L 222.5707 66.349795 
L 223.883458 66.068231 
L 225.721319 65.259596 
L 226.771526 64.684395 
L 229.397042 62.82446 
L 230.447249 62.540699 
L 232.810213 62.034529 
L 234.122971 61.671257 
L 236.748488 61.084991 
L 239.374004 61.144912 
L 240.161659 60.971458 
L 240.949314 60.580232 
L 242.262072 59.549288 
L 245.675243 56.806125 
L 246.462898 56.480099 
L 247.250553 56.460468 
L 248.825863 56.787864 
L 251.713931 57.557641 
L 252.501586 57.416798 
L 253.289241 57.067473 
L 257.227515 54.967917 
L 258.01517 54.892558 
L 259.065376 54.971283 
L 260.903238 55.519798 
L 262.478548 55.960022 
L 263.528754 56.040238 
L 264.578961 55.887444 
L 265.891719 55.410801 
L 267.992132 54.697055 
L 268.779787 54.582495 
L 269.567442 54.729807 
L 271.142751 55.46663 
L 274.818474 57.642412 
L 275.868681 57.809859 
L 276.656336 57.688365 
L 277.706542 57.290024 
L 281.644817 55.349772 
L 282.432472 55.3196 
L 283.482678 55.506375 
L 285.32054 56.148914 
L 287.158401 56.726533 
L 287.946056 56.807092 
L 288.733711 56.689791 
L 290.309021 56.088227 
L 291.88433 55.433797 
L 292.671985 55.239141 
L 293.45964 55.225839 
L 294.509847 55.506113 
L 295.822605 56.183943 
L 297.660466 57.205454 
L 298.710673 57.467851 
L 299.498328 57.482483 
L 300.811086 57.204184 
L 302.386396 56.842625 
L 305.799567 56.270226 
L 306.587222 56.395912 
L 308.425083 56.970347 
L 311.0506 57.883727 
L 311.838254 57.935182 
L 312.888461 57.751914 
L 313.938668 57.388259 
L 314.988874 56.842504 
L 317.351839 55.523608 
L 318.402045 55.282555 
L 319.452252 55.327722 
L 320.76501 55.70216 
L 323.390526 56.813119 
L 324.703284 57.232905 
L 325.753491 57.306954 
L 327.066249 57.111593 
L 328.904111 56.577508 
L 330.47942 56.141597 
L 331.529627 56.090303 
L 332.842385 56.280142 
L 334.417695 56.73008 
L 337.305763 57.692316 
L 338.618521 57.800749 
L 339.931279 57.649023 
L 342.031692 57.134569 
L 343.607002 56.798506 
L 344.91976 56.738525 
L 345.969967 56.97075 
L 348.332931 57.95306 
L 349.383138 58.281282 
L 350.433344 58.414305 
L 351.220999 58.355856 
L 352.008654 58.123832 
L 355.159274 56.627411 
L 356.20948 56.53881 
L 357.259687 56.653794 
L 360.93541 57.408898 
L 362.248168 57.523962 
L 365.661339 57.485506 
L 366.974097 57.254733 
L 368.811959 56.700352 
L 370.387268 56.24475 
L 371.700027 56.127207 
L 373.012785 56.22129 
L 374.062991 56.512085 
L 377.476163 57.610084 
L 378.526369 57.683911 
L 380.364231 57.490041 
L 386.66547 56.580531 
L 387.978228 56.681709 
L 389.553538 57.014063 
L 392.179054 57.605589 
L 393.754364 57.717066 
L 396.37988 57.927544 
L 401.630913 58.455622 
L 402.943671 58.39411 
L 404.256429 58.121998 
L 408.457255 57.139668 
L 409.770013 57.092042 
L 411.345323 57.244837 
L 416.333804 57.916962 
L 417.646562 57.904104 
L 419.484424 57.787649 
L 421.059734 57.715474 
L 423.422698 57.602143 
L 425.785663 57.768683 
L 428.673731 57.756892 
L 431.561799 57.583419 
L 440.226003 58.16511 
L 441.801312 57.972267 
L 444.426829 57.61343 
L 446.002139 57.767977 
L 447.84 57.834186 
L 447.84 57.834186 
" style="fill:none;stroke:#55a868;stroke-linecap:round;stroke-width:3;"/>
   </g>
   <g id="patch_3">
    <path d="M 53.75 300.76 
L 53.75 27.6 
" style="fill:none;"/>
   </g>
   <g id="patch_4">
    <path d="M 447.84 300.76 
L 447.84 27.6 
" style="fill:none;"/>
   </g>
   <g id="patch_5">
    <path d="M 53.75 300.76 
L 447.84 300.76 
" style="fill:none;"/>
   </g>
   <g id="patch_6">
    <path d="M 53.75 27.6 
L 447.84 27.6 
" style="fill:none;"/>
   </g>
   <g id="text_15">
    <!-- Rotating fast -->
    <defs>
     <path d="M 44.390625 34.1875 
Q 47.5625 33.109375 50.5625 29.59375 
Q 53.5625 26.078125 56.59375 19.921875 
L 66.609375 0 
L 56 0 
L 46.6875 18.703125 
Q 43.0625 26.03125 39.671875 28.421875 
Q 36.28125 30.8125 30.421875 30.8125 
L 19.671875 30.8125 
L 19.671875 0 
L 9.8125 0 
L 9.8125 72.90625 
L 32.078125 72.90625 
Q 44.578125 72.90625 50.734375 67.671875 
Q 56.890625 62.453125 56.890625 51.90625 
Q 56.890625 45.015625 53.6875 40.46875 
Q 50.484375 35.9375 44.390625 34.1875 
z
M 19.671875 64.796875 
L 19.671875 38.921875 
L 32.078125 38.921875 
Q 39.203125 38.921875 42.84375 42.21875 
Q 46.484375 45.515625 46.484375 51.90625 
Q 46.484375 58.296875 42.84375 61.546875 
Q 39.203125 64.796875 32.078125 64.796875 
z
" id="DejaVuSans-52"/>
     <path d="M 34.28125 27.484375 
Q 23.390625 27.484375 19.1875 25 
Q 14.984375 22.515625 14.984375 16.5 
Q 14.984375 11.71875 18.140625 8.90625 
Q 21.296875 6.109375 26.703125 6.109375 
Q 34.1875 6.109375 38.703125 11.40625 
Q 43.21875 16.703125 43.21875 25.484375 
L 43.21875 27.484375 
z
M 52.203125 31.203125 
L 52.203125 0 
L 43.21875 0 
L 43.21875 8.296875 
Q 40.140625 3.328125 35.546875 0.953125 
Q 30.953125 -1.421875 24.3125 -1.421875 
Q 15.921875 -1.421875 10.953125 3.296875 
Q 6 8.015625 6 15.921875 
Q 6 25.140625 12.171875 29.828125 
Q 18.359375 34.515625 30.609375 34.515625 
L 43.21875 34.515625 
L 43.21875 35.40625 
Q 43.21875 41.609375 39.140625 45 
Q 35.0625 48.390625 27.6875 48.390625 
Q 23 48.390625 18.546875 47.265625 
Q 14.109375 46.140625 10.015625 43.890625 
L 10.015625 52.203125 
Q 14.9375 54.109375 19.578125 55.046875 
Q 24.21875 56 28.609375 56 
Q 40.484375 56 46.34375 49.84375 
Q 52.203125 43.703125 52.203125 31.203125 
z
" id="DejaVuSans-61"/>
     <path d="M 37.109375 75.984375 
L 37.109375 68.5 
L 28.515625 68.5 
Q 23.6875 68.5 21.796875 66.546875 
Q 19.921875 64.59375 19.921875 59.515625 
L 19.921875 54.6875 
L 34.71875 54.6875 
L 34.71875 47.703125 
L 19.921875 47.703125 
L 19.921875 0 
L 10.890625 0 
L 10.890625 47.703125 
L 2.296875 47.703125 
L 2.296875 54.6875 
L 10.890625 54.6875 
L 10.890625 58.5 
Q 10.890625 67.625 15.140625 71.796875 
Q 19.390625 75.984375 28.609375 75.984375 
z
" id="DejaVuSans-66"/>
    </defs>
    <g style="fill:#262626;" transform="translate(212.125 21.6)scale(0.12 -0.12)">
     <use xlink:href="#DejaVuSans-52"/>
     <use x="69.419922" xlink:href="#DejaVuSans-6f"/>
     <use x="130.601562" xlink:href="#DejaVuSans-74"/>
     <use x="169.810547" xlink:href="#DejaVuSans-61"/>
     <use x="231.089844" xlink:href="#DejaVuSans-74"/>
     <use x="270.298828" xlink:href="#DejaVuSans-69"/>
     <use x="298.082031" xlink:href="#DejaVuSans-6e"/>
     <use x="361.460938" xlink:href="#DejaVuSans-67"/>
     <use x="424.9375" xlink:href="#DejaVuSans-20"/>
     <use x="456.724609" xlink:href="#DejaVuSans-66"/>
     <use x="491.929688" xlink:href="#DejaVuSans-61"/>
     <use x="553.208984" xlink:href="#DejaVuSans-73"/>
     <use x="605.308594" xlink:href="#DejaVuSans-74"/>
    </g>
   </g>
   <g id="legend_1">
    <g id="line2d_27">
     <path d="M 337.615 271.502187 
L 357.615 271.502187 
" style="fill:none;stroke:#4c72b0;stroke-linecap:round;stroke-width:1.75;"/>
    </g>
    <g id="line2d_28"/>
    <g id="text_16">
     <!-- Accelerometer -->
     <defs>
      <path d="M 34.1875 63.1875 
L 20.796875 26.90625 
L 47.609375 26.90625 
z
M 28.609375 72.90625 
L 39.796875 72.90625 
L 67.578125 0 
L 57.328125 0 
L 50.6875 18.703125 
L 17.828125 18.703125 
L 11.1875 0 
L 0.78125 0 
z
" id="DejaVuSans-41"/>
     </defs>
     <g style="fill:#262626;" transform="translate(365.615 275.002187)scale(0.1 -0.1)">
      <use xlink:href="#DejaVuSans-41"/>
      <use x="68.392578" xlink:href="#DejaVuSans-63"/>
      <use x="123.373047" xlink:href="#DejaVuSans-63"/>
      <use x="178.353516" xlink:href="#DejaVuSans-65"/>
      <use x="239.876953" xlink:href="#DejaVuSans-6c"/>
      <use x="267.660156" xlink:href="#DejaVuSans-65"/>
      <use x="329.183594" xlink:href="#DejaVuSans-72"/>
      <use x="370.265625" xlink:href="#DejaVuSans-6f"/>
      <use x="431.447266" xlink:href="#DejaVuSans-6d"/>
      <use x="528.859375" xlink:href="#DejaVuSans-65"/>
      <use x="590.382812" xlink:href="#DejaVuSans-74"/>
      <use x="629.591797" xlink:href="#DejaVuSans-65"/>
      <use x="691.115234" xlink:href="#DejaVuSans-72"/>
     </g>
    </g>
    <g id="line2d_29">
     <path d="M 337.615 286.180312 
L 357.615 286.180312 
" style="fill:none;stroke:#55a868;stroke-linecap:round;stroke-width:3;"/>
    </g>
    <g id="line2d_30"/>
    <g id="text_17">
     <!-- Kalman filter -->
     <defs>
      <path d="M 9.8125 72.90625 
L 19.671875 72.90625 
L 19.671875 42.09375 
L 52.390625 72.90625 
L 65.09375 72.90625 
L 28.90625 38.921875 
L 67.671875 0 
L 54.6875 0 
L 19.671875 35.109375 
L 19.671875 0 
L 9.8125 0 
z
" id="DejaVuSans-4b"/>
     </defs>
     <g style="fill:#262626;" transform="translate(365.615 289.680312)scale(0.1 -0.1)">
      <use xlink:href="#DejaVuSans-4b"/>
      <use x="65.560547" xlink:href="#DejaVuSans-61"/>
      <use x="126.839844" xlink:href="#DejaVuSans-6c"/>
      <use x="154.623047" xlink:href="#DejaVuSans-6d"/>
      <use x="252.035156" xlink:href="#DejaVuSans-61"/>
      <use x="313.314453" xlink:href="#DejaVuSans-6e"/>
      <use x="376.693359" xlink:href="#DejaVuSans-20"/>
      <use x="408.480469" xlink:href="#DejaVuSans-66"/>
      <use x="443.685547" xlink:href="#DejaVuSans-69"/>
      <use x="471.46875" xlink:href="#DejaVuSans-6c"/>
      <use x="499.251953" xlink:href="#DejaVuSans-74"/>
      <use x="538.460938" xlink:href="#DejaVuSans-65"/>
      <use x="599.984375" xlink:href="#DejaVuSans-72"/>
     </g>
    </g>
   </g>
  </g>
 </g>
 <defs>
  <clipPath id="pc950688426">
   <rect height="273.16" width="394.09" x="53.75" y="27.6"/>
  </clipPath>
 </defs>
</svg>
