<?xml version="1.0" encoding="utf-8" standalone="no"?>
<!DOCTYPE svg PUBLIC "-//W3C//DTD SVG 1.1//EN"
  "http://www.w3.org/Graphics/SVG/1.1/DTD/svg11.dtd">
<!-- Created with matplotlib (http://matplotlib.org/) -->
<svg height="345pt" version="1.1" viewBox="0 0 460 345" width="460pt" xmlns="http://www.w3.org/2000/svg" xmlns:xlink="http://www.w3.org/1999/xlink">
 <defs>
  <style type="text/css">
*{stroke-linecap:butt;stroke-linejoin:round;}
  </style>
 </defs>
 <g id="figure_1">
  <g id="patch_1">
   <path d="M 0 345.6 
L 460.8 345.6 
L 460.8 0 
L 0 0 
z
" style="fill:#ffffff;"/>
  </g>
  <g id="axes_1">
   <g id="patch_2">
    <path d="M 53.75 300.76 
L 447.84 300.76 
L 447.84 27.6 
L 53.75 27.6 
z
" style="fill:#eaeaf2;"/>
   </g>
   <g id="matplotlib.axis_1">
    <g id="xtick_1">
     <g id="line2d_1">
      <path clip-path="url(#pcc893e9c30)" d="M 53.75 300.76 
L 53.75 27.6 
" style="fill:none;stroke:#ffffff;stroke-linecap:round;"/>
     </g>
     <g id="line2d_2"/>
     <g id="text_1">
      <!-- 0.0 -->
      <defs>
       <path d="M 31.78125 66.40625 
Q 24.171875 66.40625 20.328125 58.90625 
Q 16.5 51.421875 16.5 36.375 
Q 16.5 21.390625 20.328125 13.890625 
Q 24.171875 6.390625 31.78125 6.390625 
Q 39.453125 6.390625 43.28125 13.890625 
Q 47.125 21.390625 47.125 36.375 
Q 47.125 51.421875 43.28125 58.90625 
Q 39.453125 66.40625 31.78125 66.40625 
z
M 31.78125 74.21875 
Q 44.046875 74.21875 50.515625 64.515625 
Q 56.984375 54.828125 56.984375 36.375 
Q 56.984375 17.96875 50.515625 8.265625 
Q 44.046875 -1.421875 31.78125 -1.421875 
Q 19.53125 -1.421875 13.0625 8.265625 
Q 6.59375 17.96875 6.59375 36.375 
Q 6.59375 54.828125 13.0625 64.515625 
Q 19.53125 74.21875 31.78125 74.21875 
z
" id="DejaVuSans-30"/>
       <path d="M 10.6875 12.40625 
L 21 12.40625 
L 21 0 
L 10.6875 0 
z
" id="DejaVuSans-2e"/>
      </defs>
      <g style="fill:#262626;" transform="translate(45.798438 315.358437)scale(0.1 -0.1)">
       <use xlink:href="#DejaVuSans-30"/>
       <use x="63.623047" xlink:href="#DejaVuSans-2e"/>
       <use x="95.410156" xlink:href="#DejaVuSans-30"/>
      </g>
     </g>
    </g>
    <g id="xtick_2">
     <g id="line2d_3">
      <path clip-path="url(#pcc893e9c30)" d="M 119.905436 300.76 
L 119.905436 27.6 
" style="fill:none;stroke:#ffffff;stroke-linecap:round;"/>
     </g>
     <g id="line2d_4"/>
     <g id="text_2">
      <!-- 0.5 -->
      <defs>
       <path d="M 10.796875 72.90625 
L 49.515625 72.90625 
L 49.515625 64.59375 
L 19.828125 64.59375 
L 19.828125 46.734375 
Q 21.96875 47.46875 24.109375 47.828125 
Q 26.265625 48.1875 28.421875 48.1875 
Q 40.625 48.1875 47.75 41.5 
Q 54.890625 34.8125 54.890625 23.390625 
Q 54.890625 11.625 47.5625 5.09375 
Q 40.234375 -1.421875 26.90625 -1.421875 
Q 22.3125 -1.421875 17.546875 -0.640625 
Q 12.796875 0.140625 7.71875 1.703125 
L 7.71875 11.625 
Q 12.109375 9.234375 16.796875 8.0625 
Q 21.484375 6.890625 26.703125 6.890625 
Q 35.15625 6.890625 40.078125 11.328125 
Q 45.015625 15.765625 45.015625 23.390625 
Q 45.015625 31 40.078125 35.4375 
Q 35.15625 39.890625 26.703125 39.890625 
Q 22.75 39.890625 18.8125 39.015625 
Q 14.890625 38.140625 10.796875 36.28125 
z
" id="DejaVuSans-35"/>
      </defs>
      <g style="fill:#262626;" transform="translate(111.953874 315.358437)scale(0.1 -0.1)">
       <use xlink:href="#DejaVuSans-30"/>
       <use x="63.623047" xlink:href="#DejaVuSans-2e"/>
       <use x="95.410156" xlink:href="#DejaVuSans-35"/>
      </g>
     </g>
    </g>
    <g id="xtick_3">
     <g id="line2d_5">
      <path clip-path="url(#pcc893e9c30)" d="M 186.060872 300.76 
L 186.060872 27.6 
" style="fill:none;stroke:#ffffff;stroke-linecap:round;"/>
     </g>
     <g id="line2d_6"/>
     <g id="text_3">
      <!-- 1.0 -->
      <defs>
       <path d="M 12.40625 8.296875 
L 28.515625 8.296875 
L 28.515625 63.921875 
L 10.984375 60.40625 
L 10.984375 69.390625 
L 28.421875 72.90625 
L 38.28125 72.90625 
L 38.28125 8.296875 
L 54.390625 8.296875 
L 54.390625 0 
L 12.40625 0 
z
" id="DejaVuSans-31"/>
      </defs>
      <g style="fill:#262626;" transform="translate(178.10931 315.358437)scale(0.1 -0.1)">
       <use xlink:href="#DejaVuSans-31"/>
       <use x="63.623047" xlink:href="#DejaVuSans-2e"/>
       <use x="95.410156" xlink:href="#DejaVuSans-30"/>
      </g>
     </g>
    </g>
    <g id="xtick_4">
     <g id="line2d_7">
      <path clip-path="url(#pcc893e9c30)" d="M 252.216308 300.76 
L 252.216308 27.6 
" style="fill:none;stroke:#ffffff;stroke-linecap:round;"/>
     </g>
     <g id="line2d_8"/>
     <g id="text_4">
      <!-- 1.5 -->
      <g style="fill:#262626;" transform="translate(244.264746 315.358437)scale(0.1 -0.1)">
       <use xlink:href="#DejaVuSans-31"/>
       <use x="63.623047" xlink:href="#DejaVuSans-2e"/>
       <use x="95.410156" xlink:href="#DejaVuSans-35"/>
      </g>
     </g>
    </g>
    <g id="xtick_5">
     <g id="line2d_9">
      <path clip-path="url(#pcc893e9c30)" d="M 318.371744 300.76 
L 318.371744 27.6 
" style="fill:none;stroke:#ffffff;stroke-linecap:round;"/>
     </g>
     <g id="line2d_10"/>
     <g id="text_5">
      <!-- 2.0 -->
      <defs>
       <path d="M 19.1875 8.296875 
L 53.609375 8.296875 
L 53.609375 0 
L 7.328125 0 
L 7.328125 8.296875 
Q 12.9375 14.109375 22.625 23.890625 
Q 32.328125 33.6875 34.8125 36.53125 
Q 39.546875 41.84375 41.421875 45.53125 
Q 43.3125 49.21875 43.3125 52.78125 
Q 43.3125 58.59375 39.234375 62.25 
Q 35.15625 65.921875 28.609375 65.921875 
Q 23.96875 65.921875 18.8125 64.3125 
Q 13.671875 62.703125 7.8125 59.421875 
L 7.8125 69.390625 
Q 13.765625 71.78125 18.9375 73 
Q 24.125 74.21875 28.421875 74.21875 
Q 39.75 74.21875 46.484375 68.546875 
Q 53.21875 62.890625 53.21875 53.421875 
Q 53.21875 48.921875 51.53125 44.890625 
Q 49.859375 40.875 45.40625 35.40625 
Q 44.1875 33.984375 37.640625 27.21875 
Q 31.109375 20.453125 19.1875 8.296875 
z
" id="DejaVuSans-32"/>
      </defs>
      <g style="fill:#262626;" transform="translate(310.420182 315.358437)scale(0.1 -0.1)">
       <use xlink:href="#DejaVuSans-32"/>
       <use x="63.623047" xlink:href="#DejaVuSans-2e"/>
       <use x="95.410156" xlink:href="#DejaVuSans-30"/>
      </g>
     </g>
    </g>
    <g id="xtick_6">
     <g id="line2d_11">
      <path clip-path="url(#pcc893e9c30)" d="M 384.52718 300.76 
L 384.52718 27.6 
" style="fill:none;stroke:#ffffff;stroke-linecap:round;"/>
     </g>
     <g id="line2d_12"/>
     <g id="text_6">
      <!-- 2.5 -->
      <g style="fill:#262626;" transform="translate(376.575618 315.358437)scale(0.1 -0.1)">
       <use xlink:href="#DejaVuSans-32"/>
       <use x="63.623047" xlink:href="#DejaVuSans-2e"/>
       <use x="95.410156" xlink:href="#DejaVuSans-35"/>
      </g>
     </g>
    </g>
    <g id="text_7">
     <!-- Time (seconds) -->
     <defs>
      <path d="M -0.296875 72.90625 
L 61.375 72.90625 
L 61.375 64.59375 
L 35.5 64.59375 
L 35.5 0 
L 25.59375 0 
L 25.59375 64.59375 
L -0.296875 64.59375 
z
" id="DejaVuSans-54"/>
      <path d="M 9.421875 54.6875 
L 18.40625 54.6875 
L 18.40625 0 
L 9.421875 0 
z
M 9.421875 75.984375 
L 18.40625 75.984375 
L 18.40625 64.59375 
L 9.421875 64.59375 
z
" id="DejaVuSans-69"/>
      <path d="M 52 44.1875 
Q 55.375 50.25 60.0625 53.125 
Q 64.75 56 71.09375 56 
Q 79.640625 56 84.28125 50.015625 
Q 88.921875 44.046875 88.921875 33.015625 
L 88.921875 0 
L 79.890625 0 
L 79.890625 32.71875 
Q 79.890625 40.578125 77.09375 44.375 
Q 74.3125 48.1875 68.609375 48.1875 
Q 61.625 48.1875 57.5625 43.546875 
Q 53.515625 38.921875 53.515625 30.90625 
L 53.515625 0 
L 44.484375 0 
L 44.484375 32.71875 
Q 44.484375 40.625 41.703125 44.40625 
Q 38.921875 48.1875 33.109375 48.1875 
Q 26.21875 48.1875 22.15625 43.53125 
Q 18.109375 38.875 18.109375 30.90625 
L 18.109375 0 
L 9.078125 0 
L 9.078125 54.6875 
L 18.109375 54.6875 
L 18.109375 46.1875 
Q 21.1875 51.21875 25.484375 53.609375 
Q 29.78125 56 35.6875 56 
Q 41.65625 56 45.828125 52.96875 
Q 50 49.953125 52 44.1875 
z
" id="DejaVuSans-6d"/>
      <path d="M 56.203125 29.59375 
L 56.203125 25.203125 
L 14.890625 25.203125 
Q 15.484375 15.921875 20.484375 11.0625 
Q 25.484375 6.203125 34.421875 6.203125 
Q 39.59375 6.203125 44.453125 7.46875 
Q 49.3125 8.734375 54.109375 11.28125 
L 54.109375 2.78125 
Q 49.265625 0.734375 44.1875 -0.34375 
Q 39.109375 -1.421875 33.890625 -1.421875 
Q 20.796875 -1.421875 13.15625 6.1875 
Q 5.515625 13.8125 5.515625 26.8125 
Q 5.515625 40.234375 12.765625 48.109375 
Q 20.015625 56 32.328125 56 
Q 43.359375 56 49.78125 48.890625 
Q 56.203125 41.796875 56.203125 29.59375 
z
M 47.21875 32.234375 
Q 47.125 39.59375 43.09375 43.984375 
Q 39.0625 48.390625 32.421875 48.390625 
Q 24.90625 48.390625 20.390625 44.140625 
Q 15.875 39.890625 15.1875 32.171875 
z
" id="DejaVuSans-65"/>
      <path id="DejaVuSans-20"/>
      <path d="M 31 75.875 
Q 24.46875 64.65625 21.28125 53.65625 
Q 18.109375 42.671875 18.109375 31.390625 
Q 18.109375 20.125 21.3125 9.0625 
Q 24.515625 -2 31 -13.1875 
L 23.1875 -13.1875 
Q 15.875 -1.703125 12.234375 9.375 
Q 8.59375 20.453125 8.59375 31.390625 
Q 8.59375 42.28125 12.203125 53.3125 
Q 15.828125 64.359375 23.1875 75.875 
z
" id="DejaVuSans-28"/>
      <path d="M 44.28125 53.078125 
L 44.28125 44.578125 
Q 40.484375 46.53125 36.375 47.5 
Q 32.28125 48.484375 27.875 48.484375 
Q 21.1875 48.484375 17.84375 46.4375 
Q 14.5 44.390625 14.5 40.28125 
Q 14.5 37.15625 16.890625 35.375 
Q 19.28125 33.59375 26.515625 31.984375 
L 29.59375 31.296875 
Q 39.15625 29.25 43.1875 25.515625 
Q 47.21875 21.78125 47.21875 15.09375 
Q 47.21875 7.46875 41.1875 3.015625 
Q 35.15625 -1.421875 24.609375 -1.421875 
Q 20.21875 -1.421875 15.453125 -0.5625 
Q 10.6875 0.296875 5.421875 2 
L 5.421875 11.28125 
Q 10.40625 8.6875 15.234375 7.390625 
Q 20.0625 6.109375 24.8125 6.109375 
Q 31.15625 6.109375 34.5625 8.28125 
Q 37.984375 10.453125 37.984375 14.40625 
Q 37.984375 18.0625 35.515625 20.015625 
Q 33.0625 21.96875 24.703125 23.78125 
L 21.578125 24.515625 
Q 13.234375 26.265625 9.515625 29.90625 
Q 5.8125 33.546875 5.8125 39.890625 
Q 5.8125 47.609375 11.28125 51.796875 
Q 16.75 56 26.8125 56 
Q 31.78125 56 36.171875 55.265625 
Q 40.578125 54.546875 44.28125 53.078125 
z
" id="DejaVuSans-73"/>
      <path d="M 48.78125 52.59375 
L 48.78125 44.1875 
Q 44.96875 46.296875 41.140625 47.34375 
Q 37.3125 48.390625 33.40625 48.390625 
Q 24.65625 48.390625 19.8125 42.84375 
Q 14.984375 37.3125 14.984375 27.296875 
Q 14.984375 17.28125 19.8125 11.734375 
Q 24.65625 6.203125 33.40625 6.203125 
Q 37.3125 6.203125 41.140625 7.25 
Q 44.96875 8.296875 48.78125 10.40625 
L 48.78125 2.09375 
Q 45.015625 0.34375 40.984375 -0.53125 
Q 36.96875 -1.421875 32.421875 -1.421875 
Q 20.0625 -1.421875 12.78125 6.34375 
Q 5.515625 14.109375 5.515625 27.296875 
Q 5.515625 40.671875 12.859375 48.328125 
Q 20.21875 56 33.015625 56 
Q 37.15625 56 41.109375 55.140625 
Q 45.0625 54.296875 48.78125 52.59375 
z
" id="DejaVuSans-63"/>
      <path d="M 30.609375 48.390625 
Q 23.390625 48.390625 19.1875 42.75 
Q 14.984375 37.109375 14.984375 27.296875 
Q 14.984375 17.484375 19.15625 11.84375 
Q 23.34375 6.203125 30.609375 6.203125 
Q 37.796875 6.203125 41.984375 11.859375 
Q 46.1875 17.53125 46.1875 27.296875 
Q 46.1875 37.015625 41.984375 42.703125 
Q 37.796875 48.390625 30.609375 48.390625 
z
M 30.609375 56 
Q 42.328125 56 49.015625 48.375 
Q 55.71875 40.765625 55.71875 27.296875 
Q 55.71875 13.875 49.015625 6.21875 
Q 42.328125 -1.421875 30.609375 -1.421875 
Q 18.84375 -1.421875 12.171875 6.21875 
Q 5.515625 13.875 5.515625 27.296875 
Q 5.515625 40.765625 12.171875 48.375 
Q 18.84375 56 30.609375 56 
z
" id="DejaVuSans-6f"/>
      <path d="M 54.890625 33.015625 
L 54.890625 0 
L 45.90625 0 
L 45.90625 32.71875 
Q 45.90625 40.484375 42.875 44.328125 
Q 39.84375 48.1875 33.796875 48.1875 
Q 26.515625 48.1875 22.3125 43.546875 
Q 18.109375 38.921875 18.109375 30.90625 
L 18.109375 0 
L 9.078125 0 
L 9.078125 54.6875 
L 18.109375 54.6875 
L 18.109375 46.1875 
Q 21.34375 51.125 25.703125 53.5625 
Q 30.078125 56 35.796875 56 
Q 45.21875 56 50.046875 50.171875 
Q 54.890625 44.34375 54.890625 33.015625 
z
" id="DejaVuSans-6e"/>
      <path d="M 45.40625 46.390625 
L 45.40625 75.984375 
L 54.390625 75.984375 
L 54.390625 0 
L 45.40625 0 
L 45.40625 8.203125 
Q 42.578125 3.328125 38.25 0.953125 
Q 33.9375 -1.421875 27.875 -1.421875 
Q 17.96875 -1.421875 11.734375 6.484375 
Q 5.515625 14.40625 5.515625 27.296875 
Q 5.515625 40.1875 11.734375 48.09375 
Q 17.96875 56 27.875 56 
Q 33.9375 56 38.25 53.625 
Q 42.578125 51.265625 45.40625 46.390625 
z
M 14.796875 27.296875 
Q 14.796875 17.390625 18.875 11.75 
Q 22.953125 6.109375 30.078125 6.109375 
Q 37.203125 6.109375 41.296875 11.75 
Q 45.40625 17.390625 45.40625 27.296875 
Q 45.40625 37.203125 41.296875 42.84375 
Q 37.203125 48.484375 30.078125 48.484375 
Q 22.953125 48.484375 18.875 42.84375 
Q 14.796875 37.203125 14.796875 27.296875 
z
" id="DejaVuSans-64"/>
      <path d="M 8.015625 75.875 
L 15.828125 75.875 
Q 23.140625 64.359375 26.78125 53.3125 
Q 30.421875 42.28125 30.421875 31.390625 
Q 30.421875 20.453125 26.78125 9.375 
Q 23.140625 -1.703125 15.828125 -13.1875 
L 8.015625 -13.1875 
Q 14.5 -2 17.703125 9.0625 
Q 20.90625 20.125 20.90625 31.390625 
Q 20.90625 42.671875 17.703125 53.65625 
Q 14.5 64.65625 8.015625 75.875 
z
" id="DejaVuSans-29"/>
     </defs>
     <g style="fill:#262626;" transform="translate(208.647813 329.796406)scale(0.11 -0.11)">
      <use xlink:href="#DejaVuSans-54"/>
      <use x="61.037109" xlink:href="#DejaVuSans-69"/>
      <use x="88.820312" xlink:href="#DejaVuSans-6d"/>
      <use x="186.232422" xlink:href="#DejaVuSans-65"/>
      <use x="247.755859" xlink:href="#DejaVuSans-20"/>
      <use x="279.542969" xlink:href="#DejaVuSans-28"/>
      <use x="318.556641" xlink:href="#DejaVuSans-73"/>
      <use x="370.65625" xlink:href="#DejaVuSans-65"/>
      <use x="432.179688" xlink:href="#DejaVuSans-63"/>
      <use x="487.160156" xlink:href="#DejaVuSans-6f"/>
      <use x="548.341797" xlink:href="#DejaVuSans-6e"/>
      <use x="611.720703" xlink:href="#DejaVuSans-64"/>
      <use x="675.197266" xlink:href="#DejaVuSans-73"/>
      <use x="727.296875" xlink:href="#DejaVuSans-29"/>
     </g>
    </g>
   </g>
   <g id="matplotlib.axis_2">
    <g id="ytick_1">
     <g id="line2d_13">
      <path clip-path="url(#pcc893e9c30)" d="M 53.75 297.392986 
L 447.84 297.392986 
" style="fill:none;stroke:#ffffff;stroke-linecap:round;"/>
     </g>
     <g id="line2d_14"/>
     <g id="text_8">
      <!-- 0 -->
      <g style="fill:#262626;" transform="translate(40.3875 301.192205)scale(0.1 -0.1)">
       <use xlink:href="#DejaVuSans-30"/>
      </g>
     </g>
    </g>
    <g id="ytick_2">
     <g id="line2d_15">
      <path clip-path="url(#pcc893e9c30)" d="M 53.75 244.277737 
L 447.84 244.277737 
" style="fill:none;stroke:#ffffff;stroke-linecap:round;"/>
     </g>
     <g id="line2d_16"/>
     <g id="text_9">
      <!-- 20 -->
      <g style="fill:#262626;" transform="translate(34.025 248.076955)scale(0.1 -0.1)">
       <use xlink:href="#DejaVuSans-32"/>
       <use x="63.623047" xlink:href="#DejaVuSans-30"/>
      </g>
     </g>
    </g>
    <g id="ytick_3">
     <g id="line2d_17">
      <path clip-path="url(#pcc893e9c30)" d="M 53.75 191.162487 
L 447.84 191.162487 
" style="fill:none;stroke:#ffffff;stroke-linecap:round;"/>
     </g>
     <g id="line2d_18"/>
     <g id="text_10">
      <!-- 40 -->
      <defs>
       <path d="M 37.796875 64.3125 
L 12.890625 25.390625 
L 37.796875 25.390625 
z
M 35.203125 72.90625 
L 47.609375 72.90625 
L 47.609375 25.390625 
L 58.015625 25.390625 
L 58.015625 17.1875 
L 47.609375 17.1875 
L 47.609375 0 
L 37.796875 0 
L 37.796875 17.1875 
L 4.890625 17.1875 
L 4.890625 26.703125 
z
" id="DejaVuSans-34"/>
      </defs>
      <g style="fill:#262626;" transform="translate(34.025 194.961706)scale(0.1 -0.1)">
       <use xlink:href="#DejaVuSans-34"/>
       <use x="63.623047" xlink:href="#DejaVuSans-30"/>
      </g>
     </g>
    </g>
    <g id="ytick_4">
     <g id="line2d_19">
      <path clip-path="url(#pcc893e9c30)" d="M 53.75 138.047238 
L 447.84 138.047238 
" style="fill:none;stroke:#ffffff;stroke-linecap:round;"/>
     </g>
     <g id="line2d_20"/>
     <g id="text_11">
      <!-- 60 -->
      <defs>
       <path d="M 33.015625 40.375 
Q 26.375 40.375 22.484375 35.828125 
Q 18.609375 31.296875 18.609375 23.390625 
Q 18.609375 15.53125 22.484375 10.953125 
Q 26.375 6.390625 33.015625 6.390625 
Q 39.65625 6.390625 43.53125 10.953125 
Q 47.40625 15.53125 47.40625 23.390625 
Q 47.40625 31.296875 43.53125 35.828125 
Q 39.65625 40.375 33.015625 40.375 
z
M 52.59375 71.296875 
L 52.59375 62.3125 
Q 48.875 64.0625 45.09375 64.984375 
Q 41.3125 65.921875 37.59375 65.921875 
Q 27.828125 65.921875 22.671875 59.328125 
Q 17.53125 52.734375 16.796875 39.40625 
Q 19.671875 43.65625 24.015625 45.921875 
Q 28.375 48.1875 33.59375 48.1875 
Q 44.578125 48.1875 50.953125 41.515625 
Q 57.328125 34.859375 57.328125 23.390625 
Q 57.328125 12.15625 50.6875 5.359375 
Q 44.046875 -1.421875 33.015625 -1.421875 
Q 20.359375 -1.421875 13.671875 8.265625 
Q 6.984375 17.96875 6.984375 36.375 
Q 6.984375 53.65625 15.1875 63.9375 
Q 23.390625 74.21875 37.203125 74.21875 
Q 40.921875 74.21875 44.703125 73.484375 
Q 48.484375 72.75 52.59375 71.296875 
z
" id="DejaVuSans-36"/>
      </defs>
      <g style="fill:#262626;" transform="translate(34.025 141.846457)scale(0.1 -0.1)">
       <use xlink:href="#DejaVuSans-36"/>
       <use x="63.623047" xlink:href="#DejaVuSans-30"/>
      </g>
     </g>
    </g>
    <g id="ytick_5">
     <g id="line2d_21">
      <path clip-path="url(#pcc893e9c30)" d="M 53.75 84.931989 
L 447.84 84.931989 
" style="fill:none;stroke:#ffffff;stroke-linecap:round;"/>
     </g>
     <g id="line2d_22"/>
     <g id="text_12">
      <!-- 80 -->
      <defs>
       <path d="M 31.78125 34.625 
Q 24.75 34.625 20.71875 30.859375 
Q 16.703125 27.09375 16.703125 20.515625 
Q 16.703125 13.921875 20.71875 10.15625 
Q 24.75 6.390625 31.78125 6.390625 
Q 38.8125 6.390625 42.859375 10.171875 
Q 46.921875 13.96875 46.921875 20.515625 
Q 46.921875 27.09375 42.890625 30.859375 
Q 38.875 34.625 31.78125 34.625 
z
M 21.921875 38.8125 
Q 15.578125 40.375 12.03125 44.71875 
Q 8.5 49.078125 8.5 55.328125 
Q 8.5 64.0625 14.71875 69.140625 
Q 20.953125 74.21875 31.78125 74.21875 
Q 42.671875 74.21875 48.875 69.140625 
Q 55.078125 64.0625 55.078125 55.328125 
Q 55.078125 49.078125 51.53125 44.71875 
Q 48 40.375 41.703125 38.8125 
Q 48.828125 37.15625 52.796875 32.3125 
Q 56.78125 27.484375 56.78125 20.515625 
Q 56.78125 9.90625 50.3125 4.234375 
Q 43.84375 -1.421875 31.78125 -1.421875 
Q 19.734375 -1.421875 13.25 4.234375 
Q 6.78125 9.90625 6.78125 20.515625 
Q 6.78125 27.484375 10.78125 32.3125 
Q 14.796875 37.15625 21.921875 38.8125 
z
M 18.3125 54.390625 
Q 18.3125 48.734375 21.84375 45.5625 
Q 25.390625 42.390625 31.78125 42.390625 
Q 38.140625 42.390625 41.71875 45.5625 
Q 45.3125 48.734375 45.3125 54.390625 
Q 45.3125 60.0625 41.71875 63.234375 
Q 38.140625 66.40625 31.78125 66.40625 
Q 25.390625 66.40625 21.84375 63.234375 
Q 18.3125 60.0625 18.3125 54.390625 
z
" id="DejaVuSans-38"/>
      </defs>
      <g style="fill:#262626;" transform="translate(34.025 88.731207)scale(0.1 -0.1)">
       <use xlink:href="#DejaVuSans-38"/>
       <use x="63.623047" xlink:href="#DejaVuSans-30"/>
      </g>
     </g>
    </g>
    <g id="ytick_6">
     <g id="line2d_23">
      <path clip-path="url(#pcc893e9c30)" d="M 53.75 31.816739 
L 447.84 31.816739 
" style="fill:none;stroke:#ffffff;stroke-linecap:round;"/>
     </g>
     <g id="line2d_24"/>
     <g id="text_13">
      <!-- 100 -->
      <g style="fill:#262626;" transform="translate(27.6625 35.615958)scale(0.1 -0.1)">
       <use xlink:href="#DejaVuSans-31"/>
       <use x="63.623047" xlink:href="#DejaVuSans-30"/>
       <use x="127.246094" xlink:href="#DejaVuSans-30"/>
      </g>
     </g>
    </g>
    <g id="text_14">
     <!-- Tilt (degrees) -->
     <defs>
      <path d="M 9.421875 75.984375 
L 18.40625 75.984375 
L 18.40625 0 
L 9.421875 0 
z
" id="DejaVuSans-6c"/>
      <path d="M 18.3125 70.21875 
L 18.3125 54.6875 
L 36.8125 54.6875 
L 36.8125 47.703125 
L 18.3125 47.703125 
L 18.3125 18.015625 
Q 18.3125 11.328125 20.140625 9.421875 
Q 21.96875 7.515625 27.59375 7.515625 
L 36.8125 7.515625 
L 36.8125 0 
L 27.59375 0 
Q 17.1875 0 13.234375 3.875 
Q 9.28125 7.765625 9.28125 18.015625 
L 9.28125 47.703125 
L 2.6875 47.703125 
L 2.6875 54.6875 
L 9.28125 54.6875 
L 9.28125 70.21875 
z
" id="DejaVuSans-74"/>
      <path d="M 45.40625 27.984375 
Q 45.40625 37.75 41.375 43.109375 
Q 37.359375 48.484375 30.078125 48.484375 
Q 22.859375 48.484375 18.828125 43.109375 
Q 14.796875 37.75 14.796875 27.984375 
Q 14.796875 18.265625 18.828125 12.890625 
Q 22.859375 7.515625 30.078125 7.515625 
Q 37.359375 7.515625 41.375 12.890625 
Q 45.40625 18.265625 45.40625 27.984375 
z
M 54.390625 6.78125 
Q 54.390625 -7.171875 48.1875 -13.984375 
Q 42 -20.796875 29.203125 -20.796875 
Q 24.46875 -20.796875 20.265625 -20.09375 
Q 16.0625 -19.390625 12.109375 -17.921875 
L 12.109375 -9.1875 
Q 16.0625 -11.328125 19.921875 -12.34375 
Q 23.78125 -13.375 27.78125 -13.375 
Q 36.625 -13.375 41.015625 -8.765625 
Q 45.40625 -4.15625 45.40625 5.171875 
L 45.40625 9.625 
Q 42.625 4.78125 38.28125 2.390625 
Q 33.9375 0 27.875 0 
Q 17.828125 0 11.671875 7.65625 
Q 5.515625 15.328125 5.515625 27.984375 
Q 5.515625 40.671875 11.671875 48.328125 
Q 17.828125 56 27.875 56 
Q 33.9375 56 38.28125 53.609375 
Q 42.625 51.21875 45.40625 46.390625 
L 45.40625 54.6875 
L 54.390625 54.6875 
z
" id="DejaVuSans-67"/>
      <path d="M 41.109375 46.296875 
Q 39.59375 47.171875 37.8125 47.578125 
Q 36.03125 48 33.890625 48 
Q 26.265625 48 22.1875 43.046875 
Q 18.109375 38.09375 18.109375 28.8125 
L 18.109375 0 
L 9.078125 0 
L 9.078125 54.6875 
L 18.109375 54.6875 
L 18.109375 46.1875 
Q 20.953125 51.171875 25.484375 53.578125 
Q 30.03125 56 36.53125 56 
Q 37.453125 56 38.578125 55.875 
Q 39.703125 55.765625 41.0625 55.515625 
z
" id="DejaVuSans-72"/>
     </defs>
     <g style="fill:#262626;" transform="translate(21.374844 201.048906)rotate(-90)scale(0.11 -0.11)">
      <use xlink:href="#DejaVuSans-54"/>
      <use x="61.037109" xlink:href="#DejaVuSans-69"/>
      <use x="88.820312" xlink:href="#DejaVuSans-6c"/>
      <use x="116.603516" xlink:href="#DejaVuSans-74"/>
      <use x="155.8125" xlink:href="#DejaVuSans-20"/>
      <use x="187.599609" xlink:href="#DejaVuSans-28"/>
      <use x="226.613281" xlink:href="#DejaVuSans-64"/>
      <use x="290.089844" xlink:href="#DejaVuSans-65"/>
      <use x="351.613281" xlink:href="#DejaVuSans-67"/>
      <use x="415.089844" xlink:href="#DejaVuSans-72"/>
      <use x="456.171875" xlink:href="#DejaVuSans-65"/>
      <use x="517.695312" xlink:href="#DejaVuSans-65"/>
      <use x="579.21875" xlink:href="#DejaVuSans-73"/>
      <use x="631.318359" xlink:href="#DejaVuSans-29"/>
     </g>
    </g>
   </g>
   <g id="line2d_25">
    <path clip-path="url(#pcc893e9c30)" d="M 53.75 283.847106 
L 54.00842 284.058504 
L 54.266839 285.066349 
L 54.525259 284.810168 
L 54.783679 284.904767 
L 55.042098 284.847271 
L 55.300518 285.487619 
L 55.817357 289.281022 
L 56.334197 291.812953 
L 56.592616 292.255891 
L 56.851036 290.284724 
L 57.109456 290.52982 
L 57.367875 290.221515 
L 57.626295 291.32562 
L 58.143134 291.80449 
L 58.401554 290.549212 
L 58.659974 289.907019 
L 58.918393 289.718051 
L 59.176813 289.743883 
L 59.435233 290.250124 
L 59.693652 288.73972 
L 60.210492 289.240464 
L 60.727331 289.810943 
L 60.985751 289.943089 
L 61.24417 289.934996 
L 61.50259 288.856252 
L 61.76101 288.6463 
L 62.01943 288.205616 
L 62.277849 287.16409 
L 62.794689 286.509235 
L 63.053108 286.875947 
L 63.311528 287.039657 
L 63.828367 287.95701 
L 64.345207 290.960247 
L 64.603626 290.984212 
L 64.862046 291.208201 
L 65.120466 291.214591 
L 65.378885 290.994232 
L 65.637305 290.942649 
L 66.154144 297.309745 
L 66.670984 298.198292 
L 66.929403 300.747497 
L 67.187823 300.76 
L 67.446243 298.421105 
L 67.704662 298.953167 
L 67.963082 295.282033 
L 68.221502 295.031519 
L 68.479921 295.214576 
L 68.738341 294.385533 
L 69.25518 291.806296 
L 69.5136 288.315134 
L 69.77202 286.889225 
L 70.030439 283.195134 
L 70.288859 281.762809 
L 71.839377 269.046395 
L 72.097797 268.894639 
L 72.356216 267.617852 
L 72.614636 267.423699 
L 72.873056 267.919496 
L 73.648315 271.618096 
L 73.906734 274.382332 
L 74.423574 277.039684 
L 75.198833 282.598627 
L 75.715672 284.842523 
L 75.974092 283.874072 
L 76.232511 285.826468 
L 76.490931 286.607406 
L 76.749351 285.531872 
L 77.00777 288.731112 
L 77.26619 283.504058 
L 77.78303 279.848175 
L 78.041449 276.785801 
L 78.558289 278.638705 
L 78.816708 278.660678 
L 79.075128 280.042608 
L 79.591967 283.998221 
L 79.850387 284.41969 
L 80.108807 285.201332 
L 80.367226 284.789407 
L 80.625646 283.391995 
L 80.884066 284.939701 
L 81.142485 283.341613 
L 81.400905 284.121017 
L 81.659325 281.684294 
L 81.917744 280.987151 
L 82.176164 279.656818 
L 82.434584 280.49731 
L 82.693003 280.472741 
L 83.209843 282.053858 
L 83.726682 284.735522 
L 83.985102 283.720414 
L 84.243521 283.930419 
L 84.501941 283.597817 
L 84.760361 283.081701 
L 86.052459 279.127855 
L 86.310879 278.826212 
L 86.569298 279.406573 
L 86.827718 279.651139 
L 87.086138 280.271308 
L 87.344557 280.460198 
L 87.602977 279.684082 
L 87.861397 280.463732 
L 88.119816 280.35421 
L 88.378236 281.045211 
L 88.636656 280.26325 
L 88.895075 280.268132 
L 89.153495 280.733964 
L 89.411915 280.918911 
L 89.928754 281.924868 
L 90.187174 282.798224 
L 90.704013 283.115008 
L 91.220852 281.108764 
L 91.737692 276.244235 
L 93.02979 260.782115 
L 93.28821 261.177649 
L 93.805049 262.739845 
L 94.838728 269.314891 
L 95.355567 272.090226 
L 95.613987 272.033123 
L 96.130826 276.289698 
L 96.389246 276.391275 
L 96.647666 276.870031 
L 96.906085 277.683939 
L 97.164505 277.302791 
L 97.422925 277.780211 
L 97.681344 278.017711 
L 97.939764 278.540886 
L 98.198184 278.17823 
L 98.456603 279.164301 
L 98.715023 278.889434 
L 98.973443 279.265552 
L 99.231862 280.292654 
L 99.490282 280.117172 
L 99.748702 280.430858 
L 100.007121 279.780273 
L 100.523961 276.665131 
L 100.78238 276.702535 
L 101.0408 277.176981 
L 101.29922 276.941169 
L 101.557639 276.284054 
L 102.332898 270.606672 
L 102.591318 269.670415 
L 102.849738 268.080584 
L 103.108157 267.234416 
L 103.366577 264.655542 
L 103.624997 264.114804 
L 103.883416 263.181893 
L 104.141836 263.440298 
L 104.400256 262.453574 
L 104.917095 263.431455 
L 105.433934 262.66763 
L 105.692354 262.029416 
L 105.950774 259.813077 
L 106.209193 258.710135 
L 106.467613 258.317431 
L 106.726033 255.423541 
L 106.984452 254.682302 
L 107.242872 252.767034 
L 107.501292 252.697165 
L 107.759711 252.93063 
L 108.018131 253.909146 
L 108.53497 257.199533 
L 108.79339 258.264647 
L 109.05181 259.863008 
L 109.31023 259.639056 
L 109.568649 261.335085 
L 109.827069 261.691753 
L 110.085489 261.17392 
L 110.602328 263.296607 
L 111.377587 266.606922 
L 111.636007 266.98796 
L 112.152846 268.119076 
L 112.411266 267.961733 
L 112.928105 265.797095 
L 113.186525 265.666498 
L 113.444944 264.202508 
L 113.703364 264.447976 
L 114.220203 262.504017 
L 114.478623 261.394115 
L 115.770721 251.369971 
L 116.287561 249.012159 
L 116.8044 248.723701 
L 117.06282 249.039565 
L 117.321239 249.567424 
L 118.354918 246.006488 
L 118.613338 245.345009 
L 119.130177 246.037654 
L 119.388597 246.749738 
L 119.647016 248.142173 
L 119.905436 250.646929 
L 120.422275 253.033128 
L 120.680695 255.111126 
L 120.939115 255.811596 
L 121.455954 258.051652 
L 121.714374 258.938037 
L 122.231213 261.075442 
L 122.748052 261.832707 
L 123.006472 261.238121 
L 123.523311 260.577392 
L 124.040151 257.741306 
L 124.29857 257.463231 
L 124.55699 255.952609 
L 124.81541 256.272585 
L 125.07383 255.559559 
L 125.332249 255.524197 
L 125.590669 254.966847 
L 126.107508 253.106474 
L 126.365928 252.672504 
L 126.624348 251.978281 
L 126.882767 251.665063 
L 127.141187 250.857555 
L 127.399607 250.876477 
L 127.658026 248.923242 
L 128.174866 247.020651 
L 128.433285 246.861476 
L 128.691705 246.865496 
L 128.950125 248.180535 
L 129.208544 247.427281 
L 129.725384 248.655309 
L 129.983803 246.724782 
L 130.242223 246.010843 
L 130.759062 243.898766 
L 131.017482 242.706518 
L 131.275902 242.048158 
L 131.534321 240.145605 
L 131.792741 240.463301 
L 132.051161 239.84848 
L 132.30958 240.533514 
L 132.82642 242.171827 
L 133.343259 245.855727 
L 133.860098 248.399691 
L 134.118518 248.782874 
L 134.376938 249.417189 
L 134.635357 249.065721 
L 134.893777 250.047126 
L 135.410616 250.804862 
L 136.702715 254.964008 
L 137.219554 254.846895 
L 137.477974 253.327706 
L 137.736393 252.677682 
L 137.994813 250.887979 
L 138.253233 250.112965 
L 138.511652 248.498809 
L 139.028492 247.048906 
L 139.286911 246.761515 
L 139.803751 244.73705 
L 140.06217 244.238522 
L 140.57901 240.640897 
L 141.354269 236.991604 
L 141.612689 236.797418 
L 141.871108 235.681523 
L 142.129528 236.030428 
L 142.387948 235.066101 
L 142.646367 235.446072 
L 142.904787 234.405189 
L 143.421626 233.926855 
L 143.680046 233.679289 
L 143.938466 233.594672 
L 144.196885 233.09329 
L 144.713725 233.529901 
L 144.972144 234.253566 
L 145.230564 233.590076 
L 145.747403 235.290396 
L 146.005823 235.767264 
L 146.264243 235.392173 
L 146.522662 235.819995 
L 146.781082 237.015769 
L 147.039502 236.933873 
L 147.297921 237.122331 
L 147.556341 237.482953 
L 147.814761 238.625188 
L 148.07318 240.482563 
L 148.3316 240.475903 
L 148.59002 240.989518 
L 149.106859 241.212567 
L 149.365279 241.745226 
L 149.623698 241.597476 
L 149.882118 242.830395 
L 150.140538 242.489167 
L 150.398957 244.032201 
L 150.657377 243.987224 
L 150.915797 243.730479 
L 151.432636 242.02011 
L 151.691056 241.626093 
L 151.949475 240.151897 
L 152.207895 239.892322 
L 152.466315 239.033913 
L 152.724734 237.418681 
L 153.499993 235.101049 
L 154.016833 233.423833 
L 154.275252 233.635374 
L 154.533672 233.280401 
L 154.792092 231.348314 
L 155.050511 230.964564 
L 155.308931 228.223669 
L 155.567351 227.751355 
L 156.60103 224.561344 
L 157.117869 224.020692 
L 157.376289 224.598429 
L 157.634708 224.723431 
L 157.893128 225.494442 
L 158.409967 228.244836 
L 159.185226 232.448275 
L 159.443646 232.637832 
L 159.702066 233.229492 
L 159.960485 232.574225 
L 160.218905 232.977818 
L 160.477325 232.276927 
L 160.735744 230.711215 
L 160.994164 230.329634 
L 161.252584 229.489281 
L 161.511003 229.640807 
L 161.769423 229.53156 
L 162.027843 229.80846 
L 162.544682 226.043124 
L 163.578361 223.304461 
L 163.83678 223.229392 
L 164.0952 222.027249 
L 164.35362 222.712143 
L 165.128879 220.659489 
L 165.387298 221.558039 
L 165.645718 220.790481 
L 165.904138 220.797544 
L 166.162557 221.469876 
L 166.937816 222.43675 
L 167.196236 223.964086 
L 167.454656 224.688716 
L 167.713075 224.445459 
L 167.971495 225.006823 
L 168.229915 222.906189 
L 168.488334 219.539389 
L 168.746754 218.042007 
L 169.005174 214.082952 
L 169.263593 212.606032 
L 169.522013 209.820316 
L 169.780433 209.415705 
L 170.038852 208.643278 
L 171.330951 215.813664 
L 171.84779 217.506407 
L 172.10621 217.446972 
L 172.36463 217.661585 
L 172.623049 218.681551 
L 172.881469 217.894525 
L 173.139889 216.599594 
L 173.398308 215.935419 
L 173.915148 213.768991 
L 174.173567 214.556446 
L 174.948826 215.97671 
L 175.207246 216.693735 
L 175.465666 216.499713 
L 175.724085 216.135922 
L 175.982505 214.919554 
L 176.499344 210.627128 
L 177.016184 205.222826 
L 177.274603 203.823551 
L 177.533023 201.279929 
L 177.791443 199.934063 
L 178.049862 197.915282 
L 178.308282 197.506702 
L 178.566702 195.976665 
L 178.825121 196.289502 
L 179.083541 196.139768 
L 180.11722 200.36917 
L 180.375639 200.612786 
L 180.634059 200.522716 
L 180.892479 201.649897 
L 181.150898 200.800556 
L 181.409318 200.969398 
L 181.667738 200.889015 
L 181.926157 199.649914 
L 182.184577 199.717408 
L 182.442997 200.670637 
L 182.701416 200.408107 
L 182.959836 200.818543 
L 183.218256 202.314672 
L 183.476675 202.780631 
L 183.735095 203.797547 
L 183.993515 203.743392 
L 184.251934 204.526229 
L 184.510354 204.087067 
L 184.768774 204.609594 
L 185.027193 206.486337 
L 185.285613 207.217382 
L 185.802452 209.778279 
L 186.060872 210.572987 
L 186.319292 209.962004 
L 186.577711 207.823582 
L 186.836131 207.281398 
L 187.61139 200.099293 
L 187.86981 199.682011 
L 188.12823 198.374346 
L 188.386649 198.396137 
L 188.645069 198.09941 
L 188.903489 199.092383 
L 189.161908 197.435205 
L 189.420328 198.363807 
L 189.937167 197.080427 
L 190.454007 194.404775 
L 190.712426 193.617427 
L 190.970846 191.093282 
L 191.229266 189.907769 
L 191.487685 189.77586 
L 191.746105 190.762673 
L 192.004525 192.943195 
L 192.262944 193.267967 
L 192.521364 194.104148 
L 193.038203 196.501156 
L 193.296623 196.026053 
L 193.813462 197.01194 
L 194.071882 196.430881 
L 194.330302 196.591897 
L 194.588721 197.023753 
L 194.847141 196.523289 
L 195.105561 196.383912 
L 195.36398 196.744441 
L 195.6224 195.165876 
L 195.88082 194.276867 
L 196.139239 194.788361 
L 196.397659 193.604617 
L 196.656079 193.930266 
L 196.914498 193.730358 
L 197.172918 193.922714 
L 197.431338 194.466559 
L 197.689757 194.550436 
L 197.948177 194.080549 
L 198.465016 196.071227 
L 198.723436 195.161769 
L 198.981856 196.175674 
L 199.240275 195.064901 
L 199.498695 194.971243 
L 199.757115 195.44369 
L 200.015534 193.899781 
L 200.532374 196.614796 
L 200.790793 196.006287 
L 201.566052 191.832455 
L 202.599731 177.342574 
L 202.858151 175.068778 
L 203.11657 173.872052 
L 203.37499 173.795146 
L 203.63341 172.708871 
L 203.89183 172.940853 
L 204.408669 175.974908 
L 204.667089 179.604792 
L 206.217607 190.88862 
L 206.734446 195.926475 
L 207.251285 199.946846 
L 207.509705 199.843285 
L 207.768125 201.413305 
L 208.026544 201.331131 
L 208.284964 200.01048 
L 208.543384 199.794095 
L 208.801803 198.388376 
L 209.060223 195.941058 
L 209.318643 195.869906 
L 209.577062 196.324621 
L 209.835482 193.754436 
L 210.093902 193.986429 
L 211.386 181.631638 
L 211.64442 180.436522 
L 211.902839 178.168413 
L 212.161259 177.024324 
L 212.936518 171.746901 
L 213.194938 171.830448 
L 213.711777 170.479698 
L 213.970197 170.774009 
L 214.228616 170.542718 
L 214.487036 171.958205 
L 214.745456 172.010753 
L 215.003875 172.947082 
L 215.520715 176.113426 
L 215.779134 176.235552 
L 216.037554 178.628624 
L 216.295974 179.444417 
L 216.812813 182.844078 
L 217.071233 185.716953 
L 218.104911 190.785965 
L 218.363331 190.515877 
L 218.621751 190.609582 
L 219.13859 187.651848 
L 219.913849 185.387237 
L 220.172269 183.946802 
L 220.430689 184.471039 
L 220.947528 181.902166 
L 221.205948 182.488458 
L 221.464367 182.605051 
L 221.722787 183.369901 
L 221.981207 182.493294 
L 222.239626 182.838219 
L 222.756466 178.834316 
L 223.273305 172.628191 
L 223.790144 165.578002 
L 224.306984 159.967012 
L 224.565403 159.631917 
L 224.823823 160.841494 
L 225.082243 160.682665 
L 225.599082 162.984701 
L 226.115921 164.998415 
L 226.374341 165.451607 
L 227.1496 169.638005 
L 227.40802 170.894913 
L 227.666439 174.586676 
L 228.183279 177.661032 
L 228.958538 188.121063 
L 229.216957 190.90537 
L 229.475377 192.240317 
L 229.733797 192.516522 
L 229.992216 192.407794 
L 230.250636 192.476678 
L 230.767475 191.14229 
L 231.284315 188.984244 
L 232.576413 178.612657 
L 233.868511 167.247961 
L 234.385351 164.186213 
L 234.64377 163.595729 
L 235.16061 159.584015 
L 235.41903 160.176387 
L 235.677449 157.962859 
L 235.935869 158.417845 
L 236.194289 157.577429 
L 236.452708 158.054715 
L 236.711128 159.310167 
L 236.969548 159.482358 
L 237.227967 160.104058 
L 237.486387 161.802194 
L 237.744807 162.48887 
L 238.520066 166.000361 
L 238.778485 168.234567 
L 239.036905 168.330734 
L 239.295325 169.904709 
L 239.553744 170.184411 
L 240.070584 172.333087 
L 240.587423 171.037877 
L 240.845843 169.242758 
L 241.104262 170.376807 
L 241.362682 169.523872 
L 241.621102 170.293605 
L 241.879521 169.805011 
L 242.137941 170.573728 
L 242.65478 174.193228 
L 242.9132 174.212452 
L 243.17162 174.409505 
L 243.688459 172.039088 
L 244.980557 157.726388 
L 245.238977 159.01729 
L 245.497397 158.852046 
L 245.755816 159.007896 
L 246.014236 159.743125 
L 246.272656 159.816547 
L 246.531075 160.071941 
L 246.789495 159.791511 
L 247.306334 158.557707 
L 247.564754 158.434399 
L 247.823174 157.497715 
L 248.340013 156.469844 
L 248.598433 155.437889 
L 248.856852 155.359788 
L 249.115272 156.130264 
L 249.373692 154.884292 
L 249.632111 153.046382 
L 249.890531 153.762245 
L 250.148951 152.577976 
L 250.66579 148.442626 
L 250.92421 148.347254 
L 251.18263 148.08311 
L 251.441049 147.622892 
L 251.699469 148.283149 
L 251.957889 148.166539 
L 252.733148 151.12864 
L 252.991567 151.461857 
L 253.249987 152.094284 
L 253.766826 155.012243 
L 254.025246 156.109977 
L 254.542085 158.911385 
L 254.800505 159.170591 
L 255.058925 158.548252 
L 255.317344 160.098393 
L 255.834184 160.667981 
L 256.092603 160.578389 
L 256.867862 159.150978 
L 257.126282 159.16835 
L 257.384702 158.213689 
L 257.643121 159.184803 
L 258.159961 157.717436 
L 258.41838 156.626574 
L 258.6768 158.490268 
L 259.193639 157.758195 
L 259.452059 158.300096 
L 259.710479 157.934636 
L 260.227318 152.064025 
L 261.260997 134.974112 
L 261.519416 129.424744 
L 261.777836 129.129741 
L 262.036256 124.510558 
L 262.294675 123.604075 
L 263.069934 127.443092 
L 263.328354 129.527627 
L 263.845193 137.106317 
L 264.103613 139.082436 
L 264.362033 142.139438 
L 264.620452 143.128117 
L 264.878872 142.675026 
L 265.137292 142.811867 
L 265.654131 144.889746 
L 265.912551 145.832312 
L 266.42939 149.740708 
L 266.68781 151.082419 
L 266.94623 153.486116 
L 267.204649 153.449597 
L 267.463069 153.285929 
L 267.721489 152.314962 
L 267.979908 152.346854 
L 268.238328 152.220028 
L 268.496748 151.664696 
L 268.755167 150.592974 
L 269.013587 152.291543 
L 269.272007 151.414996 
L 269.788846 152.628246 
L 270.047266 152.030187 
L 270.305685 151.811763 
L 270.564105 150.895116 
L 270.822525 150.969511 
L 271.080944 149.211338 
L 271.339364 148.701679 
L 271.597784 148.733223 
L 271.856203 149.325152 
L 272.631462 145.98889 
L 272.889882 145.85127 
L 273.148302 146.418547 
L 273.406721 145.664362 
L 273.665141 145.700051 
L 273.923561 143.811494 
L 274.18198 143.990385 
L 274.4404 141.933344 
L 275.732498 137.760685 
L 275.990918 137.13187 
L 276.507757 133.344303 
L 276.766177 133.414617 
L 277.283016 130.031576 
L 277.541436 129.119995 
L 277.799856 129.20161 
L 278.058275 127.962915 
L 278.316695 127.589521 
L 278.575115 127.92592 
L 278.833534 127.942084 
L 279.091954 129.23597 
L 279.608793 130.988783 
L 280.125633 133.86165 
L 280.384052 133.362037 
L 280.642472 134.476284 
L 280.900892 134.477771 
L 281.417731 137.908782 
L 281.676151 139.772818 
L 281.93457 140.573591 
L 282.45141 143.262009 
L 282.968249 144.944341 
L 283.226669 143.828403 
L 283.485089 141.896069 
L 283.743508 140.878929 
L 284.001928 140.742911 
L 284.260348 138.885909 
L 284.518767 138.443877 
L 284.777187 137.741499 
L 285.035607 136.376146 
L 285.294026 136.662814 
L 285.810866 134.103543 
L 287.619803 118.83342 
L 287.878223 119.515566 
L 288.136643 118.649042 
L 288.395062 119.169819 
L 288.653482 120.41939 
L 288.911902 120.048065 
L 289.170321 120.327917 
L 290.46242 111.194847 
L 290.720839 108.976014 
L 290.979259 108.068818 
L 291.237679 108.754247 
L 291.496098 107.805255 
L 292.271357 110.78827 
L 292.529777 113.964305 
L 293.046616 116.280913 
L 293.305036 115.711918 
L 293.821875 111.458464 
L 294.080295 110.94793 
L 294.338715 108.700825 
L 294.855554 107.219153 
L 295.372393 106.948309 
L 295.889233 110.358505 
L 296.147652 111.084792 
L 296.406072 112.522127 
L 296.664492 113.1291 
L 296.922911 113.345954 
L 297.181331 112.721878 
L 297.439751 113.052128 
L 297.95659 111.710548 
L 298.21501 111.731665 
L 298.47343 111.914254 
L 298.731849 113.389963 
L 298.990269 113.40672 
L 299.248689 113.114331 
L 299.507108 113.214017 
L 299.765528 111.18167 
L 300.023948 110.52094 
L 300.282367 109.496532 
L 300.540787 107.954283 
L 300.799207 110.086554 
L 301.316046 108.965523 
L 301.574466 109.579615 
L 301.832885 107.947478 
L 302.091305 107.84408 
L 302.349725 108.633724 
L 302.608144 108.782552 
L 302.866564 109.104487 
L 303.124984 109.007648 
L 303.383403 109.33991 
L 303.641823 110.087741 
L 303.900243 111.81821 
L 304.158662 112.564561 
L 304.417082 112.279888 
L 304.675502 111.616036 
L 304.933921 111.750563 
L 305.450761 109.440302 
L 305.70918 109.281781 
L 305.9676 107.602169 
L 306.22602 106.671972 
L 306.742859 102.916163 
L 307.001279 102.167619 
L 307.518118 102.270354 
L 307.776538 101.822861 
L 308.293377 99.098938 
L 308.810216 97.921367 
L 309.068636 95.337067 
L 309.327056 94.328247 
L 309.843895 88.636382 
L 310.102315 87.133684 
L 310.360734 83.074942 
L 310.619154 82.443157 
L 310.877574 81.412239 
L 311.135993 79.679962 
L 311.394413 79.273991 
L 311.652833 77.916275 
L 311.911252 79.516032 
L 312.169672 79.997458 
L 312.686511 83.413914 
L 312.944931 84.285099 
L 313.203351 84.706826 
L 313.97861 88.084966 
L 314.495449 93.714517 
L 314.753869 94.175007 
L 315.529128 99.120283 
L 315.787548 98.690463 
L 316.045967 99.24584 
L 316.304387 96.816894 
L 317.338066 81.212135 
L 317.596485 79.175892 
L 317.854905 78.862426 
L 318.113325 77.467462 
L 318.371744 78.011095 
L 318.630164 77.329512 
L 318.888584 78.839144 
L 319.147003 77.666393 
L 319.405423 74.599651 
L 319.663843 76.847148 
L 319.922262 77.375069 
L 320.180682 76.403476 
L 320.439102 76.712265 
L 320.955941 79.194101 
L 321.214361 76.733246 
L 321.47278 76.622874 
L 321.7312 78.274944 
L 321.98962 78.363341 
L 322.248039 77.73209 
L 322.506459 78.718767 
L 322.764879 80.611775 
L 323.023298 81.202193 
L 324.056977 75.521768 
L 324.315397 75.070221 
L 324.573816 73.388223 
L 324.832236 72.566668 
L 325.090656 73.966436 
L 325.349075 73.588029 
L 325.865915 75.062942 
L 326.124334 76.419156 
L 326.382754 76.497422 
L 326.899593 78.98517 
L 327.158013 79.044352 
L 327.933272 74.039499 
L 328.191692 71.38808 
L 328.450111 71.241697 
L 328.708531 70.56383 
L 329.22537 72.048912 
L 330.00063 76.963388 
L 330.259049 77.708176 
L 330.517469 79.902969 
L 330.775889 79.223869 
L 331.034308 80.244861 
L 331.292728 80.348118 
L 331.551148 80.853897 
L 331.809567 79.281925 
L 332.067987 79.34727 
L 332.326407 78.416135 
L 332.584826 81.467973 
L 333.101666 82.654883 
L 333.618505 80.859202 
L 334.393764 75.000022 
L 334.910603 67.401022 
L 335.169023 63.529261 
L 335.685862 59.578225 
L 335.944282 59.395094 
L 336.719541 58.445402 
L 337.23638 54.547146 
L 337.4948 54.428429 
L 337.75322 52.099484 
L 338.011639 52.114404 
L 338.270059 51.979369 
L 338.528479 53.178126 
L 339.045318 57.802993 
L 340.595836 77.252481 
L 341.371095 80.705221 
L 341.629515 79.83683 
L 341.887934 81.469581 
L 342.146354 81.248081 
L 342.663193 83.821187 
L 342.921613 84.611081 
L 343.180033 84.460361 
L 343.438452 85.523775 
L 345.50581 63.728551 
L 345.76423 62.706643 
L 346.281069 59.818135 
L 346.539489 59.323619 
L 346.797908 59.793101 
L 347.056328 59.120608 
L 347.314748 59.128356 
L 347.573167 60.544887 
L 347.831587 60.006573 
L 348.090007 60.831906 
L 348.606846 59.238105 
L 348.865266 59.308976 
L 349.382105 57.47866 
L 349.640525 58.195893 
L 349.898944 56.802035 
L 350.157364 57.303056 
L 351.191043 61.029598 
L 351.449462 61.159328 
L 351.707882 61.995752 
L 351.966302 61.966663 
L 352.224721 61.608244 
L 352.483141 61.928777 
L 352.741561 59.931543 
L 353.2584 58.337242 
L 353.51682 58.412038 
L 353.775239 59.606888 
L 354.292079 55.280418 
L 354.550498 55.737217 
L 354.808918 56.85205 
L 355.067338 55.74688 
L 355.325757 55.220068 
L 355.584177 58.302825 
L 355.842597 59.262332 
L 356.101016 59.788158 
L 356.359436 59.811153 
L 356.876275 59.410449 
L 357.134695 61.613654 
L 357.909954 59.638382 
L 358.168374 60.744221 
L 358.426793 61.328633 
L 358.685213 61.607862 
L 359.202052 58.940027 
L 359.460472 58.955401 
L 359.718892 61.980798 
L 359.977311 67.790355 
L 360.235731 70.260498 
L 360.494151 65.951717 
L 360.75257 66.052176 
L 361.01099 65.195372 
L 361.52783 62.226241 
L 361.786249 61.724675 
L 362.303089 61.450856 
L 362.561508 61.56941 
L 362.819928 61.529637 
L 363.078348 63.017197 
L 363.336767 62.496841 
L 363.595187 62.728099 
L 363.853607 62.64813 
L 364.370446 61.52795 
L 364.628866 60.682477 
L 364.887285 60.933959 
L 365.404125 57.244274 
L 365.662544 56.91059 
L 365.920964 54.669097 
L 366.179384 54.215937 
L 366.437803 52.810308 
L 366.954643 53.343329 
L 367.213062 51.661984 
L 367.471482 51.99703 
L 367.729902 52.55978 
L 367.988321 52.347381 
L 368.246741 53.825614 
L 368.505161 53.684185 
L 368.76358 52.46839 
L 369.022 51.945757 
L 369.28042 53.00231 
L 369.538839 51.503189 
L 369.797259 52.994372 
L 370.055679 53.742083 
L 370.314098 52.911867 
L 370.572518 52.958559 
L 371.089357 51.780978 
L 371.347777 51.550394 
L 371.606197 51.649567 
L 371.864616 52.226476 
L 372.123036 51.303708 
L 372.381456 51.825725 
L 372.639875 54.670729 
L 372.898295 54.708471 
L 373.156715 55.742406 
L 373.415134 55.587657 
L 374.190393 54.169626 
L 374.448813 52.447968 
L 374.707233 52.734632 
L 374.965652 52.332475 
L 375.224072 51.278051 
L 375.482492 51.81505 
L 375.740911 51.74568 
L 375.999331 51.273461 
L 376.257751 53.118167 
L 376.51617 52.146367 
L 376.77459 53.099115 
L 377.03301 53.506778 
L 377.29143 55.018892 
L 377.808269 50.319996 
L 378.066689 51.744228 
L 378.325108 52.135786 
L 379.100367 47.470404 
L 379.358787 47.940396 
L 379.617207 47.237666 
L 379.875626 47.708304 
L 380.134046 48.624993 
L 380.392466 50.311601 
L 380.650885 50.065096 
L 380.909305 52.173904 
L 381.167725 51.890287 
L 381.426144 54.33288 
L 381.942984 57.055349 
L 382.201403 57.36377 
L 383.235082 60.374559 
L 383.493502 61.818467 
L 383.751921 61.592394 
L 384.010341 63.371051 
L 384.268761 63.311831 
L 384.52718 62.805427 
L 385.04402 60.504665 
L 385.302439 58.410218 
L 385.560859 54.911821 
L 386.077698 51.531425 
L 386.336118 49.433844 
L 386.594538 49.007463 
L 386.852957 46.324252 
L 387.111377 46.123171 
L 387.369797 43.29223 
L 387.628216 42.701712 
L 387.886636 39.611633 
L 388.403475 37.189501 
L 388.661895 34.913225 
L 388.920315 35.215471 
L 389.178734 34.086113 
L 389.695574 36.051314 
L 389.953993 38.680644 
L 390.212413 39.811308 
L 390.729252 45.203199 
L 390.987672 47.670077 
L 391.246092 48.704897 
L 391.762931 49.135857 
L 392.021351 47.131189 
L 392.27977 47.303671 
L 392.53819 47.192488 
L 392.79661 47.31628 
L 393.05503 48.299204 
L 394.088708 57.868614 
L 394.605548 60.586883 
L 394.863967 59.935662 
L 395.122387 59.874812 
L 395.380807 59.026687 
L 395.639226 58.889474 
L 396.156066 56.141437 
L 396.414485 55.605502 
L 396.672905 56.485774 
L 397.189744 54.42104 
L 397.706584 51.946631 
L 398.740262 42.104721 
L 398.998682 37.330422 
L 399.515521 32.677925 
L 400.032361 29.871401 
L 400.29078 30.245231 
L 400.5492 31.312436 
L 401.066039 36.685233 
L 401.324459 39.246998 
L 401.582879 40.268666 
L 402.099718 41.26259 
L 402.358138 42.723211 
L 402.874977 46.514428 
L 403.133397 47.346192 
L 403.650236 50.743194 
L 403.908656 52.38729 
L 404.167075 52.267744 
L 404.942334 53.785334 
L 405.200754 53.503533 
L 405.459174 53.809799 
L 405.717593 52.686109 
L 405.976013 53.267822 
L 406.234433 52.894582 
L 406.492852 53.048379 
L 406.751272 52.153574 
L 407.009692 51.827724 
L 407.526531 48.090362 
L 407.784951 48.038293 
L 408.04337 47.430549 
L 408.30179 47.293674 
L 408.56021 47.298675 
L 408.81863 46.597183 
L 409.077049 46.343454 
L 409.335469 47.921002 
L 409.593889 46.968577 
L 410.110728 43.094023 
L 411.144407 34.874465 
L 411.402826 34.187965 
L 411.919666 31.267529 
L 412.178085 32.434972 
L 412.436505 32.137049 
L 412.694925 32.751099 
L 412.953344 32.283881 
L 413.211764 32.825468 
L 413.470184 30.944086 
L 413.728603 30.561345 
L 413.987023 29.803066 
L 414.245443 30.112458 
L 414.762282 29.059951 
L 415.020702 28.90656 
L 415.279121 27.678973 
L 415.537541 27.6 
L 415.795961 27.65502 
L 416.05438 27.873785 
L 417.088059 31.609863 
L 417.863318 35.143846 
L 418.121738 35.822665 
L 419.155416 43.633204 
L 419.930675 48.314947 
L 420.189095 48.299855 
L 420.964354 50.51787 
L 421.222774 50.544983 
L 421.739613 50.907541 
L 421.998033 51.538928 
L 422.256452 50.724765 
L 422.514872 51.761175 
L 422.773292 51.438727 
L 423.031711 51.397327 
L 423.80697 45.475708 
L 424.06539 45.274536 
L 424.32381 42.934391 
L 425.099069 41.01289 
L 425.615908 40.509529 
L 426.649587 33.677787 
L 426.908007 33.591566 
L 427.166426 31.94018 
L 427.424846 31.61708 
L 427.683266 30.473364 
L 427.941685 30.466717 
L 428.200105 29.498244 
L 428.458525 30.136415 
L 428.716944 29.820143 
L 429.233784 31.934275 
L 429.492203 33.4507 
L 429.750623 33.856679 
L 430.009043 36.306631 
L 430.267462 36.103354 
L 430.784302 39.256777 
L 431.042721 40.232651 
L 432.593239 50.138612 
L 432.851659 49.954362 
L 433.110079 50.137759 
L 433.368498 50.492973 
L 433.626918 50.487603 
L 433.885338 50.862763 
L 434.143757 50.203631 
L 434.402177 50.226735 
L 434.660597 50.638491 
L 434.919016 50.310217 
L 435.435856 49.041137 
L 435.694275 47.839967 
L 435.952695 47.584181 
L 436.211115 44.693958 
L 436.469534 45.431538 
L 436.986374 42.763861 
L 437.244793 43.29957 
L 437.503213 42.192028 
L 437.761633 40.061244 
L 438.020052 39.73212 
L 438.536892 38.306864 
L 438.795311 36.966678 
L 439.053731 36.732984 
L 439.312151 36.75777 
L 439.57057 37.203361 
L 439.82899 36.642841 
L 440.08741 36.932609 
L 440.34583 36.477645 
L 440.604249 37.640727 
L 440.862669 38.139761 
L 441.121089 39.330076 
L 441.379508 39.955069 
L 441.896348 42.227792 
L 442.413187 45.70535 
L 442.671607 46.247242 
L 443.188446 48.089169 
L 443.963705 50.1611 
L 444.222125 49.668546 
L 444.480544 49.949035 
L 444.738964 49.309645 
L 444.997384 51.03275 
L 445.255803 50.821823 
L 445.514223 51.544922 
L 445.772643 50.295781 
L 446.031062 50.991101 
L 446.289482 50.681935 
L 446.547902 49.861204 
L 446.806321 48.425447 
L 447.064741 48.562767 
L 447.58158 45.359449 
L 447.84 45.053868 
L 447.84 45.053868 
" style="fill:none;stroke:#4c72b0;stroke-linecap:round;stroke-width:1.75;"/>
   </g>
   <g id="line2d_26">
    <path clip-path="url(#pcc893e9c30)" d="M 53.75 287.985109 
L 60.468911 288.067016 
L 61.76101 287.818868 
L 65.895725 286.665874 
L 67.704662 286.6211 
L 70.030439 286.494571 
L 71.064118 286.224698 
L 72.356216 285.651596 
L 74.423574 284.67624 
L 76.232511 284.087299 
L 77.52461 283.707988 
L 79.591967 282.645522 
L 81.917744 281.338885 
L 83.468262 280.426679 
L 86.827718 278.946599 
L 90.962433 277.4579 
L 91.737692 276.870144 
L 92.512951 275.99548 
L 95.097148 272.705982 
L 96.389246 271.546274 
L 97.681344 270.645721 
L 98.973443 270.02612 
L 100.78238 269.579888 
L 102.332898 269.171759 
L 103.366577 268.660114 
L 104.917095 267.612951 
L 105.950774 266.710396 
L 107.242872 265.205908 
L 108.79339 263.413951 
L 110.343908 262.110136 
L 111.377587 261.512943 
L 112.928105 260.947551 
L 114.995462 260.148117 
L 116.029141 259.466541 
L 118.354918 257.548687 
L 119.905436 256.220948 
L 121.455954 255.227795 
L 123.781731 254.100879 
L 127.141187 252.485056 
L 128.433285 251.798311 
L 130.242223 250.677562 
L 131.534321 249.466834 
L 133.601679 247.398438 
L 135.669036 245.783426 
L 136.961134 245.129485 
L 140.06217 243.843292 
L 141.612689 242.953731 
L 143.938466 241.320387 
L 148.07318 238.102677 
L 150.398957 236.619701 
L 152.983154 235.175193 
L 155.050511 233.768037 
L 159.185226 230.343549 
L 160.994164 229.089219 
L 162.544682 227.641798 
L 164.35362 225.462771 
L 167.454656 221.61779 
L 169.005174 219.967294 
L 170.814111 217.791976 
L 172.36463 216.503722 
L 173.656728 215.40055 
L 176.757764 212.253452 
L 178.308282 209.869948 
L 179.8588 207.558496 
L 181.409318 205.720026 
L 182.959836 204.178787 
L 184.251934 203.26132 
L 185.285613 202.702082 
L 187.35297 201.784392 
L 188.903489 200.541915 
L 190.712426 198.742712 
L 192.262944 196.994428 
L 193.555043 195.932443 
L 196.914498 193.645832 
L 198.206597 192.943454 
L 200.273954 192.215071 
L 201.307633 191.90089 
L 201.824472 191.618714 
L 202.599731 190.886268 
L 205.183928 187.95386 
L 206.217607 187.175328 
L 206.992866 186.832751 
L 210.610741 185.709373 
L 211.64442 185.0561 
L 212.936518 183.936065 
L 215.520715 181.592527 
L 216.554393 180.989524 
L 217.329652 180.743616 
L 219.65543 180.208845 
L 221.205948 179.439897 
L 223.014885 178.40942 
L 223.790144 177.635751 
L 225.857502 175.354823 
L 226.89118 174.609429 
L 227.666439 174.302695 
L 228.441698 174.261391 
L 229.216957 174.496155 
L 230.250636 174.862439 
L 231.284315 174.966383 
L 232.059574 174.78824 
L 232.834833 174.320759 
L 233.610092 173.552905 
L 234.90219 171.8703 
L 237.486387 168.126911 
L 238.520066 167.01259 
L 239.812164 166.082084 
L 242.65478 164.623656 
L 243.688459 164.242023 
L 244.463718 163.674965 
L 247.823174 160.462558 
L 250.148951 157.859892 
L 252.733148 154.855808 
L 253.766826 154.013401 
L 254.800505 153.443101 
L 255.834184 153.037539 
L 259.968898 151.687147 
L 260.485738 151.212817 
L 261.260997 150.060039 
L 263.845193 145.16686 
L 264.878872 143.993658 
L 265.912551 143.093626 
L 266.94623 142.581072 
L 270.564105 141.458656 
L 272.114623 140.869208 
L 274.18198 139.802016 
L 275.215659 138.972425 
L 276.249338 137.876613 
L 277.541436 136.001023 
L 280.384052 131.640397 
L 281.417731 130.460975 
L 282.45141 129.681876 
L 285.810866 127.715604 
L 286.844544 126.805594 
L 288.136643 125.172974 
L 289.687161 122.888632 
L 290.720839 120.807455 
L 293.046616 115.826685 
L 295.630813 111.156873 
L 296.664492 109.939277 
L 298.21501 108.557236 
L 299.507108 107.700423 
L 302.349725 105.724972 
L 305.192341 103.346453 
L 306.484439 101.969781 
L 309.327056 98.324916 
L 310.619154 96.157727 
L 312.428092 93.15646 
L 313.72019 91.568578 
L 314.495449 90.869544 
L 315.787548 90.014311 
L 316.562807 89.406476 
L 317.338066 88.439965 
L 323.023298 80.443885 
L 325.865915 77.509198 
L 327.158013 76.68916 
L 328.450111 75.792046 
L 329.48379 75.143221 
L 330.775889 74.67811 
L 333.876925 73.67375 
L 334.652184 73.107573 
L 335.427443 72.214288 
L 338.011639 68.624798 
L 339.045318 67.197836 
L 339.820577 66.527311 
L 340.595836 66.194003 
L 341.629515 66.056 
L 342.921613 66.177328 
L 343.955292 66.277766 
L 344.730551 66.028504 
L 345.76423 65.269536 
L 350.157364 61.521314 
L 351.191043 60.874758 
L 354.808918 59.118967 
L 355.842597 58.766796 
L 359.977311 58.024948 
L 360.75257 58.011839 
L 361.786249 57.732954 
L 365.145705 56.428151 
L 366.954643 55.286558 
L 368.246741 54.523314 
L 372.381456 52.649558 
L 375.482492 51.742677 
L 377.03301 51.264315 
L 377.808269 51.035316 
L 379.358787 50.42513 
L 380.650885 49.9446 
L 381.684564 49.791744 
L 383.235082 49.889264 
L 385.04402 50.098063 
L 385.819279 49.886104 
L 386.852957 49.311335 
L 387.886636 48.481308 
L 390.212413 46.350044 
L 390.987672 46.070086 
L 393.313449 45.690744 
L 394.088708 45.884893 
L 395.897646 46.455345 
L 397.448164 46.57179 
L 398.223423 46.395856 
L 398.998682 45.921384 
L 401.324459 44.064567 
L 402.616557 43.626506 
L 403.650236 43.545134 
L 405.459174 43.820817 
L 407.526531 44.091961 
L 409.593889 43.91702 
L 410.369148 43.66476 
L 411.402826 43.031253 
L 414.503862 40.923229 
L 416.829639 39.46551 
L 417.604898 39.22952 
L 418.380157 39.177366 
L 419.155416 39.368233 
L 420.189095 39.927177 
L 422.256452 41.36119 
L 423.290131 41.997128 
L 424.06539 42.240716 
L 425.099069 42.297733 
L 426.132748 42.134828 
L 427.166426 41.657519 
L 429.750623 40.323499 
L 430.784302 40.176013 
L 431.559561 40.253068 
L 432.593239 40.628581 
L 435.952695 42.015587 
L 437.503213 42.226634 
L 438.795311 42.112864 
L 441.121089 41.775707 
L 442.154767 41.84559 
L 443.705285 42.293742 
L 446.806321 43.390435 
L 447.84 43.55717 
L 447.84 43.55717 
" style="fill:none;stroke:#55a868;stroke-linecap:round;stroke-width:3;"/>
   </g>
   <g id="patch_3">
    <path d="M 53.75 300.76 
L 53.75 27.6 
" style="fill:none;"/>
   </g>
   <g id="patch_4">
    <path d="M 447.84 300.76 
L 447.84 27.6 
" style="fill:none;"/>
   </g>
   <g id="patch_5">
    <path d="M 53.75 300.76 
L 447.84 300.76 
" style="fill:none;"/>
   </g>
   <g id="patch_6">
    <path d="M 53.75 27.6 
L 447.84 27.6 
" style="fill:none;"/>
   </g>
   <g id="text_15">
    <!-- Rotating slowly -->
    <defs>
     <path d="M 44.390625 34.1875 
Q 47.5625 33.109375 50.5625 29.59375 
Q 53.5625 26.078125 56.59375 19.921875 
L 66.609375 0 
L 56 0 
L 46.6875 18.703125 
Q 43.0625 26.03125 39.671875 28.421875 
Q 36.28125 30.8125 30.421875 30.8125 
L 19.671875 30.8125 
L 19.671875 0 
L 9.8125 0 
L 9.8125 72.90625 
L 32.078125 72.90625 
Q 44.578125 72.90625 50.734375 67.671875 
Q 56.890625 62.453125 56.890625 51.90625 
Q 56.890625 45.015625 53.6875 40.46875 
Q 50.484375 35.9375 44.390625 34.1875 
z
M 19.671875 64.796875 
L 19.671875 38.921875 
L 32.078125 38.921875 
Q 39.203125 38.921875 42.84375 42.21875 
Q 46.484375 45.515625 46.484375 51.90625 
Q 46.484375 58.296875 42.84375 61.546875 
Q 39.203125 64.796875 32.078125 64.796875 
z
" id="DejaVuSans-52"/>
     <path d="M 34.28125 27.484375 
Q 23.390625 27.484375 19.1875 25 
Q 14.984375 22.515625 14.984375 16.5 
Q 14.984375 11.71875 18.140625 8.90625 
Q 21.296875 6.109375 26.703125 6.109375 
Q 34.1875 6.109375 38.703125 11.40625 
Q 43.21875 16.703125 43.21875 25.484375 
L 43.21875 27.484375 
z
M 52.203125 31.203125 
L 52.203125 0 
L 43.21875 0 
L 43.21875 8.296875 
Q 40.140625 3.328125 35.546875 0.953125 
Q 30.953125 -1.421875 24.3125 -1.421875 
Q 15.921875 -1.421875 10.953125 3.296875 
Q 6 8.015625 6 15.921875 
Q 6 25.140625 12.171875 29.828125 
Q 18.359375 34.515625 30.609375 34.515625 
L 43.21875 34.515625 
L 43.21875 35.40625 
Q 43.21875 41.609375 39.140625 45 
Q 35.0625 48.390625 27.6875 48.390625 
Q 23 48.390625 18.546875 47.265625 
Q 14.109375 46.140625 10.015625 43.890625 
L 10.015625 52.203125 
Q 14.9375 54.109375 19.578125 55.046875 
Q 24.21875 56 28.609375 56 
Q 40.484375 56 46.34375 49.84375 
Q 52.203125 43.703125 52.203125 31.203125 
z
" id="DejaVuSans-61"/>
     <path d="M 4.203125 54.6875 
L 13.1875 54.6875 
L 24.421875 12.015625 
L 35.59375 54.6875 
L 46.1875 54.6875 
L 57.421875 12.015625 
L 68.609375 54.6875 
L 77.59375 54.6875 
L 63.28125 0 
L 52.6875 0 
L 40.921875 44.828125 
L 29.109375 0 
L 18.5 0 
z
" id="DejaVuSans-77"/>
     <path d="M 32.171875 -5.078125 
Q 28.375 -14.84375 24.75 -17.8125 
Q 21.140625 -20.796875 15.09375 -20.796875 
L 7.90625 -20.796875 
L 7.90625 -13.28125 
L 13.1875 -13.28125 
Q 16.890625 -13.28125 18.9375 -11.515625 
Q 21 -9.765625 23.484375 -3.21875 
L 25.09375 0.875 
L 2.984375 54.6875 
L 12.5 54.6875 
L 29.59375 11.921875 
L 46.6875 54.6875 
L 56.203125 54.6875 
z
" id="DejaVuSans-79"/>
    </defs>
    <g style="fill:#262626;" transform="translate(204.803125 21.6)scale(0.12 -0.12)">
     <use xlink:href="#DejaVuSans-52"/>
     <use x="69.419922" xlink:href="#DejaVuSans-6f"/>
     <use x="130.601562" xlink:href="#DejaVuSans-74"/>
     <use x="169.810547" xlink:href="#DejaVuSans-61"/>
     <use x="231.089844" xlink:href="#DejaVuSans-74"/>
     <use x="270.298828" xlink:href="#DejaVuSans-69"/>
     <use x="298.082031" xlink:href="#DejaVuSans-6e"/>
     <use x="361.460938" xlink:href="#DejaVuSans-67"/>
     <use x="424.9375" xlink:href="#DejaVuSans-20"/>
     <use x="456.724609" xlink:href="#DejaVuSans-73"/>
     <use x="508.824219" xlink:href="#DejaVuSans-6c"/>
     <use x="536.607422" xlink:href="#DejaVuSans-6f"/>
     <use x="597.789062" xlink:href="#DejaVuSans-77"/>
     <use x="679.576172" xlink:href="#DejaVuSans-6c"/>
     <use x="707.359375" xlink:href="#DejaVuSans-79"/>
    </g>
   </g>
   <g id="legend_1">
    <g id="line2d_27">
     <path d="M 62.75 40.698437 
L 82.75 40.698437 
" style="fill:none;stroke:#4c72b0;stroke-linecap:round;stroke-width:1.75;"/>
    </g>
    <g id="line2d_28"/>
    <g id="text_16">
     <!-- Accelerometer -->
     <defs>
      <path d="M 34.1875 63.1875 
L 20.796875 26.90625 
L 47.609375 26.90625 
z
M 28.609375 72.90625 
L 39.796875 72.90625 
L 67.578125 0 
L 57.328125 0 
L 50.6875 18.703125 
L 17.828125 18.703125 
L 11.1875 0 
L 0.78125 0 
z
" id="DejaVuSans-41"/>
     </defs>
     <g style="fill:#262626;" transform="translate(90.75 44.198437)scale(0.1 -0.1)">
      <use xlink:href="#DejaVuSans-41"/>
      <use x="68.392578" xlink:href="#DejaVuSans-63"/>
      <use x="123.373047" xlink:href="#DejaVuSans-63"/>
      <use x="178.353516" xlink:href="#DejaVuSans-65"/>
      <use x="239.876953" xlink:href="#DejaVuSans-6c"/>
      <use x="267.660156" xlink:href="#DejaVuSans-65"/>
      <use x="329.183594" xlink:href="#DejaVuSans-72"/>
      <use x="370.265625" xlink:href="#DejaVuSans-6f"/>
      <use x="431.447266" xlink:href="#DejaVuSans-6d"/>
      <use x="528.859375" xlink:href="#DejaVuSans-65"/>
      <use x="590.382812" xlink:href="#DejaVuSans-74"/>
      <use x="629.591797" xlink:href="#DejaVuSans-65"/>
      <use x="691.115234" xlink:href="#DejaVuSans-72"/>
     </g>
    </g>
    <g id="line2d_29">
     <path d="M 62.75 55.376562 
L 82.75 55.376562 
" style="fill:none;stroke:#55a868;stroke-linecap:round;stroke-width:3;"/>
    </g>
    <g id="line2d_30"/>
    <g id="text_17">
     <!-- Kalman filter -->
     <defs>
      <path d="M 9.8125 72.90625 
L 19.671875 72.90625 
L 19.671875 42.09375 
L 52.390625 72.90625 
L 65.09375 72.90625 
L 28.90625 38.921875 
L 67.671875 0 
L 54.6875 0 
L 19.671875 35.109375 
L 19.671875 0 
L 9.8125 0 
z
" id="DejaVuSans-4b"/>
      <path d="M 37.109375 75.984375 
L 37.109375 68.5 
L 28.515625 68.5 
Q 23.6875 68.5 21.796875 66.546875 
Q 19.921875 64.59375 19.921875 59.515625 
L 19.921875 54.6875 
L 34.71875 54.6875 
L 34.71875 47.703125 
L 19.921875 47.703125 
L 19.921875 0 
L 10.890625 0 
L 10.890625 47.703125 
L 2.296875 47.703125 
L 2.296875 54.6875 
L 10.890625 54.6875 
L 10.890625 58.5 
Q 10.890625 67.625 15.140625 71.796875 
Q 19.390625 75.984375 28.609375 75.984375 
z
" id="DejaVuSans-66"/>
     </defs>
     <g style="fill:#262626;" transform="translate(90.75 58.876562)scale(0.1 -0.1)">
      <use xlink:href="#DejaVuSans-4b"/>
      <use x="65.560547" xlink:href="#DejaVuSans-61"/>
      <use x="126.839844" xlink:href="#DejaVuSans-6c"/>
      <use x="154.623047" xlink:href="#DejaVuSans-6d"/>
      <use x="252.035156" xlink:href="#DejaVuSans-61"/>
      <use x="313.314453" xlink:href="#DejaVuSans-6e"/>
      <use x="376.693359" xlink:href="#DejaVuSans-20"/>
      <use x="408.480469" xlink:href="#DejaVuSans-66"/>
      <use x="443.685547" xlink:href="#DejaVuSans-69"/>
      <use x="471.46875" xlink:href="#DejaVuSans-6c"/>
      <use x="499.251953" xlink:href="#DejaVuSans-74"/>
      <use x="538.460938" xlink:href="#DejaVuSans-65"/>
      <use x="599.984375" xlink:href="#DejaVuSans-72"/>
     </g>
    </g>
   </g>
  </g>
 </g>
 <defs>
  <clipPath id="pcc893e9c30">
   <rect height="273.16" width="394.09" x="53.75" y="27.6"/>
  </clipPath>
 </defs>
</svg>
