<?xml version="1.0" encoding="utf-8" standalone="no"?>
<!DOCTYPE svg PUBLIC "-//W3C//DTD SVG 1.1//EN"
  "http://www.w3.org/Graphics/SVG/1.1/DTD/svg11.dtd">
<!-- Created with matplotlib (http://matplotlib.org/) -->
<svg height="345pt" version="1.1" viewBox="0 0 460 345" width="460pt" xmlns="http://www.w3.org/2000/svg" xmlns:xlink="http://www.w3.org/1999/xlink">
 <defs>
  <style type="text/css">
*{stroke-linecap:butt;stroke-linejoin:round;}
  </style>
 </defs>
 <g id="figure_1">
  <g id="patch_1">
   <path d="M 0 345.6 
L 460.8 345.6 
L 460.8 0 
L 0 0 
z
" style="fill:#ffffff;"/>
  </g>
  <g id="axes_1">
   <g id="patch_2">
    <path d="M 55.82 142.886299 
L 447.84 142.886299 
L 447.84 41.472 
L 55.82 41.472 
z
" style="fill:#eaeaf2;"/>
   </g>
   <g id="matplotlib.axis_1">
    <g id="xtick_1">
     <g id="line2d_1">
      <path clip-path="url(#p7bceb781c6)" d="M 55.82 142.886299 
L 55.82 41.472 
" style="fill:none;stroke:#ffffff;stroke-linecap:round;"/>
     </g>
     <g id="line2d_2"/>
     <g id="text_1">
      <!-- 0 -->
      <defs>
       <path d="M 31.78125 66.40625 
Q 24.171875 66.40625 20.328125 58.90625 
Q 16.5 51.421875 16.5 36.375 
Q 16.5 21.390625 20.328125 13.890625 
Q 24.171875 6.390625 31.78125 6.390625 
Q 39.453125 6.390625 43.28125 13.890625 
Q 47.125 21.390625 47.125 36.375 
Q 47.125 51.421875 43.28125 58.90625 
Q 39.453125 66.40625 31.78125 66.40625 
z
M 31.78125 74.21875 
Q 44.046875 74.21875 50.515625 64.515625 
Q 56.984375 54.828125 56.984375 36.375 
Q 56.984375 17.96875 50.515625 8.265625 
Q 44.046875 -1.421875 31.78125 -1.421875 
Q 19.53125 -1.421875 13.0625 8.265625 
Q 6.59375 17.96875 6.59375 36.375 
Q 6.59375 54.828125 13.0625 64.515625 
Q 19.53125 74.21875 31.78125 74.21875 
z
" id="DejaVuSans-30"/>
      </defs>
      <g style="fill:#262626;" transform="translate(52.63875 157.484737)scale(0.1 -0.1)">
       <use xlink:href="#DejaVuSans-30"/>
      </g>
     </g>
    </g>
    <g id="xtick_2">
     <g id="line2d_3">
      <path clip-path="url(#p7bceb781c6)" d="M 121.263182 142.886299 
L 121.263182 41.472 
" style="fill:none;stroke:#ffffff;stroke-linecap:round;"/>
     </g>
     <g id="line2d_4"/>
     <g id="text_2">
      <!-- 1 -->
      <defs>
       <path d="M 12.40625 8.296875 
L 28.515625 8.296875 
L 28.515625 63.921875 
L 10.984375 60.40625 
L 10.984375 69.390625 
L 28.421875 72.90625 
L 38.28125 72.90625 
L 38.28125 8.296875 
L 54.390625 8.296875 
L 54.390625 0 
L 12.40625 0 
z
" id="DejaVuSans-31"/>
      </defs>
      <g style="fill:#262626;" transform="translate(118.081932 157.484737)scale(0.1 -0.1)">
       <use xlink:href="#DejaVuSans-31"/>
      </g>
     </g>
    </g>
    <g id="xtick_3">
     <g id="line2d_5">
      <path clip-path="url(#p7bceb781c6)" d="M 186.706365 142.886299 
L 186.706365 41.472 
" style="fill:none;stroke:#ffffff;stroke-linecap:round;"/>
     </g>
     <g id="line2d_6"/>
     <g id="text_3">
      <!-- 2 -->
      <defs>
       <path d="M 19.1875 8.296875 
L 53.609375 8.296875 
L 53.609375 0 
L 7.328125 0 
L 7.328125 8.296875 
Q 12.9375 14.109375 22.625 23.890625 
Q 32.328125 33.6875 34.8125 36.53125 
Q 39.546875 41.84375 41.421875 45.53125 
Q 43.3125 49.21875 43.3125 52.78125 
Q 43.3125 58.59375 39.234375 62.25 
Q 35.15625 65.921875 28.609375 65.921875 
Q 23.96875 65.921875 18.8125 64.3125 
Q 13.671875 62.703125 7.8125 59.421875 
L 7.8125 69.390625 
Q 13.765625 71.78125 18.9375 73 
Q 24.125 74.21875 28.421875 74.21875 
Q 39.75 74.21875 46.484375 68.546875 
Q 53.21875 62.890625 53.21875 53.421875 
Q 53.21875 48.921875 51.53125 44.890625 
Q 49.859375 40.875 45.40625 35.40625 
Q 44.1875 33.984375 37.640625 27.21875 
Q 31.109375 20.453125 19.1875 8.296875 
z
" id="DejaVuSans-32"/>
      </defs>
      <g style="fill:#262626;" transform="translate(183.525115 157.484737)scale(0.1 -0.1)">
       <use xlink:href="#DejaVuSans-32"/>
      </g>
     </g>
    </g>
    <g id="xtick_4">
     <g id="line2d_7">
      <path clip-path="url(#p7bceb781c6)" d="M 252.149547 142.886299 
L 252.149547 41.472 
" style="fill:none;stroke:#ffffff;stroke-linecap:round;"/>
     </g>
     <g id="line2d_8"/>
     <g id="text_4">
      <!-- 3 -->
      <defs>
       <path d="M 40.578125 39.3125 
Q 47.65625 37.796875 51.625 33 
Q 55.609375 28.21875 55.609375 21.1875 
Q 55.609375 10.40625 48.1875 4.484375 
Q 40.765625 -1.421875 27.09375 -1.421875 
Q 22.515625 -1.421875 17.65625 -0.515625 
Q 12.796875 0.390625 7.625 2.203125 
L 7.625 11.71875 
Q 11.71875 9.328125 16.59375 8.109375 
Q 21.484375 6.890625 26.8125 6.890625 
Q 36.078125 6.890625 40.9375 10.546875 
Q 45.796875 14.203125 45.796875 21.1875 
Q 45.796875 27.640625 41.28125 31.265625 
Q 36.765625 34.90625 28.71875 34.90625 
L 20.21875 34.90625 
L 20.21875 43.015625 
L 29.109375 43.015625 
Q 36.375 43.015625 40.234375 45.921875 
Q 44.09375 48.828125 44.09375 54.296875 
Q 44.09375 59.90625 40.109375 62.90625 
Q 36.140625 65.921875 28.71875 65.921875 
Q 24.65625 65.921875 20.015625 65.03125 
Q 15.375 64.15625 9.8125 62.3125 
L 9.8125 71.09375 
Q 15.4375 72.65625 20.34375 73.4375 
Q 25.25 74.21875 29.59375 74.21875 
Q 40.828125 74.21875 47.359375 69.109375 
Q 53.90625 64.015625 53.90625 55.328125 
Q 53.90625 49.265625 50.4375 45.09375 
Q 46.96875 40.921875 40.578125 39.3125 
z
" id="DejaVuSans-33"/>
      </defs>
      <g style="fill:#262626;" transform="translate(248.968297 157.484737)scale(0.1 -0.1)">
       <use xlink:href="#DejaVuSans-33"/>
      </g>
     </g>
    </g>
    <g id="xtick_5">
     <g id="line2d_9">
      <path clip-path="url(#p7bceb781c6)" d="M 317.592729 142.886299 
L 317.592729 41.472 
" style="fill:none;stroke:#ffffff;stroke-linecap:round;"/>
     </g>
     <g id="line2d_10"/>
     <g id="text_5">
      <!-- 4 -->
      <defs>
       <path d="M 37.796875 64.3125 
L 12.890625 25.390625 
L 37.796875 25.390625 
z
M 35.203125 72.90625 
L 47.609375 72.90625 
L 47.609375 25.390625 
L 58.015625 25.390625 
L 58.015625 17.1875 
L 47.609375 17.1875 
L 47.609375 0 
L 37.796875 0 
L 37.796875 17.1875 
L 4.890625 17.1875 
L 4.890625 26.703125 
z
" id="DejaVuSans-34"/>
      </defs>
      <g style="fill:#262626;" transform="translate(314.411479 157.484737)scale(0.1 -0.1)">
       <use xlink:href="#DejaVuSans-34"/>
      </g>
     </g>
    </g>
    <g id="xtick_6">
     <g id="line2d_11">
      <path clip-path="url(#p7bceb781c6)" d="M 383.035911 142.886299 
L 383.035911 41.472 
" style="fill:none;stroke:#ffffff;stroke-linecap:round;"/>
     </g>
     <g id="line2d_12"/>
     <g id="text_6">
      <!-- 5 -->
      <defs>
       <path d="M 10.796875 72.90625 
L 49.515625 72.90625 
L 49.515625 64.59375 
L 19.828125 64.59375 
L 19.828125 46.734375 
Q 21.96875 47.46875 24.109375 47.828125 
Q 26.265625 48.1875 28.421875 48.1875 
Q 40.625 48.1875 47.75 41.5 
Q 54.890625 34.8125 54.890625 23.390625 
Q 54.890625 11.625 47.5625 5.09375 
Q 40.234375 -1.421875 26.90625 -1.421875 
Q 22.3125 -1.421875 17.546875 -0.640625 
Q 12.796875 0.140625 7.71875 1.703125 
L 7.71875 11.625 
Q 12.109375 9.234375 16.796875 8.0625 
Q 21.484375 6.890625 26.703125 6.890625 
Q 35.15625 6.890625 40.078125 11.328125 
Q 45.015625 15.765625 45.015625 23.390625 
Q 45.015625 31 40.078125 35.4375 
Q 35.15625 39.890625 26.703125 39.890625 
Q 22.75 39.890625 18.8125 39.015625 
Q 14.890625 38.140625 10.796875 36.28125 
z
" id="DejaVuSans-35"/>
      </defs>
      <g style="fill:#262626;" transform="translate(379.854661 157.484737)scale(0.1 -0.1)">
       <use xlink:href="#DejaVuSans-35"/>
      </g>
     </g>
    </g>
    <g id="text_7">
     <!-- Time (seconds) -->
     <defs>
      <path d="M -0.296875 72.90625 
L 61.375 72.90625 
L 61.375 64.59375 
L 35.5 64.59375 
L 35.5 0 
L 25.59375 0 
L 25.59375 64.59375 
L -0.296875 64.59375 
z
" id="DejaVuSans-54"/>
      <path d="M 9.421875 54.6875 
L 18.40625 54.6875 
L 18.40625 0 
L 9.421875 0 
z
M 9.421875 75.984375 
L 18.40625 75.984375 
L 18.40625 64.59375 
L 9.421875 64.59375 
z
" id="DejaVuSans-69"/>
      <path d="M 52 44.1875 
Q 55.375 50.25 60.0625 53.125 
Q 64.75 56 71.09375 56 
Q 79.640625 56 84.28125 50.015625 
Q 88.921875 44.046875 88.921875 33.015625 
L 88.921875 0 
L 79.890625 0 
L 79.890625 32.71875 
Q 79.890625 40.578125 77.09375 44.375 
Q 74.3125 48.1875 68.609375 48.1875 
Q 61.625 48.1875 57.5625 43.546875 
Q 53.515625 38.921875 53.515625 30.90625 
L 53.515625 0 
L 44.484375 0 
L 44.484375 32.71875 
Q 44.484375 40.625 41.703125 44.40625 
Q 38.921875 48.1875 33.109375 48.1875 
Q 26.21875 48.1875 22.15625 43.53125 
Q 18.109375 38.875 18.109375 30.90625 
L 18.109375 0 
L 9.078125 0 
L 9.078125 54.6875 
L 18.109375 54.6875 
L 18.109375 46.1875 
Q 21.1875 51.21875 25.484375 53.609375 
Q 29.78125 56 35.6875 56 
Q 41.65625 56 45.828125 52.96875 
Q 50 49.953125 52 44.1875 
z
" id="DejaVuSans-6d"/>
      <path d="M 56.203125 29.59375 
L 56.203125 25.203125 
L 14.890625 25.203125 
Q 15.484375 15.921875 20.484375 11.0625 
Q 25.484375 6.203125 34.421875 6.203125 
Q 39.59375 6.203125 44.453125 7.46875 
Q 49.3125 8.734375 54.109375 11.28125 
L 54.109375 2.78125 
Q 49.265625 0.734375 44.1875 -0.34375 
Q 39.109375 -1.421875 33.890625 -1.421875 
Q 20.796875 -1.421875 13.15625 6.1875 
Q 5.515625 13.8125 5.515625 26.8125 
Q 5.515625 40.234375 12.765625 48.109375 
Q 20.015625 56 32.328125 56 
Q 43.359375 56 49.78125 48.890625 
Q 56.203125 41.796875 56.203125 29.59375 
z
M 47.21875 32.234375 
Q 47.125 39.59375 43.09375 43.984375 
Q 39.0625 48.390625 32.421875 48.390625 
Q 24.90625 48.390625 20.390625 44.140625 
Q 15.875 39.890625 15.1875 32.171875 
z
" id="DejaVuSans-65"/>
      <path id="DejaVuSans-20"/>
      <path d="M 31 75.875 
Q 24.46875 64.65625 21.28125 53.65625 
Q 18.109375 42.671875 18.109375 31.390625 
Q 18.109375 20.125 21.3125 9.0625 
Q 24.515625 -2 31 -13.1875 
L 23.1875 -13.1875 
Q 15.875 -1.703125 12.234375 9.375 
Q 8.59375 20.453125 8.59375 31.390625 
Q 8.59375 42.28125 12.203125 53.3125 
Q 15.828125 64.359375 23.1875 75.875 
z
" id="DejaVuSans-28"/>
      <path d="M 44.28125 53.078125 
L 44.28125 44.578125 
Q 40.484375 46.53125 36.375 47.5 
Q 32.28125 48.484375 27.875 48.484375 
Q 21.1875 48.484375 17.84375 46.4375 
Q 14.5 44.390625 14.5 40.28125 
Q 14.5 37.15625 16.890625 35.375 
Q 19.28125 33.59375 26.515625 31.984375 
L 29.59375 31.296875 
Q 39.15625 29.25 43.1875 25.515625 
Q 47.21875 21.78125 47.21875 15.09375 
Q 47.21875 7.46875 41.1875 3.015625 
Q 35.15625 -1.421875 24.609375 -1.421875 
Q 20.21875 -1.421875 15.453125 -0.5625 
Q 10.6875 0.296875 5.421875 2 
L 5.421875 11.28125 
Q 10.40625 8.6875 15.234375 7.390625 
Q 20.0625 6.109375 24.8125 6.109375 
Q 31.15625 6.109375 34.5625 8.28125 
Q 37.984375 10.453125 37.984375 14.40625 
Q 37.984375 18.0625 35.515625 20.015625 
Q 33.0625 21.96875 24.703125 23.78125 
L 21.578125 24.515625 
Q 13.234375 26.265625 9.515625 29.90625 
Q 5.8125 33.546875 5.8125 39.890625 
Q 5.8125 47.609375 11.28125 51.796875 
Q 16.75 56 26.8125 56 
Q 31.78125 56 36.171875 55.265625 
Q 40.578125 54.546875 44.28125 53.078125 
z
" id="DejaVuSans-73"/>
      <path d="M 48.78125 52.59375 
L 48.78125 44.1875 
Q 44.96875 46.296875 41.140625 47.34375 
Q 37.3125 48.390625 33.40625 48.390625 
Q 24.65625 48.390625 19.8125 42.84375 
Q 14.984375 37.3125 14.984375 27.296875 
Q 14.984375 17.28125 19.8125 11.734375 
Q 24.65625 6.203125 33.40625 6.203125 
Q 37.3125 6.203125 41.140625 7.25 
Q 44.96875 8.296875 48.78125 10.40625 
L 48.78125 2.09375 
Q 45.015625 0.34375 40.984375 -0.53125 
Q 36.96875 -1.421875 32.421875 -1.421875 
Q 20.0625 -1.421875 12.78125 6.34375 
Q 5.515625 14.109375 5.515625 27.296875 
Q 5.515625 40.671875 12.859375 48.328125 
Q 20.21875 56 33.015625 56 
Q 37.15625 56 41.109375 55.140625 
Q 45.0625 54.296875 48.78125 52.59375 
z
" id="DejaVuSans-63"/>
      <path d="M 30.609375 48.390625 
Q 23.390625 48.390625 19.1875 42.75 
Q 14.984375 37.109375 14.984375 27.296875 
Q 14.984375 17.484375 19.15625 11.84375 
Q 23.34375 6.203125 30.609375 6.203125 
Q 37.796875 6.203125 41.984375 11.859375 
Q 46.1875 17.53125 46.1875 27.296875 
Q 46.1875 37.015625 41.984375 42.703125 
Q 37.796875 48.390625 30.609375 48.390625 
z
M 30.609375 56 
Q 42.328125 56 49.015625 48.375 
Q 55.71875 40.765625 55.71875 27.296875 
Q 55.71875 13.875 49.015625 6.21875 
Q 42.328125 -1.421875 30.609375 -1.421875 
Q 18.84375 -1.421875 12.171875 6.21875 
Q 5.515625 13.875 5.515625 27.296875 
Q 5.515625 40.765625 12.171875 48.375 
Q 18.84375 56 30.609375 56 
z
" id="DejaVuSans-6f"/>
      <path d="M 54.890625 33.015625 
L 54.890625 0 
L 45.90625 0 
L 45.90625 32.71875 
Q 45.90625 40.484375 42.875 44.328125 
Q 39.84375 48.1875 33.796875 48.1875 
Q 26.515625 48.1875 22.3125 43.546875 
Q 18.109375 38.921875 18.109375 30.90625 
L 18.109375 0 
L 9.078125 0 
L 9.078125 54.6875 
L 18.109375 54.6875 
L 18.109375 46.1875 
Q 21.34375 51.125 25.703125 53.5625 
Q 30.078125 56 35.796875 56 
Q 45.21875 56 50.046875 50.171875 
Q 54.890625 44.34375 54.890625 33.015625 
z
" id="DejaVuSans-6e"/>
      <path d="M 45.40625 46.390625 
L 45.40625 75.984375 
L 54.390625 75.984375 
L 54.390625 0 
L 45.40625 0 
L 45.40625 8.203125 
Q 42.578125 3.328125 38.25 0.953125 
Q 33.9375 -1.421875 27.875 -1.421875 
Q 17.96875 -1.421875 11.734375 6.484375 
Q 5.515625 14.40625 5.515625 27.296875 
Q 5.515625 40.1875 11.734375 48.09375 
Q 17.96875 56 27.875 56 
Q 33.9375 56 38.25 53.625 
Q 42.578125 51.265625 45.40625 46.390625 
z
M 14.796875 27.296875 
Q 14.796875 17.390625 18.875 11.75 
Q 22.953125 6.109375 30.078125 6.109375 
Q 37.203125 6.109375 41.296875 11.75 
Q 45.40625 17.390625 45.40625 27.296875 
Q 45.40625 37.203125 41.296875 42.84375 
Q 37.203125 48.484375 30.078125 48.484375 
Q 22.953125 48.484375 18.875 42.84375 
Q 14.796875 37.203125 14.796875 27.296875 
z
" id="DejaVuSans-64"/>
      <path d="M 8.015625 75.875 
L 15.828125 75.875 
Q 23.140625 64.359375 26.78125 53.3125 
Q 30.421875 42.28125 30.421875 31.390625 
Q 30.421875 20.453125 26.78125 9.375 
Q 23.140625 -1.703125 15.828125 -13.1875 
L 8.015625 -13.1875 
Q 14.5 -2 17.703125 9.0625 
Q 20.90625 20.125 20.90625 31.390625 
Q 20.90625 42.671875 17.703125 53.65625 
Q 14.5 64.65625 8.015625 75.875 
z
" id="DejaVuSans-29"/>
     </defs>
     <g style="fill:#262626;" transform="translate(209.682813 171.922705)scale(0.11 -0.11)">
      <use xlink:href="#DejaVuSans-54"/>
      <use x="61.037109" xlink:href="#DejaVuSans-69"/>
      <use x="88.820312" xlink:href="#DejaVuSans-6d"/>
      <use x="186.232422" xlink:href="#DejaVuSans-65"/>
      <use x="247.755859" xlink:href="#DejaVuSans-20"/>
      <use x="279.542969" xlink:href="#DejaVuSans-28"/>
      <use x="318.556641" xlink:href="#DejaVuSans-73"/>
      <use x="370.65625" xlink:href="#DejaVuSans-65"/>
      <use x="432.179688" xlink:href="#DejaVuSans-63"/>
      <use x="487.160156" xlink:href="#DejaVuSans-6f"/>
      <use x="548.341797" xlink:href="#DejaVuSans-6e"/>
      <use x="611.720703" xlink:href="#DejaVuSans-64"/>
      <use x="675.197266" xlink:href="#DejaVuSans-73"/>
      <use x="727.296875" xlink:href="#DejaVuSans-29"/>
     </g>
    </g>
   </g>
   <g id="matplotlib.axis_2">
    <g id="ytick_1">
     <g id="line2d_13">
      <path clip-path="url(#p7bceb781c6)" d="M 55.82 128.910771 
L 447.84 128.910771 
" style="fill:none;stroke:#ffffff;stroke-linecap:round;"/>
     </g>
     <g id="line2d_14"/>
     <g id="text_8">
      <!-- −10 -->
      <defs>
       <path d="M 10.59375 35.5 
L 73.1875 35.5 
L 73.1875 27.203125 
L 10.59375 27.203125 
z
" id="DejaVuSans-2212"/>
      </defs>
      <g style="fill:#262626;" transform="translate(27.715313 132.70999)scale(0.1 -0.1)">
       <use xlink:href="#DejaVuSans-2212"/>
       <use x="83.789062" xlink:href="#DejaVuSans-31"/>
       <use x="147.412109" xlink:href="#DejaVuSans-30"/>
      </g>
     </g>
    </g>
    <g id="ytick_2">
     <g id="line2d_15">
      <path clip-path="url(#p7bceb781c6)" d="M 55.82 101.788145 
L 447.84 101.788145 
" style="fill:none;stroke:#ffffff;stroke-linecap:round;"/>
     </g>
     <g id="line2d_16"/>
     <g id="text_9">
      <!-- 0 -->
      <g style="fill:#262626;" transform="translate(42.4575 105.587364)scale(0.1 -0.1)">
       <use xlink:href="#DejaVuSans-30"/>
      </g>
     </g>
    </g>
    <g id="ytick_3">
     <g id="line2d_17">
      <path clip-path="url(#p7bceb781c6)" d="M 55.82 74.66552 
L 447.84 74.66552 
" style="fill:none;stroke:#ffffff;stroke-linecap:round;"/>
     </g>
     <g id="line2d_18"/>
     <g id="text_10">
      <!-- 10 -->
      <g style="fill:#262626;" transform="translate(36.095 78.464739)scale(0.1 -0.1)">
       <use xlink:href="#DejaVuSans-31"/>
       <use x="63.623047" xlink:href="#DejaVuSans-30"/>
      </g>
     </g>
    </g>
    <g id="ytick_4">
     <g id="line2d_19">
      <path clip-path="url(#p7bceb781c6)" d="M 55.82 47.542894 
L 447.84 47.542894 
" style="fill:none;stroke:#ffffff;stroke-linecap:round;"/>
     </g>
     <g id="line2d_20"/>
     <g id="text_11">
      <!-- 20 -->
      <g style="fill:#262626;" transform="translate(36.095 51.342113)scale(0.1 -0.1)">
       <use xlink:href="#DejaVuSans-32"/>
       <use x="63.623047" xlink:href="#DejaVuSans-30"/>
      </g>
     </g>
    </g>
    <g id="text_12">
     <!-- Tilt (degrees) -->
     <defs>
      <path d="M 9.421875 75.984375 
L 18.40625 75.984375 
L 18.40625 0 
L 9.421875 0 
z
" id="DejaVuSans-6c"/>
      <path d="M 18.3125 70.21875 
L 18.3125 54.6875 
L 36.8125 54.6875 
L 36.8125 47.703125 
L 18.3125 47.703125 
L 18.3125 18.015625 
Q 18.3125 11.328125 20.140625 9.421875 
Q 21.96875 7.515625 27.59375 7.515625 
L 36.8125 7.515625 
L 36.8125 0 
L 27.59375 0 
Q 17.1875 0 13.234375 3.875 
Q 9.28125 7.765625 9.28125 18.015625 
L 9.28125 47.703125 
L 2.6875 47.703125 
L 2.6875 54.6875 
L 9.28125 54.6875 
L 9.28125 70.21875 
z
" id="DejaVuSans-74"/>
      <path d="M 45.40625 27.984375 
Q 45.40625 37.75 41.375 43.109375 
Q 37.359375 48.484375 30.078125 48.484375 
Q 22.859375 48.484375 18.828125 43.109375 
Q 14.796875 37.75 14.796875 27.984375 
Q 14.796875 18.265625 18.828125 12.890625 
Q 22.859375 7.515625 30.078125 7.515625 
Q 37.359375 7.515625 41.375 12.890625 
Q 45.40625 18.265625 45.40625 27.984375 
z
M 54.390625 6.78125 
Q 54.390625 -7.171875 48.1875 -13.984375 
Q 42 -20.796875 29.203125 -20.796875 
Q 24.46875 -20.796875 20.265625 -20.09375 
Q 16.0625 -19.390625 12.109375 -17.921875 
L 12.109375 -9.1875 
Q 16.0625 -11.328125 19.921875 -12.34375 
Q 23.78125 -13.375 27.78125 -13.375 
Q 36.625 -13.375 41.015625 -8.765625 
Q 45.40625 -4.15625 45.40625 5.171875 
L 45.40625 9.625 
Q 42.625 4.78125 38.28125 2.390625 
Q 33.9375 0 27.875 0 
Q 17.828125 0 11.671875 7.65625 
Q 5.515625 15.328125 5.515625 27.984375 
Q 5.515625 40.671875 11.671875 48.328125 
Q 17.828125 56 27.875 56 
Q 33.9375 56 38.28125 53.609375 
Q 42.625 51.21875 45.40625 46.390625 
L 45.40625 54.6875 
L 54.390625 54.6875 
z
" id="DejaVuSans-67"/>
      <path d="M 41.109375 46.296875 
Q 39.59375 47.171875 37.8125 47.578125 
Q 36.03125 48 33.890625 48 
Q 26.265625 48 22.1875 43.046875 
Q 18.109375 38.09375 18.109375 28.8125 
L 18.109375 0 
L 9.078125 0 
L 9.078125 54.6875 
L 18.109375 54.6875 
L 18.109375 46.1875 
Q 20.953125 51.171875 25.484375 53.578125 
Q 30.03125 56 36.53125 56 
Q 37.453125 56 38.578125 55.875 
Q 39.703125 55.765625 41.0625 55.515625 
z
" id="DejaVuSans-72"/>
     </defs>
     <g style="fill:#262626;" transform="translate(21.427656 129.048056)rotate(-90)scale(0.11 -0.11)">
      <use xlink:href="#DejaVuSans-54"/>
      <use x="61.037109" xlink:href="#DejaVuSans-69"/>
      <use x="88.820312" xlink:href="#DejaVuSans-6c"/>
      <use x="116.603516" xlink:href="#DejaVuSans-74"/>
      <use x="155.8125" xlink:href="#DejaVuSans-20"/>
      <use x="187.599609" xlink:href="#DejaVuSans-28"/>
      <use x="226.613281" xlink:href="#DejaVuSans-64"/>
      <use x="290.089844" xlink:href="#DejaVuSans-65"/>
      <use x="351.613281" xlink:href="#DejaVuSans-67"/>
      <use x="415.089844" xlink:href="#DejaVuSans-72"/>
      <use x="456.171875" xlink:href="#DejaVuSans-65"/>
      <use x="517.695312" xlink:href="#DejaVuSans-65"/>
      <use x="579.21875" xlink:href="#DejaVuSans-73"/>
      <use x="631.318359" xlink:href="#DejaVuSans-29"/>
     </g>
    </g>
   </g>
   <g id="line2d_21">
    <path clip-path="url(#p7bceb781c6)" d="M 55.82 137.392665 
L 56.075637 137.480873 
L 56.203456 136.997215 
L 56.331275 136.954759 
L 56.459094 137.25643 
L 56.84255 141.208864 
L 57.098187 142.886299 
L 57.226006 142.369783 
L 57.737281 136.13945 
L 58.120737 130.8954 
L 58.376374 129.068614 
L 58.504193 128.742757 
L 58.887649 123.291264 
L 59.271105 119.897087 
L 59.910199 111.925822 
L 60.165836 108.705846 
L 60.293655 107.76855 
L 61.699661 86.30851 
L 61.82748 87.449081 
L 62.210936 80.34881 
L 62.338754 81.401763 
L 63.105667 69.264215 
L 63.872579 58.750318 
L 64.895129 49.83791 
L 65.78986 44.875251 
L 66.301135 41.539045 
L 66.428953 41.472 
L 66.684591 41.809119 
L 66.940228 41.731127 
L 67.068047 41.678608 
L 67.323684 42.030993 
L 68.474053 46.97194 
L 69.880059 56.912251 
L 70.263515 58.99041 
L 71.541702 67.266919 
L 73.203345 76.607512 
L 73.842439 80.312526 
L 74.098076 80.752512 
L 74.225895 81.100842 
L 74.609351 82.754701 
L 74.864989 83.514942 
L 75.248445 85.589167 
L 75.376263 85.635779 
L 75.504082 86.553304 
L 75.631901 86.481341 
L 75.75972 86.756537 
L 76.143176 86.199942 
L 76.270994 85.621761 
L 76.398813 85.677386 
L 76.654451 84.710376 
L 76.782269 85.208447 
L 76.910088 84.653354 
L 77.037907 85.817225 
L 77.677 83.833696 
L 77.932638 83.88115 
L 78.69955 81.896412 
L 78.827369 81.871906 
L 79.849918 77.998353 
L 80.361193 76.181473 
L 80.872468 74.800854 
L 81.511562 72.890771 
L 82.789749 69.708994 
L 84.195755 67.663589 
L 85.857398 67.07844 
L 86.879948 67.592043 
L 88.158135 69.639822 
L 88.797229 71.210371 
L 89.180685 72.874602 
L 89.308503 72.974913 
L 89.819778 74.23035 
L 89.947597 74.173222 
L 90.203234 74.330703 
L 90.331053 74.815197 
L 90.586691 74.733959 
L 90.970147 75.247951 
L 91.481422 76.391431 
L 91.60924 76.415062 
L 91.992696 76.931203 
L 92.120515 76.956658 
L 92.503971 77.451801 
L 92.63179 77.49007 
L 92.759609 78.064019 
L 92.887427 77.782037 
L 93.015246 77.821164 
L 93.270884 77.558235 
L 93.398702 77.505561 
L 94.165615 78.381469 
L 94.293433 78.732496 
L 94.421252 78.646947 
L 94.676889 79.318008 
L 95.57162 77.978231 
L 95.699439 77.865913 
L 95.955077 78.222382 
L 96.082895 78.159553 
L 96.466351 79.321921 
L 96.721989 78.640902 
L 96.977626 78.185018 
L 97.233264 78.174522 
L 97.361082 77.895817 
L 97.488901 77.893983 
L 97.61672 78.050478 
L 97.744539 77.963702 
L 98.127995 78.307559 
L 98.511451 77.718478 
L 99.022726 77.022257 
L 99.150545 77.257867 
L 99.278363 77.07796 
L 99.534001 77.551691 
L 99.661819 77.004161 
L 99.789638 76.958828 
L 100.045276 76.196442 
L 100.300913 76.035006 
L 100.428732 75.820544 
L 100.55655 76.082188 
L 101.067825 75.68542 
L 101.323463 75.844709 
L 101.706919 75.284944 
L 101.962556 74.975402 
L 102.090375 74.700015 
L 102.218194 74.82484 
L 102.346012 74.571258 
L 102.473831 74.73481 
L 102.60165 74.49746 
L 102.729469 75.021826 
L 102.857287 74.954039 
L 102.985106 74.663456 
L 103.112925 74.822802 
L 103.368562 74.317522 
L 103.496381 74.388605 
L 103.752018 74.084964 
L 103.879837 74.193936 
L 104.135474 73.908278 
L 104.263293 73.922874 
L 104.518931 73.811386 
L 104.646749 73.889424 
L 105.030205 73.360601 
L 105.158024 73.65195 
L 105.413662 73.336088 
L 105.669299 73.662891 
L 105.797118 73.378754 
L 106.052755 73.894064 
L 106.180574 73.935199 
L 106.308393 74.141495 
L 106.947486 73.402941 
L 107.075305 73.577095 
L 107.58658 73.49086 
L 108.097855 74.08693 
L 108.353492 74.930581 
L 108.481311 74.76063 
L 108.609129 74.938708 
L 108.864767 74.744895 
L 108.992586 74.771183 
L 109.248223 74.658624 
L 109.887317 75.082917 
L 110.015135 75.296315 
L 110.142954 75.258036 
L 110.270773 75.462014 
L 110.654229 74.836405 
L 110.909866 74.953025 
L 111.037685 74.778759 
L 111.293322 75.112606 
L 111.54896 74.976007 
L 111.676779 75.427656 
L 111.804597 75.388381 
L 111.932416 75.726205 
L 112.060235 75.497124 
L 112.188053 75.500738 
L 112.443691 75.006381 
L 112.699328 75.060866 
L 113.082784 75.168027 
L 113.338422 74.957386 
L 113.721878 75.697093 
L 113.977515 75.519695 
L 114.105334 75.62935 
L 114.233153 75.377483 
L 114.48879 75.304059 
L 114.616609 75.154437 
L 114.744428 75.39434 
L 115.000065 74.888771 
L 115.127884 75.526635 
L 115.639159 75.214397 
L 115.766978 74.856138 
L 116.278252 74.98522 
L 116.53389 75.340187 
L 116.789527 75.448168 
L 116.917346 75.909022 
L 117.045165 75.847461 
L 117.172983 75.909568 
L 117.428621 75.501266 
L 117.684258 75.276509 
L 118.323352 74.992336 
L 118.451171 75.173417 
L 118.706808 75.141398 
L 118.834627 75.570662 
L 119.218083 74.955792 
L 119.345902 75.047628 
L 119.601539 74.637062 
L 119.729358 74.890116 
L 120.240633 74.838451 
L 120.49627 75.172571 
L 120.751907 74.76421 
L 121.007545 74.771729 
L 121.263182 74.682698 
L 121.51882 74.723489 
L 121.774457 74.809571 
L 122.157913 75.130177 
L 122.413551 74.855458 
L 122.541369 75.046782 
L 123.052644 74.504596 
L 123.563919 74.739425 
L 123.691738 75.077151 
L 123.819557 74.862097 
L 124.203013 75.310058 
L 124.586469 75.40434 
L 124.969925 75.622536 
L 125.097744 75.867031 
L 125.609019 75.417089 
L 125.864656 75.092379 
L 125.992475 75.233727 
L 126.248112 75.237364 
L 126.375931 75.326721 
L 126.50375 75.247382 
L 126.631568 75.626962 
L 126.759387 75.591391 
L 127.015024 75.302378 
L 127.654118 75.374568 
L 127.909755 75.564896 
L 128.037574 75.423716 
L 128.165393 75.664303 
L 128.293212 75.57336 
L 128.42103 75.273111 
L 128.548849 75.453612 
L 128.676668 75.370903 
L 128.932305 75.407726 
L 129.187943 75.066668 
L 129.44358 75.321656 
L 129.571399 75.209679 
L 129.699217 75.6351 
L 129.954855 75.131951 
L 130.210492 74.846107 
L 130.46613 75.017227 
L 130.721767 75.231006 
L 130.849586 75.387079 
L 130.977405 75.300014 
L 131.105223 75.826636 
L 131.233042 75.873306 
L 131.360861 75.611507 
L 131.616498 75.669096 
L 131.872136 75.417964 
L 132.127773 75.202374 
L 132.255592 75.553748 
L 132.38341 75.54506 
L 132.511229 75.41016 
L 132.639048 75.664807 
L 132.766867 75.333304 
L 132.894685 75.56375 
L 133.150323 75.148089 
L 133.278142 75.331309 
L 133.533779 75.180101 
L 133.789416 75.415537 
L 133.917235 75.328195 
L 134.172873 75.484706 
L 134.556329 75.044322 
L 134.684147 74.784269 
L 134.811966 74.941271 
L 135.067604 74.8032 
L 135.195422 75.404614 
L 135.323241 75.22792 
L 135.578878 75.730491 
L 135.962335 74.949709 
L 136.090153 75.02374 
L 136.217972 75.266202 
L 136.473609 74.883274 
L 136.729247 75.144985 
L 137.240522 75.085648 
L 137.496159 75.337119 
L 137.623978 75.525044 
L 137.879615 75.328024 
L 138.135253 75.562962 
L 138.263071 75.343573 
L 138.518709 75.734144 
L 138.646528 75.448302 
L 138.774346 75.46535 
L 139.285621 74.81835 
L 139.41344 74.843197 
L 139.541259 75.036306 
L 139.669077 74.916409 
L 140.180352 75.282435 
L 140.308171 75.08099 
L 140.43599 75.134305 
L 140.819446 74.978423 
L 141.202902 75.288333 
L 141.458539 75.206063 
L 141.586358 74.993875 
L 141.841995 75.042692 
L 142.097633 74.943757 
L 142.225452 74.813368 
L 142.35327 74.905353 
L 142.481089 74.606731 
L 142.608908 75.039048 
L 142.864545 74.563274 
L 143.248001 74.176567 
L 143.37582 74.26019 
L 143.503639 74.145489 
L 144.014914 74.698225 
L 144.142732 74.937112 
L 144.526188 74.513605 
L 144.654007 74.566755 
L 145.037463 74.265316 
L 145.548738 74.224005 
L 145.804376 73.791045 
L 145.932194 73.809143 
L 146.060013 73.677066 
L 146.31565 73.87318 
L 146.699107 74.018747 
L 146.954744 74.614377 
L 147.082563 74.354611 
L 147.3382 74.352845 
L 147.593838 73.990773 
L 147.849475 73.594912 
L 147.977294 73.868648 
L 148.232931 73.83113 
L 148.36075 74.0787 
L 148.999843 73.491737 
L 149.255481 73.168941 
L 149.3833 73.211633 
L 149.638937 73.441966 
L 149.766756 73.437183 
L 150.278031 73.77148 
L 150.533668 73.723966 
L 150.661487 73.826112 
L 150.917124 73.600248 
L 151.556218 73.321349 
L 151.811855 72.884703 
L 151.939674 72.573391 
L 152.067493 72.708971 
L 152.450949 72.438162 
L 153.090042 72.698086 
L 153.34568 72.996729 
L 153.601317 72.973799 
L 153.729136 72.912527 
L 153.984773 72.687238 
L 154.240411 72.581171 
L 154.496048 72.657681 
L 154.751686 73.145752 
L 155.390779 72.442759 
L 155.518598 72.527271 
L 155.774235 72.3641 
L 155.902054 72.379524 
L 156.029873 72.162913 
L 156.413329 72.25108 
L 156.541148 72.433944 
L 156.796785 72.259011 
L 157.052423 72.050191 
L 157.435879 71.96888 
L 157.691516 72.239166 
L 157.819335 72.109124 
L 157.947154 72.157872 
L 158.202791 72.477882 
L 158.586247 72.128004 
L 158.841885 71.5973 
L 159.864434 71.099545 
L 160.120072 71.514865 
L 160.375709 71.293311 
L 160.759165 70.826626 
L 160.886984 70.900971 
L 161.014803 71.118319 
L 161.27044 71.094413 
L 161.526078 71.222166 
L 161.781715 71.061643 
L 162.29299 71.46678 
L 162.420809 71.392171 
L 162.804265 70.867906 
L 163.443358 71.368212 
L 163.698996 71.13716 
L 163.954633 71.002322 
L 164.210271 71.148991 
L 164.338089 71.096741 
L 164.593727 71.326251 
L 164.721545 71.18629 
L 164.849364 71.360925 
L 165.360639 71.077577 
L 165.744095 71.278409 
L 165.871914 71.257913 
L 166.894464 72.1031 
L 167.150101 71.836829 
L 167.27792 71.965983 
L 167.917013 71.468399 
L 168.30047 72.141565 
L 168.811744 71.895485 
L 169.067382 72.310854 
L 169.450838 72.034782 
L 169.578657 72.048279 
L 169.706475 71.842731 
L 169.834294 71.893638 
L 169.962113 71.715077 
L 170.089932 71.901781 
L 170.473388 71.707565 
L 170.729025 71.143083 
L 171.112481 71.495649 
L 171.368119 71.746698 
L 171.751575 71.366013 
L 172.26285 71.675719 
L 172.518487 71.640766 
L 172.901943 71.828753 
L 173.541037 71.265606 
L 173.796674 71.191106 
L 174.18013 70.836895 
L 174.435768 71.133445 
L 174.819224 71.507335 
L 175.074861 71.479195 
L 176.22523 71.074628 
L 176.480867 71.308189 
L 176.608686 71.297612 
L 177.119961 70.739555 
L 177.375598 70.875035 
L 177.631236 71.222934 
L 177.886873 70.984451 
L 178.398148 70.373904 
L 178.653785 70.496163 
L 179.292879 71.502684 
L 179.548516 71.476174 
L 179.931973 70.964169 
L 180.315429 70.510893 
L 180.571066 70.559837 
L 180.954522 70.909778 
L 181.082341 70.875498 
L 181.593616 70.222918 
L 181.849253 70.24061 
L 182.232709 70.613789 
L 182.743984 70.410851 
L 182.999622 70.523873 
L 184.277809 71.827638 
L 184.789084 71.961333 
L 186.706365 72.578916 
L 187.728914 72.510114 
L 189.390558 72.181924 
L 191.052201 71.349645 
L 192.330388 70.392677 
L 193.608575 69.147132 
L 195.1424 67.361278 
L 197.315318 64.224048 
L 197.698774 63.475264 
L 197.954411 62.924876 
L 198.08223 63.068002 
L 198.593505 64.227959 
L 198.721324 64.18552 
L 198.976961 63.981416 
L 199.232599 63.952738 
L 199.360417 64.417615 
L 199.488236 64.40479 
L 199.871692 63.975037 
L 200.12733 64.052421 
L 200.510786 63.495507 
L 200.638604 63.268381 
L 200.894242 63.279724 
L 201.405517 63.888297 
L 202.04461 65.697629 
L 202.300248 66.340869 
L 202.683704 67.540174 
L 203.194979 68.162632 
L 204.217529 71.273203 
L 204.728803 72.168425 
L 205.367897 74.01115 
L 205.751353 74.684782 
L 206.134809 75.807692 
L 206.518265 76.432579 
L 207.285178 77.652817 
L 207.540815 77.756553 
L 207.924271 78.373391 
L 208.307727 78.524344 
L 208.691184 79.026481 
L 209.07464 79.001256 
L 209.330277 79.419706 
L 209.585915 79.388229 
L 209.841552 79.249905 
L 209.969371 79.289563 
L 210.352827 79.716972 
L 210.864102 79.169414 
L 210.99192 79.177399 
L 211.375377 79.502226 
L 212.01447 78.68049 
L 212.270108 78.69283 
L 212.781382 78.165927 
L 213.548295 76.901925 
L 213.803932 76.535888 
L 214.826482 74.12567 
L 215.593394 71.889797 
L 215.849032 70.518643 
L 216.104669 69.248889 
L 216.232488 69.082619 
L 216.360306 69.148402 
L 216.743763 70.184908 
L 217.127219 69.518352 
L 217.255037 69.555002 
L 217.638494 70.179802 
L 218.149769 68.964325 
L 218.533225 68.932792 
L 218.788862 68.642605 
L 218.916681 68.602163 
L 219.172318 68.845093 
L 219.300137 68.850082 
L 219.427956 68.740415 
L 220.194868 69.57823 
L 220.578324 69.63819 
L 220.96178 70.087064 
L 221.600874 70.876587 
L 221.98433 71.461371 
L 222.112149 71.34211 
L 222.239967 71.418004 
L 222.623424 71.919675 
L 222.751242 71.938617 
L 223.00688 72.389177 
L 223.518155 72.855963 
L 224.157248 73.375808 
L 224.285067 73.368555 
L 224.540704 73.717613 
L 225.051979 74.332511 
L 225.307617 74.314477 
L 225.563254 74.649667 
L 226.713622 75.621396 
L 226.96926 75.657399 
L 227.224897 75.793887 
L 227.863991 75.597702 
L 228.119628 75.408641 
L 228.247447 75.496954 
L 228.758722 75.162085 
L 228.886541 75.292244 
L 229.397815 74.799737 
L 229.781272 74.882899 
L 229.90909 74.822352 
L 230.036909 74.955968 
L 230.548184 74.654884 
L 230.676003 74.799015 
L 231.187277 74.471327 
L 231.315096 74.59354 
L 231.826371 74.425412 
L 231.95419 74.516466 
L 232.848921 73.688149 
L 233.104558 73.4771 
L 233.360196 73.344261 
L 233.87147 73.733865 
L 234.127108 73.410331 
L 234.382745 73.205619 
L 235.149658 72.581981 
L 235.405295 72.73351 
L 235.533114 73.130392 
L 235.91657 72.758494 
L 236.044389 72.968519 
L 236.427845 72.789885 
L 236.683482 72.979251 
L 236.811301 72.829571 
L 237.194757 73.18878 
L 237.578213 73.039793 
L 237.706032 73.064964 
L 237.961669 72.824608 
L 238.217307 72.866283 
L 238.600763 72.901187 
L 238.984219 72.615563 
L 239.367675 72.357126 
L 240.006769 72.701462 
L 240.390225 72.971732 
L 240.518044 72.92329 
L 240.773681 73.114782 
L 240.9015 73.179261 
L 241.029319 73.068526 
L 241.284956 73.49003 
L 241.540593 73.379814 
L 241.796231 73.589183 
L 242.051868 73.716214 
L 242.179687 73.947232 
L 242.435324 73.795514 
L 242.690962 73.903387 
L 242.946599 73.979247 
L 243.074418 74.186727 
L 243.84133 74.197161 
L 243.969149 74.29313 
L 244.224786 74.584621 
L 244.480424 74.750526 
L 244.736061 74.835078 
L 245.758611 75.186684 
L 246.014248 75.430612 
L 246.269886 75.745269 
L 246.397705 75.7733 
L 246.653342 76.038312 
L 247.036798 76.118137 
L 247.292436 76.242975 
L 247.420254 76.13897 
L 247.548073 76.247483 
L 248.059348 76.014253 
L 248.442804 76.28084 
L 249.976629 76.480041 
L 250.104447 76.385156 
L 250.360085 76.492803 
L 250.615722 76.449022 
L 250.743541 76.469661 
L 250.999178 76.736568 
L 252.660822 76.519114 
L 252.916459 76.688002 
L 253.555553 76.551783 
L 253.939009 76.626177 
L 254.066828 76.79956 
L 254.450284 76.755277 
L 254.705921 76.913358 
L 255.089377 76.701923 
L 255.472833 76.929853 
L 255.85629 76.792181 
L 255.984108 76.933371 
L 256.623202 76.700115 
L 256.878839 76.890011 
L 257.390114 76.723739 
L 258.029208 76.631914 
L 258.284845 76.991068 
L 258.540483 76.916936 
L 258.79612 76.789351 
L 259.051757 76.940458 
L 259.563032 76.797315 
L 259.81867 77.070133 
L 260.074307 76.95642 
L 260.329945 76.772729 
L 260.457763 77.058672 
L 260.713401 77.018235 
L 261.096857 76.930078 
L 261.352494 77.419248 
L 261.608132 77.403662 
L 261.863769 77.238281 
L 262.375044 77.700856 
L 262.630681 77.462556 
L 262.7585 77.446048 
L 262.886319 77.546246 
L 263.141956 77.878577 
L 263.78105 77.672372 
L 264.036687 78.004232 
L 264.292325 77.890494 
L 264.547962 77.61019 
L 264.8036 77.600624 
L 265.187056 77.784422 
L 265.698331 77.201981 
L 265.953968 77.15076 
L 266.337424 77.554929 
L 266.593062 77.351567 
L 266.848699 77.053656 
L 267.232155 76.877953 
L 267.74343 77.109654 
L 268.382524 76.505188 
L 268.893799 76.902223 
L 269.149436 76.640874 
L 270.044167 76.796376 
L 270.427623 76.849865 
L 270.683261 77.018667 
L 271.066717 76.870607 
L 271.322354 76.63395 
L 271.450173 76.648243 
L 272.089266 77.27902 
L 272.472723 77.329992 
L 272.72836 77.159953 
L 272.983997 76.959998 
L 273.239635 77.037438 
L 273.623091 77.195817 
L 274.134366 77.033532 
L 274.901278 77.625712 
L 275.156916 77.551787 
L 275.66819 77.738307 
L 275.923828 77.622849 
L 276.051647 77.421589 
L 276.307284 77.544839 
L 276.818559 77.913266 
L 277.329834 77.79347 
L 278.352383 78.61778 
L 278.608021 78.532098 
L 279.758389 77.555845 
L 280.269664 77.42362 
L 282.442582 77.293728 
L 283.592951 77.46461 
L 285.510231 78.103509 
L 286.021506 78.323527 
L 286.6606 78.570189 
L 287.427512 79.071201 
L 288.833518 80.128152 
L 290.111705 81.130189 
L 290.750799 81.691061 
L 291.517711 82.30416 
L 293.307173 84.725352 
L 293.562811 85.612706 
L 293.690629 85.638103 
L 294.074085 85.264156 
L 294.457542 84.63675 
L 294.840998 84.986184 
L 295.224454 84.127145 
L 295.352273 84.387824 
L 295.735729 83.274166 
L 296.119185 82.065652 
L 296.247004 81.842254 
L 296.374822 81.843616 
L 297.525191 79.432036 
L 298.292103 77.035625 
L 299.059015 75.576627 
L 299.57029 74.526745 
L 299.825928 74.108986 
L 300.209384 73.218337 
L 300.337202 73.209201 
L 301.487571 71.325077 
L 301.743208 71.232761 
L 302.254483 70.403533 
L 303.277033 69.995707 
L 303.53267 70.137316 
L 303.916127 70.051578 
L 304.043945 70.051712 
L 304.55522 70.387481 
L 304.810858 70.265038 
L 305.066495 70.448181 
L 305.449951 70.983848 
L 306.089045 71.241987 
L 306.472501 71.777383 
L 306.728138 72.353107 
L 307.111594 72.691485 
L 307.367232 72.804993 
L 307.622869 73.240455 
L 307.878507 73.639492 
L 308.134144 73.790621 
L 308.389782 74.778001 
L 308.645419 75.326527 
L 308.773238 75.423926 
L 309.156694 75.098555 
L 309.284513 75.150753 
L 309.795787 75.729666 
L 310.051425 75.76248 
L 310.179244 75.965884 
L 310.434881 76.910314 
L 310.818337 77.20158 
L 311.073975 77.164888 
L 311.201793 77.215563 
L 311.713068 78.078308 
L 312.096524 78.18953 
L 312.352162 77.99356 
L 312.607799 78.151752 
L 312.863437 78.362039 
L 313.119074 78.241202 
L 313.374711 78.064857 
L 313.758168 78.328516 
L 313.885986 78.337929 
L 314.013805 78.081608 
L 314.52508 78.644 
L 314.652899 78.478514 
L 314.908536 77.851914 
L 315.164173 77.747583 
L 315.291992 77.852931 
L 315.54763 77.371316 
L 315.675448 77.391481 
L 315.931086 77.302437 
L 316.186723 77.280694 
L 316.442361 76.992591 
L 316.697998 77.029645 
L 316.953635 76.744013 
L 317.337092 76.529277 
L 317.46491 76.773632 
L 317.848366 76.090553 
L 318.48746 75.374586 
L 318.870916 75.442446 
L 319.382191 74.973981 
L 319.51001 75.159059 
L 319.637828 75.103077 
L 320.021285 74.614225 
L 320.276922 74.66881 
L 320.788197 73.989141 
L 321.043834 74.032047 
L 321.427291 73.875888 
L 321.682928 74.00495 
L 321.938565 74.105052 
L 322.322022 73.610258 
L 322.44984 73.688853 
L 322.705478 74.099938 
L 322.961115 73.833827 
L 323.47239 74.234491 
L 323.855846 73.78626 
L 324.111484 73.782977 
L 324.367121 73.924721 
L 324.622758 73.650004 
L 325.261852 74.001996 
L 325.645308 73.803342 
L 325.773127 73.827878 
L 326.028764 74.336267 
L 326.156583 74.350155 
L 326.41222 74.142452 
L 326.923495 74.303927 
L 327.306951 73.866002 
L 327.562589 73.955998 
L 327.818226 73.977868 
L 328.073864 74.077768 
L 328.201682 74.053816 
L 328.329501 74.171138 
L 328.585139 74.662651 
L 329.096413 74.224515 
L 329.607688 74.345116 
L 330.118963 73.95753 
L 330.374601 74.477763 
L 330.502419 74.631922 
L 331.013694 74.2785 
L 331.524969 74.634468 
L 331.908425 74.331148 
L 332.164063 74.978591 
L 332.4197 75.074606 
L 332.547519 74.961323 
L 332.803156 74.560144 
L 332.930975 74.6246 
L 333.186612 74.989822 
L 333.44225 74.706983 
L 333.697887 74.405979 
L 333.953525 74.750576 
L 334.081343 75.217356 
L 334.209162 75.065524 
L 334.592618 74.186414 
L 334.848256 74.301762 
L 335.103893 74.428363 
L 335.231712 74.406517 
L 335.615168 73.918236 
L 335.742987 74.029057 
L 335.998624 74.401582 
L 336.509899 73.82292 
L 336.893355 73.927248 
L 337.148993 73.488747 
L 337.40463 73.209025 
L 337.788086 73.455866 
L 338.42718 72.755765 
L 338.938455 73.248425 
L 339.194092 72.914513 
L 339.449729 72.690616 
L 339.705367 72.813736 
L 340.088823 73.357267 
L 340.472279 72.973434 
L 340.727917 73.068068 
L 341.111373 73.037789 
L 341.494829 72.775255 
L 341.878285 72.907638 
L 342.133922 72.872403 
L 342.38956 72.594919 
L 342.645197 72.545939 
L 343.028653 72.92053 
L 343.284291 72.867861 
L 343.539928 72.832476 
L 343.667747 73.017696 
L 344.051203 72.794549 
L 344.434659 72.615299 
L 344.690297 72.934379 
L 344.945934 72.673544 
L 345.32939 72.231399 
L 345.585028 72.59944 
L 345.840665 73.126142 
L 345.968484 73.201946 
L 346.224121 72.977086 
L 346.735396 72.670678 
L 346.991034 72.746497 
L 347.37449 73.117299 
L 347.885765 73.064922 
L 348.013583 73.420564 
L 348.269221 73.324024 
L 348.780496 72.467288 
L 349.036133 72.40309 
L 349.419589 72.629952 
L 349.547408 72.561565 
L 349.930864 72.94324 
L 350.186501 72.795643 
L 350.569958 72.261302 
L 350.825595 72.343259 
L 351.081232 72.422865 
L 351.720326 72.09698 
L 352.35942 72.470748 
L 352.487238 72.660303 
L 353.126332 74.558491 
L 353.254151 74.589654 
L 353.765425 73.835139 
L 354.021063 73.857107 
L 354.2767 73.862898 
L 355.043613 73.368353 
L 356.449619 72.691017 
L 356.833075 72.877178 
L 357.472168 73.012174 
L 357.855624 73.038322 
L 359.389449 72.437529 
L 360.028543 72.244784 
L 361.30673 71.358685 
L 362.329279 70.555991 
L 364.885654 68.219525 
L 367.186391 65.342668 
L 367.697665 64.524861 
L 367.953303 64.047586 
L 368.081122 63.985014 
L 368.336759 64.246308 
L 368.848034 64.783724 
L 368.975853 64.783494 
L 369.487127 64.34813 
L 369.742765 64.253522 
L 369.998402 64.097472 
L 370.25404 63.840098 
L 370.509677 63.754735 
L 370.765315 64.335505 
L 371.020952 64.916381 
L 371.148771 64.788745 
L 371.27659 64.82907 
L 371.787864 65.992824 
L 372.043502 67.052649 
L 373.066052 69.547873 
L 373.321689 69.784109 
L 373.577326 70.496201 
L 374.088601 71.91249 
L 374.344239 72.1632 
L 374.727695 72.77547 
L 374.983332 73.1572 
L 375.622426 74.610492 
L 375.878063 75.011332 
L 376.133701 75.679889 
L 376.517157 76.129906 
L 376.772794 76.841036 
L 377.284069 77.291746 
L 377.539707 77.895338 
L 378.050981 78.177636 
L 378.434438 78.836693 
L 378.817894 78.782865 
L 379.073531 79.109676 
L 379.329169 79.549957 
L 379.456987 79.596268 
L 379.840443 79.324872 
L 380.096081 79.549375 
L 380.479537 79.99358 
L 380.735174 79.755153 
L 380.990812 79.545376 
L 381.246449 79.836324 
L 381.502087 80.159496 
L 381.757724 80.005701 
L 382.268999 79.283585 
L 382.652455 78.947625 
L 383.547186 77.793056 
L 383.930642 77.489012 
L 384.441917 76.591413 
L 385.720104 73.763834 
L 387.381748 70.107112 
L 388.276479 68.239688 
L 388.532116 67.529556 
L 388.787754 67.724721 
L 389.299028 68.58535 
L 389.554666 68.540309 
L 389.938122 68.598948 
L 390.321578 68.266162 
L 390.449397 68.328866 
L 390.832853 68.916522 
L 391.216309 68.907759 
L 391.727584 69.880851 
L 392.11104 70.942791 
L 392.622315 72.742415 
L 393.13359 74.138756 
L 395.562145 79.490835 
L 395.945602 80.068235 
L 396.329058 80.939351 
L 396.712514 81.368125 
L 397.735064 83.53213 
L 398.374157 85.567256 
L 398.629795 85.194987 
L 398.885432 85.002971 
L 399.268888 84.724013 
L 399.396707 84.90117 
L 399.652344 84.700721 
L 400.163619 83.294921 
L 400.419257 82.76715 
L 400.674894 82.642625 
L 400.930531 82.6821 
L 401.186169 82.315702 
L 402.208719 80.387166 
L 402.719993 79.792946 
L 403.359087 79.453764 
L 404.381637 78.979306 
L 405.276368 78.777659 
L 405.915461 78.691788 
L 406.810192 78.549884 
L 409.110929 78.891609 
L 410.00566 79.23379 
L 410.516935 79.500416 
L 411.539485 79.809079 
L 413.96804 81.490982 
L 414.095859 82.92423 
L 414.223678 82.875868 
L 414.479315 82.111304 
L 414.99059 80.369337 
L 415.374046 79.493613 
L 415.501865 79.496042 
L 416.140959 80.061895 
L 417.163508 78.006182 
L 418.186058 76.796379 
L 418.569514 75.344664 
L 418.825152 74.759577 
L 418.95297 74.631188 
L 419.592064 73.090041 
L 419.97552 72.853746 
L 420.486795 71.609563 
L 420.742432 71.52129 
L 420.870251 71.533426 
L 420.99807 71.41953 
L 421.637163 69.997756 
L 422.787532 69.262027 
L 423.043169 69.164224 
L 423.426625 68.839826 
L 423.682263 68.929566 
L 424.321356 69.292851 
L 425.471725 69.572563 
L 427.133368 71.229639 
L 428.155918 72.129758 
L 429.434105 73.401082 
L 431.479204 75.240858 
L 436.84759 80.309297 
L 437.997959 81.642473 
L 438.637052 82.838881 
L 438.89269 82.708688 
L 439.148327 82.375281 
L 439.403965 82.453761 
L 439.787421 82.804844 
L 440.043058 83.971251 
L 440.170877 83.756306 
L 441.321246 78.202258 
L 442.85507 72.567229 
L 443.238526 71.55542 
L 443.749801 70.375528 
L 444.133257 69.739037 
L 444.388895 69.364198 
L 444.772351 68.582815 
L 445.539263 67.772729 
L 446.306175 66.625839 
L 446.561813 66.445673 
L 447.712181 64.961776 
L 447.712181 64.961776 
" style="fill:none;stroke:#4c72b0;stroke-linecap:round;stroke-width:1.75;"/>
   </g>
   <g id="line2d_22">
    <path clip-path="url(#p7bceb781c6)" d="M 55.82 74.66552 
L 447.84 74.66552 
" style="fill:none;stroke:#55a868;stroke-linecap:round;stroke-width:1.75;"/>
   </g>
   <g id="patch_3">
    <path d="M 55.82 142.886299 
L 55.82 41.472 
" style="fill:none;"/>
   </g>
   <g id="patch_4">
    <path d="M 447.84 142.886299 
L 447.84 41.472 
" style="fill:none;"/>
   </g>
   <g id="patch_5">
    <path d="M 55.82 142.886299 
L 447.84 142.886299 
" style="fill:none;"/>
   </g>
   <g id="patch_6">
    <path d="M 55.82 41.472 
L 447.84 41.472 
" style="fill:none;"/>
   </g>
   <g id="text_13">
    <!-- y(t), process variable -->
    <defs>
     <path d="M 32.171875 -5.078125 
Q 28.375 -14.84375 24.75 -17.8125 
Q 21.140625 -20.796875 15.09375 -20.796875 
L 7.90625 -20.796875 
L 7.90625 -13.28125 
L 13.1875 -13.28125 
Q 16.890625 -13.28125 18.9375 -11.515625 
Q 21 -9.765625 23.484375 -3.21875 
L 25.09375 0.875 
L 2.984375 54.6875 
L 12.5 54.6875 
L 29.59375 11.921875 
L 46.6875 54.6875 
L 56.203125 54.6875 
z
" id="DejaVuSans-79"/>
     <path d="M 11.71875 12.40625 
L 22.015625 12.40625 
L 22.015625 4 
L 14.015625 -11.625 
L 7.71875 -11.625 
L 11.71875 4 
z
" id="DejaVuSans-2c"/>
     <path d="M 18.109375 8.203125 
L 18.109375 -20.796875 
L 9.078125 -20.796875 
L 9.078125 54.6875 
L 18.109375 54.6875 
L 18.109375 46.390625 
Q 20.953125 51.265625 25.265625 53.625 
Q 29.59375 56 35.59375 56 
Q 45.5625 56 51.78125 48.09375 
Q 58.015625 40.1875 58.015625 27.296875 
Q 58.015625 14.40625 51.78125 6.484375 
Q 45.5625 -1.421875 35.59375 -1.421875 
Q 29.59375 -1.421875 25.265625 0.953125 
Q 20.953125 3.328125 18.109375 8.203125 
z
M 48.6875 27.296875 
Q 48.6875 37.203125 44.609375 42.84375 
Q 40.53125 48.484375 33.40625 48.484375 
Q 26.265625 48.484375 22.1875 42.84375 
Q 18.109375 37.203125 18.109375 27.296875 
Q 18.109375 17.390625 22.1875 11.75 
Q 26.265625 6.109375 33.40625 6.109375 
Q 40.53125 6.109375 44.609375 11.75 
Q 48.6875 17.390625 48.6875 27.296875 
z
" id="DejaVuSans-70"/>
     <path d="M 2.984375 54.6875 
L 12.5 54.6875 
L 29.59375 8.796875 
L 46.6875 54.6875 
L 56.203125 54.6875 
L 35.6875 0 
L 23.484375 0 
z
" id="DejaVuSans-76"/>
     <path d="M 34.28125 27.484375 
Q 23.390625 27.484375 19.1875 25 
Q 14.984375 22.515625 14.984375 16.5 
Q 14.984375 11.71875 18.140625 8.90625 
Q 21.296875 6.109375 26.703125 6.109375 
Q 34.1875 6.109375 38.703125 11.40625 
Q 43.21875 16.703125 43.21875 25.484375 
L 43.21875 27.484375 
z
M 52.203125 31.203125 
L 52.203125 0 
L 43.21875 0 
L 43.21875 8.296875 
Q 40.140625 3.328125 35.546875 0.953125 
Q 30.953125 -1.421875 24.3125 -1.421875 
Q 15.921875 -1.421875 10.953125 3.296875 
Q 6 8.015625 6 15.921875 
Q 6 25.140625 12.171875 29.828125 
Q 18.359375 34.515625 30.609375 34.515625 
L 43.21875 34.515625 
L 43.21875 35.40625 
Q 43.21875 41.609375 39.140625 45 
Q 35.0625 48.390625 27.6875 48.390625 
Q 23 48.390625 18.546875 47.265625 
Q 14.109375 46.140625 10.015625 43.890625 
L 10.015625 52.203125 
Q 14.9375 54.109375 19.578125 55.046875 
Q 24.21875 56 28.609375 56 
Q 40.484375 56 46.34375 49.84375 
Q 52.203125 43.703125 52.203125 31.203125 
z
" id="DejaVuSans-61"/>
     <path d="M 48.6875 27.296875 
Q 48.6875 37.203125 44.609375 42.84375 
Q 40.53125 48.484375 33.40625 48.484375 
Q 26.265625 48.484375 22.1875 42.84375 
Q 18.109375 37.203125 18.109375 27.296875 
Q 18.109375 17.390625 22.1875 11.75 
Q 26.265625 6.109375 33.40625 6.109375 
Q 40.53125 6.109375 44.609375 11.75 
Q 48.6875 17.390625 48.6875 27.296875 
z
M 18.109375 46.390625 
Q 20.953125 51.265625 25.265625 53.625 
Q 29.59375 56 35.59375 56 
Q 45.5625 56 51.78125 48.09375 
Q 58.015625 40.1875 58.015625 27.296875 
Q 58.015625 14.40625 51.78125 6.484375 
Q 45.5625 -1.421875 35.59375 -1.421875 
Q 29.59375 -1.421875 25.265625 0.953125 
Q 20.953125 3.328125 18.109375 8.203125 
L 18.109375 0 
L 9.078125 0 
L 9.078125 75.984375 
L 18.109375 75.984375 
z
" id="DejaVuSans-62"/>
    </defs>
    <g style="fill:#262626;" transform="translate(188.130625 35.472)scale(0.12 -0.12)">
     <use xlink:href="#DejaVuSans-79"/>
     <use x="59.179688" xlink:href="#DejaVuSans-28"/>
     <use x="98.193359" xlink:href="#DejaVuSans-74"/>
     <use x="137.402344" xlink:href="#DejaVuSans-29"/>
     <use x="176.416016" xlink:href="#DejaVuSans-2c"/>
     <use x="208.203125" xlink:href="#DejaVuSans-20"/>
     <use x="239.990234" xlink:href="#DejaVuSans-70"/>
     <use x="303.466797" xlink:href="#DejaVuSans-72"/>
     <use x="344.548828" xlink:href="#DejaVuSans-6f"/>
     <use x="405.730469" xlink:href="#DejaVuSans-63"/>
     <use x="460.710938" xlink:href="#DejaVuSans-65"/>
     <use x="522.234375" xlink:href="#DejaVuSans-73"/>
     <use x="574.333984" xlink:href="#DejaVuSans-73"/>
     <use x="626.433594" xlink:href="#DejaVuSans-20"/>
     <use x="658.220703" xlink:href="#DejaVuSans-76"/>
     <use x="717.400391" xlink:href="#DejaVuSans-61"/>
     <use x="778.679688" xlink:href="#DejaVuSans-72"/>
     <use x="819.792969" xlink:href="#DejaVuSans-69"/>
     <use x="847.576172" xlink:href="#DejaVuSans-61"/>
     <use x="908.855469" xlink:href="#DejaVuSans-62"/>
     <use x="972.332031" xlink:href="#DejaVuSans-6c"/>
     <use x="1000.115234" xlink:href="#DejaVuSans-65"/>
    </g>
   </g>
   <g id="legend_1">
    <g id="line2d_23">
     <path d="M 64.82 128.306612 
L 84.82 128.306612 
" style="fill:none;stroke:#55a868;stroke-linecap:round;stroke-width:1.75;"/>
    </g>
    <g id="line2d_24"/>
    <g id="text_14">
     <!-- Set point -->
     <defs>
      <path d="M 53.515625 70.515625 
L 53.515625 60.890625 
Q 47.90625 63.578125 42.921875 64.890625 
Q 37.9375 66.21875 33.296875 66.21875 
Q 25.25 66.21875 20.875 63.09375 
Q 16.5 59.96875 16.5 54.203125 
Q 16.5 49.359375 19.40625 46.890625 
Q 22.3125 44.4375 30.421875 42.921875 
L 36.375 41.703125 
Q 47.40625 39.59375 52.65625 34.296875 
Q 57.90625 29 57.90625 20.125 
Q 57.90625 9.515625 50.796875 4.046875 
Q 43.703125 -1.421875 29.984375 -1.421875 
Q 24.8125 -1.421875 18.96875 -0.25 
Q 13.140625 0.921875 6.890625 3.21875 
L 6.890625 13.375 
Q 12.890625 10.015625 18.65625 8.296875 
Q 24.421875 6.59375 29.984375 6.59375 
Q 38.421875 6.59375 43.015625 9.90625 
Q 47.609375 13.234375 47.609375 19.390625 
Q 47.609375 24.75 44.3125 27.78125 
Q 41.015625 30.8125 33.5 32.328125 
L 27.484375 33.5 
Q 16.453125 35.6875 11.515625 40.375 
Q 6.59375 45.0625 6.59375 53.421875 
Q 6.59375 63.09375 13.40625 68.65625 
Q 20.21875 74.21875 32.171875 74.21875 
Q 37.3125 74.21875 42.625 73.28125 
Q 47.953125 72.359375 53.515625 70.515625 
z
" id="DejaVuSans-53"/>
     </defs>
     <g style="fill:#262626;" transform="translate(92.82 131.806612)scale(0.1 -0.1)">
      <use xlink:href="#DejaVuSans-53"/>
      <use x="63.476562" xlink:href="#DejaVuSans-65"/>
      <use x="125" xlink:href="#DejaVuSans-74"/>
      <use x="164.208984" xlink:href="#DejaVuSans-20"/>
      <use x="195.996094" xlink:href="#DejaVuSans-70"/>
      <use x="259.472656" xlink:href="#DejaVuSans-6f"/>
      <use x="320.654297" xlink:href="#DejaVuSans-69"/>
      <use x="348.4375" xlink:href="#DejaVuSans-6e"/>
      <use x="411.816406" xlink:href="#DejaVuSans-74"/>
     </g>
    </g>
   </g>
  </g>
  <g id="axes_2">
   <g id="patch_7">
    <path d="M 55.82 300.76 
L 447.84 300.76 
L 447.84 199.345701 
L 55.82 199.345701 
z
" style="fill:#eaeaf2;"/>
   </g>
   <g id="matplotlib.axis_3">
    <g id="xtick_7">
     <g id="line2d_25">
      <path clip-path="url(#pf355fe98bd)" d="M 55.82 300.76 
L 55.82 199.345701 
" style="fill:none;stroke:#ffffff;stroke-linecap:round;"/>
     </g>
     <g id="line2d_26"/>
     <g id="text_15">
      <!-- 0 -->
      <g style="fill:#262626;" transform="translate(52.63875 315.358437)scale(0.1 -0.1)">
       <use xlink:href="#DejaVuSans-30"/>
      </g>
     </g>
    </g>
    <g id="xtick_8">
     <g id="line2d_27">
      <path clip-path="url(#pf355fe98bd)" d="M 121.284527 300.76 
L 121.284527 199.345701 
" style="fill:none;stroke:#ffffff;stroke-linecap:round;"/>
     </g>
     <g id="line2d_28"/>
     <g id="text_16">
      <!-- 1 -->
      <g style="fill:#262626;" transform="translate(118.103277 315.358437)scale(0.1 -0.1)">
       <use xlink:href="#DejaVuSans-31"/>
      </g>
     </g>
    </g>
    <g id="xtick_9">
     <g id="line2d_29">
      <path clip-path="url(#pf355fe98bd)" d="M 186.749054 300.76 
L 186.749054 199.345701 
" style="fill:none;stroke:#ffffff;stroke-linecap:round;"/>
     </g>
     <g id="line2d_30"/>
     <g id="text_17">
      <!-- 2 -->
      <g style="fill:#262626;" transform="translate(183.567804 315.358437)scale(0.1 -0.1)">
       <use xlink:href="#DejaVuSans-32"/>
      </g>
     </g>
    </g>
    <g id="xtick_10">
     <g id="line2d_31">
      <path clip-path="url(#pf355fe98bd)" d="M 252.213581 300.76 
L 252.213581 199.345701 
" style="fill:none;stroke:#ffffff;stroke-linecap:round;"/>
     </g>
     <g id="line2d_32"/>
     <g id="text_18">
      <!-- 3 -->
      <g style="fill:#262626;" transform="translate(249.032331 315.358437)scale(0.1 -0.1)">
       <use xlink:href="#DejaVuSans-33"/>
      </g>
     </g>
    </g>
    <g id="xtick_11">
     <g id="line2d_33">
      <path clip-path="url(#pf355fe98bd)" d="M 317.678108 300.76 
L 317.678108 199.345701 
" style="fill:none;stroke:#ffffff;stroke-linecap:round;"/>
     </g>
     <g id="line2d_34"/>
     <g id="text_19">
      <!-- 4 -->
      <g style="fill:#262626;" transform="translate(314.496858 315.358437)scale(0.1 -0.1)">
       <use xlink:href="#DejaVuSans-34"/>
      </g>
     </g>
    </g>
    <g id="xtick_12">
     <g id="line2d_35">
      <path clip-path="url(#pf355fe98bd)" d="M 383.142635 300.76 
L 383.142635 199.345701 
" style="fill:none;stroke:#ffffff;stroke-linecap:round;"/>
     </g>
     <g id="line2d_36"/>
     <g id="text_20">
      <!-- 5 -->
      <g style="fill:#262626;" transform="translate(379.961385 315.358437)scale(0.1 -0.1)">
       <use xlink:href="#DejaVuSans-35"/>
      </g>
     </g>
    </g>
    <g id="text_21">
     <!-- Time (seconds) -->
     <g style="fill:#262626;" transform="translate(209.682813 329.796406)scale(0.11 -0.11)">
      <use xlink:href="#DejaVuSans-54"/>
      <use x="61.037109" xlink:href="#DejaVuSans-69"/>
      <use x="88.820312" xlink:href="#DejaVuSans-6d"/>
      <use x="186.232422" xlink:href="#DejaVuSans-65"/>
      <use x="247.755859" xlink:href="#DejaVuSans-20"/>
      <use x="279.542969" xlink:href="#DejaVuSans-28"/>
      <use x="318.556641" xlink:href="#DejaVuSans-73"/>
      <use x="370.65625" xlink:href="#DejaVuSans-65"/>
      <use x="432.179688" xlink:href="#DejaVuSans-63"/>
      <use x="487.160156" xlink:href="#DejaVuSans-6f"/>
      <use x="548.341797" xlink:href="#DejaVuSans-6e"/>
      <use x="611.720703" xlink:href="#DejaVuSans-64"/>
      <use x="675.197266" xlink:href="#DejaVuSans-73"/>
      <use x="727.296875" xlink:href="#DejaVuSans-29"/>
     </g>
    </g>
   </g>
   <g id="matplotlib.axis_4">
    <g id="ytick_5">
     <g id="line2d_37">
      <path clip-path="url(#pf355fe98bd)" d="M 55.82 280.557184 
L 447.84 280.557184 
" style="fill:none;stroke:#ffffff;stroke-linecap:round;"/>
     </g>
     <g id="line2d_38"/>
     <g id="text_22">
      <!-- 0 -->
      <g style="fill:#262626;" transform="translate(42.4575 284.356402)scale(0.1 -0.1)">
       <use xlink:href="#DejaVuSans-30"/>
      </g>
     </g>
    </g>
    <g id="ytick_6">
     <g id="line2d_39">
      <path clip-path="url(#pf355fe98bd)" d="M 55.82 253.964485 
L 447.84 253.964485 
" style="fill:none;stroke:#ffffff;stroke-linecap:round;"/>
     </g>
     <g id="line2d_40"/>
     <g id="text_23">
      <!-- 20 -->
      <g style="fill:#262626;" transform="translate(36.095 257.763704)scale(0.1 -0.1)">
       <use xlink:href="#DejaVuSans-32"/>
       <use x="63.623047" xlink:href="#DejaVuSans-30"/>
      </g>
     </g>
    </g>
    <g id="ytick_7">
     <g id="line2d_41">
      <path clip-path="url(#pf355fe98bd)" d="M 55.82 227.371786 
L 447.84 227.371786 
" style="fill:none;stroke:#ffffff;stroke-linecap:round;"/>
     </g>
     <g id="line2d_42"/>
     <g id="text_24">
      <!-- 40 -->
      <g style="fill:#262626;" transform="translate(36.095 231.171005)scale(0.1 -0.1)">
       <use xlink:href="#DejaVuSans-34"/>
       <use x="63.623047" xlink:href="#DejaVuSans-30"/>
      </g>
     </g>
    </g>
    <g id="ytick_8">
     <g id="line2d_43">
      <path clip-path="url(#pf355fe98bd)" d="M 55.82 200.779087 
L 447.84 200.779087 
" style="fill:none;stroke:#ffffff;stroke-linecap:round;"/>
     </g>
     <g id="line2d_44"/>
     <g id="text_25">
      <!-- 60 -->
      <defs>
       <path d="M 33.015625 40.375 
Q 26.375 40.375 22.484375 35.828125 
Q 18.609375 31.296875 18.609375 23.390625 
Q 18.609375 15.53125 22.484375 10.953125 
Q 26.375 6.390625 33.015625 6.390625 
Q 39.65625 6.390625 43.53125 10.953125 
Q 47.40625 15.53125 47.40625 23.390625 
Q 47.40625 31.296875 43.53125 35.828125 
Q 39.65625 40.375 33.015625 40.375 
z
M 52.59375 71.296875 
L 52.59375 62.3125 
Q 48.875 64.0625 45.09375 64.984375 
Q 41.3125 65.921875 37.59375 65.921875 
Q 27.828125 65.921875 22.671875 59.328125 
Q 17.53125 52.734375 16.796875 39.40625 
Q 19.671875 43.65625 24.015625 45.921875 
Q 28.375 48.1875 33.59375 48.1875 
Q 44.578125 48.1875 50.953125 41.515625 
Q 57.328125 34.859375 57.328125 23.390625 
Q 57.328125 12.15625 50.6875 5.359375 
Q 44.046875 -1.421875 33.015625 -1.421875 
Q 20.359375 -1.421875 13.671875 8.265625 
Q 6.984375 17.96875 6.984375 36.375 
Q 6.984375 53.65625 15.1875 63.9375 
Q 23.390625 74.21875 37.203125 74.21875 
Q 40.921875 74.21875 44.703125 73.484375 
Q 48.484375 72.75 52.59375 71.296875 
z
" id="DejaVuSans-36"/>
      </defs>
      <g style="fill:#262626;" transform="translate(36.095 204.578306)scale(0.1 -0.1)">
       <use xlink:href="#DejaVuSans-36"/>
       <use x="63.623047" xlink:href="#DejaVuSans-30"/>
      </g>
     </g>
    </g>
    <g id="text_26">
     <!-- Duty cycle (%) -->
     <defs>
      <path d="M 19.671875 64.796875 
L 19.671875 8.109375 
L 31.59375 8.109375 
Q 46.6875 8.109375 53.6875 14.9375 
Q 60.6875 21.78125 60.6875 36.53125 
Q 60.6875 51.171875 53.6875 57.984375 
Q 46.6875 64.796875 31.59375 64.796875 
z
M 9.8125 72.90625 
L 30.078125 72.90625 
Q 51.265625 72.90625 61.171875 64.09375 
Q 71.09375 55.28125 71.09375 36.53125 
Q 71.09375 17.671875 61.125 8.828125 
Q 51.171875 0 30.078125 0 
L 9.8125 0 
z
" id="DejaVuSans-44"/>
      <path d="M 8.5 21.578125 
L 8.5 54.6875 
L 17.484375 54.6875 
L 17.484375 21.921875 
Q 17.484375 14.15625 20.5 10.265625 
Q 23.53125 6.390625 29.59375 6.390625 
Q 36.859375 6.390625 41.078125 11.03125 
Q 45.3125 15.671875 45.3125 23.6875 
L 45.3125 54.6875 
L 54.296875 54.6875 
L 54.296875 0 
L 45.3125 0 
L 45.3125 8.40625 
Q 42.046875 3.421875 37.71875 1 
Q 33.40625 -1.421875 27.6875 -1.421875 
Q 18.265625 -1.421875 13.375 4.4375 
Q 8.5 10.296875 8.5 21.578125 
z
M 31.109375 56 
z
" id="DejaVuSans-75"/>
      <path d="M 72.703125 32.078125 
Q 68.453125 32.078125 66.03125 28.46875 
Q 63.625 24.859375 63.625 18.40625 
Q 63.625 12.0625 66.03125 8.421875 
Q 68.453125 4.78125 72.703125 4.78125 
Q 76.859375 4.78125 79.265625 8.421875 
Q 81.6875 12.0625 81.6875 18.40625 
Q 81.6875 24.8125 79.265625 28.4375 
Q 76.859375 32.078125 72.703125 32.078125 
z
M 72.703125 38.28125 
Q 80.421875 38.28125 84.953125 32.90625 
Q 89.5 27.546875 89.5 18.40625 
Q 89.5 9.28125 84.9375 3.921875 
Q 80.375 -1.421875 72.703125 -1.421875 
Q 64.890625 -1.421875 60.34375 3.921875 
Q 55.8125 9.28125 55.8125 18.40625 
Q 55.8125 27.59375 60.375 32.9375 
Q 64.9375 38.28125 72.703125 38.28125 
z
M 22.3125 68.015625 
Q 18.109375 68.015625 15.6875 64.375 
Q 13.28125 60.75 13.28125 54.390625 
Q 13.28125 47.953125 15.671875 44.328125 
Q 18.0625 40.71875 22.3125 40.71875 
Q 26.5625 40.71875 28.96875 44.328125 
Q 31.390625 47.953125 31.390625 54.390625 
Q 31.390625 60.6875 28.953125 64.34375 
Q 26.515625 68.015625 22.3125 68.015625 
z
M 66.40625 74.21875 
L 74.21875 74.21875 
L 28.609375 -1.421875 
L 20.796875 -1.421875 
z
M 22.3125 74.21875 
Q 30.03125 74.21875 34.609375 68.875 
Q 39.203125 63.53125 39.203125 54.390625 
Q 39.203125 45.171875 34.640625 39.84375 
Q 30.078125 34.515625 22.3125 34.515625 
Q 14.546875 34.515625 10.03125 39.859375 
Q 5.515625 45.21875 5.515625 54.390625 
Q 5.515625 63.484375 10.046875 68.84375 
Q 14.59375 74.21875 22.3125 74.21875 
z
" id="DejaVuSans-25"/>
     </defs>
     <g style="fill:#262626;" transform="translate(29.807344 290.414257)rotate(-90)scale(0.11 -0.11)">
      <use xlink:href="#DejaVuSans-44"/>
      <use x="77.001953" xlink:href="#DejaVuSans-75"/>
      <use x="140.380859" xlink:href="#DejaVuSans-74"/>
      <use x="179.589844" xlink:href="#DejaVuSans-79"/>
      <use x="238.769531" xlink:href="#DejaVuSans-20"/>
      <use x="270.556641" xlink:href="#DejaVuSans-63"/>
      <use x="325.537109" xlink:href="#DejaVuSans-79"/>
      <use x="384.716797" xlink:href="#DejaVuSans-63"/>
      <use x="439.697266" xlink:href="#DejaVuSans-6c"/>
      <use x="467.480469" xlink:href="#DejaVuSans-65"/>
      <use x="529.003906" xlink:href="#DejaVuSans-20"/>
      <use x="560.791016" xlink:href="#DejaVuSans-28"/>
      <use x="599.804688" xlink:href="#DejaVuSans-25"/>
      <use x="694.824219" xlink:href="#DejaVuSans-29"/>
     </g>
    </g>
   </g>
   <g id="line2d_45">
    <path clip-path="url(#pf355fe98bd)" d="M 55.82 280.557184 
L 55.94786 216.599812 
L 56.587162 209.769486 
L 57.226464 199.345701 
L 57.610046 199.719194 
L 58.121487 202.366708 
L 58.249348 202.597824 
L 58.505068 201.348204 
L 58.760789 203.019035 
L 58.88865 203.808539 
L 59.01651 203.841921 
L 59.144371 203.364662 
L 59.527952 206.429575 
L 59.655812 205.547242 
L 60.167254 210.197077 
L 60.295114 210.482148 
L 61.062277 219.477678 
L 61.190137 221.05916 
L 61.317997 220.971082 
L 61.701579 226.996973 
L 61.829439 225.633883 
L 62.21302 232.1335 
L 62.340881 230.972123 
L 63.363764 247.095362 
L 64.898089 266.628056 
L 65.793112 275.161342 
L 66.432414 281.577368 
L 66.688134 282.50754 
L 67.199576 285.00089 
L 67.455297 285.52253 
L 67.838878 285.485196 
L 68.35032 285.941456 
L 68.47818 285.741419 
L 69.245342 282.707599 
L 69.756784 280.871302 
L 70.140365 279.989244 
L 70.523947 278.238877 
L 71.291109 274.516631 
L 72.186132 270.553846 
L 73.336875 264.10758 
L 73.592596 261.989549 
L 73.976177 260.558708 
L 74.231898 259.725257 
L 74.74334 257.135752 
L 74.999061 255.651188 
L 75.638363 252.428289 
L 75.766223 251.92693 
L 75.894083 251.9138 
L 76.021944 251.716258 
L 76.149804 251.797634 
L 76.277665 252.15471 
L 76.405525 251.889297 
L 76.661246 252.442261 
L 76.789106 251.752028 
L 76.916967 252.105015 
L 77.044827 250.750331 
L 77.684129 251.742546 
L 77.93985 251.343898 
L 78.06771 251.506572 
L 78.195571 251.431171 
L 78.451292 251.89479 
L 78.579152 252.033123 
L 78.707012 252.353736 
L 78.834873 252.239764 
L 79.090594 252.807185 
L 79.346314 253.601514 
L 80.497058 257.131346 
L 80.624918 257.30684 
L 82.798545 263.966455 
L 84.716451 268.093032 
L 85.867195 269.681578 
L 86.890078 270.297554 
L 88.040822 269.657549 
L 88.807984 268.297503 
L 89.191566 266.78995 
L 89.319426 266.723973 
L 89.830868 265.558861 
L 89.958728 265.6243 
L 90.214449 265.483809 
L 90.342309 265.005916 
L 90.59803 265.082747 
L 90.981611 264.556948 
L 91.493053 263.337745 
L 91.620913 263.281072 
L 92.004494 262.653268 
L 92.132355 262.584437 
L 92.771657 261.228557 
L 92.899517 261.44535 
L 93.027378 261.346558 
L 93.283098 261.491915 
L 93.410959 261.489175 
L 94.178121 260.238407 
L 94.305982 259.816358 
L 94.433842 259.823992 
L 94.689563 258.995432 
L 94.945284 259.251106 
L 95.328865 259.850809 
L 95.456725 259.920975 
L 95.584586 259.808831 
L 95.712446 259.85767 
L 95.968167 259.374508 
L 96.096027 259.3692 
L 96.479609 257.984074 
L 96.735329 258.496312 
L 96.86319 258.795209 
L 97.118911 258.761778 
L 97.246771 258.683068 
L 97.374631 258.89447 
L 97.502492 258.834442 
L 97.630352 258.616185 
L 97.758213 258.638106 
L 98.141794 258.09493 
L 98.397515 258.341211 
L 99.036817 258.968528 
L 99.164677 258.687879 
L 99.292538 258.818073 
L 99.548258 258.247636 
L 99.676119 258.739684 
L 99.803979 258.740215 
L 100.0597 259.42326 
L 100.315421 259.526498 
L 100.443281 259.714651 
L 100.571142 259.430991 
L 101.082583 259.726363 
L 101.338304 259.524777 
L 101.721885 260.027243 
L 101.977606 260.315201 
L 102.105466 260.584548 
L 102.233327 260.459111 
L 102.361187 260.709543 
L 102.489048 260.547858 
L 102.616908 260.783788 
L 102.744768 260.262844 
L 102.872629 260.323784 
L 103.000489 260.608728 
L 103.12835 260.449484 
L 103.38407 260.956535 
L 103.511931 260.892144 
L 103.767652 261.210715 
L 103.895512 261.112902 
L 104.151233 261.421568 
L 104.279093 261.421479 
L 104.534814 261.563533 
L 104.662674 261.501881 
L 105.046256 262.084747 
L 105.174116 261.8185 
L 105.429837 262.175665 
L 105.685558 261.896498 
L 105.813418 262.199724 
L 106.069139 261.727752 
L 106.196999 261.701407 
L 106.32486 261.509176 
L 106.964162 262.325022 
L 107.092022 262.175112 
L 107.603464 262.346601 
L 107.987045 261.995938 
L 108.114905 261.823663 
L 108.370626 260.988933 
L 108.498487 261.153741 
L 108.626347 260.973913 
L 108.882068 261.15958 
L 109.009928 261.13178 
L 109.265649 261.242289 
L 109.904951 260.80605 
L 110.032811 260.584742 
L 110.160672 260.610925 
L 110.288532 260.395681 
L 110.672114 260.987229 
L 110.927834 260.861828 
L 111.055695 261.030521 
L 111.311416 260.687556 
L 111.567136 260.809181 
L 111.694997 260.35176 
L 111.822857 260.376427 
L 111.950718 260.024889 
L 112.078578 260.233569 
L 112.206438 260.214033 
L 112.462159 260.683588 
L 112.71788 260.616084 
L 113.101461 260.48419 
L 113.357182 260.676966 
L 113.740763 259.906179 
L 113.996484 260.045732 
L 114.124344 259.919765 
L 114.252205 260.153074 
L 114.507926 260.198894 
L 114.635786 260.336232 
L 114.763646 260.087061 
L 115.019367 260.568876 
L 115.147228 259.926985 
L 115.658669 260.177387 
L 115.78653 260.524996 
L 116.297971 260.377437 
L 116.553692 260.005653 
L 116.809413 259.870515 
L 116.937273 259.394852 
L 117.065134 259.432576 
L 117.192994 259.347859 
L 117.448715 259.71393 
L 117.704436 259.910197 
L 118.343738 260.147554 
L 118.471598 259.960284 
L 118.727319 259.973381 
L 118.855179 259.535173 
L 119.238761 260.113781 
L 119.366621 260.016425 
L 119.622342 260.417101 
L 119.750202 260.164692 
L 120.261644 260.20308 
L 120.517365 259.858695 
L 120.773085 260.251809 
L 121.028806 260.239396 
L 121.284527 260.325519 
L 121.540248 260.282658 
L 121.795969 260.193651 
L 122.17955 259.854306 
L 122.435271 260.113741 
L 122.563131 259.918855 
L 123.074573 260.444362 
L 123.586014 260.214253 
L 123.713875 259.875241 
L 123.841735 260.082329 
L 124.225316 259.610181 
L 125.2482 259.036152 
L 125.50392 259.359811 
L 125.631781 259.323454 
L 125.887502 259.624359 
L 126.015362 259.474891 
L 126.271083 259.450166 
L 126.398943 259.349894 
L 126.526804 259.416542 
L 126.654664 259.025964 
L 126.782524 259.04311 
L 127.038245 259.299628 
L 127.677547 259.167705 
L 127.933268 258.948354 
L 128.061129 259.072257 
L 128.188989 258.817245 
L 128.316849 258.889026 
L 128.44471 259.171774 
L 128.57257 258.979706 
L 128.700431 259.047293 
L 128.956151 258.982448 
L 129.211872 259.298337 
L 129.467593 259.024836 
L 129.595453 259.124205 
L 129.723314 258.688529 
L 129.979035 259.161711 
L 130.234755 259.43301 
L 130.490476 259.254468 
L 130.746197 259.026067 
L 130.874057 258.859227 
L 131.001918 258.93244 
L 131.257639 258.324986 
L 131.385499 258.563554 
L 131.64122 258.468425 
L 131.896941 258.685422 
L 132.152661 258.874435 
L 132.280522 258.512919 
L 132.408382 258.504594 
L 132.536243 258.622599 
L 132.664103 258.353792 
L 132.791963 258.666029 
L 132.919824 258.422885 
L 133.175545 258.809068 
L 133.303405 258.616679 
L 133.559126 258.743427 
L 133.814847 258.486205 
L 133.942707 258.559151 
L 134.198428 258.37591 
L 134.582009 258.775974 
L 134.70987 259.02867 
L 134.83773 258.869458 
L 135.093451 258.998527 
L 135.221311 258.39471 
L 135.349172 258.557182 
L 135.604892 258.028717 
L 135.988474 258.763088 
L 136.116334 258.683643 
L 136.244194 258.434414 
L 136.499915 258.797087 
L 136.755636 258.524001 
L 137.267078 258.548625 
L 137.522798 258.276541 
L 137.650659 258.075828 
L 137.90638 258.241405 
L 138.1621 257.977312 
L 138.289961 258.179429 
L 138.545682 257.756711 
L 138.673542 258.021976 
L 138.801402 257.989946 
L 139.312844 258.591857 
L 139.440705 258.564093 
L 139.568565 258.367656 
L 139.696425 258.480406 
L 140.207867 258.082676 
L 140.335727 258.272232 
L 140.463588 258.21098 
L 140.847169 258.344221 
L 141.23075 258.011842 
L 141.486471 258.070043 
L 141.614331 258.271798 
L 141.870052 258.209392 
L 142.125773 258.294246 
L 142.253633 258.419255 
L 142.381494 258.324475 
L 142.509354 258.618388 
L 142.637215 258.187364 
L 142.892935 258.655734 
L 143.276517 259.056179 
L 143.404377 258.981951 
L 143.532237 259.10437 
L 143.915819 258.868156 
L 144.171539 258.341051 
L 144.555121 258.757407 
L 144.682981 258.707187 
L 145.194423 259.060886 
L 145.578004 259.097905 
L 145.833725 259.553468 
L 145.961585 259.552121 
L 146.089446 259.700547 
L 146.345166 259.539163 
L 146.728748 259.434573 
L 146.984468 258.859268 
L 147.112329 259.119912 
L 147.36805 259.132826 
L 147.751631 259.740581 
L 147.879491 259.937836 
L 148.007352 259.684706 
L 148.263072 259.752815 
L 148.390933 259.521321 
L 149.030235 260.184513 
L 149.285956 260.557802 
L 149.413816 260.543786 
L 149.541676 260.347328 
L 149.925258 260.304868 
L 150.180978 260.030155 
L 150.56456 260.219987 
L 150.69242 260.135912 
L 150.948141 260.396874 
L 151.587443 260.789671 
L 151.843164 261.280776 
L 151.971024 261.626067 
L 152.098885 261.530606 
L 152.610326 261.903278 
L 153.121768 261.8632 
L 153.249628 261.617902 
L 153.633209 261.721172 
L 153.76107 261.814817 
L 154.016791 262.111203 
L 154.272511 262.294446 
L 154.528232 262.297002 
L 154.783953 261.879982 
L 155.423255 262.755612 
L 155.551115 262.7137 
L 155.806836 262.961742 
L 155.934697 262.990394 
L 156.190417 263.286447 
L 156.446138 263.305539 
L 156.573999 263.168983 
L 156.82972 263.43035 
L 157.08544 263.735069 
L 157.469022 263.969151 
L 157.724742 263.799297 
L 157.980463 263.975979 
L 158.236184 263.747756 
L 158.619765 264.227302 
L 159.003346 264.99141 
L 159.386928 265.334863 
L 159.898369 265.86196 
L 160.15409 265.579366 
L 160.537671 266.145936 
L 160.793392 266.594123 
L 160.921252 266.593322 
L 161.049113 266.448147 
L 161.304834 266.609033 
L 161.560554 266.616268 
L 161.816275 266.910714 
L 162.327717 266.765008 
L 162.583438 267.168484 
L 162.839159 267.624413 
L 163.094879 267.403665 
L 163.22274 267.310491 
L 163.989902 268.092164 
L 164.245623 268.083376 
L 164.501344 268.185059 
L 164.629204 268.108554 
L 164.757065 268.312407 
L 164.884925 268.204466 
L 165.396367 268.751983 
L 165.779948 268.750774 
L 166.035669 268.797898 
L 166.291389 268.637273 
L 166.41925 268.530684 
L 166.54711 268.633178 
L 166.802831 268.524496 
L 166.930691 268.453056 
L 167.186412 268.820322 
L 167.314273 268.745386 
L 167.953575 269.520148 
L 168.081435 269.379259 
L 168.337156 269.015853 
L 168.848598 269.468948 
L 169.104318 269.153479 
L 169.4879 269.571443 
L 169.61576 269.608328 
L 169.74362 269.863915 
L 169.871481 269.867083 
L 169.999341 270.098656 
L 170.127202 269.968525 
L 170.510783 270.323767 
L 170.766504 271.00777 
L 171.022224 270.976495 
L 171.405806 270.71993 
L 171.789387 271.277179 
L 172.300828 271.20764 
L 172.556549 271.358656 
L 172.94013 271.339838 
L 173.579432 272.204068 
L 173.835153 272.408676 
L 174.218735 272.971077 
L 174.474455 272.819471 
L 174.858037 272.640349 
L 175.113757 272.788821 
L 176.264501 273.779561 
L 176.520222 273.680942 
L 176.648082 273.755806 
L 177.287384 274.645173 
L 177.543105 274.517913 
L 177.670965 274.398651 
L 177.926686 274.770119 
L 178.565988 275.75273 
L 178.693849 275.724271 
L 179.333151 275.077823 
L 179.588871 275.225046 
L 179.972453 275.929259 
L 180.356034 276.605947 
L 180.611755 276.716568 
L 180.995336 276.594041 
L 181.123196 276.700229 
L 181.634638 277.665218 
L 181.890359 277.818588 
L 182.14608 277.645979 
L 182.4018 277.835893 
L 182.785382 278.210951 
L 183.041102 278.260498 
L 183.680404 277.88884 
L 184.063986 277.596727 
L 184.447567 277.66399 
L 185.34259 277.74559 
L 186.237613 277.768177 
L 186.876915 277.81764 
L 188.027658 278.280948 
L 189.050541 278.767644 
L 190.329145 279.827231 
L 191.224168 280.747357 
L 192.630633 282.659621 
L 193.781376 284.678714 
L 195.05998 287.3711 
L 196.082864 290.00004 
L 197.617189 294.547503 
L 198.12863 296.094107 
L 198.384351 295.754756 
L 198.512211 295.535136 
L 199.279374 297.069122 
L 199.407234 296.809572 
L 199.662955 297.378801 
L 199.918676 298.048061 
L 200.174397 298.379105 
L 201.069419 300.50452 
L 201.32514 300.76 
L 201.708721 300.485737 
L 202.731605 298.779399 
L 203.243046 298.686594 
L 204.39379 296.240207 
L 204.777371 295.70045 
L 205.416673 294.025902 
L 205.800254 293.377952 
L 206.183836 292.227574 
L 206.567417 291.528071 
L 207.46244 289.929938 
L 207.5903 289.83121 
L 208.101742 288.908037 
L 208.357462 288.657913 
L 208.741044 287.922139 
L 209.124625 287.698156 
L 209.508206 286.988378 
L 210.019648 286.789708 
L 210.403229 286.084603 
L 210.914671 286.264136 
L 211.170391 285.957388 
L 211.426112 285.577693 
L 212.065414 285.975482 
L 212.321135 285.808857 
L 212.704716 285.928951 
L 212.960437 286.219442 
L 213.471879 286.892497 
L 213.85546 287.253282 
L 214.622622 288.78501 
L 215.773366 292.483139 
L 216.156947 294.840651 
L 216.412668 295.151736 
L 216.796249 294.410546 
L 217.307691 295.408952 
L 217.691272 295.065173 
L 218.202714 296.66434 
L 218.586295 297.02263 
L 218.969876 297.691774 
L 219.225597 297.677628 
L 219.737038 297.98798 
L 220.24848 297.811172 
L 220.632061 298.04316 
L 220.887782 297.831873 
L 221.271363 297.836779 
L 221.527084 297.599507 
L 221.782805 297.3061 
L 222.038526 297.113561 
L 222.166386 297.294135 
L 222.294247 297.281913 
L 222.677828 296.956822 
L 222.805688 296.99047 
L 223.061409 296.638762 
L 223.31713 296.649823 
L 223.572851 296.335968 
L 224.212153 295.969244 
L 224.340013 296.00119 
L 224.595734 295.696151 
L 225.235036 295.137003 
L 225.362896 295.166446 
L 225.618617 294.840252 
L 226.897221 293.80786 
L 227.408663 293.540031 
L 228.047965 293.729438 
L 228.175825 293.793974 
L 228.303686 293.691465 
L 228.815127 293.976018 
L 228.942988 293.836401 
L 229.454429 294.301109 
L 229.83801 294.208066 
L 229.965871 294.264426 
L 230.093731 294.127858 
L 230.605173 294.416782 
L 230.733033 294.272909 
L 231.244475 294.599486 
L 231.372335 294.48104 
L 231.883777 294.660243 
L 232.011637 294.573822 
L 232.90666 295.465019 
L 233.162381 295.717386 
L 233.418102 295.896937 
L 233.929543 295.594834 
L 234.185264 295.955849 
L 234.440985 296.212037 
L 235.208147 297.038998 
L 235.463868 296.965685 
L 235.591729 296.605955 
L 235.97531 297.074846 
L 236.10317 296.901421 
L 236.486751 297.181254 
L 236.742472 297.060962 
L 236.870333 297.242875 
L 237.253914 296.983079 
L 237.637495 297.220381 
L 237.765356 297.226353 
L 238.021076 297.531756 
L 238.276797 297.561216 
L 238.660378 297.628973 
L 239.04396 298.021484 
L 239.427541 298.403031 
L 240.066843 298.266885 
L 240.322564 298.010119 
L 240.578284 298.181392 
L 240.706145 298.018427 
L 241.089726 298.157335 
L 241.345447 297.791488 
L 241.601168 297.947819 
L 241.729028 297.764635 
L 241.984749 297.778904 
L 242.36833 297.572097 
L 242.49619 297.665373 
L 242.751911 297.588714 
L 243.007632 297.541975 
L 243.135492 297.34772 
L 243.902655 297.398588 
L 244.030515 297.311626 
L 244.286236 297.029666 
L 244.541957 296.866316 
L 244.797678 296.776795 
L 245.43698 296.592971 
L 245.692701 296.412348 
L 245.948421 296.291803 
L 246.715584 295.404116 
L 247.099165 295.246854 
L 247.354886 295.064291 
L 247.482746 295.138049 
L 247.610607 295.001362 
L 247.866327 295.118619 
L 247.994188 295.305495 
L 248.505629 294.774857 
L 249.272792 294.341948 
L 249.528513 294.287459 
L 249.656373 294.343803 
L 249.912094 294.168476 
L 250.295675 294.134081 
L 250.679256 294.032705 
L 250.807117 293.977921 
L 251.062838 293.639109 
L 252.852883 293.21194 
L 253.108604 293.129674 
L 253.364325 293.228591 
L 253.620046 293.08047 
L 254.003627 292.898061 
L 254.259348 292.668737 
L 254.642929 292.461221 
L 254.770789 292.369537 
L 255.154371 292.457198 
L 255.537952 292.104757 
L 255.921533 292.114023 
L 256.049393 291.932162 
L 256.688695 291.963544 
L 256.944416 291.692761 
L 257.455858 291.698959 
L 258.09516 291.599035 
L 258.350881 291.158909 
L 258.606601 291.14408 
L 258.862322 291.187411 
L 259.118043 290.952088 
L 259.629485 290.928761 
L 259.885205 290.569599 
L 260.140926 290.591766 
L 260.396647 290.690865 
L 260.652368 290.305936 
L 261.16381 290.269746 
L 261.41953 289.688297 
L 261.675251 289.597555 
L 261.930972 289.660007 
L 262.442414 288.982441 
L 262.698134 289.107175 
L 262.825995 289.070115 
L 263.337436 288.455435 
L 263.593157 288.541287 
L 263.848878 288.381368 
L 264.232459 287.881088 
L 264.871761 287.974586 
L 265.255342 287.617939 
L 265.766784 287.981121 
L 266.022505 287.935922 
L 266.533947 287.389512 
L 267.173249 287.722331 
L 267.428969 287.628362 
L 267.812551 287.305317 
L 267.940411 287.389174 
L 268.196132 287.697342 
L 268.451853 287.706721 
L 268.963294 287.156971 
L 269.219015 287.336122 
L 270.241898 286.864544 
L 270.497619 286.726439 
L 270.75334 286.471905 
L 271.136921 286.486183 
L 271.392642 286.640924 
L 271.520502 286.588941 
L 272.287665 285.655764 
L 272.671246 285.537446 
L 273.054827 285.713431 
L 273.438408 285.412102 
L 273.694129 285.248621 
L 274.205571 285.224737 
L 274.972733 284.32636 
L 275.228454 284.287976 
L 275.739896 283.872199 
L 275.995616 283.870906 
L 276.123477 284.015455 
L 276.507058 283.623043 
L 276.890639 283.184256 
L 277.402081 283.061604 
L 278.552825 281.625537 
L 278.808545 281.675522 
L 279.447847 281.967885 
L 280.087149 282.022603 
L 281.237893 281.654211 
L 283.155799 280.879633 
L 284.306543 280.134874 
L 285.329426 279.324675 
L 287.503053 276.98665 
L 290.188121 272.773287 
L 291.083144 271.129754 
L 291.722446 269.815089 
L 293.384631 265.371754 
L 293.640352 264.085185 
L 294.023933 263.555876 
L 294.535375 263.632406 
L 294.918956 262.702575 
L 295.174677 262.910394 
L 295.302538 262.984543 
L 295.430398 262.542778 
L 295.686119 262.61293 
L 295.94184 263.508269 
L 296.325421 263.933747 
L 296.453281 263.794954 
L 297.476164 264.755229 
L 297.731885 265.475593 
L 297.859746 265.453826 
L 298.371187 267.094425 
L 298.882629 267.821115 
L 300.289093 270.727667 
L 300.416954 270.764512 
L 301.695558 273.12718 
L 301.951279 273.558912 
L 302.33486 274.385787 
L 303.485603 275.484028 
L 303.613464 275.510588 
L 304.124905 275.946982 
L 304.508487 275.874889 
L 304.764207 276.119054 
L 305.019928 276.265865 
L 305.275649 276.090366 
L 305.53137 275.918346 
L 306.170672 276.008481 
L 306.554253 275.661443 
L 306.809974 275.188227 
L 307.193555 274.974824 
L 307.449276 274.936307 
L 307.704997 274.569117 
L 307.960718 274.219893 
L 308.216438 274.106839 
L 308.472159 273.139616 
L 308.72788 272.579705 
L 308.85574 272.469686 
L 309.239322 272.759225 
L 309.367182 272.698755 
L 309.878624 272.061901 
L 310.134344 271.988149 
L 310.262205 271.763818 
L 310.517926 270.754668 
L 310.901507 270.326239 
L 311.157228 270.266607 
L 311.285088 270.168091 
L 311.92439 268.941368 
L 312.180111 268.765903 
L 312.435832 268.82883 
L 312.691553 268.542476 
L 312.947273 268.195806 
L 313.202994 268.175196 
L 313.458715 268.215842 
L 313.970157 267.670165 
L 314.098017 267.85606 
L 314.737319 267.10775 
L 314.99304 267.5955 
L 315.248761 267.579883 
L 315.376621 267.415555 
L 315.632342 267.779465 
L 315.760202 267.707493 
L 315.888063 267.76339 
L 316.271644 267.615228 
L 316.527365 267.80737 
L 316.783085 267.680937 
L 317.038806 267.87913 
L 317.294527 267.837056 
L 317.422387 267.975735 
L 317.550248 267.695785 
L 317.933829 268.272185 
L 318.573131 268.874617 
L 319.084573 268.900805 
L 319.212433 269.145863 
L 319.340294 269.097129 
L 319.468154 269.190683 
L 319.596014 268.999771 
L 319.723875 269.046279 
L 320.107456 269.520438 
L 320.363177 269.467398 
L 320.874618 270.171243 
L 321.130339 270.153465 
L 321.641781 270.338914 
L 322.025362 270.173963 
L 322.408943 270.712674 
L 322.536804 270.654318 
L 322.792524 270.274121 
L 323.048245 270.564697 
L 323.559687 270.215205 
L 323.943268 270.699346 
L 324.198989 270.737427 
L 324.45471 270.627217 
L 324.710431 270.932721 
L 325.477593 270.779418 
L 325.861174 270.897886 
L 326.116895 270.414243 
L 326.244755 270.406666 
L 326.500476 270.62874 
L 327.011918 270.501865 
L 327.395499 270.970803 
L 327.65122 270.910059 
L 327.906941 270.915814 
L 328.162661 270.840471 
L 328.290522 270.875668 
L 328.418382 270.770106 
L 328.674103 270.292368 
L 329.313405 270.706287 
L 329.569126 270.612337 
L 329.824847 270.781285 
L 330.080568 271.14967 
L 330.208428 271.079881 
L 330.592009 270.430198 
L 331.103451 270.801552 
L 331.614892 270.461806 
L 331.998474 270.773219 
L 332.254194 270.130132 
L 332.509915 270.020426 
L 332.637776 270.125832 
L 332.893496 270.521245 
L 333.021357 270.458832 
L 333.277078 270.09084 
L 333.532798 270.362672 
L 333.788519 270.666627 
L 334.04424 270.328819 
L 334.1721 269.860591 
L 334.299961 270.001796 
L 334.683542 270.878689 
L 334.939263 270.781655 
L 335.194984 270.666263 
L 335.322844 270.692642 
L 335.706425 271.207073 
L 335.834286 271.110607 
L 336.090007 270.7564 
L 336.601448 271.379182 
L 336.985029 271.320305 
L 337.24075 271.789941 
L 337.496471 272.118893 
L 337.880052 271.947279 
L 338.519354 272.803185 
L 339.030796 272.439722 
L 339.286517 272.829781 
L 339.542237 273.123991 
L 339.797958 273.076423 
L 339.925819 272.960081 
L 340.181539 272.627544 
L 340.565121 273.094137 
L 340.692981 273.008902 
L 341.332283 273.317802 
L 341.588004 273.545875 
L 341.971585 273.517832 
L 342.227306 273.620804 
L 342.610887 274.038813 
L 342.738748 274.098904 
L 343.122329 273.837424 
L 343.37805 273.956834 
L 343.63377 274.062004 
L 343.761631 273.911958 
L 344.145212 274.232032 
L 344.528793 274.523916 
L 344.784514 274.279016 
L 345.040235 274.607547 
L 345.423816 275.174768 
L 345.679537 274.897565 
L 345.935258 274.444411 
L 346.063118 274.398116 
L 346.318839 274.680102 
L 346.83028 275.127807 
L 347.086001 275.127986 
L 347.469583 274.859593 
L 347.981024 275.031218 
L 348.108885 274.706365 
L 348.364605 274.851466 
L 348.876047 275.839018 
L 349.131768 275.989017 
L 349.387489 275.851618 
L 349.77107 275.900333 
L 349.89893 275.670053 
L 350.282511 275.936 
L 350.666093 276.58844 
L 350.921813 276.598536 
L 351.177534 276.606317 
L 351.816836 277.164672 
L 352.456138 277.024421 
L 352.583999 276.876969 
L 353.223301 275.093749 
L 353.351161 275.064648 
L 353.862603 275.850835 
L 354.246184 275.855296 
L 354.501905 276.002566 
L 355.013346 276.413803 
L 356.16409 277.294997 
L 356.419811 277.492894 
L 356.675532 277.477664 
L 357.826275 277.487028 
L 358.337717 277.841848 
L 359.3606 278.528425 
L 360.255623 279.132582 
L 361.789948 280.902265 
L 363.452133 283.357994 
L 364.602877 285.336189 
L 365.62576 287.550364 
L 367.543666 292.389262 
L 368.310828 294.488741 
L 368.82227 294.569011 
L 369.205851 295.261823 
L 370.100874 297.188058 
L 370.484455 298.12286 
L 370.740176 298.36118 
L 371.123757 297.996629 
L 371.379478 298.459736 
L 371.635199 298.321435 
L 371.89092 298.01976 
L 372.01878 297.347609 
L 372.146641 297.276448 
L 372.530222 296.614649 
L 372.785943 296.067267 
L 373.553105 295.521986 
L 374.192407 294.042954 
L 374.448128 293.8956 
L 374.831709 293.415465 
L 374.959569 293.329262 
L 375.343151 292.571668 
L 375.598871 291.963966 
L 376.749615 289.687344 
L 377.005336 289.210872 
L 377.388917 288.723623 
L 377.772498 287.889976 
L 378.15608 287.47687 
L 378.539661 286.599318 
L 378.923242 286.415787 
L 379.178963 285.92885 
L 379.434684 285.313133 
L 379.690404 285.164807 
L 379.946125 285.167038 
L 380.201846 284.76276 
L 380.585427 284.02773 
L 380.841148 284.063313 
L 381.096869 284.080988 
L 381.35259 283.601631 
L 381.736171 283.009426 
L 381.991892 283.126377 
L 382.375473 283.357509 
L 382.759054 283.433581 
L 383.654077 284.092207 
L 383.909798 284.14408 
L 384.165519 284.348574 
L 384.67696 285.146067 
L 386.083425 288.263321 
L 388.384912 294.51569 
L 388.640633 295.480953 
L 388.896354 295.55775 
L 389.279935 295.253227 
L 389.407795 295.199413 
L 389.791376 295.541294 
L 390.174958 296.010221 
L 390.430678 296.458916 
L 390.558539 296.518781 
L 390.94212 296.28156 
L 391.325701 296.621344 
L 391.709282 296.311603 
L 392.476445 294.605525 
L 393.243607 292.41067 
L 394.522211 289.420558 
L 394.905793 288.364463 
L 395.161513 287.84948 
L 395.672955 286.3308 
L 396.056536 285.46752 
L 396.440117 284.264841 
L 396.823699 283.469473 
L 397.846582 280.133583 
L 398.485884 277.154535 
L 398.741605 277.111694 
L 398.869465 277.104614 
L 399.125186 276.817598 
L 399.380907 276.595227 
L 399.636628 276.086348 
L 399.764488 276.034964 
L 400.020209 276.267667 
L 400.40379 276.869507 
L 400.659511 276.894387 
L 401.170952 276.360151 
L 401.554534 276.745861 
L 401.938115 277.180754 
L 402.833138 277.523083 
L 403.344579 277.417647 
L 405.390346 276.799115 
L 406.157508 276.449573 
L 406.924671 276.106399 
L 408.970437 274.580008 
L 409.86546 273.753138 
L 411.016204 272.482612 
L 411.527645 271.930305 
L 413.445551 269.154408 
L 414.084853 267.937021 
L 414.212714 266.373624 
L 414.340574 266.263816 
L 414.596295 266.719927 
L 414.979876 267.794697 
L 415.619178 268.418972 
L 416.25848 267.363784 
L 417.281363 268.729277 
L 417.537084 268.801819 
L 417.664945 268.845127 
L 418.176386 269.467962 
L 418.304247 269.506441 
L 418.687828 270.867443 
L 418.943549 271.433182 
L 419.071409 271.55972 
L 419.710711 273.173007 
L 420.094292 273.503925 
L 420.733594 275.0709 
L 421.117175 275.355652 
L 421.756477 277.153527 
L 423.674384 279.802436 
L 424.697267 280.177555 
L 425.59229 280.638945 
L 425.975871 280.413932 
L 426.231592 280.31565 
L 426.743033 280.253259 
L 427.638056 279.907453 
L 428.660939 279.318271 
L 429.555962 278.710166 
L 430.706706 277.848689 
L 432.496751 276.091586 
L 434.031076 274.201764 
L 435.821122 271.537781 
L 437.227586 269.034928 
L 438.122609 267.127217 
L 438.889772 265.083477 
L 439.145492 265.085548 
L 439.401213 264.927608 
L 439.912655 263.881557 
L 440.168376 262.387544 
L 440.296236 262.424204 
L 440.807678 264.69629 
L 441.191259 266.423366 
L 441.44698 266.900154 
L 442.214142 269.880643 
L 442.597723 271.206798 
L 445.282792 278.250677 
L 445.794234 279.437484 
L 446.433536 281.087699 
L 446.817117 281.89605 
L 447.84 284.579095 
L 447.84 284.579095 
" style="fill:none;stroke:#4c72b0;stroke-linecap:round;stroke-width:1.75;"/>
   </g>
   <g id="patch_8">
    <path d="M 55.82 300.76 
L 55.82 199.345701 
" style="fill:none;"/>
   </g>
   <g id="patch_9">
    <path d="M 447.84 300.76 
L 447.84 199.345701 
" style="fill:none;"/>
   </g>
   <g id="patch_10">
    <path d="M 55.82 300.76 
L 447.84 300.76 
" style="fill:none;"/>
   </g>
   <g id="patch_11">
    <path d="M 55.82 199.345701 
L 447.84 199.345701 
" style="fill:none;"/>
   </g>
   <g id="text_27">
    <!-- u(t), control variable -->
    <g style="fill:#262626;" transform="translate(190.13875 193.345701)scale(0.12 -0.12)">
     <use xlink:href="#DejaVuSans-75"/>
     <use x="63.378906" xlink:href="#DejaVuSans-28"/>
     <use x="102.392578" xlink:href="#DejaVuSans-74"/>
     <use x="141.601562" xlink:href="#DejaVuSans-29"/>
     <use x="180.615234" xlink:href="#DejaVuSans-2c"/>
     <use x="212.402344" xlink:href="#DejaVuSans-20"/>
     <use x="244.189453" xlink:href="#DejaVuSans-63"/>
     <use x="299.169922" xlink:href="#DejaVuSans-6f"/>
     <use x="360.351562" xlink:href="#DejaVuSans-6e"/>
     <use x="423.730469" xlink:href="#DejaVuSans-74"/>
     <use x="462.939453" xlink:href="#DejaVuSans-72"/>
     <use x="504.021484" xlink:href="#DejaVuSans-6f"/>
     <use x="565.203125" xlink:href="#DejaVuSans-6c"/>
     <use x="592.986328" xlink:href="#DejaVuSans-20"/>
     <use x="624.773438" xlink:href="#DejaVuSans-76"/>
     <use x="683.953125" xlink:href="#DejaVuSans-61"/>
     <use x="745.232422" xlink:href="#DejaVuSans-72"/>
     <use x="786.345703" xlink:href="#DejaVuSans-69"/>
     <use x="814.128906" xlink:href="#DejaVuSans-61"/>
     <use x="875.408203" xlink:href="#DejaVuSans-62"/>
     <use x="938.884766" xlink:href="#DejaVuSans-6c"/>
     <use x="966.667969" xlink:href="#DejaVuSans-65"/>
    </g>
   </g>
  </g>
  <g id="text_28">
   <!-- Stable PID controller -->
   <defs>
    <path d="M 19.671875 64.796875 
L 19.671875 37.40625 
L 32.078125 37.40625 
Q 38.96875 37.40625 42.71875 40.96875 
Q 46.484375 44.53125 46.484375 51.125 
Q 46.484375 57.671875 42.71875 61.234375 
Q 38.96875 64.796875 32.078125 64.796875 
z
M 9.8125 72.90625 
L 32.078125 72.90625 
Q 44.34375 72.90625 50.609375 67.359375 
Q 56.890625 61.8125 56.890625 51.125 
Q 56.890625 40.328125 50.609375 34.8125 
Q 44.34375 29.296875 32.078125 29.296875 
L 19.671875 29.296875 
L 19.671875 0 
L 9.8125 0 
z
" id="DejaVuSans-50"/>
    <path d="M 9.8125 72.90625 
L 19.671875 72.90625 
L 19.671875 0 
L 9.8125 0 
z
" id="DejaVuSans-49"/>
   </defs>
   <g style="fill:#262626;" transform="translate(156.50325 17.85375)scale(0.144 -0.144)">
    <use xlink:href="#DejaVuSans-53"/>
    <use x="63.476562" xlink:href="#DejaVuSans-74"/>
    <use x="102.685547" xlink:href="#DejaVuSans-61"/>
    <use x="163.964844" xlink:href="#DejaVuSans-62"/>
    <use x="227.441406" xlink:href="#DejaVuSans-6c"/>
    <use x="255.224609" xlink:href="#DejaVuSans-65"/>
    <use x="316.748047" xlink:href="#DejaVuSans-20"/>
    <use x="348.535156" xlink:href="#DejaVuSans-50"/>
    <use x="408.837891" xlink:href="#DejaVuSans-49"/>
    <use x="438.330078" xlink:href="#DejaVuSans-44"/>
    <use x="515.332031" xlink:href="#DejaVuSans-20"/>
    <use x="547.119141" xlink:href="#DejaVuSans-63"/>
    <use x="602.099609" xlink:href="#DejaVuSans-6f"/>
    <use x="663.28125" xlink:href="#DejaVuSans-6e"/>
    <use x="726.660156" xlink:href="#DejaVuSans-74"/>
    <use x="765.869141" xlink:href="#DejaVuSans-72"/>
    <use x="806.951172" xlink:href="#DejaVuSans-6f"/>
    <use x="868.132812" xlink:href="#DejaVuSans-6c"/>
    <use x="895.916016" xlink:href="#DejaVuSans-6c"/>
    <use x="923.699219" xlink:href="#DejaVuSans-65"/>
    <use x="985.222656" xlink:href="#DejaVuSans-72"/>
   </g>
  </g>
 </g>
 <defs>
  <clipPath id="p7bceb781c6">
   <rect height="101.414299" width="392.02" x="55.82" y="41.472"/>
  </clipPath>
  <clipPath id="pf355fe98bd">
   <rect height="101.414299" width="392.02" x="55.82" y="199.345701"/>
  </clipPath>
 </defs>
</svg>
