<?xml version="1.0" encoding="utf-8" standalone="no"?>
<!DOCTYPE svg PUBLIC "-//W3C//DTD SVG 1.1//EN"
  "http://www.w3.org/Graphics/SVG/1.1/DTD/svg11.dtd">
<!-- Created with matplotlib (http://matplotlib.org/) -->
<svg height="345pt" version="1.1" viewBox="0 0 460 345" width="460pt" xmlns="http://www.w3.org/2000/svg" xmlns:xlink="http://www.w3.org/1999/xlink">
 <defs>
  <style type="text/css">
*{stroke-linecap:butt;stroke-linejoin:round;}
  </style>
 </defs>
 <g id="figure_1">
  <g id="patch_1">
   <path d="M 0 345.6 
L 460.8 345.6 
L 460.8 0 
L 0 0 
z
" style="fill:#ffffff;"/>
  </g>
  <g id="axes_1">
   <g id="patch_2">
    <path d="M 62.12 142.886299 
L 447.84 142.886299 
L 447.84 41.472 
L 62.12 41.472 
z
" style="fill:#eaeaf2;"/>
   </g>
   <g id="matplotlib.axis_1">
    <g id="xtick_1">
     <g id="line2d_1">
      <path clip-path="url(#p1a4d497ecf)" d="M 62.12 142.886299 
L 62.12 41.472 
" style="fill:none;stroke:#ffffff;stroke-linecap:round;"/>
     </g>
     <g id="line2d_2"/>
     <g id="text_1">
      <!-- 0.0 -->
      <defs>
       <path d="M 31.78125 66.40625 
Q 24.171875 66.40625 20.328125 58.90625 
Q 16.5 51.421875 16.5 36.375 
Q 16.5 21.390625 20.328125 13.890625 
Q 24.171875 6.390625 31.78125 6.390625 
Q 39.453125 6.390625 43.28125 13.890625 
Q 47.125 21.390625 47.125 36.375 
Q 47.125 51.421875 43.28125 58.90625 
Q 39.453125 66.40625 31.78125 66.40625 
z
M 31.78125 74.21875 
Q 44.046875 74.21875 50.515625 64.515625 
Q 56.984375 54.828125 56.984375 36.375 
Q 56.984375 17.96875 50.515625 8.265625 
Q 44.046875 -1.421875 31.78125 -1.421875 
Q 19.53125 -1.421875 13.0625 8.265625 
Q 6.59375 17.96875 6.59375 36.375 
Q 6.59375 54.828125 13.0625 64.515625 
Q 19.53125 74.21875 31.78125 74.21875 
z
" id="DejaVuSans-30"/>
       <path d="M 10.6875 12.40625 
L 21 12.40625 
L 21 0 
L 10.6875 0 
z
" id="DejaVuSans-2e"/>
      </defs>
      <g style="fill:#262626;" transform="translate(54.168438 157.484737)scale(0.1 -0.1)">
       <use xlink:href="#DejaVuSans-30"/>
       <use x="63.623047" xlink:href="#DejaVuSans-2e"/>
       <use x="95.410156" xlink:href="#DejaVuSans-30"/>
      </g>
     </g>
    </g>
    <g id="xtick_2">
     <g id="line2d_3">
      <path clip-path="url(#p1a4d497ecf)" d="M 119.033153 142.886299 
L 119.033153 41.472 
" style="fill:none;stroke:#ffffff;stroke-linecap:round;"/>
     </g>
     <g id="line2d_4"/>
     <g id="text_2">
      <!-- 0.2 -->
      <defs>
       <path d="M 19.1875 8.296875 
L 53.609375 8.296875 
L 53.609375 0 
L 7.328125 0 
L 7.328125 8.296875 
Q 12.9375 14.109375 22.625 23.890625 
Q 32.328125 33.6875 34.8125 36.53125 
Q 39.546875 41.84375 41.421875 45.53125 
Q 43.3125 49.21875 43.3125 52.78125 
Q 43.3125 58.59375 39.234375 62.25 
Q 35.15625 65.921875 28.609375 65.921875 
Q 23.96875 65.921875 18.8125 64.3125 
Q 13.671875 62.703125 7.8125 59.421875 
L 7.8125 69.390625 
Q 13.765625 71.78125 18.9375 73 
Q 24.125 74.21875 28.421875 74.21875 
Q 39.75 74.21875 46.484375 68.546875 
Q 53.21875 62.890625 53.21875 53.421875 
Q 53.21875 48.921875 51.53125 44.890625 
Q 49.859375 40.875 45.40625 35.40625 
Q 44.1875 33.984375 37.640625 27.21875 
Q 31.109375 20.453125 19.1875 8.296875 
z
" id="DejaVuSans-32"/>
      </defs>
      <g style="fill:#262626;" transform="translate(111.08159 157.484737)scale(0.1 -0.1)">
       <use xlink:href="#DejaVuSans-30"/>
       <use x="63.623047" xlink:href="#DejaVuSans-2e"/>
       <use x="95.410156" xlink:href="#DejaVuSans-32"/>
      </g>
     </g>
    </g>
    <g id="xtick_3">
     <g id="line2d_5">
      <path clip-path="url(#p1a4d497ecf)" d="M 175.946305 142.886299 
L 175.946305 41.472 
" style="fill:none;stroke:#ffffff;stroke-linecap:round;"/>
     </g>
     <g id="line2d_6"/>
     <g id="text_3">
      <!-- 0.4 -->
      <defs>
       <path d="M 37.796875 64.3125 
L 12.890625 25.390625 
L 37.796875 25.390625 
z
M 35.203125 72.90625 
L 47.609375 72.90625 
L 47.609375 25.390625 
L 58.015625 25.390625 
L 58.015625 17.1875 
L 47.609375 17.1875 
L 47.609375 0 
L 37.796875 0 
L 37.796875 17.1875 
L 4.890625 17.1875 
L 4.890625 26.703125 
z
" id="DejaVuSans-34"/>
      </defs>
      <g style="fill:#262626;" transform="translate(167.994743 157.484737)scale(0.1 -0.1)">
       <use xlink:href="#DejaVuSans-30"/>
       <use x="63.623047" xlink:href="#DejaVuSans-2e"/>
       <use x="95.410156" xlink:href="#DejaVuSans-34"/>
      </g>
     </g>
    </g>
    <g id="xtick_4">
     <g id="line2d_7">
      <path clip-path="url(#p1a4d497ecf)" d="M 232.859458 142.886299 
L 232.859458 41.472 
" style="fill:none;stroke:#ffffff;stroke-linecap:round;"/>
     </g>
     <g id="line2d_8"/>
     <g id="text_4">
      <!-- 0.6 -->
      <defs>
       <path d="M 33.015625 40.375 
Q 26.375 40.375 22.484375 35.828125 
Q 18.609375 31.296875 18.609375 23.390625 
Q 18.609375 15.53125 22.484375 10.953125 
Q 26.375 6.390625 33.015625 6.390625 
Q 39.65625 6.390625 43.53125 10.953125 
Q 47.40625 15.53125 47.40625 23.390625 
Q 47.40625 31.296875 43.53125 35.828125 
Q 39.65625 40.375 33.015625 40.375 
z
M 52.59375 71.296875 
L 52.59375 62.3125 
Q 48.875 64.0625 45.09375 64.984375 
Q 41.3125 65.921875 37.59375 65.921875 
Q 27.828125 65.921875 22.671875 59.328125 
Q 17.53125 52.734375 16.796875 39.40625 
Q 19.671875 43.65625 24.015625 45.921875 
Q 28.375 48.1875 33.59375 48.1875 
Q 44.578125 48.1875 50.953125 41.515625 
Q 57.328125 34.859375 57.328125 23.390625 
Q 57.328125 12.15625 50.6875 5.359375 
Q 44.046875 -1.421875 33.015625 -1.421875 
Q 20.359375 -1.421875 13.671875 8.265625 
Q 6.984375 17.96875 6.984375 36.375 
Q 6.984375 53.65625 15.1875 63.9375 
Q 23.390625 74.21875 37.203125 74.21875 
Q 40.921875 74.21875 44.703125 73.484375 
Q 48.484375 72.75 52.59375 71.296875 
z
" id="DejaVuSans-36"/>
      </defs>
      <g style="fill:#262626;" transform="translate(224.907896 157.484737)scale(0.1 -0.1)">
       <use xlink:href="#DejaVuSans-30"/>
       <use x="63.623047" xlink:href="#DejaVuSans-2e"/>
       <use x="95.410156" xlink:href="#DejaVuSans-36"/>
      </g>
     </g>
    </g>
    <g id="xtick_5">
     <g id="line2d_9">
      <path clip-path="url(#p1a4d497ecf)" d="M 289.772611 142.886299 
L 289.772611 41.472 
" style="fill:none;stroke:#ffffff;stroke-linecap:round;"/>
     </g>
     <g id="line2d_10"/>
     <g id="text_5">
      <!-- 0.8 -->
      <defs>
       <path d="M 31.78125 34.625 
Q 24.75 34.625 20.71875 30.859375 
Q 16.703125 27.09375 16.703125 20.515625 
Q 16.703125 13.921875 20.71875 10.15625 
Q 24.75 6.390625 31.78125 6.390625 
Q 38.8125 6.390625 42.859375 10.171875 
Q 46.921875 13.96875 46.921875 20.515625 
Q 46.921875 27.09375 42.890625 30.859375 
Q 38.875 34.625 31.78125 34.625 
z
M 21.921875 38.8125 
Q 15.578125 40.375 12.03125 44.71875 
Q 8.5 49.078125 8.5 55.328125 
Q 8.5 64.0625 14.71875 69.140625 
Q 20.953125 74.21875 31.78125 74.21875 
Q 42.671875 74.21875 48.875 69.140625 
Q 55.078125 64.0625 55.078125 55.328125 
Q 55.078125 49.078125 51.53125 44.71875 
Q 48 40.375 41.703125 38.8125 
Q 48.828125 37.15625 52.796875 32.3125 
Q 56.78125 27.484375 56.78125 20.515625 
Q 56.78125 9.90625 50.3125 4.234375 
Q 43.84375 -1.421875 31.78125 -1.421875 
Q 19.734375 -1.421875 13.25 4.234375 
Q 6.78125 9.90625 6.78125 20.515625 
Q 6.78125 27.484375 10.78125 32.3125 
Q 14.796875 37.15625 21.921875 38.8125 
z
M 18.3125 54.390625 
Q 18.3125 48.734375 21.84375 45.5625 
Q 25.390625 42.390625 31.78125 42.390625 
Q 38.140625 42.390625 41.71875 45.5625 
Q 45.3125 48.734375 45.3125 54.390625 
Q 45.3125 60.0625 41.71875 63.234375 
Q 38.140625 66.40625 31.78125 66.40625 
Q 25.390625 66.40625 21.84375 63.234375 
Q 18.3125 60.0625 18.3125 54.390625 
z
" id="DejaVuSans-38"/>
      </defs>
      <g style="fill:#262626;" transform="translate(281.821048 157.484737)scale(0.1 -0.1)">
       <use xlink:href="#DejaVuSans-30"/>
       <use x="63.623047" xlink:href="#DejaVuSans-2e"/>
       <use x="95.410156" xlink:href="#DejaVuSans-38"/>
      </g>
     </g>
    </g>
    <g id="xtick_6">
     <g id="line2d_11">
      <path clip-path="url(#p1a4d497ecf)" d="M 346.685764 142.886299 
L 346.685764 41.472 
" style="fill:none;stroke:#ffffff;stroke-linecap:round;"/>
     </g>
     <g id="line2d_12"/>
     <g id="text_6">
      <!-- 1.0 -->
      <defs>
       <path d="M 12.40625 8.296875 
L 28.515625 8.296875 
L 28.515625 63.921875 
L 10.984375 60.40625 
L 10.984375 69.390625 
L 28.421875 72.90625 
L 38.28125 72.90625 
L 38.28125 8.296875 
L 54.390625 8.296875 
L 54.390625 0 
L 12.40625 0 
z
" id="DejaVuSans-31"/>
      </defs>
      <g style="fill:#262626;" transform="translate(338.734201 157.484737)scale(0.1 -0.1)">
       <use xlink:href="#DejaVuSans-31"/>
       <use x="63.623047" xlink:href="#DejaVuSans-2e"/>
       <use x="95.410156" xlink:href="#DejaVuSans-30"/>
      </g>
     </g>
    </g>
    <g id="xtick_7">
     <g id="line2d_13">
      <path clip-path="url(#p1a4d497ecf)" d="M 403.598916 142.886299 
L 403.598916 41.472 
" style="fill:none;stroke:#ffffff;stroke-linecap:round;"/>
     </g>
     <g id="line2d_14"/>
     <g id="text_7">
      <!-- 1.2 -->
      <g style="fill:#262626;" transform="translate(395.647354 157.484737)scale(0.1 -0.1)">
       <use xlink:href="#DejaVuSans-31"/>
       <use x="63.623047" xlink:href="#DejaVuSans-2e"/>
       <use x="95.410156" xlink:href="#DejaVuSans-32"/>
      </g>
     </g>
    </g>
    <g id="text_8">
     <!-- Time (seconds) -->
     <defs>
      <path d="M -0.296875 72.90625 
L 61.375 72.90625 
L 61.375 64.59375 
L 35.5 64.59375 
L 35.5 0 
L 25.59375 0 
L 25.59375 64.59375 
L -0.296875 64.59375 
z
" id="DejaVuSans-54"/>
      <path d="M 9.421875 54.6875 
L 18.40625 54.6875 
L 18.40625 0 
L 9.421875 0 
z
M 9.421875 75.984375 
L 18.40625 75.984375 
L 18.40625 64.59375 
L 9.421875 64.59375 
z
" id="DejaVuSans-69"/>
      <path d="M 52 44.1875 
Q 55.375 50.25 60.0625 53.125 
Q 64.75 56 71.09375 56 
Q 79.640625 56 84.28125 50.015625 
Q 88.921875 44.046875 88.921875 33.015625 
L 88.921875 0 
L 79.890625 0 
L 79.890625 32.71875 
Q 79.890625 40.578125 77.09375 44.375 
Q 74.3125 48.1875 68.609375 48.1875 
Q 61.625 48.1875 57.5625 43.546875 
Q 53.515625 38.921875 53.515625 30.90625 
L 53.515625 0 
L 44.484375 0 
L 44.484375 32.71875 
Q 44.484375 40.625 41.703125 44.40625 
Q 38.921875 48.1875 33.109375 48.1875 
Q 26.21875 48.1875 22.15625 43.53125 
Q 18.109375 38.875 18.109375 30.90625 
L 18.109375 0 
L 9.078125 0 
L 9.078125 54.6875 
L 18.109375 54.6875 
L 18.109375 46.1875 
Q 21.1875 51.21875 25.484375 53.609375 
Q 29.78125 56 35.6875 56 
Q 41.65625 56 45.828125 52.96875 
Q 50 49.953125 52 44.1875 
z
" id="DejaVuSans-6d"/>
      <path d="M 56.203125 29.59375 
L 56.203125 25.203125 
L 14.890625 25.203125 
Q 15.484375 15.921875 20.484375 11.0625 
Q 25.484375 6.203125 34.421875 6.203125 
Q 39.59375 6.203125 44.453125 7.46875 
Q 49.3125 8.734375 54.109375 11.28125 
L 54.109375 2.78125 
Q 49.265625 0.734375 44.1875 -0.34375 
Q 39.109375 -1.421875 33.890625 -1.421875 
Q 20.796875 -1.421875 13.15625 6.1875 
Q 5.515625 13.8125 5.515625 26.8125 
Q 5.515625 40.234375 12.765625 48.109375 
Q 20.015625 56 32.328125 56 
Q 43.359375 56 49.78125 48.890625 
Q 56.203125 41.796875 56.203125 29.59375 
z
M 47.21875 32.234375 
Q 47.125 39.59375 43.09375 43.984375 
Q 39.0625 48.390625 32.421875 48.390625 
Q 24.90625 48.390625 20.390625 44.140625 
Q 15.875 39.890625 15.1875 32.171875 
z
" id="DejaVuSans-65"/>
      <path id="DejaVuSans-20"/>
      <path d="M 31 75.875 
Q 24.46875 64.65625 21.28125 53.65625 
Q 18.109375 42.671875 18.109375 31.390625 
Q 18.109375 20.125 21.3125 9.0625 
Q 24.515625 -2 31 -13.1875 
L 23.1875 -13.1875 
Q 15.875 -1.703125 12.234375 9.375 
Q 8.59375 20.453125 8.59375 31.390625 
Q 8.59375 42.28125 12.203125 53.3125 
Q 15.828125 64.359375 23.1875 75.875 
z
" id="DejaVuSans-28"/>
      <path d="M 44.28125 53.078125 
L 44.28125 44.578125 
Q 40.484375 46.53125 36.375 47.5 
Q 32.28125 48.484375 27.875 48.484375 
Q 21.1875 48.484375 17.84375 46.4375 
Q 14.5 44.390625 14.5 40.28125 
Q 14.5 37.15625 16.890625 35.375 
Q 19.28125 33.59375 26.515625 31.984375 
L 29.59375 31.296875 
Q 39.15625 29.25 43.1875 25.515625 
Q 47.21875 21.78125 47.21875 15.09375 
Q 47.21875 7.46875 41.1875 3.015625 
Q 35.15625 -1.421875 24.609375 -1.421875 
Q 20.21875 -1.421875 15.453125 -0.5625 
Q 10.6875 0.296875 5.421875 2 
L 5.421875 11.28125 
Q 10.40625 8.6875 15.234375 7.390625 
Q 20.0625 6.109375 24.8125 6.109375 
Q 31.15625 6.109375 34.5625 8.28125 
Q 37.984375 10.453125 37.984375 14.40625 
Q 37.984375 18.0625 35.515625 20.015625 
Q 33.0625 21.96875 24.703125 23.78125 
L 21.578125 24.515625 
Q 13.234375 26.265625 9.515625 29.90625 
Q 5.8125 33.546875 5.8125 39.890625 
Q 5.8125 47.609375 11.28125 51.796875 
Q 16.75 56 26.8125 56 
Q 31.78125 56 36.171875 55.265625 
Q 40.578125 54.546875 44.28125 53.078125 
z
" id="DejaVuSans-73"/>
      <path d="M 48.78125 52.59375 
L 48.78125 44.1875 
Q 44.96875 46.296875 41.140625 47.34375 
Q 37.3125 48.390625 33.40625 48.390625 
Q 24.65625 48.390625 19.8125 42.84375 
Q 14.984375 37.3125 14.984375 27.296875 
Q 14.984375 17.28125 19.8125 11.734375 
Q 24.65625 6.203125 33.40625 6.203125 
Q 37.3125 6.203125 41.140625 7.25 
Q 44.96875 8.296875 48.78125 10.40625 
L 48.78125 2.09375 
Q 45.015625 0.34375 40.984375 -0.53125 
Q 36.96875 -1.421875 32.421875 -1.421875 
Q 20.0625 -1.421875 12.78125 6.34375 
Q 5.515625 14.109375 5.515625 27.296875 
Q 5.515625 40.671875 12.859375 48.328125 
Q 20.21875 56 33.015625 56 
Q 37.15625 56 41.109375 55.140625 
Q 45.0625 54.296875 48.78125 52.59375 
z
" id="DejaVuSans-63"/>
      <path d="M 30.609375 48.390625 
Q 23.390625 48.390625 19.1875 42.75 
Q 14.984375 37.109375 14.984375 27.296875 
Q 14.984375 17.484375 19.15625 11.84375 
Q 23.34375 6.203125 30.609375 6.203125 
Q 37.796875 6.203125 41.984375 11.859375 
Q 46.1875 17.53125 46.1875 27.296875 
Q 46.1875 37.015625 41.984375 42.703125 
Q 37.796875 48.390625 30.609375 48.390625 
z
M 30.609375 56 
Q 42.328125 56 49.015625 48.375 
Q 55.71875 40.765625 55.71875 27.296875 
Q 55.71875 13.875 49.015625 6.21875 
Q 42.328125 -1.421875 30.609375 -1.421875 
Q 18.84375 -1.421875 12.171875 6.21875 
Q 5.515625 13.875 5.515625 27.296875 
Q 5.515625 40.765625 12.171875 48.375 
Q 18.84375 56 30.609375 56 
z
" id="DejaVuSans-6f"/>
      <path d="M 54.890625 33.015625 
L 54.890625 0 
L 45.90625 0 
L 45.90625 32.71875 
Q 45.90625 40.484375 42.875 44.328125 
Q 39.84375 48.1875 33.796875 48.1875 
Q 26.515625 48.1875 22.3125 43.546875 
Q 18.109375 38.921875 18.109375 30.90625 
L 18.109375 0 
L 9.078125 0 
L 9.078125 54.6875 
L 18.109375 54.6875 
L 18.109375 46.1875 
Q 21.34375 51.125 25.703125 53.5625 
Q 30.078125 56 35.796875 56 
Q 45.21875 56 50.046875 50.171875 
Q 54.890625 44.34375 54.890625 33.015625 
z
" id="DejaVuSans-6e"/>
      <path d="M 45.40625 46.390625 
L 45.40625 75.984375 
L 54.390625 75.984375 
L 54.390625 0 
L 45.40625 0 
L 45.40625 8.203125 
Q 42.578125 3.328125 38.25 0.953125 
Q 33.9375 -1.421875 27.875 -1.421875 
Q 17.96875 -1.421875 11.734375 6.484375 
Q 5.515625 14.40625 5.515625 27.296875 
Q 5.515625 40.1875 11.734375 48.09375 
Q 17.96875 56 27.875 56 
Q 33.9375 56 38.25 53.625 
Q 42.578125 51.265625 45.40625 46.390625 
z
M 14.796875 27.296875 
Q 14.796875 17.390625 18.875 11.75 
Q 22.953125 6.109375 30.078125 6.109375 
Q 37.203125 6.109375 41.296875 11.75 
Q 45.40625 17.390625 45.40625 27.296875 
Q 45.40625 37.203125 41.296875 42.84375 
Q 37.203125 48.484375 30.078125 48.484375 
Q 22.953125 48.484375 18.875 42.84375 
Q 14.796875 37.203125 14.796875 27.296875 
z
" id="DejaVuSans-64"/>
      <path d="M 8.015625 75.875 
L 15.828125 75.875 
Q 23.140625 64.359375 26.78125 53.3125 
Q 30.421875 42.28125 30.421875 31.390625 
Q 30.421875 20.453125 26.78125 9.375 
Q 23.140625 -1.703125 15.828125 -13.1875 
L 8.015625 -13.1875 
Q 14.5 -2 17.703125 9.0625 
Q 20.90625 20.125 20.90625 31.390625 
Q 20.90625 42.671875 17.703125 53.65625 
Q 14.5 64.65625 8.015625 75.875 
z
" id="DejaVuSans-29"/>
     </defs>
     <g style="fill:#262626;" transform="translate(212.832813 171.922705)scale(0.11 -0.11)">
      <use xlink:href="#DejaVuSans-54"/>
      <use x="61.037109" xlink:href="#DejaVuSans-69"/>
      <use x="88.820312" xlink:href="#DejaVuSans-6d"/>
      <use x="186.232422" xlink:href="#DejaVuSans-65"/>
      <use x="247.755859" xlink:href="#DejaVuSans-20"/>
      <use x="279.542969" xlink:href="#DejaVuSans-28"/>
      <use x="318.556641" xlink:href="#DejaVuSans-73"/>
      <use x="370.65625" xlink:href="#DejaVuSans-65"/>
      <use x="432.179688" xlink:href="#DejaVuSans-63"/>
      <use x="487.160156" xlink:href="#DejaVuSans-6f"/>
      <use x="548.341797" xlink:href="#DejaVuSans-6e"/>
      <use x="611.720703" xlink:href="#DejaVuSans-64"/>
      <use x="675.197266" xlink:href="#DejaVuSans-73"/>
      <use x="727.296875" xlink:href="#DejaVuSans-29"/>
     </g>
    </g>
   </g>
   <g id="matplotlib.axis_2">
    <g id="ytick_1">
     <g id="line2d_15">
      <path clip-path="url(#p1a4d497ecf)" d="M 62.12 118.276905 
L 447.84 118.276905 
" style="fill:none;stroke:#ffffff;stroke-linecap:round;"/>
     </g>
     <g id="line2d_16"/>
     <g id="text_9">
      <!-- 0 -->
      <g style="fill:#262626;" transform="translate(48.7575 122.076124)scale(0.1 -0.1)">
       <use xlink:href="#DejaVuSans-30"/>
      </g>
     </g>
    </g>
    <g id="ytick_2">
     <g id="line2d_17">
      <path clip-path="url(#p1a4d497ecf)" d="M 62.12 90.782069 
L 447.84 90.782069 
" style="fill:none;stroke:#ffffff;stroke-linecap:round;"/>
     </g>
     <g id="line2d_18"/>
     <g id="text_10">
      <!-- 10 -->
      <g style="fill:#262626;" transform="translate(42.395 94.581287)scale(0.1 -0.1)">
       <use xlink:href="#DejaVuSans-31"/>
       <use x="63.623047" xlink:href="#DejaVuSans-30"/>
      </g>
     </g>
    </g>
    <g id="ytick_3">
     <g id="line2d_19">
      <path clip-path="url(#p1a4d497ecf)" d="M 62.12 63.287232 
L 447.84 63.287232 
" style="fill:none;stroke:#ffffff;stroke-linecap:round;"/>
     </g>
     <g id="line2d_20"/>
     <g id="text_11">
      <!-- 20 -->
      <g style="fill:#262626;" transform="translate(42.395 67.086451)scale(0.1 -0.1)">
       <use xlink:href="#DejaVuSans-32"/>
       <use x="63.623047" xlink:href="#DejaVuSans-30"/>
      </g>
     </g>
    </g>
    <g id="text_12">
     <!-- Tilt (degrees) -->
     <defs>
      <path d="M 9.421875 75.984375 
L 18.40625 75.984375 
L 18.40625 0 
L 9.421875 0 
z
" id="DejaVuSans-6c"/>
      <path d="M 18.3125 70.21875 
L 18.3125 54.6875 
L 36.8125 54.6875 
L 36.8125 47.703125 
L 18.3125 47.703125 
L 18.3125 18.015625 
Q 18.3125 11.328125 20.140625 9.421875 
Q 21.96875 7.515625 27.59375 7.515625 
L 36.8125 7.515625 
L 36.8125 0 
L 27.59375 0 
Q 17.1875 0 13.234375 3.875 
Q 9.28125 7.765625 9.28125 18.015625 
L 9.28125 47.703125 
L 2.6875 47.703125 
L 2.6875 54.6875 
L 9.28125 54.6875 
L 9.28125 70.21875 
z
" id="DejaVuSans-74"/>
      <path d="M 45.40625 27.984375 
Q 45.40625 37.75 41.375 43.109375 
Q 37.359375 48.484375 30.078125 48.484375 
Q 22.859375 48.484375 18.828125 43.109375 
Q 14.796875 37.75 14.796875 27.984375 
Q 14.796875 18.265625 18.828125 12.890625 
Q 22.859375 7.515625 30.078125 7.515625 
Q 37.359375 7.515625 41.375 12.890625 
Q 45.40625 18.265625 45.40625 27.984375 
z
M 54.390625 6.78125 
Q 54.390625 -7.171875 48.1875 -13.984375 
Q 42 -20.796875 29.203125 -20.796875 
Q 24.46875 -20.796875 20.265625 -20.09375 
Q 16.0625 -19.390625 12.109375 -17.921875 
L 12.109375 -9.1875 
Q 16.0625 -11.328125 19.921875 -12.34375 
Q 23.78125 -13.375 27.78125 -13.375 
Q 36.625 -13.375 41.015625 -8.765625 
Q 45.40625 -4.15625 45.40625 5.171875 
L 45.40625 9.625 
Q 42.625 4.78125 38.28125 2.390625 
Q 33.9375 0 27.875 0 
Q 17.828125 0 11.671875 7.65625 
Q 5.515625 15.328125 5.515625 27.984375 
Q 5.515625 40.671875 11.671875 48.328125 
Q 17.828125 56 27.875 56 
Q 33.9375 56 38.28125 53.609375 
Q 42.625 51.21875 45.40625 46.390625 
L 45.40625 54.6875 
L 54.390625 54.6875 
z
" id="DejaVuSans-67"/>
      <path d="M 41.109375 46.296875 
Q 39.59375 47.171875 37.8125 47.578125 
Q 36.03125 48 33.890625 48 
Q 26.265625 48 22.1875 43.046875 
Q 18.109375 38.09375 18.109375 28.8125 
L 18.109375 0 
L 9.078125 0 
L 9.078125 54.6875 
L 18.109375 54.6875 
L 18.109375 46.1875 
Q 20.953125 51.171875 25.484375 53.578125 
Q 30.03125 56 36.53125 56 
Q 37.453125 56 38.578125 55.875 
Q 39.703125 55.765625 41.0625 55.515625 
z
" id="DejaVuSans-72"/>
     </defs>
     <g style="fill:#262626;" transform="translate(36.107344 129.048056)rotate(-90)scale(0.11 -0.11)">
      <use xlink:href="#DejaVuSans-54"/>
      <use x="61.037109" xlink:href="#DejaVuSans-69"/>
      <use x="88.820312" xlink:href="#DejaVuSans-6c"/>
      <use x="116.603516" xlink:href="#DejaVuSans-74"/>
      <use x="155.8125" xlink:href="#DejaVuSans-20"/>
      <use x="187.599609" xlink:href="#DejaVuSans-28"/>
      <use x="226.613281" xlink:href="#DejaVuSans-64"/>
      <use x="290.089844" xlink:href="#DejaVuSans-65"/>
      <use x="351.613281" xlink:href="#DejaVuSans-67"/>
      <use x="415.089844" xlink:href="#DejaVuSans-72"/>
      <use x="456.171875" xlink:href="#DejaVuSans-65"/>
      <use x="517.695312" xlink:href="#DejaVuSans-65"/>
      <use x="579.21875" xlink:href="#DejaVuSans-73"/>
      <use x="631.318359" xlink:href="#DejaVuSans-29"/>
     </g>
    </g>
   </g>
   <g id="line2d_21">
    <path clip-path="url(#p1a4d497ecf)" d="M 62.12 135.56695 
L 63.231585 135.424265 
L 63.787378 134.63335 
L 64.34317 134.166207 
L 64.898963 136.553437 
L 65.454755 137.127271 
L 66.010548 137.449922 
L 66.56634 138.776527 
L 67.122133 138.489668 
L 67.677925 140.336862 
L 68.233718 140.138927 
L 68.78951 141.388918 
L 69.901095 141.657354 
L 70.456888 142.886299 
L 71.01268 140.58527 
L 71.568473 140.245196 
L 72.124265 139.698398 
L 72.680058 139.686987 
L 73.791643 134.1104 
L 74.347435 132.166483 
L 74.903228 133.659202 
L 76.014813 127.839313 
L 76.570605 128.962746 
L 77.126398 131.089742 
L 78.237983 125.395141 
L 78.793775 127.615727 
L 79.90536 122.30663 
L 81.016945 117.513467 
L 82.684323 107.79436 
L 83.240115 105.424408 
L 83.795908 100.991934 
L 84.3517 98.540697 
L 84.907493 96.949105 
L 88.242248 81.912922 
L 90.465418 73.359656 
L 92.132795 67.764478 
L 92.688588 66.658822 
L 93.800173 65.145806 
L 94.355965 64.563991 
L 94.911758 64.311151 
L 95.46755 64.284012 
L 96.023343 64.594528 
L 97.134928 66.15803 
L 99.358098 70.280929 
L 101.581268 75.131136 
L 102.137061 76.892702 
L 103.248646 78.579305 
L 104.360231 80.059361 
L 105.471816 81.890841 
L 106.027608 83.368739 
L 108.250778 86.633127 
L 110.473948 89.465102 
L 111.029741 90.354649 
L 111.585533 91.891668 
L 112.141326 94.27807 
L 113.808703 106.364109 
L 114.364496 107.728383 
L 114.920288 109.697411 
L 115.476081 113.913197 
L 116.031873 116.690195 
L 117.143458 123.52413 
L 117.699251 126.645375 
L 118.810836 131.081901 
L 119.366628 131.452388 
L 119.922421 132.918835 
L 120.478213 133.334239 
L 121.034006 133.040151 
L 121.589798 133.699359 
L 122.145591 132.847601 
L 122.701383 133.872838 
L 123.257176 133.102131 
L 123.812968 131.887647 
L 124.924553 130.463384 
L 125.480346 131.472901 
L 126.036138 132.820593 
L 126.591931 130.67551 
L 127.703516 130.117162 
L 128.259308 131.555066 
L 129.370893 126.614199 
L 130.482478 128.096624 
L 131.038271 125.915582 
L 131.594063 124.722941 
L 132.149856 125.66855 
L 133.261441 120.914098 
L 133.817233 123.921794 
L 134.373026 121.555486 
L 134.928818 121.40303 
L 135.484611 119.696162 
L 136.040403 117.128941 
L 136.596196 120.611054 
L 137.707781 116.478974 
L 138.263573 110.358734 
L 139.930951 101.632482 
L 140.486744 99.530031 
L 141.042536 94.930229 
L 141.598329 92.292783 
L 142.154121 90.842794 
L 143.265706 84.660337 
L 144.933084 78.175841 
L 145.488876 76.723728 
L 146.044669 74.610277 
L 146.600461 73.107791 
L 149.379424 63.680801 
L 149.935216 62.007122 
L 151.046801 59.799267 
L 152.158386 58.469594 
L 153.269971 57.862769 
L 153.825764 57.997042 
L 154.381556 58.278699 
L 154.937349 58.787258 
L 157.160519 62.727395 
L 158.827896 65.01136 
L 159.383689 66.09383 
L 159.939481 66.901184 
L 161.606859 70.108892 
L 162.162651 71.09736 
L 162.718444 72.450596 
L 163.274236 73.322081 
L 164.941614 75.280743 
L 165.497406 76.134867 
L 166.608991 77.425494 
L 167.164784 78.468476 
L 168.276369 79.542037 
L 168.832161 79.725632 
L 169.943746 80.606378 
L 170.499539 81.091999 
L 172.722709 83.687439 
L 173.834294 85.871123 
L 174.390086 88.7376 
L 174.945879 93.43692 
L 176.613256 100.401634 
L 177.169049 101.515069 
L 177.724841 105.313064 
L 178.280634 107.891993 
L 178.836427 112.01695 
L 180.503804 121.084225 
L 181.059597 123.291771 
L 182.726974 128.029478 
L 183.282767 129.164846 
L 183.838559 129.724657 
L 184.394352 130.575756 
L 184.950144 130.231239 
L 186.061729 129.1458 
L 186.617522 130.022487 
L 187.173314 128.860693 
L 187.729107 128.738588 
L 188.284899 129.011522 
L 188.840692 128.030416 
L 189.396484 126.008188 
L 189.952277 124.939656 
L 190.508069 124.447619 
L 191.063862 126.282135 
L 191.619654 124.269445 
L 192.175447 126.075275 
L 192.731239 125.123856 
L 193.287032 127.047818 
L 193.842824 124.668042 
L 194.398617 123.545291 
L 194.954409 125.332639 
L 196.065994 120.348685 
L 196.621787 122.176947 
L 197.733372 118.365723 
L 198.289164 121.068611 
L 199.400749 115.424692 
L 199.956542 118.703785 
L 200.512334 116.331169 
L 201.068127 110.17433 
L 201.623919 106.609165 
L 202.179712 104.336649 
L 202.735504 101.484119 
L 203.291297 97.108745 
L 203.847089 95.869477 
L 204.958674 91.584002 
L 205.514467 86.927653 
L 206.070259 83.820406 
L 207.737637 77.198564 
L 208.849222 73.653112 
L 209.405014 71.462689 
L 210.516599 68.055569 
L 212.183977 62.577274 
L 213.295562 59.838976 
L 214.407147 58.427567 
L 214.962939 58.175923 
L 215.518732 58.249017 
L 216.074524 58.662104 
L 216.630317 59.278306 
L 217.741902 61.086761 
L 222.744035 70.129974 
L 223.299827 70.771447 
L 223.85562 71.600093 
L 224.411412 72.790405 
L 225.522997 73.69752 
L 226.07879 74.216294 
L 226.634582 74.946652 
L 227.190375 75.136658 
L 228.30196 75.799748 
L 229.413545 77.473634 
L 231.080922 80.126508 
L 231.636715 81.073487 
L 232.7483 82.205256 
L 233.859885 83.182171 
L 234.97147 84.450966 
L 236.083055 86.18092 
L 236.638847 87.501883 
L 237.19464 89.54702 
L 238.306225 96.059599 
L 238.862017 100.589716 
L 239.973602 105.293148 
L 240.529395 107.613674 
L 241.085187 108.965879 
L 241.64098 111.965232 
L 242.196772 114.157557 
L 242.752565 117.916637 
L 243.86415 122.712812 
L 244.419942 124.80532 
L 245.531527 127.095895 
L 246.08732 127.628339 
L 246.643112 128.324506 
L 247.754697 129.004601 
L 248.31049 127.959805 
L 248.866282 127.384916 
L 249.422075 126.587058 
L 249.977867 125.023344 
L 250.53366 125.261466 
L 251.645245 123.481872 
L 252.201037 121.164631 
L 252.75683 123.487575 
L 253.312622 124.166233 
L 253.868415 125.39933 
L 254.424207 123.117364 
L 254.98 125.824224 
L 255.535793 125.270908 
L 256.647378 120.164716 
L 257.758963 119.369047 
L 258.870548 114.733569 
L 259.42634 116.01131 
L 259.982133 113.514404 
L 260.537925 108.915636 
L 261.093718 106.227151 
L 261.64951 104.222684 
L 262.205303 101.775358 
L 263.316888 95.535821 
L 264.428473 91.562913 
L 266.09585 82.244682 
L 267.207435 77.40704 
L 267.763228 76.056634 
L 268.874813 72.626503 
L 269.986398 69.002985 
L 271.653775 63.585481 
L 272.76536 60.998202 
L 273.876945 59.671088 
L 274.432738 59.572596 
L 274.98853 59.759479 
L 275.544323 60.2524 
L 276.100115 60.997467 
L 279.990663 69.202738 
L 282.213833 71.442551 
L 283.325418 72.405438 
L 284.437003 73.84193 
L 288.32755 80.073264 
L 289.439135 81.516107 
L 290.55072 83.26536 
L 291.662305 84.562199 
L 294.441268 88.4417 
L 294.997061 89.8608 
L 295.552853 91.932699 
L 296.108646 96.622017 
L 296.664438 99.817712 
L 297.220231 101.185862 
L 297.776023 104.553588 
L 298.331816 106.115706 
L 298.887608 108.863228 
L 299.443401 108.745468 
L 300.554986 114.630268 
L 301.666571 118.713359 
L 302.778156 121.03031 
L 303.333948 120.876675 
L 303.889741 121.139285 
L 306.112911 116.079372 
L 306.668703 114.159874 
L 307.224496 113.073248 
L 307.780288 114.058679 
L 308.336081 114.335146 
L 308.891873 112.141127 
L 309.447666 111.063741 
L 310.003458 109.074903 
L 310.559251 107.968864 
L 311.115043 107.68244 
L 312.782421 100.588592 
L 313.894006 97.021502 
L 315.005591 93.92317 
L 316.672968 88.54455 
L 317.784553 83.538652 
L 319.451931 76.369426 
L 320.007723 75.035843 
L 322.230893 67.926194 
L 322.786686 66.552926 
L 323.898271 64.720043 
L 324.454063 64.168833 
L 325.009856 63.983382 
L 325.565648 64.162855 
L 326.121441 64.603265 
L 327.233026 66.199801 
L 330.011988 70.898447 
L 333.346744 74.777169 
L 333.902536 76.164531 
L 337.237291 81.145873 
L 338.348876 82.470509 
L 339.460461 84.551624 
L 341.127839 86.955316 
L 343.351009 90.012602 
L 343.906801 91.569491 
L 344.462594 94.439917 
L 346.129971 105.196615 
L 346.685764 105.322593 
L 347.241556 107.392292 
L 347.797349 106.938075 
L 348.353141 109.010642 
L 348.908934 112.006663 
L 349.464726 113.407758 
L 350.020519 116.226676 
L 351.132104 118.796345 
L 351.687896 118.65868 
L 352.243689 119.770391 
L 352.799481 118.171211 
L 353.355274 119.537033 
L 354.466859 114.311302 
L 355.022651 113.114976 
L 355.578444 115.120093 
L 356.134236 112.217762 
L 356.690029 113.990843 
L 357.245821 117.288885 
L 357.801614 114.93586 
L 358.913199 108.618255 
L 359.468991 106.776775 
L 360.024784 110.093589 
L 361.692161 101.355749 
L 362.247954 99.51391 
L 363.915331 92.200149 
L 365.582709 83.738211 
L 366.138501 80.066244 
L 367.250086 75.320914 
L 367.805879 73.023842 
L 368.917464 69.521502 
L 369.473256 67.351998 
L 372.808012 57.311323 
L 373.363804 56.263769 
L 373.919597 55.604302 
L 374.475389 55.306997 
L 375.031182 55.243243 
L 376.142767 55.892556 
L 377.810144 57.280519 
L 381.700692 62.234727 
L 382.812277 63.40969 
L 384.479654 65.698694 
L 385.035447 66.259773 
L 385.591239 67.224066 
L 386.702824 68.562638 
L 387.258617 68.903549 
L 387.814409 69.705617 
L 388.925994 70.673186 
L 389.481787 71.355067 
L 390.037579 72.441586 
L 390.593372 73.203608 
L 391.149164 73.522405 
L 392.816542 75.422253 
L 393.928127 77.168554 
L 396.707089 81.112496 
L 397.818674 82.559566 
L 398.374467 83.543063 
L 398.930259 84.785519 
L 399.486052 86.617843 
L 400.041844 89.001356 
L 400.597637 93.568438 
L 401.153429 95.822282 
L 402.265014 104.31231 
L 402.820807 104.22152 
L 403.376599 108.724622 
L 403.932392 109.789536 
L 404.488184 112.809818 
L 405.599769 116.890012 
L 406.155562 118.309773 
L 406.711354 118.749755 
L 408.378732 120.897271 
L 408.934524 120.078894 
L 410.04611 121.981025 
L 410.601902 122.479439 
L 411.157695 120.509762 
L 411.713487 120.36936 
L 412.26928 120.352198 
L 412.825072 118.316072 
L 413.380865 115.341192 
L 413.936657 118.221727 
L 414.49245 113.68602 
L 415.048242 110.140646 
L 416.159827 100.643813 
L 416.71562 94.42731 
L 417.271412 89.666617 
L 417.827205 86.432425 
L 419.494582 74.150474 
L 420.050375 70.386254 
L 421.16196 64.76465 
L 422.829337 58.188289 
L 423.38513 57.234155 
L 426.719885 45.86453 
L 427.275677 44.402839 
L 427.83147 43.369114 
L 428.387262 42.619557 
L 430.05464 41.604417 
L 430.610432 41.472 
L 431.722017 41.699615 
L 432.27781 41.550527 
L 433.389395 41.499076 
L 434.50098 42.264088 
L 435.056772 42.936769 
L 435.612565 43.414896 
L 436.72415 45.417146 
L 437.835735 46.957794 
L 438.391527 47.723797 
L 440.614697 52.259893 
L 441.726282 53.481079 
L 443.39366 55.968797 
L 443.949452 56.95813 
L 444.505245 57.492469 
L 445.061037 58.45425 
L 445.61683 58.757791 
L 446.172622 59.770513 
L 446.728415 61.123633 
L 447.284207 61.913445 
L 447.284207 61.913445 
" style="fill:none;stroke:#4c72b0;stroke-linecap:round;stroke-width:1.75;"/>
   </g>
   <g id="line2d_22">
    <path clip-path="url(#p1a4d497ecf)" d="M 62.12 90.782069 
L 447.84 90.782069 
" style="fill:none;stroke:#55a868;stroke-linecap:round;stroke-width:1.75;"/>
   </g>
   <g id="patch_3">
    <path d="M 62.12 142.886299 
L 62.12 41.472 
" style="fill:none;"/>
   </g>
   <g id="patch_4">
    <path d="M 447.84 142.886299 
L 447.84 41.472 
" style="fill:none;"/>
   </g>
   <g id="patch_5">
    <path d="M 62.12 142.886299 
L 447.84 142.886299 
" style="fill:none;"/>
   </g>
   <g id="patch_6">
    <path d="M 62.12 41.472 
L 447.84 41.472 
" style="fill:none;"/>
   </g>
   <g id="text_13">
    <!-- y(t), process variable -->
    <defs>
     <path d="M 32.171875 -5.078125 
Q 28.375 -14.84375 24.75 -17.8125 
Q 21.140625 -20.796875 15.09375 -20.796875 
L 7.90625 -20.796875 
L 7.90625 -13.28125 
L 13.1875 -13.28125 
Q 16.890625 -13.28125 18.9375 -11.515625 
Q 21 -9.765625 23.484375 -3.21875 
L 25.09375 0.875 
L 2.984375 54.6875 
L 12.5 54.6875 
L 29.59375 11.921875 
L 46.6875 54.6875 
L 56.203125 54.6875 
z
" id="DejaVuSans-79"/>
     <path d="M 11.71875 12.40625 
L 22.015625 12.40625 
L 22.015625 4 
L 14.015625 -11.625 
L 7.71875 -11.625 
L 11.71875 4 
z
" id="DejaVuSans-2c"/>
     <path d="M 18.109375 8.203125 
L 18.109375 -20.796875 
L 9.078125 -20.796875 
L 9.078125 54.6875 
L 18.109375 54.6875 
L 18.109375 46.390625 
Q 20.953125 51.265625 25.265625 53.625 
Q 29.59375 56 35.59375 56 
Q 45.5625 56 51.78125 48.09375 
Q 58.015625 40.1875 58.015625 27.296875 
Q 58.015625 14.40625 51.78125 6.484375 
Q 45.5625 -1.421875 35.59375 -1.421875 
Q 29.59375 -1.421875 25.265625 0.953125 
Q 20.953125 3.328125 18.109375 8.203125 
z
M 48.6875 27.296875 
Q 48.6875 37.203125 44.609375 42.84375 
Q 40.53125 48.484375 33.40625 48.484375 
Q 26.265625 48.484375 22.1875 42.84375 
Q 18.109375 37.203125 18.109375 27.296875 
Q 18.109375 17.390625 22.1875 11.75 
Q 26.265625 6.109375 33.40625 6.109375 
Q 40.53125 6.109375 44.609375 11.75 
Q 48.6875 17.390625 48.6875 27.296875 
z
" id="DejaVuSans-70"/>
     <path d="M 2.984375 54.6875 
L 12.5 54.6875 
L 29.59375 8.796875 
L 46.6875 54.6875 
L 56.203125 54.6875 
L 35.6875 0 
L 23.484375 0 
z
" id="DejaVuSans-76"/>
     <path d="M 34.28125 27.484375 
Q 23.390625 27.484375 19.1875 25 
Q 14.984375 22.515625 14.984375 16.5 
Q 14.984375 11.71875 18.140625 8.90625 
Q 21.296875 6.109375 26.703125 6.109375 
Q 34.1875 6.109375 38.703125 11.40625 
Q 43.21875 16.703125 43.21875 25.484375 
L 43.21875 27.484375 
z
M 52.203125 31.203125 
L 52.203125 0 
L 43.21875 0 
L 43.21875 8.296875 
Q 40.140625 3.328125 35.546875 0.953125 
Q 30.953125 -1.421875 24.3125 -1.421875 
Q 15.921875 -1.421875 10.953125 3.296875 
Q 6 8.015625 6 15.921875 
Q 6 25.140625 12.171875 29.828125 
Q 18.359375 34.515625 30.609375 34.515625 
L 43.21875 34.515625 
L 43.21875 35.40625 
Q 43.21875 41.609375 39.140625 45 
Q 35.0625 48.390625 27.6875 48.390625 
Q 23 48.390625 18.546875 47.265625 
Q 14.109375 46.140625 10.015625 43.890625 
L 10.015625 52.203125 
Q 14.9375 54.109375 19.578125 55.046875 
Q 24.21875 56 28.609375 56 
Q 40.484375 56 46.34375 49.84375 
Q 52.203125 43.703125 52.203125 31.203125 
z
" id="DejaVuSans-61"/>
     <path d="M 48.6875 27.296875 
Q 48.6875 37.203125 44.609375 42.84375 
Q 40.53125 48.484375 33.40625 48.484375 
Q 26.265625 48.484375 22.1875 42.84375 
Q 18.109375 37.203125 18.109375 27.296875 
Q 18.109375 17.390625 22.1875 11.75 
Q 26.265625 6.109375 33.40625 6.109375 
Q 40.53125 6.109375 44.609375 11.75 
Q 48.6875 17.390625 48.6875 27.296875 
z
M 18.109375 46.390625 
Q 20.953125 51.265625 25.265625 53.625 
Q 29.59375 56 35.59375 56 
Q 45.5625 56 51.78125 48.09375 
Q 58.015625 40.1875 58.015625 27.296875 
Q 58.015625 14.40625 51.78125 6.484375 
Q 45.5625 -1.421875 35.59375 -1.421875 
Q 29.59375 -1.421875 25.265625 0.953125 
Q 20.953125 3.328125 18.109375 8.203125 
L 18.109375 0 
L 9.078125 0 
L 9.078125 75.984375 
L 18.109375 75.984375 
z
" id="DejaVuSans-62"/>
    </defs>
    <g style="fill:#262626;" transform="translate(191.280625 35.472)scale(0.12 -0.12)">
     <use xlink:href="#DejaVuSans-79"/>
     <use x="59.179688" xlink:href="#DejaVuSans-28"/>
     <use x="98.193359" xlink:href="#DejaVuSans-74"/>
     <use x="137.402344" xlink:href="#DejaVuSans-29"/>
     <use x="176.416016" xlink:href="#DejaVuSans-2c"/>
     <use x="208.203125" xlink:href="#DejaVuSans-20"/>
     <use x="239.990234" xlink:href="#DejaVuSans-70"/>
     <use x="303.466797" xlink:href="#DejaVuSans-72"/>
     <use x="344.548828" xlink:href="#DejaVuSans-6f"/>
     <use x="405.730469" xlink:href="#DejaVuSans-63"/>
     <use x="460.710938" xlink:href="#DejaVuSans-65"/>
     <use x="522.234375" xlink:href="#DejaVuSans-73"/>
     <use x="574.333984" xlink:href="#DejaVuSans-73"/>
     <use x="626.433594" xlink:href="#DejaVuSans-20"/>
     <use x="658.220703" xlink:href="#DejaVuSans-76"/>
     <use x="717.400391" xlink:href="#DejaVuSans-61"/>
     <use x="778.679688" xlink:href="#DejaVuSans-72"/>
     <use x="819.792969" xlink:href="#DejaVuSans-69"/>
     <use x="847.576172" xlink:href="#DejaVuSans-61"/>
     <use x="908.855469" xlink:href="#DejaVuSans-62"/>
     <use x="972.332031" xlink:href="#DejaVuSans-6c"/>
     <use x="1000.115234" xlink:href="#DejaVuSans-65"/>
    </g>
   </g>
   <g id="legend_1">
    <g id="line2d_23">
     <path d="M 71.12 54.570437 
L 91.12 54.570437 
" style="fill:none;stroke:#55a868;stroke-linecap:round;stroke-width:1.75;"/>
    </g>
    <g id="line2d_24"/>
    <g id="text_14">
     <!-- Set point -->
     <defs>
      <path d="M 53.515625 70.515625 
L 53.515625 60.890625 
Q 47.90625 63.578125 42.921875 64.890625 
Q 37.9375 66.21875 33.296875 66.21875 
Q 25.25 66.21875 20.875 63.09375 
Q 16.5 59.96875 16.5 54.203125 
Q 16.5 49.359375 19.40625 46.890625 
Q 22.3125 44.4375 30.421875 42.921875 
L 36.375 41.703125 
Q 47.40625 39.59375 52.65625 34.296875 
Q 57.90625 29 57.90625 20.125 
Q 57.90625 9.515625 50.796875 4.046875 
Q 43.703125 -1.421875 29.984375 -1.421875 
Q 24.8125 -1.421875 18.96875 -0.25 
Q 13.140625 0.921875 6.890625 3.21875 
L 6.890625 13.375 
Q 12.890625 10.015625 18.65625 8.296875 
Q 24.421875 6.59375 29.984375 6.59375 
Q 38.421875 6.59375 43.015625 9.90625 
Q 47.609375 13.234375 47.609375 19.390625 
Q 47.609375 24.75 44.3125 27.78125 
Q 41.015625 30.8125 33.5 32.328125 
L 27.484375 33.5 
Q 16.453125 35.6875 11.515625 40.375 
Q 6.59375 45.0625 6.59375 53.421875 
Q 6.59375 63.09375 13.40625 68.65625 
Q 20.21875 74.21875 32.171875 74.21875 
Q 37.3125 74.21875 42.625 73.28125 
Q 47.953125 72.359375 53.515625 70.515625 
z
" id="DejaVuSans-53"/>
     </defs>
     <g style="fill:#262626;" transform="translate(99.12 58.070437)scale(0.1 -0.1)">
      <use xlink:href="#DejaVuSans-53"/>
      <use x="63.476562" xlink:href="#DejaVuSans-65"/>
      <use x="125" xlink:href="#DejaVuSans-74"/>
      <use x="164.208984" xlink:href="#DejaVuSans-20"/>
      <use x="195.996094" xlink:href="#DejaVuSans-70"/>
      <use x="259.472656" xlink:href="#DejaVuSans-6f"/>
      <use x="320.654297" xlink:href="#DejaVuSans-69"/>
      <use x="348.4375" xlink:href="#DejaVuSans-6e"/>
      <use x="411.816406" xlink:href="#DejaVuSans-74"/>
     </g>
    </g>
   </g>
  </g>
  <g id="axes_2">
   <g id="patch_7">
    <path d="M 62.12 300.76 
L 447.84 300.76 
L 447.84 199.345701 
L 62.12 199.345701 
z
" style="fill:#eaeaf2;"/>
   </g>
   <g id="matplotlib.axis_3">
    <g id="xtick_8">
     <g id="line2d_25">
      <path clip-path="url(#p1b7d2602a3)" d="M 62.12 300.76 
L 62.12 199.345701 
" style="fill:none;stroke:#ffffff;stroke-linecap:round;"/>
     </g>
     <g id="line2d_26"/>
     <g id="text_15">
      <!-- 0.0 -->
      <g style="fill:#262626;" transform="translate(54.168438 315.358437)scale(0.1 -0.1)">
       <use xlink:href="#DejaVuSans-30"/>
       <use x="63.623047" xlink:href="#DejaVuSans-2e"/>
       <use x="95.410156" xlink:href="#DejaVuSans-30"/>
      </g>
     </g>
    </g>
    <g id="xtick_9">
     <g id="line2d_27">
      <path clip-path="url(#p1b7d2602a3)" d="M 119.115278 300.76 
L 119.115278 199.345701 
" style="fill:none;stroke:#ffffff;stroke-linecap:round;"/>
     </g>
     <g id="line2d_28"/>
     <g id="text_16">
      <!-- 0.2 -->
      <g style="fill:#262626;" transform="translate(111.163716 315.358437)scale(0.1 -0.1)">
       <use xlink:href="#DejaVuSans-30"/>
       <use x="63.623047" xlink:href="#DejaVuSans-2e"/>
       <use x="95.410156" xlink:href="#DejaVuSans-32"/>
      </g>
     </g>
    </g>
    <g id="xtick_10">
     <g id="line2d_29">
      <path clip-path="url(#p1b7d2602a3)" d="M 176.110557 300.76 
L 176.110557 199.345701 
" style="fill:none;stroke:#ffffff;stroke-linecap:round;"/>
     </g>
     <g id="line2d_30"/>
     <g id="text_17">
      <!-- 0.4 -->
      <g style="fill:#262626;" transform="translate(168.158994 315.358437)scale(0.1 -0.1)">
       <use xlink:href="#DejaVuSans-30"/>
       <use x="63.623047" xlink:href="#DejaVuSans-2e"/>
       <use x="95.410156" xlink:href="#DejaVuSans-34"/>
      </g>
     </g>
    </g>
    <g id="xtick_11">
     <g id="line2d_31">
      <path clip-path="url(#p1b7d2602a3)" d="M 233.105835 300.76 
L 233.105835 199.345701 
" style="fill:none;stroke:#ffffff;stroke-linecap:round;"/>
     </g>
     <g id="line2d_32"/>
     <g id="text_18">
      <!-- 0.6 -->
      <g style="fill:#262626;" transform="translate(225.154273 315.358437)scale(0.1 -0.1)">
       <use xlink:href="#DejaVuSans-30"/>
       <use x="63.623047" xlink:href="#DejaVuSans-2e"/>
       <use x="95.410156" xlink:href="#DejaVuSans-36"/>
      </g>
     </g>
    </g>
    <g id="xtick_12">
     <g id="line2d_33">
      <path clip-path="url(#p1b7d2602a3)" d="M 290.101114 300.76 
L 290.101114 199.345701 
" style="fill:none;stroke:#ffffff;stroke-linecap:round;"/>
     </g>
     <g id="line2d_34"/>
     <g id="text_19">
      <!-- 0.8 -->
      <g style="fill:#262626;" transform="translate(282.149551 315.358437)scale(0.1 -0.1)">
       <use xlink:href="#DejaVuSans-30"/>
       <use x="63.623047" xlink:href="#DejaVuSans-2e"/>
       <use x="95.410156" xlink:href="#DejaVuSans-38"/>
      </g>
     </g>
    </g>
    <g id="xtick_13">
     <g id="line2d_35">
      <path clip-path="url(#p1b7d2602a3)" d="M 347.096392 300.76 
L 347.096392 199.345701 
" style="fill:none;stroke:#ffffff;stroke-linecap:round;"/>
     </g>
     <g id="line2d_36"/>
     <g id="text_20">
      <!-- 1.0 -->
      <g style="fill:#262626;" transform="translate(339.14483 315.358437)scale(0.1 -0.1)">
       <use xlink:href="#DejaVuSans-31"/>
       <use x="63.623047" xlink:href="#DejaVuSans-2e"/>
       <use x="95.410156" xlink:href="#DejaVuSans-30"/>
      </g>
     </g>
    </g>
    <g id="xtick_14">
     <g id="line2d_37">
      <path clip-path="url(#p1b7d2602a3)" d="M 404.091671 300.76 
L 404.091671 199.345701 
" style="fill:none;stroke:#ffffff;stroke-linecap:round;"/>
     </g>
     <g id="line2d_38"/>
     <g id="text_21">
      <!-- 1.2 -->
      <g style="fill:#262626;" transform="translate(396.140108 315.358437)scale(0.1 -0.1)">
       <use xlink:href="#DejaVuSans-31"/>
       <use x="63.623047" xlink:href="#DejaVuSans-2e"/>
       <use x="95.410156" xlink:href="#DejaVuSans-32"/>
      </g>
     </g>
    </g>
    <g id="text_22">
     <!-- Time (seconds) -->
     <g style="fill:#262626;" transform="translate(212.832813 329.796406)scale(0.11 -0.11)">
      <use xlink:href="#DejaVuSans-54"/>
      <use x="61.037109" xlink:href="#DejaVuSans-69"/>
      <use x="88.820312" xlink:href="#DejaVuSans-6d"/>
      <use x="186.232422" xlink:href="#DejaVuSans-65"/>
      <use x="247.755859" xlink:href="#DejaVuSans-20"/>
      <use x="279.542969" xlink:href="#DejaVuSans-28"/>
      <use x="318.556641" xlink:href="#DejaVuSans-73"/>
      <use x="370.65625" xlink:href="#DejaVuSans-65"/>
      <use x="432.179688" xlink:href="#DejaVuSans-63"/>
      <use x="487.160156" xlink:href="#DejaVuSans-6f"/>
      <use x="548.341797" xlink:href="#DejaVuSans-6e"/>
      <use x="611.720703" xlink:href="#DejaVuSans-64"/>
      <use x="675.197266" xlink:href="#DejaVuSans-73"/>
      <use x="727.296875" xlink:href="#DejaVuSans-29"/>
     </g>
    </g>
   </g>
   <g id="matplotlib.axis_4">
    <g id="ytick_4">
     <g id="line2d_39">
      <path clip-path="url(#p1b7d2602a3)" d="M 62.12 285.818477 
L 447.84 285.818477 
" style="fill:none;stroke:#ffffff;stroke-linecap:round;"/>
     </g>
     <g id="line2d_40"/>
     <g id="text_23">
      <!-- −100 -->
      <defs>
       <path d="M 10.59375 35.5 
L 73.1875 35.5 
L 73.1875 27.203125 
L 10.59375 27.203125 
z
" id="DejaVuSans-2212"/>
      </defs>
      <g style="fill:#262626;" transform="translate(27.652813 289.617695)scale(0.1 -0.1)">
       <use xlink:href="#DejaVuSans-2212"/>
       <use x="83.789062" xlink:href="#DejaVuSans-31"/>
       <use x="147.412109" xlink:href="#DejaVuSans-30"/>
       <use x="211.035156" xlink:href="#DejaVuSans-30"/>
      </g>
     </g>
    </g>
    <g id="ytick_5">
     <g id="line2d_41">
      <path clip-path="url(#p1b7d2602a3)" d="M 62.12 251.44993 
L 447.84 251.44993 
" style="fill:none;stroke:#ffffff;stroke-linecap:round;"/>
     </g>
     <g id="line2d_42"/>
     <g id="text_24">
      <!-- 0 -->
      <g style="fill:#262626;" transform="translate(48.7575 255.249149)scale(0.1 -0.1)">
       <use xlink:href="#DejaVuSans-30"/>
      </g>
     </g>
    </g>
    <g id="ytick_6">
     <g id="line2d_43">
      <path clip-path="url(#p1b7d2602a3)" d="M 62.12 217.081384 
L 447.84 217.081384 
" style="fill:none;stroke:#ffffff;stroke-linecap:round;"/>
     </g>
     <g id="line2d_44"/>
     <g id="text_25">
      <!-- 100 -->
      <g style="fill:#262626;" transform="translate(36.0325 220.880603)scale(0.1 -0.1)">
       <use xlink:href="#DejaVuSans-31"/>
       <use x="63.623047" xlink:href="#DejaVuSans-30"/>
       <use x="127.246094" xlink:href="#DejaVuSans-30"/>
      </g>
     </g>
    </g>
    <g id="text_26">
     <!-- Duty cycle (%) -->
     <defs>
      <path d="M 19.671875 64.796875 
L 19.671875 8.109375 
L 31.59375 8.109375 
Q 46.6875 8.109375 53.6875 14.9375 
Q 60.6875 21.78125 60.6875 36.53125 
Q 60.6875 51.171875 53.6875 57.984375 
Q 46.6875 64.796875 31.59375 64.796875 
z
M 9.8125 72.90625 
L 30.078125 72.90625 
Q 51.265625 72.90625 61.171875 64.09375 
Q 71.09375 55.28125 71.09375 36.53125 
Q 71.09375 17.671875 61.125 8.828125 
Q 51.171875 0 30.078125 0 
L 9.8125 0 
z
" id="DejaVuSans-44"/>
      <path d="M 8.5 21.578125 
L 8.5 54.6875 
L 17.484375 54.6875 
L 17.484375 21.921875 
Q 17.484375 14.15625 20.5 10.265625 
Q 23.53125 6.390625 29.59375 6.390625 
Q 36.859375 6.390625 41.078125 11.03125 
Q 45.3125 15.671875 45.3125 23.6875 
L 45.3125 54.6875 
L 54.296875 54.6875 
L 54.296875 0 
L 45.3125 0 
L 45.3125 8.40625 
Q 42.046875 3.421875 37.71875 1 
Q 33.40625 -1.421875 27.6875 -1.421875 
Q 18.265625 -1.421875 13.375 4.4375 
Q 8.5 10.296875 8.5 21.578125 
z
M 31.109375 56 
z
" id="DejaVuSans-75"/>
      <path d="M 72.703125 32.078125 
Q 68.453125 32.078125 66.03125 28.46875 
Q 63.625 24.859375 63.625 18.40625 
Q 63.625 12.0625 66.03125 8.421875 
Q 68.453125 4.78125 72.703125 4.78125 
Q 76.859375 4.78125 79.265625 8.421875 
Q 81.6875 12.0625 81.6875 18.40625 
Q 81.6875 24.8125 79.265625 28.4375 
Q 76.859375 32.078125 72.703125 32.078125 
z
M 72.703125 38.28125 
Q 80.421875 38.28125 84.953125 32.90625 
Q 89.5 27.546875 89.5 18.40625 
Q 89.5 9.28125 84.9375 3.921875 
Q 80.375 -1.421875 72.703125 -1.421875 
Q 64.890625 -1.421875 60.34375 3.921875 
Q 55.8125 9.28125 55.8125 18.40625 
Q 55.8125 27.59375 60.375 32.9375 
Q 64.9375 38.28125 72.703125 38.28125 
z
M 22.3125 68.015625 
Q 18.109375 68.015625 15.6875 64.375 
Q 13.28125 60.75 13.28125 54.390625 
Q 13.28125 47.953125 15.671875 44.328125 
Q 18.0625 40.71875 22.3125 40.71875 
Q 26.5625 40.71875 28.96875 44.328125 
Q 31.390625 47.953125 31.390625 54.390625 
Q 31.390625 60.6875 28.953125 64.34375 
Q 26.515625 68.015625 22.3125 68.015625 
z
M 66.40625 74.21875 
L 74.21875 74.21875 
L 28.609375 -1.421875 
L 20.796875 -1.421875 
z
M 22.3125 74.21875 
Q 30.03125 74.21875 34.609375 68.875 
Q 39.203125 63.53125 39.203125 54.390625 
Q 39.203125 45.171875 34.640625 39.84375 
Q 30.078125 34.515625 22.3125 34.515625 
Q 14.546875 34.515625 10.03125 39.859375 
Q 5.515625 45.21875 5.515625 54.390625 
Q 5.515625 63.484375 10.046875 68.84375 
Q 14.59375 74.21875 22.3125 74.21875 
z
" id="DejaVuSans-25"/>
     </defs>
     <g style="fill:#262626;" transform="translate(21.365156 290.414257)rotate(-90)scale(0.11 -0.11)">
      <use xlink:href="#DejaVuSans-44"/>
      <use x="77.001953" xlink:href="#DejaVuSans-75"/>
      <use x="140.380859" xlink:href="#DejaVuSans-74"/>
      <use x="179.589844" xlink:href="#DejaVuSans-79"/>
      <use x="238.769531" xlink:href="#DejaVuSans-20"/>
      <use x="270.556641" xlink:href="#DejaVuSans-63"/>
      <use x="325.537109" xlink:href="#DejaVuSans-79"/>
      <use x="384.716797" xlink:href="#DejaVuSans-63"/>
      <use x="439.697266" xlink:href="#DejaVuSans-6c"/>
      <use x="467.480469" xlink:href="#DejaVuSans-65"/>
      <use x="529.003906" xlink:href="#DejaVuSans-20"/>
      <use x="560.791016" xlink:href="#DejaVuSans-28"/>
      <use x="599.804688" xlink:href="#DejaVuSans-25"/>
      <use x="694.824219" xlink:href="#DejaVuSans-29"/>
     </g>
    </g>
   </g>
   <g id="line2d_45">
    <path clip-path="url(#p1b7d2602a3)" d="M 62.12 251.44993 
L 62.676595 206.715794 
L 63.233189 206.807736 
L 63.789784 207.598647 
L 64.346378 208.065793 
L 64.902973 205.678564 
L 65.459567 205.104732 
L 66.016162 204.782077 
L 66.572756 203.455476 
L 67.129351 203.742335 
L 67.685945 201.89514 
L 68.24254 202.093072 
L 68.799134 200.843083 
L 69.912323 200.574644 
L 70.468918 199.345701 
L 71.025512 201.646731 
L 71.582107 201.986803 
L 72.138701 202.533603 
L 72.695296 202.545014 
L 73.808485 208.121598 
L 74.365079 210.065513 
L 74.921674 208.572798 
L 76.034863 214.392687 
L 76.591457 213.269255 
L 77.148052 211.142255 
L 78.261241 216.836856 
L 78.817835 214.616271 
L 79.931025 219.92537 
L 81.044214 224.718533 
L 82.713997 234.437639 
L 83.270592 236.807591 
L 83.827186 241.240065 
L 84.383781 243.691302 
L 84.940375 245.282893 
L 88.279942 260.319077 
L 90.50632 268.872342 
L 92.176104 274.467522 
L 92.732698 275.573176 
L 93.845887 277.086192 
L 94.402482 277.668008 
L 94.959076 277.920847 
L 95.515671 277.947986 
L 96.072266 277.637471 
L 97.185455 276.073969 
L 99.411833 271.951071 
L 101.638211 267.100863 
L 102.194805 265.339296 
L 103.307994 263.652694 
L 104.421183 262.172637 
L 105.534372 260.341158 
L 106.090967 258.863259 
L 108.317345 255.598872 
L 110.543723 252.766896 
L 111.100317 251.87735 
L 111.656912 250.340331 
L 112.213506 247.953929 
L 113.88329 235.867889 
L 114.439885 234.503617 
L 114.996479 232.534588 
L 115.553074 228.318801 
L 116.109668 225.541804 
L 117.222857 218.707868 
L 117.779452 215.586624 
L 118.892641 211.150101 
L 119.449235 210.779609 
L 120.00583 209.313164 
L 120.562424 208.89776 
L 121.119019 209.19185 
L 121.675613 208.532639 
L 122.232208 209.384399 
L 122.788802 208.359162 
L 123.345397 209.129866 
L 123.901991 210.344351 
L 125.01518 211.768612 
L 125.571775 210.759099 
L 126.128369 209.411407 
L 126.684964 211.556491 
L 127.798153 212.114837 
L 128.354747 210.676933 
L 129.467937 215.617799 
L 130.581126 214.135375 
L 131.13772 216.31642 
L 131.694315 217.509056 
L 132.250909 216.563451 
L 133.364098 221.317902 
L 133.920693 218.310206 
L 134.477287 220.676512 
L 135.033882 220.82897 
L 135.590476 222.535836 
L 136.147071 225.103057 
L 136.703665 221.620944 
L 137.816854 225.753024 
L 138.373449 231.873265 
L 140.043232 240.599517 
L 140.599827 242.701968 
L 141.156421 247.30177 
L 141.713016 249.939216 
L 142.26961 251.389205 
L 143.382799 257.571662 
L 145.052583 264.056158 
L 145.609177 265.508271 
L 146.165772 267.621722 
L 146.722367 269.124209 
L 149.505339 278.551199 
L 150.061934 280.224877 
L 151.175123 282.432732 
L 152.288312 283.762405 
L 153.401501 284.369229 
L 153.958095 284.234957 
L 154.51469 283.953299 
L 155.071284 283.44474 
L 157.297662 279.504603 
L 158.967446 277.220639 
L 159.52404 276.138168 
L 160.080635 275.330815 
L 161.750418 272.123106 
L 162.307013 271.134639 
L 162.863608 269.781404 
L 163.420202 268.909918 
L 165.089986 266.951255 
L 165.64658 266.097132 
L 166.759769 264.806505 
L 167.316364 263.763523 
L 168.429553 262.689962 
L 168.986147 262.506367 
L 170.099336 261.625621 
L 170.655931 261.14 
L 172.882309 258.54456 
L 173.995498 256.360876 
L 174.552092 253.494399 
L 175.108687 248.795079 
L 176.77847 241.830365 
L 177.335065 240.71693 
L 177.891659 236.918934 
L 178.448254 234.340005 
L 179.004848 230.215049 
L 180.674632 221.147774 
L 181.231227 218.940228 
L 182.90101 214.202522 
L 183.457605 213.067152 
L 184.014199 212.507343 
L 184.570794 211.656242 
L 185.127388 212.000759 
L 186.240577 213.086199 
L 186.797172 212.209512 
L 187.353766 213.371304 
L 187.910361 213.493409 
L 188.466955 213.220476 
L 189.02355 214.201584 
L 189.580144 216.223814 
L 190.136739 217.292343 
L 190.693333 217.78438 
L 191.249928 215.949865 
L 191.806522 217.962553 
L 192.363117 216.156725 
L 192.919711 217.108144 
L 193.476306 215.184183 
L 194.0329 217.563959 
L 194.589495 218.68671 
L 195.146089 216.89936 
L 196.259278 221.883313 
L 196.815873 220.055051 
L 197.929062 223.866275 
L 198.485657 221.163389 
L 199.598846 226.807307 
L 200.15544 223.528215 
L 200.712035 225.900829 
L 201.268629 232.057669 
L 201.825224 235.622834 
L 202.381818 237.89535 
L 202.938413 240.74788 
L 203.495007 245.123254 
L 204.051602 246.362522 
L 205.164791 250.647997 
L 205.721385 255.304346 
L 206.27798 258.411593 
L 207.947763 265.033435 
L 209.060952 268.578887 
L 209.617547 270.769309 
L 210.730736 274.17643 
L 212.400519 279.654725 
L 213.513709 282.393023 
L 214.626898 283.804432 
L 215.183492 284.056075 
L 215.740087 283.982982 
L 216.296681 283.569895 
L 216.853276 282.953692 
L 217.966465 281.145238 
L 222.975815 272.102024 
L 223.53241 271.460551 
L 224.089004 270.631907 
L 224.645599 269.441593 
L 225.758788 268.534479 
L 226.315382 268.015705 
L 226.871977 267.285347 
L 227.428571 267.09534 
L 228.54176 266.43225 
L 229.654949 264.758365 
L 231.324733 262.105491 
L 231.881328 261.158512 
L 232.994517 260.026743 
L 234.107706 259.049828 
L 235.220895 257.781032 
L 236.334084 256.051079 
L 236.890678 254.730116 
L 237.447273 252.684979 
L 238.560462 246.1724 
L 239.117056 241.642282 
L 240.230245 236.938851 
L 240.78684 234.618325 
L 241.343434 233.266118 
L 241.900029 230.266766 
L 242.456623 228.074443 
L 243.013218 224.315361 
L 244.126407 219.519188 
L 244.683001 217.426679 
L 245.79619 215.136104 
L 246.352785 214.60366 
L 246.90938 213.907489 
L 248.022569 213.2274 
L 248.579163 214.272192 
L 249.135758 214.847082 
L 249.692352 215.644938 
L 250.248947 217.208657 
L 250.805541 216.970534 
L 251.91873 218.750129 
L 252.475325 221.067367 
L 253.031919 218.744426 
L 253.588514 218.065768 
L 254.145108 216.832668 
L 254.701703 219.114635 
L 255.258297 216.407776 
L 255.814892 216.961094 
L 256.928081 222.067283 
L 258.04127 222.862952 
L 259.154459 227.49843 
L 259.711053 226.220688 
L 260.267648 228.717594 
L 260.824242 233.316362 
L 261.380837 236.004848 
L 261.937431 238.009315 
L 262.494026 240.456641 
L 263.607215 246.696177 
L 264.720404 250.669086 
L 266.390188 259.987317 
L 267.503377 264.824959 
L 268.059971 266.175365 
L 269.17316 269.605497 
L 270.286349 273.229014 
L 271.956133 278.646517 
L 273.069322 281.233798 
L 274.182511 282.56091 
L 274.739105 282.659403 
L 275.2957 282.47252 
L 275.852294 281.979598 
L 276.408889 281.234531 
L 280.305051 273.029261 
L 282.531429 270.789448 
L 283.644618 269.826562 
L 284.757807 268.390068 
L 288.653968 262.158735 
L 289.767157 260.715891 
L 290.880346 258.966639 
L 291.993535 257.6698 
L 294.776508 253.790299 
L 295.333102 252.371199 
L 295.889697 250.2993 
L 296.446291 245.609982 
L 297.002886 242.414287 
L 297.559481 241.046138 
L 298.116075 237.678411 
L 298.67267 236.116292 
L 299.229264 233.368772 
L 299.785859 233.486531 
L 300.899048 227.601729 
L 302.012237 223.51864 
L 303.125426 221.201691 
L 303.68202 221.355324 
L 304.238615 221.092715 
L 306.464993 226.152627 
L 307.021587 228.072124 
L 307.578182 229.158752 
L 308.134776 228.173319 
L 308.691371 227.896852 
L 309.247965 230.090872 
L 309.80456 231.168259 
L 310.361154 233.157096 
L 310.917749 234.263135 
L 311.474343 234.549559 
L 313.144127 241.643408 
L 314.257316 245.210497 
L 315.370505 248.308829 
L 317.040289 253.687449 
L 318.153478 258.693347 
L 319.823261 265.862573 
L 320.379856 267.196155 
L 322.606234 274.305805 
L 323.162828 275.679073 
L 324.276017 277.511956 
L 324.832612 278.063164 
L 325.389206 278.248617 
L 325.945801 278.069144 
L 326.502395 277.628734 
L 327.615584 276.032197 
L 330.398557 271.333551 
L 333.738124 267.45483 
L 334.294719 266.067467 
L 337.634286 261.086126 
L 338.747475 259.76149 
L 339.860664 257.680375 
L 341.530447 255.276682 
L 343.756825 252.219397 
L 344.31342 250.662507 
L 344.870014 247.792081 
L 346.539798 237.035384 
L 347.096392 236.909406 
L 347.652987 234.839707 
L 348.209582 235.293923 
L 348.766176 233.221356 
L 349.322771 230.225337 
L 349.879365 228.82424 
L 350.43596 226.005322 
L 351.549149 223.435654 
L 352.105743 223.573319 
L 352.662338 222.461607 
L 353.218932 224.060788 
L 353.775527 222.694967 
L 354.888716 227.920697 
L 355.44531 229.117023 
L 356.001905 227.111907 
L 356.558499 230.014236 
L 357.115094 228.241156 
L 357.671688 224.943113 
L 358.228283 227.296139 
L 359.341472 233.613745 
L 359.898066 235.455224 
L 360.454661 232.138409 
L 362.124444 240.876249 
L 362.681039 242.718089 
L 364.350823 250.03185 
L 366.020606 258.493788 
L 366.577201 262.165754 
L 367.69039 266.911085 
L 368.246984 269.208157 
L 369.360173 272.710496 
L 369.916768 274.88 
L 373.256335 284.920676 
L 373.812929 285.968228 
L 374.369524 286.627697 
L 374.926118 286.925004 
L 375.482713 286.988754 
L 376.595902 286.339441 
L 378.265685 284.951479 
L 382.161847 279.997271 
L 383.275036 278.822309 
L 384.94482 276.533306 
L 385.501414 275.972225 
L 386.058009 275.007933 
L 387.171198 273.669361 
L 387.727792 273.32845 
L 388.284387 272.526382 
L 389.397576 271.558813 
L 389.95417 270.876933 
L 390.510765 269.790413 
L 391.067359 269.028391 
L 391.623954 268.709593 
L 393.293737 266.809745 
L 394.406926 265.063445 
L 397.189899 261.119503 
L 398.303088 259.672432 
L 398.859683 258.688936 
L 399.416277 257.44648 
L 399.972872 255.614156 
L 400.529466 253.230643 
L 401.086061 248.663561 
L 401.642655 246.409717 
L 402.755844 237.919688 
L 403.312439 238.010479 
L 403.869033 233.507377 
L 404.425628 232.442464 
L 404.982222 229.422182 
L 406.095411 225.341987 
L 406.652006 223.922226 
L 407.2086 223.482246 
L 408.878384 221.334728 
L 409.434978 222.153106 
L 410.548167 220.250972 
L 411.104762 219.752562 
L 411.661356 221.722237 
L 412.217951 221.862637 
L 412.774545 221.8798 
L 413.33114 223.915927 
L 413.887734 226.890807 
L 414.444329 224.010274 
L 415.000924 228.545979 
L 415.557518 232.091353 
L 416.670707 241.588185 
L 417.227302 247.804689 
L 417.783896 252.565382 
L 418.340491 255.799574 
L 420.010274 268.081525 
L 420.566869 271.845746 
L 421.680058 277.467349 
L 423.349841 284.04371 
L 423.906436 284.997844 
L 427.246003 296.367467 
L 427.802597 297.829159 
L 428.359192 298.862886 
L 428.915786 299.612441 
L 430.58557 300.627583 
L 431.142165 300.76 
L 432.255354 300.532384 
L 432.811948 300.681472 
L 433.925137 300.732923 
L 435.038326 299.967909 
L 435.594921 299.295231 
L 436.151515 298.817101 
L 437.264704 296.814852 
L 438.377893 295.274206 
L 438.934488 294.508201 
L 441.160866 289.972107 
L 442.274055 288.75092 
L 443.943838 286.263203 
L 444.500433 285.273868 
L 445.057027 284.739529 
L 445.613622 283.777748 
L 446.170216 283.474208 
L 446.726811 282.461485 
L 447.283405 281.108367 
L 447.84 280.318554 
L 447.84 280.318554 
" style="fill:none;stroke:#4c72b0;stroke-linecap:round;stroke-width:1.75;"/>
   </g>
   <g id="patch_8">
    <path d="M 62.12 300.76 
L 62.12 199.345701 
" style="fill:none;"/>
   </g>
   <g id="patch_9">
    <path d="M 447.84 300.76 
L 447.84 199.345701 
" style="fill:none;"/>
   </g>
   <g id="patch_10">
    <path d="M 62.12 300.76 
L 447.84 300.76 
" style="fill:none;"/>
   </g>
   <g id="patch_11">
    <path d="M 62.12 199.345701 
L 447.84 199.345701 
" style="fill:none;"/>
   </g>
   <g id="text_27">
    <!-- u(t), control variable -->
    <g style="fill:#262626;" transform="translate(193.28875 193.345701)scale(0.12 -0.12)">
     <use xlink:href="#DejaVuSans-75"/>
     <use x="63.378906" xlink:href="#DejaVuSans-28"/>
     <use x="102.392578" xlink:href="#DejaVuSans-74"/>
     <use x="141.601562" xlink:href="#DejaVuSans-29"/>
     <use x="180.615234" xlink:href="#DejaVuSans-2c"/>
     <use x="212.402344" xlink:href="#DejaVuSans-20"/>
     <use x="244.189453" xlink:href="#DejaVuSans-63"/>
     <use x="299.169922" xlink:href="#DejaVuSans-6f"/>
     <use x="360.351562" xlink:href="#DejaVuSans-6e"/>
     <use x="423.730469" xlink:href="#DejaVuSans-74"/>
     <use x="462.939453" xlink:href="#DejaVuSans-72"/>
     <use x="504.021484" xlink:href="#DejaVuSans-6f"/>
     <use x="565.203125" xlink:href="#DejaVuSans-6c"/>
     <use x="592.986328" xlink:href="#DejaVuSans-20"/>
     <use x="624.773438" xlink:href="#DejaVuSans-76"/>
     <use x="683.953125" xlink:href="#DejaVuSans-61"/>
     <use x="745.232422" xlink:href="#DejaVuSans-72"/>
     <use x="786.345703" xlink:href="#DejaVuSans-69"/>
     <use x="814.128906" xlink:href="#DejaVuSans-61"/>
     <use x="875.408203" xlink:href="#DejaVuSans-62"/>
     <use x="938.884766" xlink:href="#DejaVuSans-6c"/>
     <use x="966.667969" xlink:href="#DejaVuSans-65"/>
    </g>
   </g>
  </g>
  <g id="text_28">
   <!-- Unstable PID controller -->
   <defs>
    <path d="M 8.6875 72.90625 
L 18.609375 72.90625 
L 18.609375 28.609375 
Q 18.609375 16.890625 22.84375 11.734375 
Q 27.09375 6.59375 36.625 6.59375 
Q 46.09375 6.59375 50.34375 11.734375 
Q 54.59375 16.890625 54.59375 28.609375 
L 54.59375 72.90625 
L 64.5 72.90625 
L 64.5 27.390625 
Q 64.5 13.140625 57.4375 5.859375 
Q 50.390625 -1.421875 36.625 -1.421875 
Q 22.796875 -1.421875 15.734375 5.859375 
Q 8.6875 13.140625 8.6875 27.390625 
z
" id="DejaVuSans-55"/>
    <path d="M 19.671875 64.796875 
L 19.671875 37.40625 
L 32.078125 37.40625 
Q 38.96875 37.40625 42.71875 40.96875 
Q 46.484375 44.53125 46.484375 51.125 
Q 46.484375 57.671875 42.71875 61.234375 
Q 38.96875 64.796875 32.078125 64.796875 
z
M 9.8125 72.90625 
L 32.078125 72.90625 
Q 44.34375 72.90625 50.609375 67.359375 
Q 56.890625 61.8125 56.890625 51.125 
Q 56.890625 40.328125 50.609375 34.8125 
Q 44.34375 29.296875 32.078125 29.296875 
L 19.671875 29.296875 
L 19.671875 0 
L 9.8125 0 
z
" id="DejaVuSans-50"/>
    <path d="M 9.8125 72.90625 
L 19.671875 72.90625 
L 19.671875 0 
L 9.8125 0 
z
" id="DejaVuSans-49"/>
   </defs>
   <g style="fill:#262626;" transform="translate(147.490875 17.85375)scale(0.144 -0.144)">
    <use xlink:href="#DejaVuSans-55"/>
    <use x="73.193359" xlink:href="#DejaVuSans-6e"/>
    <use x="136.572266" xlink:href="#DejaVuSans-73"/>
    <use x="188.671875" xlink:href="#DejaVuSans-74"/>
    <use x="227.880859" xlink:href="#DejaVuSans-61"/>
    <use x="289.160156" xlink:href="#DejaVuSans-62"/>
    <use x="352.636719" xlink:href="#DejaVuSans-6c"/>
    <use x="380.419922" xlink:href="#DejaVuSans-65"/>
    <use x="441.943359" xlink:href="#DejaVuSans-20"/>
    <use x="473.730469" xlink:href="#DejaVuSans-50"/>
    <use x="534.033203" xlink:href="#DejaVuSans-49"/>
    <use x="563.525391" xlink:href="#DejaVuSans-44"/>
    <use x="640.527344" xlink:href="#DejaVuSans-20"/>
    <use x="672.314453" xlink:href="#DejaVuSans-63"/>
    <use x="727.294922" xlink:href="#DejaVuSans-6f"/>
    <use x="788.476562" xlink:href="#DejaVuSans-6e"/>
    <use x="851.855469" xlink:href="#DejaVuSans-74"/>
    <use x="891.064453" xlink:href="#DejaVuSans-72"/>
    <use x="932.146484" xlink:href="#DejaVuSans-6f"/>
    <use x="993.328125" xlink:href="#DejaVuSans-6c"/>
    <use x="1021.111328" xlink:href="#DejaVuSans-6c"/>
    <use x="1048.894531" xlink:href="#DejaVuSans-65"/>
    <use x="1110.417969" xlink:href="#DejaVuSans-72"/>
   </g>
  </g>
 </g>
 <defs>
  <clipPath id="p1a4d497ecf">
   <rect height="101.414299" width="385.72" x="62.12" y="41.472"/>
  </clipPath>
  <clipPath id="p1b7d2602a3">
   <rect height="101.414299" width="385.72" x="62.12" y="199.345701"/>
  </clipPath>
 </defs>
</svg>
